<?xml version="1.0" encoding="utf-8"?>
<!-- Generator: Adobe Illustrator 15.0.2, SVG Export Plug-In . SVG Version: 6.00 Build 0)  -->
<!DOCTYPE svg PUBLIC "-//W3C//DTD SVG 1.1//EN" "http://www.w3.org/Graphics/SVG/1.1/DTD/svg11.dtd">
<svg version="1.1" id="Layer_1" xmlns="http://www.w3.org/2000/svg" xmlns:xlink="http://www.w3.org/1999/xlink" x="0px" y="0px"
	 width="24px" height="24px" viewBox="0 0 24 24" enable-background="new 0 0 24 24" xml:space="preserve">
<path fill="#58595B" d="M12.231,0.23c-5.739,0-6.943,2.824-6.943,5.279v11.512l6.943,6.939l6.943-6.939V5.51
	C19.175,3.054,17.971,0.23,12.231,0.23"/>
<path fill="#939598" d="M6.019,16.718V5.51c0-3.06,2.033-4.549,6.212-4.549s6.212,1.489,6.212,4.549v11.208l-6.212,6.209
	L6.019,16.718z"/>
<path fill="#808285" d="M12.597,1.702v19.827l5.117-5.114V5.51C17.714,3.78,17.111,1.806,12.597,1.702"/>
<path fill="#FFFFFF" d="M12.744,9.302l-0.647,1.354l5.852,0.313l-0.363,0.768c-0.194,0.378-0.295,0.408-0.623,0.5l-0.076,0.022
	l-5.771,0.734l-1.427,2.988c-0.076,0.164-0.293,0.462-0.558,0.71c-0.226,0.21-0.543,0.438-0.772,0.327
	c-0.081-0.039-0.143-0.112-0.182-0.225c-0.138-0.388,0.015-1.18,0.148-1.462l1.424-2.989L6.685,7.4L6.654,7.325
	c-0.032-0.076-0.057-0.13-0.076-0.187C6.508,6.94,6.523,6.816,6.649,6.529l0.366-0.772l3.929,4.351l0.648-1.358"/>
<path fill="#FFFFFF" d="M12.597,6.334c0.175-0.085,0.807-0.463,1.529-0.693l0.301-0.091l0.288-1.726l0.019-0.067
	c0.021-0.068,0.036-0.126,0.055-0.171c0.061-0.181,0.143-0.263,0.394-0.396l0.71-0.346L16.23,5.39l1.785,1.842l-0.705,0.346
	c-0.355,0.154-0.447,0.117-0.727-0.003l-0.068-0.026l-1.532-0.843l-0.258,0.174c-0.624,0.427-1.314,0.691-1.493,0.774"/>
</svg>
