<?xml version="1.0" encoding="utf-8"?>
<!-- Generator: Adobe Illustrator 15.0.2, SVG Export Plug-In . SVG Version: 6.00 Build 0)  -->
<!DOCTYPE svg PUBLIC "-//W3C//DTD SVG 1.1//EN" "http://www.w3.org/Graphics/SVG/1.1/DTD/svg11.dtd">
<svg version="1.1" id="Layer_1" xmlns="http://www.w3.org/2000/svg" xmlns:xlink="http://www.w3.org/1999/xlink" x="0px" y="0px"
	 width="24px" height="24px" viewBox="0 0 24 24" enable-background="new 0 0 24 24" xml:space="preserve">
<path fill="#58595B" d="M12.231,0.23c-5.739,0-6.943,2.824-6.943,5.279v11.512l6.943,6.939l6.943-6.939V5.51
	C19.175,3.054,17.971,0.23,12.231,0.23"/>
<path fill="#939598" d="M6.019,16.718V5.51c0-3.06,2.033-4.549,6.212-4.549s6.212,1.489,6.212,4.549v11.208l-6.212,6.209
	L6.019,16.718z"/>
<path fill="#808285" d="M12.597,1.702v19.827l5.117-5.114V5.51C17.714,3.78,17.111,1.806,12.597,1.702"/>
<g>
	<g>
		<circle fill="#FFFFFF" cx="7.854" cy="9.113" r="0.782"/>
		<path fill="#FFFFFF" d="M11.817,9.597c0.015,0.065,0.082,0.106,0.147,0.089c0.066-0.016,0.106-0.082,0.089-0.147l-0.14-0.568
			l0.119-0.283c0.068-0.159-0.007-0.342-0.165-0.409c-0.044-0.017-0.087-0.024-0.131-0.022l-0.225-0.845l2.143-0.624L12.87,4.094
			l-2.031,0.591l-0.051-0.209c-0.017-0.065-0.082-0.105-0.147-0.088c-0.065,0.016-0.106,0.082-0.089,0.146l0.053,0.22L8.638,5.327
			l0.785,2.692l1.855-0.539l0.235,0.882c-0.021,0.024-0.04,0.052-0.053,0.083l-2.736,1.637H6.646c-0.161,0-0.299,0.1-0.355,0.241
			c-0.018,0.039-0.029,0.083-0.029,0.127v2.625c0,0.168,0.136,0.306,0.304,0.306s0.305-0.138,0.305-0.306v-2.131h0.071v5.178
			c0,0.224,0.182,0.405,0.405,0.405c0.225,0,0.407-0.182,0.407-0.405v-2.679h0.28v2.679c0,0.224,0.182,0.405,0.406,0.405
			c0.225,0,0.407-0.182,0.407-0.405v-5.178V10.94c0.116-0.006,0.225-0.075,0.273-0.189l2.633-1.531L11.817,9.597z"/>
		<path fill="#939598" d="M11.407,7.003l1.558-0.453l-0.572-1.958l-1.475,0.43l-0.171,0.05L9.318,5.489l0.57,1.957l1.348-0.393"/>
	</g>
	<g>
		<circle fill="#FFFFFF" cx="13.781" cy="9.642" r="0.613"/>
		<path fill="#FFFFFF" d="M16.675,8.958L16.673,8.96l-0.104-0.416l1.609-0.468l-0.608-2.078l-1.513,0.441l-0.046-0.192
			c-0.017-0.064-0.079-0.103-0.143-0.087c-0.064,0.015-0.103,0.079-0.085,0.141l0.049,0.203L14.304,6.95l0.606,2.08l1.434-0.417
			l0.125,0.508l-1.938,1.308c-0.069-0.025-0.146-0.043-0.235-0.043h-1.034c-0.433,0-0.604,0.349-0.659,0.545l-0.525,1.729
			c-0.109,0.372,0.368,0.515,0.481,0.166l0.474-1.59h0.126l-0.813,2.819H13.1v2.196c0,0.379,0.567,0.379,0.567,0v-2.21h0.229v2.213
			c0,0.372,0.563,0.375,0.563,0v-2.199h0.754L14.414,11.3c0.068-0.003,0.137-0.024,0.193-0.07l2.037-1.386l0.04,0.167
			c0.018,0.063,0.08,0.102,0.144,0.086c0.063-0.015,0.103-0.079,0.085-0.141l-0.064-0.269l0.245-0.193
			c0.149-0.116,0.173-0.33,0.058-0.478C17.035,8.867,16.821,8.842,16.675,8.958z"/>
		<path fill="#939598" d="M16.471,8.281l1.23-0.358l-0.45-1.546l-1.167,0.34l-0.136,0.04l-1.129,0.329l0.451,1.546l1.065-0.31"/>
	</g>
</g>
</svg>
