<?xml version="1.0" encoding="utf-8"?>
<!-- Generator: Adobe Illustrator 15.0.2, SVG Export Plug-In . SVG Version: 6.00 Build 0)  -->
<!DOCTYPE svg PUBLIC "-//W3C//DTD SVG 1.1//EN" "http://www.w3.org/Graphics/SVG/1.1/DTD/svg11.dtd">
<svg version="1.1" id="Layer_1" xmlns="http://www.w3.org/2000/svg" xmlns:xlink="http://www.w3.org/1999/xlink" x="0px" y="0px"
	 width="24px" height="24px" viewBox="0 0 24 24" enable-background="new 0 0 24 24" xml:space="preserve">
<path fill="#58595B" d="M12.231,0.23c-5.739,0-6.943,2.824-6.943,5.279v11.512l6.943,6.939l6.943-6.939V5.51
	C19.175,3.054,17.971,0.23,12.231,0.23"/>
<path fill="#939598" d="M6.019,16.718V5.51c0-3.06,2.033-4.549,6.212-4.549s6.212,1.489,6.212,4.549v11.208l-6.212,6.209
	L6.019,16.718z"/>
<path fill="#808285" d="M12.597,1.702v19.827l5.117-5.114V5.51C17.714,3.78,17.111,1.806,12.597,1.702"/>
<path fill="#FFFFFF" d="M17.953,5.281c0,2.675-3.742,2.753-3.729,0.078c-0.128,2.688-3.962,2.625-3.949-0.013
	c-0.166,2.663-3.937,2.637-3.962,0.013c0,0,0.271-3.693,5.646-3.734S17.953,4.344,17.953,5.281z"/>
<circle fill="#FFFFFF" cx="10.136" cy="9.542" r="0.594"/>
<circle fill="#FFFFFF" cx="10.188" cy="13.271" r="0.594"/>
<circle fill="#FFFFFF" cx="7.396" cy="15.166" r="0.594"/>
<circle fill="#FFFFFF" cx="14.562" cy="9.542" r="0.594"/>
<circle fill="#FFFFFF" cx="14.542" cy="13.271" r="0.594"/>
<circle fill="#FFFFFF" cx="10.229" cy="18.021" r="0.594"/>
<circle fill="#FFFFFF" cx="14.5" cy="17.833" r="0.594"/>
<circle fill="#FFFFFF" cx="16.928" cy="15.156" r="0.594"/>
<path fill="none" stroke="#FFFFFF" stroke-width="0.5" stroke-dasharray="0.25,1" d="M7.5,15.331
	c1.003-0.03,2.736,2.023,2.729,3.273c0.006-2.463-0.021-9.4-0.005-11.427"/>
<path fill="none" stroke="#FFFFFF" stroke-width="0.5" stroke-dasharray="0.25,1" d="M17.23,15.331
	c-1.003-0.03-2.736,2.023-2.729,3.273c-0.006-2.463,0.02-9.4,0.004-11.427"/>
</svg>
