<?xml version="1.0" encoding="utf-8"?>
<!-- Generator: Adobe Illustrator 15.0.2, SVG Export Plug-In . SVG Version: 6.00 Build 0)  -->
<!DOCTYPE svg PUBLIC "-//W3C//DTD SVG 1.1//EN" "http://www.w3.org/Graphics/SVG/1.1/DTD/svg11.dtd">
<svg version="1.1" id="Layer_1" xmlns="http://www.w3.org/2000/svg" xmlns:xlink="http://www.w3.org/1999/xlink" x="0px" y="0px"
	 width="24px" height="24px" viewBox="0 0 24 24" enable-background="new 0 0 24 24" xml:space="preserve">
<path fill="#58595B" d="M12.231,0.23c-5.739,0-6.943,2.824-6.943,5.279v11.512l6.943,6.939l6.943-6.939V5.51
	C19.175,3.054,17.971,0.23,12.231,0.23"/>
<path fill="#939598" d="M6.019,16.718V5.51c0-3.06,2.033-4.549,6.212-4.549s6.212,1.489,6.212,4.549v11.208l-6.212,6.209
	L6.019,16.718z"/>
<path fill="#808285" d="M12.597,1.702v19.827l5.117-5.114V5.51C17.714,3.78,17.111,1.806,12.597,1.702"/>
<ellipse transform="matrix(-0.0019 1 -1 -0.0019 23.3228 -1.1065)" fill="#FFFFFF" cx="12.214" cy="11.086" rx="6.078" ry="2.448"/>
<path fill="none" stroke="#FFFFFF" stroke-width="0.25" stroke-linecap="round" stroke-miterlimit="10" d="M12.9,5.685
	c-0.084-0.422-0.502-2.534,0.596-2.869"/>
<path fill="none" stroke="#FFFFFF" stroke-width="0.5" stroke-linecap="round" stroke-miterlimit="10" d="M13.633,7.068
	c-0.167,0.095,1.346-1.291,1.512-1.722"/>
<path fill="none" stroke="#FFFFFF" stroke-width="0.5" stroke-linecap="round" stroke-miterlimit="10" d="M10.818,7.062
	c0.167,0.097-1.339-1.296-1.506-1.727"/>
<path fill="none" stroke="#FFFFFF" stroke-width="0.5" stroke-linecap="round" stroke-miterlimit="10" d="M14.277,9.176
	c0.479,0.097,1.475-0.444,1.818-0.379c0.385,0.072-0.264,1.46,0.404,2.251"/>
<path fill="none" stroke="#FFFFFF" stroke-width="0.5" stroke-linecap="round" stroke-miterlimit="10" d="M10.181,9.168
	c-0.479,0.095-1.477-0.45-1.82-0.386c-0.383,0.07,0.259,1.462-0.412,2.25"/>
<path fill="none" stroke="#FFFFFF" stroke-width="0.5" stroke-linecap="round" stroke-miterlimit="10" d="M14.437,12.865
	c-0.217-0.121,0.623,0.266,1.27,0.145c0.645-0.118-0.895,4.168,0.014,4.887"/>
<path fill="none" stroke="#FFFFFF" stroke-width="0.5" stroke-linecap="round" stroke-miterlimit="10" d="M9.92,12.856
	c0.216-0.119-0.623,0.263-1.271,0.142c-0.646-0.121,0.878,4.17-0.032,4.885"/>
<path fill="none" stroke="#939598" stroke-width="0.5" stroke-miterlimit="10" d="M13.688,6.23
	c-0.452,0.252-0.975,0.499-1.407,0.488c-0.491-0.013-0.887-0.158-1.525-0.494"/>
<line fill="none" stroke="#939598" stroke-width="0.5" stroke-miterlimit="10" x1="12.27" y1="6.729" x2="12.225" y2="17.244"/>
<path fill="none" stroke="#FFFFFF" stroke-width="0.25" stroke-linecap="round" stroke-miterlimit="10" d="M11.855,5.588
	c0.087-0.424,0.513-2.534-0.584-2.873"/>
<ellipse fill="#FFFFFF" cx="12.354" cy="4.896" rx="0.646" ry="0.896"/>
</svg>
