<?xml version="1.0" encoding="utf-8"?>
<!-- Generator: Adobe Illustrator 15.0.2, SVG Export Plug-In . SVG Version: 6.00 Build 0)  -->
<!DOCTYPE svg PUBLIC "-//W3C//DTD SVG 1.1//EN" "http://www.w3.org/Graphics/SVG/1.1/DTD/svg11.dtd">
<svg version="1.1" id="Layer_1" xmlns="http://www.w3.org/2000/svg" xmlns:xlink="http://www.w3.org/1999/xlink" x="0px" y="0px"
	 width="24px" height="24px" viewBox="0 0 24 24" enable-background="new 0 0 24 24" xml:space="preserve">
<path fill="#58595B" d="M12.231,0.23c-5.739,0-6.943,2.824-6.943,5.279v11.512l6.943,6.939l6.943-6.939V5.51
	C19.175,3.054,17.971,0.23,12.231,0.23"/>
<path fill="#939598" d="M6.019,16.718V5.51c0-3.06,2.033-4.549,6.212-4.549s6.212,1.489,6.212,4.549v11.208l-6.212,6.209
	L6.019,16.718z"/>
<path fill="#808285" d="M12.597,1.702v19.827l5.117-5.114V5.51C17.714,3.78,17.111,1.806,12.597,1.702"/>
<path fill="#FFFFFF" d="M9.892,9.305c0,0.395,0.099,0.751,0.296,1.07c0.197,0.319,0.453,0.566,0.766,0.74l-1.741,2.994
	c-0.824-0.486-1.489-1.148-1.994-1.984c-0.504-0.836-0.757-1.775-0.757-2.82H9.892z"/>
<path fill="#FFFFFF" d="M11.999,7.234c-0.198,0-0.383,0.021-0.558,0.061c-0.174,0.041-0.336,0.107-0.487,0.2L9.213,4.536
	c0.406-0.256,0.844-0.445,1.314-0.566c0.47-0.122,0.96-0.183,1.472-0.183c0.499,0,0.982,0.061,1.453,0.183
	c0.47,0.122,0.913,0.311,1.332,0.566l-1.76,2.959c-0.138-0.093-0.295-0.16-0.469-0.2S12.195,7.234,11.999,7.234z"/>
<path fill="#FFFFFF" d="M12.643,8.208c0.197,0.104,0.354,0.255,0.469,0.453c0.117,0.197,0.174,0.412,0.174,0.644
	c0,0.232-0.057,0.447-0.174,0.645c-0.115,0.197-0.272,0.348-0.469,0.452c-0.198,0.128-0.412,0.191-0.644,0.191
	c-0.245,0-0.459-0.063-0.645-0.191c-0.198-0.104-0.354-0.255-0.47-0.452c-0.116-0.198-0.174-0.412-0.174-0.645
	c0-0.232,0.058-0.447,0.174-0.644s0.272-0.348,0.47-0.453c0.186-0.127,0.4-0.191,0.645-0.191
	C12.231,8.017,12.445,8.081,12.643,8.208z"/>
<path fill="#FFFFFF" d="M13.024,11.115c0.326-0.174,0.581-0.42,0.767-0.74c0.187-0.319,0.278-0.676,0.278-1.07h3.447
	c0,1.044-0.25,1.984-0.748,2.82c-0.5,0.836-1.16,1.498-1.984,1.984L13.024,11.115z"/>
</svg>
