<?xml version="1.0" encoding="utf-8"?>
<!-- Generator: Adobe Illustrator 15.0.2, SVG Export Plug-In . SVG Version: 6.00 Build 0)  -->
<!DOCTYPE svg PUBLIC "-//W3C//DTD SVG 1.1//EN" "http://www.w3.org/Graphics/SVG/1.1/DTD/svg11.dtd">
<svg version="1.1" id="Layer_1" xmlns="http://www.w3.org/2000/svg" xmlns:xlink="http://www.w3.org/1999/xlink" x="0px" y="0px"
	 width="24px" height="24px" viewBox="0 0 24 24" enable-background="new 0 0 24 24" xml:space="preserve">
<path fill="#58595B" d="M12.231,0.23c-5.739,0-6.943,2.824-6.943,5.279v11.512l6.943,6.939l6.943-6.939V5.51
	C19.175,3.054,17.971,0.23,12.231,0.23"/>
<path fill="#939598" d="M6.019,16.718V5.51c0-3.06,2.033-4.549,6.212-4.549s6.212,1.489,6.212,4.549v11.208l-6.212,6.209
	L6.019,16.718z"/>
<path fill="#808285" d="M12.597,1.702v19.827l5.117-5.114V5.51C17.714,3.78,17.111,1.806,12.597,1.702"/>
<g>
	<polygon fill="#FFFFFF" points="12.833,8.735 7.735,10.705 6.927,8.613 6.392,8.842 6.117,8.186 8.605,7.208 9.948,7.682 
		11.552,7.056 11.337,6.46 11.765,6.309 	"/>
	<path fill="#FFFFFF" d="M11.704,9.529c0.062-0.03,0.131-0.053,0.207-0.069c0.076-0.015,0.144-0.023,0.206-0.023
		c0.204,0,0.395,0.059,0.572,0.176c0.178,0.117,0.309,0.288,0.39,0.511c0.03,0.061,0.048,0.123,0.053,0.184
		c0.006,0.061,0.008,0.123,0.008,0.183c0,0.203-0.058,0.402-0.175,0.595c-0.118,0.193-0.277,0.331-0.481,0.412
		c-0.061,0.031-0.127,0.048-0.198,0.054c-0.071,0.005-0.138,0.007-0.2,0.007c-0.192,0-0.366-0.046-0.518-0.137
		c-0.153-0.092-0.285-0.214-0.396-0.366l-0.993,0.381l0.031,0.183c0,0.224-0.063,0.43-0.19,0.618
		c-0.128,0.188-0.292,0.323-0.497,0.405c-0.132,0.051-0.259,0.076-0.382,0.076c-0.213,0-0.412-0.062-0.595-0.184
		c-0.183-0.123-0.314-0.296-0.396-0.52c-0.031-0.061-0.048-0.121-0.053-0.183c-0.005-0.061-0.008-0.121-0.008-0.183
		c0-0.203,0.059-0.401,0.175-0.595c0.117-0.194,0.277-0.332,0.48-0.413c0.062-0.02,0.123-0.035,0.184-0.045
		c0.061-0.011,0.122-0.016,0.183-0.016c0.387,0,0.703,0.178,0.947,0.534l0.991-0.412l-0.03-0.184c0-0.213,0.063-0.412,0.192-0.595
		C11.335,9.743,11.501,9.61,11.704,9.529z"/>
	<path fill="#FFFFFF" d="M14.299,10.491c0.091,0.03,0.169,0.088,0.229,0.176c0.061,0.086,0.092,0.186,0.092,0.297
		c0,0.081-0.011,0.142-0.031,0.183c-0.04,0.091-0.101,0.167-0.184,0.229c-0.081,0.061-0.178,0.092-0.289,0.092
		c-0.082,0-0.144-0.011-0.184-0.031c-0.213-0.081-0.321-0.239-0.321-0.473c0-0.082,0.01-0.143,0.031-0.183
		c0.029-0.102,0.089-0.181,0.176-0.237c0.086-0.056,0.186-0.083,0.298-0.083C14.198,10.46,14.259,10.47,14.299,10.491z"/>
	<polygon fill="#FFFFFF" points="14.589,6.216 15.107,6.399 14.895,6.995 16.024,7.423 16.237,6.842 17.245,7.24 16.985,7.804 
		18.145,8.277 17.932,8.812 18.269,8.964 17.963,9.803 17.611,9.682 17.43,10.124 17.733,12.688 16.497,12.215 16.864,11.178 
		13.765,9.956 14.177,8.903 13.704,8.735 	"/>
	<path fill="#FFFFFF" d="M15.84,11.086c0.225,0.092,0.337,0.25,0.337,0.473c0,0.041-0.021,0.102-0.062,0.184
		c-0.03,0.091-0.091,0.167-0.184,0.228c-0.092,0.062-0.188,0.092-0.289,0.092c-0.061,0-0.113-0.015-0.153-0.046
		c-0.091-0.03-0.167-0.091-0.228-0.183c-0.062-0.091-0.093-0.183-0.093-0.274c0-0.061,0.015-0.112,0.046-0.153
		c0.031-0.112,0.092-0.198,0.184-0.259c0.091-0.061,0.184-0.091,0.274-0.091C15.734,11.056,15.789,11.065,15.84,11.086z"/>
</g>
</svg>
