<?xml version="1.0" encoding="utf-8"?>
<!-- Generator: Adobe Illustrator 15.0.2, SVG Export Plug-In . SVG Version: 6.00 Build 0)  -->
<!DOCTYPE svg PUBLIC "-//W3C//DTD SVG 1.1//EN" "http://www.w3.org/Graphics/SVG/1.1/DTD/svg11.dtd">
<svg version="1.1" id="Layer_1" xmlns="http://www.w3.org/2000/svg" xmlns:xlink="http://www.w3.org/1999/xlink" x="0px" y="0px"
	 width="24px" height="24px" viewBox="0 0 24 24" enable-background="new 0 0 24 24" xml:space="preserve">
<path fill="#58595B" d="M12.231,0.23c-5.739,0-6.943,2.824-6.943,5.279v11.512l6.943,6.939l6.943-6.939V5.51
	C19.175,3.054,17.971,0.23,12.231,0.23"/>
<path fill="#939598" d="M6.019,16.718V5.51c0-3.06,2.033-4.549,6.212-4.549s6.212,1.489,6.212,4.549v11.208l-6.212,6.209
	L6.019,16.718z"/>
<path fill="#808285" d="M12.597,1.702v19.827l5.117-5.114V5.51C17.714,3.78,17.111,1.806,12.597,1.702"/>
<path fill="#FFFFFF" d="M6.516,5.998C6.52,7.179,7.42,7.644,8.197,8.125c0.306,0.189,0.609,0.387,0.896,0.612
	c0.451,0.353,1.523,0.874,1.684,1.127c0.189,0.297,0.75,0.627,0.636,1.684c-0.092,0.848-0.794,1.565-1.013,2.37
	c-0.181,0.663,0.005,1.146,0.228,1.77c0.219,0.614,1.181,2.662,1.529,0.97c0.213-1.037-0.065-2.072,0.518-3.026
	c0.576-0.943,1.545-1.059,2.319-1.683c0.682-0.552,0.501-1.062,0.374-1.888c-0.153-0.998-0.003-1.687,0.681-2.395
	c0.429-0.446,1.631-1.004,1.663-1.757c0.036-0.848-1.299-1.251-1.844-1.434c-1.737-0.584-3.545-0.51-5.322-0.216
	C9.521,4.427,6.824,4.539,6.484,5.963"/>
<ellipse fill="#939598" cx="12.248" cy="6.069" rx="3.127" ry="0.806"/>
</svg>
