<?xml version="1.0" encoding="utf-8"?>
<!-- Generator: Adobe Illustrator 15.0.2, SVG Export Plug-In . SVG Version: 6.00 Build 0)  -->
<!DOCTYPE svg PUBLIC "-//W3C//DTD SVG 1.1//EN" "http://www.w3.org/Graphics/SVG/1.1/DTD/svg11.dtd">
<svg version="1.1" id="Layer_1" xmlns="http://www.w3.org/2000/svg" xmlns:xlink="http://www.w3.org/1999/xlink" x="0px" y="0px"
	 width="24px" height="24px" viewBox="0 0 24 24" enable-background="new 0 0 24 24" xml:space="preserve">
<path fill="#58595B" d="M12.231,0.23c-5.739,0-6.943,2.824-6.943,5.279v11.512l6.943,6.939l6.943-6.939V5.51
	C19.175,3.054,17.971,0.23,12.231,0.23"/>
<path fill="#939598" d="M6.019,16.718V5.51c0-3.06,2.033-4.549,6.212-4.549s6.212,1.489,6.212,4.549v11.208l-6.212,6.209
	L6.019,16.718z"/>
<path fill="#808285" d="M12.597,1.702v19.827l5.117-5.114V5.51C17.714,3.78,17.111,1.806,12.597,1.702"/>
<path fill="#FFFFFF" d="M12.025,4.048c0.007-0.62-0.503-1.133-1.124-1.126c-0.635-0.007-1.148,0.506-1.145,1.126
	c-0.003,0.635,0.51,1.142,1.145,1.145C11.521,5.19,12.032,4.683,12.025,4.048L12.025,4.048z"/>
<path fill="#FFFFFF" d="M13.902,16.389l-1.786-4.445l-0.729,2.043l1.043,2.999C12.853,17.973,14.335,17.396,13.902,16.389z"/>
<path fill="#FFFFFF" d="M15.999,6.391l-4.377-0.575c-0.264-0.258-1.313-0.425-1.653-0.001C9.925,5.87,9.875,6.005,9.864,6.074
	C9.845,6.183,9.851,6.505,9.851,6.505l0.256,4.976l-1.59,4.968c-0.314,1.054,1.239,1.492,1.55,0.479l1.969-5.486l-0.021-2.791
	c0,0-0.004-0.214-0.01-0.472l2.873,1.356c0.719,0.403,1.313-0.645,0.592-1.056l-1.882-0.918l-1.601-0.172
	c-0.001-0.045-0.003-0.076-0.004-0.089c-0.004-0.055-0.01-0.112-0.018-0.171l3.808,0.451C16.584,7.735,16.814,6.552,15.999,6.391z"
	/>
</svg>
