<?xml version="1.0" encoding="utf-8"?>
<!-- Generator: Adobe Illustrator 15.0.2, SVG Export Plug-In . SVG Version: 6.00 Build 0)  -->
<!DOCTYPE svg PUBLIC "-//W3C//DTD SVG 1.1//EN" "http://www.w3.org/Graphics/SVG/1.1/DTD/svg11.dtd">
<svg version="1.1" id="Icons" xmlns="http://www.w3.org/2000/svg" xmlns:xlink="http://www.w3.org/1999/xlink" x="0px" y="0px"
	 width="18px" height="18px" viewBox="0 0 18 18" enable-background="new 0 0 18 18" xml:space="preserve">
<g>
	<path fill="#FFFFFF" d="M2,17.5c-0.827,0-1.5-0.673-1.5-1.5V2c0-0.827,0.673-1.5,1.5-1.5h14c0.827,0,1.5,0.673,1.5,1.5v14
		c0,0.827-0.673,1.5-1.5,1.5H2z"/>
	<path d="M16,1c0.552,0,1,0.448,1,1v14c0,0.552-0.448,1-1,1H2c-0.552,0-1-0.448-1-1V2c0-0.552,0.448-1,1-1H16 M16,0H2
		C0.896,0,0,0.896,0,2v14c0,1.104,0.896,2,2,2h14c1.104,0,2-0.896,2-2V2C18,0.896,17.104,0,16,0L16,0z"/>
</g>
<rect fill="none" width="18" height="18"/>
<path d="M4.728,13.85l2.479,2.439c0.469,0.471,1.154,0.74,2.042,0.344l1.614-0.729l2.758-1.244l1.643-0.742
	c0.881-0.402,1.131-1.094,1.094-1.758l-0.189-3.474c0.428-0.264,0.99-1.16,0.533-2.172l-1.699-3.764l-1.117,0.504l-0.543-1.201
	c-0.664-1.482-2.752-0.519-2.092,0.944L11.792,4.2L8.019,5.902L4.255,7.601L3.712,6.399C3.049,4.938,0.944,5.866,1.611,7.349
	L2.153,8.55L1.036,9.054l1.699,3.763C3.195,13.828,4.242,13.998,4.728,13.85z M13.829,6.014c0.535-0.243,1.17,0.007,1.416,0.558
	c0.252,0.553,0.02,1.195-0.518,1.432c-0.531,0.246-1.166-0.006-1.416-0.56C13.063,6.894,13.296,6.253,13.829,6.014z M10.454,11.299
	l0.01-0.004l4.523-2.042l0.188,2.718c0.045,0.377-0.01,0.686-0.389,0.863l-3.014,1.361l-0.01,0.004l-3.021,1.363
	c-0.379,0.164-0.646,0-0.904-0.281l-1.916-1.938L10.454,11.299z M4.257,10.335c0.539-0.246,1.174,0.004,1.426,0.552
	c0.246,0.555,0.014,1.197-0.527,1.438c-0.527,0.242-1.162-0.008-1.416-0.561C3.495,11.213,3.728,10.571,4.257,10.335z"/>
</svg>
