<?xml version="1.0" encoding="utf-8"?>
<!-- Generator: Adobe Illustrator 15.0.2, SVG Export Plug-In . SVG Version: 6.00 Build 0)  -->
<!DOCTYPE svg PUBLIC "-//W3C//DTD SVG 1.1//EN" "http://www.w3.org/Graphics/SVG/1.1/DTD/svg11.dtd">
<svg version="1.1" id="Icons" xmlns="http://www.w3.org/2000/svg" xmlns:xlink="http://www.w3.org/1999/xlink" x="0px" y="0px"
	 width="18px" height="18px" viewBox="0 0 18 18" enable-background="new 0 0 18 18" xml:space="preserve">
<g>
	<path fill="#FFFFFF" d="M2,17.5c-0.827,0-1.5-0.673-1.5-1.5V2c0-0.827,0.673-1.5,1.5-1.5h14c0.827,0,1.5,0.673,1.5,1.5v14
		c0,0.827-0.673,1.5-1.5,1.5H2z"/>
	<path d="M16,1c0.552,0,1,0.449,1,1v14c0,0.552-0.448,1-1,1H2c-0.551,0-1-0.448-1-1V2c0-0.551,0.449-1,1-1H16 M16,0H2
		C0.896,0,0,0.896,0,2v14c0,1.104,0.896,2,2,2h14c1.104,0,2-0.896,2-2V2C18,0.896,17.104,0,16,0L16,0z"/>
</g>
<rect fill="none" width="17.875" height="17.875"/>
<rect x="2.598" y="10.568" fill="#231F20" width="9.534" height="5.92"/>
<polygon fill="#231F20" points="1.746,10.886 7.368,6.269 12.99,10.886 "/>
<rect x="6.362" y="13.984" fill="#FFFFFF" width="1.746" height="2.566"/>
<g>
	<path fill="#231F20" d="M11.086,6.705c0.212-0.16,0.515-0.117,0.675,0.095c0.159,0.215,0.116,0.517-0.097,0.675
		c-0.213,0.161-0.517,0.118-0.675-0.095C10.829,7.166,10.873,6.863,11.086,6.705z"/>
	<path fill="#231F20" d="M11.344,6.511c0.146-0.11,0.594-0.145,0.594-0.145l0.289,0.386c0,0-0.157,0.419-0.305,0.531
		c-0.131,0.096-0.258,0.191-0.258,0.191l-0.578-0.77C11.086,6.705,11.215,6.608,11.344,6.511z"/>
</g>
<polygon fill="#231F20" points="16.226,3.154 16.516,3.54 12.354,6.656 12.065,6.271 "/>
<path fill="#231F20" d="M10.973,7.571c-0.643-0.642-0.117-1.524,0.703-2.663c0.819-1.139,0.526-2.985-1.61-3.308
	c0.264,0.499,0.792,1.347-0.959,2.781C8.318,5.109,8.399,5.966,8.878,6.608C9.303,7.181,10.33,7.491,10.973,7.571z"/>
</svg>
