<?xml version="1.0" encoding="utf-8"?>
<!-- Generator: Adobe Illustrator 15.0.2, SVG Export Plug-In . SVG Version: 6.00 Build 0)  -->
<!DOCTYPE svg PUBLIC "-//W3C//DTD SVG 1.1//EN" "http://www.w3.org/Graphics/SVG/1.1/DTD/svg11.dtd">
<svg version="1.1" id="Icons" xmlns="http://www.w3.org/2000/svg" xmlns:xlink="http://www.w3.org/1999/xlink" x="0px" y="0px"
	 width="18px" height="18px" viewBox="0 0 18 18" enable-background="new 0 0 18 18" xml:space="preserve">
<g>
	<path fill="#FFFFFF" d="M2,17.5c-0.827,0-1.5-0.673-1.5-1.5V2c0-0.827,0.673-1.5,1.5-1.5h14c0.827,0,1.5,0.673,1.5,1.5v14
		c0,0.827-0.673,1.5-1.5,1.5H2z"/>
	<path d="M16,1c0.552,0,1,0.449,1,1v14c0,0.552-0.448,1-1,1H2c-0.551,0-1-0.448-1-1V2c0-0.551,0.449-1,1-1H16 M16,0H2
		C0.896,0,0,0.896,0,2v14c0,1.104,0.896,2,2,2h14c1.104,0,2-0.896,2-2V2C18,0.896,17.104,0,16,0L16,0z"/>
</g>
<g>
	<g>
		<circle fill="#020202" cx="3.789" cy="7.543" r="0.98"/>
		<path fill="#020202" d="M8.758,8.149c0.02,0.082,0.103,0.134,0.185,0.112c0.083-0.02,0.133-0.103,0.112-0.186L8.88,7.364
			l0.149-0.355C9.114,6.81,9.02,6.58,8.822,6.496c-0.054-0.021-0.109-0.03-0.164-0.028L8.376,5.408l2.686-0.782L10.078,1.25
			L7.532,1.991L7.468,1.729C7.447,1.648,7.365,1.598,7.283,1.618C7.201,1.639,7.15,1.721,7.171,1.802l0.067,0.275L4.772,2.796
			l0.984,3.375l2.326-0.676L8.376,6.6C8.35,6.631,8.326,6.665,8.309,6.705L4.879,8.758H2.275c-0.202,0-0.375,0.125-0.446,0.302
			C1.807,9.109,1.793,9.163,1.793,9.219v3.291c0,0.211,0.171,0.383,0.381,0.383s0.382-0.172,0.382-0.383V9.837h0.089v6.492
			c0,0.28,0.228,0.509,0.509,0.509s0.509-0.229,0.509-0.509V12.97h0.351v3.359c0,0.28,0.228,0.509,0.509,0.509
			c0.281,0,0.509-0.229,0.509-0.509V9.837l0-0.003C5.178,9.827,5.315,9.74,5.375,9.597l3.301-1.919L8.758,8.149z"/>
		<path fill="#FFFFFF" d="M8.244,4.897l1.953-0.568L9.481,1.875L7.631,2.414L7.417,2.477L5.625,2.999L6.34,5.452L8.03,4.96"/>
	</g>
	<g>
		<circle fill="#020202" cx="11.22" cy="8.206" r="0.769"/>
		<path fill="#020202" d="M14.847,7.349l-0.002,0.002l-0.13-0.521l2.018-0.587l-0.762-2.606L14.074,4.19l-0.059-0.241
			c-0.02-0.08-0.098-0.128-0.178-0.109c-0.08,0.019-0.129,0.099-0.107,0.177l0.061,0.254l-1.916,0.56l0.76,2.607l1.799-0.524
			l0.157,0.637l-2.432,1.64c-0.086-0.032-0.182-0.055-0.295-0.055h-1.295c-0.543,0-0.758,0.438-0.828,0.684l-0.658,2.167
			c-0.137,0.466,0.461,0.645,0.602,0.209l0.594-1.994h0.158l-1.019,3.535h0.948v2.752c0,0.475,0.711,0.475,0.711,0v-2.771h0.287
			v2.775c0,0.467,0.707,0.47,0.707,0v-2.757h0.945l-1.002-3.451c0.086-0.004,0.172-0.031,0.242-0.088l2.555-1.737l0.051,0.208
			c0.02,0.079,0.098,0.128,0.178,0.108c0.08-0.019,0.129-0.098,0.107-0.177l-0.08-0.337l0.307-0.242
			c0.186-0.146,0.217-0.414,0.072-0.599C15.3,7.235,15.032,7.203,14.847,7.349z"/>
		<path fill="#FFFFFF" d="M14.593,6.5l1.543-0.449L15.57,4.112l-1.463,0.426l-0.169,0.05L12.522,5l0.565,1.939l1.336-0.389"/>
	</g>
</g>
</svg>
