<?xml version="1.0" encoding="utf-8"?>
<!-- Generator: Adobe Illustrator 15.0.2, SVG Export Plug-In . SVG Version: 6.00 Build 0)  -->
<!DOCTYPE svg PUBLIC "-//W3C//DTD SVG 1.1//EN" "http://www.w3.org/Graphics/SVG/1.1/DTD/svg11.dtd">
<svg version="1.1" id="Icons" xmlns="http://www.w3.org/2000/svg" xmlns:xlink="http://www.w3.org/1999/xlink" x="0px" y="0px"
	 width="18px" height="18px" viewBox="0 0 18 18" enable-background="new 0 0 18 18" xml:space="preserve">
<g>
	<path fill="#FFFFFF" d="M2,17.5c-0.827,0-1.5-0.673-1.5-1.5V2c0-0.827,0.673-1.5,1.5-1.5h14c0.827,0,1.5,0.673,1.5,1.5v14
		c0,0.827-0.673,1.5-1.5,1.5H2z"/>
	<path d="M16,1c0.552,0,1,0.449,1,1v14c0,0.552-0.448,1-1,1H2c-0.551,0-1-0.448-1-1V2c0-0.551,0.449-1,1-1H16 M16,0H2
		C0.896,0,0,0.896,0,2v14c0,1.104,0.896,2,2,2h14c1.104,0,2-0.896,2-2V2C18,0.896,17.104,0,16,0L16,0z"/>
</g>
<rect fill="none" width="18" height="18"/>
<g>
	<path d="M4.505,11.086H1.554v-0.292c0.067-0.006,0.167-0.013,0.298-0.022c0.131-0.011,0.222-0.025,0.272-0.046
		c0.092-0.037,0.156-0.086,0.189-0.147s0.05-0.14,0.05-0.234V6.572c0-0.085-0.016-0.16-0.049-0.225
		C2.283,6.282,2.219,6.229,2.124,6.189c-0.06-0.025-0.149-0.051-0.266-0.077C1.74,6.086,1.639,6.068,1.554,6.058V5.766h2.951v0.292
		C4.43,6.066,4.336,6.076,4.224,6.09C4.111,6.104,4.016,6.123,3.938,6.148C3.841,6.181,3.776,6.231,3.744,6.3
		C3.711,6.369,3.695,6.447,3.695,6.534v3.769c0,0.09,0.017,0.166,0.051,0.23c0.034,0.063,0.098,0.115,0.193,0.155
		c0.053,0.022,0.139,0.045,0.261,0.065c0.121,0.021,0.223,0.034,0.306,0.04V11.086z"/>
	<path d="M9.716,7.123H9.431C9.358,6.921,9.233,6.717,9.056,6.51C8.878,6.304,8.702,6.182,8.527,6.145
		C8.453,6.127,8.348,6.116,8.214,6.113C8.081,6.109,7.97,6.107,7.882,6.107H7.11v2.051h0.547c0.137,0,0.262-0.016,0.375-0.049
		C8.145,8.077,8.248,8.014,8.34,7.921c0.058-0.057,0.116-0.159,0.174-0.303c0.059-0.145,0.097-0.271,0.114-0.379h0.285v2.22H8.628
		C8.614,9.354,8.576,9.222,8.514,9.063C8.453,8.905,8.395,8.795,8.34,8.735C8.257,8.645,8.16,8.583,8.047,8.55
		c-0.112-0.034-0.242-0.051-0.39-0.051H7.11v1.533c0,0.16,0.012,0.287,0.036,0.381c0.023,0.094,0.068,0.165,0.133,0.216
		c0.063,0.047,0.148,0.078,0.257,0.094c0.109,0.015,0.257,0.022,0.444,0.022c0.087,0,0.192-0.002,0.315-0.004
		c0.123-0.003,0.23-0.01,0.322-0.022c0.105-0.013,0.203-0.031,0.294-0.057c0.091-0.024,0.16-0.062,0.205-0.108
		c0.12-0.123,0.255-0.31,0.404-0.561c0.15-0.251,0.249-0.439,0.297-0.564h0.273l-0.102,1.657H5v-0.292
		c0.07-0.006,0.165-0.016,0.285-0.03c0.12-0.016,0.205-0.032,0.255-0.053c0.095-0.04,0.159-0.091,0.191-0.151
		c0.033-0.062,0.049-0.14,0.049-0.234V6.572c0-0.09-0.014-0.164-0.042-0.223C5.71,6.29,5.644,6.237,5.539,6.189
		C5.474,6.16,5.383,6.132,5.266,6.107S5.06,6.066,5,6.058V5.766h4.716V7.123z"/>
	<path d="M15.328,6.313c0.325,0.213,0.588,0.496,0.788,0.85c0.199,0.354,0.3,0.787,0.3,1.299c0,0.45-0.09,0.842-0.269,1.175
		c-0.179,0.334-0.415,0.607-0.71,0.819c-0.3,0.213-0.641,0.37-1.021,0.475c-0.382,0.104-0.781,0.155-1.198,0.155h-2.681v-0.292
		c0.08-0.003,0.18-0.011,0.3-0.022c0.12-0.013,0.2-0.028,0.24-0.046c0.09-0.037,0.152-0.088,0.188-0.151s0.052-0.141,0.052-0.23
		V6.572c0-0.085-0.016-0.162-0.048-0.23c-0.033-0.069-0.097-0.125-0.191-0.167c-0.096-0.042-0.196-0.071-0.302-0.086
		c-0.106-0.015-0.188-0.025-0.246-0.03V5.766h2.831c0.302,0,0.626,0.039,0.971,0.116C14.676,5.959,15.009,6.103,15.328,6.313z
		 M14.563,10.126c0.123-0.2,0.212-0.438,0.269-0.714c0.056-0.276,0.084-0.594,0.084-0.955c0-0.352-0.037-0.673-0.112-0.963
		s-0.186-0.537-0.33-0.742s-0.325-0.364-0.542-0.476c-0.216-0.113-0.462-0.169-0.736-0.169c-0.088,0-0.187,0.002-0.298,0.006
		c-0.111,0.003-0.194,0.007-0.25,0.009v4.038c0,0.09,0.012,0.169,0.036,0.238c0.023,0.068,0.064,0.129,0.122,0.182
		c0.057,0.052,0.128,0.093,0.212,0.121c0.083,0.029,0.192,0.044,0.327,0.044c0.283,0,0.525-0.053,0.728-0.158
		C14.275,10.482,14.438,10.328,14.563,10.126z"/>
</g>
</svg>
