<?xml version="1.0" encoding="utf-8"?>
<!-- Generator: Adobe Illustrator 15.0.2, SVG Export Plug-In . SVG Version: 6.00 Build 0)  -->
<!DOCTYPE svg PUBLIC "-//W3C//DTD SVG 1.1//EN" "http://www.w3.org/Graphics/SVG/1.1/DTD/svg11.dtd">
<svg version="1.1" id="Icons" xmlns="http://www.w3.org/2000/svg" xmlns:xlink="http://www.w3.org/1999/xlink" x="0px" y="0px"
	 width="18px" height="18px" viewBox="0 0 18 18" enable-background="new 0 0 18 18" xml:space="preserve">
<g>
	<path fill="#FFFFFF" d="M2,17.5c-0.827,0-1.5-0.673-1.5-1.5V2c0-0.827,0.673-1.5,1.5-1.5h14c0.827,0,1.5,0.673,1.5,1.5v14
		c0,0.827-0.673,1.5-1.5,1.5H2z"/>
	<path d="M16,1c0.552,0,1,0.449,1,1v14c0,0.552-0.448,1-1,1H2c-0.551,0-1-0.448-1-1V2c0-0.551,0.449-1,1-1H16 M16,0H2
		C0.896,0,0,0.896,0,2v14c0,1.104,0.896,2,2,2h14c1.104,0,2-0.896,2-2V2C18,0.896,17.104,0,16,0L16,0z"/>
</g>
<rect fill="none" width="18" height="18"/>
<rect x="14.5" y="10" width="1.5" height="5"/>
<rect x="11" y="13.5" width="5" height="1.5"/>
<path d="M9,9.796c-3.159,0-5.806,2.233-6.448,5.204h1.032C4.206,12.587,6.395,10.796,9,10.796c2.605,0,4.794,1.791,5.416,4.204
	h1.032C14.807,12.029,12.159,9.796,9,9.796z"/>
<g>
	<path fill-rule="evenodd" clip-rule="evenodd" d="M3.628,4.968C3.481,4.616,3.167,4.249,2.881,3.833
		C2.716,3.59,2.097,2.891,2.232,2.601C2.338,2.372,3.21,2.438,3.756,2.438c0.982,0,1.867-0.119,2.367,0.259
		c0.48,0.364,0.53,1.492,0.926,1.957c0.47-0.132,0.773-1.305,1.311-1.438c0.576-0.142,1.619,0,2.271,0
		c0.785,0,1.529-0.051,2.174,0.064c0.053,1.232,0.053,2.69,0,3.924c-0.963,0.117-2.211,0.064-3.342,0.064
		c-0.376,0-0.813,0.071-1.103,0c-0.523-0.13-0.774-1.32-1.201-1.475C6.614,6.296,6.522,7.908,5.474,8.047
		c-0.468,0.063-1.178,0-1.718,0c-0.462,0-1.403,0.094-1.524-0.162c-0.13-0.28,0.398-0.849,0.554-1.07
		c0.26-0.378,0.442-0.693,0.711-0.973C3.862,5.761,4.92,6.02,4.926,5.681c0.001-0.274-1.011-0.163-1.43-0.163"/>
	<path fill-rule="evenodd" clip-rule="evenodd" d="M11.809,7.237c-0.213-0.208-0.127-0.577-0.127-0.909
		c0-0.954-0.053-2.181,0.066-3.047c1.346,0.011,2.482,0.541,3.402,1.199c0.186,0.134,0.801,0.478,0.811,0.747
		c0.01,0.234-0.553,0.605-0.746,0.746C14.273,6.661,13.145,7.133,11.809,7.237z"/>
</g>
</svg>
