<?xml version="1.0" encoding="utf-8"?>
<!-- Generator: Adobe Illustrator 15.0.2, SVG Export Plug-In . SVG Version: 6.00 Build 0)  -->
<!DOCTYPE svg PUBLIC "-//W3C//DTD SVG 1.1//EN" "http://www.w3.org/Graphics/SVG/1.1/DTD/svg11.dtd">
<svg version="1.1" id="Icons" xmlns="http://www.w3.org/2000/svg" xmlns:xlink="http://www.w3.org/1999/xlink" x="0px" y="0px"
	 width="18px" height="18px" viewBox="0 0 18 18" enable-background="new 0 0 18 18" xml:space="preserve">
<g>
	<path fill="#FFFFFF" d="M2,17.5c-0.827,0-1.5-0.673-1.5-1.5V2c0-0.827,0.673-1.5,1.5-1.5h14c0.827,0,1.5,0.673,1.5,1.5v14
		c0,0.827-0.673,1.5-1.5,1.5H2z"/>
	<path fill="#231F20" d="M16,1c0.552,0,1,0.449,1,1v14c0,0.552-0.448,1-1,1H2c-0.551,0-1-0.448-1-1V2c0-0.551,0.449-1,1-1H16 M16,0
		H2C0.896,0,0,0.896,0,2v14c0,1.104,0.896,2,2,2h14c1.104,0,2-0.896,2-2V2C18,0.896,17.104,0,16,0L16,0z"/>
</g>
<g>
	<path d="M12.965,4.43c0.677,0.443,1.224,1.033,1.641,1.77c0.417,0.737,0.625,1.64,0.625,2.707c0,0.938-0.187,1.754-0.559,2.449
		s-0.866,1.265-1.48,1.707c-0.625,0.443-1.335,0.772-2.129,0.988c-0.794,0.217-1.626,0.324-2.496,0.324H2.98v-0.609
		c0.167-0.005,0.375-0.021,0.625-0.047c0.25-0.025,0.417-0.057,0.5-0.094c0.188-0.078,0.317-0.184,0.391-0.316
		s0.109-0.293,0.109-0.48V4.969c0-0.177-0.034-0.337-0.102-0.48c-0.067-0.143-0.2-0.259-0.398-0.348
		c-0.198-0.088-0.407-0.148-0.629-0.18S3.085,3.909,2.965,3.898V3.289h5.898c0.63,0,1.305,0.081,2.023,0.242
		C11.605,3.693,12.298,3.992,12.965,4.43z M11.371,12.375c0.255-0.416,0.441-0.912,0.559-1.488c0.117-0.575,0.176-1.238,0.176-1.988
		c0-0.734-0.078-1.403-0.234-2.008c-0.156-0.604-0.386-1.12-0.688-1.547c-0.302-0.427-0.679-0.758-1.129-0.992S9.093,4,8.52,4
		C8.337,4,8.13,4.004,7.898,4.012s-0.405,0.015-0.52,0.02v8.414c0,0.188,0.024,0.354,0.074,0.496c0.05,0.144,0.134,0.27,0.254,0.379
		s0.267,0.194,0.441,0.254c0.175,0.061,0.402,0.09,0.684,0.09c0.589,0,1.094-0.109,1.516-0.328S11.11,12.797,11.371,12.375z"/>
</g>
</svg>
