<?xml version="1.0" encoding="utf-8"?>
<!-- Generator: Adobe Illustrator 15.0.2, SVG Export Plug-In . SVG Version: 6.00 Build 0)  -->
<!DOCTYPE svg PUBLIC "-//W3C//DTD SVG 1.1//EN" "http://www.w3.org/Graphics/SVG/1.1/DTD/svg11.dtd">
<svg version="1.1" id="Icons" xmlns="http://www.w3.org/2000/svg" xmlns:xlink="http://www.w3.org/1999/xlink" x="0px" y="0px"
	 width="18px" height="18px" viewBox="0 0 18 18" enable-background="new 0 0 18 18" xml:space="preserve">
<g>
	<path fill="#FFFFFF" d="M2,17.5c-0.827,0-1.5-0.673-1.5-1.5V2c0-0.827,0.673-1.5,1.5-1.5h14c0.827,0,1.5,0.673,1.5,1.5v14
		c0,0.827-0.673,1.5-1.5,1.5H2z"/>
	<path d="M16,1c0.552,0,1,0.449,1,1v14c0,0.552-0.448,1-1,1H2c-0.551,0-1-0.448-1-1V2c0-0.551,0.449-1,1-1H16 M16,0H2
		C0.896,0,0,0.896,0,2v14c0,1.104,0.896,2,2,2h14c1.104,0,2-0.896,2-2V2C18,0.896,17.104,0,16,0L16,0z"/>
</g>
<rect fill="none" width="18" height="18"/>
<path d="M10.238,5.205c-0.098,0.061-0.271,0.12-0.387,0.12H3.564c-0.115,0-0.147,0.076-0.147,0.191v0.838
	c0,0.115-0.157,0.253-0.272,0.253H2.725c-0.115,0-0.206,0.051-0.206,0.166v3.563c0,0.115,0.091,0.246,0.206,0.246h0.419
	c0.115,0,0.272,0.058,0.272,0.173v0.838c0,0.115,0.032,0.271,0.147,0.271h1.677c0.115,0,0.254,0.053,0.308,0.154l1.479,2.756
	c0.054,0.103,0.193,0.168,0.308,0.168h1.258c0.116,0,0.166-0.081,0.111-0.183l-1.48-2.742c-0.054-0.102-0.004-0.153,0.111-0.153
	h2.515c0.115,0,0.289,0.022,0.385,0.086l4.679,3.105c0.097,0.063,0.173,0.007,0.173-0.108V2.373c0-0.115-0.078-0.156-0.176-0.094
	L10.238,5.205z"/>
</svg>
