<?xml version="1.0" encoding="utf-8"?>
<!-- Generator: Adobe Illustrator 15.0.2, SVG Export Plug-In . SVG Version: 6.00 Build 0)  -->
<!DOCTYPE svg PUBLIC "-//W3C//DTD SVG 1.1//EN" "http://www.w3.org/Graphics/SVG/1.1/DTD/svg11.dtd">
<svg version="1.1" id="Icons" xmlns="http://www.w3.org/2000/svg" xmlns:xlink="http://www.w3.org/1999/xlink" x="0px" y="0px"
	 width="18px" height="18px" viewBox="0 0 18 18" enable-background="new 0 0 18 18" xml:space="preserve">
<g>
	<path fill="#FFFFFF" d="M2,17.5c-0.827,0-1.5-0.673-1.5-1.5V2c0-0.827,0.673-1.5,1.5-1.5h14c0.827,0,1.5,0.673,1.5,1.5v14
		c0,0.827-0.673,1.5-1.5,1.5H2z"/>
	<path fill="#231F20" d="M16,1c0.552,0,1,0.449,1,1v14c0,0.552-0.448,1-1,1H2c-0.551,0-1-0.448-1-1V2c0-0.551,0.449-1,1-1H16 M16,0
		H2C0.896,0,0,0.896,0,2v14c0,1.104,0.896,2,2,2h14c1.104,0,2-0.896,2-2V2C18,0.896,17.104,0,16,0L16,0z"/>
</g>
<rect fill="none" width="18" height="18"/>
<path fill="#231F20" d="M15.949,13.686l-1-3c-0.023-0.069-0.063-0.129-0.1-0.188C14.938,10.348,15,10.184,15,10V9.002
	c0-0.109-0.02-0.215-0.053-0.318l-1.002-2c-0.021-0.068-0.062-0.127-0.096-0.186C13.938,6.35,14,6.186,14,6V5
	c0-0.551,0-0.996-1-0.998V2h-3v2l0,0C9,4,8,4,8,4V2H5v2C4,4,4,4.447,4,5v1c0,0.184,0.064,0.348,0.15,0.494
	c-0.036,0.063-0.074,0.121-0.097,0.19l-1,2C3.02,8.787,3,8.893,3,9.002V10c0,0.184,0.062,0.346,0.148,0.492
	c-0.037,0.063-0.076,0.123-0.1,0.193l-0.999,3C2.017,13.785,2,13.893,2,14v1.002C2,15.555,2.446,16,2.999,16h3.999
	C7.551,16,8,15.555,8,15.002V14c0-0.107-0.018-0.215-0.051-0.314l-0.898-2.692c0.53-0.027,0.953-0.455,0.954-0.992h1.99
	c0.001,0.535,0.424,0.963,0.952,0.99l-0.897,2.694C10.018,13.785,10,13.893,10,14v1.002C10,15.555,10.445,16,10.999,16h3.999
	C15.551,16,16,15.555,16,15.002V14C16,13.893,15.982,13.785,15.949,13.686z"/>
</svg>
