<?xml version="1.0" encoding="utf-8"?>
<!-- Generator: Adobe Illustrator 15.0.2, SVG Export Plug-In . SVG Version: 6.00 Build 0)  -->
<!DOCTYPE svg PUBLIC "-//W3C//DTD SVG 1.1//EN" "http://www.w3.org/Graphics/SVG/1.1/DTD/svg11.dtd">
<svg version="1.1" id="Icons" xmlns="http://www.w3.org/2000/svg" xmlns:xlink="http://www.w3.org/1999/xlink" x="0px" y="0px"
	 width="18px" height="18px" viewBox="0 0 18 18" enable-background="new 0 0 18 18" xml:space="preserve">
<g>
	<path fill="#FFFFFF" d="M2,17.5c-0.827,0-1.5-0.673-1.5-1.5V2c0-0.827,0.673-1.5,1.5-1.5h14c0.827,0,1.5,0.673,1.5,1.5v14
		c0,0.827-0.673,1.5-1.5,1.5H2z"/>
	<path d="M16,1c0.552,0,1,0.449,1,1v14c0,0.552-0.448,1-1,1H2c-0.551,0-1-0.448-1-1V2c0-0.551,0.449-1,1-1H16 M16,0H2
		C0.896,0,0,0.896,0,2v14c0,1.104,0.896,2,2,2h14c1.104,0,2-0.896,2-2V2C18,0.896,17.104,0,16,0L16,0z"/>
</g>
<rect fill="none" width="18" height="18"/>
<g>
	<path fill-rule="evenodd" clip-rule="evenodd" d="M8.273,2.886c0.09,0.402-0.196,1.57,0.179,1.575
		c0.302,0.002,0.179-1.114,0.179-1.575c0-0.537-0.137-1.41,0.285-1.43C9.504,1.431,9.14,2.516,9.237,3.031
		c0.388-0.163,0.793-0.507,1.252-0.823c0.266-0.182,1.036-0.865,1.357-0.715c0.253,0.117,0.179,1.079,0.179,1.68
		c0,1.084,0.131,2.058-0.285,2.609c-0.401,0.529-1.169,0.742-1.681,1.178c0.144,0.519,0.962,0.694,1.108,1.287
		c0.155,0.634,0,1.782,0,2.503c0,0.865,0.057,1.684-0.071,2.395c-1.358,0.06-2.966,0.06-4.325,0C6.643,12.084,6.7,10.708,6.7,9.462
		c0-0.415-0.078-0.895,0-1.215c0.143-0.576,0.937-0.779,1.108-1.25c-0.553-0.6-1.812-0.775-1.965-1.931
		c-0.069-0.516,0-1.298,0-1.894c0-0.509-0.104-1.547,0.179-1.68C6.33,1.35,6.957,1.932,7.201,2.103
		C7.618,2.389,7.965,2.591,8.273,2.886z"/>
	<path fill-rule="evenodd" clip-rule="evenodd" d="M6.736,12.048c0.228-0.236,0.636-0.14,1.001-0.14
		c1.053,0,2.403-0.059,3.359,0.071c-0.012,1.484-0.597,2.738-1.322,3.752c-0.147,0.205-0.526,0.883-0.823,0.894
		c-0.258,0.01-0.667-0.61-0.822-0.823C7.371,14.765,6.85,13.52,6.736,12.048z"/>
</g>
</svg>
