<?xml version="1.0" encoding="utf-8"?>
<!-- Generator: Adobe Illustrator 15.0.2, SVG Export Plug-In . SVG Version: 6.00 Build 0)  -->
<!DOCTYPE svg PUBLIC "-//W3C//DTD SVG 1.1//EN" "http://www.w3.org/Graphics/SVG/1.1/DTD/svg11.dtd">
<svg version="1.1" id="Icons" xmlns="http://www.w3.org/2000/svg" xmlns:xlink="http://www.w3.org/1999/xlink" x="0px" y="0px"
	 width="18px" height="18px" viewBox="0 0 18 18" enable-background="new 0 0 18 18" xml:space="preserve">
<g>
	<path fill="#FFFFFF" d="M2,17.5c-0.827,0-1.5-0.674-1.5-1.5V2c0-0.828,0.673-1.5,1.5-1.5h14c0.827,0,1.5,0.672,1.5,1.5v14
		c0,0.826-0.673,1.5-1.5,1.5H2z"/>
	<path d="M16,1c0.552,0,1,0.448,1,1v14c0,0.551-0.448,1-1,1H2c-0.551,0-1-0.449-1-1V2c0-0.552,0.449-1,1-1H16 M16,0H2
		C0.896,0,0,0.896,0,2v14c0,1.104,0.896,2,2,2h14c1.104,0,2-0.896,2-2V2C18,0.896,17.104,0,16,0L16,0z"/>
</g>
<polygon fill="#231F20" stroke="#231F20" stroke-miterlimit="10" points="16.084,15.459 10.71,12.718 10.875,16.458 7.5,13.124 
	2.292,16.083 5.667,9.624 2.625,9.124 6.125,7.333 2.541,2.5 7.604,5.208 9.25,1.416 10.958,5.249 15.861,2.679 12.704,8.288 
	16.333,9.166 12.638,10.681 "/>
<g>
	<rect x="8.375" y="11.437" fill="#FFFFFF" width="2" height="2"/>
</g>
<g>
	<path fill="#FFFFFF" d="M12.222,6.865c-0.101-0.244-0.269-0.474-0.505-0.685s-0.547-0.39-0.934-0.531
		c-0.387-0.143-0.869-0.213-1.446-0.213c-0.447,0-0.85,0.066-1.212,0.203C7.764,5.774,7.455,5.961,7.199,6.203
		C6.942,6.444,6.744,6.728,6.602,7.056S6.383,7.746,6.375,8.14h1.793c0-0.197,0.024-0.382,0.073-0.553
		C8.29,7.415,8.365,7.265,8.466,7.138c0.101-0.127,0.232-0.229,0.391-0.307c0.157-0.076,0.346-0.113,0.566-0.113
		c0.325,0,0.581,0.078,0.762,0.24c0.184,0.16,0.275,0.407,0.275,0.743c0.006,0.196-0.03,0.362-0.115,0.493
		c-0.088,0.131-0.197,0.25-0.338,0.359c-0.137,0.109-0.287,0.219-0.45,0.328c-0.161,0.11-0.316,0.24-0.462,0.391
		C8.949,9.421,8.821,9.601,8.709,9.812c-0.088,0.174-0.142,0.387-0.174,0.625h1.687c0.042-0.113,0.095-0.219,0.171-0.307
		c0.125-0.145,0.269-0.273,0.433-0.387c0.161-0.113,0.336-0.227,0.519-0.34c0.183-0.112,0.351-0.25,0.499-0.409
		c0.15-0.161,0.277-0.354,0.378-0.58c0.103-0.228,0.153-0.515,0.153-0.865C12.375,7.336,12.324,7.108,12.222,6.865z"/>
</g>
</svg>
