<?xml version="1.0" encoding="utf-8"?>
<!-- Generator: Adobe Illustrator 15.0.2, SVG Export Plug-In . SVG Version: 6.00 Build 0)  -->
<!DOCTYPE svg PUBLIC "-//W3C//DTD SVG 1.1//EN" "http://www.w3.org/Graphics/SVG/1.1/DTD/svg11.dtd">
<svg version="1.1" id="Icons" xmlns="http://www.w3.org/2000/svg" xmlns:xlink="http://www.w3.org/1999/xlink" x="0px" y="0px"
	 width="18px" height="18px" viewBox="0 0 18 18" enable-background="new 0 0 18 18" xml:space="preserve">
<g>
	<path fill="#FFFFFF" d="M2,17.5c-0.827,0-1.5-0.673-1.5-1.5V2c0-0.827,0.673-1.5,1.5-1.5h14c0.827,0,1.5,0.673,1.5,1.5v14
		c0,0.827-0.673,1.5-1.5,1.5H2z"/>
	<path d="M16,1c0.552,0,1,0.449,1,1v14c0,0.552-0.448,1-1,1H2c-0.551,0-1-0.448-1-1V2c0-0.551,0.449-1,1-1H16 M16,0H2
		C0.896,0,0,0.896,0,2v14c0,1.104,0.896,2,2,2h14c1.104,0,2-0.896,2-2V2C18,0.896,17.104,0,16,0L16,0z"/>
</g>
<rect fill="none" width="18" height="18"/>
<rect x="8" y="4" fill="#231F20" width="2" height="3"/>
<rect x="11" y="8" fill="#231F20" width="3" height="2"/>
<path fill="#231F20" d="M10,5H8v1h2c1.104,0,2,0.896,2,2v2h1V8C13,6.344,11.657,5,10,5z"/>
<path fill="#231F20" d="M5.5,2C3.917,2,2.6,3.057,2.169,4.499h1.046C3.603,3.619,4.477,3,5.5,3C6.88,3,8,4.119,8,5.5S6.88,8,5.5,8
	C4.476,8,3.602,7.381,3.215,6.499H2.169C2.599,7.942,3.917,9,5.5,9C7.433,9,9,7.434,9,5.5S7.433,2,5.5,2z"/>
<path fill="#231F20" d="M12.5,9C10.566,9,9,10.566,9,12.5c0,1.584,1.057,2.9,2.5,3.33v-1.046C10.619,14.398,10,13.523,10,12.5
	c0-1.381,1.119-2.5,2.5-2.5s2.5,1.119,2.5,2.5c0,1.023-0.619,1.898-1.5,2.284v1.046c1.443-0.43,2.5-1.746,2.5-3.33
	C16,10.566,14.434,9,12.5,9z"/>
</svg>
