<?xml version="1.0" encoding="utf-8"?>
<!-- Generator: Adobe Illustrator 15.0.2, SVG Export Plug-In . SVG Version: 6.00 Build 0)  -->
<!DOCTYPE svg PUBLIC "-//W3C//DTD SVG 1.1//EN" "http://www.w3.org/Graphics/SVG/1.1/DTD/svg11.dtd">
<svg version="1.1" id="Icons" xmlns="http://www.w3.org/2000/svg" xmlns:xlink="http://www.w3.org/1999/xlink" x="0px" y="0px"
	 width="18px" height="18px" viewBox="0 0 18 18" enable-background="new 0 0 18 18" xml:space="preserve">
<g>
	<path fill="#FFFFFF" d="M2,17.5c-0.827,0-1.5-0.673-1.5-1.5V2c0-0.827,0.673-1.5,1.5-1.5h14c0.827,0,1.5,0.673,1.5,1.5v14
		c0,0.827-0.673,1.5-1.5,1.5H2z"/>
	<path d="M16,1c0.552,0,1,0.449,1,1v14c0,0.552-0.448,1-1,1H2c-0.551,0-1-0.448-1-1V2c0-0.551,0.449-1,1-1H16 M16,0H2
		C0.896,0,0,0.896,0,2v14c0,1.104,0.896,2,2,2h14c1.104,0,2-0.896,2-2V2C18,0.896,17.104,0,16,0L16,0z"/>
</g>
<rect fill="none" width="18" height="18"/>
<polygon points="11,15 12.5,15 15.5,12.5 12.5,10 11,10 11,11 11,12.016 3,12 3,13 11.016,13.016 11,14 "/>
<g>
	<path fill-rule="evenodd" clip-rule="evenodd" d="M3.542,5.053C3.395,4.701,3.081,4.334,2.795,3.918
		C2.63,3.676,2.011,2.977,2.146,2.687C2.252,2.457,3.124,2.523,3.67,2.523c0.982,0,1.867-0.119,2.367,0.259
		c0.48,0.364,0.53,1.492,0.926,1.957c0.47-0.132,0.773-1.305,1.311-1.438c0.576-0.142,1.618,0,2.271,0
		c0.785,0,1.528-0.051,2.173,0.064c0.054,1.232,0.054,2.69,0,3.924c-0.963,0.117-2.211,0.064-3.342,0.064
		c-0.376,0-0.813,0.071-1.103,0C7.75,7.225,7.499,6.034,7.072,5.88C6.527,6.382,6.436,7.993,5.388,8.133
		c-0.468,0.063-1.178,0-1.718,0c-0.462,0-1.403,0.094-1.524-0.162C2.016,7.69,2.544,7.122,2.699,6.9
		c0.26-0.378,0.442-0.693,0.711-0.973c0.365-0.081,1.424,0.178,1.43-0.162c0.001-0.274-1.011-0.163-1.43-0.163"/>
	<path fill-rule="evenodd" clip-rule="evenodd" d="M11.723,7.322c-0.214-0.208-0.127-0.577-0.127-0.909
		c0-0.954-0.053-2.181,0.065-3.047c1.347,0.011,2.483,0.541,3.403,1.199c0.186,0.134,0.801,0.478,0.811,0.747
		c0.009,0.234-0.553,0.605-0.746,0.746C14.188,6.746,13.058,7.219,11.723,7.322z"/>
</g>
</svg>
