<?xml version="1.0" encoding="utf-8"?>
<!-- Generator: Adobe Illustrator 15.0.2, SVG Export Plug-In . SVG Version: 6.00 Build 0)  -->
<!DOCTYPE svg PUBLIC "-//W3C//DTD SVG 1.1//EN" "http://www.w3.org/Graphics/SVG/1.1/DTD/svg11.dtd">
<svg version="1.1" id="Icons" xmlns="http://www.w3.org/2000/svg" xmlns:xlink="http://www.w3.org/1999/xlink" x="0px" y="0px"
	 width="18px" height="18px" viewBox="0 0 18 18" enable-background="new 0 0 18 18" xml:space="preserve">
<g>
	<path fill="#FFFFFF" d="M1.969,17.525c-0.827,0-1.5-0.673-1.5-1.5v-14c0-0.827,0.673-1.5,1.5-1.5h14c0.827,0,1.5,0.673,1.5,1.5v14
		c0,0.827-0.673,1.5-1.5,1.5H1.969z"/>
	<path fill="#231F20" d="M15.969,1.025c0.552,0,1,0.449,1,1v14c0,0.552-0.448,1-1,1h-14c-0.551,0-1-0.448-1-1v-14
		c0-0.551,0.449-1,1-1H15.969 M15.969,0.025h-14c-1.104,0-2,0.896-2,2v14c0,1.104,0.896,2,2,2h14c1.104,0,2-0.896,2-2v-14
		C17.969,0.921,17.072,0.025,15.969,0.025L15.969,0.025z"/>
</g>
<rect x="-0.031" y="0.025" fill="none" width="18" height="18"/>
<path fill="#231F20" d="M14.223,8.334c0,0-0.52-0.52-0.778-0.778S12.666,7,11.889,7H10V5h3.223C13.653,5,14,4.875,14,4.444
	S13.709,4,13.277,4H5.944C5.514,4,5.111,4.014,5.111,4.444S5.461,4.953,5.889,5H9v2H8.223h-3.33
	c-0.27-0.465-0.762-0.777-1.337-0.777C2.696,6.223,2,6.919,2,7.777c0,0.859,0.696,1.557,1.556,1.557
	c0.448,0,0.834-0.207,1.118-0.511l2.771,2.621C8.254,12.211,8.806,13,9.194,13h5.028C14.611,13,15,12.611,15,12.223V9.889
	C15,9.111,14.626,8.737,14.223,8.334z M3.556,8.556c-0.43,0-0.778-0.349-0.778-0.778S3.126,7,3.556,7s0.778,0.348,0.778,0.777
	S3.985,8.556,3.556,8.556z M13.102,10.734h-1.359v1.359h-1.5v-1.359H8.883v-1.5h1.359V7.875h1.5v1.359h1.359V10.734z"/>
</svg>
