<?xml version="1.0" encoding="utf-8"?>
<!-- Generator: Adobe Illustrator 15.0.2, SVG Export Plug-In . SVG Version: 6.00 Build 0)  -->
<!DOCTYPE svg PUBLIC "-//W3C//DTD SVG 1.1//EN" "http://www.w3.org/Graphics/SVG/1.1/DTD/svg11.dtd">
<svg version="1.1" id="Icons" xmlns="http://www.w3.org/2000/svg" xmlns:xlink="http://www.w3.org/1999/xlink" x="0px" y="0px"
	 width="18px" height="18px" viewBox="0 0 18 18" enable-background="new 0 0 18 18" xml:space="preserve">
<g>
	<path fill="#FFFFFF" d="M2,17.563c-0.896,0-1.625-0.729-1.625-1.625v-14c0-0.896,0.729-1.625,1.625-1.625h14
		c0.896,0,1.625,0.729,1.625,1.625v14c0,0.896-0.729,1.625-1.625,1.625H2z"/>
	<path d="M16,0.688c0.689,0,1.25,0.561,1.25,1.25v14c0,0.689-0.561,1.25-1.25,1.25H2c-0.689,0-1.25-0.561-1.25-1.25v-14
		c0-0.689,0.561-1.25,1.25-1.25H16 M16-0.063H2c-1.104,0-2,0.896-2,2v14c0,1.104,0.896,2,2,2h14c1.104,0,2-0.896,2-2v-14
		C18,0.834,17.104-0.063,16-0.063L16-0.063z"/>
</g>
<rect fill="none" width="18" height="18"/>
<path fill-rule="evenodd" clip-rule="evenodd" fill="none" stroke="#000000" stroke-miterlimit="10" d="M7.861,15.33l-0.534-2.798
	l1.718-1.461c0.002-0.004,0.004-0.008,0.007-0.011l3.417-2.906l3.547,0.286c0.465,0.038,0.873-0.31,0.91-0.774
	c0.037-0.467-0.308-0.875-0.776-0.911l-3.743-0.302l-0.488-0.575l-0.343-3.889c-0.042-0.465-0.452-0.811-0.918-0.768
	c-0.466,0.042-0.81,0.452-0.768,0.917l0.314,3.564l-2.867,2.44L4.874,7.945C4.593,7.923,4.317,8.01,4.104,8.193L1.38,10.511
	C0.937,10.888,0.883,11.555,1.261,12c0.379,0.444,1.046,0.499,1.492,0.12l2.388-2.032l1.64,0.134L5.488,11.32
	c-0.289,0.246-0.426,0.63-0.353,1.004l0.648,3.402c0.036,0.186,0.118,0.352,0.232,0.486c0.237,0.28,0.617,0.429,1.005,0.354
	C7.594,16.457,7.972,15.904,7.861,15.33z"/>
<circle fill-rule="evenodd" clip-rule="evenodd" fill="none" stroke="#000000" stroke-miterlimit="10" cx="14.272" cy="4.063" r="1.464"/>
</svg>
