<?xml version="1.0" encoding="utf-8"?>
<!-- Generator: Adobe Illustrator 15.0.2, SVG Export Plug-In . SVG Version: 6.00 Build 0)  -->
<!DOCTYPE svg PUBLIC "-//W3C//DTD SVG 1.1//EN" "http://www.w3.org/Graphics/SVG/1.1/DTD/svg11.dtd">
<svg version="1.1" id="Icons" xmlns="http://www.w3.org/2000/svg" xmlns:xlink="http://www.w3.org/1999/xlink" x="0px" y="0px"
	 width="18px" height="18px" viewBox="0 0 18 18" enable-background="new 0 0 18 18" xml:space="preserve">
<g>
	<path fill="#FFFFFF" d="M2,17.5c-0.827,0-1.5-0.673-1.5-1.5V2c0-0.827,0.673-1.5,1.5-1.5h14c0.827,0,1.5,0.673,1.5,1.5v14
		c0,0.827-0.673,1.5-1.5,1.5H2z"/>
	<path fill="#231F20" d="M16,1c0.552,0,1,0.449,1,1v14c0,0.552-0.448,1-1,1H2c-0.551,0-1-0.448-1-1V2c0-0.551,0.449-1,1-1H16 M16,0
		H2C0.896,0,0,0.896,0,2v14c0,1.104,0.896,2,2,2h14c1.104,0,2-0.896,2-2V2C18,0.896,17.104,0,16,0L16,0z"/>
</g>
<g>
	<path d="M13.223,4.523c0.547,0.5,0.98,1.104,1.301,1.813c0.32,0.708,0.48,1.516,0.48,2.422c0,0.808-0.136,1.576-0.406,2.305
		c-0.271,0.729-0.661,1.357-1.172,1.883c-0.536,0.547-1.167,0.973-1.891,1.277S9.949,14.68,8.949,14.68
		c-0.808,0-1.57-0.133-2.289-0.398s-1.352-0.65-1.898-1.156C4.22,12.631,3.79,12.029,3.473,11.32
		c-0.317-0.708-0.477-1.497-0.477-2.367c0-0.906,0.155-1.728,0.465-2.465c0.31-0.737,0.735-1.368,1.277-1.895
		c0.536-0.516,1.173-0.913,1.91-1.191c0.737-0.278,1.522-0.418,2.355-0.418c0.828,0,1.605,0.136,2.332,0.406
		C12.063,3.662,12.691,4.039,13.223,4.523z M11.215,12.459c0.234-0.475,0.403-1.012,0.508-1.612c0.104-0.6,0.156-1.278,0.156-2.034
		c0-0.642-0.046-1.266-0.137-1.874c-0.091-0.607-0.246-1.149-0.465-1.624c-0.224-0.475-0.521-0.855-0.891-1.142
		c-0.37-0.287-0.831-0.431-1.383-0.431c-0.942,0-1.659,0.447-2.148,1.342S6.121,7.242,6.121,8.875c0,0.693,0.054,1.349,0.16,1.964
		c0.106,0.616,0.274,1.153,0.504,1.612c0.234,0.464,0.531,0.825,0.891,1.084c0.359,0.258,0.802,0.387,1.328,0.387
		c0.516,0,0.958-0.131,1.328-0.391C10.702,13.27,10.996,12.912,11.215,12.459z"/>
</g>
</svg>
