<?xml version="1.0" encoding="utf-8"?>
<!-- Generator: Adobe Illustrator 15.0.2, SVG Export Plug-In . SVG Version: 6.00 Build 0)  -->
<!DOCTYPE svg PUBLIC "-//W3C//DTD SVG 1.1//EN" "http://www.w3.org/Graphics/SVG/1.1/DTD/svg11.dtd">
<svg version="1.1" id="Layer_1" xmlns="http://www.w3.org/2000/svg" xmlns:xlink="http://www.w3.org/1999/xlink" x="0px" y="0px"
	 width="24px" height="24px" viewBox="0 0 24 24" enable-background="new 0 0 24 24" xml:space="preserve">
<path fill="#58595B" d="M12.231,0.23c-5.739,0-6.943,2.824-6.943,5.279v11.512l6.943,6.939l6.943-6.939V5.51
	C19.175,3.054,17.971,0.23,12.231,0.23"/>
<path fill="#939598" d="M6.019,16.718V5.51c0-3.06,2.033-4.549,6.212-4.549s6.212,1.489,6.212,4.549v11.208l-6.212,6.209
	L6.019,16.718z"/>
<path fill="#808285" d="M12.597,1.702v19.827l5.117-5.114V5.51C17.714,3.78,17.111,1.806,12.597,1.702"/>
<polygon fill="#FFFFFF" points="17.719,14.906 17.703,16.422 15.141,18.969 10.25,15.833 12.095,13.531 16.244,14.911 "/>
<path fill="#FFFFFF" d="M17.656,11.777h-4.889c-0.135-1.263-0.63-2.263-0.716-3.481c0.01-0.417,0.006-0.723-0.05-1.119
	C11.995,6.95,11.98,6.746,11.98,6.514c0-0.444-0.049-0.888-0.049-1.286c0.002-0.564,0.089-0.999,0.434-1.303
	c0.206-0.18,0.367-0.23,0.505-0.232c0.362-0.038,0.844,0.528,1.086,1.161c-0.213,0.173-0.332,0.328-0.332,0.328
	c-0.822,1.151,2.278,4.443,3.511,2.672c0.527-0.758-0.153-2.938-1.399-3.368c-0.488-0.17-0.916-0.097-1.258,0.052
	c-0.293-0.714-0.8-1.415-1.608-1.453c-0.309-0.003-0.627,0.13-0.909,0.386c-0.543,0.476-0.642,1.145-0.64,1.758
	c0,0.292,0.018,0.577,0.032,0.854c-0.127-0.111-0.271-0.222-0.45-0.33c-0.375-0.237-0.699-0.369-1.017-0.371
	C9.081,5.414,8.85,6.186,8.827,7.03c-0.857,0.7-1.015,3.629,0.504,3.123c0.823-0.276,1.179-1.338,1.098-2.063
	c0,0-0.063-1.022-0.987-1.18c0.046-0.69,0.232-0.919,0.445-0.919c0.131-0.003,0.368,0.069,0.685,0.274
	c0.575,0.398,0.75,0.542,0.815,0.911c0.009,0.349,0.053,1.17,0.054,1.207h0.006c0.088,1.225,0.267,2.158,0.4,3.394h-0.56
	l0.977,0.461l4.15,1.38l1.282-0.184 M14.622,4.83c0,0,1.489,1.011,1.91,2.825l-2.349-2.558L14.622,4.83z M8.896,9.642
	c-0.21-0.745,0-2.177,0-2.177l0.42-0.172L8.896,9.642z"/>
<polyline fill="#FFFFFF" points="6.682,15.255 7.213,15.923 9.08,14.799 11.026,12.391 10.418,11.777 6.625,11.797 "/>
<polyline fill="#FFFFFF" points="13.578,19 8.761,16.556 7.594,17.344 9.078,18.906 "/>
<polyline fill="#FFFFFF" points="12.234,21.906 14.125,20 10.172,20.047 12.047,21.719 "/>
</svg>
