<?xml version="1.0" encoding="utf-8"?>
<!-- Generator: Adobe Illustrator 15.0.2, SVG Export Plug-In . SVG Version: 6.00 Build 0)  -->
<!DOCTYPE svg PUBLIC "-//W3C//DTD SVG 1.1//EN" "http://www.w3.org/Graphics/SVG/1.1/DTD/svg11.dtd">
<svg version="1.1" id="Layer_1" xmlns="http://www.w3.org/2000/svg" xmlns:xlink="http://www.w3.org/1999/xlink" x="0px" y="0px"
	 width="24px" height="24px" viewBox="0 0 24 24" enable-background="new 0 0 24 24" xml:space="preserve">
<path fill="#58595B" d="M12.231,0.23c-5.739,0-6.943,2.824-6.943,5.279v11.512l6.943,6.939l6.943-6.939V5.51
	C19.175,3.054,17.971,0.23,12.231,0.23"/>
<path fill="#939598" d="M6.019,16.718V5.51c0-3.06,2.033-4.549,6.212-4.549s6.212,1.489,6.212,4.549v11.208l-6.212,6.209
	L6.019,16.718z"/>
<path fill="#808285" d="M12.597,1.702v19.827l5.117-5.114V5.51C17.714,3.78,17.111,1.806,12.597,1.702"/>
<g>
	<polygon fill="#FFFFFF" points="12.296,12.827 12.024,13.812 12.914,13.812 12.469,16.256 13.803,16.256 14.131,17.071 
		16.543,17.437 16.545,17.437 16.545,13.437 	"/>
	<polygon fill="#FFFFFF" points="10.914,14.923 10.024,14.923 10.914,12.923 7.233,12.923 7.233,16.923 10.298,16.923 	"/>
</g>
<path fill="#FFFFFF" d="M11.742,2.793l-0.058-0.006L8.867,2.511L8.758,3.617l0.221,0.021l-0.844,8.617h2.112L12.024,8.7
	l-0.444,2.667h1.111l-0.213,0.793l2.332,0.334l0.804-8.206l0.222,0.022l0.107-1.106l-0.221-0.021l-2.654-0.26l0,0 M11.186,7.99
	L9.638,7.838l0.383-3.428l1.548,0.152L11.186,7.99z M14.061,8.209l-1.548-0.151l0.383-3.365l1.548,0.151L14.061,8.209z"/>
</svg>
