<?xml version="1.0" encoding="utf-8"?>
<!-- Generator: Adobe Illustrator 15.0.2, SVG Export Plug-In . SVG Version: 6.00 Build 0)  -->
<!DOCTYPE svg PUBLIC "-//W3C//DTD SVG 1.1//EN" "http://www.w3.org/Graphics/SVG/1.1/DTD/svg11.dtd">
<svg version="1.1" id="Layer_1" xmlns="http://www.w3.org/2000/svg" xmlns:xlink="http://www.w3.org/1999/xlink" x="0px" y="0px"
	 width="24px" height="24px" viewBox="0 0 24 24" enable-background="new 0 0 24 24" xml:space="preserve">
<path fill="#58595B" d="M12.231,0.23c-5.739,0-6.943,2.824-6.943,5.279v11.512l6.943,6.939l6.943-6.939V5.51
	C19.175,3.054,17.971,0.23,12.231,0.23"/>
<path fill="#939598" d="M6.019,16.718V5.51c0-3.06,2.033-4.549,6.212-4.549s6.212,1.489,6.212,4.549v11.208l-6.212,6.209
	L6.019,16.718z"/>
<path fill="#808285" d="M12.597,1.702v19.827l5.117-5.114V5.51C17.714,3.78,17.111,1.806,12.597,1.702"/>
<polygon fill="#FFFFFF" points="14.908,13.67 14.613,13.394 14.613,13.29 14.475,12.995 14.475,12.078 14.37,11.697 13.938,11.264 
	13.419,11.021 13.297,10.883 12.777,10.727 12.777,10.485 12.483,9.948 12.346,9.809 12.242,8.078 12.103,7.818 12.103,7.679 
	12.242,7.004 12.777,6.381 13.021,6.225 13.021,6.086 13.159,5.705 12.346,4.875 6.25,13.931 14.908,13.931 "/>
<path fill="#FFFFFF" d="M13.297,7.16c-0.046,0.046-0.068,0.104-0.068,0.174c0,0.092,0.021,0.182,0.061,0.268
	c0.04,0.087,0.083,0.159,0.13,0.217c0.034,0,0.086,0,0.155,0c0.082,0,0.161-0.006,0.242-0.017c0.08-0.012,0.162-0.026,0.243-0.043
	c0.08-0.017,0.139-0.043,0.173-0.078c0.046-0.046,0.069-0.092,0.069-0.138c0-0.069-0.023-0.136-0.069-0.2
	c-0.047-0.063-0.099-0.124-0.156-0.182c-0.069-0.046-0.144-0.078-0.226-0.095c-0.08-0.017-0.154-0.026-0.224-0.026
	c-0.07,0-0.136,0.009-0.199,0.026C13.363,7.082,13.32,7.114,13.297,7.16z"/>
<path fill="#FFFFFF" d="M13.297,9.03c0.023,0.069,0.078,0.122,0.164,0.156c0.087,0.034,0.177,0.052,0.27,0.052
	c0.162,0,0.242-0.069,0.242-0.208c0-0.023-0.005-0.043-0.018-0.06c-0.01-0.018-0.017-0.043-0.017-0.078
	c-0.023-0.092-0.07-0.156-0.139-0.191c-0.069-0.034-0.149-0.051-0.243-0.051c-0.069,0-0.142,0.017-0.216,0.051
	c-0.074,0.035-0.112,0.087-0.112,0.156C13.229,8.88,13.251,8.938,13.297,9.03z"/>
<path fill="#FFFFFF" d="M14.509,9.809c0.059,0.023,0.104,0.046,0.141,0.069c0.033,0.023,0.107,0.035,0.225,0.035
	c0.046,0,0.108-0.002,0.19-0.008c0.081-0.006,0.161-0.026,0.241-0.061c0.081-0.035,0.156-0.084,0.227-0.147
	c0.068-0.063,0.12-0.153,0.154-0.269c0.046-0.092,0.07-0.178,0.07-0.259c0-0.139-0.044-0.277-0.13-0.416
	c-0.087-0.138-0.199-0.225-0.338-0.26C15.22,8.424,15.15,8.39,15.081,8.39c-0.104,0-0.205,0.058-0.304,0.173
	c-0.098,0.115-0.198,0.225-0.303,0.329v0.035c-0.034,0.069-0.072,0.153-0.112,0.251s-0.061,0.193-0.061,0.286
	C14.302,9.625,14.37,9.74,14.509,9.809z"/>
<path fill="#FFFFFF" d="M14.908,10.623c-0.093,0.035-0.159,0.086-0.199,0.156c-0.042,0.069-0.06,0.138-0.06,0.208
	c0,0.092,0.036,0.173,0.112,0.242c0.074,0.069,0.169,0.104,0.284,0.104c0.035,0,0.07-0.006,0.104-0.018
	c0.034-0.012,0.08-0.029,0.139-0.052c0.093-0.035,0.17-0.089,0.233-0.165c0.063-0.076,0.095-0.159,0.095-0.251
	c0-0.046-0.009-0.087-0.025-0.122c-0.017-0.035-0.037-0.069-0.06-0.104c-0.036-0.069-0.128-0.104-0.279-0.104
	C15.127,10.52,15.013,10.554,14.908,10.623z"/>
<path fill="#FFFFFF" d="M15.826,11.801c0,0.092-0.043,0.185-0.13,0.277c-0.088,0.092-0.177,0.179-0.269,0.26
	c-0.046,0.046-0.07,0.115-0.07,0.207c0,0.186,0.058,0.335,0.175,0.45c0.092,0.093,0.17,0.173,0.232,0.242
	c0.064,0.069,0.131,0.168,0.199,0.294c0.058,0.069,0.124,0.154,0.2,0.252c0.074,0.099,0.187,0.147,0.337,0.147
	c0.068,0.034,0.138,0.055,0.208,0.061C16.778,13.997,16.858,14,16.95,14c0.151,0,0.289-0.023,0.417-0.069
	c0.127-0.047,0.226-0.133,0.294-0.261c0.058-0.092,0.104-0.188,0.139-0.284c0.034-0.099,0.052-0.2,0.052-0.303
	c0-0.163-0.022-0.319-0.068-0.469c-0.048-0.15-0.088-0.283-0.122-0.398v-0.035c-0.022-0.081-0.059-0.179-0.104-0.294
	c-0.046-0.115-0.098-0.228-0.155-0.337c-0.058-0.11-0.118-0.202-0.182-0.278c-0.064-0.074-0.131-0.112-0.199-0.112
	c-0.07-0.023-0.13-0.04-0.183-0.051c-0.052-0.012-0.105-0.018-0.164-0.018c-0.139,0-0.259,0.021-0.363,0.062
	c-0.104,0.04-0.185,0.077-0.243,0.112v0.034c-0.058,0.069-0.112,0.144-0.164,0.225S15.826,11.697,15.826,11.801z"/>
</svg>
