<?xml version="1.0" encoding="utf-8"?>
<!-- Generator: Adobe Illustrator 15.0.2, SVG Export Plug-In . SVG Version: 6.00 Build 0)  -->
<!DOCTYPE svg PUBLIC "-//W3C//DTD SVG 1.1//EN" "http://www.w3.org/Graphics/SVG/1.1/DTD/svg11.dtd">
<svg version="1.1" id="Layer_1" xmlns="http://www.w3.org/2000/svg" xmlns:xlink="http://www.w3.org/1999/xlink" x="0px" y="0px"
	 width="24px" height="24px" viewBox="0 0 24 24" enable-background="new 0 0 24 24" xml:space="preserve">
<path fill="#58595B" d="M12.231,0.23c-5.739,0-6.943,2.824-6.943,5.279v11.512l6.943,6.939l6.943-6.939V5.51
	C19.175,3.054,17.971,0.23,12.231,0.23"/>
<path fill="#939598" d="M6.019,16.718V5.51c0-3.06,2.033-4.549,6.212-4.549s6.212,1.489,6.212,4.549v11.208l-6.212,6.209
	L6.019,16.718z"/>
<path fill="#808285" d="M12.597,1.702v19.827l5.117-5.114V5.51C17.714,3.78,17.111,1.806,12.597,1.702"/>
<path fill="#FFFFFF" d="M6.578,16.094l5.646,5.816l5.495-5.504v-3.578l-5.297,0.016l-0.047,0.172
	c0.031,0.118,0.104,0.272,0.102,0.394c-0.002,0.134-0.123,0.205-0.161,0.322c-0.048,0.148,0.036,0.272,0.057,0.418
	c0.016,0.105-0.076,0.21-0.042,0.313c0.026,0.078,0.121,0.109,0.161,0.182c0.078,0.142-0.052,0.225-0.078,0.355
	c-0.026,0.134,0.071,0.248,0.039,0.379c-0.036,0.149-0.175,0.251-0.207,0.416c-0.033,0.169-0.004,0.345-0.042,0.514
	c-0.037,0.166-0.154,0.297-0.194,0.46c-0.044,0.181,0.041,0.342,0.079,0.514c0.046,0.207-0.004,0.334-0.106,0.512
	c-0.022,0.039-0.043,0.075-0.063,0.109s-0.029,0.075-0.029,0.12c0,0.023,0.004,0.052,0.011,0.085
	c0.008,0.035,0.02,0.071,0.035,0.109c0.038,0.068,0.066,0.125,0.085,0.171c0.02,0.046,0.029,0.089,0.029,0.126
	c0,0.03-0.022,0.068-0.069,0.114c-0.061,0.061-0.11,0.099-0.148,0.115c-0.039,0.015-0.058,0.064-0.058,0.148v0.045
	c0.015,0.092,0.049,0.166,0.104,0.224c0.053,0.057,0.08,0.115,0.08,0.2c-0.016,0.068-0.04,0.123-0.075,0.166
	c-0.034,0.041-0.07,0.089-0.108,0.143c-0.015,0.022-0.025,0.058-0.029,0.104c-0.003,0.044-0.01,0.093-0.017,0.143
	c-0.007,0.049-0.017,0.095-0.029,0.137c-0.011,0.042-0.035,0.07-0.074,0.086c-0.038,0.016-0.082,0.03-0.131,0.045
	c-0.05,0.017-0.098,0.022-0.143,0.022c-0.084,0-0.145-0.029-0.183-0.091c-0.045-0.053-0.076-0.119-0.091-0.193
	c-0.05-0.188-0.146-0.226-0.261-0.37c-0.095-0.118-0.05-0.167-0.037-0.307c0.032-0.337-0.189-0.211-0.335-0.404
	c-0.165-0.221,0.098-0.459-0.17-0.657c-0.245-0.181-0.272-0.244-0.26-0.539c0.01-0.251-0.245-0.324-0.32-0.536
	c-0.054-0.151-0.03-0.31-0.101-0.458c-0.071-0.149-0.135-0.229-0.13-0.401c0.004-0.166,0.008-0.291-0.035-0.453
	c-0.089-0.337-0.028-0.632-0.065-0.965c-0.031-0.277-0.309-0.338-0.458-0.538c-0.11-0.149-0.026-0.303-0.001-0.462
	c0.022-0.142-0.005-0.253-0.042-0.389c-0.017-0.062-0.14-0.614-0.209-0.613l-2.094,0.016L6.578,16.094z"/>
<path fill="#FFFFFF" d="M17.034,9.208l-1.712-2.586l0.768-0.508l-2.129-0.298L12.46,3.546l-1.537,1.017l0.603,0.912L9.101,5.136
	l-1.842,6.822l0.769-0.508l1.741,2.63L17.034,9.208z"/>
</svg>
