<?xml version="1.0" encoding="utf-8"?>
<!-- Generator: Adobe Illustrator 15.0.2, SVG Export Plug-In . SVG Version: 6.00 Build 0)  -->
<!DOCTYPE svg PUBLIC "-//W3C//DTD SVG 1.1//EN" "http://www.w3.org/Graphics/SVG/1.1/DTD/svg11.dtd">
<svg version="1.1" id="Layer_1" xmlns="http://www.w3.org/2000/svg" xmlns:xlink="http://www.w3.org/1999/xlink" x="0px" y="0px"
	 width="24px" height="24px" viewBox="0 0 24 24" enable-background="new 0 0 24 24" xml:space="preserve">
<path fill="#58595B" d="M12.231,0.23c-5.739,0-6.943,2.824-6.943,5.279v11.512l6.943,6.939l6.943-6.939V5.51
	C19.175,3.054,17.971,0.23,12.231,0.23"/>
<path fill="#939598" d="M6.019,16.718V5.51c0-3.06,2.033-4.549,6.212-4.549s6.212,1.489,6.212,4.549v11.208l-6.212,6.209
	L6.019,16.718z"/>
<path fill="#808285" d="M12.597,1.702v19.827l5.117-5.114V5.51C17.714,3.78,17.111,1.806,12.597,1.702"/>
<g>
	<path fill="#FFFFFF" d="M6.621,9.271l0.046,7.104l5.708,5.417l5.25-5.375l0.002-4.738c-0.107,0.008-0.222,0.016-0.344,0.023
		c-0.105,0.008-0.231,0.015-0.378,0.019c-0.146,0.004-0.306,0.006-0.476,0.006c-0.312,0-0.636-0.01-0.978-0.031
		s-0.669-0.066-0.979-0.139c-0.34-0.075-0.664-0.203-0.97-0.386c-0.306-0.184-0.574-0.407-0.807-0.672
		c-0.231-0.264-0.415-0.558-0.549-0.878c-0.134-0.323-0.201-0.663-0.201-1.02c0-0.367,0.067-0.707,0.201-1.02
		c0.135-0.314,0.32-0.589,0.556-0.826c0.237-0.236,0.51-0.421,0.825-0.556c0.313-0.134,0.653-0.201,1.021-0.201
		c0.349,0,0.684,0.065,1,0.195c0.317,0.13,0.596,0.313,0.831,0.55c0.024,0.016,0.044,0.037,0.062,0.061
		c0.017,0.024,0.036,0.049,0.061,0.073l-0.048-0.232c-0.034-0.114-0.086-0.24-0.16-0.379c-0.064-0.114-0.146-0.243-0.244-0.385
		c-0.098-0.142-0.224-0.288-0.379-0.434c-0.145-0.131-0.314-0.25-0.506-0.36c-0.19-0.11-0.398-0.204-0.622-0.281
		C14.317,4.73,14.084,4.67,13.84,4.63s-0.492-0.061-0.745-0.061c-0.464,0-0.915,0.067-1.35,0.202
		c-0.436,0.134-0.849,0.313-1.24,0.537s-0.757,0.477-1.1,0.757C9.063,6.346,8.75,6.633,8.465,6.927
		C7.79,7.61,7.174,8.393,6.621,9.271"/>
</g>
</svg>
