<?xml version="1.0" encoding="utf-8"?>
<!-- Generator: Adobe Illustrator 15.0.2, SVG Export Plug-In . SVG Version: 6.00 Build 0)  -->
<!DOCTYPE svg PUBLIC "-//W3C//DTD SVG 1.1//EN" "http://www.w3.org/Graphics/SVG/1.1/DTD/svg11.dtd">
<svg version="1.1" id="Layer_1" xmlns="http://www.w3.org/2000/svg" xmlns:xlink="http://www.w3.org/1999/xlink" x="0px" y="0px"
	 width="24px" height="24px" viewBox="0 0 24 24" enable-background="new 0 0 24 24" xml:space="preserve">
<path fill="#58595B" d="M12.231,0.23c-5.739,0-6.943,2.824-6.943,5.279v11.512l6.943,6.939l6.943-6.939V5.51
	C19.175,3.054,17.971,0.23,12.231,0.23"/>
<path fill="#939598" d="M6.019,16.718V5.51c0-3.06,2.033-4.549,6.212-4.549s6.212,1.489,6.212,4.549v11.208l-6.212,6.209
	L6.019,16.718z"/>
<path fill="#808285" d="M12.597,1.702v19.827l5.117-5.114V5.51C17.714,3.78,17.111,1.806,12.597,1.702"/>
<path fill="#FFFFFF" d="M8.952,13.145l1.894,1.864c0.358,0.36,0.882,0.566,1.561,0.264l1.234-0.558l2.107-0.951l1.255-0.566
	c0.674-0.308,0.865-0.836,0.837-1.344l-0.145-2.655c0.328-0.202,0.757-0.887,0.407-1.66l-1.299-2.877L15.95,5.047l-0.415-0.917
	c-0.506-1.133-2.104-0.397-1.599,0.721l0.414,0.919l-2.884,1.3L8.59,8.369L8.175,7.45C7.668,6.334,6.059,7.043,6.57,8.176
	l0.413,0.918L6.13,9.479l1.298,2.876C7.78,13.128,8.58,13.258,8.952,13.145z M15.906,7.156c0.41-0.186,0.895,0.005,1.083,0.426
	c0.193,0.422,0.016,0.914-0.396,1.095c-0.406,0.188-0.892-0.005-1.083-0.429C15.321,7.829,15.5,7.339,15.906,7.156z M13.328,11.195
	l0.007-0.003l3.457-1.561l0.144,2.077c0.035,0.288-0.007,0.525-0.297,0.66l-2.304,1.04l-0.008,0.004l-2.308,1.041
	c-0.291,0.126-0.494,0-0.691-0.215l-1.464-1.481L13.328,11.195z M8.591,10.458c0.412-0.188,0.898,0.003,1.09,0.422
	c0.188,0.424,0.011,0.915-0.403,1.099c-0.403,0.185-0.888-0.006-1.082-0.429C8.009,11.129,8.188,10.639,8.591,10.458z"/>
</svg>
