<?xml version="1.0" encoding="utf-8"?>
<!-- Generator: Adobe Illustrator 16.0.3, SVG Export Plug-In . SVG Version: 6.00 Build 0)  -->
<!DOCTYPE svg PUBLIC "-//W3C//DTD SVG 1.1//EN" "http://www.w3.org/Graphics/SVG/1.1/DTD/svg11.dtd">
<svg version="1.1" id="Act_of_Nature" xmlns="http://www.w3.org/2000/svg" xmlns:xlink="http://www.w3.org/1999/xlink" x="0px"
	 y="0px" width="24px" height="24px" viewBox="0 0 24 24" enable-background="new 0 0 24 24" xml:space="preserve">
<circle fill="#424243" cx="12" cy="12" r="12"/>
<path fill="#FFFFFF" d="M11.9995117,23.0009766c-6.065918,0-10.9985352-4.9365234-10.9985352-11.0014648
	c0-6.0664063,4.9326172-10.9985352,10.9985352-10.9985352s11.0014648,4.9321289,11.0014648,10.9985352
	C23.0009766,18.0644531,18.0654297,23.0009766,11.9995117,23.0009766z"/>
<polygon fill="#424243" points="14.1884766,13 10.2109375,13 9,17 11,17 11,21 15,15 12.5708008,15 "/>
<path fill="#424243" d="M18.9277344,7.9067383c-0.0273438-0.0957031-0.0566406-0.1875-0.0976563-0.2807617V7.6157227h-0.0009766
	c-0.4755859-1.2241211-1.6816406-2.0942383-3.1044922-2.0942383c-0.3984375,0-0.7802734,0.074707-1.1347656,0.1987305
	c-0.5761719-1.5854492-2.1254883-2.7192383-3.949707-2.7192383c-2.0805664,0-3.8051758,1.4790039-4.1333008,3.4165039l0,0v0.0048828
	c-0.0356445,0.2148438-0.0551758,0.4375-0.0551758,0.6616211h0.0551758v0.0019531
	c-0.0180664,0-0.0361328-0.0019531-0.0551758-0.0019531c-1.3930664,0-2.5229492,1.0996094-2.5229492,2.4580078
	C3.9287109,10.8984375,5.0585938,12,6.4516602,12h2.6464844h1.5053711h3.5273438h1.5117188h3.1875l0,0
	c1.1601563-0.0048828,2.0986328-0.9204102,2.0986328-2.0483398C20.9287109,8.8520508,20.0410156,7.9570313,18.9277344,7.9067383z"/>
</svg>
