<?xml version="1.0" encoding="utf-8"?>
<!-- Generator: Adobe Illustrator 16.0.3, SVG Export Plug-In . SVG Version: 6.00 Build 0)  -->
<!DOCTYPE svg PUBLIC "-//W3C//DTD SVG 1.1//EN" "http://www.w3.org/Graphics/SVG/1.1/DTD/svg11.dtd">
<svg version="1.1" id="Adult_Care" xmlns="http://www.w3.org/2000/svg" xmlns:xlink="http://www.w3.org/1999/xlink" x="0px" y="0px"
	 width="40px" height="40px" viewBox="0 0 40 40" enable-background="new 0 0 40 40" xml:space="preserve">
<path opacity="0.75" fill="#FFFFFF" enable-background="new    " d="M33.971,15.709c0-1.004-0.094-1.98-0.272-2.926
	c-0.181-0.948-0.456-1.868-0.824-2.759c-0.365-0.892-0.797-1.726-1.296-2.502s-1.063-1.497-1.694-2.158
	c-0.636-0.661-1.323-1.254-2.063-1.775c-0.743-0.523-1.54-0.978-2.388-1.362c-0.854-0.383-1.733-0.669-2.638-0.861
	C21.889,1.175,20.959,1.081,20,1.081c-0.958,0-1.888,0.094-2.792,0.286c-0.906,0.192-1.784,0.478-2.636,0.861
	c-0.852,0.384-1.649,0.839-2.391,1.362c-0.742,0.521-1.429,1.114-2.061,1.775S8.923,6.745,8.423,7.522
	c-0.498,0.777-0.929,1.61-1.297,2.502c-0.366,0.891-0.64,1.811-0.823,2.759c-0.184,0.946-0.275,1.922-0.275,2.926
	c0,1.001,0.091,1.978,0.275,2.926s0.457,1.867,0.823,2.76c0.316,0.768,0.682,1.495,1.095,2.179c0.416,0.684,0.879,1.323,1.392,1.92
	H9.609H9.606l5.194,7.253L19.995,40l5.185-7.236l5.177-7.232c0.521-0.602,0.991-1.248,1.41-1.936c0.42-0.691,0.79-1.426,1.107-2.2
	c0.368-0.894,0.644-1.812,0.824-2.76C33.877,17.687,33.971,16.711,33.971,15.709z"/>
<path fill="#1873CD" d="M31.762,13.27c-0.156-0.829-0.395-1.637-0.713-2.414c-0.316-0.782-0.695-1.526-1.131-2.213
	c-0.43-0.678-0.92-1.312-1.455-1.879c-0.551-0.582-1.15-1.103-1.779-1.551c-0.639-0.456-1.334-0.857-2.059-1.19
	c-0.721-0.328-1.475-0.576-2.238-0.74c-0.766-0.164-1.568-0.247-2.386-0.247c-0.819,0-1.621,0.083-2.386,0.247
	c-0.764,0.164-1.515,0.412-2.231,0.738c-0.732,0.334-1.428,0.735-2.068,1.193c-0.63,0.448-1.225,0.967-1.77,1.546
	c-0.542,0.573-1.034,1.206-1.463,1.884C9.654,9.321,9.272,10.067,8.95,10.86c-0.314,0.773-0.554,1.584-0.711,2.413
	C8.081,14.104,8,14.974,8,15.859c0,0.884,0.081,1.754,0.239,2.587c0.157,0.824,0.396,1.637,0.711,2.414
	c0.277,0.682,0.6,1.332,0.957,1.93c0.358,0.598,0.763,1.162,1.202,1.68l2.368,3.348l6.518,9.219l8.812-12.463l0.061-0.07
	c0.443-0.52,0.854-1.09,1.213-1.689c0.371-0.619,0.695-1.273,0.973-1.957c0.314-0.773,0.553-1.582,0.709-2.405
	C31.92,17.608,32,16.737,32,15.859C32,14.98,31.92,14.108,31.762,13.27z"/>
<path fill="#1F8FFF" d="M30.779,13.372c-0.145-0.755-0.363-1.495-0.656-2.203c-0.293-0.72-0.645-1.403-1.047-2.034
	c-0.395-0.618-0.844-1.194-1.334-1.709c-0.506-0.529-1.057-1.005-1.635-1.413c-0.588-0.416-1.225-0.782-1.893-1.085
	c-0.654-0.296-1.34-0.52-2.035-0.667C21.48,4.112,20.748,4.036,20,4.036c-0.749,0-1.481,0.076-2.179,0.224
	c-0.694,0.148-1.377,0.371-2.027,0.665c-0.674,0.305-1.313,0.672-1.904,1.09c-0.576,0.407-1.122,0.88-1.622,1.407
	c-0.498,0.521-0.949,1.099-1.344,1.717c-0.396,0.622-0.749,1.306-1.049,2.038c-0.288,0.703-0.509,1.443-0.654,2.202
	C9.074,14.141,9,14.939,9,15.753c0,0.813,0.074,1.612,0.221,2.377c0.145,0.75,0.365,1.492,0.654,2.201
	c0.259,0.633,0.558,1.23,0.887,1.775s0.702,1.061,1.106,1.536l3.556,4.979l4.57,6.415l7.999-11.223l0.117-0.144
	c0.408-0.473,0.783-0.99,1.115-1.539c0.342-0.565,0.645-1.172,0.902-1.805c0.291-0.705,0.51-1.442,0.652-2.19
	C30.926,17.363,31,16.561,31,15.753C31,14.943,30.926,14.142,30.779,13.372z"/>
<path fill="#FFFFFF" d="M16.94,8.198c0.314,0,0.602,0.219,0.861,0.656c0.068,0.123,0.161,0.318,0.277,0.584s0.229,0.537,0.338,0.81
	c0.137,0.328,0.273,0.677,0.41,1.046l1.333,0.595l0.492,0.164c0.109,0.014,0.212,0.041,0.308,0.082
	c0.082,0.027,0.165,0.072,0.247,0.133s0.143,0.133,0.184,0.215c0.027,0.055,0.041,0.137,0.041,0.246
	c0,0.123-0.041,0.229-0.123,0.318s-0.204,0.133-0.368,0.133c-0.11,0-0.195-0.014-0.258-0.041c-0.061-0.027-0.112-0.062-0.153-0.103
	c-0.055-0.041-0.089-0.089-0.103-0.144l-0.431-0.308l-0.492-0.103l-1.23-0.41l-0.677-1.087c-0.068,0.137-0.13,0.273-0.185,0.41
	c-0.055,0.109-0.109,0.219-0.164,0.328s-0.103,0.191-0.144,0.246c-0.082,0.096-0.198,0.229-0.349,0.4s-0.226,0.4-0.226,0.687
	c0,0.191,0.007,0.345,0.021,0.461s0.034,0.208,0.062,0.277c0.027,0.082,0.055,0.15,0.082,0.205l1.805,2.83v2.707l0.103,0.574
	l0.697,0.246c0.027,0,0.062,0.007,0.103,0.021c0.027,0.014,0.064,0.024,0.113,0.03c0.047,0.008,0.092,0.018,0.133,0.031
	c0.15,0.055,0.232,0.116,0.246,0.185v0.021c0,0.041-0.055,0.082-0.164,0.123c-0.068,0.014-0.185,0.034-0.349,0.062
	c-0.109,0.014-0.226,0.021-0.349,0.021c-0.109,0-0.219,0-0.328,0c-0.191,0-0.358-0.004-0.502-0.01
	c-0.144-0.008-0.25-0.018-0.318-0.031c-0.123-0.014-0.185-0.062-0.185-0.144c0-0.041,0.007-0.068,0.021-0.082
	c0-0.014,0.007-0.027,0.021-0.041l-0.226-1.866l-0.369-1.477l-1.415-1.518l-1.189,2.235l-1.395,2.317l0.492,0.123
	c0.096,0.027,0.178,0.062,0.246,0.103c0.068,0.027,0.13,0.065,0.185,0.112c0.055,0.049,0.082,0.093,0.082,0.134
	c0,0.082-0.034,0.137-0.103,0.164c-0.041,0.014-0.075,0.021-0.103,0.021c-0.082,0.014-0.185,0.021-0.308,0.021
	c-0.109,0.014-0.232,0.021-0.369,0.021s-0.287,0-0.451,0c-0.178,0-0.314-0.021-0.41-0.062s-0.171-0.089-0.226-0.144
	s-0.096-0.123-0.123-0.205l2.112-5.763c0.014-0.232,0.034-0.472,0.062-0.718c0.027-0.219,0.059-0.472,0.093-0.759
	s0.085-0.588,0.153-0.902c0.109-0.629,0.264-1.224,0.462-1.784s0.434-1.025,0.707-1.395c0.15-0.191,0.294-0.352,0.431-0.482
	s0.26-0.236,0.369-0.318L16.94,8.198z"/>
<path fill="#FFFFFF" d="M18.109,8.28c-0.314,0-0.577-0.106-0.789-0.318s-0.318-0.468-0.318-0.769c0-0.314,0.106-0.578,0.318-0.79
	s0.475-0.318,0.789-0.318c0.301,0,0.558,0.106,0.77,0.318s0.317,0.475,0.317,0.79c0,0.301-0.105,0.557-0.317,0.769
	S18.41,8.28,18.109,8.28z"/>
<path fill="#FFFFFF" d="M29,19.437v0.369h-1.662c-0.314,0.369-0.689,0.667-1.127,0.892c-0.438,0.227-0.916,0.339-1.436,0.339
	c-0.451,0-0.879-0.085-1.281-0.257c-0.404-0.17-0.756-0.406-1.057-0.707S21.9,19.42,21.73,19.016
	c-0.172-0.402-0.258-0.83-0.258-1.281c0-0.561,0.127-1.07,0.381-1.528c0.252-0.458,0.584-0.837,0.994-1.138v-2.44h-1.047v-0.39h1.23
	l0.123,0.041l0.063,0.144v2.399l0.205-0.082v-1.805c0-0.055,0.006-0.109,0.02-0.164c0.027-0.123,0.082-0.246,0.164-0.369
	c0.068-0.109,0.172-0.191,0.309-0.246c0.055-0.027,0.115-0.048,0.184-0.062h1.006c0.082,0,0.156,0.007,0.225,0.021
	c0.109,0.014,0.227,0.082,0.35,0.205c0.096,0.109,0.164,0.219,0.205,0.328c0.027,0.055,0.041,0.109,0.041,0.164v1.477h1.271
	c0.082,0.014,0.15,0.048,0.205,0.103c0.055,0.041,0.105,0.092,0.154,0.154c0.047,0.062,0.07,0.14,0.07,0.236
	s-0.02,0.174-0.061,0.236s-0.09,0.113-0.145,0.154c-0.055,0.055-0.123,0.089-0.205,0.103h-0.246l0.186,0.185h0.656
	c0.082,0.014,0.156,0.034,0.225,0.062c0.137,0.041,0.246,0.123,0.328,0.246c0.055,0.137,0.096,0.287,0.123,0.451
	c0.014,0.082,0.021,0.171,0.021,0.267v2.481c0,0.027-0.008,0.055-0.021,0.082s-0.023,0.055-0.029,0.082
	c-0.008,0.027-0.025,0.055-0.053,0.082s-0.051,0.051-0.07,0.072c-0.021,0.02-0.045,0.044-0.072,0.071l-0.082,0.082H29z"/>
<path fill="#1F8FFF" d="M24.83,20.088c0.336,0,0.654-0.063,0.947-0.19c0.295-0.126,0.549-0.304,0.77-0.532
	c0.217-0.228,0.391-0.49,0.516-0.788c0.125-0.297,0.188-0.617,0.188-0.959c0-0.343-0.063-0.662-0.188-0.96
	c-0.125-0.297-0.299-0.557-0.516-0.779c-0.221-0.222-0.475-0.396-0.77-0.522c-0.293-0.126-0.611-0.19-0.947-0.19
	c-0.338,0-0.654,0.063-0.947,0.19c-0.295,0.127-0.555,0.301-0.779,0.522s-0.4,0.481-0.525,0.779
	c-0.125,0.298-0.188,0.617-0.188,0.96c0,0.342,0.063,0.662,0.188,0.959c0.125,0.298,0.301,0.561,0.525,0.788
	c0.225,0.229,0.484,0.406,0.779,0.532C24.176,20.024,24.492,20.088,24.83,20.088z"/>
<path fill="#FFFFFF" d="M24.672,11.869c-0.314,0-0.576-0.106-0.789-0.318c-0.211-0.212-0.318-0.475-0.318-0.79
	c0-0.301,0.107-0.557,0.318-0.769c0.213-0.212,0.475-0.318,0.789-0.318s0.578,0.106,0.791,0.318
	c0.211,0.212,0.316,0.468,0.316,0.769c0,0.314-0.105,0.578-0.316,0.79C25.25,11.763,24.986,11.869,24.672,11.869z"/>
</svg>
