<?xml version="1.0" encoding="utf-8"?>
<!-- Generator: Adobe Illustrator 16.0.3, SVG Export Plug-In . SVG Version: 6.00 Build 0)  -->
<!DOCTYPE svg PUBLIC "-//W3C//DTD SVG 1.1//EN" "http://www.w3.org/Graphics/SVG/1.1/DTD/svg11.dtd">
<svg version="1.1" id="Agriculture_Animal_Health_Incident"
	 xmlns="http://www.w3.org/2000/svg" xmlns:xlink="http://www.w3.org/1999/xlink" x="0px" y="0px" width="44px" height="44px"
	 viewBox="0 0 44 44" enable-background="new 0 0 44 44" xml:space="preserve">
<path opacity="0.75" fill="#FFFFFF" enable-background="new    " d="M39,16.5380859
	c0-1.1347656-0.1074219-2.2373047-0.3134766-3.3081055c-0.2050781-1.0712891-0.5205078-2.1118164-0.9443359-3.1181641
	c-0.4179688-1.0087891-0.9150391-1.9501953-1.484375-2.8286133c-0.5703125-0.878418-1.2158203-1.6914063-1.9394531-2.4384766
	c-0.7265625-0.7495117-1.5166016-1.418457-2.3642578-2.0083008c-0.8496094-0.5913086-1.7626953-1.105957-2.734375-1.5390625
	c-0.9765625-0.4335938-1.9863281-0.7578125-3.0185547-0.9731445C25.1630859,0.1074219,24.0996094,0,23,0
	c-1.0966797,0-2.1635742,0.1074219-3.1977539,0.3242188c-1.0375977,0.215332-2.0419922,0.5395508-3.0185547,0.9731445
	c-0.9760742,0.4331055-1.8881836,0.9477539-2.737793,1.5390625c-0.8500977,0.5898438-1.6367188,1.2587891-2.359375,2.0083008
	c-0.7260742,0.7470703-1.3735352,1.5600586-1.9433594,2.4384766c-0.5722656,0.878418-1.0654297,1.8198242-1.4848633,2.8286133
	c-0.4204102,1.0063477-0.734375,2.046875-0.9443359,3.1181641C7.1044922,14.3007813,7,15.4033203,7,16.5380859
	c0,1.1337891,0.1044922,2.2353516,0.3139648,3.3095703c0.2099609,1.0703125,0.5239258,2.1083984,0.9443359,3.1191406
	c0.3608398,0.8671875,0.7783203,1.6894531,1.2529297,2.4619141c0.4755859,0.7724609,1.0073242,1.4960938,1.5942383,2.1728516
	h-0.0048828h-0.003418l5.9482422,8.1982422L22.9921875,44l5.9375-8.1845703l5.9277344-8.171875
	c0.6005859-0.6806641,1.1376953-1.4111328,1.6171875-2.1894531c0.4775391-0.7802734,0.9042969-1.6123047,1.2675781-2.4873047
	c0.4238281-1.0107422,0.7392578-2.0488281,0.9443359-3.1191406C38.8925781,18.7734375,39,17.671875,39,16.5380859z"/>
<path fill="#1873CD" d="M36.7236328,13.4379883c-0.1845703-0.9262695-0.4628906-1.8305664-0.8320313-2.6987305
	c-0.3671875-0.8745117-0.8134766-1.7060547-1.3193359-2.4731445C34.0712891,7.5092773,33.5,6.7998047,32.8740234,6.1665039
	c-0.6416016-0.6494141-1.3398438-1.2319336-2.0751953-1.7338867c-0.7431641-0.5087891-1.5585938-0.9575195-2.4033203-1.3286133
	c-0.8378906-0.3671875-1.7197266-0.6455078-2.6113281-0.8271484C24.8925781,2.0927734,23.9550781,2,23.0009766,2
	c-0.9555664,0-1.8916016,0.0927734-2.7836914,0.2768555c-0.8901367,0.1816406-1.7680664,0.4594727-2.6040039,0.824707
	c-0.8540039,0.3735352-1.6650391,0.8212891-2.4121094,1.3330078c-0.7353516,0.5014648-1.4287109,1.0825195-2.0649414,1.7275391
	c-0.6328125,0.640625-1.2055664,1.3486328-1.7075195,2.1069336c-0.4980469,0.7578125-0.9448242,1.5898438-1.3203125,2.4755859
	c-0.3666992,0.8642578-0.6474609,1.7709961-0.8300781,2.6982422C9.0917969,14.3710938,9,15.34375,9,16.331543
	c0,0.9897461,0.0917969,1.9594727,0.2788086,2.8920898c0.1821289,0.9208984,0.4628906,1.8300781,0.8295898,2.6982422
	c0.3227539,0.7617188,0.7001953,1.4873047,1.1162109,2.1542969c0.4179688,0.6699219,0.8896484,1.3017578,1.4013672,1.8779297
	l2.7636719,3.7412109L22.9931641,40l10.2802734-13.9277344l0.0722656-0.0800781
	c0.515625-0.5800781,0.9941406-1.2177734,1.4140625-1.8886719c0.4326172-0.6904297,0.8134766-1.421875,1.1357422-2.1875
	c0.3652344-0.8623047,0.6455078-1.7675781,0.828125-2.6894531C36.9072266,18.2880859,37,17.3134766,37,16.331543
	S36.9072266,14.375,36.7236328,13.4379883z"/>
<path fill="#1F8FFF" d="M35.7382813,13.5405273c-0.1708984-0.8540039-0.4296875-1.6875-0.7783203-2.4882813
	c-0.3447266-0.8120117-0.7617188-1.5839844-1.2353516-2.2944336c-0.4667969-0.6982422-0.9951172-1.3481445-1.5751953-1.9306641
	c-0.5996094-0.5976563-1.2490234-1.1347656-1.9316406-1.5952148c-0.6953125-0.4697266-1.4453125-0.8833008-2.2353516-1.2250977
	c-0.7753906-0.3344727-1.5859375-0.5878906-2.40625-0.7543945C24.7509766,3.0854492,23.8847656,3,22.9990234,3
	c-0.8837891,0-1.7509766,0.0854492-2.5737305,0.2524414c-0.8217773,0.1665039-1.628418,0.4189453-2.3974609,0.7514648
	c-0.7939453,0.3447266-1.5517578,0.7583008-2.25,1.2304688c-0.6806641,0.4584961-1.3256836,0.9931641-1.9169922,1.5874023
	c-0.5878906,0.5898438-1.1206055,1.2412109-1.5874023,1.9379883c-0.46875,0.7026367-0.8852539,1.4741211-1.2387695,2.3022461
	c-0.3398438,0.7910156-0.6005859,1.6293945-0.7739258,2.484375C10.0883789,14.4082031,10,15.309082,10,16.2275391
	c0,0.9165039,0.0883789,1.8208008,0.2612305,2.6835938c0.1704102,0.8466797,0.4321289,1.6826172,0.7734375,2.484375
	c0.3051758,0.7177734,0.6582031,1.390625,1.0473633,2.0058594c0.3886719,0.6152344,0.8291016,1.1982422,1.3085938,1.734375
	l4.2006836,5.6201172L22.9912109,38l9.453125-12.6728516l0.1376953-0.1621094
	c0.484375-0.53125,0.9257813-1.1162109,1.3164063-1.7363281c0.4072266-0.6386719,0.7626953-1.3232422,1.0664063-2.0361328
	c0.3457031-0.7998047,0.6035156-1.6318359,0.7734375-2.4755859C35.9101563,18.0444336,36,17.1420898,36,16.2275391
	S35.9101563,14.4091797,35.7382813,13.5405273z"/>
<polygon fill="#FFFFFF" points="35,16.9985352 23.0097656,29 11,16.9985352 23.0097656,5 "/>
<path fill="#1F8FFF" d="M31.0078125,16.1411133c0,0.0273438,0.0068359,0.0688477,0.0234375,0.1235352
	c0.0244141,0.1108398,0.0390625,0.2060547,0.0390625,0.2890625c0,0.1508789-0.0351563,0.2612305-0.1005859,0.3295898
	c-0.0966797,0.0825195-0.1923828,0.1333008-0.2861328,0.1557617c-0.0976563,0.0200195-0.1796875,0.0302734-0.2490234,0.0302734
	h-0.1230469c-0.0664063,0-0.1054688,0.0239258-0.1123047,0.0717773c-0.0058594,0.0473633-0.0927734,0.0922852-0.2548828,0.1337891
	c-0.1103516,0.027832-0.2617188,0.050293-0.4628906,0.0620117c-0.1962891,0.0146484-0.3779297,0.0209961-0.5410156,0.0209961
	c-0.0810547,0-0.1523438-0.0029297-0.2148438-0.0097656c-0.0634766-0.0073242-0.1054688-0.0112305-0.1328125-0.0112305h-0.0205078
	c-0.0947266,0-0.2089844,0.0776367-0.3388672,0.2285156c-0.1279297,0.1513672-0.2568359,0.3017578-0.3798828,0.4521484
	c-0.0537109,0.0839844-0.1376953,0.2109375-0.2548828,0.3808594c-0.1142578,0.1738281-0.2363281,0.3505859-0.3662109,0.5283203
	c-0.1298828,0.1787109-0.2626953,0.3408203-0.4003906,0.4824219c-0.1367188,0.1464844-0.2597656,0.2314453-0.3701172,0.2578125
	c-0.1777344,0.0576172-0.2919922,0.0839844-0.3496094,0.0839844v0.0214844
	c-0.0507813,0.015625-0.0878906,0.0527344-0.0986328,0.1132813C26,19.9492188,25.9902344,20.0195313,25.9902344,20.1025391
	c0,0.0703125,0,0.1376953,0,0.2050781c0,0.0556641,0.0097656,0.1113281,0.0234375,0.1679688
	c0.0107422,0.0527344,0.0273438,0.1074219,0.0390625,0.1630859c0.0146484,0.0830078,0.0332031,0.1640625,0.0595703,0.2490234
	c0.03125,0.0673828,0.0498047,0.1386719,0.0634766,0.2138672c0.015625,0.0771484,0.0205078,0.1445313,0.0205078,0.1962891v0.0830078
	c0,0.0957031,0.0292969,0.2138672,0.0830078,0.3505859c0.0253906,0.0722656,0.0537109,0.1376953,0.0830078,0.2070313
	c-0.0166016,0.0136719-0.0410156,0.0214844-0.0830078,0.0214844c-0.0400391,0.0136719-0.1240234,0.0214844-0.2470703,0.0214844
	c-0.1777344,0-0.3476563-0.0292969-0.5117188-0.0849609c-0.0664063-0.0273438-0.1015625-0.0927734-0.1015625-0.2070313
	c0-0.0810547,0.0058594-0.1425781,0.0195313-0.1816406c0-0.03125,0.0078125-0.0585938,0.0224609-0.0849609
	c0.0126953-0.0273438,0.0185547-0.0888672,0.0185547-0.1865234c0-0.1787109-0.0439453-0.4033203-0.1328125-0.6699219
	s-0.1689453-0.5537109-0.234375-0.8574219c-0.0546875-0.2197266-0.1025391-0.3632813-0.1445313-0.4335938
	c-0.0410156-0.0683594-0.0800781-0.1152344-0.1201172-0.140625c0,0.0410156,0.0029297,0.0830078,0.0087891,0.1328125
	c0.0039063,0.0488281,0.0078125,0.1044922,0.0078125,0.1738281l-0.0166016,0.3916016
	c-0.0166016,0.1542969-0.0351563,0.2978516-0.0625,0.4326172c-0.0263672,0.1386719-0.0429688,0.2363281-0.0429688,0.2919922
	c0,0.1083984,0,0.2607422,0,0.4521484c0,0.1787109-0.0078125,0.2949219-0.0166016,0.3505859
	c-0.0166016,0.0429688-0.0253906,0.1044922-0.0253906,0.1865234c0,0.09375,0.0087891,0.1591797,0.0253906,0.1845703
	c0.0244141,0.0820313,0.0380859,0.1308594,0.0380859,0.1455078c0,0.0253906-0.046875,0.0419922-0.1425781,0.0419922h-0.1035156
	c-0.1748047,0-0.3222656-0.0224609-0.4394531-0.0634766c-0.1162109-0.0419922-0.1748047-0.0888672-0.1748047-0.1435547v-0.0224609
	l-0.0195313-0.0410156v-0.0400391c0.0273438-0.0419922,0.0546875-0.0976563,0.0810547-0.1640625
	c0.0283203-0.0683594,0.046875-0.1396484,0.0625-0.2080078c0.0136719-0.0683594,0.0214844-0.1728516,0.0283203-0.3076172
	c0.0087891-0.1386719,0.0126953-0.2353516,0.0126953-0.2900391c0-0.0283203,0.0166016-0.1191406,0.0498047-0.2783203
	c0.0371094-0.1582031,0.0664063-0.3339844,0.0917969-0.5273438v-0.1835938c0-0.1123047-0.0029297-0.2128906-0.0107422-0.3105469
	c-0.0039063-0.0986328-0.0087891-0.1572266-0.0087891-0.1865234c0-0.0527344,0.0126953-0.1083984,0.0419922-0.1650391
	c-0.1640625,0.0292969-0.3349609,0.0996094-0.5117188,0.2167969c-0.1787109,0.1162109-0.3017578,0.1914063-0.3691406,0.2167969
	c-0.0410156,0.015625-0.0800781,0.0244141-0.1132813,0.0302734c-0.0332031,0.0078125-0.0722656,0.0117188-0.1132813,0.0117188
	c-0.109375,0-0.2304688-0.015625-0.3681641-0.0419922c-0.1357422-0.0253906-0.2998047-0.0410156-0.4907227-0.0410156h-0.1025391
	c-0.0688477,0.015625-0.1499023,0.0214844-0.246582,0.0214844c-0.0952148,0-0.1972656,0-0.3066406,0
	c-0.2319336,0-0.4746094-0.0146484-0.7265625-0.0410156c-0.2524414-0.0283203-0.4667969-0.0791016-0.6445313-0.1455078
	c-0.1235352-0.0390625-0.2431641-0.0927734-0.359375-0.1552734c-0.1152344-0.0615234-0.2207031-0.1191406-0.3173828-0.1738281
	c-0.1088867-0.0556641-0.2041016-0.1191406-0.2861328-0.1865234c-0.0141602,0.1650391-0.0341797,0.3222656-0.0620117,0.4765625
	c-0.0263672,0.1220703-0.0493164,0.2451172-0.0703125,0.3701172c-0.0209961,0.1210938-0.0522461,0.2001953-0.0917969,0.2265625
	c-0.0151367,0.015625-0.0214844,0.0244141-0.0214844,0.0419922c-0.0146484,0.0126953-0.0200195,0.0546875-0.0200195,0.1220703
	c0,0.0273438,0.0126953,0.0957031,0.0415039,0.2070313c0.0263672,0.0703125,0.0429688,0.1367188,0.0498047,0.2050781
	c0.0068359,0.0703125,0.0102539,0.1298828,0.0102539,0.1875v0.1230469c0.0693359,0.1113281,0.1298828,0.2119141,0.184082,0.3095703
	c0.0556641,0.0830078,0.109375,0.1757813,0.1645508,0.2802734c0.0537109,0.1005859,0.1088867,0.1875,0.1625977,0.2587891
	c0.0410156,0.0527344,0.0727539,0.1005859,0.0927734,0.140625c0.0205078,0.0410156,0.0375977,0.0703125,0.0522461,0.0830078
	c0.0541992,0.0820313,0.0810547,0.1376953,0.0810547,0.1650391c0,0.0556641-0.0688477,0.0849609-0.2050781,0.0849609h-0.1225586
	c-0.1225586-0.0146484-0.2314453-0.0253906-0.3271484-0.0332031c-0.0947266-0.0078125-0.1787109-0.0097656-0.2451172-0.0097656
	h-0.2255859c0-0.0419922,0.0068359-0.0888672,0.0205078-0.1425781c0-0.0410156,0.0024414-0.0888672,0.0102539-0.1367188
	c0.0058594-0.0498047,0.0087891-0.0927734,0.0087891-0.1337891v-0.2060547
	c-0.0131836-0.0146484-0.0527344-0.1005859-0.1225586-0.2587891c-0.0683594-0.1572266-0.1162109-0.2783203-0.1435547-0.3603516
	c-0.0253906-0.0410156-0.0615234-0.0898438-0.1020508-0.1425781c-0.0405273-0.0556641-0.081543-0.1191406-0.1220703-0.1855469
	c-0.0561523-0.0683594-0.1088867-0.1474609-0.1645508-0.2285156l-0.1435547-0.3105469
	c-0.012207,0.0273438-0.0268555,0.0439453-0.0400391,0.0527344c-0.0136719,0.0068359-0.0283203,0.0175781-0.0410156,0.0322266
	c-0.109375,0.0947266-0.2021484,0.2470703-0.2768555,0.4541016c-0.0751953,0.2041016-0.1323242,0.3847656-0.1738281,0.5351563
	c-0.0141602,0.0273438-0.0200195,0.0693359-0.0200195,0.1240234c0,0.0419922,0,0.0830078,0,0.125
	c0,0.0664063,0.003418,0.1376953,0.0097656,0.2158203c0.0068359,0.0751953,0.0170898,0.1533203,0.03125,0.2363281
	c0.0131836,0.0703125,0.0341797,0.1464844,0.0605469,0.2275391C17.5429688,21.9189453,17.5698242,21.9736328,17.5976563,22
	l-0.9824219-0.0400391l0.203125-1.5683594c0.0151367-0.0537109,0.0249023-0.1552734,0.0322266-0.3007813
	c0.0053711-0.1416016,0.0161133-0.2998047,0.0292969-0.4628906c0.015625-0.1650391,0.034668-0.3154297,0.0625-0.4521484
	c0.0268555-0.1396484,0.0620117-0.2226563,0.1020508-0.2490234c0.0273438-0.0283203,0.0415039-0.0625,0.0415039-0.1044922
	c0-0.0556641-0.0141602-0.1318359-0.0415039-0.2285156c-0.0263672-0.0927734-0.0585938-0.1865234-0.0922852-0.2753906
	c-0.0332031-0.0898438-0.0683594-0.1650391-0.1015625-0.2275391c-0.0351563-0.0625-0.0585938-0.1005859-0.0722656-0.1152344
	c-0.027832-0.0263672-0.0776367-0.1972656-0.1538086-0.5166016c-0.0737305-0.3134766-0.112793-0.6508789-0.112793-1.0097656
	c0-0.2602539,0.027832-0.4731445,0.0825195-0.6391602c-0.0268555,0.0688477-0.0546875,0.1386719-0.0825195,0.2080078
	c-0.0405273,0.1503906-0.0610352,0.3574219-0.0610352,0.6176758v1.1152344c0,0.1503906-0.0043945,0.2880859-0.0092773,0.4130859
	c-0.0078125,0.1220703-0.0244141,0.2060547-0.0522461,0.2470703v0.6796875l-0.081543-0.1220703l-0.0610352,0.2460938
	l-0.0410156-0.1445313l-0.0200195,0.2275391l-0.0634766-0.1875l-0.0195313,0.2695313l-0.0415039-0.3095703L16,19.2148438v-0.9072266
	c0.0131836-0.0986328,0.03125-0.2900391,0.0517578-0.578125c0.0209961-0.2895508,0.0449219-0.5913086,0.0703125-0.9082031
	c0.0288086-0.3574219,0.0556641-0.7495117,0.0834961-1.1757813c0.0668945-0.1923828,0.1357422-0.3647461,0.2045898-0.5161133
	c0.0673828-0.1376953,0.1464844-0.2607422,0.2353516-0.371582c0.0888672-0.1103516,0.1943359-0.1635742,0.3173828-0.1635742
	h0.0415039c0.0532227,0.0126953,0.1630859,0.019043,0.3266602,0.019043l1.5556641-0.0615234
	c0.21875,0,0.3427734,0.0136719,0.3691406,0.0424805c0.0405273,0.0263672,0.1269531,0.0483398,0.2563477,0.0610352
	c0.1293945,0.0131836,0.2802734,0.027832,0.4506836,0.0400391c0.1699219,0.0136719,0.3500977,0.0219727,0.5419922,0.0219727
	c0.2045898,0,0.5527344,0,1.043457,0c0.1376953,0,0.328125-0.0039063,0.5742188-0.0097656
	c0.2451172-0.0087891,0.4985352-0.0209961,0.7583008-0.0415039c0.2597656-0.0214844,0.5078125-0.0454102,0.7441406-0.0717773
	c0.2402344-0.0288086,0.421875-0.0771484,0.5449219-0.1450195c0.2177734-0.097168,0.4355469-0.1762695,0.6533203-0.2373047
	c0.2197266-0.0615234,0.4042969-0.0922852,0.5537109-0.0922852c0.0839844,0,0.1367188,0.0063477,0.1660156,0.0200195
	c0.0263672,0.0131836,0.0917969,0.0209961,0.2041016,0.0209961c0.1767578,0,0.3808594-0.0209961,0.6152344-0.0629883
	c0.2304688-0.0405273,0.3808594-0.0888672,0.4482422-0.1430664h0.1044922c0.0654297,0,0.1552734,0.0068359,0.2646484,0.0200195
	c0.1074219,0.0126953,0.21875,0.0532227,0.3261719,0.1230469c0.1123047,0.0698242,0.2675781,0.1386719,0.4707031,0.2050781
	c0.2080078,0.0698242,0.3974609,0.1054688,0.5761719,0.1054688c0.1757813,0,0.2841797-0.0478516,0.3251953-0.1459961
	c0.0566406-0.109375,0.1357422-0.1645508,0.2490234-0.1645508c0.0664063,0,0.1210938,0.0073242,0.1621094,0.0219727
	c0.1220703-0.0981445,0.2998047-0.2109375,0.5322266-0.3413086c0.2304688-0.1298828,0.4716797-0.1962891,0.7167969-0.1962891
	c0.1220703,0,0.2666016,0.034668,0.4316406,0.1035156c-0.1513672,0.0683594-0.3027344,0.137207-0.453125,0.2070313
	c-0.1347656,0.0688477-0.2802734,0.144043-0.4306641,0.2270508c-0.1474609,0.0820313-0.2773438,0.1640625-0.3896484,0.2470703
	c0.0703125,0.0537109,0.1484375,0.1235352,0.2382813,0.206543c0.0888672,0.0820313,0.171875,0.1640625,0.2548828,0.2460938
	c0.0810547,0.0830078,0.1513672,0.1630859,0.203125,0.2373047c0.0556641,0.0756836,0.0830078,0.1420898,0.0830078,0.1962891
	v0.0405273c0,0.0698242,0.0283203,0.1552734,0.0830078,0.2587891c0.0537109,0.1025391,0.1152344,0.1962891,0.1835938,0.2783203
	C30.8125,15.940918,30.9013672,16.043457,31.0078125,16.1411133z"/>
</svg>
