<?xml version="1.0" encoding="utf-8"?>
<!-- Generator: Adobe Illustrator 16.0.3, SVG Export Plug-In . SVG Version: 6.00 Build 0)  -->
<!DOCTYPE svg PUBLIC "-//W3C//DTD SVG 1.1//EN" "http://www.w3.org/Graphics/SVG/1.1/DTD/svg11.dtd">
<svg version="1.1" id="Air_Incident_Incident" xmlns="http://www.w3.org/2000/svg" xmlns:xlink="http://www.w3.org/1999/xlink"
	 x="0px" y="0px" width="44px" height="44px" viewBox="0 0 44 44" enable-background="new 0 0 44 44" xml:space="preserve">
<path opacity="0.75" fill="#FFFFFF" d="M39,16.5380859c0-1.1342773-0.1054688-2.2382813-0.3105469-3.3085938
	c-0.2080078-1.0708008-0.5214844-2.1113281-0.9462891-3.1186523c-0.4169922-1.0087891-0.9140625-1.949707-1.484375-2.8276367
	c-0.5693359-0.878418-1.2158203-1.6914063-1.9394531-2.4384766c-0.7265625-0.75-1.5166016-1.4179688-2.3623047-2.0087891
	c-0.8525391-0.5908203-1.7646484-1.105957-2.7353516-1.5380859c-0.9775391-0.4335938-1.9863281-0.7578125-3.0214844-0.9736328
	C25.1630859,0.1074219,24.1015625,0,23.0019531,0c-1.0976563,0-2.1640625,0.1074219-3.199707,0.3242188
	c-1.0371094,0.2158203-2.0419922,0.5400391-3.0185547,0.9736328c-0.9755859,0.4321289-1.8881836,0.9472656-2.7368164,1.5380859
	c-0.8500977,0.5908203-1.637207,1.2587891-2.3598633,2.0087891c-0.7250977,0.7470703-1.3725586,1.5600586-1.9428711,2.4384766
	c-0.5727539,0.8779297-1.065918,1.8188477-1.4863281,2.8276367c-0.4189453,1.0073242-0.7333984,2.0478516-0.9433594,3.1186523
	C7.1044922,14.2998047,7,15.4038086,7,16.5380859c0,1.1347656,0.1044922,2.2353516,0.3144531,3.3085938
	c0.2099609,1.0703125,0.5244141,2.1103516,0.9433594,3.1201172c0.362793,0.8662109,0.7783203,1.6894531,1.253418,2.4619141
	c0.4760742,0.7724609,1.0078125,1.4951172,1.5952148,2.1738281h-0.0048828H11.097168l5.9482422,8.1982422L22.9941406,44
	l5.9355469-8.1845703l5.9306641-8.171875c0.5996094-0.6806641,1.1376953-1.4111328,1.6152344-2.1875
	c0.4785156-0.7822266,0.9052734-1.6132813,1.2675781-2.4892578c0.4248047-1.0097656,0.7382813-2.0498047,0.9462891-3.1201172
	C38.8945313,18.7734375,39,17.6728516,39,16.5380859z"/>
<path fill="#1873CD" d="M36.7246094,13.4384766c-0.1835938-0.9262695-0.4619141-1.8320313-0.8330078-2.6982422
	c-0.3691406-0.875-0.8125-1.706543-1.3183594-2.4746094c-0.5019531-0.7568359-1.0771484-1.4663086-1.6972656-2.0996094
	c-0.6435547-0.6494141-1.3427734-1.2314453-2.078125-1.7329102c-0.7441406-0.5092773-1.5556641-0.9580078-2.4003906-1.3291016
	c-0.8417969-0.3676758-1.7177734-0.6459961-2.6113281-0.8276367C24.8916016,2.0932617,23.9570313,2,23.0019531,2
	c-0.9560547,0-1.8920898,0.0932617-2.784668,0.2763672c-0.890625,0.1816406-1.7675781,0.4594727-2.6030273,0.8251953
	c-0.8544922,0.3735352-1.6655273,0.8212891-2.4130859,1.3334961c-0.7348633,0.5009766-1.4287109,1.0805664-2.0644531,1.7280273
	c-0.6337891,0.6391602-1.206543,1.3476563-1.706543,2.1054688c-0.5009766,0.7578125-0.9458008,1.5898438-1.3227539,2.4760742
	c-0.3652344,0.8642578-0.6455078,1.7705078-0.8291016,2.6972656C9.0932617,14.3701172,9,15.3427734,9,16.331543
	c0,0.9897461,0.0932617,1.9594727,0.2788086,2.8920898c0.1831055,0.9228516,0.4633789,1.8300781,0.8286133,2.6982422
	c0.3227539,0.7636719,0.7016602,1.4873047,1.1162109,2.1542969c0.4204102,0.671875,0.8911133,1.3017578,1.4033203,1.8779297
	l2.7626953,3.7392578L22.9941406,40l10.2822266-13.9277344l0.0712891-0.0820313
	c0.5146484-0.578125,0.9960938-1.2158203,1.4150391-1.8847656c0.4326172-0.6943359,0.8105469-1.4238281,1.1347656-2.1875
	c0.3652344-0.8642578,0.6455078-1.765625,0.8271484-2.6914063C36.90625,18.2880859,37,17.3134766,37,16.331543
	C37,15.3491211,36.90625,14.375,36.7246094,13.4384766z"/>
<path fill="#1F8FFF" d="M35.7373047,13.5405273c-0.1708984-0.8540039-0.4287109-1.6875-0.7763672-2.4873047
	c-0.3466797-0.8115234-0.7617188-1.5834961-1.2353516-2.2949219c-0.4658203-0.6982422-0.9980469-1.347168-1.578125-1.9316406
	c-0.5966797-0.5966797-1.2470703-1.1337891-1.9316406-1.59375c-0.6933594-0.4692383-1.4433594-0.8842773-2.2373047-1.2246094
	c-0.7695313-0.3359375-1.5810547-0.5883789-2.4033203-0.7548828C24.75,3.0859375,23.8837891,3,23,3
	c-0.8847656,0-1.7519531,0.0859375-2.5751953,0.253418c-0.8212891,0.1665039-1.6274414,0.4189453-2.3959961,0.7509766
	c-0.7944336,0.3442383-1.5537109,0.7592773-2.2509766,1.230957c-0.6801758,0.4584961-1.3256836,0.9926758-1.9160156,1.5874023
	c-0.5888672,0.5888672-1.1225586,1.2407227-1.5878906,1.9379883c-0.4692383,0.7026367-0.8852539,1.4750977-1.2392578,2.3022461
	c-0.3413086,0.7910156-0.6000977,1.6289063-0.7734375,2.4833984C10.0874023,14.409668,10,15.309082,10,16.2275391
	c0,0.9169922,0.0874023,1.8237305,0.2617188,2.6835938c0.1699219,0.8466797,0.4316406,1.6826172,0.7729492,2.484375
	c0.3056641,0.7177734,0.6582031,1.3916016,1.046875,2.0058594c0.390625,0.6152344,0.8300781,1.1982422,1.3081055,1.734375
	l4.2021484,5.6220703L22.9912109,38l9.453125-12.6728516l0.1396484-0.1601563
	c0.4814453-0.53125,0.9248047-1.1162109,1.3144531-1.7382813c0.40625-0.6386719,0.7607422-1.3222656,1.0673828-2.0371094
	c0.3447266-0.7978516,0.6035156-1.6308594,0.7714844-2.4726563C35.9111328,18.0473633,36,17.140625,36,16.2275391
	C36,15.3129883,35.9111328,14.409668,35.7373047,13.5405273z"/>
<polygon fill="#FFFFFF" points="35,16.9990234 23.0117188,29 11,16.9990234 23.0117188,5 "/>
<polygon fill="#1F8FFF" points="31.8730469,16.1435547 29.4833984,15.7890625 27.3056641,15.7890625 26.2617188,14.1669922 
	24.2626953,11.2021484 22.2866211,8.2958984 21.0625,8.2958984 23.6123047,14.6611328 23.6123047,15.7890625 18.7294922,15.9453125 
	16.6533203,13.5927734 16,13.5927734 16.9121094,15.90625 16.9121094,16.4003906 16.9121094,17.0717773 16.9121094,17.5283203 
	16.0410156,19.734375 16.6943359,19.734375 18.7294922,17.4892578 23.6123047,17.6455078 23.6123047,18.7734375 21.0625,25 
	22.2866211,25 24.2626953,22.2294922 26.2617188,19.2646484 27.3056641,17.6455078 29.4833984,17.6455078 31.8730469,17.2895508 
	32.4091797,16.7158203 "/>
</svg>
