<?xml version="1.0" encoding="utf-8"?>
<!-- Generator: Adobe Illustrator 16.0.3, SVG Export Plug-In . SVG Version: 6.00 Build 0)  -->
<!DOCTYPE svg PUBLIC "-//W3C//DTD SVG 1.1//EN" "http://www.w3.org/Graphics/SVG/1.1/DTD/svg11.dtd">
<svg version="1.1" id="Airplane_Crash" xmlns="http://www.w3.org/2000/svg" xmlns:xlink="http://www.w3.org/1999/xlink" x="0px"
	 y="0px" width="40px" height="40px" viewBox="0 0 40 40" enable-background="new 0 0 40 40" xml:space="preserve">
<path opacity="0.75" fill="#FFFFFF" d="M34,15.659c0-1.006-0.095-1.984-0.273-2.932c-0.181-0.95-0.457-1.872-0.826-2.764
	c-0.366-0.895-0.799-1.729-1.299-2.508c-0.5-0.778-1.064-1.499-1.697-2.162c-0.637-0.663-1.326-1.257-2.067-1.779
	c-0.745-0.525-1.544-0.981-2.394-1.365c-0.854-0.384-1.736-0.67-2.643-0.862C21.893,1.095,20.96,1,20,1
	c-0.959,0-1.892,0.095-2.798,0.287c-0.908,0.192-1.787,0.479-2.641,0.862c-0.854,0.384-1.652,0.84-2.396,1.365
	C11.422,4.036,10.734,4.63,10.1,5.293C9.467,5.956,8.9,6.677,8.399,7.455C7.9,8.233,7.468,9.068,7.1,9.963
	c-0.367,0.892-0.641,1.814-0.825,2.764C6.091,13.675,6,14.653,6,15.659c0,1.004,0.091,1.981,0.275,2.932s0.458,1.871,0.825,2.767
	c0.316,0.769,0.683,1.498,1.097,2.183c0.417,0.686,0.881,1.326,1.395,1.924H9.588H9.585l5.205,7.269L19.995,40l5.196-7.251
	l5.188-7.247c0.522-0.604,0.993-1.251,1.413-1.94c0.421-0.692,0.792-1.429,1.109-2.204c0.369-0.896,0.646-1.816,0.826-2.767
	C33.905,17.641,34,16.663,34,15.659z"/>
<path fill="#262424" d="M31.762,13.226c-0.156-0.829-0.395-1.638-0.713-2.414c-0.316-0.782-0.695-1.526-1.131-2.213
	c-0.43-0.678-0.92-1.313-1.455-1.879c-0.551-0.582-1.15-1.103-1.779-1.551c-0.639-0.456-1.334-0.857-2.059-1.19
	c-0.721-0.327-1.475-0.576-2.238-0.739c-0.766-0.164-1.568-0.247-2.386-0.247c-0.819,0-1.621,0.083-2.386,0.247
	c-0.764,0.163-1.515,0.411-2.231,0.738c-0.732,0.334-1.428,0.735-2.068,1.192c-0.63,0.448-1.225,0.968-1.77,1.546
	c-0.542,0.573-1.034,1.206-1.463,1.885c-0.429,0.677-0.811,1.422-1.133,2.216c-0.314,0.772-0.554,1.584-0.711,2.413
	C8.081,14.06,8,14.93,8,15.815c0,0.884,0.081,1.754,0.239,2.587c0.157,0.824,0.396,1.637,0.711,2.414
	c0.277,0.682,0.6,1.332,0.957,1.93c0.358,0.598,0.763,1.162,1.202,1.68l2.368,3.348l6.518,9.219l8.812-12.463l0.061-0.07
	c0.443-0.52,0.854-1.09,1.213-1.689c0.371-0.619,0.695-1.273,0.973-1.957c0.314-0.773,0.553-1.582,0.709-2.405
	C31.92,17.564,32,16.692,32,15.815C32,14.937,31.92,14.064,31.762,13.226z"/>
<path fill="#424243" d="M30.779,13.328c-0.145-0.756-0.363-1.495-0.656-2.203c-0.293-0.72-0.645-1.403-1.047-2.034
	c-0.395-0.617-0.844-1.193-1.334-1.709c-0.506-0.529-1.057-1.005-1.635-1.413c-0.588-0.416-1.225-0.782-1.893-1.086
	c-0.654-0.296-1.34-0.52-2.035-0.667C21.48,4.067,20.748,3.992,20,3.992c-0.749,0-1.481,0.075-2.179,0.224
	c-0.694,0.147-1.377,0.371-2.027,0.665c-0.674,0.305-1.313,0.672-1.904,1.09c-0.576,0.406-1.122,0.88-1.622,1.406
	c-0.498,0.521-0.949,1.1-1.344,1.717c-0.396,0.622-0.749,1.307-1.049,2.038c-0.288,0.703-0.509,1.443-0.654,2.202
	C9.074,14.097,9,14.896,9,15.709c0,0.813,0.074,1.611,0.221,2.377c0.145,0.75,0.365,1.492,0.654,2.201
	c0.259,0.633,0.558,1.23,0.887,1.775s0.702,1.061,1.106,1.536l3.556,4.979l4.57,6.415l7.999-11.223l0.117-0.144
	c0.408-0.473,0.783-0.99,1.115-1.539c0.342-0.565,0.645-1.172,0.902-1.805c0.291-0.705,0.51-1.442,0.652-2.19
	C30.926,17.318,31,16.517,31,15.709C31,14.898,30.926,14.098,30.779,13.328z"/>
<path fill="#FFFFFF" d="M20.662,14.893l0.873,1.816l5.298-5.82l0.494,1.033c0.17,0.384,0.19,0.55,0.096,0.815
	c-0.026,0.075-0.06,0.147-0.103,0.25l-0.042,0.1l-4.131,6.61l1.92,4c0.179,0.378,0.386,1.436,0.2,1.955
	c-0.053,0.152-0.138,0.249-0.246,0.301c-0.309,0.148-0.736-0.156-1.041-0.437c-0.358-0.331-0.65-0.731-0.753-0.95l-1.924-3.996
	l-7.781-0.983l-0.103-0.029c-0.442-0.123-0.579-0.163-0.84-0.67l-0.49-1.026l7.892-0.419l-0.873-1.812"/>
<path fill="#FFFFFF" d="M18.45,13.427c-0.241-0.111-1.172-0.464-2.012-1.036l-0.348-0.232l-2.068,1.128l-0.091,0.035
	c-0.378,0.16-0.501,0.21-0.981,0.004L12,12.862l2.407-2.464l0.456-3.406l0.956,0.463c0.34,0.178,0.45,0.287,0.532,0.53
	c0.026,0.06,0.046,0.137,0.074,0.229l0.026,0.09l0.388,2.309l0.406,0.122c0.973,0.308,1.826,0.813,2.061,0.927"/>
</svg>
