<?xml version="1.0" encoding="utf-8"?>
<!-- Generator: Adobe Illustrator 16.0.3, SVG Export Plug-In . SVG Version: 6.00 Build 0)  -->
<!DOCTYPE svg PUBLIC "-//W3C//DTD SVG 1.1//EN" "http://www.w3.org/Graphics/SVG/1.1/DTD/svg11.dtd">
<svg version="1.1" id="Animal_Problem_-_Complete" xmlns="http://www.w3.org/2000/svg" xmlns:xlink="http://www.w3.org/1999/xlink"
	 x="0px" y="0px" width="34px" height="34px" viewBox="0 0 34 34" enable-background="new 0 0 34 34" xml:space="preserve">
<g>
	<circle fill="#FFFFFF" cx="17" cy="17" r="17"/>
	<path fill="#00984E" d="M17.001,32c-8.271,0-15-6.732-15-15.002C2.001,8.73,8.73,2,17.001,2c8.271,0,15,6.73,15,14.998
		C32.001,25.268,25.272,32,17.001,32z"/>
	<path fill="#00BF63" d="M17.001,31C9.28,31,3,24.721,3,17S9.28,3,17.001,3C24.721,3,31,9.279,31,17S24.721,31,17.001,31z"/>
</g>
<path fill="#FFFFFF" d="M17.41,17c-2.412,0-7.862,8.075-6.046,9.715c1.093,0.98,4.613-0.878,6.036-0.9
	c1.593-0.036,4.355,1.796,6.014,0.9C25.955,25.349,19.544,17,17.41,17z"/>
<path fill="#FFFFFF" d="M19,9c0,1.654-0.898,3-2.001,3S15,10.654,15,9c0-1.656,0.896-3,1.999-3S19,7.344,19,9z"/>
<path fill="#FFFFFF" d="M25,14c0,1.655-0.897,3-1.997,3C21.896,17,21,15.654,21,14c0-1.656,0.896-3,2.003-3
	C24.103,11,25,12.344,25,14z"/>
<path fill="#FFFFFF" d="M13,14c0,1.654-0.898,3-2.001,3S9,15.654,9,14c0-1.656,0.896-3,1.999-3S13,12.344,13,14z"/>
</svg>
