<?xml version="1.0" encoding="utf-8"?>
<!-- Generator: Adobe Illustrator 16.0.3, SVG Export Plug-In . SVG Version: 6.00 Build 0)  -->
<!DOCTYPE svg PUBLIC "-//W3C//DTD SVG 1.1//EN" "http://www.w3.org/Graphics/SVG/1.1/DTD/svg11.dtd">
<svg version="1.1" id="Animal_Problem_-_Submitted" xmlns="http://www.w3.org/2000/svg" xmlns:xlink="http://www.w3.org/1999/xlink"
	 x="0px" y="0px" width="34px" height="34px" viewBox="0 0 34 34" enable-background="new 0 0 34 34" xml:space="preserve">
<g>
	<circle fill="#FFFFFF" cx="17" cy="17" r="17"/>
	<path fill="#C70101" d="M17.001,32.001c-8.27,0-14.999-6.732-14.999-15.003c0-8.267,6.729-14.997,14.999-14.997
		c8.273,0,15.001,6.73,15.001,14.997C32.002,25.269,25.274,32.001,17.001,32.001z"/>
	<path fill="#FC3434" d="M17.001,31.001C9.28,31.001,3,24.723,3,17c0-7.72,6.279-13.999,14-13.999c7.72,0,14,6.279,14,13.999
		C31.001,24.723,24.721,31.001,17.001,31.001z"/>
</g>
<g>
	<path fill="#FFFFFF" d="M17.41,17c-2.412,0-7.862,8.075-6.046,9.715c1.093,0.98,4.613-0.878,6.036-0.9
		c1.593-0.036,4.355,1.796,6.014,0.9C25.955,25.349,19.544,17,17.41,17z"/>
	<path fill="#FFFFFF" d="M19,9c0,1.654-0.898,3-2.001,3S15,10.654,15,9c0-1.656,0.896-3,1.999-3S19,7.344,19,9z"/>
	<path fill="#FFFFFF" d="M25,14c0,1.655-0.897,3-1.997,3C21.896,17,21,15.654,21,14c0-1.656,0.896-3,2.003-3
		C24.103,11,25,12.344,25,14z"/>
	<path fill="#FFFFFF" d="M13,14c0,1.654-0.898,3-2.001,3S9,15.654,9,14c0-1.656,0.896-3,1.999-3S13,12.344,13,14z"/>
</g>
</svg>
