<?xml version="1.0" encoding="utf-8"?>
<!-- Generator: Adobe Illustrator 16.0.3, SVG Export Plug-In . SVG Version: 6.00 Build 0)  -->
<!DOCTYPE svg PUBLIC "-//W3C//DTD SVG 1.1//EN" "http://www.w3.org/Graphics/SVG/1.1/DTD/svg11.dtd">
<svg version="1.1" id="Art_Galleries" xmlns="http://www.w3.org/2000/svg" xmlns:xlink="http://www.w3.org/1999/xlink" x="0px"
	 y="0px" width="40px" height="40px" viewBox="0 0 40 40" enable-background="new 0 0 40 40" xml:space="preserve">
<path opacity="0.75" fill="#FFFFFF" enable-background="new    " d="M33.971,15.673c0-1.004-0.094-1.98-0.271-2.926
	c-0.182-0.948-0.456-1.868-0.824-2.759c-0.365-0.892-0.797-1.726-1.296-2.502c-0.499-0.776-1.063-1.497-1.694-2.158
	c-0.636-0.661-1.322-1.254-2.063-1.775c-0.743-0.523-1.54-0.978-2.389-1.362c-0.854-0.383-1.732-0.669-2.638-0.861
	C21.889,1.139,20.959,1.044,20,1.044c-0.958,0-1.888,0.094-2.792,0.286c-0.906,0.192-1.784,0.478-2.636,0.861
	c-0.852,0.384-1.649,0.839-2.391,1.362c-0.742,0.521-1.429,1.114-2.061,1.775C9.488,5.989,8.923,6.709,8.423,7.486
	c-0.498,0.777-0.929,1.61-1.297,2.502c-0.366,0.891-0.64,1.811-0.823,2.759c-0.184,0.946-0.275,1.922-0.275,2.926
	c0,1.001,0.091,1.978,0.275,2.926c0.184,0.948,0.457,1.867,0.823,2.76c0.316,0.768,0.682,1.494,1.095,2.179
	c0.416,0.685,0.879,1.323,1.392,1.92H9.609H9.606l5.194,7.253l5.194,7.253l5.186-7.235l5.176-7.232
	c0.521-0.602,0.992-1.248,1.41-1.936c0.42-0.691,0.791-1.427,1.107-2.201c0.368-0.894,0.645-1.812,0.824-2.759
	C33.877,17.651,33.971,16.675,33.971,15.673z"/>
<path fill="#92014B" d="M31.762,13.233c-0.156-0.829-0.395-1.637-0.713-2.414c-0.316-0.782-0.695-1.526-1.131-2.213
	c-0.43-0.678-0.92-1.312-1.455-1.879c-0.551-0.582-1.15-1.103-1.779-1.551c-0.639-0.456-1.334-0.857-2.059-1.19
	c-0.721-0.328-1.475-0.576-2.238-0.74C21.621,3.083,20.818,3,20.001,3c-0.819,0-1.621,0.083-2.386,0.247
	c-0.764,0.164-1.515,0.412-2.231,0.738c-0.732,0.334-1.428,0.735-2.068,1.193c-0.63,0.448-1.225,0.967-1.77,1.546
	c-0.542,0.573-1.034,1.206-1.463,1.884C9.654,9.285,9.272,10.03,8.95,10.824c-0.314,0.773-0.554,1.584-0.711,2.413
	C8.081,14.068,8,14.938,8,15.823c0,0.884,0.081,1.754,0.239,2.587c0.157,0.824,0.396,1.637,0.711,2.414
	c0.277,0.682,0.6,1.332,0.957,1.93c0.358,0.598,0.763,1.162,1.202,1.68l2.368,3.349L19.995,37l8.812-12.463l0.062-0.07
	c0.442-0.52,0.854-1.09,1.213-1.689c0.371-0.618,0.694-1.272,0.974-1.957c0.313-0.772,0.553-1.581,0.709-2.404
	C31.92,17.572,32,16.701,32,15.823C32,14.944,31.92,14.072,31.762,13.233z"/>
<path fill="#AD4078" d="M30.779,13.336c-0.146-0.755-0.363-1.495-0.656-2.203c-0.293-0.72-0.645-1.403-1.047-2.034
	c-0.395-0.618-0.844-1.194-1.334-1.709c-0.506-0.529-1.057-1.005-1.635-1.413c-0.588-0.416-1.226-0.782-1.894-1.085
	c-0.653-0.296-1.34-0.52-2.034-0.667C21.48,4.076,20.748,4,20,4c-0.749,0-1.481,0.076-2.179,0.224
	c-0.694,0.148-1.377,0.371-2.027,0.665c-0.674,0.305-1.313,0.672-1.904,1.09c-0.576,0.407-1.122,0.88-1.622,1.407
	c-0.498,0.521-0.949,1.099-1.344,1.717c-0.396,0.622-0.749,1.306-1.049,2.038c-0.288,0.703-0.509,1.443-0.654,2.202
	C9.074,14.104,9,14.903,9,15.717c0,0.813,0.074,1.612,0.221,2.377c0.145,0.75,0.365,1.492,0.654,2.201
	c0.259,0.633,0.558,1.23,0.887,1.775c0.329,0.545,0.702,1.061,1.106,1.535l3.556,4.979L19.994,35l7.999-11.223l0.116-0.145
	c0.408-0.473,0.783-0.99,1.115-1.539c0.342-0.564,0.646-1.172,0.902-1.805c0.291-0.705,0.51-1.442,0.652-2.19
	C30.926,17.327,31,16.525,31,15.717C31,14.907,30.926,14.106,30.779,13.336z"/>
<rect x="12" y="8" fill="#FFFFFF" width="16" height="13"/>
<rect x="13" y="9" fill="#AD4078" width="14" height="11"/>
<path fill="#FFFFFF" d="M23.001,14c-1,0-3.001,2-4.001,2s-5-4.458-5-3c0,2,0,6,0,6s11.001,0,12.001,0S24.001,14,23.001,14z"/>
<path fill="#FFFFFF" d="M25,11.5c0,0.829-0.672,1.5-1.5,1.5l0,0c-0.828,0-1.5-0.671-1.5-1.5l0,0c0-0.829,0.672-1.5,1.5-1.5l0,0
	C24.328,10,25,10.671,25,11.5L25,11.5z"/>
</svg>
