<?xml version="1.0" encoding="utf-8"?>
<!-- Generator: Adobe Illustrator 16.0.3, SVG Export Plug-In . SVG Version: 6.00 Build 0)  -->
<!DOCTYPE svg PUBLIC "-//W3C//DTD SVG 1.1//EN" "http://www.w3.org/Graphics/SVG/1.1/DTD/svg11.dtd">
<svg version="1.1" id="ATM" xmlns="http://www.w3.org/2000/svg" xmlns:xlink="http://www.w3.org/1999/xlink" x="0px" y="0px"
	 width="34px" height="34px" viewBox="0 0 34 34" enable-background="new 0 0 34 34" xml:space="preserve">
<circle fill="#FFFFFF" cx="17" cy="17" r="15"/>
<path fill="#262424" d="M17,30C9.832,30,4,24.167,4,17S9.832,4,17,4c7.167,0,13,5.832,13,13S24.168,30,17,30z"/>
<path fill="#424243" d="M17,29c-6.617,0-12-5.383-12-12c0-6.617,5.383-12,12-12c6.617,0,12,5.383,12,12C29,23.617,23.617,29,17,29z"
	/>
<path fill="#FFFFFF" d="M11.535,18.855l-0.36-0.926H8.107l-0.361,0.948c-0.14,0.369-0.261,0.618-0.359,0.747
	c-0.1,0.128-0.264,0.194-0.49,0.194c-0.192,0-0.363-0.069-0.509-0.207c-0.148-0.137-0.222-0.293-0.222-0.469
	c0-0.1,0.017-0.203,0.052-0.311c0.034-0.108,0.091-0.258,0.17-0.449l1.93-4.795c0.054-0.138,0.121-0.303,0.198-0.497
	c0.077-0.192,0.159-0.353,0.247-0.481c0.087-0.127,0.202-0.23,0.345-0.31c0.142-0.079,0.318-0.118,0.528-0.118
	c0.212,0,0.39,0.039,0.533,0.118c0.142,0.079,0.257,0.181,0.344,0.305c0.088,0.124,0.162,0.257,0.222,0.4
	c0.06,0.144,0.135,0.334,0.229,0.572l1.972,4.766c0.154,0.361,0.232,0.625,0.232,0.79c0,0.171-0.074,0.328-0.22,0.47
	c-0.145,0.143-0.32,0.215-0.526,0.215c-0.121,0-0.223-0.021-0.309-0.064c-0.086-0.041-0.158-0.098-0.216-0.17
	c-0.06-0.072-0.122-0.182-0.188-0.333C11.64,19.102,11.583,18.971,11.535,18.855z M8.509,16.806h2.253l-1.137-3.047L8.509,16.806z"
	/>
<path fill="#FFFFFF" d="M18.947,13.334h-1.875v5.723c0,0.32-0.06,0.558-0.203,0.711C16.728,19.923,16.543,20,16.318,20
	c-0.23,0-0.417-0.078-0.561-0.234c-0.144-0.156-0.217-0.393-0.217-0.709v-5.723h-1.688c-0.263,0-0.46-0.059-0.588-0.176
	c-0.128-0.116-0.193-0.27-0.193-0.461c0-0.197,0.067-0.406,0.201-0.52C13.407,12.063,13.6,12,13.854,12h5.094
	c0.268,0,0.467,0.06,0.598,0.178c0.129,0.117,0.195,0.298,0.195,0.488c0,0.191-0.078,0.416-0.209,0.531
	C19.399,13.314,19.212,13.334,18.947,13.334z"/>
<path fill="#FFFFFF" d="M23.302,18.719l-1.219-4.865v5.271c0,0.291-0.065,0.51-0.194,0.656C21.759,19.928,21.586,20,21.372,20
	c-0.207,0-0.378-0.072-0.508-0.217c-0.132-0.144-0.198-0.363-0.198-0.658v-6.041c0-0.334,0.086-0.559,0.26-0.676
	c0.173-0.116,0.406-0.174,0.701-0.174h0.477c0.286,0,0.495,0.025,0.625,0.078c0.129,0.053,0.226,0.146,0.288,0.281
	c0.062,0.135,0.133,0.356,0.212,0.662l1.105,4.182l1.104-4.182c0.079-0.306,0.15-0.527,0.212-0.662
	c0.063-0.135,0.158-0.229,0.288-0.281s0.338-0.078,0.625-0.078h0.478c0.293,0,0.525,0.058,0.699,0.174
	C27.913,12.525,28,12.75,28,13.084v6.041c0,0.291-0.066,0.51-0.194,0.656C27.676,19.928,27.503,20,27.285,20
	c-0.205,0-0.373-0.072-0.504-0.219s-0.197-0.365-0.197-0.656v-5.271l-1.219,4.865c-0.08,0.316-0.145,0.549-0.194,0.695
	c-0.05,0.147-0.144,0.283-0.278,0.404C24.759,19.939,24.572,20,24.334,20c-0.181,0-0.332-0.039-0.457-0.117s-0.223-0.178-0.29-0.299
	c-0.069-0.121-0.124-0.257-0.163-0.404C23.383,19.033,23.342,18.879,23.302,18.719z"/>
</svg>
