<?xml version="1.0" encoding="utf-8"?>
<!-- Generator: Adobe Illustrator 16.0.3, SVG Export Plug-In . SVG Version: 6.00 Build 0)  -->
<!DOCTYPE svg PUBLIC "-//W3C//DTD SVG 1.1//EN" "http://www.w3.org/Graphics/SVG/1.1/DTD/svg11.dtd">
<svg version="1.1" id="Avalanche" xmlns="http://www.w3.org/2000/svg" xmlns:xlink="http://www.w3.org/1999/xlink" x="0px" y="0px"
	 width="40px" height="40px" viewBox="0 0 40 40" enable-background="new 0 0 40 40" xml:space="preserve">
<path opacity="0.75" fill="#FFFFFF" d="M34,15.659c0-1.006-0.095-1.984-0.273-2.932c-0.181-0.95-0.457-1.872-0.826-2.764
	c-0.366-0.895-0.799-1.729-1.299-2.508c-0.5-0.778-1.064-1.499-1.697-2.162c-0.637-0.663-1.326-1.257-2.067-1.779
	c-0.745-0.525-1.544-0.981-2.394-1.365c-0.854-0.384-1.736-0.67-2.643-0.862C21.893,1.095,20.96,1,20,1
	c-0.959,0-1.892,0.095-2.798,0.287c-0.908,0.192-1.787,0.479-2.641,0.862c-0.854,0.384-1.652,0.84-2.396,1.365
	C11.422,4.036,10.734,4.63,10.1,5.293C9.467,5.956,8.9,6.677,8.399,7.455C7.9,8.233,7.468,9.068,7.1,9.963
	c-0.367,0.892-0.641,1.814-0.825,2.764C6.091,13.675,6,14.653,6,15.659c0,1.004,0.091,1.981,0.275,2.932s0.458,1.871,0.825,2.767
	c0.316,0.769,0.683,1.498,1.097,2.183c0.417,0.686,0.881,1.326,1.395,1.924H9.588H9.585l5.205,7.269L19.995,40l5.196-7.251
	l5.188-7.247c0.522-0.604,0.993-1.251,1.413-1.94c0.421-0.692,0.792-1.429,1.109-2.204c0.369-0.896,0.646-1.816,0.826-2.767
	C33.905,17.641,34,16.663,34,15.659z"/>
<path fill="#3672F5" d="M31.762,13.229c-0.156-0.829-0.395-1.638-0.713-2.414c-0.316-0.782-0.695-1.526-1.131-2.213
	c-0.43-0.678-0.92-1.313-1.455-1.879c-0.551-0.582-1.15-1.103-1.779-1.551c-0.639-0.456-1.334-0.857-2.059-1.19
	c-0.721-0.327-1.475-0.576-2.238-0.739c-0.766-0.164-1.568-0.247-2.386-0.247c-0.819,0-1.621,0.083-2.386,0.247
	c-0.764,0.163-1.515,0.411-2.231,0.738c-0.732,0.334-1.428,0.735-2.068,1.192c-0.63,0.448-1.225,0.968-1.77,1.546
	c-0.542,0.573-1.034,1.206-1.463,1.885C9.654,9.281,9.272,10.026,8.95,10.82c-0.314,0.772-0.554,1.584-0.711,2.413
	C8.081,14.063,8,14.934,8,15.819c0,0.884,0.081,1.754,0.239,2.587c0.157,0.824,0.396,1.637,0.711,2.414
	c0.277,0.682,0.6,1.332,0.957,1.93c0.358,0.598,0.763,1.162,1.202,1.68l2.368,3.348l6.518,9.219l8.812-12.463l0.061-0.07
	c0.443-0.52,0.854-1.09,1.213-1.689c0.371-0.619,0.695-1.273,0.973-1.957c0.314-0.773,0.553-1.582,0.709-2.405
	C31.92,17.568,32,16.696,32,15.819C32,14.94,31.92,14.068,31.762,13.229z"/>
<path fill="#5E8EF7" d="M30.779,13.332c-0.145-0.756-0.363-1.495-0.656-2.203c-0.293-0.72-0.645-1.403-1.047-2.034
	c-0.395-0.617-0.844-1.193-1.334-1.709c-0.506-0.529-1.057-1.005-1.635-1.413c-0.588-0.416-1.225-0.782-1.893-1.086
	c-0.654-0.296-1.34-0.52-2.035-0.667C21.48,4.071,20.748,3.996,20,3.996c-0.749,0-1.481,0.075-2.179,0.224
	c-0.694,0.147-1.377,0.371-2.027,0.665c-0.674,0.305-1.313,0.672-1.904,1.09c-0.576,0.406-1.122,0.88-1.622,1.406
	c-0.498,0.521-0.949,1.1-1.344,1.717c-0.396,0.622-0.749,1.307-1.049,2.038c-0.288,0.703-0.509,1.443-0.654,2.202
	C9.074,14.101,9,14.899,9,15.713c0,0.813,0.074,1.611,0.221,2.377c0.145,0.75,0.365,1.492,0.654,2.201
	c0.259,0.633,0.558,1.23,0.887,1.775s0.702,1.061,1.106,1.536l3.556,4.979l4.57,6.415l7.999-11.223l0.117-0.144
	c0.408-0.473,0.783-0.99,1.115-1.539c0.342-0.565,0.645-1.172,0.902-1.805c0.291-0.705,0.51-1.442,0.652-2.19
	C30.926,17.322,31,16.521,31,15.713C31,14.902,30.926,14.102,30.779,13.332z"/>
<path fill="#FFFFFF" d="M15.889,13.662c0.233,0.263,0.41,0.688,0.589,1.001c0.277,0.48,0.437,0.989,0.885,1.333
	c0.617,0.474,1.195,0.451,1.769,0.999c0.36,0.346,1.252,1.454,0.885,2.001c-1.578-0.228-2.172-1.194-2.654-1.667
	c-0.492-0.481-1.348-0.731-1.769-1.333c-0.544-0.777-0.534-2.052-0.59-3C15.013,13.151,15.775,13.534,15.889,13.662z"/>
<path fill="#FFFFFF" d="M20.321,20.115c0,0-1.651,1.185-3.901-1.981c0,0-2.931-0.117-2.378-4.85l-1.039-0.288c0,0-0.009,11,0.007,11
	c0.017,0,9.994,0,9.994,0S20.535,20.33,20.321,20.115z"/>
<path fill="#FFFFFF" d="M19.715,12.022c-0.456,0.237-0.771,0.522-0.706,0.628c0.066,0.11,0.491,0,0.946-0.233
	c0.457-0.239,0.834-0.113,0.839,0.276c0.004,0.39,0.122,0.653,0.259,0.582c0.135-0.068,0.241-0.448,0.237-0.844
	c0-0.396,0.439-0.951,0.98-1.234c0.544-0.285,0.989-0.052,0.989,0.521c0,0.571-0.311,1.199-0.691,1.392
	c-0.384,0.193-0.691,0.469-0.686,0.612c0.003,0.144,0.313,0.104,0.693-0.086c0.376-0.192,0.684,0.034,0.684,0.506
	c0,0.469,0.108,0.854,0.24,0.854c0.133,0,0.24-0.385,0.24-0.858c0-0.471,0.308-0.696,0.688-0.501
	c0.377,0.198,0.686,0.234,0.686,0.086c0-0.146-0.309-0.425-0.686-0.617c-0.381-0.189-0.688-0.815-0.688-1.387
	c0-0.573,0.446-0.807,0.989-0.521c0.542,0.283,0.986,0.839,0.982,1.234c0,0.396,0.105,0.775,0.24,0.844
	c0.131,0.071,0.247-0.192,0.254-0.582s0.384-0.516,0.837-0.276c0.452,0.233,0.879,0.344,0.948,0.233
	c0.066-0.105-0.25-0.39-0.702-0.628c-0.457-0.238-0.521-0.597-0.142-0.797c0.377-0.2,0.572-0.423,0.428-0.495
	c-0.137-0.073-0.559,0.031-0.932,0.233c-0.374,0.2-1.141,0.125-1.705-0.17c-0.561-0.296-0.561-0.777,0-1.074
	c0.564-0.295,1.327-0.372,1.705-0.174c0.373,0.201,0.795,0.307,0.932,0.232c0.145-0.071-0.051-0.293-0.428-0.495
	c-0.379-0.198-0.315-0.558,0.142-0.795c0.452-0.237,0.769-0.521,0.702-0.629c-0.069-0.108-0.496,0-0.948,0.236
	c-0.453,0.237-0.83,0.108-0.837-0.282c-0.007-0.395-0.123-0.659-0.254-0.588c-0.135,0.073-0.24,0.452-0.24,0.848
	c0.004,0.394-0.44,0.948-0.982,1.234c-0.543,0.287-0.989,0.05-0.989-0.522c0-0.574,0.308-1.199,0.688-1.389
	c0.377-0.189,0.686-0.468,0.686-0.615c0-0.146-0.309-0.105-0.686,0.093c-0.381,0.197-0.688-0.033-0.688-0.511
	s-0.107-0.867-0.24-0.867c-0.132,0-0.24,0.388-0.24,0.861c0,0.473-0.308,0.702-0.684,0.512c-0.38-0.189-0.69-0.23-0.693-0.088
	c-0.006,0.14,0.302,0.414,0.686,0.61c0.381,0.189,0.691,0.819,0.691,1.392c0,0.574-0.445,0.812-0.989,0.524
	c-0.541-0.286-0.98-0.841-0.98-1.234c0.005-0.396-0.103-0.774-0.237-0.848c-0.137-0.071-0.254,0.193-0.259,0.588
	c-0.005,0.391-0.382,0.52-0.839,0.282c-0.454-0.236-0.88-0.345-0.946-0.236c-0.065,0.108,0.25,0.39,0.708,0.629
	c0.453,0.237,0.518,0.596,0.145,0.795c-0.375,0.2-0.57,0.424-0.428,0.495c0.141,0.074,0.56-0.031,0.93-0.232
	c0.368-0.198,1.134-0.121,1.695,0.174c0.568,0.297,0.568,0.778,0,1.074c-0.562,0.292-1.327,0.37-1.695,0.17
	c-0.37-0.202-0.789-0.307-0.93-0.235c-0.143,0.074,0.053,0.297,0.428,0.497C20.234,11.426,20.169,11.784,19.715,12.022z"/>
<polygon fill="#FFFFFF" points="24,20.002 24,20.996 27,20.996 27,18.002 26,18.002 26,19.002 21.463,14.996 20.462,15.996 
	25,20.002 "/>
</svg>
