<?xml version="1.0" encoding="utf-8"?>
<!-- Generator: Adobe Illustrator 16.0.3, SVG Export Plug-In . SVG Version: 6.00 Build 0)  -->
<!DOCTYPE svg PUBLIC "-//W3C//DTD SVG 1.1//EN" "http://www.w3.org/Graphics/SVG/1.1/DTD/svg11.dtd">
<svg version="1.1" xmlns="http://www.w3.org/2000/svg" xmlns:xlink="http://www.w3.org/1999/xlink" x="0px" y="0px" width="34px"
	 height="34px" viewBox="0 0 34 34" enable-background="new 0 0 34 34" xml:space="preserve">
<g id="Layer_1">
</g>
<g id="Barricade">
	<circle fill="#FFFFFF" cx="17" cy="17" r="15"/>
	<path fill="#BF6B04" d="M17,30C9.832,30,4,24.167,4,17S9.832,4,17,4c7.167,0,13,5.832,13,13S24.168,30,17,30z"/>
	<path fill="#F59F37" d="M17,29c-6.617,0-12-5.383-12-12c0-6.617,5.383-12,12-12c6.617,0,12,5.383,12,12C29,23.617,23.617,29,17,29z
		"/>
	<path fill="#FFFFFF" d="M27,13h-2h-2h-2h-2h-2h-2h-2h-2H9H7H6v1v2v2v2v1h1h2h2h2h2h2h2h2.052h1.944H25h2h1v-1v-2v-2v-2v-1H27z
		 M8,20l-1-1v-2l3,3H8z M12,20l-5-5v-1h1l6,6H12z M16,20l-6-6h2l6,6H16z M20.045,20l-6.039-6H16l5.997,6H20.045z M24,20l-6-6h2l6,6
		H24z M27,19l-5-5h2l3,3V19z M26,14h1v1L26,14z"/>
</g>
</svg>
