<?xml version="1.0" encoding="utf-8"?>
<!-- Generator: Adobe Illustrator 16.0.3, SVG Export Plug-In . SVG Version: 6.00 Build 0)  -->
<!DOCTYPE svg PUBLIC "-//W3C//DTD SVG 1.1//EN" "http://www.w3.org/Graphics/SVG/1.1/DTD/svg11.dtd">
<svg version="1.1" id="Biological_Attack" xmlns="http://www.w3.org/2000/svg" xmlns:xlink="http://www.w3.org/1999/xlink" x="0px"
	 y="0px" width="40px" height="40px" viewBox="0 0 40 40" enable-background="new 0 0 40 40" xml:space="preserve">
<path opacity="0.75" fill="#FFFFFF" d="M34,15.659c0-1.006-0.095-1.984-0.273-2.932c-0.181-0.95-0.457-1.872-0.826-2.764
	c-0.366-0.895-0.799-1.729-1.299-2.508c-0.5-0.778-1.064-1.499-1.697-2.162c-0.637-0.663-1.326-1.257-2.067-1.779
	c-0.745-0.525-1.544-0.981-2.394-1.365c-0.854-0.384-1.736-0.67-2.643-0.862C21.893,1.095,20.96,1,20,1
	c-0.959,0-1.892,0.095-2.798,0.287c-0.908,0.192-1.787,0.479-2.641,0.862c-0.854,0.384-1.652,0.84-2.396,1.365
	C11.422,4.036,10.734,4.63,10.1,5.293C9.467,5.956,8.9,6.677,8.399,7.455C7.9,8.233,7.468,9.068,7.1,9.963
	c-0.367,0.892-0.641,1.814-0.825,2.764C6.091,13.675,6,14.653,6,15.659c0,1.004,0.091,1.981,0.275,2.932s0.458,1.871,0.825,2.767
	c0.316,0.769,0.683,1.498,1.097,2.183c0.417,0.686,0.881,1.326,1.395,1.924H9.588H9.585l5.205,7.269L19.995,40l5.196-7.251
	l5.188-7.247c0.522-0.604,0.993-1.251,1.413-1.94c0.421-0.692,0.792-1.429,1.109-2.204c0.369-0.896,0.646-1.816,0.826-2.767
	C33.905,17.641,34,16.663,34,15.659z"/>
<path fill="#BF6B04" d="M31.762,13.229c-0.156-0.829-0.395-1.638-0.713-2.414c-0.316-0.782-0.695-1.526-1.131-2.213
	c-0.43-0.678-0.92-1.313-1.455-1.879c-0.551-0.582-1.15-1.103-1.779-1.551c-0.639-0.456-1.334-0.857-2.059-1.19
	c-0.721-0.327-1.475-0.576-2.238-0.739c-0.766-0.164-1.568-0.247-2.386-0.247c-0.819,0-1.621,0.083-2.386,0.247
	c-0.764,0.163-1.515,0.411-2.231,0.738c-0.732,0.334-1.428,0.735-2.068,1.192c-0.63,0.448-1.225,0.968-1.77,1.546
	c-0.542,0.573-1.034,1.206-1.463,1.885C9.654,9.281,9.272,10.026,8.95,10.82c-0.314,0.772-0.554,1.584-0.711,2.413
	C8.081,14.063,8,14.934,8,15.819c0,0.884,0.081,1.754,0.239,2.587c0.157,0.824,0.396,1.637,0.711,2.414
	c0.277,0.682,0.6,1.332,0.957,1.93c0.358,0.598,0.763,1.162,1.202,1.68l2.368,3.348l6.518,9.219l8.812-12.463l0.061-0.07
	c0.443-0.52,0.854-1.09,1.213-1.689c0.371-0.619,0.695-1.273,0.973-1.957c0.314-0.773,0.553-1.582,0.709-2.405
	C31.92,17.568,32,16.696,32,15.819C32,14.94,31.92,14.068,31.762,13.229z"/>
<path fill="#F28705" d="M30.779,13.332c-0.145-0.756-0.363-1.495-0.656-2.203c-0.293-0.72-0.645-1.403-1.047-2.034
	c-0.395-0.617-0.844-1.193-1.334-1.709c-0.506-0.529-1.057-1.005-1.635-1.413c-0.588-0.416-1.225-0.782-1.893-1.086
	c-0.654-0.296-1.34-0.52-2.035-0.667C21.48,4.071,20.748,3.996,20,3.996c-0.749,0-1.481,0.075-2.179,0.224
	c-0.694,0.147-1.377,0.371-2.027,0.665c-0.674,0.305-1.313,0.672-1.904,1.09c-0.576,0.406-1.122,0.88-1.622,1.406
	c-0.498,0.521-0.949,1.1-1.344,1.717c-0.396,0.622-0.749,1.307-1.049,2.038c-0.288,0.703-0.509,1.443-0.654,2.202
	C9.074,14.101,9,14.899,9,15.713c0,0.813,0.074,1.611,0.221,2.377c0.145,0.75,0.365,1.492,0.654,2.201
	c0.259,0.633,0.558,1.23,0.887,1.775s0.702,1.061,1.106,1.536l3.556,4.979l4.57,6.415l7.999-11.223l0.117-0.144
	c0.408-0.473,0.783-0.99,1.115-1.539c0.342-0.565,0.645-1.172,0.902-1.805c0.291-0.705,0.51-1.442,0.652-2.19
	C30.926,17.322,31,16.521,31,15.713C31,14.902,30.926,14.102,30.779,13.332z"/>
<g>
	<path fill="#FFFFFF" d="M12.013,16.337c-0.329,0.587-0.494,1.218-0.494,1.892c0,0.38,0.053,0.751,0.156,1.114l-0.286,0.182
		C11.13,18.885,11,18.193,11,17.451c0-0.484,0.061-0.959,0.182-1.426c0.121-0.467,0.311-0.924,0.571-1.373
		c0.329-0.554,0.727-1.028,1.195-1.426c0.467-0.397,0.979-0.708,1.532-0.933c-0.018-0.139-0.03-0.268-0.039-0.389
		s-0.014-0.251-0.014-0.39c0-0.967,0.238-1.883,0.714-2.746c0.477-0.864,1.165-1.555,2.065-2.073c0.675-0.363,1.368-0.596,2.078-0.7
		v0.337c-0.381,0.069-0.762,0.217-1.143,0.441c-0.606,0.345-1.073,0.811-1.403,1.398c-0.329,0.588-0.493,1.21-0.493,1.866
		c0,0.674,0.164,1.305,0.493,1.892c0.33,0.554,0.757,0.994,1.285,1.321c0.528,0.329,1.096,0.511,1.702,0.545v0.647
		c-0.225,0.052-0.411,0.173-0.559,0.363c-0.147,0.189-0.221,0.405-0.221,0.648c0,0.068,0.005,0.125,0.013,0.168
		c0.009,0.043,0.021,0.091,0.039,0.143l-0.572,0.337c-0.312-0.467-0.728-0.855-1.247-1.166c-0.589-0.328-1.221-0.493-1.896-0.493
		c-0.658,0-1.281,0.165-1.87,0.493C12.827,15.266,12.359,15.731,12.013,16.337z"/>
	<path fill="#FFFFFF" d="M27.909,20.742c-0.503,0.691-1.143,1.239-1.922,1.646c-0.78,0.406-1.637,0.608-2.572,0.608
		c-0.64,0-1.251-0.103-1.831-0.31s-1.112-0.492-1.597-0.855c-0.485,0.381-1.022,0.669-1.61,0.867
		c-0.589,0.199-1.186,0.298-1.792,0.298c-0.484,0-0.96-0.06-1.428-0.181c-0.468-0.121-0.927-0.312-1.377-0.57
		c-0.658-0.38-1.221-0.872-1.688-1.478l0.26-0.156c0.294,0.347,0.641,0.641,1.039,0.884c0.589,0.326,1.221,0.491,1.896,0.491
		c0.658,0,1.281-0.165,1.87-0.491c0.589-0.329,1.057-0.796,1.403-1.401c0.346-0.569,0.519-1.191,0.519-1.865
		c0-0.588-0.13-1.141-0.389-1.658l0.597-0.338c0.208,0.208,0.459,0.312,0.753,0.312c0.295,0,0.554-0.112,0.779-0.337l0.545,0.312
		c-0.121,0.259-0.216,0.526-0.285,0.803s-0.104,0.562-0.104,0.855c0,0.518,0.1,1.007,0.299,1.464
		c0.199,0.458,0.467,0.855,0.806,1.193c0.337,0.336,0.735,0.604,1.194,0.803c0.459,0.198,0.948,0.298,1.468,0.298
		c0.571,0,1.108-0.121,1.61-0.363c0.502-0.241,0.926-0.569,1.272-0.984L27.909,20.742z"/>
	<path fill="#FFFFFF" d="M16.221,15.456c0,0.776,0.208,1.473,0.623,2.086c0.416,0.613,0.953,1.066,1.611,1.36l-0.598,1.063
		c-0.848-0.397-1.537-0.998-2.065-1.802C15.264,17.36,15,16.457,15,15.456c0-0.069,0-0.139,0-0.208s0.009-0.139,0.026-0.207h1.221
		c-0.018,0.068-0.026,0.138-0.026,0.207S16.221,15.387,16.221,15.456z"/>
	<path fill="#FFFFFF" d="M20.013,11.697c-0.849,0-1.593,0.242-2.233,0.726l-0.598-1.063c0.832-0.587,1.774-0.881,2.831-0.881
		s2,0.294,2.832,0.881l-0.624,1.063C21.58,11.939,20.844,11.697,20.013,11.697z"/>
	<path fill="#FFFFFF" d="M25.52,12.294c1.039,0.414,1.879,1.084,2.519,2.009C28.68,15.227,29,16.275,29,17.451
		c0,0.742-0.13,1.425-0.39,2.047l-0.286-0.155c0.053-0.19,0.096-0.38,0.13-0.57c0.035-0.19,0.052-0.389,0.052-0.596
		c0-0.519-0.1-1.002-0.299-1.452c-0.198-0.449-0.468-0.842-0.805-1.179c-0.338-0.337-0.735-0.604-1.195-0.804
		c-0.459-0.198-0.947-0.298-1.467-0.298c-0.642,0-1.229,0.146-1.767,0.441c-0.536,0.293-0.979,0.682-1.324,1.166l-0.571-0.312
		l0.025-0.284c0-0.243-0.077-0.459-0.234-0.648c-0.155-0.19-0.354-0.32-0.596-0.389v-0.622c0.588-0.034,1.134-0.198,1.636-0.493
		c0.605-0.345,1.073-0.811,1.402-1.398s0.493-1.21,0.493-1.866c0-0.674-0.164-1.305-0.493-1.892
		c-0.294-0.501-0.667-0.907-1.116-1.219c-0.451-0.311-0.944-0.509-1.481-0.596V5.996c0.832,0.121,1.61,0.415,2.337,0.881
		c0.728,0.467,1.315,1.089,1.766,1.866c0.261,0.449,0.451,0.907,0.572,1.374c0.121,0.466,0.182,0.941,0.182,1.425
		c0,0.121-0.005,0.238-0.013,0.35c-0.009,0.112-0.021,0.229-0.039,0.35V12.294z"/>
	<path fill="#FFFFFF" d="M24.999,15.041v0.415c0,1.001-0.259,1.904-0.778,2.707c-0.52,0.804-1.203,1.404-2.052,1.802l-0.623-1.063
		c0.658-0.294,1.194-0.747,1.61-1.36c0.415-0.613,0.623-1.31,0.623-2.086c0-0.069,0-0.139,0-0.208s-0.008-0.139-0.026-0.207H24.999z
		"/>
</g>
</svg>
