<?xml version="1.0" encoding="utf-8"?>
<!-- Generator: Adobe Illustrator 16.0.3, SVG Export Plug-In . SVG Version: 6.00 Build 0)  -->
<!DOCTYPE svg PUBLIC "-//W3C//DTD SVG 1.1//EN" "http://www.w3.org/Graphics/SVG/1.1/DTD/svg11.dtd">
<svg version="1.1" id="Bioretention_Basin_-_Green_Infrastructure"
	 xmlns="http://www.w3.org/2000/svg" xmlns:xlink="http://www.w3.org/1999/xlink" x="0px" y="0px" width="40px" height="40px"
	 viewBox="0 0 40 40" enable-background="new 0 0 40 40" xml:space="preserve">
<path opacity="0.75" fill="#FFFFFF" d="M33.971,15.669c0-1.004-0.094-1.979-0.272-2.926c-0.181-0.948-0.456-1.868-0.824-2.759
	c-0.365-0.893-0.797-1.726-1.296-2.503c-0.499-0.776-1.063-1.496-1.694-2.157c-0.636-0.661-1.323-1.255-2.063-1.775
	c-0.743-0.523-1.54-0.979-2.388-1.362c-0.854-0.383-1.733-0.669-2.638-0.86C21.889,1.135,20.958,1.04,20,1.04
	c-0.958,0-1.888,0.095-2.792,0.286c-0.906,0.191-1.784,0.478-2.636,0.86c-0.852,0.384-1.649,0.839-2.391,1.362
	c-0.742,0.521-1.429,1.114-2.061,1.775S8.923,6.705,8.423,7.481c-0.498,0.777-0.929,1.61-1.297,2.503
	c-0.366,0.891-0.64,1.811-0.823,2.759c-0.184,0.946-0.275,1.922-0.275,2.926c0,1.002,0.091,1.978,0.275,2.926
	s0.457,1.867,0.823,2.761c0.316,0.768,0.682,1.495,1.095,2.179c0.416,0.684,0.879,1.323,1.392,1.92H9.609H9.606l5.194,7.253
	l5.194,7.253l5.185-7.236l5.177-7.232c0.521-0.602,0.991-1.248,1.41-1.936c0.42-0.691,0.79-1.426,1.107-2.2
	c0.368-0.894,0.644-1.813,0.824-2.761C33.877,17.646,33.971,16.671,33.971,15.669z"/>
<path fill="#38673D" d="M31.762,13.229c-0.156-0.829-0.395-1.638-0.713-2.414c-0.316-0.782-0.695-1.526-1.131-2.213
	c-0.43-0.678-0.92-1.313-1.455-1.879c-0.551-0.582-1.15-1.103-1.779-1.551c-0.639-0.456-1.334-0.857-2.059-1.19
	c-0.721-0.327-1.475-0.576-2.238-0.739c-0.766-0.164-1.568-0.247-2.386-0.247c-0.819,0-1.621,0.083-2.386,0.247
	c-0.764,0.163-1.515,0.411-2.231,0.738c-0.732,0.334-1.428,0.735-2.068,1.192c-0.63,0.448-1.225,0.968-1.77,1.546
	c-0.542,0.573-1.034,1.206-1.463,1.885C9.654,9.281,9.272,10.026,8.95,10.82c-0.314,0.772-0.554,1.584-0.711,2.413
	C8.081,14.063,8,14.934,8,15.819c0,0.884,0.081,1.754,0.239,2.587c0.157,0.824,0.396,1.637,0.711,2.414
	c0.277,0.682,0.6,1.332,0.957,1.93c0.358,0.598,0.763,1.162,1.202,1.68l2.368,3.348l6.518,9.219l8.812-12.463l0.061-0.07
	c0.443-0.52,0.854-1.09,1.213-1.689c0.371-0.619,0.695-1.273,0.973-1.957c0.314-0.773,0.553-1.582,0.709-2.405
	C31.92,17.568,32,16.696,32,15.819C32,14.94,31.92,14.068,31.762,13.229z"/>
<path fill="#359A40" d="M30.779,13.332c-0.145-0.756-0.363-1.495-0.656-2.203c-0.293-0.72-0.645-1.403-1.047-2.034
	c-0.395-0.617-0.844-1.193-1.334-1.709c-0.506-0.529-1.057-1.005-1.635-1.413c-0.588-0.416-1.225-0.782-1.893-1.086
	c-0.654-0.296-1.34-0.52-2.035-0.667C21.48,4.071,20.748,3.996,20,3.996c-0.749,0-1.481,0.075-2.179,0.224
	c-0.694,0.147-1.377,0.371-2.027,0.665c-0.674,0.305-1.313,0.672-1.904,1.09c-0.576,0.406-1.122,0.88-1.622,1.406
	c-0.498,0.521-0.949,1.1-1.344,1.717c-0.396,0.622-0.749,1.307-1.049,2.038c-0.288,0.703-0.509,1.443-0.654,2.202
	C9.074,14.101,9,14.899,9,15.713c0,0.813,0.074,1.611,0.221,2.377c0.145,0.75,0.365,1.492,0.654,2.201
	c0.259,0.633,0.558,1.23,0.887,1.775s0.702,1.061,1.106,1.536l3.556,4.979l4.57,6.415l7.998-11.223l0.117-0.144
	c0.408-0.473,0.783-0.99,1.115-1.539c0.342-0.565,0.645-1.172,0.902-1.805c0.291-0.705,0.51-1.442,0.652-2.19
	C30.926,17.322,31,16.521,31,15.713C31,14.902,30.926,14.102,30.779,13.332z"/>
<path fill="#FFFFFF" d="M15.104,20.996h-2.927c-0.422,0-0.724-0.094-0.905-0.292C11.09,20.503,11,20.192,11,19.756v-7.513
	c0-0.438,0.09-0.755,0.278-0.95c0.184-0.194,0.486-0.29,0.899-0.29h3.104c0.458,0,0.855,0.032,1.19,0.089
	c0.334,0.06,0.634,0.175,0.901,0.343c0.225,0.141,0.427,0.319,0.602,0.533c0.175,0.216,0.305,0.455,0.399,0.719
	c0.089,0.258,0.137,0.535,0.137,0.825c0,1.003-0.481,1.732-1.441,2.198c1.261,0.418,1.893,1.231,1.893,2.441
	c0,0.557-0.139,1.061-0.415,1.513c-0.274,0.444-0.643,0.776-1.109,0.989c-0.29,0.13-0.627,0.22-1.008,0.271
	C16.051,20.978,15.61,20.996,15.104,20.996z M12.939,12.526v2.583h1.78c0.484,0,0.856-0.048,1.122-0.143
	c0.261-0.097,0.463-0.277,0.604-0.548c0.106-0.188,0.163-0.401,0.163-0.641c0-0.506-0.171-0.839-0.514-1.004
	c-0.345-0.168-0.873-0.248-1.577-0.248H12.939z M14.961,16.56h-2.022v2.921h2.086c1.31,0,1.966-0.49,1.966-1.482
	c0-0.5-0.169-0.871-0.51-1.099C16.146,16.675,15.636,16.56,14.961,16.56z"/>
<path fill="#FFFFFF" d="M25.111,20.996h-2.933c-0.427,0-0.728-0.094-0.909-0.292C21.088,20.503,21,20.192,21,19.756v-7.514
	c0-0.438,0.088-0.757,0.277-0.952c0.185-0.192,0.485-0.288,0.901-0.288h3.11c0.457,0,0.857,0.031,1.19,0.089
	c0.342,0.058,0.637,0.173,0.907,0.342c0.229,0.142,0.426,0.319,0.6,0.532c0.177,0.218,0.309,0.457,0.402,0.719
	c0.095,0.26,0.135,0.537,0.135,0.827c0,1.001-0.476,1.732-1.441,2.198c1.264,0.419,1.896,1.231,1.896,2.441
	c0,0.555-0.138,1.062-0.412,1.513c-0.273,0.443-0.648,0.776-1.118,0.99c-0.289,0.128-0.627,0.218-1.008,0.27
	C26.059,20.977,25.619,20.996,25.111,20.996z M22.94,12.524v2.582h1.785c0.485,0,0.861-0.046,1.125-0.142
	c0.261-0.098,0.469-0.276,0.608-0.547c0.104-0.19,0.158-0.403,0.158-0.643c0-0.503-0.172-0.837-0.517-1.003
	c-0.343-0.169-0.874-0.248-1.58-0.248H22.94z M24.969,16.557H22.94v2.923h2.097c1.313,0,1.971-0.49,1.971-1.484
	c0-0.498-0.169-0.87-0.516-1.096C26.153,16.675,25.643,16.557,24.969,16.557z"/>
</svg>
