<?xml version="1.0" encoding="utf-8"?>
<!-- Generator: Adobe Illustrator 16.0.3, SVG Export Plug-In . SVG Version: 6.00 Build 0)  -->
<!DOCTYPE svg PUBLIC "-//W3C//DTD SVG 1.1//EN" "http://www.w3.org/Graphics/SVG/1.1/DTD/svg11.dtd">
<svg version="1.1" id="Birth_Services" xmlns="http://www.w3.org/2000/svg" xmlns:xlink="http://www.w3.org/1999/xlink" x="0px"
	 y="0px" width="40px" height="40px" viewBox="0 0 40 40" enable-background="new 0 0 40 40" xml:space="preserve">
<path opacity="0.75" fill="#FFFFFF" enable-background="new    " d="M33.971,15.709c0-1.004-0.094-1.98-0.272-2.926
	c-0.181-0.948-0.456-1.868-0.824-2.759c-0.365-0.892-0.797-1.726-1.296-2.502s-1.063-1.497-1.694-2.158
	c-0.636-0.661-1.323-1.254-2.063-1.775c-0.743-0.523-1.54-0.978-2.388-1.362c-0.854-0.383-1.733-0.669-2.638-0.861
	C21.889,1.175,20.959,1.081,20,1.081c-0.958,0-1.888,0.094-2.792,0.286c-0.906,0.192-1.784,0.478-2.636,0.861
	c-0.852,0.384-1.649,0.839-2.391,1.362c-0.742,0.521-1.429,1.114-2.061,1.775S8.923,6.745,8.423,7.522
	c-0.498,0.777-0.929,1.61-1.297,2.502c-0.366,0.891-0.64,1.811-0.823,2.759c-0.184,0.946-0.275,1.922-0.275,2.926
	c0,1.001,0.091,1.978,0.275,2.926s0.457,1.867,0.823,2.76c0.316,0.768,0.682,1.495,1.095,2.179c0.416,0.684,0.879,1.323,1.392,1.92
	H9.609H9.606l5.194,7.253L19.995,40l5.185-7.236l5.177-7.232c0.521-0.602,0.991-1.248,1.41-1.936c0.42-0.691,0.79-1.426,1.107-2.2
	c0.368-0.894,0.644-1.812,0.824-2.76C33.877,17.687,33.971,16.711,33.971,15.709z"/>
<path fill="#1873CD" d="M31.762,13.27c-0.156-0.829-0.395-1.637-0.713-2.414c-0.316-0.782-0.695-1.526-1.131-2.213
	c-0.43-0.678-0.92-1.312-1.455-1.879c-0.551-0.582-1.15-1.103-1.779-1.551c-0.639-0.456-1.334-0.857-2.059-1.19
	c-0.721-0.328-1.475-0.576-2.238-0.74c-0.766-0.164-1.568-0.247-2.386-0.247c-0.819,0-1.621,0.083-2.386,0.247
	c-0.764,0.164-1.515,0.412-2.231,0.738c-0.732,0.334-1.428,0.735-2.068,1.193c-0.63,0.448-1.225,0.967-1.77,1.546
	c-0.542,0.573-1.034,1.206-1.463,1.884C9.654,9.321,9.272,10.067,8.95,10.86c-0.314,0.773-0.554,1.584-0.711,2.413
	C8.081,14.104,8,14.974,8,15.859c0,0.884,0.081,1.754,0.239,2.587c0.157,0.824,0.396,1.637,0.711,2.414
	c0.277,0.682,0.6,1.332,0.957,1.93c0.358,0.598,0.763,1.162,1.202,1.68l2.368,3.348l6.518,9.219l8.812-12.463l0.061-0.07
	c0.443-0.52,0.854-1.09,1.213-1.689c0.371-0.619,0.695-1.273,0.973-1.957c0.314-0.773,0.553-1.582,0.709-2.405
	C31.92,17.608,32,16.737,32,15.859C32,14.98,31.92,14.108,31.762,13.27z"/>
<path fill="#1F8FFF" d="M30.779,13.372c-0.145-0.755-0.363-1.495-0.656-2.203c-0.293-0.72-0.645-1.403-1.047-2.034
	c-0.395-0.618-0.844-1.194-1.334-1.709c-0.506-0.529-1.057-1.005-1.635-1.413c-0.588-0.416-1.225-0.782-1.893-1.085
	c-0.654-0.296-1.34-0.52-2.035-0.667C21.48,4.112,20.748,4.036,20,4.036c-0.749,0-1.481,0.076-2.179,0.224
	c-0.694,0.148-1.377,0.371-2.027,0.665c-0.674,0.305-1.313,0.672-1.904,1.09c-0.576,0.407-1.122,0.88-1.622,1.407
	c-0.498,0.521-0.949,1.099-1.344,1.717c-0.396,0.622-0.749,1.306-1.049,2.038c-0.288,0.703-0.509,1.443-0.654,2.202
	C9.074,14.141,9,14.939,9,15.753c0,0.813,0.074,1.612,0.221,2.377c0.145,0.75,0.365,1.492,0.654,2.201
	c0.259,0.633,0.558,1.23,0.887,1.775s0.702,1.061,1.106,1.536l3.556,4.979l4.57,6.415l7.999-11.223l0.117-0.144
	c0.408-0.473,0.783-0.99,1.115-1.539c0.342-0.565,0.645-1.172,0.902-1.805c0.291-0.705,0.51-1.442,0.652-2.19
	C30.926,17.363,31,16.561,31,15.753C31,14.943,30.926,14.142,30.779,13.372z"/>
<path fill="#FFFFFF" d="M19.893,11.036C21.609,11.034,23,9.644,23,7.929c0-1.719-1.283-2.897-3-2.893c-1.717-0.004-3.001,1.281-3,3
	C16.999,9.75,18.176,11.034,19.893,11.036L19.893,11.036z"/>
<path fill="#FFFFFF" d="M20.262,18.035h-3.294v-2.373l-2.508,2.521c-1.136,1.13-2.674-0.317-1.534-1.453l4.154-4.147
	c0.339-0.33,0.708-0.542,1.298-0.547h1.884l0,0h1.848c0.582,0.005,0.977,0.21,1.322,0.547l4.205,4.197
	c1.082,1.072-0.498,2.533-1.535,1.44l-2.582-2.57v2.385H20.262L20.262,18.035L20.262,18.035z"/>
<path fill="#FFFFFF" d="M23.393,19.276l-2.47,2.47l1.821,1.809l-1.858,1.86c-1.102,1.095,0.411,2.662,1.546,1.534l2.932-3.057
	c0.637-0.646,0.811-1.835,0.139-2.508C25.496,21.38,23.393,19.276,23.393,19.276L23.393,19.276z"/>
<path fill="#FFFFFF" d="M16.854,19.276l2.471,2.47l-1.809,1.809l1.859,1.86c1.092,1.095-0.42,2.662-1.548,1.534l-2.945-3.057
	c-0.628-0.646-0.803-1.835-0.124-2.508C14.759,21.38,16.854,19.276,16.854,19.276L16.854,19.276z"/>
</svg>
