<?xml version="1.0" encoding="utf-8"?>
<!-- Generator: Adobe Illustrator 16.0.3, SVG Export Plug-In . SVG Version: 6.00 Build 0)  -->
<!DOCTYPE svg PUBLIC "-//W3C//DTD SVG 1.1//EN" "http://www.w3.org/Graphics/SVG/1.1/DTD/svg11.dtd">
<svg version="1.1" id="Bleacher" xmlns="http://www.w3.org/2000/svg" xmlns:xlink="http://www.w3.org/1999/xlink" x="0px" y="0px"
	 width="34px" height="34px" viewBox="0 0 34 34" enable-background="new 0 0 34 34" xml:space="preserve">
<circle fill="#FFFFFF" cx="17" cy="17" r="15"/>
<path fill="#725132" d="M17,30C9.832,30,4,24.167,4,17S9.832,4,17,4c7.167,0,13,5.832,13,13S24.168,30,17,30z"/>
<path fill="#B18E67" d="M17,29c-6.617,0-12-5.383-12-12c0-6.617,5.383-12,12-12c6.617,0,12,5.383,12,12C29,23.617,23.617,29,17,29z"
	/>
<path fill="#FFFFFF" d="M19,23.119c0-0.219-0.072-0.427-0.22-0.623c-0.148-0.196-0.368-0.295-0.662-0.295h-3.085
	c-0.49,0-0.968-0.152-1.434-0.459c-0.465-0.306-0.771-0.851-0.917-1.635L11.8,15.589c-0.074-0.269-0.195-0.453-0.367-0.551
	c-0.172-0.097-0.343-0.146-0.515-0.146l-0.22,0.035c-0.074,0.026-0.21,0.098-0.404,0.22C10.097,15.272,10,15.479,10,15.772
	l0.036,0.22c0,0.049,0.043,0.264,0.13,0.643c0.084,0.382,0.195,0.926,0.33,1.636c0.133,0.709,0.274,1.444,0.422,2.205
	c0.146,0.708,0.379,1.291,0.697,1.743c0.319,0.453,0.667,0.81,1.046,1.066c0.381,0.256,0.765,0.441,1.157,0.548
	C14.211,23.946,14.543,24,14.813,24h3.305c0.294,0,0.514-0.089,0.662-0.272C18.928,23.542,19,23.34,19,23.119z"/>
<path fill="#FFFFFF" d="M15.016,9.966c0.548,0,1.014-0.194,1.403-0.581C16.804,8.997,17,8.53,17,7.982
	c0-0.545-0.196-1.013-0.581-1.401C16.03,6.193,15.563,6,15.016,6c-0.545,0-1.02,0.193-1.417,0.581C13.198,6.969,13,7.437,13,7.982
	c0,0.548,0.198,1.015,0.598,1.403C13.996,9.771,14.47,9.966,15.016,9.966z"/>
<path fill="#FFFFFF" d="M17.687,17.476L16.7,12.393c-0.097-0.452-0.329-0.795-0.698-1.034C15.638,11.12,15.247,11,14.831,11
	l-0.293,0.039c-0.391,0.075-0.744,0.27-1.062,0.582C13.159,11.937,13,12.356,13,12.883c0,0.176,0.011,0.314,0.036,0.415
	c0.048,0.325,0.134,0.789,0.256,1.393c0.121,0.601,0.24,1.204,0.349,1.806c0.11,0.602,0.25,1.355,0.421,2.259
	c0.097,0.453,0.232,0.803,0.403,1.053c0.171,0.252,0.365,0.434,0.584,0.547c0.219,0.111,0.439,0.175,0.66,0.189
	c0.221,0.012,0.427,0.017,0.622,0.017h4.359v5.122c0,0.424,0.122,0.752,0.368,0.979C21.304,26.887,21.568,27,21.866,27
	c0.291,0,0.553-0.113,0.784-0.338c0.235-0.227,0.35-0.555,0.35-0.979v-6.515c0-0.601-0.158-1.033-0.475-1.299
	c-0.317-0.262-0.721-0.394-1.211-0.394H17.687z"/>
</svg>
