<?xml version="1.0" encoding="utf-8"?>
<!-- Generator: Adobe Illustrator 16.0.3, SVG Export Plug-In . SVG Version: 6.00 Build 0)  -->
<!DOCTYPE svg PUBLIC "-//W3C//DTD SVG 1.1//EN" "http://www.w3.org/Graphics/SVG/1.1/DTD/svg11.dtd">
<svg version="1.1" id="Blight_Problem_-_Recieved" xmlns="http://www.w3.org/2000/svg" xmlns:xlink="http://www.w3.org/1999/xlink"
	 x="0px" y="0px" width="34px" height="34px" viewBox="0 0 34 34" enable-background="new 0 0 34 34" xml:space="preserve">
<circle fill="#FFFFFF" cx="17" cy="17" r="17"/>
<path fill="#BF6B04" d="M17.001,32c-8.271,0-15-6.732-15-15.002C2.001,8.73,8.73,2,17.001,2c8.271,0,15,6.73,15,14.998
	C32.001,25.268,25.272,32,17.001,32z"/>
<path fill="#F28705" d="M17.001,31C9.28,31,3,24.721,3,17S9.28,3,17.001,3C24.721,3,31,9.279,31,17S24.721,31,17.001,31z"/>
<path fill="#FFFFFF" d="M21.561,20h-6.732c-0.244,0-0.442,0.211-0.442,0.469v0.266c-0.296,0-0.804,0-1.099,0
	c-0.156,0-0.287,0.349-0.287,0.514c0,0.729,0,1.704,0,2.435C13,23.845,13.131,24,13.288,24c1.478,0,3.401,0,4.876,0
	c0,0.42-0.006,0.702-0.006,1.118h-0.304v3.119c0,0.346,0.329,0.763,0.654,0.763c0.329,0,0.663-0.413,0.663-0.753v-3.12h-0.303
	c0-0.521,0-1.374,0-1.889c0-0.169-0.462-0.238-0.617-0.238c-1.475,0-2.776,0-4.252,0c0-0.521,0-1.21,0-1.732
	c0.199,0,0.186,0,0.386,0v0.266c0,0.254,0.199,0.467,0.442,0.467h6.732C21.806,22,22,21.787,22,21.533v-1.064
	C22.002,20.211,21.806,20,21.561,20z"/>
<path fill="#FFFFFF" d="M28.018,17.825c-0.664-0.797-1.184-1.594-1.383-2.134c-0.418-1.138-0.76-2.44-0.996-3.792
	c0.281-0.091,0.59-0.21,0.842-0.41l1.273-1.013l-1.59-0.149c-0.258-0.023-0.51-0.051-0.768-0.079
	c-0.012-0.112-0.021-0.222-0.035-0.335l-0.01-0.141c-0.08-0.785-0.262-2.621-0.262-3.498h-1.23c0,0.943,0.188,2.826,0.264,3.63
	l0.014,0.143c0,0.015,0.004,0.032,0.006,0.049C23.813,10.052,23.326,10.042,23,10c-0.479-0.066-1.508,0.06-2,0V6h-7v1.521
	c-1.04-0.411-1.864-0.667-2.586-0.898l-1.341-0.429l0.604,1.329c0.217,0.476,0.878,1.254,1.943,2.48
	c0.631,0.727,1.215,1.501,1.379,1.817c0.036,0.071-0.039,0.063,0,0.135V15c-0.398-0.211-0.467-0.487-0.79-0.68
	c-0.195-0.117-0.377-0.226-0.541-0.319c-1.458-0.828-2.89-1.813-4.258-2.928l-0.073-0.059L8.251,10.98
	c-0.097-0.038-0.117-0.082-0.128-0.105L7,11.407c0.146,0.381,0.371,0.686,0.567,0.954c0.043,0.059,0.085,0.117,0.127,0.177
	c0.285,0.396,0.506,0.836,0.739,1.301c0.088,0.174,0.177,0.347,0.266,0.519c0.229,0.427,0.479,0.836,0.723,1.231
	c0.197,0.32,0.383,0.624,0.559,0.938c0.065,0.115,0.138,0.237,0.214,0.362c0.225,0.368,0.361,0.785,0.358,1.11H12
	c0.008-0.713-0.454-1.293-0.768-1.808c-0.068-0.11-0.133-0.217-0.19-0.32c-0.188-0.337-0.39-0.668-0.586-0.987
	c-0.243-0.395-0.474-0.767-0.679-1.157c-0.01-0.018-0.02-0.041-0.031-0.059c0.766,0.531,1.549,1.024,2.336,1.472
	c0.158,0.092,0.332,0.196,0.521,0.307c0.505,0.298,0.785,0.722,1.397,1.011V19h7v-3.042c0.408,0.198,1.52,0.431,1.92,0.658
	c0.842,0.477,1.969,1.085,3.209,1.601c0.059,0.022,0.227,0.131,0.342,0.201c0.436,0.276,0.748,0.457,1.045,0.477L29,19
	L28.018,17.825z M14,10c-0.227-0.269-0.409-0.331-0.708-0.674c-0.141-0.161-0.29-0.335-0.442-0.511
	c0.209,0.083,0.42,0.164,0.637,0.251C13.755,9.171,13.872,9.188,14,9.238V10z M21.705,11.08c0.418,0.052,0.84,0.109,1.254,0.165
	c-0.414,0.076-0.836,0.142-1.254,0.204V11.08z M23.504,15.477c-0.598-0.336-1.43-0.833-2.031-1.108v-1.521
	c0.912-0.134,1.986-0.532,2.893-0.763c0.258,1.394,0.688,2.894,1.121,4.075c0.059,0.149,0.252,0.338,0.33,0.492
	C24.982,16.26,24.105,15.814,23.504,15.477z"/>
</svg>
