<?xml version="1.0" encoding="utf-8"?>
<!-- Generator: Adobe Illustrator 16.0.3, SVG Export Plug-In . SVG Version: 6.00 Build 0)  -->
<!DOCTYPE svg PUBLIC "-//W3C//DTD SVG 1.1//EN" "http://www.w3.org/Graphics/SVG/1.1/DTD/svg11.dtd">
<svg version="1.1" xmlns="http://www.w3.org/2000/svg" xmlns:xlink="http://www.w3.org/1999/xlink" x="0px" y="0px" width="34px"
	 height="34px" viewBox="0 0 34 34" enable-background="new 0 0 34 34" xml:space="preserve">
<g id="Layer_1">
</g>
<g id="Building_Problem_-_In_Progress">
	<circle fill="#FFFFFF" cx="17" cy="17" r="17"/>
	<path fill="#CFAD33" d="M17.001,32c-8.271,0-15-6.732-15-15.002C2.001,8.73,8.73,2,17.001,2c8.271,0,15,6.73,15,14.998
		C32.001,25.268,25.272,32,17.001,32z"/>
	<path fill="#FED53F" d="M17.001,31C9.28,31,3,24.721,3,17S9.28,3,17.001,3C24.721,3,31,9.279,31,17S24.721,31,17.001,31z"/>
	<path fill="#FFFFFF" d="M11,7v19h3v-3h7v3h3V7H11z M14,22h-2v-4h2V22z M14,17h-2v-4h2V17z M14,12h-2V8h2V12z M17,22h-2v-4h2V22z
		 M17,17h-2v-4h2V17z M17,12h-2V8h2V12z M20,22h-2v-4h2V22z M20,17h-2v-4h2V17z M20,12h-2V8h2V12z M23,22h-2v-4h2V22z M23,17h-2v-4
		h2V17z M23,12h-2V8h2V12z"/>
</g>
</svg>
