<?xml version="1.0" encoding="utf-8"?>
<!-- Generator: Adobe Illustrator 16.0.3, SVG Export Plug-In . SVG Version: 6.00 Build 0)  -->
<!DOCTYPE svg PUBLIC "-//W3C//DTD SVG 1.1//EN" "http://www.w3.org/Graphics/SVG/1.1/DTD/svg11.dtd">
<svg version="1.1" id="Call_Cancelled-Incident" xmlns="http://www.w3.org/2000/svg" xmlns:xlink="http://www.w3.org/1999/xlink"
	 x="0px" y="0px" width="24px" height="24px" viewBox="0 0 24 24" enable-background="new 0 0 24 24" xml:space="preserve">
<circle fill="#008B8B" cx="12" cy="12" r="12"/>
<path fill="#FFFFFF" d="M11.9995117,23.0009766c-6.065918,0-10.9985352-4.9365234-10.9985352-11.0014648
	c0-6.0664063,4.9326172-10.9985352,10.9985352-10.9985352s11.0014648,4.9321289,11.0014648,10.9985352
	C23.0009766,18.0644531,18.0654297,23.0009766,11.9995117,23.0009766z"/>
<path fill="#008B8B" d="M10.5708008,20.8144531l-0.953125-4.515625H9.5615234c-0.2631836,0-1.0014648-0.125-1.2255859-0.2988281
	C8.1123047,15.8261719,8,15.5976563,8,15.3134766V8.6879883C8,8.4013672,8.1123047,8.1728516,8.3359375,8
	c0.2241211-0.1723633,0.9624023-0.3017578,1.2255859-0.3017578h0.0273438l0.9536133-4.515625L9.7026367,3L7.4863281,4.2192383
	C6.4956055,7.0869141,6,9.6606445,6,11.9379883c0,2.2788086,0.4956055,4.9116211,1.4863281,7.902832L9.7026367,21
	L10.5708008,20.8144531z"/>
<polygon fill="#008B8B" points="12.9995117,3.9243164 12.0131836,3.6806641 11.0683594,8.1665039 11.9916992,8.2875977 "/>
<polygon fill="#008B8B" points="12.9995117,20.7851563 12.0195313,16.4169922 11.0942383,16.5429688 12.0092773,21 "/>
<g>
	<path fill="#008B8B" d="M18.9619141,15.1884766l-1.4521484-2.1015625l-1.484375,2.1015625
		c-0.2148438,0.2910156-0.3916016,0.5009766-0.5429688,0.6259766C15.3310547,15.9404297,15.1445313,16,14.9169922,16
		c-0.2558594,0-0.4707031-0.0800781-0.6484375-0.2324219C14.0888672,15.6083984,14,15.4326172,14,15.2294922
		c0-0.2060547,0.1386719-0.5019531,0.4082031-0.8886719l1.8076172-2.5498047l-1.6035156-2.1259766
		c-0.2744141-0.3525391-0.4130859-0.65625-0.4130859-0.9160156c0-0.2021484,0.0820313-0.3769531,0.2470703-0.5263672
		C14.6103516,8.0732422,14.8271484,8,15.0976563,8c0.2324219,0,0.4257813,0.0644531,0.5839844,0.1943359
		c0.1484375,0.1298828,0.3300781,0.3339844,0.5341797,0.612793l1.2939453,1.7446289l1.2607422-1.7446289
		c0.2119141-0.2875977,0.3916016-0.4946289,0.546875-0.6201172C19.4697266,8.0615234,19.6591797,8,19.8925781,8
		c0.2626953,0,0.4814453,0.0727539,0.6503906,0.21875c0.1748047,0.1464844,0.2617188,0.3242188,0.2617188,0.5302734
		c0,0.1499023-0.0361328,0.2924805-0.1044922,0.4301758c-0.0742188,0.1352539-0.1816406,0.2983398-0.3261719,0.4858398
		l-1.6035156,2.1259766l1.8085938,2.5498047C20.8574219,14.7421875,21,15.0429688,21,15.2421875
		c0,0.2050781-0.0869141,0.3847656-0.2626953,0.5322266C20.5644531,15.9228516,20.3476563,16,20.0869141,16
		c-0.2275391,0-0.4238281-0.0615234-0.5810547-0.1943359C19.3486328,15.6757813,19.1650391,15.4707031,18.9619141,15.1884766z"/>
</g>
</svg>
