<?xml version="1.0" encoding="utf-8"?>
<!-- Generator: Adobe Illustrator 16.0.3, SVG Export Plug-In . SVG Version: 6.00 Build 0)  -->
<!DOCTYPE svg PUBLIC "-//W3C//DTD SVG 1.1//EN" "http://www.w3.org/Graphics/SVG/1.1/DTD/svg11.dtd">
<svg version="1.1" id="Camera" xmlns="http://www.w3.org/2000/svg" xmlns:xlink="http://www.w3.org/1999/xlink" x="0px" y="0px"
	 width="32px" height="32px" viewBox="0 0 32 32" enable-background="new 0 0 32 32" xml:space="preserve">
<circle fill="#FFFFFF" cx="16" cy="16" r="15"/>
<path fill="#262424" d="M16.001,29.001c-7.171,0-13-5.837-13-13.001c0-7.17,5.829-12.999,13-12.999c7.163,0,13,5.829,13,12.999
	C29.001,23.164,23.164,29.001,16.001,29.001z"/>
<path fill="#424243" d="M16.063,28.021c-6.615,0-12-5.389-12-12c0-6.614,5.386-12,12-12c6.612,0,11.999,5.386,11.999,12
	C28.063,22.633,22.676,28.021,16.063,28.021z"/>
<path fill="#FFFFFF" d="M23,11c-0.219,0-1.931,0-4,0c0,0,0-0.664,0-1.332C19,9.002,18.354,8,17.708,8c-1.284,0-2.137,0-3.421,0
	C13.64,8,13,9.002,13,9.668C13,10.336,13,11,13,11c-2.121,0-3.357,0-4,0c-1.286,0-2,0.666-2,2c0,1.333,0,6.33,0,7.664
	C7,21.335,7.641,22,8.284,22c1.93,0,14.143,0,15.436,0c0.638,0,1.28-0.665,1.28-1.336c0-1.334,0-6.33,0-7.664
	C25,11.604,24.521,11,23,11z M15.998,21c-2.485,0-4.498-2.012-4.498-4.497c0-2.486,2.013-4.503,4.498-4.503
	c2.482,0,4.502,2.017,4.502,4.503C20.5,18.988,18.48,21,15.998,21z"/>
<path fill="#FFFFFF" d="M16,19c-1.651,0-3-1.122-3-2.5c0-1.38,1.349-2.5,3-2.5c1.659,0,3,1.121,3,2.5C19,17.878,17.659,19,16,19z"/>
</svg>
