<?xml version="1.0" encoding="utf-8"?>
<!-- Generator: Adobe Illustrator 16.0.3, SVG Export Plug-In . SVG Version: 6.00 Build 0)  -->
<!DOCTYPE svg PUBLIC "-//W3C//DTD SVG 1.1//EN" "http://www.w3.org/Graphics/SVG/1.1/DTD/svg11.dtd">
<svg version="1.1" id="Catch_Basin_-_Adopted" xmlns="http://www.w3.org/2000/svg" xmlns:xlink="http://www.w3.org/1999/xlink"
	 x="0px" y="0px" width="34px" height="34px" viewBox="0 0 34 34" enable-background="new 0 0 34 34" xml:space="preserve">
<path fill="#FFFFFF" d="M34,17c0,9.385-7.615,17-17,17C7.611,34,0,26.385,0,17C0,7.612,7.611,0,17,0C26.385,0,34,7.612,34,17z"/>
<path fill="#CFAD33" d="M17.006,31C9.279,31,3,24.727,3,17.003C3,9.278,9.279,3,17.006,3C24.729,3,31,9.278,31,17.003
	C31,24.727,24.729,31,17.006,31z"/>
<path fill="#FED53F" d="M17.004,30C9.835,30,4,24.172,4,17.004S9.835,4,17.004,4C24.172,4,30,9.836,30,17.004S24.172,30,17.004,30z"
	/>
<path fill="#FFFFFF" d="M7,9v15h20V9H7z M26,23H8V10h18V23z"/>
<polygon fill="#FFFFFF" points="9.5,10 8,12.5 9.5,15 11,12.5 "/>
<polygon fill="#FFFFFF" points="9.5,14 8,16.5 9.5,19 11,16.5 "/>
<polygon fill="#FFFFFF" points="9.5,18 8,20.5 9.5,23 11,20.5 "/>
<polygon fill="#FFFFFF" points="12.5,10 11,12.5 12.5,15 14,12.5 "/>
<polygon fill="#FFFFFF" points="12.5,14 11,16.5 12.5,19 14,16.5 "/>
<polygon fill="#FFFFFF" points="12.5,18 11,20.5 12.5,23 14,20.5 "/>
<polygon fill="#FFFFFF" points="15.5,10 14,12.5 15.5,15 17,12.5 "/>
<polygon fill="#FFFFFF" points="15.5,14 14,16.5 15.5,19 17,16.5 "/>
<polygon fill="#FFFFFF" points="15.5,18 14,20.5 15.5,23 17,20.5 "/>
<polygon fill="#FFFFFF" points="18.5,10 17,12.5 18.5,15 20,12.5 "/>
<polygon fill="#FFFFFF" points="18.5,14 17,16.5 18.5,19 20,16.5 "/>
<polygon fill="#FFFFFF" points="18.5,18 17,20.5 18.5,23 20,20.5 "/>
<polygon fill="#FFFFFF" points="21.5,10 20,12.5 21.5,15 23,12.5 "/>
<polygon fill="#FFFFFF" points="21.5,14 20,16.5 21.5,19 23,16.5 "/>
<polygon fill="#FFFFFF" points="21.5,18 20,20.5 21.5,23 23,20.5 "/>
<polygon fill="#FFFFFF" points="24.5,10 23,12.5 24.5,15 26,12.5 "/>
<polygon fill="#FFFFFF" points="24.5,14 23,16.5 24.5,19 26,16.5 "/>
<polygon fill="#FFFFFF" points="24.5,18 23,20.5 24.5,23 26,20.5 "/>
</svg>
