<?xml version="1.0" encoding="utf-8"?>
<!-- Generator: Adobe Illustrator 16.0.3, SVG Export Plug-In . SVG Version: 6.00 Build 0)  -->
<!DOCTYPE svg PUBLIC "-//W3C//DTD SVG 1.1//EN" "http://www.w3.org/Graphics/SVG/1.1/DTD/svg11.dtd">
<svg version="1.1" id="Catch_Basin_-_Available" xmlns="http://www.w3.org/2000/svg" xmlns:xlink="http://www.w3.org/1999/xlink"
	 x="0px" y="0px" width="8px" height="8px" viewBox="0 0 8 8" enable-background="new 0 0 8 8" xml:space="preserve">
<path fill="#FFFFFF" d="M8,3.998C8,6.208,6.206,8,4.002,8C1.792,8,0,6.208,0,3.998C0,1.79,1.792,0,4.002,0C6.206,0,8,1.79,8,3.998z"
	/>
<path fill="#00984E" d="M4.003,6.997c-1.657,0-3.002-1.342-3.002-2.999C1.001,2.344,2.347,1,4.003,1c1.65,0,2.992,1.344,2.992,2.998
	C6.995,5.655,5.653,6.997,4.003,6.997z"/>
<path fill="#00BF63" d="M4.001,5.999c-1.102,0-2-0.896-2-2c0-1.101,0.897-1.998,2-1.998c1.1,0,1.998,0.897,1.998,1.998
	C5.999,5.103,5.102,5.999,4.001,5.999z"/>
</svg>
