<?xml version="1.0" encoding="utf-8"?>
<!-- Generator: Adobe Illustrator 16.0.3, SVG Export Plug-In . SVG Version: 6.00 Build 0)  -->
<!DOCTYPE svg PUBLIC "-//W3C//DTD SVG 1.1//EN" "http://www.w3.org/Graphics/SVG/1.1/DTD/svg11.dtd">
<svg version="1.1" id="Catch_Basin_-_Adopted_by_you"
	 xmlns="http://www.w3.org/2000/svg" xmlns:xlink="http://www.w3.org/1999/xlink" x="0px" y="0px" width="17px" height="17px"
	 viewBox="0 0 17 17" enable-background="new 0 0 17 17" xml:space="preserve">
<circle fill="#FFFFFF" cx="8.5" cy="8.5" r="8.5"/>
<path fill="#0882D1" d="M8.501,15.998c-4.139,0-7.503-3.36-7.503-7.498c0-4.138,3.364-7.501,7.503-7.501
	c4.138,0,7.497,3.363,7.497,7.501C15.998,12.638,12.639,15.998,8.501,15.998z"/>
<path fill="#4CA5FF" d="M8.5,14.998c-3.584,0-6.502-2.914-6.502-6.498S4.916,1.998,8.5,1.998c3.584,0,6.498,2.918,6.498,6.502
	S12.084,14.998,8.5,14.998z"/>
<path fill="#FFFFFF" d="M3,5v7h11V5H3z M13,11H4V6h9V11z"/>
<polygon fill="#FFFFFF" points="5.5,6 4,8.5 5.5,11 7,8.5 "/>
<polygon fill="#FFFFFF" points="8.5,6 7,8.5 8.5,11 10,8.5 "/>
<polygon fill="#FFFFFF" points="11.5,6 10,8.5 11.5,11 13,8.5 "/>
</svg>
