<?xml version="1.0" encoding="utf-8"?>
<!-- Generator: Adobe Illustrator 16.0.3, SVG Export Plug-In . SVG Version: 6.00 Build 0)  -->
<!DOCTYPE svg PUBLIC "-//W3C//DTD SVG 1.1//EN" "http://www.w3.org/Graphics/SVG/1.1/DTD/svg11.dtd">
<svg version="1.1" id="Chemical_Attack" xmlns="http://www.w3.org/2000/svg" xmlns:xlink="http://www.w3.org/1999/xlink" x="0px"
	 y="0px" width="40px" height="40px" viewBox="0 0 40 40" enable-background="new 0 0 40 40" xml:space="preserve">
<path opacity="0.75" fill="#FFFFFF" d="M34,15.659c0-1.006-0.095-1.984-0.273-2.932c-0.181-0.95-0.457-1.872-0.826-2.764
	c-0.366-0.895-0.799-1.729-1.299-2.508c-0.5-0.778-1.064-1.499-1.697-2.162c-0.637-0.663-1.326-1.257-2.067-1.779
	c-0.745-0.525-1.544-0.981-2.394-1.365c-0.854-0.384-1.736-0.67-2.643-0.862C21.893,1.095,20.96,1,20,1
	c-0.959,0-1.892,0.095-2.798,0.287c-0.908,0.192-1.787,0.479-2.641,0.862c-0.854,0.384-1.652,0.84-2.396,1.365
	C11.422,4.036,10.734,4.63,10.1,5.293C9.467,5.956,8.9,6.677,8.399,7.455C7.9,8.233,7.468,9.068,7.1,9.963
	c-0.367,0.892-0.641,1.814-0.825,2.764C6.091,13.675,6,14.653,6,15.659c0,1.004,0.091,1.981,0.275,2.932s0.458,1.871,0.825,2.767
	c0.316,0.769,0.683,1.498,1.097,2.183c0.417,0.686,0.881,1.326,1.395,1.924H9.588H9.585l5.205,7.269L19.995,40l5.196-7.251
	l5.188-7.247c0.522-0.604,0.993-1.251,1.413-1.94c0.421-0.692,0.792-1.429,1.109-2.204c0.369-0.896,0.646-1.816,0.826-2.767
	C33.905,17.641,34,16.663,34,15.659z"/>
<path fill="#BF6B04" d="M31.762,13.229c-0.156-0.829-0.395-1.638-0.713-2.414c-0.316-0.782-0.695-1.526-1.131-2.213
	c-0.43-0.678-0.92-1.313-1.455-1.879c-0.551-0.582-1.15-1.103-1.779-1.551c-0.639-0.456-1.334-0.857-2.059-1.19
	c-0.721-0.327-1.475-0.576-2.238-0.739c-0.766-0.164-1.568-0.247-2.386-0.247c-0.819,0-1.621,0.083-2.386,0.247
	c-0.764,0.163-1.515,0.411-2.231,0.738c-0.732,0.334-1.428,0.735-2.068,1.192c-0.63,0.448-1.225,0.968-1.77,1.546
	c-0.542,0.573-1.034,1.206-1.463,1.885C9.654,9.281,9.272,10.026,8.95,10.82c-0.314,0.772-0.554,1.584-0.711,2.413
	C8.081,14.063,8,14.934,8,15.819c0,0.884,0.081,1.754,0.239,2.587c0.157,0.824,0.396,1.637,0.711,2.414
	c0.277,0.682,0.6,1.332,0.957,1.93c0.358,0.598,0.763,1.162,1.202,1.68l2.368,3.348l6.518,9.219l8.812-12.463l0.061-0.07
	c0.443-0.52,0.854-1.09,1.213-1.689c0.371-0.619,0.695-1.273,0.973-1.957c0.314-0.773,0.553-1.582,0.709-2.405
	C31.92,17.568,32,16.696,32,15.819C32,14.94,31.92,14.068,31.762,13.229z"/>
<path fill="#F28705" d="M30.779,13.332c-0.145-0.756-0.363-1.495-0.656-2.203c-0.293-0.72-0.645-1.403-1.047-2.034
	c-0.395-0.617-0.844-1.193-1.334-1.709c-0.506-0.529-1.057-1.005-1.635-1.413c-0.588-0.416-1.225-0.782-1.893-1.086
	c-0.654-0.296-1.34-0.52-2.035-0.667C21.48,4.071,20.748,3.996,20,3.996c-0.749,0-1.481,0.075-2.179,0.224
	c-0.694,0.147-1.377,0.371-2.027,0.665c-0.674,0.305-1.313,0.672-1.904,1.09c-0.576,0.406-1.122,0.88-1.622,1.406
	c-0.498,0.521-0.949,1.1-1.344,1.717c-0.396,0.622-0.749,1.307-1.049,2.038c-0.288,0.703-0.509,1.443-0.654,2.202
	C9.074,14.101,9,14.899,9,15.713c0,0.813,0.074,1.611,0.221,2.377c0.145,0.75,0.365,1.492,0.654,2.201
	c0.259,0.633,0.558,1.23,0.887,1.775s0.702,1.061,1.106,1.536l3.556,4.979l4.57,6.415l7.999-11.223l0.117-0.144
	c0.408-0.473,0.783-0.99,1.115-1.539c0.342-0.565,0.645-1.172,0.902-1.805c0.291-0.705,0.51-1.442,0.652-2.19
	C30.926,17.322,31,16.521,31,15.713C31,14.902,30.926,14.102,30.779,13.332z"/>
<path fill="#FFFFFF" d="M20,16.996c-1.104,0-2-0.896-2-2c0-1.103,0.896-2,2-2c1.101,0,2,0.897,2,2C22,16.1,21.102,16.996,20,16.996
	L20,16.996z"/>
<path fill="#FFFFFF" d="M20.881,12.717l-0.217-0.055c-0.188-0.045-0.593-0.067-0.664-0.069c-0.18,0.007-0.501,0.031-0.667,0.069
	l-0.217,0.052v-1.852C17.864,10.477,17,9.317,17,7.997c0-1.632,1.275-2.95,2.903-3.001h0.01h0.008h0.017h0.021h0.018h0.025
	C21.653,4.996,23,6.342,23,7.997c0,1.321-0.863,2.48-2.115,2.866L20.881,12.717L20.881,12.717z"/>
<path fill="#FFFFFF" d="M26.399,21.947c-0.509,0-1.014-0.135-1.456-0.391c-1.111-0.643-1.669-1.932-1.384-3.175L22,17.482
	l0.149-0.157c0.114-0.122,0.29-0.381,0.383-0.526c0.031-0.059,0.212-0.414,0.263-0.594l0.062-0.209l1.562,0.898
	c0.536-0.497,1.252-0.779,1.986-0.779c0.509,0,1.012,0.135,1.454,0.391c0.676,0.39,1.158,1.019,1.359,1.771
	c0.202,0.753,0.099,1.54-0.29,2.212l-0.025,0.043c-0.003,0.008-0.008,0.016-0.012,0.023c-0.005,0.008-0.007,0.012-0.01,0.016
	C28.346,21.434,27.418,21.947,26.399,21.947L26.399,21.947z"/>
<path fill="#FFFFFF" d="M20.001,19.996c-0.854,0-1.664-0.343-2.342-0.991l-0.203-0.196l1.123-0.813l0.086,0.063
	c0.404,0.293,0.866,0.447,1.335,0.447c0.469,0,0.928-0.154,1.333-0.446l0.086-0.062l1.123,0.815l-0.203,0.193
	C21.662,19.653,20.855,19.996,20.001,19.996L20.001,19.996z"/>
<path fill="#FFFFFF" d="M24.549,15.421l-1.124-0.646l0.002-0.132c0-0.956-0.501-1.815-1.341-2.298l-0.085-0.049L22,10.996
	l0.236,0.099c1.446,0.601,2.381,1.999,2.381,3.563c0,0.171-0.013,0.342-0.035,0.509L24.549,15.421L24.549,15.421z"/>
<path fill="#FFFFFF" d="M15.45,15.417l-0.033-0.254c-0.021-0.166-0.033-0.336-0.033-0.505c0-1.564,0.934-2.963,2.378-3.564
	l0.237-0.098L18,12.293l-0.085,0.049c-0.828,0.477-1.342,1.364-1.342,2.316l0,0.113L15.45,15.417L15.45,15.417z"/>
<path fill="#FFFFFF" d="M13.601,21.947c-1.019,0-1.946-0.514-2.481-1.377c-0.003-0.004-0.005-0.008-0.01-0.016
	c-0.004-0.008-0.009-0.016-0.012-0.023l-0.025-0.043c-0.389-0.672-0.492-1.459-0.29-2.212c0.201-0.752,0.684-1.381,1.359-1.771
	c0.442-0.256,0.945-0.391,1.454-0.391c0.734,0,1.45,0.282,1.986,0.779l1.562-0.898l0.062,0.209c0.051,0.18,0.231,0.535,0.263,0.594
	c0.093,0.146,0.269,0.404,0.383,0.526L18,17.482l-1.56,0.899c0.285,1.243-0.272,2.532-1.384,3.175
	C14.614,21.813,14.109,21.947,13.601,21.947L13.601,21.947z"/>
</svg>
