<?xml version="1.0" encoding="utf-8"?>
<!-- Generator: Adobe Illustrator 16.0.3, SVG Export Plug-In . SVG Version: 6.00 Build 0)  -->
<!DOCTYPE svg PUBLIC "-//W3C//DTD SVG 1.1//EN" "http://www.w3.org/Graphics/SVG/1.1/DTD/svg11.dtd">
<svg version="1.1" id="Civil_Disturbance_Incident" xmlns="http://www.w3.org/2000/svg" xmlns:xlink="http://www.w3.org/1999/xlink"
	 x="0px" y="0px" width="44px" height="44px" viewBox="0 0 44 44" enable-background="new 0 0 44 44" xml:space="preserve">
<path opacity="0.75" fill="#FFFFFF" enable-background="new    " d="M38,16.538c0-1.134-0.105-2.238-0.311-3.309
	c-0.209-1.071-0.521-2.111-0.946-3.119c-0.418-1.009-0.913-1.95-1.484-2.828c-0.569-0.878-1.217-1.691-1.94-2.438
	c-0.727-0.75-1.515-1.418-2.361-2.009c-0.854-0.591-1.766-1.106-2.735-1.538C27.243,0.864,26.235,0.54,25.2,0.324
	C24.163,0.107,23.101,0,22.001,0c-1.097,0-2.163,0.107-3.199,0.324c-1.037,0.216-2.042,0.54-3.018,0.974
	c-0.976,0.432-1.889,0.947-2.737,1.538c-0.849,0.591-1.637,1.259-2.36,2.009c-0.725,0.747-1.373,1.56-1.943,2.438
	c-0.573,0.878-1.066,1.819-1.486,2.828c-0.419,1.007-0.734,2.048-0.943,3.119C6.105,14.3,6,15.404,6,16.538
	c0,1.135,0.105,2.235,0.315,3.309c0.209,1.07,0.524,2.11,0.943,3.12c0.362,0.866,0.778,1.689,1.253,2.462
	c0.476,0.772,1.007,1.495,1.595,2.174h-0.005h-0.005l5.949,8.198L21.994,44l5.937-8.185l5.93-8.172
	c0.6-0.681,1.137-1.411,1.615-2.188c0.479-0.782,0.905-1.613,1.268-2.489c0.425-1.01,0.737-2.05,0.946-3.12
	C37.895,18.773,38,17.673,38,16.538z"/>
<path fill="#1873CD" d="M35.727,13.438c-0.187-0.926-0.464-1.832-0.836-2.698c-0.363-0.875-0.811-1.707-1.318-2.474
	c-0.498-0.757-1.073-1.467-1.697-2.1c-0.643-0.649-1.341-1.231-2.077-1.732c-0.743-0.51-1.556-0.958-2.401-1.33
	c-0.839-0.367-1.718-0.646-2.609-0.827C23.894,2.093,22.957,2,22.002,2s-1.892,0.093-2.784,0.276
	c-0.891,0.182-1.768,0.459-2.604,0.825c-0.855,0.375-1.665,0.821-2.413,1.334c-0.735,0.5-1.428,1.081-2.064,1.727
	c-0.634,0.64-1.207,1.348-1.707,2.106c-0.5,0.757-0.946,1.589-1.322,2.476c-0.366,0.864-0.646,1.771-0.83,2.697
	C8.093,14.37,8,15.342,8,16.331c0,0.989,0.093,1.96,0.279,2.893c0.183,0.921,0.463,1.828,0.829,2.697
	c0.323,0.764,0.701,1.487,1.116,2.155c0.419,0.671,0.891,1.302,1.403,1.878l2.762,3.74L21.994,40l10.281-13.929l0.071-0.08
	c0.517-0.58,0.996-1.218,1.416-1.887c0.434-0.693,0.811-1.423,1.134-2.188c0.366-0.865,0.646-1.767,0.83-2.691
	C35.907,18.287,36,17.313,36,16.331C36,15.35,35.907,14.375,35.727,13.438z"/>
<path fill="#1F8FFF" d="M34.737,13.541c-0.171-0.854-0.43-1.688-0.777-2.487c-0.346-0.812-0.762-1.583-1.234-2.295
	c-0.466-0.699-0.998-1.348-1.577-1.932c-0.599-0.597-1.249-1.134-1.933-1.594c-0.693-0.469-1.443-0.884-2.236-1.225
	c-0.771-0.336-1.582-0.588-2.403-0.755C23.75,3.086,22.884,3,22,3c-0.885,0-1.752,0.086-2.575,0.253
	c-0.822,0.167-1.628,0.419-2.396,0.751c-0.795,0.344-1.554,0.759-2.251,1.23c-0.68,0.459-1.326,0.993-1.917,1.587
	c-0.588,0.589-1.122,1.241-1.587,1.938c-0.47,0.703-0.885,1.475-1.239,2.302c-0.341,0.791-0.601,1.629-0.774,2.484
	C9.088,14.41,9,15.31,9,16.228c0,0.917,0.088,1.824,0.262,2.685c0.17,0.846,0.432,1.683,0.773,2.483
	c0.305,0.719,0.658,1.393,1.047,2.007c0.39,0.614,0.83,1.197,1.308,1.734l4.203,5.621l5.4,7.242l9.452-12.672l0.14-0.161
	c0.481-0.531,0.925-1.115,1.315-1.738c0.405-0.639,0.761-1.322,1.065-2.036c0.345-0.799,0.604-1.632,0.772-2.473
	C34.911,18.047,35,17.141,35,16.228C35,15.313,34.911,14.41,34.737,13.541z"/>
<polygon fill="#FFFFFF" points="34,16.999 22.012,29 10,16.999 22.012,5 "/>
<polygon fill="#1F8FFF" points="25,12 25,14 23,14 23,13 21,13 21,14 19,14 19,12 17,12 17,16 21,16 21,18 23,18 23,16 27,16 27,12 
	"/>
<rect x="23" y="18" fill="#1F8FFF" width="2" height="5"/>
<rect x="19" y="18" fill="#1F8FFF" width="2" height="5"/>
<circle fill="#1F8FFF" cx="22" cy="11" r="2"/>
</svg>
