<?xml version="1.0" encoding="utf-8"?>
<!-- Generator: Adobe Illustrator 16.0.3, SVG Export Plug-In . SVG Version: 6.00 Build 0)  -->
<!DOCTYPE svg PUBLIC "-//W3C//DTD SVG 1.1//EN" "http://www.w3.org/Graphics/SVG/1.1/DTD/svg11.dtd">
<svg version="1.1" id="Community_Events_-_Proposed"
	 xmlns="http://www.w3.org/2000/svg" xmlns:xlink="http://www.w3.org/1999/xlink" x="0px" y="0px" width="34px" height="34px"
	 viewBox="0 0 34 34" enable-background="new 0 0 34 34" xml:space="preserve">
<circle fill="#FFFFFF" cx="17" cy="17" r="15"/>
<path fill="#C70101" d="M17.001,30c-7.168,0-13-5.835-13-13.002C4.001,9.833,9.833,4,17.001,4c7.169,0,13,5.833,13,12.998
	C30.001,24.165,24.17,30,17.001,30z"/>
<path fill="#FC3434" d="M17.001,29C10.383,29,5,23.619,5,17c0-6.617,5.383-12,12.001-12C23.618,5,29,10.383,29,17
	C29,23.619,23.618,29,17.001,29z"/>
<path fill="#FFFFFF" d="M25,12c0-1-1-2-2-2H11c-1,0-2,1-2,2v11c0,1,1,2,2,2c1.575,0,3.419,0,6,0c0,0,5,0,6,0s2-1,2-2
	c0-1.947-0.002-5.695,0-9.25V12z"/>
<path fill="#FC3434" d="M23,22c0,0.736-0.169,1-1.2,1h-9.6c-1.031,0-1.2-0.264-1.2-1v-8c0-0.734,0.169-1,1.2-1h9.6
	c1.031,0,1.2,0.266,1.2,1V22z"/>
<ellipse fill="#FC3434" cx="13" cy="10.75" rx="1" ry="1.25"/>
<path fill="#FFFFFF" d="M22,20c0,1.34-1.034,2-2,2h-6c-0.966,0-2-0.66-2-2v-4c0-1.339,1.034-2,2-2h6c0.966,0,2,0.661,2,2V20z"/>
<ellipse fill="#FC3434" cx="21" cy="10.75" rx="1" ry="1.25"/>
<g>
	<path fill="#FC3434" d="M17,20.353v-3.641c-0.705,0.52-1.311,0.78-1.555,0.78c-0.117,0-0.22-0.045-0.31-0.134S15,17.166,15,17.048
		c0-0.136,0.044-0.236,0.133-0.3s0.245-0.146,0.47-0.248c0.335-0.152,0.604-0.312,0.805-0.48c0.201-0.168,0.379-0.356,0.535-0.564
		c0.155-0.208,0.256-0.336,0.304-0.384C17.294,15.024,17.383,15,17.513,15c0.147,0,0.265,0.055,0.354,0.164
		C17.956,15.273,18,15.424,18,15.616v4.58C18,20.731,17.942,21,17.562,21c-0.169,0-0.306-0.055-0.408-0.164
		C17.052,20.727,17,20.565,17,20.353z"/>
</g>
</svg>
