<?xml version="1.0" encoding="utf-8"?>
<!-- Generator: Adobe Illustrator 16.0.3, SVG Export Plug-In . SVG Version: 6.00 Build 0)  -->
<!DOCTYPE svg PUBLIC "-//W3C//DTD SVG 1.1//EN" "http://www.w3.org/Graphics/SVG/1.1/DTD/svg11.dtd">
<svg version="1.1" id="Construction_-_Permit_Status"
	 xmlns="http://www.w3.org/2000/svg" xmlns:xlink="http://www.w3.org/1999/xlink" x="0px" y="0px" width="40px" height="40px"
	 viewBox="0 0 40 40" enable-background="new 0 0 40 40" xml:space="preserve">
<path opacity="0.75" fill="#FFFFFF" d="M34,15.6591797c0-1.0058594-0.0927734-1.9833984-0.2734375-2.9326172
	c-0.1816406-0.9492188-0.4560547-1.871582-0.8261719-2.7636719c-0.3652344-0.894043-0.7988281-1.7290039-1.2988281-2.5073242
	c-0.4990234-0.7788086-1.0644531-1.5-1.6962891-2.1621094c-0.6376953-0.6630859-1.3261719-1.2573242-2.0693359-1.7797852
	c-0.7441406-0.5239258-1.5419922-0.9790039-2.3925781-1.3642578c-0.8554688-0.3837891-1.7363281-0.6708984-2.6425781-0.8623047
	C21.8925781,1.0952148,20.9609375,1,20.0009766,1s-1.8930664,0.0952148-2.7983398,0.2871094
	c-0.9077148,0.1914063-1.7875977,0.4785156-2.6411133,0.8623047c-0.8540039,0.3852539-1.6523438,0.840332-2.3959961,1.3642578
	c-0.7436523,0.5224609-1.4316406,1.1166992-2.0644531,1.7797852C9.4667969,5.9555664,8.8999023,6.6767578,8.4003906,7.4555664
	c-0.5,0.7783203-0.9316406,1.6132813-1.2998047,2.5073242c-0.3671875,0.8920898-0.6420898,1.8144531-0.8251953,2.7636719
	C6.0917969,13.6757813,6,14.6533203,6,15.6591797c0,1.0043945,0.0917969,1.9814453,0.2753906,2.9326172
	c0.1831055,0.9492188,0.4580078,1.8701172,0.8251953,2.7646484c0.3164063,0.7695313,0.6826172,1.4990234,1.0976563,2.1835938
	c0.4160156,0.6845703,0.8808594,1.3261719,1.3945313,1.9238281H9.5888672h-0.003418l5.2045898,7.2675781L19.9951172,40
	l5.1943359-7.2519531l5.1894531-7.2470703c0.5214844-0.6025391,0.9921875-1.25,1.4121094-1.9394531
	c0.4199219-0.6923828,0.7919922-1.4277344,1.109375-2.2050781c0.3701172-0.8945313,0.6445313-1.8154297,0.8261719-2.7646484
	C33.9072266,17.640625,34,16.6635742,34,15.6591797z"/>
<path fill="#008B8B" d="M31.7617188,13.2333984c-0.15625-0.8286133-0.3945313-1.637207-0.7128906-2.4140625
	c-0.3154297-0.7822266-0.6953125-1.5258789-1.1308594-2.2128906c-0.4287109-0.6777344-0.9199219-1.3120117-1.4541016-1.8789063
	C27.9121094,6.1459961,27.3134766,5.625,26.6845703,5.1767578C26.0458984,4.7211914,25.3505859,4.3198242,24.625,3.9868164
	c-0.7207031-0.3276367-1.4736328-0.5761719-2.2373047-0.7397461C21.6210938,3.0830078,20.8183594,3,20.0009766,3
	c-0.8193359,0-1.6210938,0.0830078-2.3857422,0.2470703c-0.7636719,0.1635742-1.5151367,0.4116211-2.2314453,0.7382813
	c-0.7324219,0.3344727-1.4277344,0.7353516-2.0683594,1.1928711c-0.6298828,0.4482422-1.2246094,0.9672852-1.7700195,1.5458984
	c-0.5419922,0.5727539-1.0336914,1.2060547-1.4624023,1.8842773c-0.4291992,0.6767578-0.8105469,1.4223633-1.1328125,2.2158203
	c-0.3144531,0.7729492-0.5537109,1.5844727-0.7114258,2.4130859C8.0805664,14.0678711,8,14.9375,8,15.8232422
	c0,0.8842773,0.0805664,1.7539063,0.2392578,2.5869141c0.1567383,0.8242188,0.3964844,1.6367188,0.7109375,2.4140625
	c0.2768555,0.6816406,0.5996094,1.3320313,0.956543,1.9296875c0.3588867,0.5976563,0.7631836,1.1621094,1.2026367,1.6796875
	l2.3681641,3.3476563L19.9951172,37l8.8115234-12.4628906l0.0605469-0.0703125
	c0.4443359-0.5195313,0.8535156-1.0898438,1.2138672-1.6894531c0.3710938-0.6191406,0.6953125-1.2734375,0.9726563-1.9570313
	c0.3134766-0.7734375,0.5527344-1.5820313,0.7080078-2.4052734C31.9199219,17.5722656,32,16.7006836,32,15.8232422
	C32,14.9443359,31.9199219,14.0722656,31.7617188,13.2333984z"/>
<path fill="#00BFBF" d="M30.7792969,13.3359375c-0.1445313-0.7553711-0.3632813-1.4946289-0.65625-2.203125
	c-0.2929688-0.7197266-0.6445313-1.4033203-1.046875-2.0336914c-0.3945313-0.6176758-0.84375-1.1938477-1.3339844-1.7094727
	c-0.5058594-0.5292969-1.0566406-1.0048828-1.6347656-1.4130859c-0.5878906-0.4155273-1.2246094-0.7822266-1.8925781-1.0854492
	C23.5605469,4.5952148,22.875,4.371582,22.1796875,4.2236328C21.4804688,4.0756836,20.7480469,4,20,4
	c-0.7490234,0-1.4819336,0.0756836-2.1787109,0.2236328c-0.6948242,0.1479492-1.3774414,0.3710938-2.0273438,0.6650391
	c-0.6738281,0.3051758-1.3139648,0.6723633-1.9042969,1.0898438c-0.5766602,0.4067383-1.1220703,0.8803711-1.6225586,1.4067383
	c-0.4975586,0.5214844-0.9492188,1.0991211-1.3432617,1.7167969c-0.3969727,0.621582-0.7495117,1.3061523-1.0488281,2.0380859
	c-0.2880859,0.7026367-0.5087891,1.4433594-0.6547852,2.2016602C9.0737305,14.1044922,9,14.9033203,9,15.7167969
	c0,0.8125,0.0737305,1.6113281,0.2207031,2.3769531c0.144043,0.75,0.3647461,1.4921875,0.6542969,2.2011719
	c0.2587891,0.6328125,0.5571289,1.2304688,0.8867188,1.7753906c0.3291016,0.5449219,0.7016602,1.0605469,1.1064453,1.5361328
	l3.5551758,4.9785156L19.9941406,35l7.9980469-11.2226563l0.1171875-0.1435547
	c0.4082031-0.4726563,0.7832031-0.9902344,1.1152344-1.5390625c0.3417969-0.5654297,0.6445313-1.171875,0.9023438-1.8046875
	c0.2910156-0.7050781,0.5097656-1.4423828,0.6523438-2.1904297C30.9257813,17.3261719,31,16.5249023,31,15.7167969
	C31,14.9067383,30.9257813,14.105957,30.7792969,13.3359375z"/>
<path fill="#FFFFFF" d="M25.8847656,16.2319336L25.8847656,16.2319336c0.2792969,0.1958008,0.6611328,0.1274414,0.8603516-0.1533203
	l1.9365234-2.7807617c0.1943359-0.277832,0.1269531-0.6630859-0.1503906-0.859375l0,0l-0.5996094-0.4125977l-2.6259766,3.8032227
	L25.8847656,16.2319336z"/>
<path fill="#FFFFFF" d="M13.0004883,21.5722656C13.3730469,22.3652344,14.2080078,22.90625,15.0302734,23l5.1357422-7.3266602
	l-2.0371094-1.4272461L13.0004883,21.5722656z"/>
<path fill="#FFFFFF" d="M24.4785156,13.8173828c0.0361328,0.0512695,0.0703125,0.1020508,0.1015625,0.1547852
	c0.0224609,0.0405273,0.0439453,0.0805664,0.0615234,0.1171875c0.0341797,0.0795898,0.0703125,0.1557617,0.0888672,0.2304688
	c0.7548828-1.0810547,1.515625-2.1611328,2.2724609-3.2426758c0,0-1.7695313,0.215332-2.6962891-1.8901367
	c-0.1904297-0.1337891-0.3896484-0.269043-0.5820313-0.4047852c-2.6660156-1.8642578-5.1962891-2.2460938-7.4008789-1.6450195
	c-0.1201172,0.0336914-0.3598633,0.1118164-0.5795898,0.1845703c-0.3862305,0.1318359-0.3183594,0.7202148,0.1157227,0.6499023
	c0.2050781-0.0351563,0.4130859-0.0703125,0.5146484-0.0756836c0.4204102-0.0185547,0.8222656-0.046875,1.2426758,0.0302734
	c1.7885742,0.34375,3.1933594,1.9726563,2.0209961,3.6459961c-0.3164063,0.4477539-0.9487305,1.3291016-0.9414063,1.3393555
	c0.0039063,0.0073242,2.6655273,1.8466797,2.652832,1.8666992c-0.0761719,0.1064453,0.1796875-0.2387695,0.2636719-0.3457031
	c0.3945313-0.4614258,1.2255859-1.2514648,2.2490234-1.0454102c0.1591797,0.0336914,0.2929688,0.1074219,0.4042969,0.199707
	c0.0546875,0.0478516,0.109375,0.097168,0.1572266,0.1572266C24.4453125,13.7675781,24.4609375,13.793457,24.4785156,13.8173828z"/>
</svg>
