<?xml version="1.0" encoding="utf-8"?>
<!-- Generator: Adobe Illustrator 16.0.3, SVG Export Plug-In . SVG Version: 6.00 Build 0)  -->
<!DOCTYPE svg PUBLIC "-//W3C//DTD SVG 1.1//EN" "http://www.w3.org/Graphics/SVG/1.1/DTD/svg11.dtd">
<svg version="1.1" id="Cooling_Center" xmlns="http://www.w3.org/2000/svg" xmlns:xlink="http://www.w3.org/1999/xlink" x="0px"
	 y="0px" width="40px" height="40px" viewBox="0 0 40 40" enable-background="new 0 0 40 40" xml:space="preserve">
<path opacity="0.75" fill="#FFFFFF" enable-background="new    " d="M33.971,15.673c0-1.004-0.094-1.98-0.272-2.926
	c-0.181-0.948-0.456-1.868-0.824-2.759c-0.365-0.892-0.797-1.726-1.296-2.502s-1.063-1.497-1.694-2.158
	c-0.636-0.661-1.323-1.254-2.063-1.775c-0.743-0.523-1.54-0.978-2.388-1.362c-0.854-0.383-1.733-0.669-2.638-0.861
	C21.889,1.139,20.959,1.044,20,1.044c-0.958,0-1.888,0.094-2.792,0.286c-0.906,0.192-1.784,0.478-2.636,0.861
	c-0.852,0.384-1.649,0.839-2.391,1.362c-0.742,0.521-1.429,1.114-2.061,1.775S8.923,6.709,8.423,7.486
	c-0.498,0.777-0.929,1.61-1.297,2.502c-0.366,0.891-0.64,1.811-0.823,2.759c-0.184,0.946-0.275,1.922-0.275,2.926
	c0,1.001,0.091,1.978,0.275,2.926s0.457,1.867,0.823,2.76c0.316,0.768,0.682,1.495,1.095,2.179c0.416,0.684,0.879,1.323,1.392,1.92
	H9.609H9.606l5.194,7.253l5.194,7.253l5.185-7.236l5.177-7.232c0.521-0.602,0.991-1.248,1.41-1.936c0.42-0.691,0.79-1.426,1.107-2.2
	c0.368-0.894,0.644-1.812,0.824-2.76C33.877,17.651,33.971,16.675,33.971,15.673z"/>
<path fill="#468FD7" d="M31.762,13.233c-0.156-0.829-0.395-1.637-0.713-2.414c-0.316-0.782-0.695-1.526-1.131-2.213
	c-0.43-0.678-0.92-1.312-1.455-1.879c-0.551-0.582-1.15-1.103-1.779-1.551c-0.639-0.456-1.334-0.857-2.059-1.19
	c-0.721-0.328-1.475-0.576-2.238-0.74C21.621,3.083,20.818,3,20.001,3c-0.819,0-1.621,0.083-2.386,0.247
	c-0.764,0.164-1.515,0.412-2.231,0.738c-0.732,0.334-1.428,0.735-2.068,1.193c-0.63,0.448-1.225,0.967-1.77,1.546
	c-0.542,0.573-1.034,1.206-1.463,1.884c-0.429,0.677-0.811,1.422-1.133,2.216c-0.314,0.773-0.554,1.584-0.711,2.413
	C8.081,14.068,8,14.938,8,15.823c0,0.884,0.081,1.754,0.239,2.587c0.157,0.824,0.396,1.637,0.711,2.414
	c0.277,0.682,0.6,1.332,0.957,1.93c0.358,0.598,0.763,1.162,1.202,1.68l2.368,3.348L19.995,37l8.812-12.463l0.061-0.07
	c0.443-0.52,0.854-1.09,1.213-1.689c0.371-0.619,0.695-1.273,0.973-1.957c0.314-0.773,0.553-1.582,0.709-2.405
	C31.92,17.572,32,16.701,32,15.823C32,14.944,31.92,14.072,31.762,13.233z"/>
<path fill="#62B1FF" d="M30.779,13.336c-0.145-0.755-0.363-1.495-0.656-2.203c-0.293-0.72-0.645-1.403-1.047-2.034
	c-0.395-0.618-0.844-1.194-1.334-1.709c-0.506-0.529-1.057-1.005-1.635-1.413c-0.588-0.416-1.225-0.782-1.893-1.085
	c-0.654-0.296-1.34-0.52-2.035-0.667C21.48,4.076,20.748,4,20,4c-0.749,0-1.481,0.076-2.179,0.224
	c-0.694,0.148-1.377,0.371-2.027,0.665c-0.674,0.305-1.313,0.672-1.904,1.09c-0.576,0.407-1.122,0.88-1.622,1.407
	c-0.498,0.521-0.949,1.099-1.344,1.717c-0.396,0.622-0.749,1.306-1.049,2.038c-0.288,0.703-0.509,1.443-0.654,2.202
	C9.074,14.104,9,14.903,9,15.717c0,0.813,0.074,1.612,0.221,2.377c0.145,0.75,0.365,1.492,0.654,2.201
	c0.259,0.633,0.558,1.23,0.887,1.775s0.702,1.061,1.106,1.536l3.556,4.979L19.994,35l7.999-11.223l0.117-0.144
	c0.408-0.473,0.783-0.99,1.115-1.539c0.342-0.565,0.645-1.172,0.902-1.805c0.291-0.705,0.51-1.442,0.652-2.19
	C30.926,17.327,31,16.525,31,15.717C31,14.907,30.926,14.106,30.779,13.336z"/>
<path fill="#FFFFFF" d="M27.027,16.928l-0.74,0.953l-0.773-0.46l0.506-0.854l-0.17-0.854l-0.705,0.328l-0.539,0.887l-0.572-0.329
	l0.336-0.624l-0.572-0.328l-0.369,0.591l-0.572-0.296l1.381-0.919l-1.381-0.985l0.572-0.296l0.369,0.591l0.572-0.328l-0.336-0.624
	l0.572-0.328l0.539,0.887l0.705,0.328l0.17-0.854l-0.506-0.854l0.773-0.46l0.74,0.953l0.74-0.46l0.102-2.103l-1.918-0.985
	l-0.773,0.427l0.471,1.084l-0.773,0.427l-0.537-0.887l-0.809-0.263l-0.102,0.788l0.539,0.887l-0.605,0.328l-0.371-0.624
	l-0.572,0.361l0.371,0.591l-0.572,0.329l-0.102-1.609l-1.582,0.657v-0.624h0.707v-0.69h-0.707V10.03h1.043l0.641-0.46l-0.641-0.559
	h-1.043V8.125l1.178-0.131V7.107L19.895,5.99l-1.852,1.117v0.887l1.179,0.131v0.887h-1.044L17.539,9.57l0.639,0.46h1.044v0.657
	h-0.707v0.69h0.707v0.624l-1.481-0.723l-0.201,1.675L17,12.625l0.337-0.591l-0.572-0.361l-0.37,0.624l-0.605-0.328l0.538-0.887
	l-0.067-0.788l-0.841,0.263l-0.505,0.887l-0.808-0.427l0.471-1.084l-0.773-0.427l-1.918,0.985l0.101,2.103l0.773,0.46l0.707-0.953
	l0.774,0.46l-0.505,0.854l0.168,0.854l0.74-0.328l0.505-0.887l0.605,0.328l-0.369,0.624l0.605,0.328l0.336-0.591l0.572,0.296
	l-1.38,0.919l1.38,0.985l-0.572,0.296l-0.336-0.591l-0.605,0.328l0.369,0.624l-0.605,0.329l-0.505-0.887l-0.74-0.328l-0.168,0.854
	l0.505,0.854l-0.774,0.46l-0.707-0.953l-0.773,0.427l-0.101,2.135l1.918,0.985l0.773-0.427l-0.471-1.084l0.808-0.428l0.505,0.887
	l0.841,0.263l0.067-0.788l-0.538-0.887l0.605-0.328l0.37,0.623l0.572-0.361L17,17.355l0.539-0.329l0.134,1.61l1.549-0.657v0.625
	h-0.707v0.689h0.707v0.656h-1.044l-0.639,0.46l0.639,0.559h1.044v0.887l-1.179,0.132v0.887l1.852,1.117l1.816-1.117v-0.887
	l-1.178-0.132v-0.887h1.043l0.641-0.559l-0.641-0.46h-1.043v-0.656h0.707v-0.689h-0.707v-0.625l1.48,0.723l0.203-1.675l0.572,0.329
	l-0.371,0.59l0.572,0.361l0.371-0.623l0.605,0.328l-0.539,0.887l0.102,0.788l0.809-0.263l0.537-0.887l0.773,0.428l-0.471,1.084
	l0.773,0.427l1.918-0.985l-0.102-2.103L27.027,16.928z M18.125,12.37l0.919,0.306l0.34,1.904l-1.496-1.224L18.125,12.37z
	 M19.033,17.713l-0.952,0.272l-0.204-0.952l1.496-1.224L19.033,17.713z M17.582,15.734l-0.68-0.714l0.714-0.646l1.803,0.68
	L17.582,15.734z M20.724,12.676l0.952-0.272l0.205,0.952l-1.463,1.224L20.724,12.676z M21.621,17.946l-0.918-0.306l-0.306-1.904
	l1.462,1.224L21.621,17.946z M22.129,15.692l-1.802-0.68l1.837-0.68l0.713,0.714L22.129,15.692z"/>
<polygon fill="#62B1FF" points="16.902,15.02 17.582,15.734 19.419,15.054 17.616,14.374 "/>
<polygon fill="#62B1FF" points="19.044,12.676 18.125,12.37 17.888,13.356 19.384,14.58 "/>
<polygon fill="#62B1FF" points="18.081,17.985 19.033,17.713 19.373,15.81 17.877,17.034 "/>
<polygon fill="#62B1FF" points="21.676,12.404 20.724,12.676 20.418,14.58 21.881,13.356 "/>
<polygon fill="#62B1FF" points="20.703,17.641 21.621,17.946 21.859,16.96 20.397,15.736 "/>
<polygon fill="#62B1FF" points="22.164,14.332 20.327,15.012 22.129,15.692 22.877,15.046 "/>
</svg>
