<?xml version="1.0" encoding="utf-8"?>
<!-- Generator: Adobe Illustrator 16.0.3, SVG Export Plug-In . SVG Version: 6.00 Build 0)  -->
<!DOCTYPE svg PUBLIC "-//W3C//DTD SVG 1.1//EN" "http://www.w3.org/Graphics/SVG/1.1/DTD/svg11.dtd">
<svg version="1.1" id="Coral" xmlns="http://www.w3.org/2000/svg" xmlns:xlink="http://www.w3.org/1999/xlink" x="0px" y="0px"
	 width="40px" height="40px" viewBox="0 0 40 40" enable-background="new 0 0 40 40" xml:space="preserve">
<path opacity="0.75" fill="#FFFFFF" d="M34,15.659c0-1.006-0.095-1.984-0.273-2.932c-0.181-0.95-0.457-1.872-0.826-2.764
	c-0.366-0.895-0.799-1.729-1.299-2.508c-0.5-0.778-1.064-1.499-1.697-2.162c-0.637-0.663-1.326-1.257-2.067-1.779
	c-0.745-0.525-1.544-0.981-2.394-1.365c-0.854-0.384-1.736-0.67-2.643-0.862C21.893,1.095,20.96,1,20,1
	c-0.959,0-1.892,0.095-2.798,0.287c-0.908,0.192-1.787,0.479-2.641,0.862c-0.854,0.384-1.652,0.84-2.396,1.365
	C11.422,4.036,10.734,4.63,10.1,5.293C9.467,5.956,8.9,6.677,8.399,7.455C7.9,8.233,7.468,9.068,7.1,9.963
	c-0.367,0.892-0.641,1.814-0.825,2.764C6.091,13.675,6,14.653,6,15.659c0,1.004,0.091,1.981,0.275,2.932s0.458,1.871,0.825,2.767
	c0.316,0.769,0.683,1.498,1.097,2.183c0.417,0.686,0.881,1.326,1.395,1.924H9.588H9.585l5.205,7.269L19.995,40l5.196-7.251
	l5.188-7.247c0.522-0.604,0.993-1.251,1.413-1.94c0.421-0.692,0.792-1.429,1.109-2.204c0.369-0.896,0.646-1.816,0.826-2.767
	C33.905,17.641,34,16.663,34,15.659z"/>
<path fill="#008B8B" d="M31.762,13.233c-0.155-0.829-0.395-1.638-0.713-2.414c-0.316-0.782-0.695-1.526-1.131-2.213
	c-0.43-0.678-0.92-1.313-1.455-1.879c-0.551-0.582-1.15-1.103-1.779-1.551c-0.639-0.456-1.334-0.857-2.059-1.19
	c-0.721-0.327-1.475-0.576-2.238-0.739C21.621,3.083,20.818,3,20.001,3c-0.819,0-1.621,0.083-2.386,0.247
	c-0.764,0.163-1.515,0.411-2.231,0.738c-0.732,0.334-1.428,0.735-2.068,1.192c-0.63,0.448-1.225,0.968-1.77,1.546
	c-0.542,0.573-1.034,1.206-1.463,1.885C9.654,9.285,9.272,10.03,8.95,10.824c-0.314,0.772-0.554,1.584-0.711,2.413
	C8.081,14.067,8,14.938,8,15.823c0,0.884,0.082,1.754,0.239,2.587c0.158,0.824,0.397,1.637,0.711,2.414
	c0.277,0.682,0.6,1.331,0.957,1.93c0.359,0.598,0.763,1.162,1.202,1.68l2.368,3.348L19.995,37l8.812-12.464l0.061-0.069
	c0.443-0.52,0.854-1.09,1.213-1.689c0.371-0.62,0.695-1.273,0.973-1.957c0.314-0.773,0.554-1.582,0.709-2.405
	C31.92,17.572,32,16.7,32,15.823C32,14.944,31.92,14.072,31.762,13.233z"/>
<path fill="#00BFBF" d="M30.779,13.336c-0.145-0.756-0.363-1.495-0.656-2.203c-0.293-0.72-0.645-1.403-1.047-2.035
	c-0.395-0.617-0.844-1.193-1.334-1.708c-0.506-0.529-1.057-1.005-1.635-1.413c-0.588-0.417-1.225-0.783-1.893-1.086
	c-0.654-0.296-1.34-0.52-2.035-0.667C21.48,4.076,20.748,4,20,4c-0.749,0-1.481,0.076-2.179,0.224
	c-0.694,0.147-1.377,0.371-2.027,0.665c-0.674,0.305-1.313,0.672-1.904,1.09c-0.576,0.406-1.122,0.88-1.622,1.406
	c-0.498,0.521-0.949,1.099-1.344,1.716c-0.396,0.623-0.749,1.307-1.049,2.039c-0.288,0.703-0.509,1.443-0.654,2.202
	C9.074,14.104,9,14.903,9,15.717c0,0.813,0.074,1.611,0.221,2.377c0.145,0.75,0.365,1.492,0.654,2.201
	c0.259,0.633,0.558,1.23,0.887,1.775c0.329,0.544,0.702,1.061,1.106,1.536l3.556,4.979L19.994,35l7.999-11.223l0.117-0.144
	c0.408-0.473,0.783-0.99,1.115-1.54c0.342-0.564,0.645-1.171,0.902-1.804c0.291-0.705,0.51-1.442,0.652-2.19
	C30.926,17.326,31,16.524,31,15.717C31,14.906,30.926,14.105,30.779,13.336z"/>
<path fill="#FFFFFF" d="M30.001,14.048c-1.127,1.666-1.688,2.816-1.688,3.452c0,0.179,0,0.33,0,0.453c0,0.124,0,0.256,0,0.398
	l0.953-0.583l0.158,0.157c0,0.392-0.212,0.674-0.634,0.85c-0.248,0.605-0.866,1.134-1.854,1.594
	c-1.378,0.64-2.242,1.099-2.596,1.383c-0.847,0.638-1.27,1.506-1.27,2.603c0,0.248,0.387,0.638,1.164,1.169
	c-0.105,0.106-0.407,0.232-0.9,0.371C22.77,25.967,22.434,26,22.329,26c-0.988,0-1.71-0.052-2.17-0.157l0.689-2.55
	c-0.213-0.39-0.442-0.62-0.689-0.692h-1.112c-0.142,0-0.335,0.026-0.582,0.08c-0.248,0.055-0.503,0.108-0.768,0.16
	c-0.264,0.055-0.52,0.105-0.766,0.159c-0.247,0.052-0.458,0.079-0.634,0.079c-0.282,0-0.528-0.211-0.74-0.637
	c0.211-0.319,1.074-0.673,2.589-1.061c-1.236-0.463-2.066-0.923-2.488-1.383c0.034-0.071,0.053-0.177,0.053-0.32
	c0-0.495-0.212-1.062-0.635-1.7c-0.742,0-1.782-0.033-3.123-0.105l-0.212-0.211l0.265-0.532c0.634,0,1.126,0,1.479,0
	c0.387,0,0.669-0.018,0.845-0.053l0.264-0.319c-0.177-0.143-0.353-0.31-0.528-0.505c-0.177-0.194-0.388-0.433-0.634-0.717
	c-0.422-0.425-0.722-0.904-0.898-1.435c-0.176-0.531-0.264-1.116-0.264-1.754l0.053-0.583c-0.882-0.284-1.322-0.62-1.322-1.01
	l0.37-0.318l0.583,0.213c-0.283-0.354-0.476-0.709-0.582-1.063L11.953,9c0.106,0,0.441,0.744,1.005,2.231h0.371
	c0.177-0.106,0.371-0.22,0.582-0.345c0.212-0.124,0.476-0.275,0.792-0.452l0.37,0.372c0,0.39-0.458,0.815-1.374,1.274h-0.635v0.532
	c-0.036,0.106,0.052,0.284,0.264,0.531c0.211,0.249,0.317,0.514,0.317,0.797v0.106l0.212-0.479l0.37-0.266l0.371,0.319
	c-0.036,0.105-0.106,0.249-0.212,0.425c-0.106,0.177-0.283,0.39-0.528,0.637v0.373c0,0.143,0.123,0.371,0.37,0.69
	c0.282,0.318,0.476,0.497,0.583,0.531c0.423-0.565,0.829-0.851,1.218-0.851l0.529,0.213c-0.106,0.249-0.239,0.541-0.397,0.877
	c-0.159,0.336-0.326,0.735-0.503,1.195c0.67,1.134,1.659,2.162,2.964,3.081c1.024,0.745,1.835,1.329,2.436,1.753
	c0.599,0.426,0.916,0.675,0.952,0.745l0.213-0.425c-0.318-0.958-0.538-1.701-0.663-2.233c-0.123-0.531-0.185-0.842-0.185-0.929
	c0-0.087-0.282-0.255-0.847-0.507c-0.248-0.14-0.459-0.351-0.635-0.636l0.476-0.424c0.424,0.388,0.794,0.636,1.112,0.741
	c0.316-0.211,0.477-0.547,0.477-1.007c0-0.603-0.318-1.258-0.953-1.967l-1.588-1.7l0.211-0.265c0.812,0.39,1.306,0.743,1.482,1.063
	l1.006,1.487c0.316-0.247,0.513-0.565,0.583-0.956v-1.17l-0.212-0.583l-0.741-0.479c-0.354-0.177-0.53-0.407-0.53-0.69l0.054-0.319
	c0.141-0.069,0.264-0.106,0.37-0.106c0.142,0,0.301,0.053,0.477,0.159c-0.247-0.458-0.37-0.867-0.37-1.222
	c0-0.956,0.369-1.435,1.111-1.435l0.264,0.213c-0.034,0.318-0.07,0.584-0.104,0.796c-0.035,0.213-0.052,0.372-0.052,0.479
	c0,0.249,0.299,0.673,0.897,1.275c0.566,0.638,0.849,1.116,0.849,1.435c-0.071,0.177-0.213,0.389-0.424,0.636
	c-0.211,0.249-0.441,0.55-0.688,0.903v0.585c0,0.177,0.043,0.451,0.133,0.824c0.087,0.372,0.131,0.646,0.131,0.824
	c0,0.141-0.212,0.461-0.635,0.956c-0.353,0.496-0.528,0.886-0.528,1.17c0,0.496,0.14,0.813,0.422,0.954
	c0.07,0.037,0.195,0.063,0.372,0.081s0.405,0.026,0.69,0.026c0.456,0,1.126-0.407,2.01-1.22c0.813-0.748,1.219-1.401,1.219-1.966
	c0-0.356-0.072-0.939-0.214-1.755c-0.036-0.388-0.071-0.725-0.106-1.008c-0.034-0.284-0.051-0.532-0.051-0.744
	c0-0.708,0.281-1.346,0.846-1.913l0.371,0.319c-0.072,0.142-0.106,0.311-0.106,0.505s0,0.434,0,0.718l0.265,1.593
	c0.14-0.176,0.335-0.38,0.582-0.611c0.246-0.23,0.51-0.523,0.792-0.876L30.001,14.048z"/>
<g>
	<path fill="#FFFFFF" d="M17.43,10.871c-0.073,0.124-0.136,0.225-0.202,0.333l0.664,0.009c-0.069-0.114-0.143-0.223-0.208-0.341
		H17.43z"/>
	<path fill="#FFFFFF" d="M22.623,10.871c-0.108,0.148-0.195,0.273-0.284,0.4l0.798,0.011l-0.261-0.411H22.623z"/>
</g>
</svg>
