<?xml version="1.0" encoding="utf-8"?>
<!-- Generator: Adobe Illustrator 16.0.3, SVG Export Plug-In . SVG Version: 6.00 Build 0)  -->
<!DOCTYPE svg PUBLIC "-//W3C//DTD SVG 1.1//EN" "http://www.w3.org/Graphics/SVG/1.1/DTD/svg11.dtd">
<svg version="1.1" id="Crab" xmlns="http://www.w3.org/2000/svg" xmlns:xlink="http://www.w3.org/1999/xlink" x="0px" y="0px"
	 width="40px" height="40px" viewBox="0 0 40 40" enable-background="new 0 0 40 40" xml:space="preserve">
<path opacity="0.75" fill="#FFFFFF" d="M34,15.659c0-1.006-0.095-1.984-0.273-2.932c-0.181-0.95-0.457-1.872-0.826-2.764
	c-0.366-0.895-0.799-1.729-1.299-2.508c-0.5-0.778-1.064-1.499-1.697-2.162c-0.637-0.663-1.326-1.257-2.067-1.779
	c-0.745-0.525-1.544-0.981-2.394-1.365c-0.854-0.384-1.736-0.67-2.643-0.862C21.893,1.095,20.96,1,20,1
	c-0.959,0-1.892,0.095-2.798,0.287c-0.908,0.192-1.787,0.479-2.641,0.862c-0.854,0.384-1.652,0.84-2.396,1.365
	C11.422,4.036,10.734,4.63,10.1,5.293C9.467,5.956,8.9,6.677,8.399,7.455C7.9,8.233,7.468,9.068,7.1,9.963
	c-0.367,0.892-0.641,1.814-0.825,2.764C6.091,13.675,6,14.653,6,15.659c0,1.004,0.091,1.981,0.275,2.932s0.458,1.871,0.825,2.767
	c0.316,0.769,0.683,1.498,1.097,2.183c0.417,0.686,0.881,1.326,1.395,1.924H9.588H9.585l5.205,7.269L19.995,40l5.196-7.251
	l5.188-7.247c0.522-0.604,0.993-1.251,1.413-1.94c0.421-0.692,0.792-1.429,1.109-2.204c0.369-0.896,0.646-1.816,0.826-2.767
	C33.905,17.641,34,16.663,34,15.659z"/>
<path fill="#C70101" d="M31.762,13.233c-0.155-0.829-0.395-1.638-0.713-2.414c-0.316-0.782-0.695-1.526-1.131-2.213
	c-0.43-0.678-0.92-1.313-1.455-1.879c-0.551-0.582-1.15-1.103-1.779-1.551c-0.639-0.456-1.334-0.857-2.059-1.19
	c-0.721-0.327-1.475-0.576-2.238-0.739C21.621,3.083,20.818,3,20.001,3c-0.819,0-1.621,0.083-2.386,0.247
	c-0.764,0.163-1.515,0.411-2.231,0.738c-0.732,0.334-1.428,0.735-2.068,1.192c-0.63,0.448-1.225,0.968-1.77,1.546
	c-0.542,0.573-1.034,1.206-1.463,1.885C9.654,9.285,9.272,10.03,8.95,10.824c-0.314,0.772-0.554,1.584-0.711,2.413
	C8.081,14.067,8,14.938,8,15.823c0,0.884,0.082,1.754,0.239,2.587c0.158,0.824,0.397,1.637,0.711,2.414
	c0.277,0.682,0.6,1.331,0.957,1.93c0.359,0.598,0.763,1.162,1.202,1.68l2.368,3.348L19.995,37l8.812-12.464l0.061-0.069
	c0.443-0.52,0.854-1.09,1.213-1.689c0.371-0.62,0.695-1.273,0.973-1.957c0.314-0.773,0.554-1.582,0.709-2.405
	C31.92,17.572,32,16.7,32,15.823C32,14.944,31.92,14.072,31.762,13.233z"/>
<path fill="#FB0101" d="M30.779,13.336c-0.145-0.756-0.363-1.495-0.656-2.203c-0.293-0.72-0.645-1.403-1.047-2.035
	c-0.395-0.617-0.844-1.193-1.334-1.708c-0.506-0.529-1.057-1.005-1.635-1.413c-0.588-0.417-1.225-0.783-1.893-1.086
	c-0.654-0.296-1.34-0.52-2.035-0.667C21.48,4.076,20.748,4,20,4c-0.749,0-1.481,0.076-2.179,0.224
	c-0.694,0.147-1.377,0.371-2.027,0.665c-0.674,0.305-1.313,0.672-1.904,1.09c-0.576,0.406-1.122,0.88-1.622,1.406
	c-0.498,0.521-0.949,1.099-1.344,1.716c-0.396,0.623-0.749,1.307-1.049,2.039c-0.288,0.703-0.509,1.443-0.654,2.202
	C9.074,14.104,9,14.903,9,15.717c0,0.813,0.074,1.611,0.221,2.377c0.145,0.75,0.365,1.492,0.654,2.201
	c0.259,0.633,0.558,1.23,0.887,1.775c0.329,0.544,0.702,1.061,1.106,1.536l3.556,4.979L19.994,35l7.999-11.223l0.117-0.144
	c0.408-0.473,0.783-0.99,1.115-1.54c0.342-0.564,0.645-1.171,0.902-1.804c0.291-0.705,0.51-1.442,0.652-2.19
	C30.926,17.326,31,16.524,31,15.717C31,14.906,30.926,14.105,30.779,13.336z"/>
<path fill="#FFFFFF" d="M18,12l-3.354,1.015c-0.338-0.25-0.538-0.438-0.6-0.564c0.431-0.376,0.854-0.768,1.269-1.175
	c0.416-0.407,0.808-0.862,1.177-1.364c0.154-0.532,0.231-0.892,0.231-1.08l0.185-1.363c0-0.251-0.092-0.408-0.277-0.47L14.6,7.235
	c0.03,0-0.062,0.063-0.277,0.188c-0.277,0.251-0.5,0.463-0.669,0.634c-0.169,0.172-0.3,0.322-0.393,0.447l-0.416,0.33v0.328
	c0,0.282-0.046,0.502-0.139,0.659c-0.031,0.345-0.069,0.627-0.115,0.846c-0.046,0.22-0.1,0.393-0.161,0.518
	c-0.093,0.188-0.193,0.391-0.3,0.61c-0.108,0.221-0.239,0.471-0.393,0.752l1.062,1.457l-1.754,1.316
	c0.092,0.094,0.176,0.157,0.254,0.188c0.076,0.032,0.13,0.063,0.162,0.095l1.984,1.034c-0.308,0.156-0.562,0.281-0.761,0.376
	c-0.201,0.094-0.362,0.172-0.485,0.234c-0.8,0.314-1.2,0.549-1.2,0.705c0,0.032,0.015,0.204,0.046,0.518
	c0.03,0.313,0.092,0.768,0.185,1.363c0.03,0.313,0.054,0.58,0.069,0.799c0.015,0.219,0.023,0.375,0.023,0.47
	c0.062,0.345,0.169,0.516,0.323,0.516c0.215,0,0.323-0.108,0.323-0.328l-0.323-3.102c0.123-0.094,0.23-0.156,0.323-0.188
	c0.215-0.124,0.384-0.21,0.508-0.258c0.123-0.047,0.23-0.086,0.323-0.118c0.708-0.312,1.108-0.517,1.2-0.61l0.911,0.971
	c-1.139,0.846-1.77,1.362-1.892,1.551c0.03,0.094,0.061,0.36,0.092,0.799c0.03,0.188,0.053,0.399,0.069,0.635
	c0.016,0.234,0.039,0.51,0.07,0.824c0.03,0.563,0.061,0.939,0.092,1.128c0.03,0.656,0.154,0.986,0.369,0.986
	c0.215,0,0.323-0.109,0.323-0.33l-0.369-3.854l1.754-1.363l1.52,0.58L15,20.913c0.03,0.125,0.061,0.368,0.092,0.728
	s0.077,0.839,0.139,1.434C15.354,24.36,15.508,25,15.692,25c0.185,0,0.292-0.094,0.324-0.28l-0.37-3.619
	c0.307-0.313,0.523-0.518,0.646-0.612c0.246-0.249,0.454-0.47,0.623-0.657c0.169-0.188,0.361-0.391,0.577-0.611
	C18.938,19.472,19.384,19.938,20,20l2.508-0.827c0.246,0.376,0.445,0.61,0.6,0.704c0.215,0.158,0.384,0.307,0.509,0.447
	c0.122,0.142,0.215,0.228,0.275,0.258c0.154,0.127,0.27,0.235,0.348,0.331c0.075,0.093,0.13,0.155,0.16,0.188l-0.369,3.665
	c0,0.157,0.108,0.234,0.323,0.234c0.186,0,0.292-0.14,0.323-0.421c0.093-1.067,0.169-1.896,0.23-2.493
	C24.969,21.493,25,21.116,25,20.959c0-0.126-0.093-0.267-0.277-0.423c-0.491-0.47-0.884-0.838-1.177-1.105
	c-0.293-0.266-0.455-0.43-0.484-0.493l1.544-0.51c0.399,0.314,0.745,0.58,1.038,0.799c0.292,0.22,0.53,0.408,0.716,0.564
	l-0.278,3.855c0,0.188,0.093,0.279,0.278,0.279c0.185,0,0.292-0.169,0.323-0.515l0.322-3.761c-0.091-0.156-0.2-0.297-0.322-0.422
	c-0.309-0.25-0.594-0.47-0.854-0.659c-0.263-0.188-0.501-0.376-0.716-0.563l0.933-0.947c0.247,0.22,0.478,0.346,0.693,0.376
	c1.046,0.47,1.584,0.752,1.615,0.846l-0.322,2.679c0,0.219,0.091,0.329,0.275,0.329c0.093,0,0.162-0.046,0.208-0.142
	c0.047-0.095,0.084-0.203,0.115-0.329c0.031-0.125,0.054-0.258,0.069-0.399s0.023-0.242,0.023-0.306
	c0.03-0.062,0.046-0.125,0.046-0.187v-0.189c0.093-1.221,0.169-1.802,0.23-1.739c0-0.124-0.154-0.25-0.462-0.376
	c-0.368-0.156-0.722-0.312-1.061-0.47c-0.339-0.156-0.646-0.312-0.923-0.47c0.154-0.093,0.276-0.165,0.369-0.212
	s0.168-0.101,0.23-0.164c0.615-0.345,1.068-0.611,1.361-0.8c0.293-0.188,0.454-0.297,0.484-0.328l-1.615-1.176l0.97-1.409
	c-0.155-0.376-0.293-0.697-0.415-0.964c-0.123-0.266-0.231-0.493-0.324-0.682c-0.092-0.501-0.153-0.924-0.184-1.269
	c-0.031-0.344-0.047-0.594-0.047-0.752c-0.061-0.062-0.101-0.093-0.115-0.093c-0.016,0-0.038-0.016-0.069-0.048
	c-0.309-0.282-0.569-0.517-0.784-0.704C26.2,7.893,26.03,7.736,25.908,7.611l-0.415-0.33h-2.262c-0.031,0-0.047,0.032-0.047,0.095
	c0,0.094,0.016,0.259,0.047,0.493c0.03,0.235,0.075,0.525,0.139,0.869c0.062,0.439,0.092,0.785,0.092,1.035
	c0.03,0.095,0.07,0.157,0.115,0.188c0.046,0.031,0.085,0.063,0.116,0.094c0.677,0.846,1.153,1.395,1.43,1.645l0.23,0.141
	c0.247,0.094,0.408,0.211,0.485,0.353c0.077,0.141,0.162,0.242,0.255,0.306c-0.125,0.157-0.231,0.289-0.324,0.398
	c-0.092,0.11-0.169,0.181-0.23,0.212L22,12v-1h-1v1h-2v-1h-1V12z"/>
</svg>
