<?xml version="1.0" encoding="utf-8"?>
<!-- Generator: Adobe Illustrator 16.0.3, SVG Export Plug-In . SVG Version: 6.00 Build 0)  -->
<!DOCTYPE svg PUBLIC "-//W3C//DTD SVG 1.1//EN" "http://www.w3.org/Graphics/SVG/1.1/DTD/svg11.dtd">
<svg version="1.1" id="Criminal_Activity_Incident" xmlns="http://www.w3.org/2000/svg" xmlns:xlink="http://www.w3.org/1999/xlink"
	 x="0px" y="0px" width="44px" height="44px" viewBox="0 0 44 44" enable-background="new 0 0 44 44" xml:space="preserve">
<path opacity="0.75" fill="#FFFFFF" enable-background="new    " d="M38,16.538c0-1.134-0.104-2.238-0.311-3.309
	c-0.208-1.071-0.521-2.111-0.946-3.119c-0.418-1.009-0.914-1.95-1.484-2.828c-0.569-0.878-1.216-1.691-1.94-2.438
	c-0.727-0.75-1.516-1.418-2.361-2.009c-0.853-0.591-1.766-1.106-2.735-1.538C27.244,0.864,26.235,0.54,25.2,0.324
	C24.163,0.107,23.1,0,22.002,0s-2.164,0.107-3.2,0.324c-1.037,0.216-2.042,0.54-3.019,0.974c-0.976,0.432-1.888,0.947-2.737,1.538
	c-0.85,0.591-1.637,1.259-2.36,2.009c-0.725,0.747-1.373,1.56-1.942,2.438c-0.573,0.878-1.066,1.819-1.486,2.828
	c-0.419,1.007-0.734,2.048-0.943,3.119C6.105,14.3,6,15.404,6,16.538c0,1.135,0.105,2.235,0.315,3.309
	c0.209,1.07,0.524,2.11,0.943,3.12c0.362,0.866,0.778,1.689,1.253,2.462c0.477,0.772,1.008,1.495,1.595,2.174h-0.005h-0.004
	l5.948,8.198L21.994,44l5.936-8.185l5.932-8.172c0.599-0.681,1.137-1.411,1.614-2.188c0.479-0.782,0.905-1.613,1.268-2.489
	c0.425-1.01,0.738-2.05,0.946-3.12C37.896,18.773,38,17.673,38,16.538z"/>
<path fill="#1873CD" d="M35.726,13.438c-0.187-0.926-0.463-1.831-0.835-2.698c-0.364-0.875-0.813-1.706-1.318-2.473
	c-0.499-0.759-1.073-1.467-1.698-2.102c-0.642-0.648-1.341-1.231-2.077-1.731c-0.742-0.509-1.556-0.958-2.401-1.331
	c-0.839-0.366-1.718-0.645-2.608-0.827C23.893,2.094,22.957,2,22.002,2c-0.956,0-1.893,0.094-2.785,0.276
	c-0.89,0.183-1.768,0.46-2.604,0.825c-0.854,0.375-1.665,0.823-2.412,1.335c-0.736,0.5-1.428,1.08-2.064,1.727
	C11.503,6.801,10.93,7.51,10.43,8.269c-0.5,0.756-0.946,1.589-1.322,2.475c-0.366,0.865-0.646,1.771-0.83,2.697
	C8.092,14.37,8,15.341,8,16.331c0,0.989,0.092,1.96,0.279,2.89c0.183,0.924,0.463,1.828,0.829,2.701
	c0.323,0.764,0.701,1.486,1.116,2.154c0.419,0.668,0.891,1.303,1.403,1.879l2.762,3.74L21.994,40l10.282-13.932l0.069-0.078
	c0.516-0.578,0.996-1.217,1.417-1.887c0.431-0.691,0.811-1.422,1.132-2.186c0.368-0.869,0.646-1.77,0.831-2.691
	C35.906,18.285,36,17.312,36,16.331C36,15.35,35.906,14.374,35.726,13.438z"/>
<path fill="#1F8FFF" d="M34.737,13.541c-0.171-0.854-0.431-1.688-0.777-2.487c-0.346-0.812-0.763-1.583-1.234-2.295
	c-0.466-0.699-0.998-1.348-1.576-1.932c-0.6-0.597-1.25-1.134-1.933-1.594c-0.694-0.469-1.443-0.884-2.237-1.225
	c-0.771-0.336-1.582-0.588-2.402-0.755C23.751,3.086,22.883,3,22,3c-0.884,0-1.751,0.086-2.574,0.253
	c-0.822,0.167-1.628,0.419-2.397,0.751c-0.795,0.344-1.553,0.759-2.25,1.23c-0.681,0.459-1.326,0.993-1.917,1.587
	c-0.588,0.589-1.122,1.241-1.587,1.938c-0.469,0.703-0.885,1.475-1.238,2.302c-0.341,0.791-0.602,1.629-0.775,2.484
	C9.087,14.41,9,15.31,9,16.228c0,0.917,0.087,1.824,0.261,2.685c0.17,0.846,0.433,1.683,0.774,2.483
	c0.304,0.719,0.657,1.393,1.047,2.007c0.39,0.614,0.83,1.197,1.308,1.734l4.202,5.621l5.4,7.242l9.453-12.672l0.141-0.161
	c0.48-0.531,0.924-1.115,1.313-1.738c0.408-0.639,0.763-1.322,1.067-2.036c0.344-0.799,0.604-1.632,0.772-2.473
	C34.91,18.047,35,17.141,35,16.228C35,15.313,34.91,14.41,34.737,13.541z"/>
<polygon fill="#FFFFFF" points="34,16.999 22.012,29 10,16.999 22.012,5 "/>
<path fill="#1F8FFF" d="M29.911,18.261c0,0.155-0.005,0.306-0.02,0.446c-0.015,0.135-0.03,0.27-0.061,0.4
	c-0.087,0.357-0.224,0.664-0.401,0.919c-0.183,0.257-0.383,0.467-0.603,0.63c-0.219,0.164-0.448,0.293-0.687,0.385
	c-0.239,0.094-0.454,0.162-0.647,0.201c-0.117,0.249-0.316,0.373-0.6,0.373c-0.284,0-0.498-0.109-0.641-0.334
	c-0.229-0.054-0.491-0.139-0.784-0.256c-0.288-0.121-0.562-0.296-0.82-0.536c-0.259-0.233-0.477-0.54-0.658-0.917
	c-0.178-0.375-0.269-0.853-0.269-1.428c0-0.463,0.067-0.848,0.212-1.156c0.141-0.31,0.323-0.576,0.541-0.8l-0.079-1.5l1.277-0.59
	h1.976l0.947,0.394l0.076,1.264c0.283,0.183,0.531,0.412,0.734,0.68c0.209,0.269,0.355,0.603,0.447,0.996L29.911,18.261z"/>
<path fill="#FFFFFF" d="M27.357,19.937c0.154-0.038,0.328-0.102,0.522-0.187c0.192-0.084,0.374-0.207,0.54-0.368
	c0.169-0.161,0.312-0.368,0.426-0.615c0.117-0.245,0.174-0.544,0.174-0.895c0-0.39-0.064-0.713-0.193-0.973
	c-0.13-0.259-0.285-0.472-0.464-0.634c-0.18-0.163-0.375-0.282-0.579-0.359c-0.209-0.08-0.387-0.13-0.544-0.157l-1.161,0.039
	c-0.141,0.053-0.298,0.123-0.476,0.214c-0.172,0.092-0.337,0.214-0.492,0.371c-0.155,0.156-0.284,0.354-0.386,0.592
	c-0.103,0.243-0.155,0.533-0.155,0.869c0,0.404,0.063,0.736,0.185,1.004c0.122,0.262,0.274,0.477,0.455,0.644
	c0.18,0.161,0.375,0.279,0.58,0.356c0.206,0.078,0.402,0.122,0.581,0.137c0.128-0.129,0.296-0.191,0.504-0.191
	c0.075,0,0.159,0.005,0.25,0.026C27.215,19.83,27.29,19.873,27.357,19.937z"/>
<path fill="#1F8FFF" d="M21.189,18.261c0,0.155-0.005,0.306-0.02,0.446c-0.015,0.135-0.03,0.27-0.061,0.4
	c-0.087,0.357-0.224,0.664-0.401,0.919c-0.183,0.257-0.383,0.467-0.603,0.63c-0.219,0.164-0.448,0.293-0.687,0.385
	c-0.239,0.094-0.454,0.162-0.647,0.201c-0.117,0.249-0.316,0.373-0.6,0.373c-0.284,0-0.498-0.109-0.641-0.334
	c-0.229-0.054-0.491-0.139-0.784-0.256c-0.288-0.121-0.562-0.296-0.82-0.536c-0.259-0.233-0.477-0.54-0.658-0.917
	C15.091,19.197,15,18.72,15,18.145c0-0.463,0.067-0.848,0.212-1.156c0.141-0.31,0.323-0.576,0.541-0.8l-0.079-1.5l1.277-0.59h1.976
	l0.947,0.394l0.076,1.264c0.283,0.183,0.531,0.412,0.734,0.68c0.209,0.269,0.355,0.603,0.447,0.996L21.189,18.261z"/>
<path fill="#FFFFFF" d="M18.636,19.937c0.154-0.038,0.328-0.102,0.522-0.187c0.192-0.084,0.374-0.207,0.54-0.368
	c0.169-0.161,0.312-0.368,0.426-0.615c0.117-0.245,0.174-0.544,0.174-0.895c0-0.39-0.064-0.713-0.193-0.973
	c-0.13-0.259-0.285-0.472-0.464-0.634c-0.18-0.163-0.375-0.282-0.579-0.359c-0.209-0.08-0.387-0.13-0.544-0.157l-1.161,0.039
	c-0.141,0.053-0.298,0.123-0.476,0.214c-0.172,0.092-0.337,0.214-0.492,0.371c-0.155,0.156-0.284,0.354-0.386,0.592
	c-0.103,0.243-0.155,0.533-0.155,0.869c0,0.404,0.063,0.736,0.185,1.004c0.122,0.262,0.274,0.477,0.455,0.644
	c0.18,0.161,0.375,0.279,0.58,0.356c0.206,0.078,0.402,0.122,0.581,0.137c0.128-0.129,0.296-0.191,0.504-0.191
	c0.075,0,0.159,0.005,0.25,0.026C18.493,19.83,18.568,19.873,18.636,19.937z"/>
<path fill="#1F8FFF" d="M27.216,12.764c-0.042-0.332-0.151-0.583-0.331-0.749c-0.04-0.039-0.082-0.072-0.122-0.105
	c-0.041-0.031-0.097-0.061-0.166-0.087l-0.185-0.038l-0.124,0.038l-0.533-0.711c0.04-0.038,0.068-0.076,0.091-0.113
	c0.018-0.041,0.043-0.079,0.073-0.117v-0.116c0-0.166-0.083-0.32-0.247-0.459c-0.166-0.143-0.391-0.252-0.682-0.328
	c-0.082-0.025-0.165-0.049-0.246-0.067c-0.083-0.019-0.157-0.03-0.227-0.03c-0.191,0-0.361,0.041-0.516,0.116
	c-0.148,0.077-0.247,0.185-0.287,0.327h-2.881l-0.04,0.309h2.961c0.07,0.128,0.176,0.242,0.319,0.344
	c0.142,0.104,0.317,0.187,0.526,0.251c0.093,0.026,0.18,0.045,0.258,0.056c0.076,0.015,0.146,0.02,0.214,0.02
	c0.071,0,0.131-0.004,0.186-0.02c0.057-0.011,0.117-0.03,0.187-0.056l0.597,0.787c-0.139,0.166-0.205,0.38-0.205,0.636
	c0,0.037,0,0.083,0,0.132c0,0.053,0.012,0.11,0.042,0.173c0,0.105,0.016,0.196,0.054,0.278c0.032,0.085,0.068,0.166,0.109,0.241
	c0.04,0.079,0.089,0.147,0.146,0.211c0.051,0.064,0.114,0.109,0.185,0.135c0.067,0.039,0.126,0.061,0.174,0.068
	c0.046,0.008,0.106,0.011,0.176,0.011c0.07-0.026,0.129-0.048,0.185-0.067s0.104-0.062,0.145-0.126l0.123-0.193
	c0.026-0.064,0.042-0.113,0.042-0.151c0-0.053,0.012-0.123,0.04-0.214c0-0.064,0-0.128,0-0.192
	C27.256,12.893,27.24,12.828,27.216,12.764z"/>
<path fill="#1F8FFF" d="M20.834,10.325c-0.04-0.142-0.139-0.25-0.287-0.327c-0.154-0.076-0.324-0.116-0.516-0.116
	c-0.069,0-0.144,0.011-0.227,0.03c-0.081,0.018-0.164,0.042-0.246,0.067c-0.291,0.076-0.516,0.185-0.682,0.328
	c-0.164,0.14-0.247,0.294-0.247,0.459v0.116c0.03,0.038,0.056,0.076,0.073,0.117c0.022,0.037,0.051,0.075,0.091,0.113l-0.533,0.711
	l-0.124-0.038l-0.185,0.038c-0.069,0.026-0.125,0.056-0.166,0.087c-0.04,0.033-0.082,0.066-0.122,0.105
	c-0.18,0.166-0.289,0.417-0.331,0.749c-0.024,0.064-0.04,0.128-0.04,0.192c0,0.064,0,0.127,0,0.192
	c0.028,0.091,0.04,0.161,0.04,0.214c0,0.038,0.016,0.087,0.042,0.151l0.123,0.193c0.041,0.064,0.089,0.107,0.145,0.126
	s0.114,0.042,0.185,0.067c0.069,0,0.13-0.003,0.176-0.011c0.048-0.007,0.106-0.029,0.174-0.068c0.07-0.026,0.134-0.07,0.185-0.135
	c0.058-0.064,0.106-0.132,0.146-0.211c0.041-0.076,0.077-0.156,0.109-0.241c0.038-0.082,0.054-0.173,0.054-0.278
	c0.03-0.063,0.042-0.12,0.042-0.173c0-0.049,0-0.095,0-0.132c0-0.256-0.066-0.47-0.205-0.636l0.597-0.787
	c0.069,0.026,0.13,0.045,0.187,0.056c0.055,0.015,0.114,0.02,0.186,0.02c0.068,0,0.138-0.004,0.214-0.02
	c0.078-0.011,0.165-0.03,0.258-0.056c0.209-0.064,0.385-0.146,0.526-0.251c0.144-0.102,0.249-0.216,0.319-0.344"/>
</svg>
