<?xml version="1.0" encoding="utf-8"?>
<!-- Generator: Adobe Illustrator 16.0.3, SVG Export Plug-In . SVG Version: 6.00 Build 0)  -->
<!DOCTYPE svg PUBLIC "-//W3C//DTD SVG 1.1//EN" "http://www.w3.org/Graphics/SVG/1.1/DTD/svg11.dtd">
<svg version="1.1" id="Cyber_Incident" xmlns="http://www.w3.org/2000/svg" xmlns:xlink="http://www.w3.org/1999/xlink" x="0px"
	 y="0px" width="40px" height="40px" viewBox="0 0 40 40" enable-background="new 0 0 40 40" xml:space="preserve">
<path opacity="0.75" fill="#FFFFFF" d="M34,15.659c0-1.006-0.095-1.984-0.273-2.932c-0.181-0.95-0.457-1.872-0.826-2.764
	c-0.366-0.895-0.799-1.729-1.299-2.508c-0.5-0.778-1.064-1.499-1.697-2.162c-0.637-0.663-1.326-1.257-2.067-1.779
	c-0.745-0.525-1.544-0.981-2.394-1.365c-0.854-0.384-1.736-0.67-2.643-0.862C21.893,1.095,20.96,1,20,1
	c-0.959,0-1.892,0.095-2.798,0.287c-0.908,0.192-1.787,0.479-2.641,0.862c-0.854,0.384-1.652,0.84-2.396,1.365
	C11.422,4.036,10.734,4.63,10.1,5.293C9.467,5.956,8.9,6.677,8.399,7.455C7.9,8.233,7.468,9.068,7.1,9.963
	c-0.367,0.892-0.641,1.814-0.825,2.764C6.091,13.675,6,14.653,6,15.659c0,1.004,0.091,1.981,0.275,2.932s0.458,1.871,0.825,2.767
	c0.316,0.769,0.683,1.498,1.097,2.183c0.417,0.686,0.881,1.326,1.395,1.924H9.588H9.585l5.205,7.269L19.995,40l5.196-7.251
	l5.188-7.247c0.522-0.604,0.993-1.251,1.413-1.94c0.421-0.692,0.792-1.429,1.109-2.204c0.369-0.896,0.646-1.816,0.826-2.767
	C33.905,17.641,34,16.663,34,15.659z"/>
<path fill="#BF9004" d="M31.786,13.214c-0.156-0.831-0.396-1.641-0.715-2.419c-0.316-0.784-0.696-1.529-1.133-2.217
	c-0.431-0.679-0.922-1.315-1.458-1.883c-0.552-0.583-1.153-1.105-1.783-1.554c-0.64-0.457-1.337-0.859-2.063-1.193
	c-0.723-0.328-1.478-0.577-2.243-0.741C21.624,3.043,20.82,2.96,20.001,2.96c-0.821,0-1.625,0.083-2.391,0.248
	c-0.765,0.164-1.518,0.412-2.236,0.74c-0.734,0.335-1.431,0.737-2.073,1.195c-0.631,0.449-1.227,0.97-1.773,1.549
	C10.985,7.266,10.492,7.9,10.063,8.58c-0.43,0.678-0.812,1.425-1.135,2.22c-0.315,0.774-0.555,1.587-0.712,2.418
	c-0.158,0.832-0.24,1.704-0.24,2.591c0,0.886,0.082,1.758,0.24,2.592c0.158,0.826,0.397,1.64,0.712,2.419
	c0.278,0.683,0.601,1.334,0.959,1.934c0.359,0.599,0.765,1.164,1.205,1.683l2.373,3.354l6.531,9.238l8.83-12.489l0.061-0.07
	c0.444-0.521,0.855-1.092,1.215-1.692c0.372-0.621,0.697-1.276,0.975-1.961c0.315-0.775,0.555-1.585,0.711-2.41
	c0.158-0.844,0.238-1.718,0.238-2.597C32.024,14.929,31.944,14.055,31.786,13.214z"/>
<path fill="#F3B705" d="M30.802,13.317c-0.146-0.757-0.364-1.499-0.658-2.208c-0.293-0.722-0.646-1.406-1.049-2.039
	c-0.396-0.619-0.846-1.196-1.337-1.712c-0.507-0.53-1.059-1.007-1.638-1.416c-0.589-0.417-1.228-0.784-1.896-1.088
	c-0.655-0.296-1.343-0.521-2.039-0.668C21.483,4.038,20.749,3.962,20,3.962c-0.75,0-1.484,0.076-2.183,0.224
	c-0.696,0.148-1.38,0.372-2.032,0.667c-0.675,0.305-1.316,0.673-1.908,1.092c-0.577,0.407-1.125,0.882-1.625,1.409
	c-0.499,0.522-0.951,1.102-1.346,1.72c-0.397,0.624-0.75,1.309-1.051,2.042c-0.289,0.705-0.51,1.446-0.656,2.207
	c-0.146,0.764-0.221,1.564-0.221,2.38c0,0.814,0.074,1.615,0.221,2.382c0.145,0.751,0.366,1.495,0.656,2.206
	c0.259,0.634,0.559,1.233,0.889,1.779s0.704,1.063,1.109,1.54l3.563,4.988l4.58,6.429l8.015-11.246l0.117-0.144
	c0.409-0.474,0.785-0.992,1.117-1.543c0.343-0.566,0.646-1.174,0.904-1.808c0.292-0.707,0.511-1.445,0.654-2.195
	c0.146-0.775,0.221-1.579,0.221-2.388C31.022,14.891,30.948,14.088,30.802,13.317z"/>
<path fill="#FFFFFF" d="M22,23h-4c0,0.472-0.064,0.958-0.293,1.2H16V26h8v-1.8h-1.706C22.065,23.958,22,23.47,22,23z"/>
<path fill="#FFFFFF" d="M11,9l0.077,12.89L29,22V9H11z M28,20H12V10h16V20z"/>
<rect x="19" y="11" fill="#FFFFFF" width="2" height="5"/>
<rect x="19" y="17" fill="#FFFFFF" width="2" height="2"/>
</svg>
