<?xml version="1.0" encoding="utf-8"?>
<!-- Generator: Adobe Illustrator 16.0.3, SVG Export Plug-In . SVG Version: 6.00 Build 0)  -->
<!DOCTYPE svg PUBLIC "-//W3C//DTD SVG 1.1//EN" "http://www.w3.org/Graphics/SVG/1.1/DTD/svg11.dtd">
<svg version="1.1" id="Damage_Assessment_-_Electric_-_Urgent"
	 xmlns="http://www.w3.org/2000/svg" xmlns:xlink="http://www.w3.org/1999/xlink" x="0px" y="0px" width="40px" height="40px"
	 viewBox="0 0 40 40" enable-background="new 0 0 40 40" xml:space="preserve">
<path opacity="0.75" fill="#FFFFFF" d="M34,15.6635742c0-1.0063477-0.0947266-1.984375-0.2734375-2.9326172
	c-0.1806641-0.9501953-0.4570313-1.871582-0.8261719-2.7646484c-0.3662109-0.8935547-0.7988281-1.7290039-1.2988281-2.5073242
	s-1.0644531-1.5-1.6972656-2.1621094c-0.6367188-0.6625977-1.3261719-1.2573242-2.0673828-1.7792969
	c-0.7451172-0.5239258-1.5439453-0.9799805-2.3935547-1.3647461c-0.8544922-0.3833008-1.7363281-0.6699219-2.6425781-0.8623047
	c-0.9082031-0.1918945-1.840332-0.2861328-2.800293-0.2861328c-0.9594727,0-1.8920898,0.0942383-2.7983398,0.2861328
	c-0.9077148,0.1923828-1.7871094,0.4790039-2.6411133,0.8623047c-0.8540039,0.3847656-1.6523438,0.8408203-2.3955078,1.3647461
	c-0.7431641,0.5219727-1.4316406,1.1166992-2.0654297,1.7792969C9.4667969,5.9589844,8.8999023,6.6806641,8.3994141,7.4589844
	C7.9003906,8.2373047,7.4682617,9.0727539,7.1000977,9.9663086c-0.3671875,0.8930664-0.6411133,1.8144531-0.8251953,2.7646484
	c-0.184082,0.9482422-0.2753906,1.9262695-0.2753906,2.9326172c0,1.003418,0.0913086,1.9814453,0.2753906,2.9316406
	s0.4580078,1.8706055,0.8251953,2.7661133c0.3164063,0.7685547,0.6831055,1.4980469,1.097168,2.1826172
	c0.4169922,0.6855469,0.8808594,1.3261719,1.3945313,1.9248047H9.5878906H9.5849609l5.2045898,7.2675781l5.2050781,7.2675781
	l5.1958008-7.2509766l5.1875-7.2470703c0.5224609-0.6035156,0.9931641-1.2509766,1.4130859-1.9404297
	c0.4208984-0.6923828,0.7919922-1.4287109,1.109375-2.2041016c0.3691406-0.8955078,0.6455078-1.815918,0.8261719-2.7661133
	C33.9052734,17.6450195,34,16.6669922,34,15.6635742z"/>
<path fill="#AE0101" d="M31.7617188,13.2333984c-0.15625-0.8286133-0.3945313-1.637207-0.7128906-2.4140625
	c-0.3164063-0.7822266-0.6953125-1.5258789-1.1308594-2.2128906c-0.4296875-0.6777344-0.9199219-1.3120117-1.4550781-1.8789063
	C27.9121094,6.1459961,27.3125,5.625,26.6835938,5.1767578C26.0449219,4.7211914,25.3496094,4.3198242,24.625,3.9868164
	c-0.7207031-0.3276367-1.4746094-0.5761719-2.2382813-0.7397461C21.6210938,3.0830078,20.8183594,3,20.0009766,3
	c-0.8193359,0-1.6210938,0.0830078-2.3857422,0.2470703c-0.7636719,0.1635742-1.5146484,0.4116211-2.2314453,0.7382813
	c-0.7324219,0.3344727-1.4277344,0.7353516-2.0683594,1.1928711c-0.6298828,0.4482422-1.2246094,0.9672852-1.7695313,1.5458984
	c-0.5419922,0.5727539-1.0341797,1.2060547-1.4628906,1.8842773c-0.4287109,0.6767578-0.8105469,1.4223633-1.1328125,2.2158203
	c-0.3144531,0.7729492-0.5537109,1.5844727-0.7109375,2.4130859C8.0810547,14.0678711,8,14.9375,8,15.8232422
	c0,0.8842773,0.0810547,1.7539063,0.2392578,2.5869141c0.1572266,0.8242188,0.3964844,1.6367188,0.7109375,2.4140625
	c0.2773438,0.6816406,0.5996094,1.3320313,0.9570313,1.9296875c0.3583984,0.5976563,0.7626953,1.1621094,1.2021484,1.6796875
	l2.3681641,3.3476563L19.9951172,37l8.8115234-12.4628906l0.0605469-0.0703125
	c0.4433594-0.5195313,0.8535156-1.0898438,1.2128906-1.6894531c0.3710938-0.6191406,0.6953125-1.2734375,0.9726563-1.9570313
	c0.3144531-0.7734375,0.5527344-1.5820313,0.7089844-2.4052734C31.9199219,17.5722656,32,16.7006836,32,15.8232422
	C32,14.9443359,31.9199219,14.0722656,31.7617188,13.2333984z"/>
<path fill="#FB3333" d="M30.7792969,13.3359375c-0.1445313-0.7553711-0.3632813-1.4946289-0.65625-2.203125
	c-0.2929688-0.7197266-0.6445313-1.4033203-1.046875-2.0336914c-0.3945313-0.6176758-0.84375-1.1938477-1.3339844-1.7094727
	c-0.5058594-0.5292969-1.0566406-1.0048828-1.6347656-1.4130859c-0.5878906-0.4155273-1.2246094-0.7822266-1.8925781-1.0854492
	C23.5605469,4.5952148,22.875,4.371582,22.1796875,4.2236328C21.4804688,4.0756836,20.7475586,4,19.9995117,4
	c-0.7490234,0-1.4814453,0.0756836-2.1787109,0.2236328c-0.6943359,0.1479492-1.3769531,0.3710938-2.0273438,0.6650391
	c-0.6738281,0.3051758-1.3134766,0.6723633-1.9042969,1.0898438c-0.5761719,0.4067383-1.1220703,0.8803711-1.6220703,1.4067383
	c-0.4980469,0.5214844-0.9492188,1.0991211-1.34375,1.7167969c-0.3964844,0.621582-0.7490234,1.3061523-1.0488281,2.0380859
	c-0.2880859,0.7026367-0.5087891,1.4433594-0.6542969,2.2016602c-0.1464844,0.7626953-0.2207031,1.5615234-0.2207031,2.375
	c0,0.8125,0.0742188,1.6118164,0.2207031,2.3769531c0.1445313,0.75,0.3652344,1.4921875,0.6542969,2.2011719
	c0.2587891,0.6328125,0.5576172,1.2304688,0.8867188,1.7753906s0.7021484,1.0605469,1.1064453,1.5361328l3.5556641,4.9785156
	L19.9936523,35l7.9985352-11.2226563l0.1171875-0.1435547c0.4082031-0.4726563,0.7832031-0.9902344,1.1152344-1.5390625
	c0.3417969-0.5654297,0.6445313-1.171875,0.9023438-1.8046875c0.2910156-0.7050781,0.5097656-1.4423828,0.6523438-2.1904297
	C30.9257813,17.3266602,31,16.5249023,31,15.7167969C31,14.9067383,30.9257813,14.105957,30.7792969,13.3359375z"/>
<path fill="#FFFFFF" d="M21.3935547,29.8603516c0.0800781-0.078125,0.109375-0.1523438,0.1269531-0.2109375
	c0.0507813-0.1152344,0.1074219-0.1875,0.0527344-0.1474609c0.2988281-0.2597656,0.6367188-0.4599609,1.0039063-0.7255859h0.0019531
	l0.0039063-0.0048828c0.1347656-0.1005859,0.3554688-0.2070313,0.5722656-0.3486328
	c0.2167969-0.1425781,0.4550781-0.3447266,0.5039063-0.6494141c0.0175781-0.125-0.0292969-0.2412109-0.0820313-0.3164063
	c-0.0566406-0.0722656-0.1074219-0.1171875-0.1503906-0.1533203c0-0.0019531,0-0.0019531-0.0019531-0.0039063
	c0.0390625-0.0263672,0.0917969-0.0585938,0.1445313-0.1171875c0.0605469-0.0585938,0.1347656-0.1572266,0.1386719-0.2783203
	c0.0058594-0.1269531-0.0605469-0.2333984-0.1132813-0.2958984c-0.0429688-0.0449219-0.0742188-0.0751953-0.1054688-0.0966797
	c0.0175781-0.0166016,0.0390625-0.0224609,0.0644531-0.046875c0.0605469-0.0517578,0.1386719-0.1513672,0.1484375-0.2695313
	c0.0058594-0.1279297-0.0566406-0.2363281-0.1132813-0.3046875c-0.0585938-0.0664063-0.1152344-0.1074219-0.1601563-0.1396484
	c-0.0019531-0.0019531-0.0019531-0.0019531-0.0019531-0.0039063c0.0078125-0.0058594,0.0078125-0.0058594,0.015625-0.0136719
	c0.046875-0.0341797,0.1074219-0.0771484,0.1660156-0.1455078c0.0585938-0.0664063,0.1230469-0.1689453,0.125-0.2939453
	c0.0039063-0.1191406-0.0566406-0.2177734-0.1035156-0.2832031c-0.0527344-0.0625-0.1074219-0.1025391-0.140625-0.1347656
	c-0.0019531-0.0039063-0.0019531-0.0039063-0.0039063-0.0039063c0.0039063-0.0019531,0.0019531-0.0019531,0.0039063-0.0039063
	c0.0761719-0.0605469,0.2304688-0.1572266,0.265625-0.3730469c0.0449219-0.2197266-0.046875-0.3955078-0.1113281-0.5166016
	c-0.0273438-0.0478516-0.0429688-0.0839844-0.0605469-0.1210938c0.0605469-0.0322266,0.1191406-0.0761719,0.171875-0.1367188
	l0.0019531-0.0019531l0.0058594-0.0039063c0.28125-0.3066406,0.53125-0.6474609,0.7011719-1.0244141l0.0058594-0.0126953
	l0.0039063-0.0039063c0.2578125-0.6767578,0.140625-1.3330078,0.2832031-1.8671875l0.0039063-0.0019531v-0.0019531
	c0.1640625-0.6542969,0.5722656-1.2587891,0.9472656-1.9194336l0,0l0,0c0.1855469-0.3374023,0.40625-0.6738281,0.609375-1.0356445
	c0,0,0-0.0024414,0.0019531-0.0024414c0.53125-0.9145508,1.1503906-1.8476563,1.4316406-2.9204102
	c0-0.0039063,0.0019531-0.0043945,0.0019531-0.0063477c0.59375-2.0673828,0.1054688-4.355957-1.34375-6.0615234
	c-0.0019531-0.0039063-0.0039063-0.0063477-0.0078125-0.0097656c-0.5703125-0.7280273-1.3339844-1.2983398-2.1347656-1.7646484l0,0
	c-0.4980469-0.2895508-1.0332031-0.453125-1.5253906-0.6298828l0,0h-0.0019531
	c-0.6855469-0.2426758-1.4023438-0.3598633-2.1088867-0.4296875l0,0H20.628418
	C20.4731445,6.0078125,20.3183594,6.0004883,20.1645508,6l0,0c-0.456543-0.003418-0.9018555,0.0498047-1.328125,0.1074219
	c-0.0039063,0-0.0043945,0-0.0083008,0c-1.1826172,0.128418-2.2993164,0.5405273-3.2827148,1.1035156l-0.0053711,0.003418
	L15.5361328,7.21875c-0.2338867,0.1450195-0.4355469,0.296875-0.6367188,0.4243164h-0.0009766
	c-0.5629883,0.3613281-1.0019531,0.8291016-1.3857422,1.3017578c-0.0039063,0.003418-0.0073242,0.0058594-0.0102539,0.0102539
	h0.0014648c-0.3427734,0.3857422-0.5698242,0.8105469-0.7988281,1.203125l-0.0048828,0.0097656l-0.0058594,0.0117188
	c-0.3310547,0.7084961-0.5561523,1.4609375-0.6704102,2.2207031l-0.0014648,0.0092773v0.0087891
	c-0.1010742,1.3110352,0.1230469,2.6606445,0.765625,3.862793c0.0014648,0.0043945,0.0039063,0.0068359,0.0053711,0.0078125
	c0.3027344,0.6083984,0.6665039,1.1704102,0.9882813,1.7353516l0.0019531,0.0024414l0.0009766,0.0029297
	c0.4633789,0.7807617,0.9643555,1.5253906,1.3510742,2.3061523c0.0004883,0.0019531,0.0014648,0.0019531,0.0019531,0.0039063
	c0.1621094,0.34375,0.2583008,0.7207031,0.2963867,1.1044922v0.0058594l0.0004883,0.0039063
	c0.0473633,0.375,0.0415039,0.8232422,0.265625,1.2626953c0.0029297,0.0078125,0.0078125,0.0175781,0.0102539,0.0234375
	c0.1953125,0.4580078,0.5292969,0.7763672,0.7026367,1.0996094c0.0458984,0.1044922,0.0395508,0.2294922,0.0117188,0.4111328
	c-0.0292969,0.1835938-0.0844727,0.4130859-0.0180664,0.671875c0.0512695,0.1914063,0.1689453,0.2958984,0.2329102,0.3730469
	c0.0166016,0.0214844,0.0200195,0.0283203,0.0288086,0.0400391c-0.0356445,0.0205078-0.078125,0.0419922-0.1318359,0.0869141
	c-0.0585938,0.0517578-0.1303711,0.1425781-0.1416016,0.2558594c-0.0151367,0.125,0.0395508,0.2363281,0.0927734,0.3027344
	c0.0327148,0.0439453,0.0683594,0.078125,0.0986328,0.1044922c-0.0317383,0.0224609-0.0654297,0.046875-0.0961914,0.0810547
	c-0.0712891,0.078125-0.1152344,0.1933594-0.1181641,0.3056641c-0.0039063,0.2060547,0.1347656,0.3632813,0.2431641,0.4541016
	c-0.0297852,0.0166016-0.0634766,0.0419922-0.0991211,0.0742188c-0.0634766,0.0605469-0.1367188,0.1660156-0.140625,0.2890625
	c-0.0039063,0.2011719,0.1450195,0.3222656,0.21875,0.3808594c0.0527344,0.0419922,0.0820313,0.0722656,0.0898438,0.0722656
	c0,0.0087891,0.0083008,0.0507813,0.015625,0.1435547c0.0078125,0.0986328,0.0219727,0.2597656,0.1503906,0.4013672
	c0.0009766,0,0.0009766,0.0019531,0.0019531,0.0019531c0.1572266,0.1738281,0.3242188,0.2861328,0.4428711,0.3955078
	l0.0014648,0.0039063l0.0019531,0.0039063c0.1982422,0.1777344,0.4272461,0.2802734,0.6196289,0.3828125
	c0.1948242,0.1035156,0.3491211,0.1982422,0.4379883,0.3046875l0.015625,0.0166016l0.0175781,0.015625
	c-0.0073242-0.0058594,0.0332031,0.0683594,0.0874023,0.1914063c0.0273438,0.0644531,0.0615234,0.1416016,0.1352539,0.2216797
	c0.0717773,0.0771484,0.1967773,0.1513672,0.3320313,0.171875L18.9536133,30h0.0112305"/>
<rect x="17" y="23" fill="#FB3333" width="6" height="1"/>
<rect x="17" y="25" fill="#FB3333" width="6" height="1"/>
<rect x="17" y="27" fill="#FB3333" width="6" height="1"/>
</svg>
