<?xml version="1.0" encoding="utf-8"?>
<!-- Generator: Adobe Illustrator 16.0.3, SVG Export Plug-In . SVG Version: 6.00 Build 0)  -->
<!DOCTYPE svg PUBLIC "-//W3C//DTD SVG 1.1//EN" "http://www.w3.org/Graphics/SVG/1.1/DTD/svg11.dtd">
<svg version="1.1" id="Debris_-_Other" xmlns="http://www.w3.org/2000/svg" xmlns:xlink="http://www.w3.org/1999/xlink" x="0px"
	 y="0px" width="40px" height="40px" viewBox="0 0 40 40" enable-background="new 0 0 40 40" xml:space="preserve">
<path opacity="0.75" fill="#FFFFFF" enable-background="new    " d="M34.9707031,15.6914063
	c0-1.0039063-0.09375-1.9804688-0.2714844-2.9267578c-0.1816406-0.9482422-0.4570313-1.8671875-0.8242188-2.7587891
	c-0.3652344-0.8916016-0.796875-1.7255859-1.296875-2.5019531c-0.4980469-0.7773438-1.0625-1.4970703-1.6933594-2.1582031
	c-0.6367188-0.6611328-1.3242188-1.2539063-2.0644531-1.7753906C28.078125,3.0478516,27.28125,2.5927734,26.4335938,2.2089844
	c-0.8535156-0.3828125-1.734375-0.6689453-2.6386719-0.8613281C22.8886719,1.15625,21.9589844,1.0625,21.0019531,1.0625
	c-0.9589844,0-1.8886719,0.09375-2.7929688,0.2851563c-0.90625,0.1923828-1.7841797,0.4785156-2.6357422,0.8613281
	c-0.8525391,0.3837891-1.6494141,0.8388672-2.390625,1.3613281c-0.7421875,0.5214844-1.4287109,1.1142578-2.0615234,1.7753906
	c-0.6318359,0.6611328-1.1972656,1.3808594-1.6972656,2.1582031c-0.4980469,0.7763672-0.9287109,1.6103516-1.296875,2.5019531
	c-0.3662109,0.8916016-0.6396484,1.8105469-0.8232422,2.7587891C7.1201172,13.7109375,7.0292969,14.6875,7.0292969,15.6914063
	c0,1.0009766,0.0908203,1.9775391,0.2744141,2.9257813s0.4570313,1.8662109,0.8232422,2.7597656
	c0.3164063,0.7675781,0.6816406,1.4960938,1.0957031,2.1796875c0.4160156,0.6835938,0.8789063,1.3222656,1.3916016,1.9199219
	h-0.0039063h-0.0029297l5.1933594,7.2519531l5.1953125,7.2539063l5.1835938-7.2363281l5.1777344-7.2324219
	c0.5214844-0.6015625,0.9902344-1.2480469,1.4101563-1.9355469C33.1875,22.8867188,33.5566406,22.1523438,33.875,21.3769531
	c0.3671875-0.8935547,0.6425781-1.8115234,0.8242188-2.7597656C34.8769531,17.6689453,34.9707031,16.6923828,34.9707031,15.6914063z
	"/>
<path fill="#BF9004" d="M32.7617188,13.2509766c-0.15625-0.828125-0.3945313-1.6367188-0.7128906-2.4140625
	c-0.3164063-0.7822266-0.6953125-1.5253906-1.1308594-2.2128906C30.4882813,7.9462891,29.9980469,7.3125,29.4628906,6.7451172
	C28.9121094,6.1640625,28.3125,5.6425781,27.6835938,5.1943359C27.0449219,4.7392578,26.3496094,4.3378906,25.625,4.0048828
	c-0.7207031-0.328125-1.4746094-0.5761719-2.2382813-0.7402344c-0.765625-0.1640625-1.5683594-0.2470703-2.3847656-0.2470703
	c-0.8203125,0-1.6210938,0.0830078-2.3857422,0.2470703c-0.7636719,0.1640625-1.5146484,0.4121094-2.2314453,0.7382813
	c-0.7324219,0.3349609-1.4277344,0.7353516-2.0683594,1.1933594c-0.6298828,0.4482422-1.2246094,0.9667969-1.7695313,1.5458984
	c-0.5419922,0.5722656-1.0341797,1.2060547-1.4628906,1.8837891c-0.4287109,0.6767578-0.8105469,1.4228516-1.1328125,2.2158203
	c-0.3144531,0.7734375-0.5537109,1.5849609-0.7109375,2.4130859c-0.1582031,0.8310547-0.2392578,1.7001953-0.2392578,2.5859375
	c0,0.8847656,0.0810547,1.7539063,0.2392578,2.5869141c0.1572266,0.8242188,0.3964844,1.6367188,0.7109375,2.4140625
	c0.2773438,0.6816406,0.5996094,1.3320313,0.9570313,1.9296875c0.3583984,0.5976563,0.7626953,1.1621094,1.2021484,1.6796875
	l2.3681641,3.3476563l6.5175781,9.21875l8.8105469-12.4628906l0.0605469-0.0703125
	c0.4433594-0.5195313,0.8535156-1.0898438,1.2128906-1.6894531c0.3710938-0.6191406,0.6953125-1.2734375,0.9726563-1.9570313
	c0.3144531-0.7734375,0.5527344-1.5820313,0.7089844-2.4052734C32.9199219,17.5898438,33,16.71875,33,15.8408203
	C33,14.9619141,32.9199219,14.0898438,32.7617188,13.2509766z"/>
<path fill="#F3B705" d="M31.7792969,13.3535156c-0.1445313-0.7548828-0.3632813-1.4941406-0.65625-2.203125
	c-0.2929688-0.7197266-0.6445313-1.4033203-1.046875-2.0332031c-0.3945313-0.6181641-0.84375-1.1943359-1.3339844-1.7099609
	c-0.5058594-0.5292969-1.0566406-1.0048828-1.6347656-1.4130859c-0.5878906-0.4150391-1.2246094-0.7822266-1.8925781-1.0849609
	C24.5605469,4.6132813,23.875,4.3896484,23.1796875,4.2412109C22.4804688,4.09375,21.7480469,4.0175781,21,4.0175781
	c-0.7490234,0-1.4814453,0.0761719-2.1787109,0.2236328c-0.6943359,0.1484375-1.3769531,0.3710938-2.0273438,0.6650391
	c-0.6738281,0.3056641-1.3134766,0.6728516-1.9042969,1.0898438c-0.5761719,0.4072266-1.1220703,0.8808594-1.6220703,1.4072266
	c-0.4980469,0.5214844-0.9492188,1.0986328-1.34375,1.7167969c-0.3964844,0.6210938-0.7490234,1.3056641-1.0488281,2.0380859
	c-0.2880859,0.7021484-0.5087891,1.4433594-0.6542969,2.2011719C10.0742188,14.1220703,10,14.9208984,10,15.734375
	c0,0.8125,0.0742188,1.6123047,0.2207031,2.3769531c0.1445313,0.75,0.3652344,1.4921875,0.6542969,2.2011719
	c0.2587891,0.6328125,0.5576172,1.2304688,0.8867188,1.7753906s0.7021484,1.0605469,1.1064453,1.5371094l3.5556641,4.9785156
	l4.5703125,6.4140625l7.9980469-11.2226563l0.1171875-0.1425781c0.4082031-0.4726563,0.7832031-0.9902344,1.1152344-1.5390625
	c0.3417969-0.5664063,0.6445313-1.1728516,0.9023438-1.8056641c0.2910156-0.7050781,0.5097656-1.4423828,0.6523438-2.1904297
	C31.9257813,17.3447266,32,16.5429688,32,15.734375C32,14.9248047,31.9257813,14.1240234,31.7792969,13.3535156z"/>
<g enable-background="new    ">
	<path fill="#FFFFFF" d="M30.9501953,17.7080078c-1.1806641,0.7392578-2.2304688,1.109375-3.1503906,1.109375
		c-0.2001953,0-0.5996094-0.0195313-1.2001953-0.0595703C26,18.7177734,25.4599609,18.6972656,24.9804688,18.6972656
		c-0.7207031,0-1.7402344,0.2207031-3.0605469,0.6601563c-1.3203125,0.4404297-2.3300781,0.6601563-3.0297852,0.6601563
		c-1.5800781,0-3.0205078-0.1601563-4.3203125-0.4804688C12.8100586,19.078125,11.6196289,18.3671875,11,17.4072266
		c1.3198242-1.0800781,2.7099609-2.5595703,4.1699219-4.4394531c1.2001953-1.6201172,2.3999023-3.25,3.6000977-4.890625
		c0.7998047-1.0390625,1.6499023-1.5595703,2.550293-1.5595703c0.6992188,0,1.8398438,0.7998047,3.4199219,2.4003906
		c1.3994141,1.4199219,2.7539063,3.0498047,4.0644531,4.8896484S30.8300781,16.9472656,30.9501953,17.7080078z"/>
</g>
</svg>
