<?xml version="1.0" encoding="utf-8"?>
<!-- Generator: Adobe Illustrator 16.0.3, SVG Export Plug-In . SVG Version: 6.00 Build 0)  -->
<!DOCTYPE svg PUBLIC "-//W3C//DTD SVG 1.1//EN" "http://www.w3.org/Graphics/SVG/1.1/DTD/svg11.dtd">
<svg version="1.1" id="Department_of_Public_Works" xmlns="http://www.w3.org/2000/svg" xmlns:xlink="http://www.w3.org/1999/xlink"
	 x="0px" y="0px" width="40px" height="40px" viewBox="0 0 40 40" enable-background="new 0 0 40 40" xml:space="preserve">
<path opacity="0.75" fill="#FFFFFF" enable-background="new    " d="M33.971,15.673c0-1.004-0.094-1.98-0.272-2.926
	c-0.181-0.948-0.456-1.868-0.824-2.759c-0.365-0.892-0.797-1.726-1.296-2.502s-1.063-1.497-1.694-2.158
	c-0.636-0.661-1.323-1.254-2.063-1.775c-0.743-0.523-1.54-0.978-2.388-1.362c-0.854-0.383-1.733-0.669-2.638-0.861
	C21.889,1.139,20.959,1.044,20,1.044c-0.958,0-1.888,0.094-2.792,0.286c-0.906,0.192-1.784,0.478-2.636,0.861
	c-0.852,0.384-1.649,0.839-2.391,1.362c-0.742,0.521-1.429,1.114-2.061,1.775S8.923,6.709,8.423,7.486
	c-0.498,0.777-0.929,1.61-1.297,2.502c-0.366,0.891-0.64,1.811-0.823,2.759c-0.184,0.946-0.275,1.922-0.275,2.926
	c0,1.001,0.091,1.978,0.275,2.926s0.457,1.867,0.823,2.76c0.316,0.768,0.682,1.495,1.095,2.179c0.416,0.684,0.879,1.323,1.392,1.92
	H9.609H9.606l5.194,7.253l5.194,7.253l5.185-7.236l5.177-7.232c0.521-0.602,0.991-1.248,1.41-1.936c0.42-0.691,0.79-1.426,1.107-2.2
	c0.368-0.894,0.644-1.812,0.824-2.76C33.877,17.651,33.971,16.675,33.971,15.673z"/>
<path fill="#BF6B04" d="M31.762,13.233c-0.156-0.829-0.395-1.637-0.713-2.414c-0.316-0.782-0.695-1.526-1.131-2.213
	c-0.43-0.678-0.92-1.312-1.455-1.879c-0.551-0.582-1.15-1.103-1.779-1.551c-0.639-0.456-1.334-0.857-2.059-1.19
	c-0.721-0.328-1.475-0.576-2.238-0.74C21.621,3.083,20.818,3,20.001,3c-0.819,0-1.621,0.083-2.386,0.247
	c-0.764,0.164-1.515,0.412-2.231,0.738c-0.732,0.334-1.428,0.735-2.068,1.193c-0.63,0.448-1.225,0.967-1.77,1.546
	c-0.542,0.573-1.034,1.206-1.463,1.884c-0.429,0.677-0.811,1.422-1.133,2.216c-0.314,0.773-0.554,1.584-0.711,2.413
	C8.081,14.068,8,14.938,8,15.823c0,0.884,0.081,1.754,0.239,2.587c0.157,0.824,0.396,1.637,0.711,2.414
	c0.277,0.682,0.6,1.332,0.957,1.93c0.358,0.598,0.763,1.162,1.202,1.68l2.368,3.348L19.995,37l8.812-12.463l0.061-0.07
	c0.443-0.52,0.854-1.09,1.213-1.689c0.371-0.619,0.695-1.273,0.973-1.957c0.314-0.773,0.553-1.582,0.709-2.405
	C31.92,17.572,32,16.701,32,15.823C32,14.944,31.92,14.072,31.762,13.233z"/>
<path fill="#F28705" d="M30.779,13.336c-0.145-0.755-0.363-1.495-0.656-2.203c-0.293-0.72-0.645-1.403-1.047-2.034
	c-0.395-0.618-0.844-1.194-1.334-1.709c-0.506-0.529-1.057-1.005-1.635-1.413c-0.588-0.416-1.225-0.782-1.893-1.085
	c-0.654-0.296-1.34-0.52-2.035-0.667C21.48,4.076,20.748,4,20,4c-0.749,0-1.481,0.076-2.179,0.224
	c-0.694,0.148-1.377,0.371-2.027,0.665c-0.674,0.305-1.313,0.672-1.904,1.09c-0.576,0.407-1.122,0.88-1.622,1.407
	c-0.498,0.521-0.949,1.099-1.344,1.717c-0.396,0.622-0.749,1.306-1.049,2.038c-0.288,0.703-0.509,1.443-0.654,2.202
	C9.074,14.104,9,14.903,9,15.717c0,0.813,0.074,1.612,0.221,2.377c0.145,0.75,0.365,1.492,0.654,2.201
	c0.259,0.633,0.558,1.23,0.887,1.775s0.702,1.061,1.106,1.536l3.556,4.979L19.994,35l7.999-11.223l0.117-0.144
	c0.408-0.473,0.783-0.99,1.115-1.539c0.342-0.565,0.645-1.172,0.902-1.805c0.291-0.705,0.51-1.442,0.652-2.19
	C30.926,17.327,31,16.525,31,15.717C31,14.907,30.926,14.106,30.779,13.336z"/>
<path fill="#FFFFFF" d="M12.276,20.355l-0.026,0.079l0.105,0.105l6.328,2.874c0.123,0.07,0.264,0.141,0.422,0.211
	c0.299,0.123,0.615,0.185,0.949,0.185c0.211,0,0.399-0.017,0.567-0.053c0.166-0.035,0.312-0.069,0.435-0.105
	c0.141-0.053,0.264-0.105,0.369-0.158l6.407-2.769l0.132-0.105l-0.105-0.079l-3.507-1.345l-0.132-0.633l3.902,1.503l0.185,0.132
	l0.158,0.185l0.053,0.211l-0.026,0.211v0.817l0.026,0.29l-0.105,0.185l-0.185,0.185l-0.264,0.158l-6.539,2.795
	c-0.142,0.053-0.29,0.105-0.448,0.158c-0.299,0.089-0.606,0.132-0.923,0.132c-0.176,0-0.343-0.018-0.501-0.053
	s-0.308-0.07-0.448-0.105c-0.158-0.053-0.299-0.114-0.422-0.185l-6.513-2.953l-0.237-0.132l-0.158-0.158l-0.105-0.211v-1.371
	l0.079-0.211l0.158-0.158l0.343-0.211l3.639-1.187l-0.132,0.633L12.276,20.355z"/>
<path fill="#FFFFFF" d="M18.486,6.223c0.07-0.211,0.175-0.404,0.316-0.58c0.123-0.141,0.29-0.277,0.501-0.409
	s0.475-0.198,0.791-0.198s0.576,0.066,0.777,0.198c0.203,0.132,0.365,0.268,0.488,0.409c0.141,0.176,0.246,0.369,0.316,0.58
	l2.717,13.078c0,0.053,0.008,0.105,0.025,0.158c0,0.053,0.004,0.105,0.014,0.158c0.008,0.053,0.014,0.115,0.014,0.185
	c0,0.142-0.018,0.281-0.053,0.422c-0.037,0.142-0.098,0.255-0.186,0.343s-0.184,0.172-0.289,0.25
	c-0.105,0.08-0.203,0.146-0.291,0.198c-0.105,0.07-0.201,0.123-0.289,0.158c-0.176,0.105-0.414,0.194-0.713,0.264
	c-0.246,0.07-0.576,0.132-0.988,0.185c-0.414,0.053-0.92,0.079-1.516,0.079c-0.616,0-1.125-0.026-1.529-0.079
	c-0.405-0.053-0.738-0.114-1.002-0.185c-0.316-0.069-0.563-0.158-0.738-0.264l-0.237-0.158c-0.088-0.053-0.181-0.114-0.277-0.185
	c-0.097-0.07-0.198-0.158-0.303-0.264c-0.123-0.105-0.202-0.241-0.237-0.408c-0.036-0.168-0.053-0.32-0.053-0.462v-0.29
	c0-0.053,0.009-0.088,0.026-0.105L18.486,6.223z"/>
<path fill="#F28705" d="M20.112,6c0.187,0.022,0.351,0.056,0.492,0.1c0.115,0.045,0.227,0.105,0.332,0.183
	c0.105,0.079,0.158,0.172,0.158,0.284c0,0.2-0.135,0.322-0.402,0.366C20.422,6.979,20.24,7,20.147,7h-0.07
	c-0.118,0-0.311-0.021-0.579-0.067c-0.269-0.044-0.403-0.167-0.403-0.366c0-0.111,0.053-0.205,0.158-0.284
	c0.105-0.078,0.216-0.138,0.333-0.183C19.726,6.056,19.901,6.022,20.112,6z"/>
</svg>
