<?xml version="1.0" encoding="utf-8"?>
<!-- Generator: Adobe Illustrator 16.0.3, SVG Export Plug-In . SVG Version: 6.00 Build 0)  -->
<!DOCTYPE svg PUBLIC "-//W3C//DTD SVG 1.1//EN" "http://www.w3.org/Graphics/SVG/1.1/DTD/svg11.dtd">
<svg version="1.1" id="Discharge_Point" xmlns="http://www.w3.org/2000/svg" xmlns:xlink="http://www.w3.org/1999/xlink" x="0px"
	 y="0px" width="40px" height="40px" viewBox="0 0 40 40" enable-background="new 0 0 40 40" xml:space="preserve">
<path opacity="0.75" fill="#FFFFFF" d="M33.9707031,15.6689453c0-1.0039063-0.09375-1.9794922-0.2724609-2.9257813
	C33.5175781,11.7949219,33.2421875,10.875,32.8740234,9.984375c-0.3652344-0.8925781-0.796875-1.7255859-1.2958984-2.5029297
	c-0.4990234-0.7763672-1.0625-1.4960938-1.6943359-2.1572266c-0.6357422-0.6611328-1.3232422-1.2548828-2.0634766-1.7753906
	c-0.7431641-0.5234375-1.5400391-0.9785156-2.3876953-1.3623047c-0.8535156-0.3828125-1.7333984-0.6689453-2.6376953-0.8603516
	c-0.90625-0.1914063-1.8364258-0.2861328-2.7944336-0.2861328c-0.9575195,0-1.8881836,0.0947266-2.7924805,0.2861328
	c-0.9057617,0.1914063-1.7836914,0.4775391-2.6357422,0.8603516c-0.8520508,0.3837891-1.6489258,0.8388672-2.390625,1.3623047
	c-0.7416992,0.5205078-1.4287109,1.1142578-2.0610352,1.7753906S8.9228516,6.7050781,8.4233398,7.4814453
	C7.925293,8.2587891,7.4941406,9.0917969,7.1264648,9.984375C6.7602539,10.875,6.4868164,11.7949219,6.3032227,12.7431641
	c-0.1835938,0.9462891-0.2749023,1.921875-0.2749023,2.9257813c0,1.0019531,0.0913086,1.9775391,0.2749023,2.9257813
	s0.4570313,1.8671875,0.8232422,2.7607422c0.315918,0.7675781,0.6816406,1.4951172,1.0952148,2.1787109
	c0.4160156,0.6835938,0.8789063,1.3232422,1.3916016,1.9199219H9.609375H9.6064453l5.1938477,7.2529297l5.1943359,7.2529297
	l5.1850586-7.2363281l5.1767578-7.2324219c0.5214844-0.6015625,0.9912109-1.2480469,1.4101563-1.9355469
	c0.4199219-0.6914063,0.7900391-1.4257813,1.1074219-2.2001953c0.3681641-0.8935547,0.6435547-1.8125,0.8242188-2.7607422
	C33.8769531,17.6464844,33.9707031,16.6708984,33.9707031,15.6689453z"/>
<path fill="#1873CD" d="M31.7617188,13.2294922c-0.15625-0.8291016-0.3945313-1.6376953-0.7128906-2.4140625
	c-0.3164063-0.7822266-0.6953125-1.5263672-1.1308594-2.2128906c-0.4296875-0.6777344-0.9199219-1.3125-1.4550781-1.8789063
	C27.9121094,6.1416016,27.3125,5.6210938,26.6835938,5.1728516C26.0449219,4.7167969,25.3496094,4.3154297,24.625,3.9824219
	c-0.7207031-0.3271484-1.4746094-0.5761719-2.2382813-0.7392578c-0.765625-0.1640625-1.5683594-0.2470703-2.3857422-0.2470703
	c-0.8193359,0-1.6210938,0.0830078-2.3857422,0.2470703c-0.7636719,0.1630859-1.5146484,0.4111328-2.2314453,0.7382813
	c-0.7324219,0.3339844-1.4277344,0.7353516-2.0683594,1.1923828c-0.6298828,0.4482422-1.2246094,0.9677734-1.7695313,1.5458984
	c-0.5419922,0.5732422-1.0341797,1.2060547-1.4628906,1.8847656c-0.4287109,0.6767578-0.8105469,1.421875-1.1328125,2.2158203
	c-0.3144531,0.7724609-0.5537109,1.5839844-0.7109375,2.4130859C8.0810547,14.0634766,8,14.9335938,8,15.8193359
	c0,0.8837891,0.0810547,1.7539063,0.2392578,2.5869141c0.1572266,0.8242188,0.3964844,1.6367188,0.7109375,2.4140625
	C9.2275391,21.5019531,9.5498047,22.1523438,9.9072266,22.75c0.3583984,0.5976563,0.7626953,1.1621094,1.2021484,1.6796875
	l2.3681641,3.3476563l6.5175781,9.21875l8.8115234-12.4628906l0.0605469-0.0703125
	c0.4433594-0.5195313,0.8535156-1.0898438,1.2128906-1.6894531c0.3710938-0.6191406,0.6953125-1.2734375,0.9726563-1.9570313
	c0.3144531-0.7734375,0.5527344-1.5820313,0.7089844-2.4052734C31.9199219,17.5683594,32,16.6962891,32,15.8193359
	C32,14.9404297,31.9199219,14.0683594,31.7617188,13.2294922z"/>
<path fill="#1F8FFF" d="M30.7792969,13.3320313c-0.1445313-0.7558594-0.3632813-1.4951172-0.65625-2.203125
	c-0.2929688-0.7197266-0.6445313-1.4033203-1.046875-2.0341797c-0.3945313-0.6171875-0.84375-1.1933594-1.3339844-1.7089844
	c-0.5058594-0.5292969-1.0566406-1.0048828-1.6347656-1.4130859c-0.5878906-0.4160156-1.2246094-0.7822266-1.8925781-1.0859375
	C23.5605469,4.5908203,22.875,4.3671875,22.1796875,4.2197266c-0.6992188-0.1484375-1.4321289-0.2236328-2.1801758-0.2236328
	c-0.7490234,0-1.4814453,0.0751953-2.1787109,0.2236328c-0.6943359,0.1474609-1.3769531,0.3710938-2.0273438,0.6650391
	c-0.6738281,0.3046875-1.3134766,0.671875-1.9042969,1.0898438c-0.5761719,0.40625-1.1220703,0.8798828-1.6220703,1.40625
	c-0.4980469,0.5214844-0.9492188,1.0996094-1.34375,1.7167969c-0.3964844,0.6220703-0.7490234,1.3066406-1.0488281,2.0380859
	c-0.2880859,0.703125-0.5087891,1.4433594-0.6542969,2.2021484c-0.1464844,0.7626953-0.2207031,1.5615234-0.2207031,2.375
	c0,0.8125,0.0742188,1.6113281,0.2207031,2.3769531c0.1445313,0.75,0.3652344,1.4921875,0.6542969,2.2011719
	c0.2587891,0.6328125,0.5576172,1.2304688,0.8867188,1.7753906s0.7021484,1.0605469,1.1064453,1.5361328l3.5556641,4.9785156
	l4.5703125,6.4150391l7.9985352-11.2226563l0.1171875-0.1435547c0.4082031-0.4726563,0.7832031-0.9902344,1.1152344-1.5390625
	c0.3417969-0.5654297,0.6445313-1.171875,0.9023438-1.8046875c0.2910156-0.7050781,0.5097656-1.4423828,0.6523438-2.1904297
	C30.9257813,17.3222656,31,16.5205078,31,15.7128906C31,14.9023438,30.9257813,14.1015625,30.7792969,13.3320313z"/>
<rect x="13" y="7.9960938" fill="#FFFFFF" width="14" height="14"/>
<rect x="14" y="8.9960938" fill="#1F8FFF" width="11.9804688" height="12"/>
<path fill="#FFFFFF" d="M27.0097656,14.9960938c0,0.8662109-0.2460938,1.9335938-0.7392578,3.2001953L24.75,16.7158203
	c0,0.4804688-0.3876953,1.0595703-1.1621094,1.7402344c-0.3076172,0.2666016-0.6123047,0.5029297-0.9130859,0.7099609
	s-0.6044922,0.3828125-0.9121094,0.5302734l1.4804688,1.5205078c-0.8808594,0.5195313-1.9550781,0.7792969-3.2226563,0.7792969
	c-0.8154297,0-1.9101563-0.2734375-3.2851563-0.8203125l1.4199219-1.4394531c0-0.0673828-0.1728516-0.1806641-0.5195313-0.3408203
	c-0.2275391-0.1201172-0.4101563-0.2128906-0.5498047-0.2792969c-0.140625-0.0673828-0.2236328-0.1132813-0.25-0.140625
	c-0.4951172-0.359375-1.0507813-1.1132813-1.6660156-2.2597656L13.7900391,18.15625
	c-0.5068359-1.2539063-0.7597656-2.3066406-0.7597656-3.1601563c0-0.8271484,0.2529297-1.8867188,0.7597656-3.1806641
	l1.3798828,1.3408203c0-0.4804688,0.4013672-1.0605469,1.2021484-1.7402344
	c0.3076172-0.2529297,0.6083984-0.4804688,0.9023438-0.6796875c0.2929688-0.2001953,0.5869141-0.3867188,0.8808594-0.5605469
	l-1.3818359-1.3798828c0.8808594-0.5205078,1.9628906-0.7802734,3.2451172-0.7802734
	c0.8955078,0,1.9570313,0.2470703,3.1865234,0.7402344l-1.4423828,1.4199219
	c0.1738281,0.0800781,0.390625,0.1972656,0.6513672,0.3496094c0.2607422,0.1542969,0.5644531,0.34375,0.9130859,0.5703125
	C23.7138672,11.4296875,24.1884766,12.1162109,24.75,13.15625l1.4404297-1.4804688
	C26.7363281,13.0888672,27.0097656,14.1962891,27.0097656,14.9960938z M24.1699219,14.9160156
	c0-1.1865234-0.4072266-2.1728516-1.2226563-2.9599609c-0.7890625-0.7734375-1.7841797-1.1601563-2.9873047-1.1601563
	c-1.1894531,0-2.1787109,0.3935547-2.9667969,1.1796875c-0.8017578,0.7871094-1.203125,1.7675781-1.203125,2.9404297
	c0,1.2128906,0.4013672,2.2128906,1.203125,3c0.8017578,0.7998047,1.7910156,1.2001953,2.9667969,1.2001953
	c1.1894531,0,2.1855469-0.4003906,2.9873047-1.2001953C23.7626953,17.1025391,24.1699219,16.1025391,24.1699219,14.9160156z"/>
</svg>
