<?xml version="1.0" encoding="utf-8"?>
<!-- Generator: Adobe Illustrator 16.0.3, SVG Export Plug-In . SVG Version: 6.00 Build 0)  -->
<!DOCTYPE svg PUBLIC "-//W3C//DTD SVG 1.1//EN" "http://www.w3.org/Graphics/SVG/1.1/DTD/svg11.dtd">
<svg version="1.1" id="Drinking_Water" xmlns="http://www.w3.org/2000/svg" xmlns:xlink="http://www.w3.org/1999/xlink" x="0px"
	 y="0px" width="34px" height="34px" viewBox="0 0 34 34" enable-background="new 0 0 34 34" xml:space="preserve">
<circle fill="#FFFFFF" cx="17" cy="17" r="15"/>
<path fill="#1873CD" d="M17,30C9.832,30,4,24.167,4,17S9.832,4,17,4c7.167,0,13,5.832,13,13S24.168,30,17,30z"/>
<path fill="#4CA5FF" d="M17,29c-6.617,0-12-5.383-12-12c0-6.617,5.383-12,12-12c6.617,0,12,5.383,12,12C29,23.617,23.617,29,17,29z"
	/>
<path fill="#FFFFFF" d="M13,15l3.578-1.547v1.721c0,0.12,0.012,0.197,0.037,0.232c0.024,0.037,0.074,0.09,0.147,0.161
	c0.37,0.383,0.671,0.705,0.906,0.969c0.233,0.263,0.474,0.525,0.72,0.789c0.247,0.264,0.433,0.455,0.555,0.573
	c0.148,0.192,0.369,0.288,0.665,0.288c0.246,0,0.469-0.096,0.665-0.288c0.172-0.214,0.26-0.43,0.26-0.644
	c0-0.168-0.088-0.382-0.26-0.646l-1.811-1.901v-3.333c0-0.549-0.185-1.003-0.554-1.362c-0.419-0.406-0.887-0.609-1.404-0.609
	c-0.321,0-0.604,0.071-0.85,0.215c-0.247,0.12-0.58,0.287-0.998,0.501c-0.419,0.215-0.844,0.437-1.274,0.664
	c-0.432,0.227-0.838,0.436-1.22,0.627c-0.382,0.191-0.659,0.334-0.831,0.43c-0.395,0.192-0.715,0.437-0.961,0.735
	C10.124,12.874,10,13.226,10,13.631V24.53c0,0.407,0.147,0.753,0.443,1.039C10.739,25.856,11.096,26,11.515,26
	s0.783-0.144,1.09-0.431C12.913,25.283,13,24.938,13,24.53V15z"/>
<path fill="#FFFFFF" d="M20.001,11c0.542,0,1.013-0.193,1.408-0.58C21.804,10.035,22,9.555,22,8.981
	c0-0.547-0.196-1.016-0.591-1.401C21.014,7.193,20.543,7,20.001,7c-0.569,0-1.045,0.193-1.427,0.58C18.19,7.965,18,8.434,18,8.981
	c0,0.574,0.19,1.054,0.574,1.439C18.956,10.807,19.432,11,20.001,11z"/>
<path fill="#FFFFFF" d="M23.945,19H27v-5h-6.253c-0.189,0-0.361,0.066-0.515,0.197C20.078,14.329,20,14.494,20,14.691
	c0,0.176,0.072,0.329,0.214,0.46L23.945,19z"/>
<path fill="#FFFFFF" d="M21.691,13.537c0.172,0,0.256-0.095,0.256-0.288c0-0.191-0.084-0.288-0.256-0.288
	c-0.173,0-0.257,0.097-0.257,0.288C21.435,13.442,21.519,13.537,21.691,13.537z"/>
<path fill="#FFFFFF" d="M22.059,12.427c0-0.165-0.087-0.247-0.257-0.247c-0.172,0-0.257,0.082-0.257,0.247
	c0,0.192,0.085,0.287,0.257,0.287C21.972,12.714,22.059,12.619,22.059,12.427z"/>
<path fill="#FFFFFF" d="M22.314,11.688c0-0.192-0.097-0.288-0.293-0.288c-0.171,0-0.256,0.096-0.256,0.288
	c0,0.219,0.085,0.329,0.256,0.329C22.218,12.017,22.314,11.907,22.314,11.688z"/>
<path fill="#FFFFFF" d="M22.353,13.537c0.17,0,0.255-0.083,0.255-0.247c0-0.191-0.085-0.287-0.255-0.287
	c-0.172,0-0.258,0.096-0.258,0.287C22.095,13.455,22.181,13.537,22.353,13.537z"/>
<path fill="#FFFFFF" d="M22.719,12.468c0-0.191-0.086-0.288-0.259-0.288c-0.17,0-0.256,0.096-0.256,0.288
	c0,0.219,0.086,0.329,0.256,0.329C22.633,12.797,22.719,12.688,22.719,12.468z"/>
<path fill="#FFFFFF" d="M22.791,11.112c0-0.191-0.097-0.287-0.293-0.287c-0.172,0-0.256,0.096-0.256,0.287
	c0,0.22,0.084,0.329,0.256,0.329C22.694,11.441,22.791,11.332,22.791,11.112z"/>
<path fill="#FFFFFF" d="M23.122,11.853c0-0.22-0.099-0.33-0.294-0.33c-0.172,0-0.257,0.11-0.257,0.33
	c0,0.219,0.085,0.328,0.257,0.328C23.023,12.181,23.122,12.072,23.122,11.853z"/>
<path fill="#FFFFFF" d="M23.49,10.865c0-0.191-0.1-0.287-0.295-0.287c-0.196,0-0.293,0.096-0.293,0.287
	c0,0.22,0.097,0.329,0.293,0.329C23.391,11.194,23.49,11.084,23.49,10.865z"/>
<path fill="#FFFFFF" d="M23.782,11.564c0-0.191-0.097-0.288-0.292-0.288c-0.198,0-0.295,0.096-0.295,0.288
	c0,0.22,0.097,0.329,0.295,0.329C23.686,11.893,23.782,11.784,23.782,11.564z"/>
<path fill="#FFFFFF" d="M24.187,10.865c0-0.219-0.099-0.328-0.294-0.328c-0.196,0-0.293,0.109-0.293,0.328
	c0,0.22,0.097,0.329,0.293,0.329C24.088,11.194,24.187,11.084,24.187,10.865z"/>
<path fill="#FFFFFF" d="M24.442,11.811c0-0.219-0.11-0.329-0.33-0.329c-0.197,0-0.293,0.109-0.293,0.329
	c0,0.246,0.096,0.37,0.293,0.37C24.332,12.181,24.442,12.057,24.442,11.811z"/>
<path fill="#FFFFFF" d="M24.554,12.797c0.219,0,0.33-0.123,0.33-0.37c0-0.219-0.111-0.329-0.33-0.329
	c-0.197,0-0.294,0.11-0.294,0.329C24.26,12.674,24.356,12.797,24.554,12.797z"/>
<path fill="#FFFFFF" d="M24.921,11.194c0-0.219-0.111-0.329-0.332-0.329c-0.194,0-0.293,0.11-0.293,0.329
	c0,0.247,0.099,0.37,0.293,0.37C24.81,11.564,24.921,11.441,24.921,11.194z"/>
<path fill="#FFFFFF" d="M25.103,12.181c0.222,0,0.332-0.124,0.332-0.37c0-0.219-0.11-0.329-0.332-0.329
	c-0.195,0-0.293,0.109-0.293,0.329C24.81,12.057,24.907,12.181,25.103,12.181z"/>
</svg>
