<?xml version="1.0" encoding="utf-8"?>
<!-- Generator: Adobe Illustrator 16.0.3, SVG Export Plug-In . SVG Version: 6.00 Build 0)  -->
<!DOCTYPE svg PUBLIC "-//W3C//DTD SVG 1.1//EN" "http://www.w3.org/Graphics/SVG/1.1/DTD/svg11.dtd">
<svg version="1.1" id="Emergency_Medical_Services" xmlns="http://www.w3.org/2000/svg" xmlns:xlink="http://www.w3.org/1999/xlink"
	 x="0px" y="0px" width="40px" height="40px" viewBox="0 0 40 40" enable-background="new 0 0 40 40" xml:space="preserve">
<path opacity="0.75" fill="#FFFFFF" d="M33.9707031,15.7094727c0-1.0039063-0.09375-1.9799805-0.2724609-2.9262695
	c-0.1806641-0.9482422-0.4560547-1.8676758-0.8242188-2.7587891c-0.3652344-0.8920898-0.796875-1.7255859-1.2958984-2.5024414
	s-1.0625-1.496582-1.6943359-2.1577148c-0.6357422-0.6611328-1.3232422-1.2543945-2.0634766-1.7753906
	c-0.7431641-0.5229492-1.5400391-0.9780273-2.3876953-1.3618164c-0.8535156-0.3828125-1.7333984-0.6689453-2.6376953-0.8608398
	c-0.90625-0.1914063-1.8364258-0.2856445-2.7944336-0.2856445c-0.9575195,0-1.8881836,0.0942383-2.7924805,0.2856445
	c-0.9057617,0.1918945-1.7836914,0.4780273-2.6357422,0.8608398c-0.8520508,0.3837891-1.6489258,0.8388672-2.390625,1.3618164
	c-0.7416992,0.5209961-1.4287109,1.1142578-2.0610352,1.7753906S8.9228516,6.7451172,8.4233398,7.5219727
	c-0.4980469,0.7768555-0.9291992,1.6103516-1.296875,2.5024414c-0.3662109,0.8911133-0.6396484,1.8105469-0.8232422,2.7587891
	c-0.1835938,0.9462891-0.2749023,1.9223633-0.2749023,2.9262695c0,1.0014648,0.0913086,1.9775391,0.2749023,2.9257813
	s0.4570313,1.8666992,0.8232422,2.7602539c0.315918,0.7675781,0.6816406,1.4951172,1.0952148,2.1787109
	c0.4160156,0.6835938,0.8789063,1.3232422,1.3916016,1.9199219H9.609375H9.6064453l5.1938477,7.2529297L19.9946289,40
	l5.1850586-7.2363281l5.1767578-7.2324219c0.5214844-0.6015625,0.9912109-1.2480469,1.4101563-1.9355469
	c0.4199219-0.6914063,0.7900391-1.4257813,1.1074219-2.2001953c0.3681641-0.8935547,0.6435547-1.8120117,0.8242188-2.7602539
	C33.8769531,17.6870117,33.9707031,16.7109375,33.9707031,15.7094727z"/>
<path fill="#0040AD" d="M31.7617188,13.2695313c-0.15625-0.8286133-0.3945313-1.637207-0.7128906-2.4140625
	c-0.3164063-0.7822266-0.6953125-1.5258789-1.1308594-2.2128906c-0.4296875-0.6777344-0.9199219-1.3120117-1.4550781-1.8789063
	c-0.5507813-0.581543-1.1503906-1.1025391-1.7792969-1.5507813C26.0449219,4.7573242,25.3496094,4.355957,24.625,4.0229492
	c-0.7207031-0.3276367-1.4746094-0.5761719-2.2382813-0.7397461c-0.765625-0.1640625-1.5683594-0.2470703-2.3857422-0.2470703
	c-0.8193359,0-1.6210938,0.0830078-2.3857422,0.2470703c-0.7636719,0.1635742-1.5146484,0.4116211-2.2314453,0.7382813
	c-0.7324219,0.3344727-1.4277344,0.7353516-2.0683594,1.1928711c-0.6298828,0.4482422-1.2246094,0.9672852-1.7695313,1.5458984
	c-0.5419922,0.5727539-1.0341797,1.2060547-1.4628906,1.8842773c-0.4287109,0.6767578-0.8105469,1.4223633-1.1328125,2.2158203
	c-0.3144531,0.7729492-0.5537109,1.5844727-0.7109375,2.4130859C8.0810547,14.1040039,8,14.9736328,8,15.859375
	c0,0.8842773,0.0810547,1.7539063,0.2392578,2.5869141c0.1572266,0.8242188,0.3964844,1.6367188,0.7109375,2.4140625
	c0.2773438,0.6816406,0.5996094,1.3320313,0.9570313,1.9296875c0.3583984,0.5976563,0.7626953,1.1621094,1.2021484,1.6796875
	l2.3681641,3.3476563l6.5175781,9.21875l8.8115234-12.4628906l0.0605469-0.0703125
	c0.4433594-0.5195313,0.8535156-1.0898438,1.2128906-1.6894531c0.3710938-0.6191406,0.6953125-1.2734375,0.9726563-1.9570313
	c0.3144531-0.7734375,0.5527344-1.5820313,0.7089844-2.4052734C31.9199219,17.6083984,32,16.7368164,32,15.859375
	C32,14.9804688,31.9199219,14.1083984,31.7617188,13.2695313z"/>
<path fill="#3366BE" d="M30.7792969,13.3720703c-0.1445313-0.7553711-0.3632813-1.4946289-0.65625-2.203125
	c-0.2929688-0.7197266-0.6445313-1.4033203-1.046875-2.0336914c-0.3945313-0.6176758-0.84375-1.1938477-1.3339844-1.7094727
	c-0.5058594-0.5292969-1.0566406-1.0048828-1.6347656-1.4130859c-0.5878906-0.4155273-1.2246094-0.7822266-1.8925781-1.0854492
	C23.5605469,4.6313477,22.875,4.4077148,22.1796875,4.2597656c-0.6992188-0.1479492-1.4321289-0.2236328-2.1801758-0.2236328
	c-0.7490234,0-1.4814453,0.0756836-2.1787109,0.2236328c-0.6943359,0.1479492-1.3769531,0.3710938-2.0273438,0.6650391
	c-0.6738281,0.3051758-1.3134766,0.6723633-1.9042969,1.0898438c-0.5761719,0.4067383-1.1220703,0.8803711-1.6220703,1.4067383
	c-0.4980469,0.5214844-0.9492188,1.0991211-1.34375,1.7167969c-0.3964844,0.621582-0.7490234,1.3061523-1.0488281,2.0380859
	c-0.2880859,0.7026367-0.5087891,1.4433594-0.6542969,2.2016602c-0.1464844,0.7626953-0.2207031,1.5615234-0.2207031,2.375
	c0,0.8125,0.0742188,1.6118164,0.2207031,2.3769531c0.1445313,0.75,0.3652344,1.4921875,0.6542969,2.2011719
	c0.2587891,0.6328125,0.5576172,1.2304688,0.8867188,1.7753906s0.7021484,1.0605469,1.1064453,1.5361328l3.5556641,4.9785156
	l4.5703125,6.4150391l7.9985352-11.2226563l0.1171875-0.1435547c0.4082031-0.4726563,0.7832031-0.9902344,1.1152344-1.5390625
	c0.3417969-0.5654297,0.6445313-1.171875,0.9023438-1.8046875c0.2910156-0.7050781,0.5097656-1.4423828,0.6523438-2.1904297
	C30.9257813,17.362793,31,16.5610352,31,15.7529297C31,14.9428711,30.9257813,14.1420898,30.7792969,13.3720703z"/>
<polygon fill="#FFFFFF" points="27.5859375,9.2070313 23,11.7817383 23,6.0361328 17,6.0361328 17,11.7817383 12.4472656,9.2070313 
	10,13.3208008 15.1044922,16.1762695 10,19.0664063 12.4472656,23.1796875 17,20.2890625 17,26.0361328 23,26.0361328 
	23,20.2890625 27.5859375,23.1796875 30,19.0664063 24.8925781,16.1762695 30,13.3208008 "/>
<path fill="#3366BE" d="M19.5600586,11.9189453h0.0375977v1.2666016c-0.0761719-0.0249023-0.1977539-0.0996094-0.3632813-0.2241211
	c-0.1665039-0.1230469-0.3256836-0.2915039-0.4794922-0.5029297c-0.152832-0.2104492-0.2939453-0.465332-0.421875-0.7641602
	c-0.1274414-0.2978516-0.1914063-0.6328125-0.1914063-1.0058594c0-0.2480469,0.0385742-0.5092773,0.1152344-0.7822266
	c0.0512695-0.2236328,0.1479492-0.4038086,0.2871094-0.5410156c0.1401367-0.1357422,0.2807617-0.2421875,0.421875-0.3164063
	c0.1401367-0.0742188,0.2685547-0.1308594,0.3833008-0.1679688C19.4643555,8.84375,19.5341797,8.8125,19.5600586,8.7880859
	c0.1269531-0.0996094,0.2685547-0.1494141,0.4213867-0.1494141c0.2299805,0,0.421875,0.074707,0.5751953,0.2241211
	c0.0766602,0.0732422,0.1147461,0.1738281,0.1147461,0.2973633c0,0.125-0.0644531,0.2368164-0.190918,0.3359375
	c-0.1289063,0.0996094-0.2299805,0.1616211-0.3071289,0.1865234c-0.0517578,0-0.1020508-0.0063477-0.1533203-0.0195313
	c-0.0522461-0.0117188-0.1152344-0.0180664-0.1914063-0.0180664h-0.0390625c-0.0766602,0-0.1401367-0.0058594-0.1918945-0.0185547
	c-0.050293-0.0126953-0.1010742-0.0185547-0.1523438-0.0185547c-0.0771484,0-0.1411133,0.0239258-0.1918945,0.074707
	c-0.2290039,0.2236328-0.3447266,0.496582-0.3447266,0.8198242c0,0.1987305,0.0126953,0.3354492,0.0375977,0.4101563
	c0.0512695,0.2729492,0.1469727,0.4970703,0.2880859,0.6704102C19.3745117,11.7573242,19.4829102,11.8686523,19.5600586,11.9189453z
	"/>
<path fill="#3366BE" d="M21.7451172,13.5209961c0.078125,0.1489258,0.1132813,0.3115234,0.1132813,0.484375
	c0,0.2485352-0.0507813,0.4599609-0.1523438,0.6337891c-0.1035156,0.2241211-0.25,0.4467773-0.4414063,0.6708984
	c-0.1923828,0.2236328-0.3891602,0.4350586-0.5932617,0.6333008c-0.1533203,0.125-0.293457,0.2485352-0.4208984,0.3725586
	c-0.1289063,0.125-0.2177734,0.2490234-0.269043,0.3730469c-0.1279297,0.1489258-0.1982422,0.3046875-0.2109375,0.4658203
	c-0.0131836,0.1621094-0.0185547,0.2924805-0.0185547,0.3916016v0.1118164c0,0.0493164,0.0053711,0.1669922,0.0185547,0.3535156
	c0.0126953,0.1870117,0.019043,0.3295898,0.019043,0.4291992c-0.0507813-0.0244141-0.121582-0.0615234-0.2109375-0.112793
	c-0.0893555-0.0488281-0.1591797-0.1357422-0.2104492-0.2602539c-0.152832-0.1733398-0.2294922-0.4350586-0.2294922-0.7827148
	c0-0.3725586,0.1147461-0.7324219,0.3442383-1.0810547c0.1791992-0.2983398,0.3837891-0.5585938,0.6132813-0.7827148
	l0.0385742-0.0371094c0.2807617-0.3476563,0.4912109-0.6513672,0.6328125-0.9130859
	c0.1391602-0.2612305,0.2114258-0.4404297,0.2114258-0.5405273V12.8125c0.1010742,0.050293,0.2290039,0.1313477,0.3813477,0.2421875
	C21.5146484,13.1669922,21.6416016,13.3222656,21.7451172,13.5209961z"/>
<path fill="#3366BE" d="M20.7871094,18.5522461h0.0375977c0.1015625,0.050293,0.2241211,0.144043,0.3637695,0.2788086
	c0.140625,0.1381836,0.2363281,0.3305664,0.2871094,0.5786133v0.1489258c0,0.3486328-0.2285156,0.7460938-0.6884766,1.1933594
	c-0.2827148,0.2744141-0.4863281,0.484375-0.6137695,0.6337891c-0.128418,0.1474609-0.2055664,0.3232422-0.2299805,0.5205078
	v0.9335938c-0.0512695-0.0517578-0.1347656-0.125-0.2495117-0.2255859
	c-0.1152344-0.0976563-0.2109375-0.2480469-0.2866211-0.4472656c-0.0263672-0.0234375-0.0390625-0.1240234-0.0390625-0.2978516
	c0-0.4960938,0.2294922-0.9697266,0.6904297-1.4169922l0.1918945-0.1855469
	c0.152832-0.1484375,0.2797852-0.2792969,0.3828125-0.3916016c0.1020508-0.1123047,0.1538086-0.2421875,0.1538086-0.3911133
	V18.5522461z"/>
<path fill="#3366BE" d="M20.824707,14.2294922c-0.0512695,0.1245117-0.1469727,0.2856445-0.2875977,0.484375
	s-0.300293,0.3974609-0.4785156,0.5961914c-0.0522461,0.0498047-0.1025391,0.0996094-0.1538086,0.1489258
	c-0.0512695,0.0498047-0.152832,0.0996094-0.3071289,0.1489258V9.7192383l0.230957,0.0380859
	c0.0761719,0,0.1391602,0.0058594,0.1914063,0.0185547c0.0512695,0.0126953,0.1015625,0.0185547,0.1533203,0.0185547
	c0.1015625-0.0498047,0.2299805-0.1313477,0.3833008-0.2426758c0.1533203-0.1123047,0.2304688-0.2426758,0.2304688-0.3916016
	c0-0.1494141-0.0517578-0.2724609-0.1538086-0.3720703c-0.2050781-0.1494141-0.421875-0.2236328-0.6518555-0.2236328
	c-0.1787109,0-0.3193359,0.0366211-0.4213867,0.1118164l-0.0385742-0.9316406c0-0.4716797,0.2421875-0.7084961,0.7290039-0.7084961
	c0.4077148,0,0.6132813,0.1616211,0.6132813,0.484375c0,0.1245117-0.0136719,0.1992188-0.0390625,0.2241211V14.2294922z"/>
<path fill="#3366BE" d="M20.2114258,20.1923828l-0.2299805,0.1865234l-0.1147461-3.1313477
	c0.0253906-0.074707,0.0512695-0.1542969,0.0766602-0.2421875c0.0244141-0.0869141,0.0629883-0.1796875,0.1152344-0.2788086
	c0.0761719-0.125,0.171875-0.2421875,0.2871094-0.3544922c0.1147461-0.1113281,0.2358398-0.2294922,0.3642578-0.3540039
	l0.0375977-0.0371094c-0.0253906-0.0244141-0.0512695-0.0375977-0.0761719-0.0375977v3.6152344
	C20.5952148,19.7587891,20.4414063,19.96875,20.2114258,20.1923828z"/>
<path fill="#3366BE" d="M20.1347656,24.8525391h-0.0761719V21.90625c0.0239258-0.1240234,0.0820313-0.2460938,0.171875-0.3730469
	c0.0888672-0.1240234,0.1977539-0.2841797,0.3261719-0.484375v2.7578125c0,0.0263672-0.0068359,0.0458984-0.0195313,0.0556641
	c-0.0126953,0.0136719-0.0327148,0.0458984-0.0566406,0.0947266c-0.0258789,0.0488281-0.0649414,0.1113281-0.1152344,0.1865234
	c-0.0517578,0.0742188-0.0771484,0.1474609-0.0771484,0.2226563l0.0385742,0.1113281
	c0.0249023,0.0253906,0.0512695,0.0449219,0.0766602,0.0566406c0.0249023,0.0117188,0.0771484,0.0058594,0.1533203-0.0185547
	v0.3369141c0,0.1240234-0.0761719,0.1835938-0.2299805,0.1835938
	C20.1982422,25.0361328,20.1347656,24.9765625,20.1347656,24.8525391z"/>
<path fill="#3366BE" d="M20.0844727,24.7900391c-0.0253906-0.0253906-0.0380859-0.0498047-0.0380859-0.0751953
	c0-0.0751953,0.0620117-0.2119141,0.1870117-0.4111328c0.0742188-0.0234375,0.1113281-0.1113281,0.1113281-0.2587891v0.0361328
	c0.0498047,0.1494141,0.0751953,0.2353516,0.0751953,0.2617188l-0.0751953,0.2216797h-0.0371094
	c-0.0991211,0.1757813-0.1743164,0.2617188-0.2231445,0.2617188V24.7900391z"/>
</svg>
