<?xml version="1.0" encoding="utf-8"?>
<!-- Generator: Adobe Illustrator 16.0.3, SVG Export Plug-In . SVG Version: 6.00 Build 0)  -->
<!DOCTYPE svg PUBLIC "-//W3C//DTD SVG 1.1//EN" "http://www.w3.org/Graphics/SVG/1.1/DTD/svg11.dtd">
<svg version="1.1" id="Event_Plan_Notes" xmlns="http://www.w3.org/2000/svg" xmlns:xlink="http://www.w3.org/1999/xlink" x="0px"
	 y="0px" width="34px" height="34px" viewBox="0 0 34 34" enable-background="new 0 0 34 34" xml:space="preserve">
<circle fill="#FFFFFF" cx="17" cy="17" r="15"/>
<path fill="#253659" d="M17,30C9.832,30,4,24.167,4,17S9.832,4,17,4c7.167,0,13,5.832,13,13S24.168,30,17,30z"/>
<path fill="#4564A5" d="M17,29c-6.617,0-12-5.383-12-12c0-6.617,5.383-12,12-12c6.617,0,12,5.383,12,12C29,23.617,23.617,29,17,29z"
	/>
<path fill="#FFFFFF" d="M23.609,8H10.392C9.696,8,9,9.361,9,10.04v13.599C9,24.32,9.696,25,10.392,25h13.218
	C24.306,25,25,24.32,25,23.639V9.305C25,8.68,24.306,8,23.609,8z"/>
<ellipse fill="#4564A5" cx="13" cy="9" rx="1" ry="2"/>
<path fill="#4564A5" d="M22,9.001C22,10.105,21.552,11,21.001,11C20.444,11,20,10.105,20,9.001C20,7.895,20.444,7,21.001,7
	C21.552,7,22,7.895,22,9.001z"/>
<rect x="10" y="13" fill="#4564A5" width="14" height="2"/>
<rect x="10" y="17" fill="#4564A5" width="14" height="2"/>
<rect x="10" y="21" fill="#4564A5" width="14" height="2"/>
</svg>
