<?xml version="1.0" encoding="utf-8"?>
<!-- Generator: Adobe Illustrator 16.0.3, SVG Export Plug-In . SVG Version: 6.00 Build 0)  -->
<!DOCTYPE svg PUBLIC "-//W3C//DTD SVG 1.1//EN" "http://www.w3.org/Graphics/SVG/1.1/DTD/svg11.dtd">
<svg version="1.1" id="Event_Sign" xmlns="http://www.w3.org/2000/svg" xmlns:xlink="http://www.w3.org/1999/xlink" x="0px" y="0px"
	 width="34px" height="34px" viewBox="0 0 34 34" enable-background="new 0 0 34 34" xml:space="preserve">
<circle fill="#FFFFFF" cx="17" cy="17" r="15"/>
<path fill="#262424" d="M17,30C9.832,30,4,24.167,4,17S9.832,4,17,4c7.167,0,13,5.832,13,13S24.168,30,17,30z"/>
<path fill="#424243" d="M17,29c-6.617,0-12-5.383-12-12c0-6.617,5.383-12,12-12c6.617,0,12,5.383,12,12C29,23.617,23.617,29,17,29z"
	/>
<path fill="#FFFFFF" d="M22.999,9C20.333,9,13.667,9,11,9c-1.333,0-2,0.692-2,2.077c0,1.558,0,3.462,0,4.846
	C9,17.308,9.667,18,11,18c2.667,0,8.666,0,11.999,0C24.333,18,25,17.308,25,15.922c0-1.384,0-3.461,0-4.846S24.333,9,22.999,9z"/>
<rect x="10" y="18" fill="#FFFFFF" width="1" height="7"/>
<rect x="23" y="18" fill="#FFFFFF" width="1" height="7"/>
</svg>
