<?xml version="1.0" encoding="utf-8"?>
<!-- Generator: Adobe Illustrator 16.0.3, SVG Export Plug-In . SVG Version: 6.00 Build 0)  -->
<!DOCTYPE svg PUBLIC "-//W3C//DTD SVG 1.1//EN" "http://www.w3.org/Graphics/SVG/1.1/DTD/svg11.dtd">
<svg version="1.1" id="Event" xmlns="http://www.w3.org/2000/svg" xmlns:xlink="http://www.w3.org/1999/xlink" x="0px" y="0px"
	 width="32px" height="32px" viewBox="0 0 32 32" enable-background="new 0 0 32 32" xml:space="preserve">
<circle fill="#FFFFFF" cx="16" cy="16" r="15"/>
<path fill="#BF6B04" d="M16,29C8.832,29,3,23.167,3,16S8.832,3,16,3c7.167,0,13,5.832,13,13S23.168,29,16,29z"/>
<path fill="#F28705" d="M16,28C9.383,28,4,22.617,4,16C4,9.383,9.383,4,16,4c6.617,0,12,5.383,12,12C28,22.617,22.617,28,16,28z"/>
<path fill="#FFFFFF" d="M24,11c0-1-1-2-2-2H10c-1,0-2,1-2,2v11c0,1,1,2,2,2c1.575,0,3.419,0,6,0c0,0,5,0,6,0s2-1,2-2
	c0-1.947-0.002-5.695,0-9.25V11z"/>
<path fill="#F28705" d="M22,21c0,0.736-0.169,1-1.2,1h-9.6c-1.031,0-1.2-0.264-1.2-1v-8c0-0.734,0.169-1,1.2-1h9.6
	c1.031,0,1.2,0.266,1.2,1V21z"/>
<ellipse fill="#F28705" cx="12" cy="9.75" rx="1" ry="1.25"/>
<path fill="#FFFFFF" d="M21,19c0,1.34-1.034,2-2,2h-6c-0.966,0-2-0.66-2-2v-4c0-1.339,1.034-2,2-2h6c0.966,0,2,0.661,2,2V19z"/>
<ellipse fill="#F28705" cx="20" cy="9.75" rx="1" ry="1.25"/>
<g>
	<path fill="#F28705" d="M16,19.353v-3.641c-0.705,0.52-1.311,0.78-1.555,0.78c-0.117,0-0.22-0.045-0.31-0.134S14,16.166,14,16.048
		c0-0.136,0.044-0.236,0.133-0.3s0.245-0.146,0.47-0.248c0.335-0.152,0.604-0.312,0.805-0.48c0.201-0.168,0.379-0.356,0.535-0.564
		c0.155-0.208,0.256-0.336,0.304-0.384C16.294,14.024,16.383,14,16.513,14c0.147,0,0.265,0.055,0.354,0.164
		C16.956,14.273,17,14.424,17,14.616v4.58C17,19.731,16.942,20,16.562,20c-0.169,0-0.306-0.055-0.408-0.164
		C16.052,19.727,16,19.565,16,19.353z"/>
</g>
</svg>
