<?xml version="1.0" encoding="utf-8"?>
<!-- Generator: Adobe Illustrator 16.0.3, SVG Export Plug-In . SVG Version: 6.00 Build 0)  -->
<!DOCTYPE svg PUBLIC "-//W3C//DTD SVG 1.1//EN" "http://www.w3.org/Graphics/SVG/1.1/DTD/svg11.dtd">
<svg version="1.1" id="Extreme_Heat" xmlns="http://www.w3.org/2000/svg" xmlns:xlink="http://www.w3.org/1999/xlink" x="0px"
	 y="0px" width="40px" height="40px" viewBox="0 0 40 40" enable-background="new 0 0 40 40" xml:space="preserve">
<path opacity="0.75" fill="#FFFFFF" d="M34,15.659c0-1.006-0.095-1.984-0.273-2.932c-0.181-0.95-0.457-1.872-0.826-2.764
	c-0.366-0.895-0.799-1.729-1.299-2.508c-0.5-0.778-1.064-1.499-1.697-2.162c-0.637-0.663-1.326-1.257-2.067-1.779
	c-0.745-0.525-1.544-0.981-2.394-1.365c-0.854-0.384-1.736-0.67-2.643-0.862C21.893,1.095,20.96,1,20,1
	c-0.959,0-1.892,0.095-2.798,0.287c-0.908,0.192-1.787,0.479-2.641,0.862c-0.854,0.384-1.652,0.84-2.396,1.365
	C11.422,4.036,10.734,4.63,10.1,5.293C9.467,5.956,8.9,6.677,8.399,7.455C7.9,8.233,7.468,9.068,7.1,9.963
	c-0.367,0.892-0.641,1.814-0.825,2.764C6.091,13.675,6,14.653,6,15.659c0,1.004,0.091,1.981,0.275,2.932s0.458,1.871,0.825,2.767
	c0.316,0.769,0.683,1.498,1.097,2.183c0.417,0.686,0.881,1.326,1.395,1.924H9.588H9.585l5.205,7.269L19.995,40l5.196-7.251
	l5.188-7.247c0.522-0.604,0.993-1.251,1.413-1.94c0.421-0.692,0.792-1.429,1.109-2.204c0.369-0.896,0.646-1.816,0.826-2.767
	C33.905,17.641,34,16.663,34,15.659z"/>
<path fill="#C70101" d="M31.762,13.229c-0.156-0.829-0.395-1.638-0.713-2.414c-0.316-0.782-0.695-1.526-1.131-2.213
	c-0.43-0.678-0.92-1.313-1.455-1.879c-0.551-0.582-1.15-1.103-1.779-1.551c-0.639-0.456-1.334-0.857-2.059-1.19
	c-0.721-0.327-1.475-0.576-2.238-0.739c-0.766-0.164-1.568-0.247-2.386-0.247c-0.819,0-1.621,0.083-2.386,0.247
	c-0.764,0.163-1.515,0.411-2.231,0.738c-0.732,0.334-1.428,0.735-2.068,1.192c-0.63,0.448-1.225,0.968-1.77,1.546
	c-0.542,0.573-1.034,1.206-1.463,1.885C9.654,9.281,9.272,10.026,8.95,10.82c-0.314,0.772-0.554,1.584-0.711,2.413
	C8.081,14.063,8,14.934,8,15.819c0,0.884,0.081,1.754,0.239,2.587c0.157,0.824,0.396,1.637,0.711,2.414
	c0.277,0.682,0.6,1.332,0.957,1.93c0.358,0.598,0.763,1.162,1.202,1.68l2.368,3.348l6.518,9.219l8.812-12.463l0.061-0.07
	c0.443-0.52,0.854-1.09,1.213-1.689c0.371-0.619,0.695-1.273,0.973-1.957c0.314-0.773,0.553-1.582,0.709-2.405
	C31.92,17.568,32,16.696,32,15.819C32,14.94,31.92,14.068,31.762,13.229z"/>
<path fill="#FB0101" d="M30.779,13.332c-0.145-0.756-0.363-1.495-0.656-2.203c-0.293-0.72-0.645-1.403-1.047-2.034
	c-0.395-0.617-0.844-1.193-1.334-1.709c-0.506-0.529-1.057-1.005-1.635-1.413c-0.588-0.416-1.225-0.782-1.893-1.086
	c-0.654-0.296-1.34-0.52-2.035-0.667C21.48,4.071,20.748,3.996,20,3.996c-0.749,0-1.481,0.075-2.179,0.224
	c-0.694,0.147-1.377,0.371-2.027,0.665c-0.674,0.305-1.313,0.672-1.904,1.09c-0.576,0.406-1.122,0.88-1.622,1.406
	c-0.498,0.521-0.949,1.1-1.344,1.717c-0.396,0.622-0.749,1.307-1.049,2.038c-0.288,0.703-0.509,1.443-0.654,2.202
	C9.074,14.101,9,14.899,9,15.713c0,0.813,0.074,1.611,0.221,2.377c0.145,0.75,0.365,1.492,0.654,2.201
	c0.259,0.633,0.558,1.23,0.887,1.775s0.702,1.061,1.106,1.536l3.556,4.979l4.57,6.415l7.999-11.223l0.117-0.144
	c0.408-0.473,0.783-0.99,1.115-1.539c0.342-0.565,0.645-1.172,0.902-1.805c0.291-0.705,0.51-1.442,0.652-2.19
	C30.926,17.322,31,16.521,31,15.713C31,14.902,30.926,14.102,30.779,13.332z"/>
<g>
	<path fill="#FFFFFF" d="M26,20c0-2,0-4.07,0-6.281C26,11.672,26,10,26,9c0-2.367-1.572-3-2.5-3C22.57,6,21,6.618,21,9
		c0,1,0,2.684,0,4.719C21,15.93,21,18,21,20c-0.837,0.64-1,1.364-1,2.5c0,1.934,1.567,3.5,3.5,3.5s3.5-1.566,3.5-3.5
		C27,21.364,26.838,20.64,26,20z M23.5,25c-1.381,0-2.5-1.119-2.5-2.5c0-1.013,0.135-2.107,1-2.5c0-2,0-3.605,0-6.281
		C22,11.189,22,11,22,10c0-1.217,1.291-1,1.5-1c0.21,0,1.5-0.237,1.5,1c0,1,0,1.21,0,3.719C25,16.395,25,18,25,20
		c0.865,0.393,1,1.487,1,2.5C26,23.881,24.881,25,23.5,25z"/>
</g>
<path fill="#FFFFFF" d="M20,12.775c-0.097,0.115-0.22,0.256-0.369,0.419c-0.149,0.164-0.33,0.346-0.542,0.548
	c-0.328,0.327-0.698,0.534-1.113,0.621c0.107,0.145,0.332,0.355,0.68,0.635c0.153,0.125,0.282,0.233,0.383,0.325
	c0.101,0.092,0.175,0.161,0.223,0.209c-0.134,0.019-0.27,0.033-0.404,0.044c-0.135,0.009-0.269,0.014-0.404,0.014
	c-0.646,0-1.224-0.092-1.734-0.274c0,0.087,0.043,0.256,0.129,0.505l0.203,0.621c0.077,0.24,0.13,0.44,0.159,0.599
	c0.029,0.158,0.043,0.286,0.043,0.383v0.058c-0.926-0.366-1.585-0.799-1.979-1.299c-0.106,0.24-0.227,0.513-0.362,0.815
	c-0.134,0.302-0.284,0.637-0.448,1.003l-0.347-0.434c-0.202-0.24-0.347-0.461-0.433-0.664c-0.078-0.173-0.13-0.427-0.159-0.765
	c-0.193,0.127-0.468,0.265-0.824,0.419c-0.434,0.173-0.713,0.304-0.838,0.39c-0.02-0.115-0.032-0.224-0.037-0.324
	c-0.005-0.102-0.007-0.205-0.007-0.311c0-0.597,0.173-1.227,0.52-1.891c-0.116,0-0.262,0.01-0.441,0.028
	c-0.178,0.02-0.383,0.044-0.614,0.073c-0.222,0.038-0.41,0.064-0.564,0.079c-0.154,0.014-0.289,0.021-0.404,0.021h-0.087
	c-0.01-0.037-0.014-0.076-0.014-0.114c0-0.577,0.554-1.174,1.662-1.79c-0.03-0.02-0.118-0.064-0.268-0.137
	c-0.15-0.072-0.364-0.171-0.643-0.295l-0.086-0.044c-0.482-0.212-0.776-0.385-0.882-0.52c0.221-0.241,0.66-0.442,1.315-0.606
	c0.231-0.048,0.448-0.094,0.651-0.137c0.201-0.044,0.394-0.065,0.577-0.065c0.02,0,0.039,0.005,0.058,0.015h0.347
	c-0.068-0.154-0.295-0.423-0.68-0.808c-0.356-0.347-0.568-0.587-0.636-0.722c0.145-0.097,0.327-0.145,0.549-0.145
	c0.52,0,1.132,0.259,1.835,0.779c0.029-0.087,0.043-0.245,0.043-0.477V9.355c0-0.173,0.005-0.373,0.015-0.599
	c0.009-0.226,0.02-0.479,0.028-0.757c0.318,0.038,0.661,0.269,1.026,0.692c0.289,0.355,0.53,0.75,0.723,1.183
	c0.067-0.028,0.231-0.254,0.491-0.678c0.221-0.365,0.414-0.577,0.577-0.635c0.25,0.558,0.377,1.106,0.377,1.645
	c0,0.097-0.006,0.193-0.016,0.289c-0.009,0.096-0.019,0.192-0.028,0.288c0.211-0.086,0.458-0.181,0.737-0.28
	c0.279-0.102,0.601-0.214,0.968-0.34c-0.078,0.952-0.404,1.732-0.983,2.337c0.068,0.02,0.14,0.034,0.217,0.044
	c0.077,0.01,0.164,0.02,0.261,0.029c0.173,0.02,0.39,0.046,0.649,0.079S19.662,12.728,20,12.775z"/>
<rect x="22" y="10.996" fill="#FFFFFF" width="2" height="1"/>
<rect x="22" y="13.996" fill="#FFFFFF" width="2" height="1"/>
<rect x="22" y="16.996" fill="#FFFFFF" width="2" height="1"/>
<rect x="22" y="19.996" fill="#FFFFFF" width="2" height="1"/>
</svg>
