<?xml version="1.0" encoding="utf-8"?>
<!-- Generator: Adobe Illustrator 16.0.3, SVG Export Plug-In . SVG Version: 6.00 Build 0)  -->
<!DOCTYPE svg PUBLIC "-//W3C//DTD SVG 1.1//EN" "http://www.w3.org/Graphics/SVG/1.1/DTD/svg11.dtd">
<svg version="1.1" id="Failure_of_equipment_or_heat_source"
	 xmlns="http://www.w3.org/2000/svg" xmlns:xlink="http://www.w3.org/1999/xlink" x="0px" y="0px" width="24px" height="24px"
	 viewBox="0 0 24 24" enable-background="new 0 0 24 24" xml:space="preserve">
<circle fill="#FF0000" cx="12" cy="12" r="12"/>
<path fill="#FFFFFF" d="M11.9995117,23.0009766c-6.065918,0-10.9985352-4.9365234-10.9985352-11.0014648
	c0-6.0664063,4.9326172-10.9985352,10.9985352-10.9985352s11.0014648,4.9321289,11.0014648,10.9985352
	C23.0009766,18.0644531,18.0654297,23.0009766,11.9995117,23.0009766z"/>
<path fill="#FF0000" d="M17.9082031,13.7880859l0.1484375-0.3740234L21,13v-2l-2.9638672-0.4736328l-0.1279297-0.3774414
	c-0.1152344-0.387207-0.2705078-0.7441406-0.4453125-1.0703125l-0.1865234-0.3505859l1.6533203-2.2084961
	c-0.0009766-0.0063477-0.0058594-0.0141602-0.0166016-0.0185547l-1.4453125-1.449707
	c-0.0048828-0.0053711-0.0068359-0.0117188-0.0175781-0.0146484l-2.2119141,1.6494141L14.8916016,6.496582
	c-0.3457031-0.1816406-0.7011719-0.3393555-1.0683594-0.4526367l-0.3808594-0.1289063L13,3h-2l-0.4438477,2.9428711
	l-0.3764648,0.1142578C9.824707,6.1665039,9.465332,6.3134766,9.1088867,6.5039063L8.7612305,6.6884766L6.5517578,5.0366211
	l-1.4887695,1.487793l1.6538086,2.2060547l-0.190918,0.3491211c-0.1801758,0.34375-0.3369141,0.7021484-0.4487305,1.0693359
	l-0.1318359,0.3774414L3,11v2l2.965332,0.4150391l0.1264648,0.3730469c0.1225586,0.3935547,0.2685547,0.7451172,0.4438477,1.0722656
	l0.1904297,0.3496094l-1.6591797,2.2138672c0.0063477,0,0.0097656,0.0087891,0.0161133,0.0214844l1.449707,1.4462891
	c0.003418,0.0009766,0.0102539,0.0078125,0.015625,0.0117188l2.2128906-1.6513672l0.3476563,0.1933594
	c0.3457031,0.1816406,0.7050781,0.3378906,1.0708008,0.4501953l0.3774414,0.1376953L11,21h2l0.4423828-2.9892578
	l0.3808594-0.1230469c0.3525391-0.1044922,0.7158203-0.2587891,1.0683594-0.4423828l0.3466797-0.1914063l2.2089844,1.6513672
	l1.4824219-1.4853516L17.28125,15.2099609l0.1816406-0.3496094C17.6494141,14.5166016,17.7978516,14.1591797,17.9082031,13.7880859z
	"/>
<path fill="#FFFFFF" d="M11.9990234,14.9990234c-1.652832,0-3-1.34375-3-2.9995117c0-1.6533203,1.347168-3.0004883,3-3.0004883
	c1.65625,0,3,1.347168,3,3.0004883C14.9990234,13.6552734,13.6552734,14.9990234,11.9990234,14.9990234z"/>
</svg>
