<?xml version="1.0" encoding="utf-8"?>
<!-- Generator: Adobe Illustrator 16.0.3, SVG Export Plug-In . SVG Version: 6.00 Build 0)  -->
<!DOCTYPE svg PUBLIC "-//W3C//DTD SVG 1.1//EN" "http://www.w3.org/Graphics/SVG/1.1/DTD/svg11.dtd">
<svg version="1.1" id="False_Alarm-Incident" xmlns="http://www.w3.org/2000/svg" xmlns:xlink="http://www.w3.org/1999/xlink"
	 x="0px" y="0px" width="24px" height="24px" viewBox="0 0 24 24" enable-background="new 0 0 24 24" xml:space="preserve">
<circle fill="#704194" cx="12" cy="12" r="12"/>
<path fill="#FFFFFF" d="M11.9995117,23.0009766c-6.065918,0-10.9985352-4.9365234-10.9985352-11.0014648
	c0-6.0664063,4.9326172-10.9985352,10.9985352-10.9985352s11.0014648,4.9321289,11.0014648,10.9985352
	C23.0009766,18.0644531,18.0654297,23.0009766,11.9995117,23.0009766z"/>
<path fill="#704194" d="M10.2226563,20.8144531l-1.090332-4.515625h-0.0625c-0.3007813,0-0.4301758-0.1259766-0.6860352-0.2988281
	C8.1279297,15.8261719,8,15.5966797,8,15.3125V8.6870117C8,8.4008789,8.1279297,8.1723633,8.3837891,8
	C8.6396484,7.8271484,8.769043,7.6977539,9.0698242,7.6977539h0.0317383l1.0888672-4.515625L9.2304688,3L6.6982422,4.2192383
	C5.565918,7.0869141,5,9.6601563,5,11.9375c0,2.2792969,0.565918,4.9121094,1.6982422,7.9033203L9.2304688,21L10.2226563,20.8144531
	z"/>
<polygon fill="#704194" points="13.1347656,3.925293 11.8720703,3.6806641 10.7910156,8.1665039 11.9819336,8.2885742 "/>
<polygon fill="#704194" points="12.9995117,20.7851563 11.8769531,16.4179688 10.9575195,16.5439453 11.9995117,21.0009766 "/>
<g>
	<path fill="#704194" d="M19.8320313,10H16v2l2.8339844,0.0014648c0.3056641,0,0.7197266,0.2011719,0.8691406,0.3266602
		C19.8496094,12.4545898,20,12.7885742,20,13c0,0.2119141-0.1757813,0.5292969-0.328125,0.65625
		C19.5234375,13.7773438,19.1386719,14,18.8339844,14H16v2.0976563c0,0.3837891-0.1455078,0.5009766-0.328125,0.6835938
		C15.4863281,16.9658203,15.2900391,17,15,17c-0.2988281,0-0.5390625-0.0283203-0.7246094-0.2128906
		C14.0908203,16.5976563,14,16.5078125,14,16.1328125V9.1289063c0-0.2675781,0.0439453-0.4814453,0.1298828-0.6489258
		c0.0810547-0.1694336,0.2197266-0.2890625,0.3994141-0.3676758C14.7089844,8.0371094,15.0927734,8,15.3720703,8h4.1152344
		c0.3203125,0,1.0253906,0.2001953,1.1845703,0.328125C20.8232422,8.4594727,21,8.6889648,21,8.8979492
		c0,0.2182617-0.1757813,0.6274414-0.328125,0.7583008C20.5126953,9.7866211,20.1513672,10,19.8320313,10z"/>
</g>
</svg>
