<?xml version="1.0" encoding="utf-8"?>
<!-- Generator: Adobe Illustrator 16.0.0, SVG Export Plug-In . SVG Version: 6.00 Build 0)  -->
<!DOCTYPE svg PUBLIC "-//W3C//DTD SVG 1.1//EN" "http://www.w3.org/Graphics/SVG/1.1/DTD/svg11.dtd">
<svg version="1.1" id="Filariasis" xmlns="http://www.w3.org/2000/svg" xmlns:xlink="http://www.w3.org/1999/xlink" x="0px" y="0px"
	 width="34px" height="34px" viewBox="0 0 34 34" enable-background="new 0 0 34 34" xml:space="preserve">
<circle fill="#FFFFFF" cx="17" cy="17" r="17"/>
<path fill="#DC8A36" d="M17.0009766,32c-8.2709961,0-15-6.7324219-15-15.0019531C2.0009766,8.7299805,8.7299805,2,17.0009766,2
	c8.2714844,0,15,6.7299805,15,14.9980469C32.0009766,25.2675781,25.2724609,32,17.0009766,32z"/>
<path fill="#FFB241" d="M17.0009766,31.0009766C9.2797852,31.0009766,3.0004883,24.7226563,3.0004883,17
	c0-7.7202148,6.2792969-13.9990234,14.0004883-13.9990234c7.7207031,0,14,6.2788086,14,13.9990234
	C31.0009766,24.7226563,24.7216797,31.0009766,17.0009766,31.0009766z"/>
<polygon fill="#FFFFFF" points="7.0004883,25 17.0009766,6 27,25 "/>
<g>
	<path fill="#FFB241" d="M15.9311523,17.9169922l-0.3076172-4.4282227
		c-0.0581055-0.8618164-0.0874023-1.4824219-0.0874023-1.8579102c0-0.5141602,0.1367188-0.9121094,0.421875-1.1982422
		C16.2358398,10.144043,16.6079102,10,17.0688477,10c0.5546875,0,0.9291992,0.1865234,1.1118164,0.550293
		c0.1904297,0.3686523,0.2841797,0.8955078,0.2841797,1.5874023c0,0.4052734-0.0195313,0.8222656-0.0693359,1.2412109
		l-0.4140625,4.5576172c-0.0454102,0.5400391-0.1445313,0.9560547-0.2915039,1.2470703
		c-0.1479492,0.2890625-0.3950195,0.4335938-0.7412109,0.4335938c-0.3481445,0-0.5913086-0.1386719-0.7260742-0.421875
		C16.0869141,18.9179688,15.9921875,18.4882813,15.9311523,17.9169922z M17.0097656,24
		c-0.3955078,0-0.7402344-0.1181641-1.0332031-0.3623047c-0.2944336-0.2460938-0.4404297-0.5878906-0.4404297-1.0263672
		c0-0.3769531,0.1367188-0.7021484,0.421875-0.9726563c0.277832-0.2666016,0.6269531-0.4023438,1.0327148-0.4023438
		c0.4067383,0,0.7539063,0.1357422,1.0405273,0.4023438c0.2929688,0.2705078,0.4335938,0.5957031,0.4335938,0.9726563
		c0,0.4326172-0.1425781,0.7802734-0.4375,1.0214844C17.7387695,23.8818359,17.3974609,24,17.0097656,24z"/>
</g>
</svg>
