<?xml version="1.0" encoding="utf-8"?>
<!-- Generator: Adobe Illustrator 16.0.3, SVG Export Plug-In . SVG Version: 6.00 Build 0)  -->
<!DOCTYPE svg PUBLIC "-//W3C//DTD SVG 1.1//EN" "http://www.w3.org/Graphics/SVG/1.1/DTD/svg11.dtd">
<svg version="1.1" id="Fire_Incident" xmlns="http://www.w3.org/2000/svg" xmlns:xlink="http://www.w3.org/1999/xlink" x="0px"
	 y="0px" width="44px" height="44px" viewBox="0 0 44 44" enable-background="new 0 0 44 44" xml:space="preserve">
<path opacity="0.75" fill="#FFFFFF" enable-background="new    " d="M38,16.5390625
	c0-1.1357422-0.1083984-2.237793-0.3134766-3.309082c-0.2041016-1.0712891-0.5205078-2.1118164-0.9443359-3.1176758
	c-0.4160156-1.0092773-0.9140625-1.9501953-1.4833984-2.8295898c-0.5712891-0.878418-1.2158203-1.690918-1.9394531-2.4384766
	c-0.7275391-0.7490234-1.5185547-1.4179688-2.3662109-2.0078125c-0.8476563-0.5913086-1.7607422-1.105957-2.7333984-1.5395508
	c-0.9765625-0.4331055-1.9853516-0.7573242-3.0185547-0.9726563C24.1630859,0.1074219,23.1005859,0,22,0
	c-1.0966797,0-2.1645508,0.1074219-3.1972656,0.3242188c-1.0380859,0.215332-2.0429688,0.5395508-3.019043,0.9726563
	c-0.9760742,0.4335938-1.8876953,0.9482422-2.737793,1.5395508c-0.8510742,0.5898438-1.6367188,1.2587891-2.359375,2.0078125
	C9.9599609,5.5917969,9.3129883,6.4042969,8.7426758,7.2827148c-0.5717773,0.8793945-1.0649414,1.8203125-1.4848633,2.8295898
	c-0.4208984,1.0058594-0.7338867,2.0463867-0.9443359,3.1176758C6.1040039,14.3012695,6,15.4033203,6,16.5390625
	c0,1.1337891,0.1040039,2.234375,0.3134766,3.3095703c0.2104492,1.0693359,0.5234375,2.1074219,0.9443359,3.1181641
	c0.3608398,0.8681641,0.7788086,1.6894531,1.2529297,2.4619141c0.4755859,0.7724609,1.0083008,1.4970703,1.5947266,2.1728516
	h-0.0039063h-0.0039063l5.9472656,8.1982422L21.9926758,44l5.9370117-8.1845703l5.9277344-8.171875
	c0.6005859-0.6806641,1.1376953-1.4121094,1.6171875-2.1904297c0.4775391-0.7792969,0.9042969-1.6113281,1.2675781-2.4863281
	c0.4238281-1.0107422,0.7402344-2.0488281,0.9443359-3.1181641C37.8916016,18.7734375,38,17.6728516,38,16.5390625z"/>
<path fill="#1873CD" d="M35.7246094,13.4379883c-0.1855469-0.9267578-0.4609375-1.8300781-0.8339844-2.6987305
	c-0.3652344-0.8745117-0.8105469-1.7060547-1.3183594-2.4731445c-0.5-0.7568359-1.0722656-1.4663086-1.6953125-2.1000977
	c-0.6425781-0.6489258-1.3417969-1.2314453-2.078125-1.7333984c-0.7441406-0.5083008-1.5585938-0.9575195-2.4023438-1.3286133
	c-0.8378906-0.3671875-1.7207031-0.6455078-2.6113281-0.8271484C23.8925781,2.0927734,22.9570313,2,22.0019531,2
	c-0.9560547,0-1.8911133,0.0927734-2.784668,0.2768555c-0.8896484,0.1816406-1.765625,0.4594727-2.6025391,0.824707
	c-0.8535156,0.3735352-1.6660156,0.8217773-2.4140625,1.3330078c-0.7324219,0.5014648-1.4282227,1.0825195-2.0654297,1.7270508
	c-0.6333008,0.6411133-1.2045898,1.3491211-1.7055664,2.1074219c-0.4995117,0.7578125-0.9448242,1.5898438-1.3212891,2.4755859
	C8.7412109,11.609375,8.4604492,12.515625,8.277832,13.4433594C8.0932617,14.371582,8,15.3442383,8,16.331543
	c0,0.9897461,0.0932617,1.9594727,0.2783203,2.8920898c0.1821289,0.9208984,0.4628906,1.8300781,0.8300781,2.6962891
	c0.3227539,0.7636719,0.699707,1.4892578,1.1157227,2.15625c0.4189453,0.6699219,0.8901367,1.3017578,1.402832,1.8779297
	l2.7646484,3.7412109L21.9951172,40l10.2783203-13.9277344l0.0761719-0.0800781
	c0.5136719-0.5800781,0.9902344-1.2197266,1.4160156-1.8886719c0.4296875-0.6904297,0.8085938-1.4238281,1.1308594-2.1875
	c0.3671875-0.8623047,0.6445313-1.7675781,0.828125-2.6875C35.9082031,18.2880859,36,17.3134766,36,16.331543
	S35.9082031,14.375,35.7246094,13.4379883z"/>
<path fill="#1F8FFF" d="M34.7402344,13.5400391c-0.171875-0.8535156-0.4296875-1.6870117-0.7773438-2.487793
	c-0.3417969-0.8120117-0.7636719-1.5844727-1.2363281-2.2949219c-0.4667969-0.6982422-0.9960938-1.3476563-1.5761719-1.9301758
	c-0.5976563-0.5981445-1.2480469-1.1352539-1.9296875-1.5952148c-0.6953125-0.4702148-1.4453125-0.8833008-2.2363281-1.2250977
	c-0.7753906-0.3344727-1.5878906-0.5874023-2.4082031-0.7543945C23.7519531,3.0854492,22.8847656,3,22,3
	c-0.8837891,0-1.7509766,0.0854492-2.574707,0.2524414c-0.8203125,0.1669922-1.6269531,0.4194336-2.3945313,0.7514648
	c-0.7963867,0.3447266-1.5541992,0.7578125-2.2514648,1.2304688c-0.6816406,0.4584961-1.3266602,0.9931641-1.9174805,1.5874023
	c-0.5874023,0.590332-1.1210938,1.2407227-1.5864258,1.9375c-0.4692383,0.703125-0.8876953,1.4746094-1.2402344,2.3027344
	c-0.340332,0.7910156-0.6010742,1.6293945-0.7744141,2.4838867C9.0888672,14.4077148,9,15.3081055,9,16.2275391
	c0,0.9155273,0.0888672,1.8198242,0.2612305,2.6835938c0.1704102,0.8457031,0.4316406,1.6826172,0.7739258,2.484375
	c0.3046875,0.7177734,0.6582031,1.390625,1.0488281,2.0058594c0.3862305,0.6152344,0.8286133,1.1972656,1.3071289,1.7324219
	l4.2011719,5.6210938L21.9946289,38l9.4526367-12.6728516l0.1367188-0.1640625
	c0.484375-0.53125,0.9277344-1.1152344,1.3183594-1.7333984c0.4042969-0.640625,0.7617188-1.3242188,1.0664063-2.0380859
	c0.34375-0.7998047,0.6015625-1.6318359,0.7714844-2.4746094C34.9121094,18.0454102,35,17.1416016,35,16.2275391
	C35,15.3125,34.9121094,14.4086914,34.7402344,13.5400391z"/>
<polygon fill="#FFFFFF" points="34.0830078,17.0410156 22.0927734,29.0419922 10.0830078,17.0410156 22.0927734,5.0419922 "/>
<path fill="#1F8FFF" d="M27.21875,15.8222656c-0.015625-0.1318359-0.0253906-0.2402344-0.0253906-0.3212891
	c-0.0087891-0.0976563-0.0380859-0.21875-0.0771484-0.3637695c-0.0439453-0.1450195-0.0849609-0.2939453-0.1279297-0.4448242
	c-0.0546875-0.1674805-0.1191406-0.3393555-0.1894531-0.519043c-0.0800781,0.2763672-0.1708984,0.5463867-0.2666016,0.8085938
	c-0.0849609,0.2363281-0.1943359,0.4848633-0.3242188,0.746582c-0.1328125,0.2631836-0.2783203,0.4985352-0.4316406,0.7045898
	c-0.1503906,0.2084961-0.3125,0.3989258-0.4853516,0.5717773c-0.1738281,0.1723633-0.3408203,0.3203125-0.4912109,0.4458008
	c-0.1660156,0.152832-0.3398438,0.2900391-0.5224609,0.4130859c-0.0410156-0.0810547-0.0908203-0.1655273-0.1435547-0.2475586
	c-0.0429688-0.0693359-0.0800781-0.1494141-0.1162109-0.2382813c-0.0341797-0.090332-0.0595703-0.1826172-0.0712891-0.2797852
	V16.765625c0-0.152832,0.0205078-0.2998047,0.0712891-0.4453125c0.0478516-0.1450195,0.09375-0.28125,0.1347656-0.4042969
	c0.0429688-0.1669922,0.0888672-0.3251953,0.1367188-0.4790039c0.0478516-0.1503906,0.1230469-0.3432617,0.2167969-0.5786133
	c0.0839844-0.1660156,0.1347656-0.3105469,0.1455078-0.4350586c0.0136719-0.1240234,0.0234375-0.25,0.0234375-0.375v-0.2490234
	c0-0.1367188-0.078125-0.2817383-0.2304688-0.4350586c-0.1533203-0.1503906-0.2646484-0.2910156-0.3330078-0.4155273
	c-0.0712891-0.1367188-0.1757813-0.2998047-0.3222656-0.4863281c-0.1484375-0.1875-0.296875-0.3764648-0.4492188-0.5703125
	c-0.0703125-0.1245117-0.125-0.1865234-0.1669922-0.1865234c-0.0273438,0-0.0429688,0.0336914-0.0429688,0.1025391
	c0,0.0698242,0,0.1391602,0,0.2080078c0,0.0556641,0,0.1118164,0,0.1669922c0,0.0556641,0.0068359,0.1035156,0.0205078,0.1445313
	c0,0.0561523,0.0087891,0.1040039,0.0224609,0.1455078c0,0.1938477-0.0273438,0.4072266-0.0839844,0.6430664
	c-0.0537109,0.234375-0.1259766,0.4487305-0.2080078,0.6411133c-0.0429688,0.1660156-0.1445313,0.3291016-0.3144531,0.4882813
	c-0.1645508,0.159668-0.3056641,0.2939453-0.4155273,0.4047852c-0.0708008,0.0693359-0.1230469,0.1069336-0.1572266,0.1142578
	c-0.0341797,0.0068359-0.0649414,0.0102539-0.0922852,0.0102539c-0.0571289,0-0.0922852-0.0058594-0.1044922-0.0214844
	c-0.0151367,0-0.0292969-0.0053711-0.0429688-0.0205078l-0.2915039-0.3095703
	c-0.027832-0.0429688-0.0795898-0.1069336-0.15625-0.1982422c-0.0776367-0.0888672-0.1494141-0.2172852-0.2192383-0.3828125
	c-0.0419922-0.0703125-0.0722656-0.1669922-0.09375-0.2915039c-0.0219727-0.1245117-0.0307617-0.2416992-0.0307617-0.3530273
	l0.0410156-0.4545898c0-0.1796875,0.0488281-0.3920898,0.1455078-0.6328125
	c0.0966797-0.2431641,0.2006836-0.4609375,0.3134766-0.6538086c0.1113281-0.2080078,0.2089844-0.4111328,0.2915039-0.6118164
	c0.0844727-0.2001953,0.1474609-0.3764648,0.1884766-0.5292969c0.0258789-0.0419922,0.0478516-0.1069336,0.0600586-0.1967773
	c0.0161133-0.0893555,0.0229492-0.1694336,0.0229492-0.2382813c0-0.1669922-0.0229492-0.3349609-0.0727539-0.5092773
	C21.9033203,9.199707,21.8564453,9.112793,21.8178711,9.112793c-0.0566406,0-0.1054688,0.0483398-0.1464844,0.1445313
	c-0.0288086,0.0419922-0.0556641,0.090332-0.0839844,0.1445313c-0.0410156,0.1108398-0.0834961,0.2431641-0.125,0.3959961
	c-0.0405273,0.1240234-0.0942383,0.2612305-0.15625,0.4140625c-0.0634766,0.1518555-0.1494141,0.3105469-0.2612305,0.4760742
	c-0.1113281,0.1533203-0.2285156,0.3085938-0.3540039,0.4667969c-0.125,0.159668-0.2504883,0.3149414-0.3759766,0.4677734
	C20.1621094,11.8427734,20,12.0610352,19.8251953,12.2749023c-0.1728516,0.2167969-0.3227539,0.3974609-0.4477539,0.5498047
	c-0.1533203,0.1669922-0.2963867,0.3291016-0.4277344,0.487793c-0.1318359,0.1582031-0.2182617,0.3085938-0.2602539,0.4448242
	l-0.0429688,0.2504883c0,0.1513672,0.03125,0.3046875,0.0952148,0.4550781c0.0625,0.1533203,0.1142578,0.2851563,0.15625,0.3955078
	c0.0273438,0.109375,0.0859375,0.2583008,0.1772461,0.4453125c0.0908203,0.1875,0.1899414,0.4038086,0.3022461,0.6533203
	c0.0693359,0.1938477,0.1210938,0.394043,0.1552734,0.6010742c0.0361328,0.2075195,0.0532227,0.4228516,0.0532227,0.644043
	v0.2895508c0,0.0273438,0,0.0620117,0,0.1030273c0,0.0429688-0.0146484,0.0761719-0.0410156,0.1035156v0.2910156
	l-0.2094727-0.206543c-0.0703125-0.0419922-0.1464844-0.0966797-0.2294922-0.1665039
	c-0.081543-0.0693359-0.1806641-0.1367188-0.2915039-0.2075195c-0.1391602-0.0834961-0.2456055-0.1474609-0.3227539-0.1972656
	c-0.0771484-0.0483398-0.1411133-0.09375-0.1889648-0.1342773c-0.0478516-0.0419922-0.0898438-0.0795898-0.125-0.1157227
	c-0.034668-0.0332031-0.0810547-0.0712891-0.1357422-0.112793c-0.1098633-0.1103516-0.2382813-0.2592773-0.3842773-0.4453125
	c-0.1464844-0.1875-0.2890625-0.4052734-0.4282227-0.6542969c-0.112793-0.2348633-0.2016602-0.4487305-0.2719727-0.6425781
	c-0.0688477-0.1928711-0.1171875-0.3867188-0.1459961-0.581543c0-0.0961914-0.0273438-0.2001953-0.0825195-0.3105469
	c-0.0283203-0.0551758-0.0551758-0.0952148-0.0839844-0.1240234c-0.0830078,0.137207-0.1601563,0.2836914-0.2280273,0.4345703
	c-0.0698242,0.1254883-0.1293945,0.2607422-0.1772461,0.4057617c-0.050293,0.1459961-0.0874023,0.2719727-0.1152344,0.3828125
	c-0.0429688,0.1533203-0.0737305,0.3535156-0.0942383,0.6025391c-0.0209961,0.2475586-0.0307617,0.4916992-0.0307617,0.7255859
	v0.456543c0.0419922,0.2202148,0.0981445,0.4711914,0.1669922,0.7451172c0.0688477,0.2783203,0.125,0.456543,0.1669922,0.5410156
	c0.0268555,0.0820313,0.1279297,0.3007813,0.3017578,0.6538086c0.1723633,0.3525391,0.3447266,0.7011719,0.5107422,1.0478516
	c0.0419922,0.0410156,0.0649414,0.0888672,0.0737305,0.1435547c0.0053711,0.0527344,0.0234375,0.1054688,0.0512695,0.1464844
	v0.1640625l0.0180664,0.5390625c0.5151367,0.4765625,0.9643555,1.0400391,1.7075195,1.3964844
	C19.7402344,22.8242188,20.6201172,23,21.6347656,23c0.7089844,0,1.3632813-0.0957031,1.9609375-0.2900391
	c0.5947266-0.1914063,1.140625-0.4423828,1.6269531-0.7460938c0.4833984-0.3056641,0.84375-0.6181641,1.2177734-1.0058594
	v-0.7919922l0.0683594-0.4355469c0-0.109375,0.0068359-0.2080078,0.0234375-0.2900391
	c0.0107422-0.0820313,0.0341797-0.1660156,0.0585938-0.2490234l0.4179688-1.4506836
	c0.1005859-0.2353516,0.1621094-0.4907227,0.1845703-0.7675781c0.0322266-0.2758789,0.0458984-0.5322266,0.0458984-0.7670898
	C27.2392578,16.0810547,27.2324219,15.9545898,27.21875,15.8222656z"/>
</svg>
