<?xml version="1.0" encoding="utf-8"?>
<!-- Generator: Adobe Illustrator 16.0.3, SVG Export Plug-In . SVG Version: 6.00 Build 0)  -->
<!DOCTYPE svg PUBLIC "-//W3C//DTD SVG 1.1//EN" "http://www.w3.org/Graphics/SVG/1.1/DTD/svg11.dtd">
<svg version="1.1" id="Fire_Extinguisher" xmlns="http://www.w3.org/2000/svg" xmlns:xlink="http://www.w3.org/1999/xlink" x="0px"
	 y="0px" width="34px" height="34px" viewBox="0 0 34 34" enable-background="new 0 0 34 34" xml:space="preserve">
<circle fill="#FFFFFF" cx="17" cy="17" r="15"/>
<path fill="#C70101" d="M17.001,30c-7.168,0-13-5.835-13-13.002C4.001,9.833,9.833,4,17.001,4c7.169,0,13,5.833,13,12.998
	C30.001,24.165,24.17,30,17.001,30z"/>
<path fill="#FC3434" d="M17.001,29C10.383,29,5,23.619,5,17c0-6.617,5.383-12,12.001-12C23.618,5,29,10.383,29,17
	C29,23.619,23.618,29,17.001,29z"/>
<path fill="#FFFFFF" d="M18.702,9.563c0.225,0,0.425,0.056,0.603,0.169c0.177,0.113,0.354,0.235,0.533,0.366
	c0.178,0.132,0.359,0.253,0.546,0.366s0.392,0.169,0.616,0.169c0-0.3-0.136-0.559-0.406-0.775c-0.271-0.215-0.57-0.417-0.897-0.605
	c-0.326-0.188-0.625-0.367-0.896-0.536s-0.406-0.366-0.406-0.591c0-0.113,0.079-0.207,0.238-0.282
	c0.158-0.075,0.284-0.122,0.378-0.14c0.057-0.019,0.163-0.047,0.322-0.084c0.158-0.038,0.331-0.075,0.519-0.113
	c0.187-0.037,0.364-0.075,0.532-0.112s0.289-0.066,0.364-0.084L21,7h-3c-0.317,0-0.343,0.047-0.53,0.141s-0.42,0.225-0.7,0.395
	c-0.056,0.038-0.136,0.065-0.239,0.084c-0.103,0.019-0.206,0.042-0.308,0.07c-0.103,0.028-0.191,0.066-0.266,0.113
	c-0.075,0.047-0.112,0.108-0.112,0.183c0,0.075,0.004,0.146,0.014,0.211c0.009,0.066,0.014,0.108,0.014,0.126
	c-0.093,0.244-0.275,0.376-0.546,0.395c-0.271,0.019-0.509,0.047-0.714,0.084c-1.195,0.395-2.097,1.07-2.703,2.028
	C11.303,11.788,11,12.887,11,14.126l0.028,0.479c0,0.751,0.042,1.488,0.126,2.211c0.084,0.724,0.238,1.461,0.462,2.211
	c0.393,1.297,0.761,2.54,1.106,3.732c0.346,1.193,0.743,2.409,1.19,3.648c0.038,0.075,0.061,0.15,0.07,0.225
	c0.009,0.076,0.014,0.197,0.014,0.367H20V11.168c-0.149-0.094-0.167-0.197-0.317-0.31c-0.149-0.112-0.317-0.188-0.504-0.225h-0.279
	c-0.188,0-0.375-0.028-0.561-0.084c-0.188-0.056-0.28-0.159-0.28-0.31C18.059,9.788,18.272,9.563,18.702,9.563z M15.818,10.577
	c-0.131,0.038-0.271,0.061-0.42,0.07c-0.15,0.01-0.281,0.014-0.393,0.014c-0.056,0-0.14,0.019-0.252,0.056
	c-0.112,0.038-0.224,0.08-0.336,0.126c-0.112,0.047-0.215,0.099-0.309,0.155C14.015,11.056,14,10.944,14,11c-0.019,0.92,0,2.173,0,3
	s-0.009,1.193,0,2c0.009,0.808-0.01,2.193,0,3c0.009,0.809,0,1.137,0,2c0,0.564,0,1.381,0,2c0,0.601,0.019,1.342,0,2
	c-0.038-0.057-0.101-0.301-0.129-0.395c-0.028-0.095-0.051-0.159-0.07-0.196c-0.019-0.114,0.076-0.311,0.02-0.593
	c-0.056-0.282-0.112-0.582-0.168-0.901c-0.056-0.319-0.108-0.614-0.154-0.888c-0.047-0.271-0.08-0.464-0.098-0.578
	c-0.112-0.544-0.248-1.074-0.407-1.59c-0.159-0.517-0.313-1.029-0.462-1.536c-0.15-0.507-0.276-1.018-0.378-1.535
	C12.051,16.272,12,15.742,12,15.197c0-0.451,0.033-0.911,0.098-1.38c0.065-0.469,0.172-0.919,0.322-1.352
	c0.149-0.432,0.35-0.835,0.603-1.211c0.252-0.375,0.442-0.704,0.834-0.986l0.084-0.057c0.187-0.112,0.401-0.234,0.645-0.366
	c0.242-0.131,0.476-0.197,0.7-0.197c0.15,0,0.285,0.047,0.407,0.141c0.121,0.094,0.2,0.273,0.238,0.536
	C15.93,10.474,15.892,10.559,15.818,10.577z"/>
</svg>
