<?xml version="1.0" encoding="utf-8"?>
<!-- Generator: Adobe Illustrator 16.0.3, SVG Export Plug-In . SVG Version: 6.00 Build 0)  -->
<!DOCTYPE svg PUBLIC "-//W3C//DTD SVG 1.1//EN" "http://www.w3.org/Graphics/SVG/1.1/DTD/svg11.dtd">
<svg version="1.1" id="Fire_and_Hazardous_Materials"
	 xmlns="http://www.w3.org/2000/svg" xmlns:xlink="http://www.w3.org/1999/xlink" x="0px" y="0px" width="40px" height="40px"
	 viewBox="0 0 40 40" enable-background="new 0 0 40 40" xml:space="preserve">
<path opacity="0.75" fill="#FFFFFF" d="M33.9707031,15.7094727c0-1.0039063-0.09375-1.9799805-0.2724609-2.9262695
	c-0.1806641-0.9482422-0.4560547-1.8676758-0.8242188-2.7587891c-0.3652344-0.8920898-0.796875-1.7255859-1.2958984-2.5024414
	s-1.0625-1.496582-1.6943359-2.1577148c-0.6357422-0.6611328-1.3232422-1.2543945-2.0634766-1.7753906
	c-0.7431641-0.5229492-1.5400391-0.9780273-2.3876953-1.3618164c-0.8535156-0.3828125-1.7333984-0.6689453-2.6376953-0.8608398
	c-0.90625-0.1914063-1.8364258-0.2856445-2.7944336-0.2856445c-0.9575195,0-1.8881836,0.0942383-2.7924805,0.2856445
	c-0.9057617,0.1918945-1.7836914,0.4780273-2.6357422,0.8608398c-0.8520508,0.3837891-1.6489258,0.8388672-2.390625,1.3618164
	c-0.7416992,0.5209961-1.4287109,1.1142578-2.0610352,1.7753906S8.9228516,6.7451172,8.4233398,7.5219727
	c-0.4980469,0.7768555-0.9291992,1.6103516-1.296875,2.5024414c-0.3662109,0.8911133-0.6396484,1.8105469-0.8232422,2.7587891
	c-0.1835938,0.9462891-0.2749023,1.9223633-0.2749023,2.9262695c0,1.0014648,0.0913086,1.9775391,0.2749023,2.9257813
	s0.4570313,1.8666992,0.8232422,2.7602539c0.315918,0.7675781,0.6816406,1.4951172,1.0952148,2.1787109
	c0.4160156,0.6835938,0.8789063,1.3232422,1.3916016,1.9199219H9.609375H9.6064453l5.1938477,7.2529297L19.9946289,40
	l5.1850586-7.2363281l5.1767578-7.2324219c0.5214844-0.6015625,0.9912109-1.2480469,1.4101563-1.9355469
	c0.4199219-0.6914063,0.7900391-1.4257813,1.1074219-2.2001953c0.3681641-0.8935547,0.6435547-1.8120117,0.8242188-2.7602539
	C33.8769531,17.6870117,33.9707031,16.7109375,33.9707031,15.7094727z"/>
<path fill="#C70101" d="M31.7617188,13.2695313c-0.15625-0.8286133-0.3945313-1.637207-0.7128906-2.4140625
	c-0.3164063-0.7822266-0.6953125-1.5258789-1.1308594-2.2128906c-0.4296875-0.6777344-0.9199219-1.3120117-1.4550781-1.8789063
	c-0.5507813-0.581543-1.1503906-1.1025391-1.7792969-1.5507813C26.0449219,4.7573242,25.3496094,4.355957,24.625,4.0229492
	c-0.7207031-0.3276367-1.4746094-0.5761719-2.2382813-0.7397461c-0.765625-0.1640625-1.5683594-0.2470703-2.3857422-0.2470703
	c-0.8193359,0-1.6210938,0.0830078-2.3857422,0.2470703c-0.7636719,0.1635742-1.5146484,0.4116211-2.2314453,0.7382813
	c-0.7324219,0.3344727-1.4277344,0.7353516-2.0683594,1.1928711c-0.6298828,0.4482422-1.2246094,0.9672852-1.7695313,1.5458984
	c-0.5419922,0.5727539-1.0341797,1.2060547-1.4628906,1.8842773c-0.4287109,0.6767578-0.8105469,1.4223633-1.1328125,2.2158203
	c-0.3144531,0.7729492-0.5537109,1.5844727-0.7109375,2.4130859C8.0810547,14.1040039,8,14.9736328,8,15.859375
	c0,0.8842773,0.0810547,1.7539063,0.2392578,2.5869141c0.1572266,0.8242188,0.3964844,1.6367188,0.7109375,2.4140625
	c0.2773438,0.6816406,0.5996094,1.3320313,0.9570313,1.9296875c0.3583984,0.5976563,0.7626953,1.1621094,1.2021484,1.6796875
	l2.3681641,3.3476563l6.5175781,9.21875l8.8115234-12.4628906l0.0605469-0.0703125
	c0.4433594-0.5195313,0.8535156-1.0898438,1.2128906-1.6894531c0.3710938-0.6191406,0.6953125-1.2734375,0.9726563-1.9570313
	c0.3144531-0.7734375,0.5527344-1.5820313,0.7089844-2.4052734C31.9199219,17.6083984,32,16.7368164,32,15.859375
	C32,14.9804688,31.9199219,14.1083984,31.7617188,13.2695313z"/>
<path fill="#FB0101" d="M30.7792969,13.3720703c-0.1445313-0.7553711-0.3632813-1.4946289-0.65625-2.203125
	c-0.2929688-0.7197266-0.6445313-1.4033203-1.046875-2.0336914c-0.3945313-0.6176758-0.84375-1.1938477-1.3339844-1.7094727
	c-0.5058594-0.5292969-1.0566406-1.0048828-1.6347656-1.4130859c-0.5878906-0.4155273-1.2246094-0.7822266-1.8925781-1.0854492
	C23.5605469,4.6313477,22.875,4.4077148,22.1796875,4.2597656c-0.6992188-0.1479492-1.4321289-0.2236328-2.1801758-0.2236328
	c-0.7490234,0-1.4814453,0.0756836-2.1787109,0.2236328c-0.6943359,0.1479492-1.3769531,0.3710938-2.0273438,0.6650391
	c-0.6738281,0.3051758-1.3134766,0.6723633-1.9042969,1.0898438c-0.5761719,0.4067383-1.1220703,0.8803711-1.6220703,1.4067383
	c-0.4980469,0.5214844-0.9492188,1.0991211-1.34375,1.7167969c-0.3964844,0.621582-0.7490234,1.3061523-1.0488281,2.0380859
	c-0.2880859,0.7026367-0.5087891,1.4433594-0.6542969,2.2016602c-0.1464844,0.7626953-0.2207031,1.5615234-0.2207031,2.375
	c0,0.8125,0.0742188,1.6118164,0.2207031,2.3769531c0.1445313,0.75,0.3652344,1.4921875,0.6542969,2.2011719
	c0.2587891,0.6328125,0.5576172,1.2304688,0.8867188,1.7753906s0.7021484,1.0605469,1.1064453,1.5361328l3.5556641,4.9785156
	l4.5703125,6.4150391l7.9985352-11.2226563l0.1171875-0.1435547c0.4082031-0.4726563,0.7832031-0.9902344,1.1152344-1.5390625
	c0.3417969-0.5654297,0.6445313-1.171875,0.9023438-1.8046875c0.2910156-0.7050781,0.5097656-1.4423828,0.6523438-2.1904297
	C30.9257813,17.362793,31,16.5610352,31,15.7529297C31,14.9428711,30.9257813,14.1420898,30.7792969,13.3720703z"/>
<path fill="#FFFFFF" d="M26.9746094,14.730957c-0.0214844-0.1689453-0.0332031-0.3100586-0.0332031-0.4150391
	c-0.0097656-0.1254883-0.0449219-0.2822266-0.09375-0.46875c-0.0546875-0.190918-0.1074219-0.3837891-0.1660156-0.578125
	c-0.0664063-0.21875-0.1445313-0.4394531-0.2324219-0.6738281c-0.0996094,0.3579102-0.2070313,0.7094727-0.3300781,1.0498047
	c-0.109375,0.3037109-0.2460938,0.6264648-0.4042969,0.9672852c-0.1640625,0.3422852-0.3496094,0.644043-0.5332031,0.9135742
	c-0.1914063,0.2685547-0.3945313,0.5146484-0.6132813,0.7407227c-0.2167969,0.222168-0.421875,0.4135742-0.6054688,0.578125
	c-0.2050781,0.1972656-0.4257813,0.3730469-0.65625,0.5317383c-0.0507813-0.1010742-0.109375-0.2128906-0.171875-0.3188477
	c-0.0546875-0.0883789-0.1035156-0.1928711-0.1464844-0.3081055c-0.0449219-0.1162109-0.0742188-0.2368164-0.0898438-0.3623047
	v-0.4301758c0-0.199707,0.0214844-0.3911133,0.0898438-0.5786133c0.0605469-0.1860352,0.1132813-0.3623047,0.1660156-0.5244141
	c0.0527344-0.215332,0.1132813-0.4223633,0.1699219-0.6196289c0.0585938-0.1977539,0.1523438-0.4458008,0.2695313-0.7514648
	c0.1035156-0.2138672,0.1660156-0.4003906,0.1835938-0.5629883c0.0175781-0.1601563,0.0273438-0.324707,0.0273438-0.4858398
	v-0.3242188c0-0.1762695-0.09375-0.362793-0.2871094-0.5629883c-0.1875-0.1938477-0.328125-0.3779297-0.4160156-0.5380859
	c-0.0859375-0.1762695-0.21875-0.3911133-0.4023438-0.6308594c-0.1816406-0.2436523-0.3691406-0.4858398-0.5566406-0.7387695
	c-0.0878906-0.1640625-0.1542969-0.2436523-0.2089844-0.2436523c-0.0332031,0-0.0527344,0.0444336-0.0527344,0.1323242
	c0,0.0922852,0,0.1821289,0,0.2719727c0,0.0703125,0,0.1450195,0,0.2158203c0,0.0722656,0.0078125,0.1337891,0.0253906,0.1870117
	c0,0.0722656,0.0097656,0.1337891,0.0273438,0.1904297c0,0.2490234-0.0332031,0.527832-0.1035156,0.8310547
	c-0.0664063,0.3051758-0.15625,0.5839844-0.2578125,0.8325195c-0.0546875,0.2133789-0.1796875,0.4243164-0.3916016,0.6328125
	c-0.2055664,0.2045898-0.3837891,0.3803711-0.5185547,0.5253906c-0.0878906,0.0898438-0.1533203,0.1362305-0.1962891,0.1450195
	c-0.0419922,0.0126953-0.0820313,0.015625-0.1152344,0.015625c-0.0722656,0-0.1162109-0.0087891-0.1289063-0.0273438
	c-0.0195313,0-0.0371094-0.0083008-0.0546875-0.0263672l-0.3632813-0.4018555
	c-0.0332031-0.0551758-0.0981445-0.1401367-0.1938477-0.2573242c-0.0966797-0.1142578-0.1855469-0.2807617-0.2729492-0.4980469
	c-0.0532227-0.0898438-0.0898438-0.2138672-0.1166992-0.3779297c-0.0268555-0.1601563-0.0380859-0.3105469-0.0380859-0.4570313
	l0.0498047-0.5888672c0-0.230957,0.0615234-0.5058594,0.1821289-0.8198242
	c0.1201172-0.315918,0.2490234-0.5976563,0.3896484-0.8461914c0.1391602-0.2700195,0.262207-0.5336914,0.3632813-0.7949219
	c0.1049805-0.2573242,0.1835938-0.4858398,0.234375-0.6860352c0.0336914-0.0541992,0.0600586-0.1362305,0.0761719-0.2543945
	c0.0195313-0.1162109,0.0283203-0.2197266,0.0283203-0.3081055c0-0.215332-0.0283203-0.4345703-0.0908203-0.6611328
	c-0.0610352-0.2216797-0.1196289-0.3339844-0.1689453-0.3339844c-0.0683594,0-0.1298828,0.0620117-0.1801758,0.1865234
	c-0.0371094,0.0532227-0.0703125,0.1191406-0.1069336,0.1894531c-0.050293,0.1425781-0.1030273,0.315918-0.1552734,0.5117188
	c-0.0498047,0.1606445-0.1157227,0.340332-0.1938477,0.5361328c-0.0795898,0.199707-0.1855469,0.4042969-0.3261719,0.6171875
	C19.1445313,8.2773438,19,8.4775391,18.8442383,8.6821289c-0.1572266,0.2084961-0.3125,0.4101563-0.4682617,0.6064453
	c-0.190918,0.2875977-0.3930664,0.5688477-0.6113281,0.8457031c-0.2143555,0.2807617-0.3994141,0.515625-0.5566406,0.7119141
	c-0.1914063,0.2177734-0.3696289,0.4282227-0.5341797,0.6323242c-0.1630859,0.2070313-0.2714844,0.4018555-0.3242188,0.578125
	l-0.0532227,0.3251953c0,0.1938477,0.0405273,0.3950195,0.1196289,0.5888672
	c0.0791016,0.2001953,0.1416016,0.3691406,0.1943359,0.512207c0.0351563,0.1445313,0.1074219,0.3339844,0.2216797,0.5776367
	c0.1118164,0.2441406,0.2368164,0.5249023,0.3759766,0.8457031c0.0869141,0.2529297,0.1508789,0.5141602,0.1928711,0.7802734
	c0.0444336,0.2705078,0.0668945,0.546875,0.0668945,0.8349609v0.3774414c0,0.0336914,0,0.0791016,0,0.1323242
	s-0.0195313,0.097168-0.0517578,0.1323242v0.3774414l-0.2612305-0.265625
	c-0.0859375-0.0576172-0.1821289-0.1279297-0.284668-0.2177734c-0.1025391-0.0883789-0.2246094-0.1757813-0.3632813-0.2700195
	c-0.1723633-0.1074219-0.3071289-0.1889648-0.4033203-0.2553711c-0.0947266-0.0629883-0.1757813-0.1186523-0.234375-0.1713867
	c-0.0585938-0.0571289-0.1118164-0.1030273-0.1557617-0.1533203c-0.043457-0.0400391-0.1020508-0.0898438-0.1694336-0.1435547
	c-0.1362305-0.1425781-0.296875-0.3354492-0.4780273-0.5776367c-0.184082-0.2416992-0.3603516-0.5268555-0.5336914-0.8476563
	c-0.1396484-0.3051758-0.2509766-0.5844727-0.3388672-0.8334961c-0.0854492-0.2480469-0.1469727-0.5004883-0.1821289-0.7548828
	c0-0.1235352-0.034668-0.2578125-0.1020508-0.402832c-0.0356445-0.0717773-0.0683594-0.1225586-0.1035156-0.1601563
	c-0.1049805,0.1777344-0.199707,0.3691406-0.2861328,0.5629883c-0.0854492,0.1645508-0.1591797,0.340332-0.2202148,0.5268555
	c-0.0625,0.190918-0.1079102,0.3520508-0.1430664,0.4985352c-0.0537109,0.1958008-0.0913086,0.4575195-0.1171875,0.7783203
	C13.0126953,15.1767578,13,15.4931641,13,15.7944336v0.5927734c0.0527344,0.2841797,0.1235352,0.609375,0.2089844,0.9672852
	c0.0869141,0.3598633,0.1572266,0.590332,0.2075195,0.6987305c0.0322266,0.1054688,0.1586914,0.3925781,0.3754883,0.8496094
	c0.2163086,0.4570313,0.4296875,0.9077148,0.6357422,1.3549805c0.0527344,0.0527344,0.081543,0.1162109,0.0922852,0.1894531
	c0.0073242,0.0654297,0.027832,0.1347656,0.0625,0.1875v0.2119141l0.0253906,0.7001953
	c0.6401367,0.6191406,1.199707,1.3476563,2.125,1.8105469c0.9257813,0.4511719,2.0219727,0.6787109,3.284668,0.6787109
	c0.8842773,0,1.6992188-0.1240234,2.4433594-0.3759766c0.7402344-0.2460938,1.4199219-0.5732422,2.0292969-0.9667969
	c0.5996094-0.3964844,1.0488281-0.8017578,1.5136719-1.3017578v-1.0283203l0.0859375-0.5639648
	c0-0.140625,0.0078125-0.2700195,0.0292969-0.3769531c0.0117188-0.105957,0.0410156-0.2133789,0.0742188-0.3237305
	l0.5195313-1.8808594c0.1230469-0.3027344,0.203125-0.6342773,0.2285156-0.9946289
	c0.0449219-0.3544922,0.0566406-0.6879883,0.0566406-0.9936523C26.9980469,15.0688477,26.9882813,14.9042969,26.9746094,14.730957z"
	/>
</svg>
