<?xml version="1.0" encoding="utf-8"?>
<!-- Generator: Adobe Illustrator 16.0.3, SVG Export Plug-In . SVG Version: 6.00 Build 0)  -->
<!DOCTYPE svg PUBLIC "-//W3C//DTD SVG 1.1//EN" "http://www.w3.org/Graphics/SVG/1.1/DTD/svg11.dtd">
<svg version="1.1" id="Fire_Station" xmlns="http://www.w3.org/2000/svg" xmlns:xlink="http://www.w3.org/1999/xlink" x="0px"
	 y="0px" width="24px" height="24px" viewBox="0 0 24 24" enable-background="new 0 0 24 24" xml:space="preserve">
<circle fill="#AE0101" cx="12" cy="12" r="12"/>
<path fill="#FB3333" d="M11.9995117,23.0009766c-6.065918,0-10.9985352-4.9365234-10.9985352-11.0014648
	c0-6.0664063,4.9326172-10.9985352,10.9985352-10.9985352s11.0014648,4.9321289,11.0014648,10.9985352
	C23.0009766,18.0644531,18.0654297,23.0009766,11.9995117,23.0009766z"/>
<g>
	<rect x="7" y="16" fill="none" width="1" height="1"/>
	<polygon fill="none" points="9,16.0253906 11,16.0253906 11,13.0253906 14,13.0253906 14,11 11,11 11,10.0253906 15,10.0253906 
		15,8 9,8 	"/>
	<g>
		<rect x="6" y="17" fill="none" width="1" height="1"/>
		<rect x="7" y="16" fill="none" width="1" height="1"/>
		<polygon fill="none" points="9,16.0253906 11,16.0253906 11,13.0253906 14,13.0253906 14,11 11,11 11,10.0253906 15,10.0253906 
			15,8 9,8 		"/>
		<g>
			<rect x="7" y="16" fill="none" width="1" height="1"/>
			<rect x="6" y="6" fill="none" width="1" height="1"/>
			<polygon fill="none" points="8,8.0263672 8,7.0253906 7.7978516,7.0253906 7,7 7,8 			"/>
			<rect x="6" y="17" fill="none" width="1" height="1"/>
			<polygon fill="none" points="9,16.0253906 11,16.0253906 11,13.0253906 14,13.0253906 14,11 11,11 11,10.0253906 15,10.0253906 
				15,8 9,8 			"/>
			<g>
				<rect x="6" y="6" fill="none" width="1" height="1"/>
				<rect x="7" y="16" fill="none" width="1" height="1"/>
				<polygon fill="none" points="8,8.0263672 8,7 7,7 7,8 				"/>
				<polygon fill="none" points="9,16.0253906 11,16.0253906 11,13.0253906 14,13.0253906 14,11 11,11 11,10.0253906 15,10.0253906 
					15,8 9,8 				"/>
				<rect x="6" y="17" fill="none" width="1" height="1"/>
				<g>
					<rect x="6" y="6" fill="none" width="1" height="1"/>
					<rect x="7" y="7" fill="none" width="1" height="1"/>
					<path fill="none" d="M16,7.0253906v0.2695313l-0.0742188,0.0820313C15.953125,7.4003906,15.9726563,7.4238281,16,7.4472656
						v0.5791016h0.5585938c0.03125,0.0332031,0.0585938,0.0625,0.0898438,0.0976563l0.109375-0.0976563L17,8V7l-0.7636719,0.0253906
						H16z"/>
					<rect x="17" y="6" fill="none" width="1" height="1"/>
					<rect x="7" y="16" fill="none" width="1" height="1"/>
					<polygon fill="none" points="9,16.0253906 11,16.0253906 11,13.0253906 14,13.0253906 14,11 11,11 11,10.0253906 
						15,10.0253906 15,8 9,8 					"/>
					<rect x="6" y="17" fill="none" width="1" height="1"/>
					<g>
						<path fill="none" d="M16,7.2949219l-0.0742188,0.0820313C15.953125,7.4003906,15.9726563,7.4238281,16,7.4472656v0.5791016
							h0.5585938c0.03125,0.0332031,0.0585938,0.0625,0.0898438,0.0976563l0.109375-0.0976563L17,8V7l-1,0.0253906V7.2949219z"/>
						<rect x="17" y="6" fill="none" width="1" height="1"/>
						<rect x="7" y="7" fill="none" width="1" height="1"/>
						<rect x="6" y="6" fill="none" width="1" height="1"/>
						<polygon fill="none" points="9,16.0253906 11,16.0253906 11,13.0253906 14,13.0253906 14,11 11,11 11,10.0253906 
							15,10.0253906 15,8 9,8 						"/>
						<rect x="6" y="17" fill="none" width="1" height="1"/>
						<rect x="7" y="16" fill="none" width="1" height="1"/>
						<g>
							<rect x="7" y="7" fill="none" width="1" height="1"/>
							<rect x="17" y="6" fill="none" width="1" height="1"/>
							<rect x="6" y="6" fill="none" width="1" height="1"/>
							<path fill="none" d="M16,8l0.5585938,0.0263672c0.03125,0.0332031,0.0585938,0.0625,0.0898438,0.0976563l0.109375-0.0976563
								L17,8V7h-1V8z"/>
							<rect x="7" y="16" fill="none" width="1" height="1"/>
							<polygon fill="none" points="9,16.0253906 11,16.0253906 11,13.0253906 14,13.0253906 14,11 11,11 11,10.0253906 
								15,10.0253906 15,8 9,8 							"/>
							<rect x="6" y="17" fill="none" width="1" height="1"/>
							<g>
								<rect x="17" y="6" fill="none" width="1" height="1"/>
								<rect x="7" y="7" fill="none" width="1" height="1"/>
								<rect x="16" y="7" fill="none" width="1" height="1"/>
								<rect x="6" y="6" fill="none" width="1" height="1"/>
								<rect x="7" y="16" fill="none" width="1" height="1"/>
								<polygon fill="none" points="9,16.0253906 11,16.0253906 11,13.0253906 14,13.0253906 14,11 11,11 11,10.0253906 
									15,10.0253906 15,8 9,8 								"/>
								<rect x="6" y="17" fill="none" width="1" height="1"/>
								<g>
									<rect x="17" y="6" fill="none" width="1" height="1"/>
									<rect x="7" y="7" fill="none" width="1" height="1"/>
									<rect x="16" y="7" fill="none" width="1" height="1"/>
									<rect x="6" y="6" fill="none" width="1" height="1"/>
									<rect x="6" y="17" fill="none" width="1" height="1"/>
									<polygon fill="none" points="9,16.0253906 11,16.0253906 11,13.0253906 14,13.0253906 14,11 11,11 11,10.0253906 
										15,10.0253906 15,8 9,8 									"/>
									<rect x="7" y="16" fill="none" width="1" height="1"/>
									<g>
										<rect x="7" y="7" fill="none" width="1" height="1"/>
										<rect x="17" y="6" fill="none" width="1" height="1"/>
										<rect x="16" y="7" fill="none" width="1" height="1"/>
										<rect x="6" y="6" fill="none" width="1" height="1"/>
										<polygon fill="none" points="9,16.0253906 11,16.0253906 11,13.0253906 14,13.0253906 14,11 11,11 11,10.0253906 
											15,10.0253906 15,8 9,8 										"/>
										<rect x="7" y="16" fill="none" width="1" height="1"/>
										<rect x="6" y="17" fill="none" width="1" height="1"/>
										<g>
											<rect x="7" y="16" fill="none" width="1" height="1"/>
											<rect x="17" y="6" fill="none" width="1" height="1"/>
											<rect x="7" y="7" fill="none" width="1" height="1"/>
											<rect x="16" y="7" fill="none" width="1" height="1"/>
											<rect x="6" y="6" fill="none" width="1" height="1"/>
											<polygon fill="none" points="9,16.0253906 11,16.0253906 11,13.0253906 14,13.0253906 14,11 11,11 11,10.0253906 
												15,10.0253906 15,8 9,8 											"/>
											<rect x="6" y="17" fill="none" width="1" height="1"/>
											<rect x="16" y="16" fill="none" width="1" height="1"/>
											<g>
												<rect x="17" y="6" fill="none" width="1" height="1"/>
												<rect x="7" y="7" fill="none" width="1" height="1"/>
												<rect x="16" y="7" fill="none" width="1" height="1"/>
												<rect x="7" y="16" fill="none" width="1" height="1"/>
												<rect x="6" y="6" fill="none" width="1" height="1"/>
												<rect x="6" y="17" fill="none" width="1" height="1"/>
												<rect x="17" y="17" fill="none" width="1" height="1"/>
												<polygon fill="none" points="9,16.0253906 11,16.0253906 11,13.0253906 14,13.0253906 14,11 11,11 11,10.0253906 
													15,10.0253906 15,8 9,8 												"/>
												<rect x="16" y="16" fill="none" width="1" height="1"/>
												<path fill="#FFFFFF" d="M20.8339844,10.8027344c-0.1132813-0.4628906-0.4082031-1.0039063-0.8886719-1.6230469
													c-0.4648438-0.6181641-0.7558594-1.21875-0.8769531-1.8027344
													c-0.1210938-0.5830078-0.1367188-1.0385742-0.0507813-1.3647461L18,6v1h-1v1h-1V7h1V6h1V5.0263672V5.0258789
													l0.0390625-0.0439453c-0.34375,0.0869141-0.8027344,0.0693359-1.3769531-0.0512695
													c-0.578125-0.1196289-1.171875-0.4121094-1.7910156-0.875c-0.6171875-0.480957-1.1621094-0.7768555-1.6347656-0.8886719
													C12.7646484,3.0551758,12.3564453,3,12.0126953,3c-0.3427734,0-0.7509766,0.0551758-1.2226563,0.1669922
													S9.7734375,3.574707,9.1542969,4.0556641c-0.6171875,0.4628906-1.2138672,0.7553711-1.7890625,0.875
													C6.7900391,5.0512695,6.3388672,5.0688477,6.0136719,4.9819336L6,6h1v1h1v1H7V7H6V6L4.9833984,6.012207
													c0.0673828,0.3261719,0.046875,0.7817383-0.0644531,1.3647461
													C4.8066406,7.9609375,4.5107422,8.5615234,4.0302734,9.1796875
													c-0.4638672,0.6191406-0.7509766,1.1601563-0.8632813,1.6230469C3.0556641,11.265625,3,11.6699219,3,12.0117188
													c0,0.3613281,0.0556641,0.7773438,0.1669922,1.25c0.1123047,0.4726563,0.3994141,1.0175781,0.8632813,1.6347656
													C4.5107422,15.515625,4.8066406,16.1113281,4.9189453,16.6875C5.0302734,17.2617188,5.0673828,17.6738281,5,18h1v-1h1
													v-1h1v1H7v1H6v1c0.3261719-0.0859375,0.7636719,0,1.3398438,0.1191406
													c0.5751953,0.1210938,1.171875,0.4140625,1.7890625,0.8769531
													c0.6181641,0.4628906,1.1630859,0.7519531,1.6347656,0.8613281
													c0.4726563,0.1132813,0.8798828,0.1679688,1.2246094,0.1679688c0.3427734,0,0.75-0.0546875,1.2226563-0.1679688
													c0.4707031-0.109375,1.015625-0.3984375,1.6347656-0.8613281s1.2148438-0.7558594,1.7890625-0.8769531
													C17.2109375,19,17.65625,18.9140625,18,19v-1h-1v-1h-1v-1h1v1h1v1h1
													c-0.0859375-0.3261719-0.0527344-0.7382813,0.0683594-1.3125
													c0.1210938-0.5761719,0.4121094-1.171875,0.8769531-1.7910156
													c0.4804688-0.6171875,0.7753906-1.1621094,0.8886719-1.6347656C20.9433594,12.7890625,21,12.3730469,21,12.0117188
													C21,11.6699219,20.9433594,11.265625,20.8339844,10.8027344z M15,10.0253906h-4V11h3v2.0253906h-3v3H9V8h6V10.0253906z"
													/>
											</g>
										</g>
									</g>
								</g>
							</g>
						</g>
					</g>
				</g>
			</g>
		</g>
	</g>
</g>
</svg>
