<?xml version="1.0" encoding="utf-8"?>
<!-- Generator: Adobe Illustrator 16.0.3, SVG Export Plug-In . SVG Version: 6.00 Build 0)  -->
<!DOCTYPE svg PUBLIC "-//W3C//DTD SVG 1.1//EN" "http://www.w3.org/Graphics/SVG/1.1/DTD/svg11.dtd">
<svg version="1.1" id="Fire_Incident" xmlns="http://www.w3.org/2000/svg" xmlns:xlink="http://www.w3.org/1999/xlink" x="0px"
	 y="0px" width="24px" height="24px" viewBox="0 0 24 24" enable-background="new 0 0 24 24" xml:space="preserve">
<circle fill="#FF0000" cx="12" cy="12" r="12"/>
<path fill="#FFFFFF" d="M11.9995117,23.0009766c-6.065918,0-10.9985352-4.9365234-10.9985352-11.0014648
	c0-6.0664063,4.9326172-10.9985352,10.9985352-10.9985352s11.0014648,4.9321289,11.0014648,10.9985352
	C23.0009766,18.0644531,18.0654297,23.0009766,11.9995117,23.0009766z"/>
<path fill="#FF0000" d="M19.9716797,11.6987305c-0.0224609-0.1713867-0.0361328-0.3129883-0.0361328-0.4174805
	c-0.0136719-0.1259766-0.0517578-0.2832031-0.1103516-0.4707031c-0.0625-0.1889648-0.1230469-0.3813477-0.1816406-0.5771484
	c-0.078125-0.2177734-0.1699219-0.440918-0.2695313-0.6733398c-0.1162109,0.3579102-0.2412109,0.7080078-0.3837891,1.0473633
	c-0.1181641,0.3076172-0.2714844,0.628418-0.4589844,0.9692383c-0.1894531,0.3413086-0.3955078,0.6464844-0.6132813,0.9121094
	c-0.2167969,0.2709961-0.4443359,0.519043-0.6914063,0.7416992c-0.2460938,0.2226563-0.484375,0.4130859-0.6972656,0.5791016
	c-0.2392578,0.1972656-0.4853516,0.3730469-0.7460938,0.5351563c-0.0556641-0.1054688-0.1269531-0.2148438-0.2021484-0.3212891
	c-0.0634766-0.0908203-0.1171875-0.1933594-0.1660156-0.3095703c-0.0488281-0.1181641-0.0878906-0.2363281-0.1015625-0.3632813
	V12.921875c0-0.2001953,0.0283203-0.3886719,0.1015625-0.5795898c0.0683594-0.1875,0.1337891-0.362793,0.1923828-0.5209961
	c0.0576172-0.2197266,0.1230469-0.4233398,0.1943359-0.6240234c0.0664063-0.1938477,0.1728516-0.4443359,0.3076172-0.7485352
	c0.1181641-0.215332,0.1914063-0.4033203,0.2050781-0.5639648c0.0224609-0.1621094,0.0351563-0.324707,0.0351563-0.4863281
	V9.0766602c0-0.1791992-0.1083984-0.3671875-0.3271484-0.5639648s-0.3779297-0.378418-0.4736328-0.5410156
	c-0.1044922-0.1757813-0.2519531-0.387207-0.4589844-0.628418c-0.2109375-0.2436523-0.4267578-0.4887695-0.640625-0.7387695
	c-0.1015625-0.1621094-0.1767578-0.2426758-0.2363281-0.2426758c-0.0380859,0-0.0615234,0.0454102-0.0615234,0.1328125
	c0,0.0898438,0,0.1811523,0,0.2705078c0,0.0722656,0,0.144043,0,0.215332c0,0.0717773,0.0087891,0.1333008,0.0273438,0.1875
	c0,0.0742188,0.015625,0.1357422,0.0341797,0.1879883c0,0.2529297-0.0380859,0.5288086-0.1191406,0.8354492
	c-0.078125,0.3022461-0.1806641,0.5795898-0.296875,0.8291016c-0.0615234,0.2172852-0.2060547,0.4272461-0.4482422,0.6342773
	c-0.2353516,0.2060547-0.434082,0.3808594-0.5917969,0.5229492c-0.1010742,0.090332-0.175293,0.140625-0.2246094,0.1489258
	c-0.0473633,0.0083008-0.0908203,0.0136719-0.1298828,0.0136719c-0.081543,0-0.1313477-0.0068359-0.1499023-0.0292969
	c-0.0205078,0-0.0405273-0.0053711-0.0610352-0.0263672l-0.4145508-0.3999023
	c-0.0380859-0.0556641-0.112793-0.1386719-0.2226563-0.2573242c-0.1103516-0.1166992-0.2133789-0.28125-0.3120117-0.496582
	c-0.0605469-0.0898438-0.1030273-0.2163086-0.1342773-0.3774414C11.078125,8.5922852,11.065918,8.4389648,11.065918,8.2963867
	l0.0576172-0.5888672c0-0.2338867,0.0688477-0.5107422,0.2075195-0.8208008
	c0.1381836-0.315918,0.2861328-0.5981445,0.4458008-0.8481445c0.1572266-0.2700195,0.2973633-0.5332031,0.4145508-0.7919922
	c0.1206055-0.2607422,0.2109375-0.4882813,0.2685547-0.6860352c0.0356445-0.0546875,0.0683594-0.1401367,0.0849609-0.2563477
	c0.0219727-0.1147461,0.0322266-0.21875,0.0322266-0.3076172c0-0.2182617-0.0322266-0.4345703-0.1025391-0.6611328
	C12.4052734,3.112793,12.3383789,3,12.284668,3c-0.0834961,0-0.1513672,0.0634766-0.2104492,0.1884766
	C12.0327148,3.2431641,11.9951172,3.3056641,11.9550781,3.375c-0.0585938,0.144043-0.1191406,0.3149414-0.1782227,0.5131836
	c-0.0585938,0.1616211-0.1347656,0.3393555-0.2226563,0.5380859c-0.0898438,0.1967773-0.2133789,0.4018555-0.3725586,0.6162109
	c-0.1567383,0.1982422-0.3237305,0.3994141-0.5024414,0.6049805c-0.1782227,0.2070313-0.3564453,0.4072266-0.5336914,0.6074219
	c-0.21875,0.2836914-0.4487305,0.5673828-0.6992188,0.8447266C9.1992188,7.3803711,8.9873047,7.6142578,8.8095703,7.8120117
	c-0.2182617,0.2172852-0.4233398,0.4277344-0.609375,0.6328125c-0.1884766,0.203125-0.3105469,0.3999023-0.3701172,0.5756836
	L7.7680664,9.3461914c0,0.1962891,0.0454102,0.3945313,0.1352539,0.5898438
	c0.0893555,0.1977539,0.1640625,0.3696289,0.2236328,0.5126953c0.0390625,0.1425781,0.1220703,0.3349609,0.2519531,0.5766602
	c0.128418,0.2431641,0.2705078,0.5234375,0.4306641,0.8476563c0.0976563,0.2504883,0.1708984,0.5102539,0.2192383,0.7783203
	c0.0532227,0.2705078,0.0771484,0.5488281,0.0771484,0.8369141v0.3710938c0,0.0380859,0,0.0839844,0,0.1367188
	c0,0.0537109-0.0205078,0.0976563-0.0571289,0.1337891v0.375l-0.2993164-0.265625
	c-0.1000977-0.0566406-0.2070313-0.1259766-0.3276367-0.2158203c-0.1152344-0.0908203-0.2558594-0.1777344-0.4135742-0.2685547
	c-0.1992188-0.1113281-0.3505859-0.1914063-0.4604492-0.2568359c-0.1103516-0.0634766-0.2001953-0.1220703-0.269043-0.1728516
	c-0.0683594-0.0566406-0.1269531-0.1035156-0.1782227-0.1533203c-0.0488281-0.0390625-0.1137695-0.0898438-0.1928711-0.1435547
	c-0.1557617-0.1435547-0.3388672-0.3359375-0.546875-0.578125c-0.2084961-0.2431641-0.4111328-0.5239258-0.6088867-0.8486328
	c-0.1621094-0.3032227-0.2861328-0.5795898-0.3881836-0.8320313c-0.097168-0.25-0.1655273-0.5014648-0.2075195-0.7539063
	c0-0.125-0.0390625-0.2602539-0.1171875-0.4013672C4.9980469,9.5424805,4.9594727,9.4902344,4.9194336,9.4521484
	C4.800293,9.6313477,4.690918,9.8198242,4.5942383,10.015625c-0.0981445,0.1621094-0.1831055,0.3374023-0.2524414,0.5273438
	c-0.0712891,0.1875-0.1245117,0.3515625-0.1630859,0.4951172c-0.0600586,0.1977539-0.1054688,0.4575195-0.1337891,0.7832031
	C4.0141602,12.1411133,4,12.456543,4,12.7597656v0.5908203c0.059082,0.2871094,0.1401367,0.609375,0.2392578,0.9667969
	c0.0981445,0.3623047,0.1772461,0.59375,0.2353516,0.6982422c0.0385742,0.1064453,0.184082,0.3935547,0.4311523,0.8515625
	c0.246582,0.453125,0.4897461,0.90625,0.7260742,1.359375c0.0605469,0.0537109,0.0917969,0.1113281,0.1054688,0.1816406
	c0.0087891,0.0683594,0.0336914,0.140625,0.0722656,0.1914063v0.2109375l0.0268555,0.7011719
	c0.7338867,0.6162109,1.371582,1.3496094,2.4311523,1.8125C9.324707,20.7744141,10.5786133,21,12.0214844,21
	c1.0107422,0,1.9404297-0.1240234,2.7929688-0.375c0.8466797-0.2460938,1.6210938-0.5722656,2.3144531-0.96875
	c0.6884766-0.3945313,1.2021484-0.8007813,1.7373047-1.2998047v-1.0273438l0.0957031-0.5664063
	c0-0.1425781,0.0058594-0.2705078,0.0283203-0.375c0.0205078-0.1064453,0.0498047-0.2148438,0.0878906-0.3222656l0.59375-1.8828125
	c0.1416016-0.3007813,0.2314453-0.6357422,0.2636719-0.9941406C19.9814453,12.8320313,20,12.4995117,20,12.1938477
	C20,12.0317383,19.9912109,11.8696289,19.9716797,11.6987305z"/>
</svg>
