<?xml version="1.0" encoding="utf-8"?>
<!-- Generator: Adobe Illustrator 16.0.3, SVG Export Plug-In . SVG Version: 6.00 Build 0)  -->
<!DOCTYPE svg PUBLIC "-//W3C//DTD SVG 1.1//EN" "http://www.w3.org/Graphics/SVG/1.1/DTD/svg11.dtd">
<svg version="1.1" id="Fishing_Site_1_" xmlns="http://www.w3.org/2000/svg" xmlns:xlink="http://www.w3.org/1999/xlink" x="0px"
	 y="0px" width="40px" height="40px" viewBox="0 0 40 40" enable-background="new 0 0 40 40" xml:space="preserve">
<path opacity="0.75" fill="#FFFFFF" enable-background="new    " d="M34,15.659c0-1.006-0.093-1.983-0.273-2.933
	c-0.182-0.949-0.456-1.872-0.826-2.764c-0.365-0.894-0.799-1.729-1.299-2.507c-0.499-0.779-1.064-1.5-1.696-2.162
	c-0.638-0.663-1.326-1.257-2.069-1.78c-0.744-0.524-1.542-0.979-2.393-1.364c-0.855-0.384-1.736-0.671-2.643-0.862
	C21.893,1.095,20.961,1,20.001,1s-1.893,0.095-2.798,0.287c-0.908,0.191-1.788,0.479-2.641,0.862
	c-0.854,0.385-1.652,0.84-2.396,1.364c-0.744,0.522-1.432,1.117-2.064,1.78C9.467,5.956,8.9,6.677,8.4,7.456
	c-0.5,0.778-0.932,1.613-1.3,2.507c-0.367,0.892-0.642,1.814-0.825,2.764C6.092,13.676,6,14.653,6,15.659
	c0,1.004,0.092,1.982,0.275,2.932c0.183,0.95,0.458,1.871,0.825,2.765c0.316,0.77,0.683,1.499,1.098,2.184
	c0.416,0.685,0.881,1.326,1.395,1.924H9.589H9.585l5.205,7.268L19.995,40l5.194-7.252l5.189-7.247
	c0.521-0.603,0.992-1.25,1.412-1.939c0.42-0.692,0.792-1.428,1.109-2.205c0.37-0.895,0.645-1.815,0.826-2.765
	C33.907,17.641,34,16.664,34,15.659z"/>
<path fill="#0040AD" d="M31.762,13.233c-0.156-0.829-0.395-1.637-0.713-2.414c-0.315-0.782-0.695-1.526-1.131-2.213
	c-0.429-0.678-0.92-1.312-1.454-1.879c-0.552-0.582-1.15-1.103-1.779-1.551c-0.639-0.456-1.334-0.857-2.06-1.19
	c-0.721-0.328-1.474-0.576-2.237-0.74C21.621,3.083,20.818,3,20.001,3c-0.819,0-1.621,0.083-2.386,0.247
	c-0.764,0.164-1.515,0.412-2.231,0.738c-0.732,0.334-1.428,0.735-2.068,1.193c-0.63,0.448-1.225,0.967-1.77,1.546
	c-0.542,0.573-1.034,1.206-1.462,1.884c-0.429,0.677-0.811,1.422-1.133,2.216c-0.314,0.773-0.554,1.584-0.711,2.413
	C8.081,14.068,8,14.938,8,15.823c0,0.884,0.081,1.754,0.239,2.586c0.157,0.825,0.396,1.637,0.711,2.415
	c0.277,0.682,0.6,1.332,0.957,1.93c0.359,0.598,0.763,1.162,1.203,1.68l2.368,3.348L19.995,37l8.812-12.463l0.061-0.07
	c0.444-0.52,0.854-1.09,1.214-1.689c0.371-0.619,0.695-1.273,0.973-1.957c0.313-0.773,0.553-1.582,0.708-2.405
	C31.92,17.572,32,16.701,32,15.823C32,14.944,31.92,14.072,31.762,13.233z"/>
<path fill="#3366BE" d="M30.779,13.336c-0.145-0.755-0.363-1.495-0.656-2.203c-0.293-0.72-0.645-1.403-1.047-2.034
	c-0.395-0.618-0.844-1.194-1.334-1.709c-0.506-0.529-1.057-1.005-1.635-1.413c-0.588-0.416-1.225-0.782-1.893-1.085
	c-0.654-0.296-1.34-0.52-2.035-0.667C21.48,4.076,20.748,4,20,4c-0.749,0-1.482,0.076-2.179,0.224
	c-0.695,0.148-1.377,0.371-2.027,0.665c-0.674,0.305-1.314,0.672-1.904,1.09c-0.577,0.407-1.122,0.88-1.623,1.407
	c-0.498,0.521-0.949,1.099-1.343,1.717c-0.397,0.622-0.75,1.306-1.049,2.038c-0.288,0.703-0.509,1.443-0.655,2.202
	C9.074,14.104,9,14.903,9,15.717c0,0.813,0.074,1.612,0.221,2.377c0.144,0.75,0.365,1.492,0.654,2.201
	c0.259,0.633,0.557,1.23,0.887,1.775c0.329,0.545,0.702,1.061,1.106,1.536l3.555,4.979L19.994,35l7.998-11.223l0.117-0.144
	c0.408-0.473,0.783-0.99,1.115-1.539c0.342-0.565,0.645-1.172,0.902-1.805c0.291-0.705,0.51-1.442,0.652-2.19
	C30.926,17.327,31,16.525,31,15.717C31,14.907,30.926,14.106,30.779,13.336z"/>
<path fill="#FFFFFF" d="M25,6v6.074c0,1.215-0.575,1.286-0.953,1.286c-0.349,0-0.56-0.09-0.876-0.398
	c-0.317-0.309-0.535-0.695-0.651-1.157c-0.144-0.591,0.085-0.67,0.033-0.658c-0.091,0-0.726-0.108-0.822,0.065
	c-0.099,0.173-0.146,0.369-0.146,0.588c0,0.719,0.228,1.356,0.682,1.909c0.467,0.54,1.022,0.81,1.672,0.81
	c0.531,0,1.006-0.167,1.42-0.502C25.787,13.67,26,13.271,26,12.821V6H25z"/>
<path fill="#FFFFFF" d="M28.985,19.534c-1.033-0.219-1.563-0.418-1.59-0.597v-0.02c0-0.166,0.504-0.432,1.509-0.803
	c-0.401-0.424-1.06-0.835-1.974-1.233c-0.683-0.275-1.43-0.487-2.242-0.637s-1.693-0.232-2.647-0.247h-0.239
	c-2.122,0-4.033,0.533-5.737,1.604c-0.671,0.411-1.113,0.697-1.328,0.864c-0.295-0.192-0.597-0.408-0.906-0.648
	c-0.308-0.239-0.617-0.497-0.926-0.772c-0.442-0.397-0.704-0.595-0.784-0.595H12.1c-0.067,0.04-0.1,0.343-0.1,0.904
	c0,0.355,0.362,0.932,1.086,1.726c-0.457,0.811-0.683,1.448-0.683,1.915v0.164c0.026,0.219,0.05,0.396,0.07,0.533
	c0.019,0.139,0.036,0.242,0.05,0.308c0.04,0,0.275-0.265,0.704-0.801c0.537-0.657,1.04-1.185,1.51-1.584
	c1.18,0.701,1.952,1.139,2.314,1.316c1.381,0.617,2.924,0.926,4.627,0.926h0.163C24.941,21.846,27.321,21.068,28.985,19.534z"/>
<path fill="#3366BE" d="M26,19.012c0,0.269-0.103,0.501-0.304,0.695C25.503,19.903,25.244,20,25,20c-0.687,0-1-0.34-1-1
	c0-0.286,0.107-0.511,0.313-0.707C24.521,18.098,24.752,18,25.013,18c0.259,0,0.49,0.098,0.684,0.293
	C25.897,18.489,26,18.727,26,19.012z"/>
</svg>
