<?xml version="1.0" encoding="utf-8"?>
<!-- Generator: Adobe Illustrator 16.0.3, SVG Export Plug-In . SVG Version: 6.00 Build 0)  -->
<!DOCTYPE svg PUBLIC "-//W3C//DTD SVG 1.1//EN" "http://www.w3.org/Graphics/SVG/1.1/DTD/svg11.dtd">
<svg version="1.1" id="Flooding" xmlns="http://www.w3.org/2000/svg" xmlns:xlink="http://www.w3.org/1999/xlink" x="0px" y="0px"
	 width="32px" height="32px" viewBox="0 0 32 32" enable-background="new 0 0 32 32" xml:space="preserve">
<circle fill="#FFFFFF" cx="16" cy="16" r="15"/>
<path fill="#BF6B04" d="M16,29C8.832,29,3,23.167,3,16S8.832,3,16,3c7.167,0,13,5.832,13,13S23.168,29,16,29z"/>
<path fill="#F28705" d="M16,28C9.383,28,4,22.617,4,16C4,9.383,9.383,4,16,4c6.617,0,12,5.383,12,12C28,22.617,22.617,28,16,28z"/>
<path fill="#FFFFFF" d="M24,13.681v-2.396c-0.813,0.921-1.644,1.38-2.494,1.38c-1.104,0-2.006-0.555-2.71-1.666
	c-0.778,1.11-1.67,1.666-2.678,1.666c-0.86,0-1.767-0.555-2.729-1.666c-0.701,1.11-1.598,1.666-2.684,1.666
	c-0.183,0-0.393-0.044-0.627-0.13c-0.24-0.086-0.483-0.208-0.726-0.362c-0.244-0.157-0.484-0.337-0.721-0.534
	C8.393,11.44,8.186,11.228,8,11v2.576c0.159,0.191,0.343,0.375,0.563,0.548c0.222,0.163,0.453,0.326,0.689,0.449
	c0.235,0.129,0.483,0.233,0.73,0.32C10.235,14.971,10.479,15,10.706,15h0.089c1.073,0,1.938-0.469,2.594-1.425
	C14.183,14.531,15.085,15,16.093,15h0.088c1.196,0,2.072-0.48,2.615-1.452c0.623,0.934,1.521,1.423,2.688,1.452
	C22.333,15,23.176,14.561,24,13.681z"/>
<polygon fill="#FFFFFF" points="13.367,6 15,6 14.834,10 12.5,10 "/>
<polygon fill="#FFFFFF" points="12.566,16 15,16 14.74,25 11,25 "/>
<polygon fill="#FFFFFF" points="18.734,6 17,6 17.176,10 19.5,10 "/>
<polygon fill="#FFFFFF" points="19.448,16 17,16 17.26,25 21,25 "/>
</svg>
