<?xml version="1.0" encoding="utf-8"?>
<!-- Generator: Adobe Illustrator 16.0.3, SVG Export Plug-In . SVG Version: 6.00 Build 0)  -->
<!DOCTYPE svg PUBLIC "-//W3C//DTD SVG 1.1//EN" "http://www.w3.org/Graphics/SVG/1.1/DTD/svg11.dtd">
<svg version="1.1" id="Flooding" xmlns="http://www.w3.org/2000/svg" xmlns:xlink="http://www.w3.org/1999/xlink" x="0px" y="0px"
	 width="40px" height="40px" viewBox="0 0 40 40" enable-background="new 0 0 40 40" xml:space="preserve">
<path opacity="0.75" fill="#FFFFFF" d="M33.9707031,15.6733398c0-1.0039063-0.09375-1.9799805-0.2724609-2.9262695
	c-0.1806641-0.9482422-0.4560547-1.8676758-0.8242188-2.7587891c-0.3652344-0.8920898-0.796875-1.7255859-1.2958984-2.5024414
	s-1.0625-1.496582-1.6943359-2.1577148c-0.6357422-0.6611328-1.3232422-1.2543945-2.0634766-1.7753906
	c-0.7431641-0.5229492-1.5400391-0.9780273-2.3876953-1.3618164c-0.8535156-0.3828125-1.7333984-0.6689453-2.6376953-0.8608398
	c-0.90625-0.1914063-1.8364258-0.2856445-2.7944336-0.2856445c-0.9575195,0-1.8881836,0.0942383-2.7924805,0.2856445
	c-0.9057617,0.1918945-1.7836914,0.4780273-2.6357422,0.8608398c-0.8520508,0.3837891-1.6489258,0.8388672-2.390625,1.3618164
	c-0.7416992,0.5209961-1.4287109,1.1142578-2.0610352,1.7753906S8.9228516,6.7089844,8.4233398,7.4858398
	C7.925293,8.2626953,7.4941406,9.0961914,7.1264648,9.9882813c-0.3662109,0.8911133-0.6396484,1.8105469-0.8232422,2.7587891
	c-0.1835938,0.9462891-0.2749023,1.9223633-0.2749023,2.9262695c0,1.0014648,0.0913086,1.9775391,0.2749023,2.9257813
	s0.4570313,1.8666992,0.8232422,2.7602539c0.315918,0.7675781,0.6816406,1.4951172,1.0952148,2.1787109
	c0.4160156,0.6835938,0.8789063,1.3232422,1.3916016,1.9199219H9.609375H9.6064453l5.1938477,7.2529297l5.1943359,7.2529297
	l5.1850586-7.2363281l5.1767578-7.2324219c0.5214844-0.6015625,0.9912109-1.2480469,1.4101563-1.9355469
	c0.4199219-0.6914063,0.7900391-1.4257813,1.1074219-2.2001953c0.3681641-0.8935547,0.6435547-1.8120117,0.8242188-2.7602539
	C33.8769531,17.6508789,33.9707031,16.6748047,33.9707031,15.6733398z"/>
<path fill="#1873CD" d="M31.7617188,13.2333984c-0.15625-0.8286133-0.3945313-1.637207-0.7128906-2.4140625
	c-0.3164063-0.7822266-0.6953125-1.5258789-1.1308594-2.2128906c-0.4296875-0.6777344-0.9199219-1.3120117-1.4550781-1.8789063
	C27.9121094,6.1459961,27.3125,5.625,26.6835938,5.1767578C26.0449219,4.7211914,25.3496094,4.3198242,24.625,3.9868164
	c-0.7207031-0.3276367-1.4746094-0.5761719-2.2382813-0.7397461C21.6210938,3.0830078,20.8183594,3,20.0009766,3
	c-0.8193359,0-1.6210938,0.0830078-2.3857422,0.2470703c-0.7636719,0.1635742-1.5146484,0.4116211-2.2314453,0.7382813
	c-0.7324219,0.3344727-1.4277344,0.7353516-2.0683594,1.1928711c-0.6298828,0.4482422-1.2246094,0.9672852-1.7695313,1.5458984
	c-0.5419922,0.5727539-1.0341797,1.2060547-1.4628906,1.8842773c-0.4287109,0.6767578-0.8105469,1.4223633-1.1328125,2.2158203
	c-0.3144531,0.7729492-0.5537109,1.5844727-0.7109375,2.4130859C8.0810547,14.0678711,8,14.9375,8,15.8232422
	c0,0.8842773,0.0810547,1.7539063,0.2392578,2.5869141c0.1572266,0.8242188,0.3964844,1.6367188,0.7109375,2.4140625
	c0.2773438,0.6816406,0.5996094,1.3320313,0.9570313,1.9296875c0.3583984,0.5976563,0.7626953,1.1621094,1.2021484,1.6796875
	l2.3681641,3.3476563L19.9951172,37l8.8115234-12.4628906l0.0605469-0.0703125
	c0.4433594-0.5195313,0.8535156-1.0898438,1.2128906-1.6894531c0.3710938-0.6191406,0.6953125-1.2734375,0.9726563-1.9570313
	c0.3144531-0.7734375,0.5527344-1.5820313,0.7089844-2.4052734C31.9199219,17.5722656,32,16.7006836,32,15.8232422
	C32,14.9443359,31.9199219,14.0722656,31.7617188,13.2333984z"/>
<path fill="#1F8FFF" d="M30.7792969,13.3359375c-0.1445313-0.7553711-0.3632813-1.4946289-0.65625-2.203125
	c-0.2929688-0.7197266-0.6445313-1.4033203-1.046875-2.0336914c-0.3945313-0.6176758-0.84375-1.1938477-1.3339844-1.7094727
	c-0.5058594-0.5292969-1.0566406-1.0048828-1.6347656-1.4130859c-0.5878906-0.4155273-1.2246094-0.7822266-1.8925781-1.0854492
	C23.5605469,4.5952148,22.875,4.371582,22.1796875,4.2236328C21.4804688,4.0756836,20.7475586,4,19.9995117,4
	c-0.7490234,0-1.4814453,0.0756836-2.1787109,0.2236328c-0.6943359,0.1479492-1.3769531,0.3710938-2.0273438,0.6650391
	c-0.6738281,0.3051758-1.3134766,0.6723633-1.9042969,1.0898438c-0.5761719,0.4067383-1.1220703,0.8803711-1.6220703,1.4067383
	c-0.4980469,0.5214844-0.9492188,1.0991211-1.34375,1.7167969c-0.3964844,0.621582-0.7490234,1.3061523-1.0488281,2.0380859
	c-0.2880859,0.7026367-0.5087891,1.4433594-0.6542969,2.2016602c-0.1464844,0.7626953-0.2207031,1.5615234-0.2207031,2.375
	c0,0.8125,0.0742188,1.6118164,0.2207031,2.3769531c0.1445313,0.75,0.3652344,1.4921875,0.6542969,2.2011719
	c0.2587891,0.6328125,0.5576172,1.2304688,0.8867188,1.7753906s0.7021484,1.0605469,1.1064453,1.5361328l3.5556641,4.9785156
	L19.9936523,35l7.9985352-11.2226563l0.1171875-0.1435547c0.4082031-0.4726563,0.7832031-0.9902344,1.1152344-1.5390625
	c0.3417969-0.5654297,0.6445313-1.171875,0.9023438-1.8046875c0.2910156-0.7050781,0.5097656-1.4423828,0.6523438-2.1904297
	C30.9257813,17.3266602,31,16.5249023,31,15.7167969C31,14.9067383,30.9257813,14.105957,30.7792969,13.3359375z"/>
<g>
	<path fill="#FFFFFF" d="M17.9379883,23h0.5429688c-0.097168-0.0820313-0.1958008-0.1591797-0.2905273-0.2568359
		C18.1108398,22.8408203,18.0253906,22.9179688,17.9379883,23z"/>
	<path fill="#FFFFFF" d="M14.4599609,23h0.3056641c-0.1118164-0.0849609-0.2211914-0.1708984-0.3056641-0.2568359V23z"/>
	<path fill="#FFFFFF" d="M25,11.4658203V6.9868164h-2v1.4414063L19.9980469,6L12,15h2v6.1806641
		c0.128418,0.1337891,0.2719727,0.2666016,0.4375,0.3837891c0.1630859,0.1191406,0.3300781,0.2324219,0.4985352,0.3232422
		c0.1689453,0.0947266,0.7963867,0.2480469,0.9624023,0.3017578c0.1621094,0.0507813-0.1518555,0-0.0249023,0
		c0.7509766,0,1.371582-0.3398438,1.8569336-1.0087891c0.6665039,0.6689453,1.753418,1.0087891,2.3491211,1.0087891
		c0.6982422,0,1.7768555-0.3398438,2.3168945-1.0087891c0.4873047,0.6689453,1.1113281,1.0087891,1.8769531,1.0087891
		c0.5888672,0,1.1630859-0.2773438,1.7265625-0.8388672V15h2L25,11.4658203z"/>
	<path fill="#FFFFFF" d="M25.5371094,23v-0.1953125C25.4599609,22.8759766,25.375,22.9365234,25.2929688,23H25.5371094z"/>
	<path fill="#FFFFFF" d="M21.703125,23h0.4921875c-0.0869141-0.0869141-0.1845703-0.1738281-0.2617188-0.2734375
		C21.8652344,22.8271484,21.7832031,22.9121094,21.703125,23z"/>
</g>
<path fill="#1F8FFF" d="M26,19.0107422v-1.796875c-0.609375,0.6914063-1.2324219,1.0351563-1.8691406,1.0351563
	c-0.8300781,0-1.5058594-0.4165039-2.0332031-1.2490234c-0.5839844,0.8325195-1.2529297,1.2490234-2.0092773,1.2490234
	c-0.6450195,0-1.324707-0.4165039-2.046875-1.2490234c-0.5253906,0.8325195-1.1977539,1.2490234-2.0117188,1.2490234
	c-0.137207,0-0.2954102-0.0332031-0.4707031-0.0981445c-0.1801758-0.0644531-0.3618164-0.1552734-0.5444336-0.2714844
	c-0.1826172-0.1176758-0.3637695-0.2524414-0.5405273-0.4003906C14.2949219,17.3305664,14.1391602,17.1708984,14,17v1.9311523
	c0.1191406,0.144043,0.2573242,0.28125,0.421875,0.4111328c0.1665039,0.1230469,0.3398438,0.2441406,0.5170898,0.3364258
	c0.1762695,0.097168,0.3623047,0.1757813,0.5473633,0.2402344C15.6767578,19.9775391,15.8598633,20,16.0297852,20h0.0664063
	c0.8041992,0,1.453125-0.3520508,1.9453125-1.0688477C18.637207,19.6479492,19.3139648,20,20.0698242,20h0.065918
	c0.8974609,0,1.5537109-0.3608398,1.9619141-1.0893555c0.4667969,0.7001953,1.140625,1.0668945,2.015625,1.0893555
	C24.75,20,25.3828125,19.6699219,26,19.0107422z"/>
</svg>
