<?xml version="1.0" encoding="utf-8"?>
<!-- Generator: Adobe Illustrator 16.0.3, SVG Export Plug-In . SVG Version: 6.00 Build 0)  -->
<!DOCTYPE svg PUBLIC "-//W3C//DTD SVG 1.1//EN" "http://www.w3.org/Graphics/SVG/1.1/DTD/svg11.dtd">
<svg version="1.1" id="Food_Consession" xmlns="http://www.w3.org/2000/svg" xmlns:xlink="http://www.w3.org/1999/xlink" x="0px"
	 y="0px" width="34px" height="34px" viewBox="0 0 34 34" enable-background="new 0 0 34 34" xml:space="preserve">
<circle fill="#FFFFFF" cx="17" cy="17" r="15"/>
<path fill="#262424" d="M17,30C9.832,30,4,24.167,4,17S9.832,4,17,4c7.167,0,13,5.832,13,13S24.168,30,17,30z"/>
<path fill="#424243" d="M17,29c-6.617,0-12-5.383-12-12c0-6.617,5.383-12,12-12c6.617,0,12,5.383,12,12C29,23.617,23.617,29,17,29z"
	/>
<path fill="#FFFFFF" d="M25,13l-1.8,11h-3.7L18,13h5l1-4l1,0.18L24,13H25z"/>
<path fill="#FFFFFF" d="M16.997,19c0,0,0.188-2-2.42-2h-4.154c-2.604,0-2.419,2-2.419,2H16.997z"/>
<path fill="#FFFFFF" d="M8.003,22c0,0-0.184,2,2.419,2h4.154c2.609,0,2.42-2,2.42-2H8.003z"/>
<path fill="#FFFFFF" d="M16.291,21C16.682,21,17,20.775,17,20.498C17,20.225,16.682,20,16.291,20H8.71C8.321,20,8,20.225,8,20.498
	C8,20.775,8.321,21,8.71,21H16.291z"/>
</svg>
