<?xml version="1.0" encoding="utf-8"?>
<!-- Generator: Adobe Illustrator 16.0.3, SVG Export Plug-In . SVG Version: 6.00 Build 0)  -->
<!DOCTYPE svg PUBLIC "-//W3C//DTD SVG 1.1//EN" "http://www.w3.org/Graphics/SVG/1.1/DTD/svg11.dtd">
<svg version="1.1" id="Food_Preparation_Equipment" xmlns="http://www.w3.org/2000/svg" xmlns:xlink="http://www.w3.org/1999/xlink"
	 x="0px" y="0px" width="34px" height="34px" viewBox="0 0 34 34" enable-background="new 0 0 34 34" xml:space="preserve">
<circle fill="#FFFFFF" cx="17" cy="17" r="15"/>
<path fill="#262424" d="M17,30C9.832,30,4,24.167,4,17S9.832,4,17,4c7.167,0,13,5.832,13,13S24.168,30,17,30z"/>
<path fill="#424243" d="M17,29c-6.617,0-12-5.383-12-12c0-6.617,5.383-12,12-12c6.617,0,12,5.383,12,12C29,23.617,23.617,29,17,29z"
	/>
<path fill="#FFFFFF" d="M9.615,12h14.77C24.723,12,25,11.685,25,11.296c0-0.39-0.277-0.705-0.615-0.705h-0.318
	c-0.862-0.927-3.378-1.52-6.427-1.607c0.115-0.161,0.25-0.761,0.25-0.984c0-0.521-0.435-1-0.889-1c-0.457,0-0.889,0.479-0.889,1
	c0,0.224,0.135,0.823,0.247,0.984c-3.047,0.087-5.563,0.68-6.424,1.607H9.615C9.275,10.591,9,10.906,9,11.296
	C9,11.685,9.275,12,9.615,12z"/>
<path fill="#FFFFFF" d="M25.4,13H8.804C8.36,13,8,13.56,8,14c0,0.447,0.36,1,0.804,1H10v7.941C10,24.049,10.496,25,11.599,25h10.438
	C23.144,25,24,24.207,24,23.1V15h1.4c0.44,0,0.6-0.554,0.6-1C26,13.559,25.844,13,25.4,13z"/>
</svg>
