<?xml version="1.0" encoding="utf-8"?>
<!-- Generator: Adobe Illustrator 16.0.3, SVG Export Plug-In . SVG Version: 6.00 Build 0)  -->
<!DOCTYPE svg PUBLIC "-//W3C//DTD SVG 1.1//EN" "http://www.w3.org/Graphics/SVG/1.1/DTD/svg11.dtd">
<svg version="1.1" id="Gate" xmlns="http://www.w3.org/2000/svg" xmlns:xlink="http://www.w3.org/1999/xlink" x="0px" y="0px"
	 width="34px" height="34px" viewBox="0 0 34 34" enable-background="new 0 0 34 34" xml:space="preserve">
<circle fill="#FFFFFF" cx="17" cy="17" r="15"/>
<path fill="#262424" d="M17,30C9.832,30,4,24.167,4,17S9.832,4,17,4c7.167,0,13,5.832,13,13S24.168,30,17,30z"/>
<path fill="#424243" d="M17,29c-6.617,0-12-5.383-12-12c0-6.617,5.383-12,12-12c6.617,0,12,5.383,12,12C29,23.617,23.617,29,17,29z"
	/>
<rect x="9" y="10" fill="#FFFFFF" width="16" height="14"/>
<circle fill="#FFFFFF" cx="9.5" cy="9.5" r="0.5"/>
<circle fill="#FFFFFF" cx="9.5" cy="24.5" r="0.5"/>
<g>
	<rect x="14" y="14" fill="#424243" width="1" height="1"/>
	<rect x="18" y="14" fill="#424243" width="1" height="1"/>
	<rect x="16" y="14" fill="#424243" width="1" height="1"/>
	<rect x="13" y="15" fill="#424243" width="1" height="1"/>
	<rect x="13" y="19" fill="#424243" width="1" height="1"/>
	<rect x="13" y="17" fill="#424243" width="1" height="1"/>
	<rect x="19" y="15" fill="#424243" width="1" height="1"/>
	<rect x="14" y="18" fill="#424243" width="1" height="1"/>
	<rect x="14" y="16" fill="#424243" width="1" height="1"/>
	<rect x="15" y="19" fill="#424243" width="1" height="1"/>
	<rect x="16" y="18" fill="#424243" width="1" height="1"/>
	<rect x="15" y="15" fill="#424243" width="1" height="1"/>
	<rect x="18" y="18" fill="#424243" width="1" height="1"/>
	<rect x="19" y="17" fill="#424243" width="1" height="1"/>
	<rect x="12" y="14" fill="#424243" width="1" height="1"/>
	<rect x="12" y="16" fill="#424243" width="1" height="1"/>
	<rect x="13" y="13" fill="#424243" width="1" height="1"/>
	<rect x="12" y="20" fill="#424243" width="1" height="1"/>
	<rect x="12" y="18" fill="#424243" width="1" height="1"/>
	<rect x="15" y="13" fill="#424243" width="1" height="1"/>
	<rect x="19" y="19" fill="#424243" width="1" height="1"/>
	<rect x="20" y="18" fill="#424243" width="1" height="1"/>
	<rect x="20" y="16" fill="#424243" width="1" height="1"/>
	<rect x="17" y="13" fill="#424243" width="1" height="1"/>
	<rect x="17" y="19" fill="#424243" width="1" height="1"/>
	<rect x="19" y="13" fill="#424243" width="1" height="1"/>
	<rect x="20" y="14" fill="#424243" width="1" height="1"/>
	<rect x="18" y="16" fill="#424243" width="1" height="1"/>
	<rect x="16" y="22" fill="#424243" width="1" height="1"/>
	<rect x="18" y="22" fill="#424243" width="1" height="1"/>
	<rect x="14" y="22" fill="#424243" width="1" height="1"/>
	<rect x="12" y="22" fill="#424243" width="1" height="1"/>
	<rect x="10" y="22" fill="#424243" width="1" height="1"/>
	<rect x="20" y="22" fill="#424243" width="1" height="1"/>
	<rect x="23" y="19" fill="#424243" width="1" height="1"/>
	<rect x="23" y="15" fill="#424243" width="1" height="1"/>
	<rect x="23" y="13" fill="#424243" width="1" height="1"/>
	<rect x="23" y="17" fill="#424243" width="1" height="1"/>
	<rect x="23" y="21" fill="#424243" width="1" height="1"/>
	<rect x="10" y="18" fill="#424243" width="1" height="1"/>
	<rect x="17" y="15" fill="#424243" width="1" height="1"/>
	<rect x="22" y="22" fill="#424243" width="1" height="1"/>
	<rect x="15" y="17" fill="#424243" width="1" height="1"/>
	<rect x="16" y="16" fill="#424243" width="1" height="1"/>
	<rect x="19" y="11" fill="#424243" width="1" height="1"/>
	<rect x="21" y="11" fill="#424243" width="1" height="1"/>
	<rect x="10" y="16" fill="#424243" width="1" height="1"/>
	<rect x="17" y="17" fill="#424243" width="1" height="1"/>
	<rect x="14" y="20" fill="#424243" width="1" height="1"/>
	<rect x="17" y="11" fill="#424243" width="1" height="1"/>
	<rect x="11" y="11" fill="#424243" width="1" height="1"/>
	<rect x="10" y="14" fill="#424243" width="1" height="1"/>
	<rect x="10" y="12" fill="#424243" width="1" height="1"/>
	<rect x="15" y="11" fill="#424243" width="1" height="1"/>
	<rect x="13" y="11" fill="#424243" width="1" height="1"/>
	<rect x="10" y="20" fill="#424243" width="1" height="1"/>
	<rect x="11" y="13" fill="#424243" width="1" height="1"/>
	<rect x="21" y="15" fill="#424243" width="1" height="1"/>
	<rect x="12" y="12" fill="#424243" width="1" height="1"/>
	<rect x="11" y="21" fill="#424243" width="1" height="1"/>
	<rect x="11" y="19" fill="#424243" width="1" height="1"/>
	<rect x="11" y="15" fill="#424243" width="1" height="1"/>
	<rect x="21" y="13" fill="#424243" width="1" height="1"/>
	<rect x="20" y="12" fill="#424243" width="1" height="1"/>
	<rect x="16" y="12" fill="#424243" width="1" height="1"/>
	<rect x="14" y="12" fill="#424243" width="1" height="1"/>
	<rect x="18" y="12" fill="#424243" width="1" height="1"/>
	<rect x="13" y="21" fill="#424243" width="1" height="1"/>
	<rect x="22" y="16" fill="#424243" width="1" height="1"/>
	<rect x="22" y="14" fill="#424243" width="1" height="1"/>
	<rect x="23" y="11" fill="#424243" width="1" height="1"/>
	<rect x="22" y="12" fill="#424243" width="1" height="1"/>
	<rect x="22" y="18" fill="#424243" width="1" height="1"/>
	<rect x="22" y="20" fill="#424243" width="1" height="1"/>
	<rect x="17" y="21" fill="#424243" width="1" height="1"/>
	<rect x="15" y="21" fill="#424243" width="1" height="1"/>
	<rect x="19" y="21" fill="#424243" width="1" height="1"/>
	<rect x="21" y="21" fill="#424243" width="1" height="1"/>
	<rect x="11" y="17" fill="#424243" width="1" height="1"/>
	<rect x="21" y="19" fill="#424243" width="1" height="1"/>
	<rect x="20" y="20" fill="#424243" width="1" height="1"/>
	<rect x="21" y="17" fill="#424243" width="1" height="1"/>
	<rect x="18" y="20" fill="#424243" width="1" height="1"/>
	<rect x="16" y="20" fill="#424243" width="1" height="1"/>
</g>
<circle fill="#FFFFFF" cx="24.5" cy="9.5" r="0.5"/>
<circle fill="#FFFFFF" cx="24.5" cy="24.5" r="0.5"/>
</svg>
