<?xml version="1.0" encoding="utf-8"?>
<!-- Generator: Adobe Illustrator 16.0.3, SVG Export Plug-In . SVG Version: 6.00 Build 0)  -->
<!DOCTYPE svg PUBLIC "-//W3C//DTD SVG 1.1//EN" "http://www.w3.org/Graphics/SVG/1.1/DTD/svg11.dtd">
<svg version="1.1" id="Generator" xmlns="http://www.w3.org/2000/svg" xmlns:xlink="http://www.w3.org/1999/xlink" x="0px" y="0px"
	 width="34px" height="34px" viewBox="0 0 34 34" enable-background="new 0 0 34 34" xml:space="preserve">
<circle fill="#FFFFFF" cx="17" cy="17" r="15"/>
<path fill="#BF9004" d="M17,30C9.832,30,4,24.167,4,17S9.832,4,17,4c7.167,0,13,5.832,13,13S24.168,30,17,30z"/>
<path fill="#F3B705" d="M17,29c-6.617,0-12-5.383-12-12c0-6.617,5.383-12,12-12c6.617,0,12,5.383,12,12C29,23.617,23.617,29,17,29z"
	/>
<path fill="#FFFFFF" d="M7,17.25c-0.004-2.705,1.158-4.749,2.281-6.047l0,0c1.13-1.309,2.226-1.938,2.326-1.998l0,0
	c0.733-0.419,1.676-0.178,2.104,0.536l0,0c0.429,0.712,0.186,1.626-0.542,2.047l0,0l0,0c0,0,0,0-0.003,0.002l0,0
	c-0.001,0-0.004,0.002-0.01,0.005l0,0c-0.014,0.009-0.042,0.026-0.08,0.051l0,0c-0.076,0.05-0.196,0.132-0.342,0.244l0,0
	c-0.293,0.226-0.697,0.576-1.095,1.039l0,0c-0.799,0.938-1.561,2.268-1.564,4.119l0,0c0,1.866,0.772,3.545,2.028,4.771l0,0
	c1.259,1.225,2.981,1.978,4.895,1.978l0,0c1.916,0,3.638-0.753,4.895-1.978l0,0c1.256-1.226,2.029-2.905,2.029-4.771l0,0
	c-0.004-1.795-0.717-3.097-1.489-4.031l0,0c-0.732-0.887-1.521-1.38-1.599-1.426l0,0c-0.001,0-0.001,0-0.004,0l0,0
	c-0.001-0.001-0.002-0.002-0.002-0.002l0,0c-0.001,0-0.001,0-0.001,0l0,0l0,0c-0.725-0.421-0.968-1.335-0.543-2.047l0,0
	c0.431-0.714,1.374-0.955,2.107-0.536l0,0c0.097,0.058,1.192,0.688,2.324,1.997l0,0c1.125,1.299,2.285,3.343,2.283,6.047l0,0
	c0,5.384-4.479,9.75-10.001,9.75l0,0C11.478,26.999,7,22.634,7,17.25L7,17.25z"/>
<path fill="#FFFFFF" d="M15.5,15.75V12V8.25C15.5,7.56,16.171,7,17,7l0,0c0.829,0,1.5,0.56,1.5,1.25l0,0V12v3.75H18.5
	C18.5,16.44,17.829,17,17,17l0,0C16.171,17,15.5,16.44,15.5,15.75L15.5,15.75z"/>
</svg>
