<?xml version="1.0" encoding="utf-8"?>
<!-- Generator: Adobe Illustrator 16.0.3, SVG Export Plug-In . SVG Version: 6.00 Build 0)  -->
<!DOCTYPE svg PUBLIC "-//W3C//DTD SVG 1.1//EN" "http://www.w3.org/Graphics/SVG/1.1/DTD/svg11.dtd">
<svg version="1.1" id="Geologic_Incident" xmlns="http://www.w3.org/2000/svg" xmlns:xlink="http://www.w3.org/1999/xlink" x="0px"
	 y="0px" width="44px" height="44px" viewBox="0 0 44 44" enable-background="new 0 0 44 44" xml:space="preserve">
<path opacity="0.75" fill="#FFFFFF" enable-background="new    " d="M38,16.5380859
	c0-1.1342773-0.1054688-2.2382813-0.3105469-3.3085938c-0.2080078-1.0708008-0.5214844-2.1113281-0.9462891-3.1186523
	c-0.4169922-1.0087891-0.9140625-1.949707-1.484375-2.8276367c-0.5693359-0.878418-1.2158203-1.6914063-1.9404297-2.4384766
	c-0.7265625-0.75-1.515625-1.4179688-2.3613281-2.0087891c-0.8525391-0.5908203-1.7646484-1.105957-2.7353516-1.5380859
	c-0.9785156-0.4335938-1.9863281-0.7578125-3.0214844-0.9736328C24.1630859,0.1074219,23.1015625,0,22.0019531,0
	c-1.0976563,0-2.1635742,0.1074219-3.199707,0.3242188c-1.0371094,0.2158203-2.0419922,0.5400391-3.0180664,0.9736328
	c-0.9760742,0.4321289-1.8886719,0.9472656-2.7373047,1.5380859c-0.8496094,0.5908203-1.637207,1.2587891-2.3598633,2.0087891
	C9.9619141,5.5917969,9.3144531,6.4047852,8.7441406,7.2832031c-0.5727539,0.8779297-1.0654297,1.8188477-1.4863281,2.8276367
	c-0.418457,1.0073242-0.7338867,2.0478516-0.9428711,3.1186523C6.1049805,14.2998047,6,15.4038086,6,16.5380859
	c0,1.1347656,0.1049805,2.2353516,0.3149414,3.3085938c0.2089844,1.0703125,0.5244141,2.1103516,0.9428711,3.1201172
	c0.362793,0.8662109,0.7788086,1.6894531,1.253418,2.4619141c0.4765625,0.7724609,1.0083008,1.4951172,1.5952148,2.1738281
	h-0.0048828H10.097168l5.9482422,8.1982422L21.9941406,44l5.9355469-8.1845703l5.9306641-8.171875
	c0.5996094-0.6806641,1.1367188-1.4111328,1.6152344-2.1875c0.4785156-0.7822266,0.9052734-1.6132813,1.2675781-2.4892578
	c0.4248047-1.0097656,0.7382813-2.0498047,0.9462891-3.1201172C37.8945313,18.7734375,38,17.6728516,38,16.5380859z"/>
<path fill="#1873CD" d="M35.7246094,13.4384766c-0.1855469-0.9262695-0.4589844-1.8320313-0.8339844-2.6987305
	c-0.3652344-0.875-0.8125-1.706543-1.3183594-2.4741211c-0.4980469-0.7568359-1.0742188-1.4663086-1.6953125-2.0996094
	c-0.6425781-0.6489258-1.34375-1.2314453-2.0800781-1.7329102c-0.7402344-0.5092773-1.5527344-0.9580078-2.4003906-1.3291016
	c-0.8398438-0.3676758-1.71875-0.6459961-2.609375-0.8271484C23.8925781,2.0927734,22.9570313,2,22.0019531,2
	s-1.8911133,0.0927734-2.784668,0.2768555c-0.8896484,0.1811523-1.7666016,0.4589844-2.6025391,0.824707
	c-0.8544922,0.3735352-1.6645508,0.8212891-2.4125977,1.3334961c-0.7348633,0.5009766-1.4291992,1.0810547-2.0654297,1.7275391
	c-0.6323242,0.6396484-1.206543,1.3481445-1.7050781,2.105957c-0.5014648,0.7578125-0.9462891,1.5893555-1.3237305,2.4760742
	c-0.3647461,0.8642578-0.6445313,1.7705078-0.8295898,2.6972656C8.0942383,14.3701172,8,15.3427734,8,16.331543
	c0,0.9892578,0.0942383,1.9594727,0.2788086,2.8920898c0.1845703,0.9208984,0.4643555,1.828125,0.8291016,2.6982422
	c0.3227539,0.7636719,0.7021484,1.4873047,1.1162109,2.1542969c0.4208984,0.671875,0.8920898,1.3017578,1.4042969,1.8779297
	l2.762207,3.7412109L21.9956055,40l10.2797852-13.9277344l0.0742188-0.0800781
	c0.515625-0.5800781,0.9941406-1.2177734,1.4140625-1.8867188c0.4335938-0.6943359,0.8125-1.4238281,1.1328125-2.1875
	c0.3691406-0.8662109,0.6445313-1.7675781,0.828125-2.6914063C35.9101563,18.2880859,36,17.3134766,36,16.331543
	S35.9101563,14.375,35.7246094,13.4384766z"/>
<path fill="#1F8FFF" d="M34.7373047,13.5410156c-0.171875-0.8540039-0.4287109-1.6879883-0.7753906-2.4873047
	c-0.3457031-0.8120117-0.7607422-1.5834961-1.2333984-2.2949219c-0.4658203-0.6987305-1.0009766-1.3476563-1.5771484-1.9316406
	c-0.5986328-0.597168-1.2529297-1.1337891-1.9355469-1.5942383c-0.6933594-0.46875-1.4443359-0.8842773-2.2363281-1.2246094
	c-0.7685547-0.3359375-1.5800781-0.5883789-2.4033203-0.7548828C23.7490234,3.0864258,22.8828125,3,22,3
	c-0.8857422,0-1.7514648,0.0864258-2.5756836,0.253418c-0.8203125,0.1665039-1.6264648,0.4189453-2.3950195,0.7514648
	c-0.796875,0.34375-1.5537109,0.7592773-2.2524414,1.2304688c-0.6806641,0.4589844-1.324707,0.9931641-1.9169922,1.5874023
	c-0.5869141,0.5888672-1.1206055,1.2407227-1.5859375,1.9379883c-0.4702148,0.7026367-0.887207,1.4750977-1.2402344,2.3022461
	c-0.3398438,0.7910156-0.6015625,1.6289063-0.7744141,2.4838867C9.0869141,14.409668,9,15.3095703,9,16.2275391
	c0,0.9174805,0.0869141,1.8237305,0.2597656,2.6845703c0.1699219,0.8457031,0.4321289,1.6826172,0.7739258,2.4833984
	c0.3061523,0.71875,0.6572266,1.3925781,1.0483398,2.0068359c0.3896484,0.6142578,0.8295898,1.1972656,1.3076172,1.734375
	l4.2011719,5.6210938L21.9921875,38l9.4541016-12.671875l0.1367188-0.1611328
	c0.4814453-0.53125,0.9277344-1.1152344,1.3183594-1.7382813c0.4033203-0.6386719,0.7617188-1.3222656,1.0654297-2.0361328
	c0.3417969-0.7988281,0.6015625-1.6318359,0.7705078-2.4726563C34.9101563,18.0473633,35,17.1411133,35,16.2275391
	C35,15.3134766,34.9101563,14.409668,34.7373047,13.5410156z"/>
<polygon fill="#FFFFFF" points="34,16.9990234 22.0117188,29 10,16.9990234 22.0117188,5 "/>
<path fill="#1F8FFF" d="M26.4492188,14.4453125c-0.1474609-0.1601563-0.3222656-0.3496094-0.5205078-0.5727539l-0.9511719-1.0141602
	c-1.0058594-1.0654297-1.6796875-1.7246094-2.0292969-1.9775391c-1.2773438-0.9511719-2.5703125-1.4804688-3.8803711-1.5859375
	c0.2958984,0.1689453,0.5966797,0.3432617,0.9023438,0.5234375c0.3071289,0.1806641,0.6132813,0.3759766,0.9199219,0.5869141
	c0.4648438,0.2954102,0.9448242,1.0024414,1.4414063,2.1220703l-6.8276367,7.8886719l1.0292969,0.8554688l6.6201172-7.6186523
	l2.1552734,1.8999023L26.4492188,14.4453125z"/>
<path fill="#1F8FFF" d="M22.409668,21.3339844c0-0.3701172-0.168457-0.5566406-0.5058594-0.5566406
	c-0.359375,0-0.5385742,0.1865234-0.5385742,0.5566406c0,0.3046875,0.1791992,0.4609375,0.5385742,0.4609375
	C22.2412109,21.7949219,22.409668,21.6386719,22.409668,21.3339844z"/>
<path fill="#1F8FFF" d="M26.1337891,20.5605469c0-1.0048828-0.5605469-1.5048828-1.6796875-1.5048828
	c-0.2949219,0-0.5175781,0.1982422-0.6650391,0.6025391l0.2070313,0.5839844
	c-0.1601563,0.3066406-0.4609375,0.4570313-0.9052734,0.4570313v0.6347656C23.4511719,21.7773438,24.0107422,22,24.7724609,22
	c0.484375,0,0.8300781-0.1074219,1.0429688-0.3203125C26.0273438,21.4697266,26.1337891,21.0957031,26.1337891,20.5605469z"/>
<path fill="#1F8FFF" d="M28.4628906,21.0957031c0-0.2939453-0.0693359-0.5498047-0.1992188-0.7666016
	c-0.1328125-0.2167969-0.2998047-0.3271484-0.4990234-0.3271484c-0.0117188,0-0.0908203,0.1074219-0.2373047,0.3183594
	c-0.1484375,0.2109375-0.2265625,0.3183594-0.2382813,0.3183594c-0.2529297,0-0.3798828,0.1630859-0.3798828,0.4882813
	c0,0.1923828,0.0898438,0.3574219,0.2695313,0.5019531c0.1787109,0.1386719,0.3955078,0.2138672,0.6494141,0.2138672
	C28.2519531,21.5234375,28.4628906,21.2773438,28.4628906,21.0957031z"/>
</svg>
