<?xml version="1.0" encoding="utf-8"?>
<!-- Generator: Adobe Illustrator 16.0.3, SVG Export Plug-In . SVG Version: 6.00 Build 0)  -->
<!DOCTYPE svg PUBLIC "-//W3C//DTD SVG 1.1//EN" "http://www.w3.org/Graphics/SVG/1.1/DTD/svg11.dtd">
<svg version="1.1" id="Green_Landscaping_-_Green_Infrastructure"
	 xmlns="http://www.w3.org/2000/svg" xmlns:xlink="http://www.w3.org/1999/xlink" x="0px" y="0px" width="40px" height="40px"
	 viewBox="0 0 40 40" enable-background="new 0 0 40 40" xml:space="preserve">
<path opacity="0.75" fill="#FFFFFF" d="M33.971,15.669c0-1.004-0.094-1.979-0.272-2.926c-0.181-0.948-0.456-1.868-0.824-2.759
	c-0.365-0.893-0.797-1.726-1.296-2.503c-0.499-0.776-1.063-1.496-1.694-2.157c-0.636-0.661-1.323-1.255-2.063-1.775
	c-0.743-0.523-1.54-0.979-2.388-1.362c-0.854-0.383-1.733-0.669-2.638-0.86C21.889,1.135,20.958,1.04,20,1.04
	c-0.958,0-1.888,0.095-2.792,0.286c-0.906,0.191-1.784,0.478-2.636,0.86c-0.852,0.384-1.649,0.839-2.391,1.362
	c-0.742,0.521-1.429,1.114-2.061,1.775S8.923,6.705,8.423,7.481c-0.498,0.777-0.929,1.61-1.297,2.503
	c-0.366,0.891-0.64,1.811-0.823,2.759c-0.184,0.946-0.275,1.922-0.275,2.926c0,1.002,0.091,1.978,0.275,2.926
	s0.457,1.867,0.823,2.761c0.316,0.768,0.682,1.495,1.095,2.179c0.416,0.684,0.879,1.323,1.392,1.92H9.609H9.606l5.194,7.253
	l5.194,7.253l5.185-7.236l5.177-7.232c0.521-0.602,0.991-1.248,1.41-1.936c0.42-0.691,0.79-1.426,1.107-2.2
	c0.368-0.894,0.644-1.813,0.824-2.761C33.877,17.646,33.971,16.671,33.971,15.669z"/>
<path fill="#38673D" d="M31.762,13.229c-0.156-0.829-0.395-1.638-0.713-2.414c-0.316-0.782-0.695-1.526-1.131-2.213
	c-0.43-0.678-0.92-1.313-1.455-1.879c-0.551-0.582-1.15-1.103-1.779-1.551c-0.639-0.456-1.334-0.857-2.059-1.19
	c-0.721-0.327-1.475-0.576-2.238-0.739c-0.766-0.164-1.568-0.247-2.386-0.247c-0.819,0-1.621,0.083-2.386,0.247
	c-0.764,0.163-1.515,0.411-2.231,0.738c-0.732,0.334-1.428,0.735-2.068,1.192c-0.63,0.448-1.225,0.968-1.77,1.546
	c-0.542,0.573-1.034,1.206-1.463,1.885C9.654,9.281,9.272,10.026,8.95,10.82c-0.314,0.772-0.554,1.584-0.711,2.413
	C8.081,14.063,8,14.934,8,15.819c0,0.884,0.081,1.754,0.239,2.587c0.157,0.824,0.396,1.637,0.711,2.414
	c0.277,0.682,0.6,1.332,0.957,1.93c0.358,0.598,0.763,1.162,1.202,1.68l2.368,3.348l6.518,9.219l8.812-12.463l0.061-0.07
	c0.443-0.52,0.854-1.09,1.213-1.689c0.371-0.619,0.695-1.273,0.973-1.957c0.314-0.773,0.553-1.582,0.709-2.405
	C31.92,17.568,32,16.696,32,15.819C32,14.94,31.92,14.068,31.762,13.229z"/>
<path fill="#359A40" d="M30.779,13.332c-0.145-0.756-0.363-1.495-0.656-2.203c-0.293-0.72-0.645-1.403-1.047-2.034
	c-0.395-0.617-0.844-1.193-1.334-1.709c-0.506-0.529-1.057-1.005-1.635-1.413c-0.588-0.416-1.225-0.782-1.893-1.086
	c-0.654-0.296-1.34-0.52-2.035-0.667C21.48,4.071,20.748,3.996,20,3.996c-0.749,0-1.481,0.075-2.179,0.224
	c-0.694,0.147-1.377,0.371-2.027,0.665c-0.674,0.305-1.313,0.672-1.904,1.09c-0.576,0.406-1.122,0.88-1.622,1.406
	c-0.498,0.521-0.949,1.1-1.344,1.717c-0.396,0.622-0.749,1.307-1.049,2.038c-0.288,0.703-0.509,1.443-0.654,2.202
	C9.074,14.101,9,14.899,9,15.713c0,0.813,0.074,1.611,0.221,2.377c0.145,0.75,0.365,1.492,0.654,2.201
	c0.259,0.633,0.558,1.23,0.887,1.775s0.702,1.061,1.106,1.536l3.556,4.979l4.57,6.415l7.998-11.223l0.117-0.144
	c0.408-0.473,0.783-0.99,1.115-1.539c0.342-0.565,0.645-1.172,0.902-1.805c0.291-0.705,0.51-1.442,0.652-2.19
	C30.926,17.322,31,16.521,31,15.713C31,14.902,30.926,14.102,30.779,13.332z"/>
<path fill="#FFFFFF" d="M19.808,16.92v1.846c0,0.242-0.021,0.441-0.071,0.589c-0.044,0.145-0.13,0.277-0.254,0.398
	c-0.123,0.117-0.282,0.227-0.477,0.339c-0.556,0.317-1.095,0.544-1.61,0.688C16.881,20.93,16.316,21,15.711,21
	c-0.712,0-1.358-0.117-1.942-0.347c-0.581-0.225-1.079-0.554-1.491-0.986c-0.41-0.433-0.726-0.958-0.948-1.576
	c-0.218-0.622-0.33-1.309-0.33-2.07c0-0.748,0.106-1.432,0.32-2.055c0.216-0.623,0.531-1.15,0.946-1.583s0.921-0.763,1.518-0.994
	c0.595-0.228,1.271-0.344,2.027-0.344c0.622,0,1.17,0.086,1.649,0.26c0.476,0.173,0.865,0.391,1.164,0.653
	c0.299,0.261,0.523,0.54,0.673,0.832c0.15,0.293,0.227,0.553,0.227,0.783c0,0.247-0.086,0.454-0.26,0.627
	c-0.175,0.173-0.382,0.259-0.627,0.259c-0.136,0-0.262-0.034-0.385-0.099c-0.125-0.065-0.23-0.159-0.315-0.275
	c-0.229-0.379-0.424-0.663-0.583-0.855c-0.161-0.19-0.375-0.355-0.646-0.485c-0.271-0.13-0.615-0.199-1.037-0.199
	c-0.432,0-0.816,0.079-1.156,0.234c-0.34,0.156-0.631,0.381-0.872,0.676c-0.242,0.296-0.428,0.658-0.554,1.089
	c-0.129,0.427-0.191,0.901-0.191,1.422c0,1.133,0.249,2.002,0.746,2.608c0.497,0.606,1.189,0.914,2.079,0.914
	c0.432,0,0.838-0.063,1.219-0.178c0.382-0.116,0.764-0.285,1.154-0.509v-1.559h-1.445c-0.349,0-0.614-0.052-0.791-0.164
	c-0.18-0.113-0.269-0.296-0.269-0.561c0-0.21,0.074-0.388,0.223-0.529c0.148-0.141,0.354-0.212,0.609-0.212h2.121
	c0.261,0,0.481,0.024,0.663,0.075c0.179,0.045,0.325,0.156,0.437,0.317C19.753,16.343,19.808,16.585,19.808,16.92z"/>
<path fill="#FFFFFF" d="M23.76,12.391v7.017l3.769-0.013c0.298,0,0.528,0.082,0.681,0.233c0.164,0.152,0.24,0.346,0.24,0.576
	c0,0.239-0.074,0.432-0.235,0.572C28.059,20.928,27.829,21,27.528,21h-4.41c-0.398,0-0.687-0.097-0.855-0.283
	C22.082,20.53,22,20.221,22,19.805v-7.415c0-0.394,0.082-0.69,0.248-0.885c0.166-0.197,0.383-0.296,0.654-0.296
	c0.275,0,0.496,0.099,0.67,0.29C23.742,11.698,23.76,11.993,23.76,12.391z"/>
</svg>
