<?xml version="1.0" encoding="utf-8"?>
<!-- Generator: Adobe Illustrator 16.0.3, SVG Export Plug-In . SVG Version: 6.00 Build 0)  -->
<!DOCTYPE svg PUBLIC "-//W3C//DTD SVG 1.1//EN" "http://www.w3.org/Graphics/SVG/1.1/DTD/svg11.dtd">
<svg version="1.1" id="Guest_Services" xmlns="http://www.w3.org/2000/svg" xmlns:xlink="http://www.w3.org/1999/xlink" x="0px"
	 y="0px" width="34px" height="34px" viewBox="0 0 34 34" enable-background="new 0 0 34 34" xml:space="preserve">
<circle fill="#FFFFFF" cx="17" cy="17" r="15"/>
<path fill="#262424" d="M17,30C9.832,30,4,24.167,4,17S9.832,4,17,4c7.167,0,13,5.832,13,13S24.168,30,17,30z"/>
<path fill="#424243" d="M17,29c-6.617,0-12-5.383-12-12c0-6.617,5.383-12,12-12c6.617,0,12,5.383,12,12C29,23.617,23.617,29,17,29z"
	/>
<path fill="#FFFFFF" d="M21.093,13c-0.246,0-0.48,0.041-0.704,0.119c-0.224,0.078-0.411,0.211-0.567,0.391
	c-0.09,0.091-0.267,0.301-0.536,0.629c-0.266,0.33-0.552,0.681-0.851,1.055c-0.302,0.375-0.583,0.714-0.836,1.02
	c-0.258,0.307-0.634,0.483-0.656,0.562c0.058-0.207-0.13,0.115-0.168,0.409c0.023-0.182,0.078,0.33,0.237,0.443
	c0.154,0.115,0.49,0.172,0.603,0.172c0.177,0,0.322-0.08,0.435-0.24c0.066-0.067,0.244-0.283,0.533-0.646
	c0.29-0.364,0.604-0.748,0.937-1.157c0.336-0.41-0.032,0.027,0.481-0.609V18H8v1h12v5.181c0,0.233,0.155,0.428,0.313,0.585
	C20.466,24.928,20.777,25,21,25s0.61-0.079,0.766-0.241C21.921,24.602,22,24.414,22,24.181V19h1v5.185
	c0,0.233,0.17,0.455,0.328,0.612C23.484,24.959,23.773,25,24,25c0.221,0,0.609-0.075,0.766-0.237C24.919,24.605,25,24.418,25,24.185
	V19h1v-1h-1v-3.912c0-0.318-0.307-0.578-0.519-0.781C24.27,13.103,24.211,13,23.9,13L21.093,13z"/>
<path fill="#FFFFFF" d="M16.896,13.037c-0.104-0.1-0.376-0.246-0.521-0.252c-0.17-0.004-0.293,0.122-0.384,0.214
	c-0.048,0.048-0.158,0.188-0.332,0.411c-0.174,0.227-0.389,0.506-0.645,0.842c-0.048-0.168-0.095-0.323-0.14-0.467
	c-0.046-0.14-0.093-0.286-0.141-0.427c-0.092-0.335-0.288-0.644-0.592-0.929C13.837,12.146,13.5,12,13.13,12h-2.442
	c-0.351,0-0.676,0.146-0.977,0.43c-0.305,0.286-0.513,0.594-0.629,0.929L8,17h1l1-3h1l-1,3h4l-1-3h1
	c0.187,0.619,0.107,1.102,0.244,1.626c0.073,0.238,0.247,0.358,0.524,0.358c0.188,0,0.337-0.071,0.454-0.216
	c0.14-0.215,0.304-0.434,0.488-0.659c0.186-0.229,0.353-0.435,0.504-0.625c0.152-0.192,0.288-0.365,0.402-0.519
	c0.118-0.155,0.198-0.257,0.247-0.304C16.954,13.568,17,13.447,17,13.306C17,13.209,17,13.129,16.896,13.037z"/>
<path fill="#FFFFFF" d="M12.5,11c0.415,0,0.77-0.149,1.063-0.439C13.854,10.268,14,9.915,14,9.499c0-0.413-0.146-0.767-0.438-1.059
	C13.269,8.147,12.915,8,12.5,8s-0.768,0.147-1.062,0.44C11.144,8.732,11,9.086,11,9.499c0,0.416,0.144,0.769,0.438,1.062
	C11.731,10.851,12.084,11,12.5,11z"/>
<path fill="#FFFFFF" d="M22.498,12c0.417,0,0.77-0.146,1.063-0.438C23.854,11.269,24,10.916,24,10.499
	c0-0.415-0.146-0.768-0.438-1.062C23.268,9.144,22.915,9,22.498,9c-0.413,0-0.767,0.144-1.06,0.437
	C21.147,9.731,21,10.084,21,10.499c0,0.417,0.147,0.77,0.438,1.063C21.731,11.854,22.085,12,22.498,12z"/>
</svg>
