<?xml version="1.0" encoding="utf-8"?>
<!-- Generator: Adobe Illustrator 16.0.3, SVG Export Plug-In . SVG Version: 6.00 Build 0)  -->
<!DOCTYPE svg PUBLIC "-//W3C//DTD SVG 1.1//EN" "http://www.w3.org/Graphics/SVG/1.1/DTD/svg11.dtd">
<svg version="1.1" id="Habilitation_Facility" xmlns="http://www.w3.org/2000/svg" xmlns:xlink="http://www.w3.org/1999/xlink"
	 x="0px" y="0px" width="40px" height="40px" viewBox="0 0 40 40" enable-background="new 0 0 40 40" xml:space="preserve">
<path opacity="0.75" fill="#FFFFFF" enable-background="new    " d="M33.971,15.709c0-1.004-0.094-1.98-0.272-2.926
	c-0.181-0.948-0.456-1.868-0.824-2.759c-0.365-0.892-0.797-1.726-1.296-2.502s-1.063-1.497-1.694-2.158
	c-0.636-0.661-1.323-1.254-2.063-1.775c-0.743-0.523-1.54-0.978-2.388-1.362c-0.854-0.383-1.733-0.669-2.638-0.861
	C21.889,1.175,20.959,1.081,20,1.081c-0.958,0-1.888,0.094-2.792,0.286c-0.906,0.192-1.784,0.478-2.636,0.861
	c-0.852,0.384-1.649,0.839-2.391,1.362c-0.742,0.521-1.429,1.114-2.061,1.775S8.923,6.745,8.423,7.522
	c-0.498,0.777-0.929,1.61-1.297,2.502c-0.366,0.891-0.64,1.811-0.823,2.759c-0.184,0.946-0.275,1.922-0.275,2.926
	c0,1.001,0.091,1.978,0.275,2.926s0.457,1.867,0.823,2.76c0.316,0.768,0.682,1.495,1.095,2.179c0.416,0.684,0.879,1.323,1.392,1.92
	H9.609H9.606l5.194,7.253L19.995,40l5.185-7.236l5.177-7.232c0.521-0.602,0.991-1.248,1.41-1.936c0.42-0.691,0.79-1.426,1.107-2.2
	c0.368-0.894,0.644-1.812,0.824-2.76C33.877,17.687,33.971,16.711,33.971,15.709z"/>
<path fill="#1873CD" d="M31.762,13.27c-0.156-0.829-0.395-1.637-0.713-2.414c-0.316-0.782-0.695-1.526-1.131-2.213
	c-0.43-0.678-0.92-1.312-1.455-1.879c-0.551-0.582-1.15-1.103-1.779-1.551c-0.639-0.456-1.334-0.857-2.059-1.19
	c-0.721-0.328-1.475-0.576-2.238-0.74c-0.766-0.164-1.568-0.247-2.386-0.247c-0.819,0-1.621,0.083-2.386,0.247
	c-0.764,0.164-1.515,0.412-2.231,0.738c-0.732,0.334-1.428,0.735-2.068,1.193c-0.63,0.448-1.225,0.967-1.77,1.546
	c-0.542,0.573-1.034,1.206-1.463,1.884C9.654,9.321,9.272,10.067,8.95,10.86c-0.314,0.773-0.554,1.584-0.711,2.413
	C8.081,14.104,8,14.974,8,15.859c0,0.884,0.081,1.754,0.239,2.587c0.157,0.824,0.396,1.637,0.711,2.414
	c0.277,0.682,0.6,1.332,0.957,1.93c0.358,0.598,0.763,1.162,1.202,1.68l2.368,3.348l6.518,9.219l8.812-12.463l0.061-0.07
	c0.443-0.52,0.854-1.09,1.213-1.689c0.371-0.619,0.695-1.273,0.973-1.957c0.314-0.773,0.553-1.582,0.709-2.405
	C31.92,17.608,32,16.737,32,15.859C32,14.98,31.92,14.108,31.762,13.27z"/>
<path fill="#1F8FFF" d="M30.779,13.372c-0.145-0.755-0.363-1.495-0.656-2.203c-0.293-0.72-0.645-1.403-1.047-2.034
	c-0.395-0.618-0.844-1.194-1.334-1.709c-0.506-0.529-1.057-1.005-1.635-1.413c-0.588-0.416-1.225-0.782-1.893-1.085
	c-0.654-0.296-1.34-0.52-2.035-0.667C21.48,4.112,20.748,4.036,20,4.036c-0.749,0-1.481,0.076-2.179,0.224
	c-0.694,0.148-1.377,0.371-2.027,0.665c-0.674,0.305-1.313,0.672-1.904,1.09c-0.576,0.407-1.122,0.88-1.622,1.407
	c-0.498,0.521-0.949,1.099-1.344,1.717c-0.396,0.622-0.749,1.306-1.049,2.038c-0.288,0.703-0.509,1.443-0.654,2.202
	C9.074,14.141,9,14.939,9,15.753c0,0.813,0.074,1.612,0.221,2.377c0.145,0.75,0.365,1.492,0.654,2.201
	c0.259,0.633,0.558,1.23,0.887,1.775s0.702,1.061,1.106,1.536l3.556,4.979l4.57,6.415l7.999-11.223l0.117-0.144
	c0.408-0.473,0.783-0.99,1.115-1.539c0.342-0.565,0.645-1.172,0.902-1.805c0.291-0.705,0.51-1.442,0.652-2.19
	C30.926,17.363,31,16.561,31,15.753C31,14.943,30.926,14.142,30.779,13.372z"/>
<path fill="#FFFFFF" d="M21.674,14.711c-0.299,0.298-0.702,0.471-1.108,0.471c-0.355,0-0.686-0.133-0.93-0.374l-3.669-3.671
	l-0.332,0.333l1.268,1.267l-4.109,4.108c-0.121,0.122-0.218,0.261-0.291,0.417c-0.113,0.239-0.16,0.504-0.138,0.77
	c-1.085-1.097-1.68-2.488-1.679-3.92c0.002-1.369,0.547-2.664,1.534-3.645c0.988-0.982,2.298-1.524,3.691-1.524
	c0.822,0,1.606,0.186,2.332,0.547c0.294,0.146,0.582,0.325,0.853,0.536l0.129,0.101l2.549,2.547
	C22.305,13.209,22.262,14.124,21.674,14.711z"/>
<path fill="#FFFFFF" d="M19.027,14.863l-4.107,4.109c-0.192,0.191-0.452,0.297-0.727,0.297c-0.293,0-0.573-0.117-0.785-0.33
	c-0.213-0.213-0.331-0.49-0.331-0.787c0-0.275,0.104-0.533,0.297-0.726l4.108-4.108L19.027,14.863z"/>
<path fill="#FFFFFF" d="M30,15.226c0.002,1.441-0.602,2.839-1.699,3.94c-0.652,0.649-1.404,1.403-2.174,2.171l-4.439,4.402
	c-0.191,0.191-0.449,0.297-0.726,0.297c-0.297,0-0.576-0.117-0.787-0.332c-0.207-0.207-0.322-0.479-0.328-0.766
	c-0.006-0.281,0.099-0.547,0.295-0.746l4.315-4.316l-0.705-0.704l-4.315,4.316c-0.192,0.191-0.451,0.297-0.726,0.297
	c-0.293,0-0.573-0.117-0.786-0.33c-0.212-0.213-0.33-0.492-0.33-0.787c0-0.275,0.104-0.533,0.297-0.725l4.315-4.317l-0.721-0.72
	l-4.317,4.315c-0.191,0.191-0.449,0.295-0.726,0.295c-0.295,0-0.575-0.117-0.786-0.328c-0.207-0.207-0.323-0.48-0.328-0.768
	c-0.008-0.281,0.099-0.547,0.295-0.746l4.107-4.107l0.125,0.125c0.333,0.33,0.781,0.511,1.261,0.511
	c0.525,0,1.051-0.222,1.439-0.608c0.77-0.773,0.814-1.985,0.098-2.701l-2.003-2.001c0.972-0.904,2.229-1.398,3.562-1.398
	c1.391,0,2.701,0.542,3.689,1.523C28.891,12,29.998,13.857,30,15.226z"/>
</svg>
