<?xml version="1.0" encoding="utf-8"?>
<!-- Generator: Adobe Illustrator 16.0.3, SVG Export Plug-In . SVG Version: 6.00 Build 0)  -->
<!DOCTYPE svg PUBLIC "-//W3C//DTD SVG 1.1//EN" "http://www.w3.org/Graphics/SVG/1.1/DTD/svg11.dtd">
<svg version="1.1" id="Handicap_Access" xmlns="http://www.w3.org/2000/svg" xmlns:xlink="http://www.w3.org/1999/xlink" x="0px"
	 y="0px" width="34px" height="34px" viewBox="0 0 34 34" enable-background="new 0 0 34 34" xml:space="preserve">
<circle fill="#FFFFFF" cx="17" cy="17" r="15"/>
<path fill="#0040AD" d="M17,30C9.832,30,4,24.167,4,17S9.832,4,17,4c7.167,0,13,5.832,13,13S24.168,30,17,30z"/>
<path fill="#3366BE" d="M17,29c-6.617,0-12-5.383-12-12c0-6.617,5.383-12,12-12c6.617,0,12,5.383,12,12C29,23.617,23.617,29,17,29z"
	/>
<path fill="#FFFFFF" d="M20,23.952c-0.064,0.109-0.172,0.262-0.312,0.46c-0.143,0.197-0.328,0.435-0.546,0.72
	c-0.13,0.15-0.307,0.327-0.527,0.521c-0.72,0.548-1.481,0.928-2.271,1.146C15.905,26.933,15.553,27,15.291,27h-0.923
	c-0.153,0-0.395-0.034-0.725-0.101c-0.219-0.042-0.416-0.094-0.593-0.147c-0.174-0.056-0.351-0.124-0.525-0.213
	c-1.429-0.634-2.461-1.66-3.097-3.077c-0.043-0.15-0.097-0.316-0.165-0.49c-0.064-0.172-0.12-0.373-0.166-0.59
	C9.034,22.055,9,21.804,9,21.628v-0.883c0-0.108,0.017-0.25,0.051-0.427c0.031-0.172,0.07-0.381,0.114-0.621
	c0.088-0.305,0.186-0.582,0.297-0.835c0.11-0.249,0.229-0.483,0.36-0.702c0.529-0.809,1.308-1.528,2.339-2.16l0.232,1.57
	c0,0.021-0.056,0.066-0.166,0.131c-0.242,0.152-0.461,0.361-0.659,0.622c-0.46,0.502-0.78,1.134-0.955,1.898
	c-0.089,0.196-0.131,0.415-0.131,0.654v0.589c0,0.24,0.088,0.654,0.263,1.242c0.241,0.656,0.593,1.179,1.054,1.574
	c0.373,0.395,0.845,0.706,1.415,0.95c0.419,0.218,0.88,0.328,1.385,0.328h0.593c0.263,0,0.614-0.067,1.053-0.201
	c0.573-0.195,1.088-0.488,1.548-0.885c0.397-0.325,0.711-0.705,0.958-1.145c0.261-0.521,0.424-1.001,0.49-1.438L20,23.952z"/>
<path fill="#FFFFFF" d="M25,25.295l-3.498,1.04L19,19h-6l-1.359-9.848V8.849c0.043-0.539,0.246-0.98,0.611-1.328
	C12.613,7.172,13.049,7,13.555,7c0.505,0,0.946,0.19,1.321,0.57c0.373,0.381,0.56,0.842,0.56,1.379c0,0.761-0.33,1.323-0.989,1.682
	c-0.221,0.156-0.484,0.234-0.793,0.234h-0.165L14.051,16H19v1h-4.78l0.198,1H20l2.345,7.26l2.012-0.641L25,25.295z"/>
</svg>
