<?xml version="1.0" encoding="utf-8"?>
<!-- Generator: Adobe Illustrator 16.0.3, SVG Export Plug-In . SVG Version: 6.00 Build 0)  -->
<!DOCTYPE svg PUBLIC "-//W3C//DTD SVG 1.1//EN" "http://www.w3.org/Graphics/SVG/1.1/DTD/svg11.dtd">
<svg version="1.1" id="Hazardous_Material_Incident"
	 xmlns="http://www.w3.org/2000/svg" xmlns:xlink="http://www.w3.org/1999/xlink" x="0px" y="0px" width="44px" height="44px"
	 viewBox="0 0 44 44" enable-background="new 0 0 44 44" xml:space="preserve">
<path opacity="0.75" fill="#FFFFFF" enable-background="new    " d="M38,16.5380859
	c0-1.1342773-0.1054688-2.2382813-0.3105469-3.3085938c-0.2080078-1.0708008-0.5214844-2.1113281-0.9462891-3.1186523
	c-0.4169922-1.0087891-0.9140625-1.949707-1.484375-2.8276367c-0.5693359-0.878418-1.2158203-1.6914063-1.9394531-2.4384766
	c-0.7265625-0.75-1.5166016-1.4179688-2.3623047-2.0087891c-0.8525391-0.5908203-1.7646484-1.105957-2.7353516-1.5380859
	c-0.9775391-0.4335938-1.9863281-0.7578125-3.0214844-0.9736328C24.1630859,0.1074219,23.1015625,0,22.0019531,0
	c-1.0976563,0-2.1640625,0.1074219-3.199707,0.3242188c-1.0371094,0.2158203-2.0419922,0.5400391-3.0185547,0.9736328
	c-0.9755859,0.4321289-1.8881836,0.9472656-2.7368164,1.5380859c-0.8500977,0.5908203-1.637207,1.2587891-2.3598633,2.0087891
	C9.9619141,5.5917969,9.3144531,6.4047852,8.7441406,7.2832031c-0.5727539,0.8779297-1.065918,1.8188477-1.4863281,2.8276367
	c-0.4189453,1.0073242-0.7338867,2.0478516-0.9433594,3.1186523C6.1044922,14.2998047,6,15.4038086,6,16.5380859
	c0,1.1347656,0.1044922,2.2353516,0.3144531,3.3085938c0.2094727,1.0703125,0.5244141,2.1103516,0.9433594,3.1201172
	c0.362793,0.8662109,0.7783203,1.6894531,1.253418,2.4619141c0.4760742,0.7724609,1.0078125,1.4951172,1.5952148,2.1738281
	h-0.0048828H10.097168l5.9482422,8.1982422L21.9936523,44l5.9360352-8.1845703l5.9306641-8.171875
	c0.5996094-0.6806641,1.1376953-1.4111328,1.6152344-2.1875c0.4785156-0.7822266,0.9052734-1.6132813,1.2675781-2.4892578
	c0.4248047-1.0097656,0.7382813-2.0498047,0.9462891-3.1201172C37.8945313,18.7734375,38,17.6728516,38,16.5380859z"/>
<path fill="#1873CD" d="M35.7236328,13.4384766c-0.1826172-0.9262695-0.4599609-1.8320313-0.8320313-2.6987305
	c-0.3671875-0.875-0.8115234-1.706543-1.3183594-2.4741211C33.0712891,7.5087891,32.4990234,6.7993164,31.875,6.1660156
	c-0.6425781-0.6489258-1.3417969-1.2314453-2.0761719-1.7329102c-0.7431641-0.5092773-1.5566406-0.9580078-2.4013672-1.3291016
	c-0.8417969-0.3676758-1.7177734-0.6459961-2.609375-0.8271484C23.8935547,2.0927734,22.9570313,2,22.0019531,2
	s-1.8911133,0.0927734-2.784668,0.2768555c-0.8896484,0.1811523-1.7666016,0.4589844-2.6020508,0.824707
	c-0.8549805,0.3735352-1.6650391,0.8212891-2.4135742,1.3334961c-0.734375,0.5009766-1.4282227,1.0810547-2.0644531,1.7275391
	c-0.6337891,0.6396484-1.2070313,1.3481445-1.7060547,2.105957c-0.5009766,0.7578125-0.9458008,1.5893555-1.3227539,2.4760742
	c-0.3657227,0.8642578-0.6459961,1.7705078-0.8295898,2.6972656C8.0947266,14.3701172,8,15.3427734,8,16.331543
	c0,0.9892578,0.0947266,1.9594727,0.2792969,2.8920898c0.1831055,0.9208984,0.4633789,1.828125,0.8291016,2.6982422
	c0.3227539,0.7636719,0.7016602,1.4873047,1.1162109,2.1542969c0.4204102,0.671875,0.8916016,1.3017578,1.4042969,1.8779297
	l2.762207,3.7412109L21.9960938,40l10.2802734-13.9277344l0.0712891-0.0800781
	c0.515625-0.5800781,0.9960938-1.2177734,1.4150391-1.8867188c0.4335938-0.6943359,0.8115234-1.4238281,1.1347656-2.1875
	c0.3662109-0.8662109,0.6455078-1.7675781,0.8261719-2.6914063C35.9082031,18.2880859,36,17.3134766,36,16.331543
	S35.9082031,14.375,35.7236328,13.4384766z"/>
<path fill="#1F8FFF" d="M34.7363281,13.5410156c-0.1699219-0.8540039-0.4296875-1.6879883-0.7773438-2.4873047
	c-0.3457031-0.8120117-0.7617188-1.5834961-1.234375-2.2949219c-0.4648438-0.6987305-1-1.3476563-1.5761719-1.9316406
	c-0.5976563-0.597168-1.2519531-1.1337891-1.9355469-1.5942383c-0.6894531-0.46875-1.4433594-0.8842773-2.2324219-1.2246094
	c-0.7714844-0.3359375-1.5839844-0.5883789-2.40625-0.7548828C23.75,3.0864258,22.8828125,3,21.9980469,3
	c-0.8837891,0-1.7490234,0.0864258-2.5737305,0.253418c-0.8203125,0.1665039-1.6259766,0.4189453-2.3945313,0.7514648
	c-0.796875,0.34375-1.5537109,0.7592773-2.2524414,1.2304688c-0.6806641,0.4589844-1.324707,0.9931641-1.9165039,1.5874023
	c-0.5869141,0.5888672-1.1206055,1.2407227-1.5859375,1.9379883c-0.4697266,0.7026367-0.8867188,1.4750977-1.2397461,2.3022461
	c-0.3398438,0.7910156-0.6015625,1.6289063-0.7744141,2.4838867C9.0874023,14.409668,9,15.3095703,9,16.2275391
	c0,0.9174805,0.0874023,1.8237305,0.2612305,2.6845703c0.1699219,0.8457031,0.4321289,1.6826172,0.7739258,2.4833984
	c0.3061523,0.71875,0.6572266,1.3925781,1.0478516,2.0068359c0.3886719,0.6142578,0.8295898,1.1972656,1.3061523,1.734375
	l4.2021484,5.6210938L21.9921875,38l9.4511719-12.671875l0.140625-0.1611328
	c0.4804688-0.53125,0.9238281-1.1152344,1.3144531-1.7382813c0.4042969-0.6386719,0.7617188-1.3222656,1.0664063-2.0361328
	c0.34375-0.7988281,0.6035156-1.6318359,0.7714844-2.4726563C34.9101563,18.0473633,35,17.1411133,35,16.2275391
	C35,15.3134766,34.9101563,14.409668,34.7363281,13.5410156z"/>
<polygon fill="#FFFFFF" points="34,16.9990234 22.0117188,29 10,16.9990234 22.0117188,5 "/>
<polygon fill="#1F8FFF" points="22,27 32,17 12,17 "/>
<polygon fill="#1F8FFF" points="13,16 31,16 22,7 "/>
<polygon fill="#FFFFFF" points="17,11 15,13 15,16 17,16 "/>
<polygon fill="#FFFFFF" points="19,16 21,16 21,7 19,9 "/>
<polygon fill="#FFFFFF" points="25,16 25,9 23,7 23,16 "/>
<polygon fill="#FFFFFF" points="29,16 29,13 27,11 27,16 "/>
</svg>
