<?xml version="1.0" encoding="utf-8"?>
<!-- Generator: Adobe Illustrator 16.0.3, SVG Export Plug-In . SVG Version: 6.00 Build 0)  -->
<!DOCTYPE svg PUBLIC "-//W3C//DTD SVG 1.1//EN" "http://www.w3.org/Graphics/SVG/1.1/DTD/svg11.dtd">
<svg version="1.1" id="Hazardous_Condition_Incident"
	 xmlns="http://www.w3.org/2000/svg" xmlns:xlink="http://www.w3.org/1999/xlink" x="0px" y="0px" width="24px" height="24px"
	 viewBox="0 0 24 24" enable-background="new 0 0 24 24" xml:space="preserve">
<circle fill="#F15A24" cx="12" cy="12" r="12"/>
<path fill="#FFFFFF" d="M11.9995117,23.0009766c-6.065918,0-10.9985352-4.9365234-10.9985352-11.0014648
	c0-6.0664063,4.9326172-10.9985352,10.9985352-10.9985352s11.0014648,4.9321289,11.0014648,10.9985352
	C23.0009766,18.0644531,18.0654297,23.0009766,11.9995117,23.0009766z"/>
<polygon fill="#F15A24" points="5,18 12,3 19,18 "/>
<path fill="#FFFFFF" d="M11.1679688,12.0283203l-0.2402344-3.8212891c-0.0458984-0.7451172-0.0683594-1.2788086-0.0683594-1.6035156
	c0-0.4418945,0.109375-0.7851563,0.328125-1.0327148c0.21875-0.2470703,0.5068359-0.3725586,0.8623047-0.3725586
	c0.4326172,0,0.7216797,0.1591797,0.8681641,0.4755859c0.1455078,0.3164063,0.21875,0.7724609,0.21875,1.3676758
	c0,0.3510742-0.0205078,0.7080078-0.0527344,1.0693359l-0.3271484,3.9316406
	c-0.0341797,0.4677734-0.1083984,0.8286133-0.2236328,1.0766602c-0.1171875,0.2519531-0.3066406,0.375-0.5742188,0.375
	c-0.2695313,0-0.4580078-0.1210938-0.5634766-0.3603516C11.2890625,12.890625,11.2128906,12.5214844,11.1679688,12.0283203z
	 M12.0048828,17.2763672c-0.3056641,0-0.5732422-0.1074219-0.8017578-0.3164063
	c-0.2285156-0.2099609-0.34375-0.5019531-0.34375-0.8798828c0-0.3300781,0.109375-0.6113281,0.328125-0.8408203
	c0.21875-0.2314453,0.4863281-0.3476563,0.8017578-0.3476563c0.3164063,0,0.5874023,0.1162109,0.8115234,0.3476563
	C13.0214844,15.46875,13.1367188,15.75,13.1367188,16.0800781c0,0.3720703-0.1162109,0.6660156-0.3408203,0.8769531
	C12.5693359,17.1679688,12.3056641,17.2763672,12.0048828,17.2763672z"/>
</svg>
