<?xml version="1.0" encoding="utf-8"?>
<!-- Generator: Adobe Illustrator 16.0.3, SVG Export Plug-In . SVG Version: 6.00 Build 0)  -->
<!DOCTYPE svg PUBLIC "-//W3C//DTD SVG 1.1//EN" "http://www.w3.org/Graphics/SVG/1.1/DTD/svg11.dtd">
<svg version="1.1" id="Health_Problem_-_Recieved" xmlns="http://www.w3.org/2000/svg" xmlns:xlink="http://www.w3.org/1999/xlink"
	 x="0px" y="0px" width="34px" height="34px" viewBox="0 0 34 34" enable-background="new 0 0 34 34" xml:space="preserve">
<circle fill="#FFFFFF" cx="17" cy="17" r="17"/>
<path fill="#BF6B04" d="M17.001,32c-8.271,0-15-6.732-15-15.002C2.001,8.73,8.73,2,17.001,2c8.271,0,15,6.73,15,14.998
	C32.001,25.268,25.272,32,17.001,32z"/>
<path fill="#F28705" d="M17.001,31C9.28,31,3,24.721,3,17S9.28,3,17.001,3C24.721,3,31,9.279,31,17S24.721,31,17.001,31z"/>
<path fill="#FFFFFF" d="M24.256,10.006L21,10V9c0-0.988-0.035-2-1-2h-6c-0.962,0-1,1-1,2v1l-3.24,0.006
	c-1.483,0-2.76,0.661-2.76,2.183V21c0,1.522,1.277,3,2.76,3h14.496C25.739,24,27,22.813,27,21.29v-8.811
	C27,10.957,25.739,10.006,24.256,10.006z M14,8.632C14,8.282,14.146,8,14.559,8h4.861C19.833,8,20,8.282,20,8.632V10h-6V8.632z"/>
<path fill="#F28705" d="M20.954,15H19v-1.953C19,12.545,18.734,12,18.236,12h-2.471C15.265,12,15,12.545,15,13.047V15h-1.954
	C12.548,15,12,15.266,12,15.766v2.471C12,18.735,12.548,19,13.046,19H15v1.954C15,21.455,15.265,22,15.765,22h2.471
	C18.734,22,19,21.455,19,20.954V19h1.954c0.5,0,1.046-0.265,1.046-0.764v-2.471C22,15.266,21.453,15,20.954,15z M21,18h-3v3h-2v-3
	h-3v-2h3v-3h2v3h3V18z"/>
</svg>
