<?xml version="1.0" encoding="utf-8"?>
<!-- Generator: Adobe Illustrator 16.0.3, SVG Export Plug-In . SVG Version: 6.00 Build 0)  -->
<!DOCTYPE svg PUBLIC "-//W3C//DTD SVG 1.1//EN" "http://www.w3.org/Graphics/SVG/1.1/DTD/svg11.dtd">
<svg version="1.1" id="Heater_-_Cooler" xmlns="http://www.w3.org/2000/svg" xmlns:xlink="http://www.w3.org/1999/xlink" x="0px"
	 y="0px" width="34px" height="34px" viewBox="0 0 34 34" enable-background="new 0 0 34 34" xml:space="preserve">
<circle fill="#FFFFFF" cx="17" cy="17" r="15"/>
<path fill="#0040AD" d="M17.042,4C9.852,4,4,9.784,4,16.891C4,20.446,5.462,23.669,7.825,26L26,7.532
	C23.665,5.343,20.511,4,17.042,4z"/>
<path fill="#BF9004" d="M25.966,8L8,26.26C10.33,28.57,13.553,30,17.11,30C24.225,30,30,24.288,30,17.253
	C30,13.612,28.454,10.326,25.966,8z"/>
<path fill="#3366BE" d="M16.727,5C10.261,5,5,10.26,5,16.719C5,19.947,6.315,22.878,8.442,25L25,8.42
	C22.881,6.308,19.951,5,16.727,5z"/>
<path fill="#F3B705" d="M25.55,9L9,25.568C11.119,27.689,14.049,29,17.28,29C23.741,29,29,23.75,29,17.292
	C29,14.054,27.683,11.123,25.55,9z"/>
<g>
	<path fill="#FFFFFF" d="M17.474,12.684l-0.463,0.583l-0.484-0.281l0.316-0.522l-0.105-0.521l-0.442,0.201l-0.337,0.542L15.6,12.483
		l0.21-0.381l-0.357-0.2l-0.231,0.361l-0.358-0.182l0.864-0.561l-0.864-0.602l0.358-0.182l0.231,0.362l0.357-0.201l-0.21-0.381
		l0.357-0.2l0.337,0.542l0.442,0.2l0.105-0.521l-0.316-0.522l0.484-0.281l0.463,0.583l0.463-0.281L18,8.75l-1.199-0.603
		l-0.484,0.262l0.294,0.662l-0.483,0.26l-0.337-0.54L15.285,8.63l-0.063,0.48l0.337,0.543l-0.378,0.2l-0.233-0.381l-0.358,0.221
		l0.232,0.362l-0.358,0.2L14.4,9.271l-0.99,0.402V9.292h0.442V8.871H13.41V8.469h0.652l0.401-0.281l-0.401-0.342H13.41V7.306
		l0.737-0.081V6.683L13.011,6l-1.159,0.683v0.542l0.738,0.081v0.541h-0.653l-0.399,0.342l0.399,0.281h0.653v0.402h-0.442v0.421
		h0.442v0.381l-0.927-0.441l-0.125,1.023l-0.337-0.2l0.21-0.362l-0.358-0.221l-0.232,0.381l-0.378-0.2l0.336-0.543l-0.042-0.48
		L10.21,8.791l-0.316,0.54l-0.505-0.26l0.294-0.662L9.199,8.147L8,8.75l0.063,1.285l0.484,0.281l0.442-0.583l0.484,0.281
		l-0.315,0.522l0.104,0.521l0.464-0.2l0.316-0.542l0.377,0.2l-0.23,0.381l0.379,0.201l0.21-0.362l0.358,0.182l-0.864,0.561
		l0.864,0.602l-0.358,0.182l-0.21-0.361l-0.379,0.2l0.23,0.381l-0.377,0.201l-0.316-0.542l-0.464-0.201l-0.104,0.521l0.315,0.522
		l-0.484,0.281l-0.442-0.583l-0.484,0.261L8,14.25l1.199,0.603l0.484-0.262l-0.294-0.662l0.505-0.261l0.316,0.542l0.526,0.16
		l0.042-0.48l-0.336-0.542l0.378-0.2l0.232,0.381l0.358-0.221l-0.21-0.361l0.337-0.202l0.083,0.984l0.969-0.402v0.381h-0.442v0.422
		h0.442v0.4h-0.653l-0.399,0.281l0.399,0.343h0.653v0.541l-0.738,0.081v0.542L13.011,17l1.136-0.684v-0.542l-0.737-0.081v-0.541
		h0.652l0.401-0.343l-0.401-0.281H13.41v-0.4h0.442v-0.422H13.41v-0.381l0.926,0.442l0.127-1.024l0.358,0.202l-0.232,0.361
		l0.358,0.221l0.233-0.381l0.378,0.2l-0.337,0.542l0.063,0.48l0.506-0.16l0.337-0.542l0.483,0.261l-0.294,0.662l0.484,0.262
		L18,14.25l-0.063-1.286L17.474,12.684z M11.904,9.899l0.575,0.187l0.212,1.163l-0.936-0.747L11.904,9.899z M12.471,13.164
		l-0.596,0.167l-0.127-0.583L12.685,12L12.471,13.164z M11.563,11.954l-0.425-0.436l0.447-0.396l1.128,0.417L11.563,11.954z
		 M13.53,10.086l0.596-0.167l0.127,0.583l-0.915,0.747L13.53,10.086z M14.091,13.307l-0.575-0.188l-0.191-1.163l0.915,0.749
		L14.091,13.307z M14.409,11.929l-1.128-0.416l1.15-0.415l0.446,0.437L14.409,11.929z"/>
	<polygon fill="#3366BE" points="11.138,11.518 11.563,11.954 12.713,11.54 11.585,11.123 	"/>
	<polygon fill="#3366BE" points="12.479,10.086 11.904,9.899 11.755,10.501 12.691,11.249 	"/>
	<polygon fill="#3366BE" points="11.875,13.331 12.471,13.164 12.685,12 11.748,12.748 	"/>
	<polygon fill="#3366BE" points="14.125,9.919 13.53,10.086 13.338,11.249 14.253,10.501 	"/>
	<polygon fill="#3366BE" points="13.516,13.119 14.091,13.307 14.24,12.704 13.325,11.956 	"/>
	<polygon fill="#3366BE" points="14.431,11.098 13.281,11.513 14.409,11.929 14.877,11.535 	"/>
</g>
<g>
	<path fill="#FFFFFF" d="M28,20.776c-0.096,0.114-0.22,0.255-0.368,0.418c-0.15,0.162-0.33,0.348-0.543,0.549
		c-0.326,0.326-0.697,0.531-1.112,0.619c0.105,0.146,0.332,0.356,0.68,0.635c0.154,0.127,0.283,0.234,0.382,0.325
		c0.102,0.092,0.176,0.162,0.225,0.211c-0.136,0.019-0.271,0.032-0.404,0.041c-0.135,0.01-0.27,0.016-0.405,0.016
		c-0.646,0-1.222-0.093-1.732-0.273c0,0.085,0.042,0.255,0.13,0.503l0.202,0.622c0.077,0.24,0.13,0.44,0.159,0.598
		c0.029,0.158,0.042,0.288,0.042,0.383v0.058c-0.924-0.365-1.585-0.798-1.979-1.3c-0.106,0.242-0.228,0.516-0.361,0.817
		C22.779,25.3,22.629,25.634,22.467,26l-0.349-0.435c-0.201-0.238-0.346-0.461-0.432-0.664c-0.078-0.171-0.131-0.427-0.16-0.763
		c-0.191,0.125-0.467,0.264-0.824,0.419c-0.432,0.173-0.714,0.303-0.839,0.389c-0.019-0.115-0.031-0.223-0.034-0.324
		c-0.007-0.102-0.007-0.205-0.007-0.311c0-0.597,0.173-1.227,0.518-1.891c-0.115,0-0.262,0.01-0.439,0.029
		c-0.177,0.02-0.382,0.043-0.615,0.071c-0.221,0.038-0.41,0.065-0.563,0.079c-0.153,0.016-0.289,0.022-0.403,0.022h-0.088
		c-0.01-0.037-0.014-0.076-0.014-0.114c0-0.578,0.553-1.175,1.662-1.79c-0.029-0.02-0.117-0.065-0.268-0.138
		c-0.151-0.072-0.366-0.172-0.644-0.296l-0.086-0.043c-0.483-0.212-0.777-0.385-0.883-0.52c0.222-0.24,0.66-0.443,1.314-0.605
		c0.233-0.049,0.448-0.095,0.651-0.137c0.201-0.043,0.394-0.066,0.578-0.066c0.02,0,0.039,0.006,0.059,0.015h0.345
		c-0.067-0.153-0.293-0.423-0.677-0.808c-0.358-0.346-0.569-0.586-0.637-0.722c0.144-0.097,0.326-0.145,0.549-0.145
		c0.52,0,1.133,0.261,1.836,0.78c0.029-0.087,0.041-0.245,0.041-0.476v-0.202c0-0.173,0.008-0.373,0.017-0.599
		c0.009-0.226,0.02-0.479,0.029-0.757c0.316,0.039,0.658,0.269,1.025,0.692c0.288,0.356,0.528,0.75,0.724,1.184
		c0.065-0.029,0.229-0.256,0.488-0.678c0.224-0.365,0.416-0.578,0.579-0.635c0.251,0.558,0.377,1.106,0.377,1.645
		c0,0.096-0.007,0.193-0.017,0.289c-0.009,0.096-0.019,0.192-0.028,0.289c0.212-0.087,0.457-0.181,0.738-0.282
		c0.278-0.101,0.602-0.214,0.968-0.339c-0.078,0.953-0.404,1.731-0.983,2.338c0.066,0.019,0.141,0.034,0.218,0.043
		c0.076,0.01,0.163,0.02,0.259,0.03c0.175,0.019,0.39,0.045,0.651,0.078C27.363,20.687,27.663,20.729,28,20.776z"/>
</g>
<rect x="17.12" y="3.239" transform="matrix(0.7087 0.7055 -0.7055 0.7087 17.0919 -7.3957)" fill="#FFFFFF" width="0.764" height="27.522"/>
</svg>
