<?xml version="1.0" encoding="utf-8"?>
<!-- Generator: Adobe Illustrator 16.0.3, SVG Export Plug-In . SVG Version: 6.00 Build 0)  -->
<!DOCTYPE svg PUBLIC "-//W3C//DTD SVG 1.1//EN" "http://www.w3.org/Graphics/SVG/1.1/DTD/svg11.dtd">
<svg version="1.1" id="Hydrant_-_Unclear" xmlns="http://www.w3.org/2000/svg" xmlns:xlink="http://www.w3.org/1999/xlink" x="0px"
	 y="0px" width="8px" height="8px" viewBox="0 0 8 8" enable-background="new 0 0 8 8" xml:space="preserve">
<path fill="#FFFFFF" d="M7.996,3.998C7.996,6.208,6.204,8,4.002,8C1.793,8,0.003,6.208,0.003,3.998C0.003,1.79,1.793,0,4.002,0
	C6.204,0,7.996,1.79,7.996,3.998z"/>
<path fill="#A63A16" d="M4.006,7.004C2.347,7.004,1,5.66,1,4c0-1.657,1.347-3.004,3.006-3.004C5.656,0.996,7,2.343,7,4
	C7,5.66,5.656,7.004,4.006,7.004z"/>
<path fill="#D94C1D" d="M4.002,6C2.898,6,2,5.103,2,3.999C2,2.897,2.898,2,4.002,2C5.103,2,6,2.897,6,3.999C6,5.103,5.103,6,4.002,6
	z"/>
</svg>
