<?xml version="1.0" encoding="utf-8"?>
<!-- Generator: Adobe Illustrator 16.0.3, SVG Export Plug-In . SVG Version: 6.00 Build 0)  -->
<!DOCTYPE svg PUBLIC "-//W3C//DTD SVG 1.1//EN" "http://www.w3.org/Graphics/SVG/1.1/DTD/svg11.dtd">
<svg version="1.1" id="Hydro-Meteorological_Incident"
	 xmlns="http://www.w3.org/2000/svg" xmlns:xlink="http://www.w3.org/1999/xlink" x="0px" y="0px" width="44px" height="44px"
	 viewBox="0 0 44 44" enable-background="new 0 0 44 44" xml:space="preserve">
<path opacity="0.75" fill="#FFFFFF" enable-background="new    " d="M38,16.5380859
	c0-1.1342773-0.1044922-2.2382813-0.3105469-3.3085938c-0.2080078-1.0708008-0.5205078-2.1113281-0.9462891-3.1186523
	c-0.4160156-1.0087891-0.9130859-1.949707-1.484375-2.8276367c-0.5693359-0.878418-1.2158203-1.6914063-1.9394531-2.4384766
	c-0.7265625-0.75-1.5166016-1.4179688-2.3623047-2.0087891c-0.8525391-0.5908203-1.765625-1.105957-2.7353516-1.5380859
	c-0.9775391-0.4335938-1.9853516-0.7578125-3.0205078-0.9736328C24.1630859,0.1074219,23.1005859,0,22.0019531,0
	c-1.097168,0-2.1635742,0.1074219-3.1992188,0.3242188c-1.0371094,0.2158203-2.0419922,0.5400391-3.0185547,0.9736328
	c-0.9755859,0.4321289-1.8881836,0.9472656-2.7368164,1.5380859c-0.8500977,0.5908203-1.637207,1.2587891-2.3598633,2.0087891
	C9.9624023,5.5917969,9.3149414,6.4047852,8.7446289,7.2832031c-0.5727539,0.8779297-1.065918,1.8188477-1.4863281,2.8276367
	c-0.4189453,1.0073242-0.7338867,2.0478516-0.9433594,3.1186523C6.1049805,14.2998047,6,15.4038086,6,16.5380859
	c0,1.1347656,0.1049805,2.2353516,0.3149414,3.3085938c0.2094727,1.0703125,0.5244141,2.1103516,0.9433594,3.1201172
	c0.362793,0.8662109,0.7783203,1.6894531,1.2529297,2.4619141c0.4765625,0.7724609,1.0083008,1.4951172,1.5957031,2.1738281
	h-0.0048828h-0.0043945l5.9482422,8.1982422L21.9936523,44l5.9370117-8.1845703l5.9296875-8.171875
	c0.5996094-0.6806641,1.1376953-1.4111328,1.6162109-2.1875c0.4775391-0.7822266,0.9052734-1.6132813,1.2666016-2.4892578
	c0.4257813-1.0097656,0.7382813-2.0498047,0.9462891-3.1201172C37.8955078,18.7734375,38,17.6728516,38,16.5380859z"/>
<path fill="#1873CD" d="M35.7255859,13.4384766c-0.1855469-0.9262695-0.4638672-1.8320313-0.8359375-2.6987305
	c-0.3632813-0.875-0.8095703-1.706543-1.3183594-2.4741211c-0.4980469-0.7568359-1.0722656-1.4663086-1.6972656-2.0996094
	c-0.6425781-0.6489258-1.3398438-1.2314453-2.0761719-1.7329102c-0.7441406-0.5092773-1.5556641-0.9580078-2.4013672-1.3291016
	c-0.8388672-0.3676758-1.71875-0.6459961-2.609375-0.8271484C23.8935547,2.0927734,22.9570313,2,22.0019531,2
	s-1.8925781,0.0927734-2.784668,0.2768555c-0.890625,0.1811523-1.7680664,0.4589844-2.6040039,0.824707
	c-0.8549805,0.3735352-1.6650391,0.8212891-2.4125977,1.3334961c-0.7353516,0.5009766-1.4277344,1.0810547-2.0644531,1.7275391
	c-0.6337891,0.6396484-1.206543,1.3481445-1.706543,2.105957s-0.9462891,1.5893555-1.3222656,2.4760742
	c-0.3657227,0.8642578-0.6459961,1.7705078-0.8295898,2.6972656C8.0922852,14.3701172,8,15.3427734,8,16.331543
	c0,0.9892578,0.0922852,1.9594727,0.2783203,2.8920898c0.1831055,0.9208984,0.4633789,1.828125,0.8291016,2.6982422
	c0.3227539,0.7636719,0.7006836,1.4873047,1.1162109,2.1542969c0.4194336,0.671875,0.890625,1.3017578,1.4033203,1.8779297
	l2.762207,3.7412109L21.9936523,40l10.2807617-13.9277344l0.0722656-0.0800781
	c0.5166016-0.5800781,0.9951172-1.2177734,1.4160156-1.8867188c0.4326172-0.6943359,0.8095703-1.4238281,1.1328125-2.1875
	c0.3662109-0.8662109,0.6464844-1.7675781,0.8300781-2.6914063C35.90625,18.2880859,36,17.3134766,36,16.331543
	S35.90625,14.375,35.7255859,13.4384766z"/>
<path fill="#1F8FFF" d="M34.7363281,13.5410156c-0.1708984-0.8540039-0.4296875-1.6879883-0.7773438-2.4873047
	c-0.3466797-0.8120117-0.7607422-1.5834961-1.2333984-2.2949219c-0.4667969-0.6987305-0.9980469-1.3476563-1.5771484-1.9316406
	c-0.5986328-0.597168-1.2490234-1.1337891-1.9335938-1.5942383c-0.6933594-0.46875-1.4433594-0.8842773-2.2353516-1.2246094
	c-0.7705078-0.3359375-1.5830078-0.5883789-2.4042969-0.7548828C23.75,3.0864258,22.8828125,3,21.9995117,3
	c-0.8847656,0-1.7519531,0.0864258-2.574707,0.253418c-0.8217773,0.1665039-1.6274414,0.4189453-2.3959961,0.7514648
	c-0.7954102,0.34375-1.5537109,0.7592773-2.2514648,1.2304688c-0.6801758,0.4589844-1.3251953,0.9931641-1.9160156,1.5874023
	c-0.5888672,0.5888672-1.1220703,1.2407227-1.5878906,1.9379883c-0.4697266,0.7026367-0.8852539,1.4750977-1.2387695,2.3022461
	c-0.3408203,0.7910156-0.6010742,1.6289063-0.7739258,2.4838867C9.0874023,14.409668,9,15.3095703,9,16.2275391
	c0,0.9174805,0.0874023,1.8237305,0.2612305,2.6845703c0.1699219,0.8457031,0.4321289,1.6826172,0.7734375,2.4833984
	c0.3051758,0.71875,0.6577148,1.3925781,1.0473633,2.0068359s0.8295898,1.1972656,1.3076172,1.734375l4.2021484,5.6210938
	L21.9916992,38l9.4516602-12.671875l0.1386719-0.1611328c0.4824219-0.53125,0.9267578-1.1152344,1.3154297-1.7382813
	c0.4072266-0.6386719,0.7617188-1.3222656,1.0654297-2.0361328c0.3457031-0.7988281,0.6044922-1.6318359,0.7734375-2.4726563
	C34.9111328,18.0473633,35,17.1411133,35,16.2275391C35,15.3134766,34.9111328,14.409668,34.7363281,13.5410156z"/>
<polygon fill="#FFFFFF" points="34,16.9985352 22.0117188,29 10,16.9985352 22.0117188,5 "/>
<path fill="#1F8FFF" d="M28.2080078,14.8320313c-0.0292969,0-0.0585938,0.0063477-0.0917969,0.0078125
	c0.0625-0.2583008,0.0917969-0.5258789,0.0917969-0.8007813c0-2.1860352-1.9882813-3.9594727-4.4384766-3.9594727
	c-1.8623047,0-3.4506836,1.0249023-4.1118164,2.4736328c-0.2480469-0.0581055-0.5043945-0.097168-0.7734375-0.097168
	c-1.5654297,0-2.8491211,1.0371094-3.0639648,2.3789063c-0.0141602-0.0004883-0.0302734-0.0029297-0.0449219-0.0029297
	C14.7944336,14.8320313,14,15.5415039,14,16.4160156S14.7944336,18,15.7753906,18h12.4326172
	c0.9804688,0,1.7773438-0.7094727,1.7773438-1.5839844S29.1884766,14.8320313,28.2080078,14.8320313z"/>
<path fill="#1F8FFF" d="M19,21.4775391C19,22.3212891,18.3295898,23,17.5048828,23l0,0
	c-0.824707,0-1.4936523-0.6787109-1.4936523-1.5224609l0,0c0-0.8398438,1.1513672-1.6601563,1.4472656-2.4775391l0,0
	C17.9101563,19.9306641,19,20.6376953,19,21.4775391L19,21.4775391z"/>
<path fill="#1F8FFF" d="M27,21.4775391C27,22.3212891,26.3300781,23,25.5048828,23l0,0
	c-0.8251953,0-1.4931641-0.6787109-1.4931641-1.5224609l0,0c0-0.8398438,1.1503906-1.6601563,1.4472656-2.4775391l0,0
	C25.9101563,19.9306641,27,20.6376953,27,21.4775391L27,21.4775391z"/>
<path fill="#1F8FFF" d="M23,24.4775391C23,25.3212891,22.3295898,26,21.5048828,26l0,0
	c-0.824707,0-1.4936523-0.6787109-1.4936523-1.5224609l0,0c0-0.8398438,1.1513672-1.6601563,1.4472656-2.4775391l0,0
	C21.9101563,22.9306641,23,23.6376953,23,24.4775391L23,24.4775391z"/>
</svg>
