<?xml version="1.0" encoding="utf-8"?>
<!-- Generator: Adobe Illustrator 16.0.3, SVG Export Plug-In . SVG Version: 6.00 Build 0)  -->
<!DOCTYPE svg PUBLIC "-//W3C//DTD SVG 1.1//EN" "http://www.w3.org/Graphics/SVG/1.1/DTD/svg11.dtd">
<svg version="1.1" id="Hydrant_-_Avaliable" xmlns="http://www.w3.org/2000/svg" xmlns:xlink="http://www.w3.org/1999/xlink"
	 x="0px" y="0px" width="34px" height="34px" viewBox="0 0 34 34" enable-background="new 0 0 34 34" xml:space="preserve">
<path fill="#FFFFFF" d="M34,17c0,9.385-7.615,17-17,17C7.611,34,0,26.385,0,17C0,7.612,7.611,0,17,0C26.385,0,34,7.612,34,17z"/>
<path fill="#00984E" d="M17.006,31C9.279,31,3,24.727,3,17.003C3,9.278,9.279,3,17.006,3C24.729,3,31,9.278,31,17.003
	C31,24.727,24.729,31,17.006,31z"/>
<path fill="#00BF63" d="M17.004,30C9.835,30,4,24.172,4,17.004S9.835,4,17.004,4C24.172,4,30,9.836,30,17.004S24.172,30,17.004,30z"
	/>
<path fill="#FFFFFF" d="M24,27H10v-1h2v-6H9v-4h3v-3h-2v-3h2c0-0.652,0.036-1.007,0.3-1.597c0.263-0.592,0.692-1.06,1.283-1.405
	c0.468-0.306,1.003-0.525,1.603-0.658C15.789,6.208,16.247,6,17,6c1.508,0,2.563,0.425,3.438,0.998
	c0.549,0.345,0.962,0.813,1.24,1.405C21.949,8.993,22,9.348,22,10h2v3h-2v3h3v4h-3v6h2V27z"/>
</svg>
