<?xml version="1.0" encoding="utf-8"?>
<!-- Generator: Adobe Illustrator 16.0.3, SVG Export Plug-In . SVG Version: 6.00 Build 0)  -->
<!DOCTYPE svg PUBLIC "-//W3C//DTD SVG 1.1//EN" "http://www.w3.org/Graphics/SVG/1.1/DTD/svg11.dtd">
<svg version="1.1" id="Hydrant_-_Adobpted_by_you" xmlns="http://www.w3.org/2000/svg" xmlns:xlink="http://www.w3.org/1999/xlink"
	 x="0px" y="0px" width="17px" height="17px" viewBox="0 0 17 17" enable-background="new 0 0 17 17" xml:space="preserve">
<circle fill="#FFFFFF" cx="8.5" cy="8.5" r="8.5"/>
<path fill="#0882D1" d="M8.503,16C4.364,16,1,12.64,1,8.502C1,4.363,4.364,1,8.503,1C12.641,1,16,4.363,16,8.502
	C16,12.64,12.641,16,8.503,16z"/>
<path fill="#4CA5FF" d="M8.5,15c-3.584,0-6.502-2.914-6.502-6.498S4.916,2,8.5,2c3.584,0,6.498,2.918,6.498,6.502S12.084,15,8.5,15z
	"/>
<path fill="#FFFFFF" d="M12,13H5v-1h1v-2H4V8h2V6H5V5h1c0-0.311,0.016-0.576,0.142-0.855c0.127-0.283,0.331-0.506,0.611-0.669
	C6.977,3.33,7.23,3.226,7.518,3.163C7.803,3.1,8.262,3,8.621,3c0.717,0,1.221,0.203,1.636,0.476
	c0.264,0.163,0.459,0.386,0.593,0.669C10.979,4.424,11,4.689,11,5h1v1h-1v2h2v2h-2v2h1V13z"/>
</svg>
