<?xml version="1.0" encoding="utf-8"?>
<!-- Generator: Adobe Illustrator 16.0.3, SVG Export Plug-In . SVG Version: 6.00 Build 0)  -->
<!DOCTYPE svg PUBLIC "-//W3C//DTD SVG 1.1//EN" "http://www.w3.org/Graphics/SVG/1.1/DTD/svg11.dtd">
<svg version="1.1" id="Snow_Ice_Problem_-_Recieved"
	 xmlns="http://www.w3.org/2000/svg" xmlns:xlink="http://www.w3.org/1999/xlink" x="0px" y="0px" width="34px" height="34px"
	 viewBox="0 0 34 34" enable-background="new 0 0 34 34" xml:space="preserve">
<circle fill="#FFFFFF" cx="17" cy="17" r="17"/>
<path fill="#BF6B04" d="M17.001,32c-8.271,0-15-6.732-15-15.002C2.001,8.73,8.73,2,17.001,2c8.271,0,15,6.73,15,14.998
	C32.001,25.268,25.272,32,17.001,32z"/>
<path fill="#F28705" d="M17.001,31C9.28,31,3,24.721,3,17S9.28,3,17.001,3C24.721,3,31,9.279,31,17S24.721,31,17.001,31z"/>
<path fill="#FFFFFF" d="M15.188,17.073l0.982,1.399h1.844l0.851-1.399l-0.901-1.496h-1.841L15.188,17.073z M15.941,28.344v-3.178
	L14.1,26.178l-0.941-0.525v-1.113l2.732-1.494v-2.084l-1.98,1.223v-2.207l-1.896,1.051v2.994l-1.034,0.615l-0.877-0.559v-2.001
	l-2.875,1.558L6,23.136v-1.261l3.017-1.586l-1.882-0.917v-1.158l1.067-0.559l2.707,1.529l1.881-1.046l-0.042-0.023l-1.926-1.063
	l1.867-1.11l-1.874-1.051l-2.707,1.534l-1.014-0.483V14.78l1.83-0.989L6,12.266v-1.259l1.122-0.561l2.884,1.604v-2.039l0.868-0.567
	l1.065,0.592l-0.009,3.051l1.939,1.058l-0.009-2.153l2.031,1.055v-2.084l-2.732-1.5V8.358l0.938-0.522l1.844,0.997V5.667L16.996,5
	l1.059,0.667v3.167l1.908-1.018l0.962,0.613v0.991L18.1,10.962v2.084l1.933-1.137v2.268l1.995-1.042V9.872l0.955-0.428l1.012,0.428
	v2.091l2.968-1.542L28,11.027v1.181l-2.899,1.58l1.813,0.976v1.13l-0.938,0.499l-2.777-1.583l-1.927,1.173l1.856,1.115l-1.911,1.059
	l1.981,1l2.777-1.492l0.898,0.602v1.079l-1.754,0.943l2.775,1.586v1.244l-1.165,0.516l-2.735-1.492v1.973l-0.979,0.529l-0.962-0.529
	v-2.998l-2.021-1.107v2.083L18.1,20.961v2.084l2.736,1.494v1.18l-0.941,0.459l-1.84-1.012v3.178L16.996,29L15.941,28.344z"/>
</svg>
