<?xml version="1.0" encoding="utf-8"?>
<!-- Generator: Adobe Illustrator 16.0.3, SVG Export Plug-In . SVG Version: 6.00 Build 0)  -->
<!DOCTYPE svg PUBLIC "-//W3C//DTD SVG 1.1//EN" "http://www.w3.org/Graphics/SVG/1.1/DTD/svg11.dtd">
<svg version="1.1" id="Incident__x28_Impacting_Traffic_x29_"
	 xmlns="http://www.w3.org/2000/svg" xmlns:xlink="http://www.w3.org/1999/xlink" x="0px" y="0px" width="32px" height="32px"
	 viewBox="0 0 32 32" enable-background="new 0 0 32 32" xml:space="preserve">
<circle fill="#FFFFFF" cx="16" cy="16" r="15"/>
<path fill="#C70101" d="M16.001,29c-7.168,0-13-5.835-13-13.002C3.001,8.833,8.833,3,16.001,3c7.169,0,13,5.833,13,12.998
	C29.001,23.165,23.17,29,16.001,29z"/>
<path fill="#FC3434" d="M16.001,28C9.383,28,4,22.619,4,16C4,9.383,9.383,4,16.001,4C22.618,4,28,9.383,28,16
	C28,22.619,22.618,28,16.001,28z"/>
<polygon fill="#FFFFFF" points="6.999,23 16,6 25,23 "/>
<g>
	<path fill="#FC3434" d="M15.037,16.369l-0.277-4.194c-0.051-0.816-0.078-1.403-0.078-1.759c0-0.487,0.123-0.864,0.379-1.134
		c0.25-0.273,0.585-0.41,1-0.41c0.499,0,0.835,0.176,1,0.521c0.172,0.35,0.257,0.848,0.257,1.503c0,0.384-0.018,0.778-0.064,1.176
		l-0.371,4.317c-0.041,0.512-0.131,0.905-0.263,1.18c-0.133,0.273-0.355,0.411-0.667,0.411c-0.314,0-0.532-0.13-0.654-0.399
		C15.177,17.318,15.092,16.911,15.037,16.369z M16.008,22.129c-0.356,0-0.667-0.111-0.93-0.342
		c-0.265-0.234-0.396-0.557-0.396-0.972c0-0.357,0.123-0.665,0.379-0.923c0.25-0.251,0.564-0.379,0.93-0.379
		c0.366,0,0.678,0.128,0.937,0.379c0.263,0.258,0.391,0.565,0.391,0.923c0,0.409-0.13,0.737-0.395,0.966
		C16.664,22.018,16.357,22.129,16.008,22.129z"/>
</g>
</svg>
