<?xml version="1.0" encoding="utf-8"?>
<!-- Generator: Adobe Illustrator 16.0.3, SVG Export Plug-In . SVG Version: 6.00 Build 0)  -->
<!DOCTYPE svg PUBLIC "-//W3C//DTD SVG 1.1//EN" "http://www.w3.org/Graphics/SVG/1.1/DTD/svg11.dtd">
<svg version="1.1" id="Infestation_Incident" xmlns="http://www.w3.org/2000/svg" xmlns:xlink="http://www.w3.org/1999/xlink"
	 x="0px" y="0px" width="44px" height="44px" viewBox="0 0 44 44" enable-background="new 0 0 44 44" xml:space="preserve">
<path opacity="0.75" fill="#FFFFFF" enable-background="new    " d="M38,16.5380859
	c0-1.1342773-0.1044922-2.2382813-0.3105469-3.3085938c-0.2080078-1.0708008-0.5205078-2.1113281-0.9462891-3.1186523
	c-0.4179688-1.0087891-0.9130859-1.949707-1.484375-2.8276367c-0.5693359-0.878418-1.2158203-1.6914063-1.9394531-2.4384766
	c-0.7265625-0.75-1.5146484-1.4179688-2.3623047-2.0087891c-0.8525391-0.5908203-1.765625-1.105957-2.7353516-1.5380859
	c-0.9775391-0.4335938-1.9853516-0.7578125-3.0205078-0.9736328C24.1630859,0.1074219,23.1005859,0,22.0019531,0
	c-1.097168,0-2.1635742,0.1074219-3.1992188,0.3242188c-1.0371094,0.2158203-2.0419922,0.5400391-3.0185547,0.9736328
	c-0.9755859,0.4321289-1.8886719,0.9472656-2.7368164,1.5380859c-0.8496094,0.5908203-1.637207,1.2587891-2.3598633,2.0087891
	C9.9628906,5.5917969,9.3144531,6.4047852,8.7446289,7.2832031C8.171875,8.1611328,7.6782227,9.1020508,7.2587891,10.1108398
	c-0.4194336,1.0073242-0.734375,2.0478516-0.9438477,3.1186523C6.1049805,14.2998047,6,15.4038086,6,16.5380859
	c0,1.1347656,0.1049805,2.2353516,0.3149414,3.3085938c0.2094727,1.0703125,0.5244141,2.1103516,0.9438477,3.1201172
	c0.3623047,0.8662109,0.777832,1.6894531,1.2529297,2.4619141c0.4760742,0.7724609,1.0073242,1.4951172,1.5952148,2.1738281
	h-0.0048828H10.097168l5.9487305,8.1982422L21.9936523,44l5.9370117-8.1845703l5.9296875-8.171875
	c0.5996094-0.6806641,1.1376953-1.4111328,1.6162109-2.1875c0.4775391-0.7822266,0.9052734-1.6132813,1.2666016-2.4892578
	c0.4257813-1.0097656,0.7382813-2.0498047,0.9462891-3.1201172C37.8955078,18.7734375,38,17.6728516,38,16.5380859z"/>
<path fill="#1873CD" d="M35.7255859,13.4384766c-0.1855469-0.9262695-0.4638672-1.8320313-0.8359375-2.6987305
	c-0.3642578-0.875-0.8095703-1.706543-1.3183594-2.4741211c-0.4980469-0.7568359-1.0722656-1.4663086-1.6982422-2.0996094
	c-0.6425781-0.6489258-1.3388672-1.2314453-2.0751953-1.7329102c-0.7441406-0.5092773-1.5556641-0.9580078-2.4013672-1.3291016
	c-0.8388672-0.3676758-1.71875-0.6459961-2.609375-0.8271484C23.8935547,2.0927734,22.9570313,2,22.0019531,2
	s-1.8925781,0.0927734-2.784668,0.2768555c-0.890625,0.1811523-1.7680664,0.4589844-2.6040039,0.824707
	c-0.8544922,0.3735352-1.6645508,0.8212891-2.4125977,1.3334961c-0.7348633,0.5009766-1.4277344,1.0810547-2.0644531,1.7275391
	c-0.6333008,0.6396484-1.206543,1.3481445-1.706543,2.105957c-0.4995117,0.7578125-0.9462891,1.5893555-1.3217773,2.4760742
	c-0.3657227,0.8642578-0.6459961,1.7705078-0.8295898,2.6972656C8.0927734,14.3701172,8,15.3427734,8,16.331543
	c0,0.9892578,0.0927734,1.9594727,0.2788086,2.8920898c0.1831055,0.9208984,0.4633789,1.828125,0.8291016,2.6982422
	c0.3227539,0.7636719,0.7001953,1.4873047,1.1162109,2.1542969c0.4189453,0.671875,0.8901367,1.3017578,1.402832,1.8779297
	l2.762207,3.7412109L21.9936523,40l10.2807617-13.9277344l0.0722656-0.0800781
	c0.515625-0.5800781,0.9951172-1.2177734,1.4160156-1.8867188c0.4316406-0.6943359,0.8095703-1.4238281,1.1328125-2.1875
	c0.3662109-0.8662109,0.6464844-1.7675781,0.8300781-2.6914063C35.90625,18.2880859,36,17.3134766,36,16.331543
	S35.90625,14.375,35.7255859,13.4384766z"/>
<path fill="#1F8FFF" d="M34.7363281,13.5405273c-0.1708984-0.8540039-0.4296875-1.6870117-0.7773438-2.4873047
	c-0.3466797-0.8120117-0.7607422-1.5834961-1.2333984-2.2949219c-0.4667969-0.6987305-0.9980469-1.3476563-1.5771484-1.9316406
	c-0.5986328-0.5966797-1.2490234-1.1337891-1.9335938-1.5942383c-0.6933594-0.46875-1.4433594-0.8833008-2.2353516-1.2246094
	c-0.7705078-0.3344727-1.5830078-0.5878906-2.4042969-0.7548828C23.75,3.0859375,22.8828125,3,21.9995117,3
	c-0.8847656,0-1.7519531,0.0859375-2.574707,0.2529297c-0.8217773,0.1669922-1.6274414,0.4194336-2.3959961,0.7514648
	c-0.7954102,0.3442383-1.5537109,0.7592773-2.2514648,1.2304688c-0.6801758,0.4589844-1.3251953,0.9931641-1.9160156,1.5883789
	c-0.5888672,0.5878906-1.1220703,1.2397461-1.5878906,1.9370117c-0.4697266,0.7026367-0.8852539,1.4750977-1.2387695,2.3022461
	c-0.3408203,0.7910156-0.6010742,1.6289063-0.7739258,2.4838867C9.0874023,14.409668,9,15.309082,9,16.2285156
	c0,0.9160156,0.0874023,1.8222656,0.2612305,2.6835938c0.1699219,0.8457031,0.4321289,1.6816406,0.7734375,2.484375
	c0.3051758,0.7167969,0.6577148,1.390625,1.0473633,2.0058594c0.3896484,0.6132813,0.8295898,1.1972656,1.3076172,1.734375
	l4.2021484,5.6210938L21.9916992,38l9.4516602-12.671875l0.1386719-0.1621094
	c0.4824219-0.53125,0.9267578-1.1152344,1.3154297-1.7382813c0.4072266-0.6367188,0.7617188-1.3222656,1.0654297-2.0351563
	c0.3457031-0.7988281,0.6044922-1.6328125,0.7734375-2.4726563C34.9111328,18.046875,35,17.140625,35,16.2285156
	C35,15.3129883,34.9111328,14.4106445,34.7363281,13.5405273z"/>
<polygon fill="#FFFFFF" points="34,16.9990234 22.0117188,29 10,16.9990234 22.0117188,5 "/>
<path id="ant-shape" fill="#1F8FFF" d="M16.5439453,12.121582c-0.1220703,0.1005859,0.8652344,1.3510742,0.9262695,1.4243164
	c0.8447266,1.0092773,1.6796875,1.0444336,1.7832031,1.1953125c0.1040039,0.1494141,0.6020508,0.6513672,1.4873047,0.7978516
	c0.003418,0.2304688,0.0166016,0.4482422,0.0400391,0.6547852c-0.5444336-0.1499023-1.1577148-0.2788086-1.5004883-0.2773438
	c-0.3618164-0.0014648-1.5854492,0.3408203-1.8046875,0.4433594C17.3984375,16.3959961,16,16.3603516,16,16.5126953
	c0,0.1547852,1.3925781,0.2109375,1.4501953,0.1328125c0.5048828,0.0810547,1.9370117-0.1806641,2.0893555-0.1542969
	c0.1523438,0.0292969,1.324707,0.3701172,1.3334961,0.3720703c0.0878906,0.4042969,0.2158203,0.6259766,0.3671875,0.8955078
	c-0.5825195-0.0166016-1.6279297,0.5595703-2.2114258,1.1435547c-0.484375,0.484375-1.2910156,1.2675781-1.4125977,1.4394531
	c-0.4555664,0.6435547-0.2514648,2.65625,0.0004883,2.65625c0.1982422,0-0.2763672-1.8017578,0.1791992-2.4453125
	c0.1313477-0.1855469,1.5986328-1.1875,1.7695313-1.3828125c0.1713867-0.1967773,1.0805664-0.4780273,1.4614258-0.762207
	c-0.3837891,0.2475586-0.6459961,0.6352539-0.6459961,1.168457c0,1.9814453,1.0336914,2.7792969,1.8095703,2.7890625
	c0,0,0.0009766,0.0019531,0.0029297,0.0019531c0.0014648,0,0.0029297,0,0.0048828,0c0.0014648,0,0.003418,0,0.0053711,0
	c0.0014648,0,0.003418,0,0.0048828,0c0.7758789-0.0097656,1.8041992-0.8095703,1.8041992-2.7871094
	c0.0009766-0.4970703-0.2285156-0.8706055-0.5693359-1.1191406c0.4140625,0.2646484,1.2265625,0.5249023,1.3867188,0.7089844
	c0.171875,0.1953125,1.6328125,1.1972656,1.7646484,1.3837891C27.0507813,21.1962891,26.5771484,23.0009766,26.7773438,23
	c0.25,0.0009766,0.4550781-2.0126953,0-2.65625c-0.1230469-0.171875-0.9287109-0.9550781-1.4121094-1.4379883
	c-0.5849609-0.5844727-1.6289063-1.1611328-2.2119141-1.1430664c0.1513672-0.2709961,0.2783203-0.4970703,0.3671875-0.902832
	c0.0078125-0.0004883,1.1806641-0.3364258,1.3330078-0.3642578c0.1533203-0.0288086,1.5849609,0.234375,2.0908203,0.152832
	c0.0566406,0.0786133,1.4501953,0.0209961,1.4492188-0.1323242c0.0009766-0.152832-1.4013672-0.1201172-1.4794922-0.1572266
	c-0.21875-0.1030273-1.4365234-0.4438477-1.7988281-0.4438477c-0.3427734,0.0004883-0.9609375,0.1293945-1.5048828,0.277832
	c0.0234375-0.2045898,0.0419922-0.4223633,0.0439453-0.652832c0.8857422-0.1489258,1.3847656-0.6494141,1.4863281-0.7988281
	c0.1054688-0.1494141,0.9404297-0.1850586,1.7851563-1.1962891c0.0605469-0.0722656,1.0478516-1.3232422,0.9248047-1.4228516
	c-0.1445313-0.1176758-1.0507813,1.0488281-1.0869141,1.1508789c-0.2451172,0.121582-1.4121094,0.8989258-1.5527344,0.9555664
	c-0.1416016,0.0546875-0.8525391,0.3085938-1.609375,0.7617188c-0.1152344-0.4433594-0.4072266-0.7431641-0.7636719-0.9023438
	c0.4921875-0.0009766,0.8515625-0.0976563,0.8515625-0.6411133c0-0.5942383-0.1132813-1.1425781-0.3066406-1.5805664
	c0.5273438-0.2744141,0.9072266-0.5673828,1.0214844-0.6088867c0.1152344-0.0424805,0.1582031-0.199707-0.0585938-0.5986328
	c-0.3574219-0.6533203-0.7441406-1.2197266-0.828125-1.1884766c-0.0839844,0.0332031,0.3076172,1.3061523,0.6425781,1.5800781
	c-0.3964844,0.0712891-0.65625,0.199707-0.9882813,0.4287109c-0.2617188-0.3945313-0.5957031-0.6318359-0.9658203-0.637207
	c-0.0014648-0.0009766-0.0024414-0.0029297-0.003418-0.0019531c-0.0029297,0-0.0068359-0.0009766-0.0107422-0.0014648
	c-0.3706055,0.0048828-0.7124023,0.2456055-0.9726563,0.640625c-0.331543-0.2280273-0.5908203-0.3603516-0.9868164-0.4311523
	c0.3349609-0.2729492,0.7285156-1.5449219,0.6445313-1.5771484c-0.0834961-0.03125-0.4726563,0.53125-0.8300781,1.1845703
	c-0.2182617,0.3984375-0.1704102,0.5600586-0.0556641,0.6010742c0.1147461,0.0424805,0.4960938,0.3354492,1.0214844,0.6083984
	c-0.1928711,0.4389648-0.3076172,0.987793-0.3076172,1.5830078c0,0.5410156,0.359375,0.6391602,0.8520508,0.6391602
	c-0.3564453,0.1601563-0.6489258,0.4609375-0.7646484,0.9018555c-0.7558594-0.4521484-1.4697266-0.7036133-1.6108398-0.7592773
	c-0.1416016-0.0556641-1.3071289-0.8383789-1.5527344-0.9599609C17.5942383,13.1679688,16.6899414,12.0029297,16.5439453,12.121582z
	"/>
</svg>
