<?xml version="1.0" encoding="utf-8"?>
<!-- Generator: Adobe Illustrator 16.0.3, SVG Export Plug-In . SVG Version: 6.00 Build 0)  -->
<!DOCTYPE svg PUBLIC "-//W3C//DTD SVG 1.1//EN" "http://www.w3.org/Graphics/SVG/1.1/DTD/svg11.dtd">
<svg version="1.1" id="Info_Center" xmlns="http://www.w3.org/2000/svg" xmlns:xlink="http://www.w3.org/1999/xlink" x="0px"
	 y="0px" width="32px" height="32px" viewBox="0 0 32 32" enable-background="new 0 0 32 32" xml:space="preserve">
<circle fill="#FFFFFF" cx="16" cy="16" r="15"/>
<path fill="#3366BE" d="M16,29C8.832,29,3,23.167,3,16S8.832,3,16,3c7.167,0,13,5.832,13,13S23.168,29,16,29z"/>
<path fill="#3672F5" d="M16,28C9.383,28,4,22.617,4,16C4,9.383,9.383,4,16,4c6.617,0,12,5.383,12,12C28,22.617,22.617,28,16,28z"/>
<path fill="#FFFFFF" d="M14.488,25.914c-4.977-0.854-0.949-6.564-0.949-6.564c4.147-6.72-1.226-5.124-1.226-5.124
	c4.727-4.324,6.054-0.537,6.054-0.537c0.988,1.154-2.724,9.006-2.724,9.006c-0.83,1.877,3,1.51,3,1.51
	C16.994,26.579,14.488,25.914,14.488,25.914z"/>
<ellipse fill="#FFFFFF" cx="16.566" cy="8.395" rx="2.435" ry="2.395"/>
</svg>
