<?xml version="1.0" encoding="utf-8"?>
<!-- Generator: Adobe Illustrator 16.0.3, SVG Export Plug-In . SVG Version: 6.00 Build 0)  -->
<!DOCTYPE svg PUBLIC "-//W3C//DTD SVG 1.1//EN" "http://www.w3.org/Graphics/SVG/1.1/DTD/svg11.dtd">
<svg version="1.1" id="Information" xmlns="http://www.w3.org/2000/svg" xmlns:xlink="http://www.w3.org/1999/xlink" x="0px"
	 y="0px" width="32px" height="32px" viewBox="0 0 32 32" enable-background="new 0 0 32 32" xml:space="preserve">
<circle fill="#FFFFFF" cx="16" cy="16" r="15"/>
<path fill="#424243" d="M16,29C8.832,29,3,23.167,3,16S8.832,3,16,3c7.167,0,13,5.832,13,13S23.168,29,16,29z"/>
<path fill="#58595B" d="M16,28C9.383,28,4,22.617,4,16C4,9.383,9.383,4,16,4c6.617,0,12,5.383,12,12C28,22.617,22.617,28,16,28z"/>
<path fill="#FFFFFF" d="M16.022,10c-0.557,0-1.033-0.174-1.429-0.524C14.198,9.126,14,8.632,14,7.993
	c0-0.579,0.203-1.056,0.608-1.431C15.013,6.187,15.484,6,16.022,6c0.518,0,0.977,0.17,1.377,0.509C17.8,6.85,18,7.343,18,7.993
	c0,0.629-0.195,1.122-0.586,1.476S16.559,10,16.022,10z"/>
<path fill="#FFFFFF" d="M18,13.955v9.952c0,0.689-0.19,1.212-0.571,1.564S16.564,26,15.978,26s-1.063-0.182-1.429-0.542
	C14.183,25.096,14,24.579,14,23.906v-9.851c0-0.681,0.183-1.193,0.549-1.539C14.916,12.173,15.392,12,15.978,12
	s1.07,0.173,1.451,0.517C17.81,12.862,18,13.342,18,13.955z"/>
</svg>
