<?xml version="1.0" encoding="utf-8"?>
<!-- Generator: Adobe Illustrator 16.0.3, SVG Export Plug-In . SVG Version: 6.00 Build 0)  -->
<!DOCTYPE svg PUBLIC "-//W3C//DTD SVG 1.1//EN" "http://www.w3.org/Graphics/SVG/1.1/DTD/svg11.dtd">
<svg version="1.1" id="Info_Kiosk" xmlns="http://www.w3.org/2000/svg" xmlns:xlink="http://www.w3.org/1999/xlink" x="0px" y="0px"
	 width="34px" height="34px" viewBox="0 0 34 34" enable-background="new 0 0 34 34" xml:space="preserve">
<circle fill="#FFFFFF" cx="17" cy="17" r="15"/>
<path fill="#3366BE" d="M17,30C9.832,30,4,24.167,4,17S9.832,4,17,4c7.167,0,13,5.832,13,13S24.168,30,17,30z"/>
<path fill="#3672F5" d="M17,29c-6.617,0-12-5.383-12-12c0-6.617,5.383-12,12-12c6.617,0,12,5.383,12,12C29,23.617,23.617,29,17,29z"
	/>
<path fill="#FFFFFF" d="M15.488,26.914c-4.977-0.854-0.949-6.564-0.949-6.564c4.147-6.72-1.226-5.124-1.226-5.124
	c4.727-4.324,6.054-0.537,6.054-0.537c0.988,1.154-2.724,9.006-2.724,9.006c-0.83,1.877,3,1.51,3,1.51
	C17.994,27.579,15.488,26.914,15.488,26.914z"/>
<ellipse fill="#FFFFFF" cx="17.566" cy="9.395" rx="2.435" ry="2.395"/>
</svg>
