<?xml version="1.0" encoding="utf-8"?>
<!-- Generator: Adobe Illustrator 16.0.3, SVG Export Plug-In . SVG Version: 6.00 Build 0)  -->
<!DOCTYPE svg PUBLIC "-//W3C//DTD SVG 1.1//EN" "http://www.w3.org/Graphics/SVG/1.1/DTD/svg11.dtd">
<svg version="1.1" id="Inlets" xmlns="http://www.w3.org/2000/svg" xmlns:xlink="http://www.w3.org/1999/xlink" x="0px" y="0px"
	 width="40px" height="40px" viewBox="0 0 40 40" enable-background="new 0 0 40 40" xml:space="preserve">
<path opacity="0.75" fill="#FFFFFF" enable-background="new    " d="M33.9707031,15.6689453
	c0-1.0039063-0.09375-1.9794922-0.2714844-2.9257813C33.5175781,11.7949219,33.2421875,10.875,32.875,9.984375
	c-0.3652344-0.8925781-0.796875-1.7255859-1.296875-2.5029297c-0.4980469-0.7763672-1.0625-1.4960938-1.6933594-2.1572266
	c-0.6367188-0.6611328-1.3242188-1.2548828-2.0644531-1.7753906C27.078125,3.0253906,26.28125,2.5703125,25.4335938,2.1865234
	c-0.8535156-0.3828125-1.734375-0.6689453-2.6386719-0.8603516c-0.90625-0.1914063-1.8359375-0.2861328-2.7939453-0.2861328
	c-0.9575195,0-1.8881836,0.0947266-2.7924805,0.2861328c-0.9057617,0.1914063-1.7836914,0.4775391-2.6357422,0.8603516
	c-0.8520508,0.3837891-1.6489258,0.8388672-2.390625,1.3623047c-0.7416992,0.5205078-1.4287109,1.1142578-2.0610352,1.7753906
	S8.9233398,6.7050781,8.4238281,7.4814453C7.9257813,8.2587891,7.4946289,9.0917969,7.1269531,9.984375
	C6.7607422,10.875,6.4873047,11.7949219,6.3037109,12.7431641c-0.1835938,0.9462891-0.2749023,1.921875-0.2749023,2.9257813
	c0,1.0019531,0.0913086,1.9775391,0.2749023,2.9257813s0.4570313,1.8671875,0.8232422,2.7607422
	c0.315918,0.7675781,0.6816406,1.4951172,1.0952148,2.1787109c0.4160156,0.6835938,0.8789063,1.3232422,1.3916016,1.9199219
	H9.6098633H9.6069336l5.1938477,7.2529297l5.1943359,7.2529297l5.1845703-7.2363281l5.1777344-7.2324219
	c0.5214844-0.6015625,0.9902344-1.2480469,1.4101563-1.9355469C32.1875,22.8642578,32.5566406,22.1298828,32.875,21.3554688
	c0.3671875-0.8935547,0.6425781-1.8125,0.8242188-2.7607422C33.8769531,17.6464844,33.9707031,16.6708984,33.9707031,15.6689453z"/>
<path fill="#262424" d="M31.7617188,13.2294922c-0.15625-0.8291016-0.3945313-1.6376953-0.7128906-2.4140625
	c-0.3164063-0.7822266-0.6953125-1.5263672-1.1308594-2.2128906c-0.4296875-0.6777344-0.9199219-1.3125-1.4550781-1.8789063
	C27.9121094,6.1416016,27.3125,5.6210938,26.6835938,5.1728516C26.0449219,4.7167969,25.3496094,4.3154297,24.625,3.9824219
	c-0.7207031-0.3271484-1.4746094-0.5761719-2.2382813-0.7392578c-0.765625-0.1640625-1.5683594-0.2470703-2.3852539-0.2470703
	c-0.8193359,0-1.6210938,0.0830078-2.3857422,0.2470703c-0.7636719,0.1630859-1.5146484,0.4111328-2.2314453,0.7382813
	c-0.7324219,0.3339844-1.4277344,0.7353516-2.0683594,1.1923828c-0.6298828,0.4482422-1.2246094,0.9677734-1.7695313,1.5458984
	c-0.5419922,0.5732422-1.0341797,1.2060547-1.4628906,1.8847656c-0.4287109,0.6767578-0.8105469,1.421875-1.1328125,2.2158203
	c-0.3144531,0.7724609-0.5537109,1.5839844-0.7109375,2.4130859c-0.1582031,0.8300781-0.2392578,1.7001953-0.2392578,2.5859375
	c0,0.8837891,0.0810547,1.7539063,0.2392578,2.5869141c0.1572266,0.8242188,0.3964844,1.6367188,0.7109375,2.4140625
	C9.2280273,21.5019531,9.550293,22.1523438,9.9077148,22.75c0.3583984,0.5976563,0.7626953,1.1621094,1.2021484,1.6796875
	l2.3681641,3.3476563l6.5175781,9.21875l8.8110352-12.4628906l0.0605469-0.0703125
	c0.4433594-0.5195313,0.8535156-1.0898438,1.2128906-1.6894531c0.3710938-0.6191406,0.6953125-1.2734375,0.9726563-1.9570313
	c0.3144531-0.7734375,0.5527344-1.5820313,0.7089844-2.4052734C31.9199219,17.5683594,32,16.6962891,32,15.8193359
	C32,14.9404297,31.9199219,14.0683594,31.7617188,13.2294922z"/>
<path fill="#424243" d="M30.7792969,13.3320313c-0.1445313-0.7558594-0.3632813-1.4951172-0.65625-2.203125
	c-0.2929688-0.7197266-0.6445313-1.4033203-1.046875-2.0341797c-0.3945313-0.6171875-0.84375-1.1933594-1.3339844-1.7089844
	c-0.5058594-0.5292969-1.0566406-1.0048828-1.6347656-1.4130859c-0.5878906-0.4160156-1.2246094-0.7822266-1.8925781-1.0859375
	C23.5605469,4.5908203,22.875,4.3671875,22.1796875,4.2197266C21.4804688,4.0712891,20.7480469,3.9960938,20,3.9960938
	c-0.7490234,0-1.4814453,0.0751953-2.1787109,0.2236328c-0.6943359,0.1474609-1.3769531,0.3710938-2.0273438,0.6650391
	c-0.6738281,0.3046875-1.3134766,0.671875-1.9042969,1.0898438c-0.5761719,0.40625-1.1220703,0.8798828-1.6220703,1.40625
	c-0.4980469,0.5214844-0.9492188,1.0996094-1.34375,1.7167969C10.5273438,9.7197266,10.1748047,10.4042969,9.875,11.1357422
	c-0.2880859,0.703125-0.5087891,1.4433594-0.6542969,2.2021484C9.0742188,14.1005859,9,14.8994141,9,15.7128906
	c0,0.8125,0.0742188,1.6113281,0.2207031,2.3769531c0.1445313,0.75,0.3652344,1.4921875,0.6542969,2.2011719
	c0.2587891,0.6328125,0.5576172,1.2304688,0.8867188,1.7753906s0.7021484,1.0605469,1.1064453,1.5361328l3.5556641,4.9785156
	l4.5703125,6.4150391l7.9980469-11.2226563l0.1171875-0.1435547c0.4082031-0.4726563,0.7832031-0.9902344,1.1152344-1.5390625
	c0.3417969-0.5654297,0.6445313-1.171875,0.9023438-1.8046875c0.2910156-0.7050781,0.5097656-1.4423828,0.6523438-2.1904297
	C30.9257813,17.3222656,31,16.5205078,31,15.7128906C31,14.9023438,30.9257813,14.1015625,30.7792969,13.3320313z"/>
<rect x="13.0004883" y="8" fill="#FFFFFF" width="13.9995117" height="15"/>
<rect x="15.0004883" y="10" fill="#424243" width="9.9995117" height="11"/>
<rect x="16.0004883" y="11" fill="#FFFFFF" width="7.9995117" height="9"/>
<rect x="17" y="12" fill="#424243" width="6" height="7"/>
<rect x="17" y="14" fill="#FFFFFF" width="6" height="1"/>
<rect x="17.0004883" y="16" fill="#FFFFFF" width="5.9995117" height="1"/>
</svg>
