<?xml version="1.0" encoding="utf-8"?>
<!-- Generator: Adobe Illustrator 16.0.3, SVG Export Plug-In . SVG Version: 6.00 Build 0)  -->
<!DOCTYPE svg PUBLIC "-//W3C//DTD SVG 1.1//EN" "http://www.w3.org/Graphics/SVG/1.1/DTD/svg11.dtd">
<svg version="1.1" id="Intentional" xmlns="http://www.w3.org/2000/svg" xmlns:xlink="http://www.w3.org/1999/xlink" x="0px"
	 y="0px" width="24px" height="24px" viewBox="0 0 24 24" enable-background="new 0 0 24 24" xml:space="preserve">
<circle fill="#FF0000" cx="12" cy="12" r="12"/>
<path fill="#FFFFFF" d="M11.9995117,23.0009766c-6.065918,0-10.9985352-4.9365234-10.9985352-11.0014648
	c0-6.0664063,4.9326172-10.9985352,10.9985352-10.9985352s11.0014648,4.9321289,11.0014648,10.9985352
	C23.0009766,18.0644531,18.0654297,23.0009766,11.9995117,23.0009766z"/>
<g>
	<path fill="#FF0000" d="M9.4619141,15.5683594c0.4501953-0.3310547,1.0932617-0.2441406,1.4326172,0.1982422
		c0.340332,0.4423828,0.2470703,1.0664063-0.2060547,1.3964844c-0.4516602,0.3330078-1.0952148,0.2421875-1.4321289-0.1982422
		C8.9165039,16.5234375,9.0083008,15.8945313,9.4619141,15.5683594z"/>
	<path fill="#FF0000" d="M10.5083008,14.8056641c0.3100586-0.2294922,1.2602539-0.3027344,1.2602539-0.3027344l0.6166992,0.7988281
		c0,0-0.3354492,0.8681641-0.6484375,1.0986328c-0.2758789,0.2011719-1.0483398,0.7626953-1.0483398,0.7626953l-1.2265625-1.5947266
		C9.4619141,15.5683594,10.2348633,15.0039063,10.5083008,14.8056641z"/>
</g>
<polygon fill="#FF0000" points="20.3837891,8.2172852 21,9.015625 12.1557617,15.4667969 11.5429688,14.6699219 "/>
<path fill="#FF0000" d="M9.2197266,17.3613281c-1.3632813-1.3291016-0.2495117-3.15625,1.4956055-5.5136719
	C12.4555664,9.4912109,11.8334961,5.6689453,7.2939453,5c0.559082,1.0327148,1.6821289,2.7890625-2.0385742,5.7568359
	c-1.6748047,1.5078125-1.5024414,3.2783203-0.4858398,4.6103516C5.6708984,16.5498047,7.8564453,17.1962891,9.2197266,17.3613281z"
	/>
</svg>
