<?xml version="1.0" encoding="utf-8"?>
<!-- Generator: Adobe Illustrator 16.0.3, SVG Export Plug-In . SVG Version: 6.00 Build 0)  -->
<!DOCTYPE svg PUBLIC "-//W3C//DTD SVG 1.1//EN" "http://www.w3.org/Graphics/SVG/1.1/DTD/svg11.dtd">
<svg version="1.1" id="Joint_Use_Survey_-_Joint_Use_Survey_-_Unassigned"
	 xmlns="http://www.w3.org/2000/svg" xmlns:xlink="http://www.w3.org/1999/xlink" x="0px" y="0px" width="32px" height="32px"
	 viewBox="0 0 32 32" enable-background="new 0 0 32 32" xml:space="preserve">
<path opacity="0.75" fill="#FFFFFF" d="M16,31C7.7294922,31,1,24.2714844,1,16C1,7.7294922,7.7294922,1,16,1
	c8.2714844,0,15,6.7294922,15,15C31,24.2714844,24.2714844,31,16,31z"/>
<circle fill="#58595B" cx="16" cy="16" r="13"/>
<path fill="#6D6E70" d="M16,28C9.3833008,28,4,22.6171875,4,16C4,9.3833008,9.3833008,4,16,4c6.6171875,0,12,5.3833008,12,12
	C28,22.6171875,22.6171875,28,16,28z"/>
<g>
	<path fill="#FFFFFF" d="M9,11.5224609c0-0.8378906,0.284668-1.6850586,0.8540039-2.543457
		c0.5693359-0.8588867,1.3999023-1.5698242,2.4926758-2.1337891C13.4379883,6.2822266,14.7119141,6,16.1679688,6
		c1.3525391,0,2.5478516,0.2358398,3.5839844,0.7075195c1.0361328,0.4702148,1.8359375,1.1113281,2.4013672,1.9208984
		C22.7177734,9.4389648,23,10.3198242,23,11.2705078c0,0.7490234-0.1611328,1.4042969-0.4824219,1.9692383
		c-0.3232422,0.5629883-0.7060547,1.0493164-1.1484375,1.4584961c-0.4433594,0.4101563-1.2392578,1.0991211-2.3867188,2.0683594
		c-0.3173828,0.2724609-0.5712891,0.5126953-0.7636719,0.7197266c-0.1904297,0.2070313-0.3339844,0.3964844-0.4267578,0.5673828
		c-0.0927734,0.1728516-0.1650391,0.34375-0.2177734,0.515625c-0.0488281,0.1708984-0.1279297,0.4736328-0.2304688,0.9052734
		c-0.1777344,0.9160156-0.7324219,1.3740234-1.6660156,1.3740234c-0.4853516,0-0.8935547-0.1513672-1.2250977-0.4501953
		c-0.3310547-0.2988281-0.496582-0.7441406-0.496582-1.3339844c0-0.7392578,0.1210938-1.3798828,0.3642578-1.921875
		c0.2421875-0.5415039,0.5644531-1.0170898,0.9658203-1.4262695c0.4013672-0.409668,0.9433594-0.8964844,1.6240234-1.4599609
		c0.5976563-0.4931641,1.0283203-0.8652344,1.2958984-1.1162109c0.2646484-0.2509766,0.4882813-0.5307617,0.6708984-0.8393555
		c0.1816406-0.3076172,0.2734375-0.6425781,0.2734375-1.0039063c0-0.7041016-0.2783203-1.2988281-0.8320313-1.7832031
		c-0.5576172-0.4838867-1.2734375-0.7265625-2.1503906-0.7265625c-1.0263672,0-1.7827148,0.2451172-2.2680664,0.7333984
		c-0.4853516,0.4887695-0.8959961,1.2089844-1.2319336,2.159668c-0.3173828,0.9946289-0.9194336,1.4931641-1.8056641,1.4931641
		c-0.5229492,0-0.9638672-0.1743164-1.3232422-0.5219727S9,11.9272461,9,11.5224609z M15.8320313,26
		c-0.5693359,0-1.0654297-0.1738281-1.4907227-0.5224609c-0.4248047-0.3476563-0.637207-0.8339844-0.637207-1.4589844
		c0-0.5546875,0.2050781-1.0195313,0.6162109-1.4003906c0.4106445-0.3789063,0.9145508-0.5673828,1.5117188-0.5673828
		c0.5888672,0,1.0825195,0.1884766,1.4833984,0.5673828c0.4013672,0.3808594,0.6025391,0.8457031,0.6025391,1.4003906
		c0,0.6171875-0.2099609,1.1005859-0.6298828,1.4541016C16.8681641,25.8242188,16.3828125,26,15.8320313,26z"/>
</g>
</svg>
