<?xml version="1.0" encoding="utf-8"?>
<!-- Generator: Adobe Illustrator 16.0.3, SVG Export Plug-In . SVG Version: 6.00 Build 0)  -->
<!DOCTYPE svg PUBLIC "-//W3C//DTD SVG 1.1//EN" "http://www.w3.org/Graphics/SVG/1.1/DTD/svg11.dtd">
<svg version="1.1" id="Laser_Light" xmlns="http://www.w3.org/2000/svg" xmlns:xlink="http://www.w3.org/1999/xlink" x="0px"
	 y="0px" width="34px" height="34px" viewBox="0 0 34 34" enable-background="new 0 0 34 34" xml:space="preserve">
<circle fill="#FFFFFF" cx="17" cy="17" r="15"/>
<path fill="#BF9004" d="M17,30C9.832,30,4,24.167,4,17S9.832,4,17,4c7.167,0,13,5.832,13,13S24.168,30,17,30z"/>
<path fill="#F3B705" d="M17,29c-6.617,0-12-5.383-12-12c0-6.617,5.383-12,12-12c6.617,0,12,5.383,12,12C29,23.617,23.617,29,17,29z"
	/>
<path fill="#FFFFFF" d="M28,17.688h-3.685c-0.172,1.48-0.713,2.827-1.635,3.942l2.598,2.643l-1.006,1.006l-2.643-2.598
	c-1.144,0.922-2.492,1.463-3.942,1.635V28h-1.375v-3.685c-1.48-0.172-2.827-0.713-3.943-1.635L9.73,25.278l-1.007-1.006l2.6-2.643
	c-0.924-1.115-1.468-2.462-1.634-3.942H6v-1.375h3.689c0.166-1.454,0.71-2.798,1.634-3.943l-2.6-2.639L9.73,8.723l2.639,2.6
	c1.117-0.924,2.463-1.468,3.943-1.634V6h1.375v3.689c1.45,0.166,2.799,0.71,3.942,1.634l2.643-2.6l1.006,1.007l-2.598,2.639
	c0.922,1.145,1.463,2.49,1.635,3.943H28V17.688z"/>
</svg>
