<?xml version="1.0" encoding="utf-8"?>
<!-- Generator: Adobe Illustrator 16.0.3, SVG Export Plug-In . SVG Version: 6.00 Build 0)  -->
<!DOCTYPE svg PUBLIC "-//W3C//DTD SVG 1.1//EN" "http://www.w3.org/Graphics/SVG/1.1/DTD/svg11.dtd">
<svg version="1.1" id="Law_Enforcement_and_Security"
	 xmlns="http://www.w3.org/2000/svg" xmlns:xlink="http://www.w3.org/1999/xlink" x="0px" y="0px" width="40px" height="40px"
	 viewBox="0 0 40 40" enable-background="new 0 0 40 40" xml:space="preserve">
<path opacity="0.75" fill="#FFFFFF" d="M33.9707031,15.7094727c0-1.0039063-0.09375-1.9799805-0.2724609-2.9262695
	c-0.1806641-0.9482422-0.4560547-1.8676758-0.8242188-2.7587891c-0.3652344-0.8920898-0.796875-1.7255859-1.2958984-2.5024414
	s-1.0625-1.496582-1.6943359-2.1577148c-0.6357422-0.6611328-1.3232422-1.2543945-2.0634766-1.7753906
	c-0.7431641-0.5229492-1.5400391-0.9780273-2.3876953-1.3618164c-0.8535156-0.3828125-1.7333984-0.6689453-2.6376953-0.8608398
	c-0.90625-0.1914063-1.8364258-0.2856445-2.7944336-0.2856445c-0.9575195,0-1.8881836,0.0942383-2.7924805,0.2856445
	c-0.9057617,0.1918945-1.7836914,0.4780273-2.6357422,0.8608398c-0.8520508,0.3837891-1.6489258,0.8388672-2.390625,1.3618164
	c-0.7416992,0.5209961-1.4287109,1.1142578-2.0610352,1.7753906S8.9228516,6.7451172,8.4233398,7.5219727
	c-0.4980469,0.7768555-0.9291992,1.6103516-1.296875,2.5024414c-0.3662109,0.8911133-0.6396484,1.8105469-0.8232422,2.7587891
	c-0.1835938,0.9462891-0.2749023,1.9223633-0.2749023,2.9262695c0,1.0014648,0.0913086,1.9775391,0.2749023,2.9257813
	s0.4570313,1.8666992,0.8232422,2.7602539c0.315918,0.7675781,0.6816406,1.4951172,1.0952148,2.1787109
	c0.4160156,0.6835938,0.8789063,1.3232422,1.3916016,1.9199219H9.609375H9.6064453l5.1938477,7.2529297L19.9946289,40
	l5.1850586-7.2363281l5.1767578-7.2324219c0.5214844-0.6015625,0.9912109-1.2480469,1.4101563-1.9355469
	c0.4199219-0.6914063,0.7900391-1.4257813,1.1074219-2.2001953c0.3681641-0.8935547,0.6435547-1.8120117,0.8242188-2.7602539
	C33.8769531,17.6870117,33.9707031,16.7109375,33.9707031,15.7094727z"/>
<path fill="#253659" d="M31.7617188,13.2695313c-0.15625-0.8286133-0.3945313-1.637207-0.7128906-2.4140625
	c-0.3164063-0.7822266-0.6953125-1.5258789-1.1308594-2.2128906c-0.4296875-0.6777344-0.9199219-1.3120117-1.4550781-1.8789063
	c-0.5507813-0.581543-1.1503906-1.1025391-1.7792969-1.5507813C26.0449219,4.7573242,25.3496094,4.355957,24.625,4.0229492
	c-0.7207031-0.3276367-1.4746094-0.5761719-2.2382813-0.7397461c-0.765625-0.1640625-1.5683594-0.2470703-2.3857422-0.2470703
	c-0.8193359,0-1.6210938,0.0830078-2.3857422,0.2470703c-0.7636719,0.1635742-1.5146484,0.4116211-2.2314453,0.7382813
	c-0.7324219,0.3344727-1.4277344,0.7353516-2.0683594,1.1928711c-0.6298828,0.4482422-1.2246094,0.9672852-1.7695313,1.5458984
	c-0.5419922,0.5727539-1.0341797,1.2060547-1.4628906,1.8842773c-0.4287109,0.6767578-0.8105469,1.4223633-1.1328125,2.2158203
	c-0.3144531,0.7729492-0.5537109,1.5844727-0.7109375,2.4130859C8.0810547,14.1040039,8,14.9736328,8,15.859375
	c0,0.8842773,0.0810547,1.7539063,0.2392578,2.5869141c0.1572266,0.8242188,0.3964844,1.6367188,0.7109375,2.4140625
	c0.2773438,0.6816406,0.5996094,1.3320313,0.9570313,1.9296875c0.3583984,0.5976563,0.7626953,1.1621094,1.2021484,1.6796875
	l2.3681641,3.3476563l6.5175781,9.21875l8.8115234-12.4628906l0.0605469-0.0703125
	c0.4433594-0.5195313,0.8535156-1.0898438,1.2128906-1.6894531c0.3710938-0.6191406,0.6953125-1.2734375,0.9726563-1.9570313
	c0.3144531-0.7734375,0.5527344-1.5820313,0.7089844-2.4052734C31.9199219,17.6083984,32,16.7368164,32,15.859375
	C32,14.9804688,31.9199219,14.1083984,31.7617188,13.2695313z"/>
<path fill="#4564A5" d="M30.7792969,13.3720703c-0.1445313-0.7553711-0.3632813-1.4946289-0.65625-2.203125
	c-0.2929688-0.7197266-0.6445313-1.4033203-1.046875-2.0336914c-0.3945313-0.6176758-0.84375-1.1938477-1.3339844-1.7094727
	c-0.5058594-0.5292969-1.0566406-1.0048828-1.6347656-1.4130859c-0.5878906-0.4155273-1.2246094-0.7822266-1.8925781-1.0854492
	C23.5605469,4.6313477,22.875,4.4077148,22.1796875,4.2597656c-0.6992188-0.1479492-1.4321289-0.2236328-2.1801758-0.2236328
	c-0.7490234,0-1.4814453,0.0756836-2.1787109,0.2236328c-0.6943359,0.1479492-1.3769531,0.3710938-2.0273438,0.6650391
	c-0.6738281,0.3051758-1.3134766,0.6723633-1.9042969,1.0898438c-0.5761719,0.4067383-1.1220703,0.8803711-1.6220703,1.4067383
	c-0.4980469,0.5214844-0.9492188,1.0991211-1.34375,1.7167969c-0.3964844,0.621582-0.7490234,1.3061523-1.0488281,2.0380859
	c-0.2880859,0.7026367-0.5087891,1.4433594-0.6542969,2.2016602c-0.1464844,0.7626953-0.2207031,1.5615234-0.2207031,2.375
	c0,0.8125,0.0742188,1.6118164,0.2207031,2.3769531c0.1445313,0.75,0.3652344,1.4921875,0.6542969,2.2011719
	c0.2587891,0.6328125,0.5576172,1.2304688,0.8867188,1.7753906s0.7021484,1.0605469,1.1064453,1.5361328l3.5556641,4.9785156
	l4.5703125,6.4150391l7.9985352-11.2226563l0.1171875-0.1435547c0.4082031-0.4726563,0.7832031-0.9902344,1.1152344-1.5390625
	c0.3417969-0.5654297,0.6445313-1.171875,0.9023438-1.8046875c0.2910156-0.7050781,0.5097656-1.4423828,0.6523438-2.1904297
	C30.9257813,17.362793,31,16.5610352,31,15.7529297C31,14.9428711,30.9257813,14.1420898,30.7792969,13.3720703z"/>
<path fill="#FFFFFF" d="M26.8476563,14.1069336c-0.0507813,0.5654297,0.1035156,1.3535156,0.4609375,2.3657227
	c0.3769531,1.0449219,0.5820313,1.809082,0.6171875,2.2885742c0.015625,1.0625-0.2910156,2.0141602-0.9238281,2.8540039
	c-0.4960938,0.5996094-1.2744141,1.2685547-2.3330078,2.0058594c-0.2910156,0.1884766-0.7539063,0.3945313-1.3847656,0.6171875
	c-0.3242188,0.1201172-0.5996094,0.2236328-0.8203125,0.3095703c-0.2226563,0.0849609-0.4033203,0.1621094-0.5400391,0.2314453
	c-0.0839844,0.0341797-0.2207031,0.0927734-0.4101563,0.1787109c-0.1875,0.0869141-0.4179688,0.1894531-0.6918945,0.3095703
	c-0.3935547,0.2216797-0.6835938,0.4794922-0.8701172,0.7705078c-0.1552734-0.2734375-0.4365234-0.5302734-0.8466797-0.7705078
	c-0.1889648-0.0859375-0.3686523-0.1679688-0.5385742-0.2441406c-0.171875-0.078125-0.3505859-0.1591797-0.5390625-0.2441406
	c-0.6494141-0.171875-1.5727539-0.5576172-2.7680664-1.1582031c-1.0952148-0.7373047-1.8813477-1.4150391-2.3588867-2.03125
	C12.284668,20.75,11.9848633,19.8061523,12.0024414,18.7612305c0.0166016-0.2392578,0.0722656-0.5566406,0.1669922-0.9516602
	c0.0927734-0.3945313,0.234375-0.8662109,0.4223633-1.4140625c0.359375-0.9770508,0.5214844-1.7407227,0.4882813-2.2885742
	c-0.0693359-1.199707-0.4199219-2.3486328-1.0522461-3.4458008l2.5639648-2.5200195
	c0.7866211,0.6005859,1.6665039,0.9428711,2.6416016,1.0288086c0.9384766,0.0678711,1.8461914-0.1113281,2.7182617-0.5405273
	c0.8525391,0.4458008,1.7592773,0.6259766,2.7172852,0.5405273c1.0410156-0.0688477,1.9648438-0.4462891,2.7675781-1.1313477
	l2.5654297,2.5200195C27.3339844,11.6376953,26.9511719,12.8203125,26.8476563,14.1069336z"/>
<path fill="#4564A5" d="M25.9160156,19.4384766c0,0.2016602-0.0703125,0.3676758-0.2109375,0.4990234
	c-0.1425781,0.1308594-0.3164063,0.1962891-0.5273438,0.1962891c-0.2089844,0-0.3847656-0.0654297-0.5273438-0.1962891
	c-0.1386719-0.1313477-0.2109375-0.2973633-0.2109375-0.4990234H21.6875l-1.3671875,2.2822266
	c0.2407227,0.1318359,0.3613281,0.3378906,0.3613281,0.6201172c0,0.1914063-0.0703125,0.3554688-0.2124023,0.4912109
	c-0.1416016,0.1367188-0.3120117,0.2041016-0.5107422,0.2041016c-0.2094727,0-0.3852539-0.0673828-0.5268555-0.2041016
	c-0.1411133-0.1357422-0.2119141-0.2998047-0.2119141-0.4912109c0-0.2822266,0.1206055-0.4882813,0.3618164-0.6201172
	l-1.3681641-2.2822266h-2.7509766c0,0.2016602-0.0712891,0.3676758-0.2124023,0.4990234
	c-0.1416016,0.1308594-0.3173828,0.1962891-0.5268555,0.1962891c-0.1987305,0-0.3691406-0.0654297-0.5107422-0.1962891
	C14.0708008,19.8061523,14,19.6401367,14,19.4384766c0-0.2011719,0.0708008-0.3701172,0.2124023-0.5068359
	c0.1416016-0.1357422,0.3120117-0.2036133,0.5107422-0.2036133c0.1469727,0,0.2724609,0.0351563,0.3774414,0.105957
	l1.3676758-2.2978516l-1.3676758-2.2978516c-0.1049805,0.0708008-0.2304688,0.105957-0.3774414,0.105957
	c-0.1987305,0-0.3691406-0.0678711-0.5107422-0.2036133C14.0708008,14.0039063,14,13.8349609,14,13.6337891
	c0-0.2016602,0.0708008-0.3676758,0.2124023-0.4990234c0.1416016-0.1303711,0.3120117-0.1962891,0.5107422-0.1962891
	c0.2094727,0,0.3852539,0.065918,0.5268555,0.1962891c0.1411133,0.1313477,0.2124023,0.2973633,0.2124023,0.4990234h2.7509766
	l1.3681641-2.2827148c-0.2412109-0.1303711-0.3618164-0.3374023-0.3618164-0.6191406
	c0-0.1918945,0.0708008-0.3554688,0.2119141-0.4916992c0.1416016-0.1357422,0.3173828-0.2041016,0.5268555-0.2041016
	c0.1987305,0,0.3691406,0.0683594,0.5107422,0.2041016c0.1420898,0.1362305,0.2124023,0.2998047,0.2124023,0.4916992
	c0,0.2817383-0.1206055,0.4887695-0.3613281,0.6191406L21.6875,13.6337891h2.7519531
	c0-0.2016602,0.0722656-0.3676758,0.2109375-0.4990234c0.1425781-0.1303711,0.3183594-0.1962891,0.5273438-0.1962891
	c0.2109375,0,0.3847656,0.065918,0.5273438,0.1962891c0.140625,0.1313477,0.2109375,0.2973633,0.2109375,0.4990234
	c0,0.2011719-0.0703125,0.3701172-0.2109375,0.5068359c-0.1425781,0.1357422-0.3164063,0.2036133-0.5273438,0.2036133
	c-0.15625,0-0.2773438-0.0351563-0.3613281-0.105957l-1.3828125,2.2978516l1.3828125,2.2978516
	c0.0839844-0.0708008,0.2050781-0.105957,0.3613281-0.105957c0.2109375,0,0.3847656,0.0678711,0.5273438,0.2036133
	C25.8457031,19.0683594,25.9160156,19.2373047,25.9160156,19.4384766z"/>
</svg>
