<?xml version="1.0" encoding="utf-8"?>
<!-- Generator: Adobe Illustrator 16.0.3, SVG Export Plug-In . SVG Version: 6.00 Build 0)  -->
<!DOCTYPE svg PUBLIC "-//W3C//DTD SVG 1.1//EN" "http://www.w3.org/Graphics/SVG/1.1/DTD/svg11.dtd">
<svg version="1.1" id="Leak_Severity_-_Major" xmlns="http://www.w3.org/2000/svg" xmlns:xlink="http://www.w3.org/1999/xlink"
	 x="0px" y="0px" width="40px" height="40px" viewBox="0 0 40 40" enable-background="new 0 0 40 40" xml:space="preserve">
<path opacity="0.75" fill="#FFFFFF" d="M34,15.6635742c0-1.0063477-0.0947266-1.984375-0.2734375-2.9326172
	c-0.1806641-0.9501953-0.4570313-1.871582-0.8261719-2.7646484c-0.3662109-0.8935547-0.7988281-1.7290039-1.2988281-2.5073242
	s-1.0644531-1.5-1.6972656-2.1621094c-0.6367188-0.6625977-1.3261719-1.2573242-2.0673828-1.7792969
	c-0.7451172-0.5239258-1.5439453-0.9799805-2.3935547-1.3647461c-0.8544922-0.3833008-1.7363281-0.6699219-2.6425781-0.8623047
	c-0.9082031-0.1918945-1.840332-0.2861328-2.800293-0.2861328c-0.9594727,0-1.8920898,0.0942383-2.7983398,0.2861328
	c-0.9077148,0.1923828-1.7871094,0.4790039-2.6411133,0.8623047c-0.8540039,0.3847656-1.6523438,0.8408203-2.3955078,1.3647461
	c-0.7431641,0.5219727-1.4316406,1.1166992-2.0654297,1.7792969C9.4667969,5.9589844,8.8999023,6.6806641,8.3994141,7.4589844
	C7.9003906,8.2373047,7.4682617,9.0727539,7.1000977,9.9663086c-0.3671875,0.8930664-0.6411133,1.8144531-0.8251953,2.7646484
	c-0.184082,0.9482422-0.2753906,1.9262695-0.2753906,2.9326172c0,1.003418,0.0913086,1.9814453,0.2753906,2.9316406
	s0.4580078,1.8706055,0.8251953,2.7661133c0.3164063,0.7685547,0.6831055,1.4980469,1.097168,2.1826172
	c0.4169922,0.6855469,0.8808594,1.3261719,1.3945313,1.9248047H9.5878906H9.5849609l5.2045898,7.2675781l5.2050781,7.2675781
	l5.1958008-7.2509766l5.1875-7.2470703c0.5224609-0.6035156,0.9931641-1.2509766,1.4130859-1.9404297
	c0.4208984-0.6923828,0.7919922-1.4287109,1.109375-2.2041016c0.3691406-0.8955078,0.6455078-1.815918,0.8261719-2.7661133
	C33.9052734,17.6450195,34,16.6669922,34,15.6635742z"/>
<path fill="#CC8936" d="M31.7617188,13.2333984c-0.15625-0.8286133-0.3945313-1.637207-0.7128906-2.4140625
	c-0.3164063-0.7822266-0.6953125-1.5258789-1.1308594-2.2128906c-0.4296875-0.6777344-0.9199219-1.3120117-1.4550781-1.8789063
	C27.9121094,6.1459961,27.3125,5.625,26.6835938,5.1767578C26.0449219,4.7211914,25.3496094,4.3198242,24.625,3.9868164
	c-0.7207031-0.3276367-1.4746094-0.5761719-2.2382813-0.7397461C21.6210938,3.0830078,20.8183594,3,20.0009766,3
	c-0.8193359,0-1.6210938,0.0830078-2.3857422,0.2470703c-0.7636719,0.1635742-1.5146484,0.4116211-2.2314453,0.7382813
	c-0.7324219,0.3344727-1.4277344,0.7353516-2.0683594,1.1928711c-0.6298828,0.4482422-1.2246094,0.9672852-1.7695313,1.5458984
	c-0.5419922,0.5727539-1.0341797,1.2060547-1.4628906,1.8842773c-0.4287109,0.6767578-0.8105469,1.4223633-1.1328125,2.2158203
	c-0.3144531,0.7729492-0.5537109,1.5844727-0.7109375,2.4130859C8.0810547,14.0678711,8,14.9375,8,15.8232422
	c0,0.8842773,0.0810547,1.7539063,0.2392578,2.5869141c0.1572266,0.8242188,0.3964844,1.6367188,0.7109375,2.4140625
	c0.2773438,0.6816406,0.5996094,1.3320313,0.9570313,1.9296875c0.3583984,0.5976563,0.7626953,1.1621094,1.2021484,1.6796875
	l2.3681641,3.3476563L19.9951172,37l8.8115234-12.4628906l0.0605469-0.0703125
	c0.4433594-0.5195313,0.8535156-1.0898438,1.2128906-1.6894531c0.3710938-0.6191406,0.6953125-1.2734375,0.9726563-1.9570313
	c0.3144531-0.7734375,0.5527344-1.5820313,0.7089844-2.4052734C31.9199219,17.5722656,32,16.7006836,32,15.8232422
	C32,14.9443359,31.9199219,14.0722656,31.7617188,13.2333984z"/>
<path fill="#F28705" d="M30.7792969,13.3359375c-0.1445313-0.7553711-0.3632813-1.4946289-0.65625-2.203125
	c-0.2929688-0.7197266-0.6445313-1.4033203-1.046875-2.0336914c-0.3945313-0.6176758-0.84375-1.1938477-1.3339844-1.7094727
	c-0.5058594-0.5292969-1.0566406-1.0048828-1.6347656-1.4130859c-0.5878906-0.4155273-1.2246094-0.7822266-1.8925781-1.0854492
	C23.5605469,4.5952148,22.875,4.371582,22.1796875,4.2236328C21.4804688,4.0756836,20.7480469,4,20,4
	c-0.7490234,0-1.4814453,0.0756836-2.1787109,0.2236328c-0.6943359,0.1479492-1.3769531,0.3710938-2.0273438,0.6650391
	c-0.6738281,0.3051758-1.3134766,0.6723633-1.9042969,1.0898438c-0.5761719,0.4067383-1.1220703,0.8803711-1.6220703,1.4067383
	c-0.4980469,0.5214844-0.9492188,1.0991211-1.34375,1.7167969c-0.3964844,0.621582-0.7490234,1.3061523-1.0488281,2.0380859
	c-0.2880859,0.7026367-0.5087891,1.4433594-0.6542969,2.2016602C9.0742188,14.1044922,9,14.9033203,9,15.7167969
	c0,0.8125,0.0742188,1.6118164,0.2207031,2.3769531c0.1445313,0.75,0.3652344,1.4921875,0.6542969,2.2011719
	c0.2587891,0.6328125,0.5576172,1.2304688,0.8867188,1.7753906s0.7021484,1.0605469,1.1064453,1.5361328l3.5556641,4.9785156
	L19.9941406,35l7.9980469-11.2226563l0.1171875-0.1435547c0.4082031-0.4726563,0.7832031-0.9902344,1.1152344-1.5390625
	c0.3417969-0.5654297,0.6445313-1.171875,0.9023438-1.8046875c0.2910156-0.7050781,0.5097656-1.4423828,0.6523438-2.1904297
	C30.9257813,17.3266602,31,16.5249023,31,15.7167969C31,14.9067383,30.9257813,14.105957,30.7792969,13.3359375z"/>
<path fill="#FFFFFF" d="M24,7c-1.0058594,0-1.1474609,0-2.8740234,0c-1.0830078,0-2.1938477,0-3.25,0
	C16.2504883,7,16.8637695,7,16,7c0,0-2,0-2,2.5s2,2.5,2,2.5h3v-1h-1v-1h1V9h-1V8h3v1h1v1h-1v1h1v1h2c0,0,2,0,2-2.5
	S24.1914063,7,24,7z"/>
<path fill="#FFFFFF" d="M19.980957,14c0.1860352,0.644043,0.4980469,1.3115234,0.9360352,2.0053711
	c0.4355469,0.6948242,0.8837891,1.4204102,1.3417969,2.1816406c0.4550781,0.7612305,0.8632813,1.5512695,1.2158203,2.3696289
	C23.8251953,21.3720703,24,22.2275391,24,23.1210938c0,0.5078125-0.1054688,0.9931641-0.3212891,1.4638672
	c-0.2099609,0.4697266-0.5009766,0.8857422-0.8632813,1.2441406c-0.3623047,0.3613281-0.796875,0.6435547-1.2861328,0.8564453
	C21.0390625,26.8925781,20.5244141,27,19.980957,27c-0.5444336,0-1.0600586-0.0976563-1.5424805-0.2988281
	c-0.4848633-0.1953125-0.9052734-0.4619141-1.2641602-0.7988281c-0.3588867-0.3300781-0.644043-0.7246094-0.8574219-1.1787109
	C16.1054688,24.2744141,16,23.7949219,16,23.2871094c0-0.8925781,0.1616211-1.7558594,0.4868164-2.5898438
	c0.3266602-0.8374023,0.7075195-1.6464844,1.1445313-2.4262695c0.4389648-0.7792969,0.8789063-1.5283203,1.3242188-2.2470703
	C19.3984375,15.3056641,19.7412109,14.6313477,19.980957,14z"/>
</svg>
