<?xml version="1.0" encoding="utf-8"?>
<!-- Generator: Adobe Illustrator 16.0.3, SVG Export Plug-In . SVG Version: 6.00 Build 0)  -->
<!DOCTYPE svg PUBLIC "-//W3C//DTD SVG 1.1//EN" "http://www.w3.org/Graphics/SVG/1.1/DTD/svg11.dtd">
<svg version="1.1" id="Lighting_Truss" xmlns="http://www.w3.org/2000/svg" xmlns:xlink="http://www.w3.org/1999/xlink" x="0px"
	 y="0px" width="34px" height="34px" viewBox="0 0 34 34" enable-background="new 0 0 34 34" xml:space="preserve">
<circle fill="#FFFFFF" cx="17" cy="17" r="15"/>
<path fill="#262424" d="M17,30C9.832,30,4,24.167,4,17S9.832,4,17,4c7.167,0,13,5.832,13,13S24.168,30,17,30z"/>
<path fill="#424243" d="M17,29c-6.617,0-12-5.383-12-12c0-6.617,5.383-12,12-12c6.617,0,12,5.383,12,12C29,23.617,23.617,29,17,29z"
	/>
<path fill="#FFFFFF" d="M8,10v1.383v2.77v1.385V24h1v-8h16v8h1v-8.462v-1.385v-2.77V10H8z M25,15H9v-4h16V15z"/>
<g>
	<rect x="9" y="14" fill="#FFFFFF" width="1" height="1"/>
	<rect x="10" y="13" fill="#FFFFFF" width="1" height="1"/>
	<rect x="11" y="12" fill="#FFFFFF" width="1" height="1"/>
	<rect x="12" y="11" fill="#FFFFFF" width="1" height="1"/>
	<rect x="13" y="12" fill="#FFFFFF" width="1" height="1"/>
	<rect x="14" y="13" fill="#FFFFFF" width="1" height="1"/>
	<rect x="15" y="14" fill="#FFFFFF" width="1" height="1"/>
	<rect x="16" y="13" fill="#FFFFFF" width="1" height="1"/>
	<rect x="17" y="12" fill="#FFFFFF" width="1" height="1"/>
	<rect x="18" y="11" fill="#FFFFFF" width="1" height="1"/>
	<rect x="19" y="12" fill="#FFFFFF" width="1" height="1"/>
	<rect x="20" y="13" fill="#FFFFFF" width="1" height="1"/>
	<rect x="21" y="14" fill="#FFFFFF" width="1" height="1"/>
	<rect x="22" y="13" fill="#FFFFFF" width="1" height="1"/>
	<rect x="23" y="12" fill="#FFFFFF" width="1" height="1"/>
	<rect x="24" y="11" fill="#FFFFFF" width="1" height="1"/>
</g>
</svg>
