<?xml version="1.0" encoding="utf-8"?>
<!-- Generator: Adobe Illustrator 16.0.3, SVG Export Plug-In . SVG Version: 6.00 Build 0)  -->
<!DOCTYPE svg PUBLIC "-//W3C//DTD SVG 1.1//EN" "http://www.w3.org/Graphics/SVG/1.1/DTD/svg11.dtd">
<svg version="1.1" id="Lost_-_Found" xmlns="http://www.w3.org/2000/svg" xmlns:xlink="http://www.w3.org/1999/xlink" x="0px"
	 y="0px" width="34px" height="34px" viewBox="0 0 34 34" enable-background="new 0 0 34 34" xml:space="preserve">
<circle fill="#FFFFFF" cx="17" cy="17" r="15"/>
<path fill="#262424" d="M17,30C9.832,30,4,24.167,4,17S9.832,4,17,4c7.167,0,13,5.832,13,13S24.168,30,17,30z"/>
<path fill="#424243" d="M17,29c-6.617,0-12-5.383-12-12c0-6.617,5.383-12,12-12c6.617,0,12,5.383,12,12C29,23.617,23.617,29,17,29z"
	/>
<path fill="#FFFFFF" d="M25.424,16.674C25.042,16.277,24.588,16,24.066,16H21v-2l-10.621,2v0.332h-1.14
	C9.079,16.332,9,16.415,9,16.578c0,0.167,0.079,0.248,0.239,0.248h1.14V17L21,19v-2h3.098c0.262,0,0.481,0.17,0.664,0.355
	C24.943,17.543,25,17.709,25,18c0,0.289-0.057,0.598-0.238,0.784C24.579,18.972,24.282,19,24,19h-0.236c-0.324,0-0.48,0.17-0.48,0.5
	s0.156,0.5,0.48,0.5h0.303c0.521,0,0.976-0.139,1.357-0.531C25.809,19.073,26,18.537,26,18C26,17.461,25.809,17.065,25.424,16.674z"
	/>
<path fill="#FFFFFF" d="M21,20.896L14.713,19H14.63c-0.248,0-0.401,0.199-0.458,0.594v0.134c0,0.37,0.121,0.616,0.37,0.737
	c0.04,0.027,0.159,0.08,0.358,0.158s0.433,0.256,0.699,0.377H12.43c-0.135,0-0.188,0.003-0.273,0.156
	C12.069,21.307,12,21.381,12,21.594C12,22.082,12.15,22,12.458,22H16v1h-3.477C12.22,23,12,23.013,12,23.5
	c0,0.208,0.04,0.234,0.125,0.391C12.212,24.039,12.39,24,12.523,24H16v1h-3.459c-0.131,0-0.351,0.019-0.44,0.166
	C12.018,25.323,12,25.283,12,25.5c0,0.489,0.15,0.5,0.458,0.5H16v1h-3.542C12.15,27,12,27.014,12,27.5c0,0.521,0.692,0.5,1,0.5
	h7.255H21v-2.433c0-0.154-0.032-0.282-0.099-0.388C20.836,25.073,20.755,25,20.658,25l-0.599,0.016
	c-0.098,0-0.179-0.043-0.245-0.136c-0.064-0.092-0.101-0.21-0.101-0.36c0-0.159,0.036-0.289,0.101-0.394
	c0.066-0.104,0.147-0.162,0.245-0.162h0.599c0.097,0,0.178-0.05,0.243-0.161C20.968,23.698,21,23.57,21,23.418V20.896z"/>
<path fill="#FFFFFF" d="M16,12c-0.003-0.129,0.046-0.165,0.046-0.229c0-0.379,0.054-0.707,0.161-0.983
	c0.079-0.208,0.206-0.417,0.381-0.628c0.129-0.154,0.361-0.378,0.695-0.674c0.335-0.295,0.553-0.531,0.652-0.706
	c0.101-0.175,0.15-0.367,0.15-0.575c0-0.376-0.146-0.707-0.439-0.991c-0.294-0.285-0.654-0.427-1.08-0.427
	c-0.412,0-0.755,0.129-1.031,0.387s-0.457,0.661-0.542,1.208L14,8.264c0.089-0.734,0.355-1.296,0.798-1.687
	c0.442-0.39,1.026-0.585,1.753-0.585c0.77,0,1.383,0.209,1.842,0.628s0.688,0.926,0.688,1.52c0,0.344-0.08,0.661-0.242,0.951
	c-0.16,0.29-0.476,0.643-0.945,1.058c-0.314,0.279-0.521,0.485-0.617,0.618s-0.168,0.285-0.215,0.457s-0.125,0.39-0.132,0.777H16z"
	/>
<polygon fill="#FFFFFF" points="15.993,14 16,13 17,13 17,14 "/>
</svg>
