<?xml version="1.0" encoding="utf-8"?>
<!-- Generator: Adobe Illustrator 16.0.3, SVG Export Plug-In . SVG Version: 6.00 Build 0)  -->
<!DOCTYPE svg PUBLIC "-//W3C//DTD SVG 1.1//EN" "http://www.w3.org/Graphics/SVG/1.1/DTD/svg11.dtd">
<svg version="1.1" id="Marine_Incident" xmlns="http://www.w3.org/2000/svg" xmlns:xlink="http://www.w3.org/1999/xlink" x="0px"
	 y="0px" width="44px" height="44px" viewBox="0 0 44 44" enable-background="new 0 0 44 44" xml:space="preserve">
<path opacity="0.75" fill="#FFFFFF" enable-background="new    " d="M38,16.5380859
	c0-1.1342773-0.1054688-2.2382813-0.3095703-3.3085938c-0.2089844-1.0708008-0.5205078-2.1113281-0.9472656-3.1186523
	c-0.4169922-1.0087891-0.9130859-1.949707-1.4833984-2.8276367c-0.5703125-0.878418-1.2167969-1.6914063-1.9404297-2.4384766
	c-0.7265625-0.75-1.515625-1.4179688-2.3623047-2.0087891c-0.8525391-0.5908203-1.7646484-1.105957-2.7353516-1.5380859
	c-0.9775391-0.4335938-1.9863281-0.7578125-3.0214844-0.9736328C24.1630859,0.1074219,23.1005859,0,22.0019531,0
	c-1.0976563,0-2.1640625,0.1074219-3.199707,0.3242188c-1.0371094,0.2158203-2.0424805,0.5400391-3.0185547,0.9736328
	c-0.9755859,0.4321289-1.8886719,0.9472656-2.7368164,1.5380859c-0.8500977,0.5908203-1.637207,1.2587891-2.3598633,2.0087891
	C9.9619141,5.5917969,9.3144531,6.4047852,8.7436523,7.2832031c-0.5722656,0.8779297-1.065918,1.8188477-1.4858398,2.8276367
	c-0.4194336,1.0073242-0.7338867,2.0478516-0.9433594,3.1186523C6.1040039,14.2998047,6,15.4038086,6,16.5380859
	c0,1.1357422,0.1040039,2.2353516,0.3144531,3.3085938c0.2094727,1.0703125,0.5239258,2.1103516,0.9433594,3.1201172
	c0.3623047,0.8662109,0.7783203,1.6894531,1.253418,2.4619141c0.4760742,0.7724609,1.0073242,1.4951172,1.5947266,2.1738281
	h-0.0048828h-0.0043945l5.9487305,8.1982422L21.9941406,44l5.9365234-8.1845703l5.9296875-8.171875
	c0.5996094-0.6806641,1.1386719-1.4111328,1.6142578-2.1875c0.4794922-0.7822266,0.90625-1.6132813,1.2685547-2.4892578
	c0.4267578-1.0097656,0.7382813-2.0498047,0.9472656-3.1201172C37.8945313,18.7734375,38,17.6738281,38,16.5380859z"/>
<path fill="#1873CD" d="M35.7246094,13.4375c-0.1855469-0.9262695-0.4589844-1.8305664-0.8359375-2.6982422
	c-0.3632813-0.875-0.8105469-1.7055664-1.3164063-2.4726563C33.0742188,7.5078125,32.4980469,6.7998047,31.875,6.1650391
	c-0.640625-0.6484375-1.3417969-1.230957-2.078125-1.730957c-0.7402344-0.5092773-1.5527344-0.9584961-2.4023438-1.3305664
	c-0.8378906-0.3662109-1.7167969-0.6445313-2.6074219-0.8271484C23.8925781,2.09375,22.9570313,2,22.0019531,2
	c-0.9555664,0-1.8916016,0.09375-2.784668,0.2763672c-0.8901367,0.1826172-1.7670898,0.4604492-2.6030273,0.824707
	c-0.8544922,0.3745117-1.6645508,0.8227539-2.4125977,1.3349609c-0.7348633,0.4995117-1.4291992,1.0795898-2.0654297,1.7270508
	c-0.6323242,0.6381836-1.206543,1.3466797-1.7050781,2.105957c-0.5014648,0.7563477-0.9462891,1.5893555-1.3237305,2.4746094
	c-0.3642578,0.8647461-0.6445313,1.7714844-0.8295898,2.6972656C8.09375,14.3701172,8,15.3413086,8,16.3305664
	s0.09375,1.9604492,0.2783203,2.8901367c0.1845703,0.9238281,0.4648438,1.828125,0.8291016,2.7011719
	c0.3227539,0.7636719,0.7021484,1.4863281,1.1162109,2.1542969c0.4208984,0.6679688,0.8920898,1.3027344,1.4042969,1.8789063
	l2.762207,3.7402344L21.9951172,40l10.2783203-13.9316406l0.0742188-0.078125
	c0.515625-0.578125,0.9960938-1.2167969,1.4160156-1.8867188c0.4335938-0.6914063,0.8125-1.421875,1.1308594-2.1855469
	c0.3710938-0.8691406,0.6464844-1.7695313,0.8300781-2.6914063C35.9082031,18.2851563,36,17.3120117,36,16.3305664
	C36,15.3500977,35.9082031,14.3735352,35.7246094,13.4375z"/>
<path fill="#1F8FFF" d="M34.7373047,13.5410156c-0.171875-0.8540039-0.4277344-1.6879883-0.7753906-2.4873047
	c-0.3466797-0.8120117-0.7607422-1.5834961-1.2333984-2.2949219c-0.4658203-0.6987305-1.0009766-1.3476563-1.5771484-1.9311523
	c-0.5986328-0.5976563-1.2529297-1.1342773-1.9355469-1.5947266c-0.6933594-0.46875-1.4443359-0.8842773-2.2363281-1.2246094
	c-0.7685547-0.3359375-1.5800781-0.5883789-2.4033203-0.7548828C23.7490234,3.0864258,22.8828125,3,22,3
	c-0.8857422,0-1.7514648,0.0864258-2.5756836,0.253418c-0.8203125,0.1665039-1.6264648,0.4189453-2.3950195,0.7514648
	c-0.796875,0.34375-1.5537109,0.7592773-2.2524414,1.2304688c-0.6806641,0.4589844-1.324707,0.9931641-1.9169922,1.5874023
	c-0.5869141,0.5893555-1.1206055,1.2407227-1.5859375,1.9379883c-0.4702148,0.7026367-0.887207,1.4750977-1.2397461,2.3022461
	c-0.340332,0.7910156-0.6020508,1.6289063-0.7749023,2.4838867C9.0869141,14.409668,9,15.3095703,9,16.2275391
	c0,0.9174805,0.0869141,1.8242188,0.2597656,2.6845703c0.1699219,0.8457031,0.4321289,1.6826172,0.7744141,2.4833984
	c0.3056641,0.71875,0.6567383,1.3925781,1.0478516,2.0068359c0.3896484,0.6142578,0.8295898,1.1972656,1.3076172,1.734375
	l4.2011719,5.6210938L21.9921875,38l9.4541016-12.671875l0.1357422-0.1611328
	c0.4824219-0.5302734,0.9287109-1.1152344,1.3193359-1.7382813c0.4033203-0.6386719,0.7617188-1.3222656,1.0654297-2.0361328
	c0.3427734-0.7988281,0.6015625-1.6318359,0.7705078-2.4726563C34.9101563,18.0483398,35,17.140625,35,16.2275391
	C35,15.3134766,34.9101563,14.409668,34.7373047,13.5410156z"/>
<polygon fill="#FFFFFF" points="34,16.9990234 22.0107422,29 10,16.9990234 22.0107422,5 "/>
<path fill="#1F8FFF" d="M27,21.9990234V20c-0.5175781,0.6845703-0.9736328,1.2412109-1.5234375,1.2412109
	c-0.7041016,0-1.1025391-0.4101563-1.5517578-1.2412109c-0.5,0.8310547-1.2236328,1.2412109-1.871582,1.2412109
	c-0.5483398,0-0.9760742-0.4101563-1.5913086-1.2412109c-0.4501953,0.8310547-1.0239258,1.2412109-1.7182617,1.2412109
	c-0.1181641,0-0.2519531-0.0292969-0.4033203-0.0957031c-0.1518555-0.0654297-0.3071289-0.1542969-0.4628906-0.2734375
	c-0.15625-0.1142578-0.3105469-0.2460938-0.4624023-0.3974609C17.2626953,20.3261719,17.1303711,20.1708984,17.0117188,20v1.921875
	c0.0991211,0.140625,0.2182617,0.2773438,0.359375,0.40625c0.1416016,0.1279297,0.2890625,0.2421875,0.4404297,0.3388672
	c0.1518555,0.0976563,0.309082,0.1748047,0.46875,0.2324219c0.1616211,0.0576172,0.315918,0.0869141,0.4633789,0.0869141h0.0581055
	c0.6855469,0,1.2387695-0.3544922,1.6601563-1.0644531c0.5073242,0.7099609,1.0839844,1.0644531,1.7304688,1.0644531h0.0581055
	c0.762207,0,1.3227539-0.3623047,1.6743164-1.0849609c0.4003906,0.6972656,0.7929688,1.0605469,1.5390625,1.0849609
	C26.0117188,22.9863281,26.4716797,22.6582031,27,21.9990234z"/>
<path fill="#1F8FFF" d="M26.6455078,13.1733398L26,12.8461914V11h-1v-1h-1V9h-4v1h-1v1h-1v1.8461914l-0.3759766,0.2182617
	c-0.3393555,0.1401367-0.4814453,0.4282227-0.3369141,0.7421875L18,15.9233398V19h8v-3.0766602l0.7626953-1.8857422
	C26.9052734,13.7250977,26.9853516,13.3139648,26.6455078,13.1733398z M25,13l-3-1l-3,1v-1h1v-1l2-1l2,1l0.3857422,1H25V13z"/>
</svg>
