<?xml version="1.0" encoding="utf-8"?>
<!-- Generator: Adobe Illustrator 16.0.3, SVG Export Plug-In . SVG Version: 6.00 Build 0)  -->
<!DOCTYPE svg PUBLIC "-//W3C//DTD SVG 1.1//EN" "http://www.w3.org/Graphics/SVG/1.1/DTD/svg11.dtd">
<svg version="1.1" id="Medical_Incident" xmlns="http://www.w3.org/2000/svg" xmlns:xlink="http://www.w3.org/1999/xlink" x="0px"
	 y="0px" width="24px" height="24px" viewBox="0 0 24 24" enable-background="new 0 0 24 24" xml:space="preserve">
<circle fill="#304196" cx="12" cy="12" r="12"/>
<path fill="#FFFFFF" d="M11.9995117,23.0009766c-6.065918,0-10.9985352-4.9365234-10.9985352-11.0014648
	c0-6.0664063,4.9326172-10.9985352,10.9985352-10.9985352s11.0014648,4.9321289,11.0014648,10.9985352
	C23.0009766,18.0644531,18.0654297,23.0009766,11.9995117,23.0009766z"/>
<polygon fill="#304196" points="18.828125,5.8535156 14,8 14,3 10,3 10,8 5.203125,5.8535156 3.0009766,9.5561523 
	7.5942383,12.1269531 3.0009766,14.7265625 5.203125,18.4296875 10,16 10,21 14,21 14,16 18.828125,18.4296875 
	21.0009766,14.7265625 16.4023438,12.1269531 21.0009766,9.5561523 "/>
</svg>
