<?xml version="1.0" encoding="utf-8"?>
<!-- Generator: Adobe Illustrator 16.0.3, SVG Export Plug-In . SVG Version: 6.00 Build 0)  -->
<!DOCTYPE svg PUBLIC "-//W3C//DTD SVG 1.1//EN" "http://www.w3.org/Graphics/SVG/1.1/DTD/svg11.dtd">
<svg version="1.1" id="Meter_Setting" xmlns="http://www.w3.org/2000/svg" xmlns:xlink="http://www.w3.org/1999/xlink" x="0px"
	 y="0px" width="40px" height="40px" viewBox="0 0 40 40" enable-background="new 0 0 40 40" xml:space="preserve">
<path opacity="0.75" fill="#FFFFFF" d="M33.9707031,15.6733398c0-1.0039063-0.09375-1.9799805-0.2724609-2.9262695
	c-0.1806641-0.9482422-0.4560547-1.8676758-0.8242188-2.7587891c-0.3652344-0.8920898-0.796875-1.7255859-1.2958984-2.5024414
	s-1.0625-1.496582-1.6943359-2.1577148c-0.6357422-0.6611328-1.3232422-1.2543945-2.0634766-1.7753906
	c-0.7431641-0.5229492-1.5400391-0.9780273-2.3876953-1.3618164c-0.8535156-0.3828125-1.7333984-0.6689453-2.6376953-0.8608398
	c-0.90625-0.1914063-1.8364258-0.2856445-2.7944336-0.2856445c-0.9575195,0-1.8881836,0.0942383-2.7924805,0.2856445
	c-0.9057617,0.1918945-1.7836914,0.4780273-2.6357422,0.8608398c-0.8520508,0.3837891-1.6489258,0.8388672-2.390625,1.3618164
	c-0.7416992,0.5209961-1.4287109,1.1142578-2.0610352,1.7753906S8.9228516,6.7089844,8.4233398,7.4858398
	C7.925293,8.2626953,7.4941406,9.0961914,7.1264648,9.9882813c-0.3662109,0.8911133-0.6396484,1.8105469-0.8232422,2.7587891
	c-0.1835938,0.9462891-0.2749023,1.9223633-0.2749023,2.9262695c0,1.0014648,0.0913086,1.9775391,0.2749023,2.9257813
	s0.4570313,1.8666992,0.8232422,2.7602539c0.315918,0.7675781,0.6816406,1.4951172,1.0952148,2.1787109
	c0.4160156,0.6835938,0.8789063,1.3232422,1.3916016,1.9199219H9.609375H9.6064453l5.1938477,7.2529297l5.1943359,7.2529297
	l5.1850586-7.2363281l5.1767578-7.2324219c0.5214844-0.6015625,0.9912109-1.2480469,1.4101563-1.9355469
	c0.4199219-0.6914063,0.7900391-1.4257813,1.1074219-2.2001953c0.3681641-0.8935547,0.6435547-1.8120117,0.8242188-2.7602539
	C33.8769531,17.6508789,33.9707031,16.6748047,33.9707031,15.6733398z"/>
<path fill="#1873CD" d="M31.7617188,13.2333984c-0.15625-0.8286133-0.3945313-1.637207-0.7128906-2.4140625
	c-0.3164063-0.7822266-0.6953125-1.5258789-1.1308594-2.2128906c-0.4296875-0.6777344-0.9199219-1.3120117-1.4550781-1.8789063
	C27.9121094,6.1459961,27.3125,5.625,26.6835938,5.1767578C26.0449219,4.7211914,25.3496094,4.3198242,24.625,3.9868164
	c-0.7207031-0.3276367-1.4746094-0.5761719-2.2382813-0.7397461C21.6210938,3.0830078,20.8183594,3,20.0009766,3
	c-0.8193359,0-1.6210938,0.0830078-2.3857422,0.2470703c-0.7636719,0.1635742-1.5146484,0.4116211-2.2314453,0.7382813
	c-0.7324219,0.3344727-1.4277344,0.7353516-2.0683594,1.1928711c-0.6298828,0.4482422-1.2246094,0.9672852-1.7695313,1.5458984
	c-0.5419922,0.5727539-1.0341797,1.2060547-1.4628906,1.8842773c-0.4287109,0.6767578-0.8105469,1.4223633-1.1328125,2.2158203
	c-0.3144531,0.7729492-0.5537109,1.5844727-0.7109375,2.4130859C8.0810547,14.0678711,8,14.9375,8,15.8232422
	c0,0.8842773,0.0810547,1.7539063,0.2392578,2.5869141c0.1572266,0.8242188,0.3964844,1.6367188,0.7109375,2.4140625
	c0.2773438,0.6816406,0.5996094,1.3320313,0.9570313,1.9296875c0.3583984,0.5976563,0.7626953,1.1621094,1.2021484,1.6796875
	l2.3681641,3.3476563L19.9951172,37l8.8115234-12.4628906l0.0605469-0.0703125
	c0.4433594-0.5195313,0.8535156-1.0898438,1.2128906-1.6894531c0.3710938-0.6191406,0.6953125-1.2734375,0.9726563-1.9570313
	c0.3144531-0.7734375,0.5527344-1.5820313,0.7089844-2.4052734C31.9199219,17.5722656,32,16.7006836,32,15.8232422
	C32,14.9443359,31.9199219,14.0722656,31.7617188,13.2333984z"/>
<path fill="#1F8FFF" d="M30.7792969,13.3359375c-0.1445313-0.7553711-0.3632813-1.4946289-0.65625-2.203125
	c-0.2929688-0.7197266-0.6445313-1.4033203-1.046875-2.0336914c-0.3945313-0.6176758-0.84375-1.1938477-1.3339844-1.7094727
	c-0.5058594-0.5292969-1.0566406-1.0048828-1.6347656-1.4130859c-0.5878906-0.4155273-1.2246094-0.7822266-1.8925781-1.0854492
	C23.5605469,4.5952148,22.875,4.371582,22.1796875,4.2236328C21.4804688,4.0756836,20.7480469,4,20,4
	c-0.7490234,0-1.4814453,0.0756836-2.1787109,0.2236328c-0.6943359,0.1479492-1.3769531,0.3710938-2.0273438,0.6650391
	c-0.6738281,0.3051758-1.3134766,0.6723633-1.9042969,1.0898438c-0.5761719,0.4067383-1.1220703,0.8803711-1.6220703,1.4067383
	c-0.4980469,0.5214844-0.9492188,1.0991211-1.34375,1.7167969c-0.3964844,0.621582-0.7490234,1.3061523-1.0488281,2.0380859
	c-0.2880859,0.7026367-0.5087891,1.4433594-0.6542969,2.2016602C9.0742188,14.1044922,9,14.9033203,9,15.7167969
	c0,0.8125,0.0742188,1.6118164,0.2207031,2.3769531c0.1445313,0.75,0.3652344,1.4921875,0.6542969,2.2011719
	c0.2587891,0.6328125,0.5576172,1.2304688,0.8867188,1.7753906s0.7021484,1.0605469,1.1064453,1.5361328l3.5556641,4.9785156
	L19.9941406,35l7.9980469-11.2226563l0.1171875-0.1435547c0.4082031-0.4726563,0.7832031-0.9902344,1.1152344-1.5390625
	c0.3417969-0.5654297,0.6445313-1.171875,0.9023438-1.8046875c0.2910156-0.7050781,0.5097656-1.4423828,0.6523438-2.1904297
	C30.9257813,17.3266602,31,16.5249023,31,15.7167969C31,14.9067383,30.9257813,14.105957,30.7792969,13.3359375z"/>
<path opacity="0.75" fill="#FFFFFF" d="M19.9995117,1"/>
<path fill="#FFFFFF" d="M25,9c-2,0-7,0-10,0c-1,0-3,1.7270508-3,3c0,2.5454102,0,5.4541016,0,8c0,1.2724609,2,3,3,3c2,0,8,0,10,0
	c1,0,3-1.7275391,3-3c0-2.5458984,0-5.4545898,0-8C28,10.7270508,26,9,25,9z"/>
<path fill="#1F8FFF" d="M24.375,10c-1.75,0-6.125,0-8.75,0C14.75,10,13,10.7392578,13,11.2861328
	c0,1.0898438,0,2.3359375,0,3.4277344C13,15.2607422,14.75,16,15.625,16c1.75,0,7,0,8.75,0C25.25,16,27,15.2607422,27,14.7138672
	c0-1.0917969,0-2.3378906,0-3.4277344C27,10.7392578,25.25,10,24.375,10z"/>
<path fill="#FFFFFF" d="M15,6.5629883c0,0.375,0,1.3125,0,1.875c0,0.1875,0.246582,0.5625,0.4287109,0.5625
	c0.3632813,0,0.7783203,0,1.1425781,0c0.1826172,0,0.4287109-0.375,0.4287109-0.5625c0-0.375,0-1.5,0-1.875
	c0-0.1875-0.2460938-0.5625-0.4287109-0.5625c-0.3642578,0-0.7792969,0-1.1425781,0C15.246582,6.0004883,15,6.3754883,15,6.5629883z
	"/>
<path fill="#FFFFFF" d="M23,6.5625c0,0.375,0,1.3125,0,1.875C23,8.625,23.2460938,9,23.4287109,9
	c0.3632813,0,0.7783203,0,1.1425781,0C24.7539063,9,25,8.625,25,8.4375c0-0.375,0-1.5,0-1.875C25,6.375,24.7539063,6,24.5712891,6
	c-0.3642578,0-0.7792969,0-1.1425781,0C23.2460938,6,23,6.375,23,6.5625z"/>
<path fill="#1F8FFF" d="M25,17c-2,0-7,0-10,0c-1,0-3,0.1230469-3,0.2143555c0,0.1816406,0,0.3891602,0,0.5712891
	C12,17.8769531,14,18,15,18c2,0,8,0,10,0c1,0,3-0.1230469,3-0.2143555c0-0.1821289,0-0.3896484,0-0.5712891
	C28,17.1230469,26,17,25,17z"/>
<g>
	<path fill="#FFFFFF" d="M16.2451172,14.5678711v-2.4267578c-0.4697266,0.3466797-0.7861328,0.5200195-0.9482422,0.5200195
		c-0.078125,0-0.1464844-0.0297852-0.2060547-0.0893555C15.0302734,12.5126953,15,12.4438477,15,12.3652344
		c0-0.090332,0.0292969-0.1572266,0.0888672-0.199707C15.1484375,12.1225586,15.2519531,12.0678711,15.4023438,12
		c0.2236328-0.1015625,0.4023438-0.2080078,0.5371094-0.3198242c0.1337891-0.1123047,0.2519531-0.2373047,0.3564453-0.3759766
		c0.1035156-0.1386719,0.1699219-0.2241211,0.2021484-0.2563477C16.5292969,11.0161133,16.5878906,11,16.6757813,11
		c0.0976563,0,0.1757813,0.0361328,0.2353516,0.109375S17,11.2827148,17,11.4106445v3.0532227
		C17,14.8212891,16.8730469,15,16.6201172,15c-0.1123047,0-0.2041016-0.0361328-0.2724609-0.109375
		C16.2802734,14.8173828,16.2451172,14.7104492,16.2451172,14.5678711z"/>
</g>
<g>
	<path fill="#FFFFFF" d="M21,13.0214844c0,0.2915039-0.0195313,0.5424805-0.0585938,0.7519531
		s-0.1113281,0.3999023-0.2167969,0.5708008c-0.1328125,0.2094727-0.3046875,0.371582-0.515625,0.4848633
		C19.9980469,14.9428711,19.7636719,15,19.5058594,15c-0.296875,0-0.5629883-0.0761719-0.7978516-0.2294922
		c-0.2358398-0.152832-0.4130859-0.3642578-0.5322266-0.6342773c-0.0605469-0.1479492-0.1049805-0.3110352-0.1337891-0.4892578
		C18.0141602,13.4677734,18,13.2749023,18,13.0668945c0-0.2685547,0.015625-0.5107422,0.046875-0.7255859
		s0.0800781-0.3999023,0.1464844-0.5546875c0.1152344-0.2558594,0.2822266-0.4511719,0.5029297-0.5854492
		C18.9150391,11.0673828,19.1777344,11,19.4824219,11c0.2011719,0,0.3837891,0.0297852,0.5478516,0.0888672
		c0.1640625,0.0600586,0.3076172,0.1474609,0.4316406,0.2617188c0.1240234,0.1152344,0.2294922,0.2563477,0.3154297,0.425293
		C20.9257813,12.0693359,21,12.484375,21,13.0214844z M20.1972656,12.9677734c0-0.3251953-0.0214844-0.5913086-0.0644531-0.7983398
		c-0.0429688-0.2075195-0.1152344-0.3637695-0.2167969-0.4692383c-0.1015625-0.105957-0.2421875-0.1586914-0.421875-0.1586914
		c-0.2578125,0-0.4370117,0.1181641-0.5380859,0.3544922c-0.1000977,0.2363281-0.1503906,0.6010742-0.1503906,1.0932617
		c0,0.3344727,0.0214844,0.6079102,0.0644531,0.8212891s0.1152344,0.375,0.2167969,0.4838867
		c0.1015625,0.1098633,0.2392578,0.1640625,0.4130859,0.1640625c0.1796875,0,0.3203125-0.0571289,0.421875-0.1704102
		c0.1015625-0.1137695,0.1728516-0.2763672,0.2138672-0.4882813C20.1767578,13.5883789,20.1972656,13.3110352,20.1972656,12.9677734
		z"/>
</g>
<g>
	<path fill="#FFFFFF" d="M23.0058594,14.3603516h1.5263672c0.1523438,0,0.2666016,0.0288086,0.3476563,0.0869141
		C24.9599609,14.5048828,25,14.5834961,25,14.6831055c0,0.0883789-0.0332031,0.1635742-0.0957031,0.2250977
		C24.8408203,14.9692383,24.7451172,15,24.6162109,15h-2.1513672c-0.1455078,0-0.2587891-0.0371094-0.3408203-0.112793
		C22.0419922,14.8125,22,14.7246094,22,14.6235352c0-0.0654297,0.0273438-0.1513672,0.0791016-0.2587891
		c0.0527344-0.1079102,0.1103516-0.1928711,0.1738281-0.2539063c0.2578125-0.2495117,0.4921875-0.4633789,0.7011719-0.6411133
		c0.2080078-0.1787109,0.3574219-0.2954102,0.4462891-0.3515625c0.1591797-0.1044922,0.2929688-0.2104492,0.3984375-0.3154297
		c0.1064453-0.1064453,0.1875-0.2148438,0.2431641-0.3256836C24.0976563,12.3652344,24.125,12.2568359,24.125,12.1499023
		c0-0.1152344-0.0302734-0.21875-0.0878906-0.3105469c-0.0605469-0.0913086-0.140625-0.1621094-0.2441406-0.2128906
		c-0.1015625-0.050293-0.2119141-0.0756836-0.3339844-0.0756836c-0.2548828,0-0.4560547,0.1040039-0.6015625,0.3120117
		c-0.0205078,0.0268555-0.0527344,0.1010742-0.0986328,0.222168s-0.0966797,0.2143555-0.1542969,0.2792969
		s-0.1416016,0.0976563-0.2539063,0.0976563c-0.0966797,0-0.1777344-0.0297852-0.2421875-0.0893555
		s-0.0966797-0.1411133-0.0966797-0.2441406c0-0.125,0.0302734-0.2548828,0.0908203-0.390625
		c0.0615234-0.1357422,0.1513672-0.2587891,0.2705078-0.3686523c0.1201172-0.1103516,0.2724609-0.1992188,0.4560547-0.2675781
		C23.0136719,11.0341797,23.2294922,11,23.4765625,11c0.2978516,0,0.5527344,0.043457,0.7636719,0.1303711
		c0.1357422,0.0581055,0.2548828,0.137207,0.3583984,0.2387695c0.1044922,0.1015625,0.1835938,0.2182617,0.2412109,0.3510742
		c0.0576172,0.1333008,0.0869141,0.2709961,0.0869141,0.4135742c0,0.2241211-0.0595703,0.4277344-0.1806641,0.6113281
		c-0.1191406,0.1835938-0.2421875,0.3276367-0.3662109,0.4316406c-0.125,0.1035156-0.3339844,0.2670898-0.6269531,0.4892578
		c-0.2939453,0.222168-0.4951172,0.3950195-0.6035156,0.5180664C23.1025391,14.2329102,23.0546875,14.2915039,23.0058594,14.3603516
		z"/>
</g>
</svg>
