<?xml version="1.0" encoding="utf-8"?>
<!-- Generator: Adobe Illustrator 16.0.3, SVG Export Plug-In . SVG Version: 6.00 Build 0)  -->
<!DOCTYPE svg PUBLIC "-//W3C//DTD SVG 1.1//EN" "http://www.w3.org/Graphics/SVG/1.1/DTD/svg11.dtd">
<svg version="1.1" id="Mobile_Stage" xmlns="http://www.w3.org/2000/svg" xmlns:xlink="http://www.w3.org/1999/xlink" x="0px"
	 y="0px" width="34px" height="34px" viewBox="0 0 34 34" enable-background="new 0 0 34 34" xml:space="preserve">
<circle fill="#FFFFFF" cx="17" cy="17" r="15"/>
<path fill="#262424" d="M17,30C9.832,30,4,24.167,4,17S9.832,4,17,4c7.167,0,13,5.832,13,13S24.168,30,17,30z"/>
<path fill="#424243" d="M17,29c-6.617,0-12-5.383-12-12c0-6.617,5.383-12,12-12c6.617,0,12,5.383,12,12C29,23.617,23.617,29,17,29z"
	/>
<g>
	<rect x="10" y="11" fill="#FFFFFF" width="1" height="1"/>
	<rect x="9" y="12" fill="#FFFFFF" width="1" height="1"/>
	<rect x="9" y="14" fill="#FFFFFF" width="1" height="1"/>
	<rect x="10" y="15" fill="#FFFFFF" width="1" height="1"/>
	<rect x="9" y="16" fill="#FFFFFF" width="1" height="1"/>
	<rect x="10" y="17" fill="#FFFFFF" width="1" height="1"/>
	<rect x="9" y="18" fill="#FFFFFF" width="1" height="1"/>
	<rect x="10" y="19" fill="#FFFFFF" width="1" height="1"/>
	<rect x="9" y="20" fill="#FFFFFF" width="1" height="1"/>
	<rect x="10" y="21" fill="#FFFFFF" width="1" height="1"/>
	<rect x="12" y="11" fill="#FFFFFF" width="1" height="1"/>
	<rect x="13" y="12" fill="#FFFFFF" width="1" height="1"/>
	<rect x="14" y="11" fill="#FFFFFF" width="1" height="1"/>
	<rect x="15" y="12" fill="#FFFFFF" width="1" height="1"/>
	<rect x="16" y="11" fill="#FFFFFF" width="1" height="1"/>
	<rect x="17" y="12" fill="#FFFFFF" width="1" height="1"/>
	<rect x="18" y="11" fill="#FFFFFF" width="1" height="1"/>
	<rect x="19" y="12" fill="#FFFFFF" width="1" height="1"/>
	<rect x="20" y="11" fill="#FFFFFF" width="1" height="1"/>
	<rect x="21" y="12" fill="#FFFFFF" width="1" height="1"/>
	<rect x="24" y="11" fill="#FFFFFF" width="1" height="1"/>
	<rect x="23" y="12" fill="#FFFFFF" width="1" height="1"/>
	<rect x="23" y="14" fill="#FFFFFF" width="1" height="1"/>
	<rect x="24" y="15" fill="#FFFFFF" width="1" height="1"/>
	<polygon fill="#FFFFFF" points="14,14 14,14.682 13,16 16,16 15,14.682 15,14 	"/>
	<polygon fill="#FFFFFF" points="19,14 19,15 18,16 21,16 20,15 20,14 	"/>
	<path fill="#FFFFFF" d="M25,10h-2h-1H12h-1H9H8v1v2v1v8l2.078,3h14.538L26,22v-8v-1v-2v-1H25z M22,11v2H12v-2H22z M9,11h2v2H9V11z
		 M9,22v-8h2v8H9z M12,22v-8h10v8H12z M25,22h-2v-8h2V22z M23,13v-2h2v2H23z"/>
	<rect x="23" y="16" fill="#FFFFFF" width="1" height="1"/>
	<rect x="24" y="17" fill="#FFFFFF" width="1" height="1"/>
	<rect x="23" y="18" fill="#FFFFFF" width="1" height="1"/>
	<rect x="24" y="19" fill="#FFFFFF" width="1" height="1"/>
	<rect x="23" y="20" fill="#FFFFFF" width="1" height="1"/>
	<rect x="24" y="21" fill="#FFFFFF" width="1" height="1"/>
</g>
</svg>
