<?xml version="1.0" encoding="utf-8"?>
<!-- Generator: Adobe Illustrator 16.0.0, SVG Export Plug-In . SVG Version: 6.00 Build 0)  -->
<!DOCTYPE svg PUBLIC "-//W3C//DTD SVG 1.1//EN" "http://www.w3.org/Graphics/SVG/1.1/DTD/svg11.dtd">
<svg version="1.1" id="Mosquito_Larvicide_Sites" xmlns="http://www.w3.org/2000/svg" xmlns:xlink="http://www.w3.org/1999/xlink"
	 x="0px" y="0px" width="34px" height="34px" viewBox="0 0 34 34" enable-background="new 0 0 34 34" xml:space="preserve">
<circle fill="#FFFFFF" cx="17" cy="17" r="17"/>
<path fill="#005F99" d="M17.0009766,32c-8.2709961,0-15-6.7324219-15-15.0019531C2.0009766,8.7299805,8.7299805,2,17.0009766,2
	c8.2714844,0,15,6.7299805,15,14.9980469C32.0009766,25.2675781,25.2724609,32,17.0009766,32z"/>
<path fill="#0084C9" d="M17.0009766,31.0009766C9.2797852,31.0009766,3.0004883,24.7226563,3.0004883,17
	c0-7.7202148,6.2792969-13.9990234,14.0004883-13.9990234c7.7207031,0,14,6.2788086,14,13.9990234
	C31.0009766,24.7226563,24.7216797,31.0009766,17.0009766,31.0009766z"/>
<path fill="#FFFFFF" d="M22.7158203,14.9204102c-0.8789063-0.0092773-1.7666016-0.0361328-2.5693359-0.0825195l3.4873047,4.9199219
	c0.5205078,0.2949219,2.3857422,1.5146484,3.8613281,1.9882813l-0.0693359,0.3105469
	c-0.0175781,0-2.9384766-0.4755859-4.3574219-1.7578125l-3.8759766-5.4375l-0.140625-0.1054688
	c-0.4228516-0.0424805-0.8193359-0.0883789-1.1538086-0.140625l3.1206055,4.3710938l-1.1494141,3.4765625
	c0.1445313,1.515625,2.5576172,6.3300781,2.5625,6.3369141l-0.2421875,0.1943359
	c-1.9345703-1.640625-3.109375-6.5839844-3.109375-6.5839844l1.0712891-3.2871094l-2.265625-3.3974609
	C17.9560547,16.3144531,18,17.0063477,18,17.7675781C17.9326172,19.8554688,17.6713867,21.8261719,17.0009766,22
	c-0.6743164-0.1738281-0.96875-2.1376953-1.0332031-4.2324219c0-0.75,0.0429688-1.449707,0.1098633-2.0419922l-2.2211914,3.3974609
	l1.0800781,3.3730469c-0.2045898,0.5625-1.5395508,5.1708984-3.1254883,6.5039063l-0.2363281-0.2001953
	c0-0.0068359,2.4165039-4.8212891,2.5756836-6.2734375l-1.1611328-3.5390625l3.1210938-4.3613281
	c-0.3349609,0.0361328-0.7319336,0.0874023-1.1601563,0.1298828l-0.1357422,0.1054688l-3.8945313,5.4609375
	C9.5268555,21.5810547,6.5986328,22.0507813,6.5844727,22.0625l-0.0776367-0.3164063
	c1.4785156-0.46875,3.3325195-1.6816406,3.8666992-1.9882813l3.4868164-4.9199219
	c-0.8095703,0.046875-1.6889648,0.0742188-2.5737305,0.0742188C8.2158203,14.8652344,5.1279297,14.6591797,5,13.2363281
	c0-0.1430664,0.0332031-0.2832031,0.1049805-0.4145508c0.3666992-0.7583008,1.3920898-0.956543,2.6665039-0.9711914
	c2.2109375,0,5.2626953,0.7124023,7.2402344,1.2294922l0.625-0.5991211
	c-0.7246094-0.2329102-1.8452148-0.7060547-2.6079102-1.5302734l-0.0893555-0.1459961l-0.3681641-3.0209961l-2.0527344-2.5629883
	L10.7490234,5l2.5483398,2.4291992l0.3583984,3.0258789c0.6425781,0.6855469,1.7646484,1.1210938,2.3896484,1.3125
	c0.0839844-0.1914063,0.1977539-0.3676758,0.3652344-0.4921875c0.0078125-0.0429688,0.0161133-0.0820313,0.0219727-0.1171875
	l-0.0073242,0.0048828c-0.3696289,0-0.8388672-0.1689453-0.8374023-0.699707c-0.0019531-0.0297852-0.0019531-0.0664063,0-0.0820313
	c0.0791016-0.612793,0.6669922-0.9575195,1.0419922-1.1445313l0.1933594-3.5517578l0.3120117-0.0058594l0.3413086,3.6157227
	c0.3662109,0.2070313,0.8632813,0.5419922,0.921875,1.0898438c0,0.0263672,0.0019531,0.0566406,0.0019531,0.0786133
	c0,0.5258789-0.46875,0.6992188-0.8291016,0.6992188h-0.0063477c0.0053711,0.0332031,0.0151367,0.0776367,0.0151367,0.112793
	c0.171875,0.1289063,0.2880859,0.3046875,0.3637695,0.4995117c0.637207-0.1987305,1.7592773-0.6201172,2.3666992-1.2353516
	l0.4541016-3.2016602L23.2607422,5l0.2255859,0.2207031l-2.0195313,2.4921875l-0.4443359,3.1767578l-0.0449219,0.0576172
	c-0.7597656,0.8320313-1.8876953,1.2924805-2.6005859,1.5327148l0.6132813,0.6000977
	c1.9794922-0.5307617,5.0332031-1.2304688,7.2412109-1.2319336c1.2734375,0.015625,2.3027344,0.215332,2.6767578,0.9741211
	C28.9716797,12.953125,29,13.0917969,29,13.2299805C28.8769531,14.6621094,25.7919922,14.8710938,22.7158203,14.9204102z"/>
</svg>
