<?xml version="1.0" encoding="utf-8"?>
<!-- Generator: Adobe Illustrator 16.0.3, SVG Export Plug-In . SVG Version: 6.00 Build 0)  -->
<!DOCTYPE svg PUBLIC "-//W3C//DTD SVG 1.1//EN" "http://www.w3.org/Graphics/SVG/1.1/DTD/svg11.dtd">
<svg version="1.1" id="Natural_Disaster_-_Incident"
	 xmlns="http://www.w3.org/2000/svg" xmlns:xlink="http://www.w3.org/1999/xlink" x="0px" y="0px" width="24px" height="24px"
	 viewBox="0 0 24 24" enable-background="new 0 0 24 24" xml:space="preserve">
<circle fill="#424243" cx="12" cy="12" r="12"/>
<path fill="#FFFFFF" d="M11.9995117,23c-6.065918,0-10.9985352-4.9355469-10.9985352-11.0004883
	c0-6.0664063,4.9326172-10.9990234,10.9985352-10.9990234s11.0014648,4.9326172,11.0014648,10.9990234
	C23.0009766,18.0644531,18.0654297,23,11.9995117,23z"/>
<polygon fill="#424243" points="14.2480469,13 10.5625,13 9,17 11,16.9990234 11,21 15,15 13,15 "/>
<path fill="#424243" d="M18.9990234,7.9067383c-0.0273438-0.0966797-0.0566406-0.1879883-0.0976563-0.28125V7.6152344h-0.0009766
	c-0.4755859-1.2241211-1.6816406-2.0942383-3.1044922-2.0942383c-0.3984375,0-0.7802734,0.0742188-1.1347656,0.1987305
	C14.0849609,4.1347656,12.5356445,3,10.7114258,3C8.6308594,3,6.90625,4.4794922,6.578125,6.4169922l0,0V6.421875
	c-0.0356445,0.215332-0.0551758,0.4375-0.0551758,0.6621094H6.578125v0.0019531
	c-0.0180664,0-0.0361328-0.0019531-0.0551758-0.0019531C5.1298828,7.0839844,4,8.1835938,4,9.5415039
	c0,1.355957,1.1298828,2.4580078,2.5229492,2.4580078h2.6464844h1.5053711h3.5273438h1.5117188h3.1875l0,0
	C20.0615234,11.9946289,21,11.0791016,21,9.9511719C21,8.8515625,20.1123047,7.9570313,18.9990234,7.9067383z"/>
</svg>
