<?xml version="1.0" encoding="utf-8"?>
<!-- Generator: Adobe Illustrator 16.0.3, SVG Export Plug-In . SVG Version: 6.00 Build 0)  -->
<!DOCTYPE svg PUBLIC "-//W3C//DTD SVG 1.1//EN" "http://www.w3.org/Graphics/SVG/1.1/DTD/svg11.dtd">
<svg version="1.1" id="Neighborhood_Police_Problem_-_In_Progress"
	 xmlns="http://www.w3.org/2000/svg" xmlns:xlink="http://www.w3.org/1999/xlink" x="0px" y="0px" width="34px" height="34px"
	 viewBox="0 0 34 34" enable-background="new 0 0 34 34" xml:space="preserve">
<circle fill="#FFFFFF" cx="17" cy="17" r="17"/>
<path fill="#CFAD33" d="M17.001,32c-8.271,0-15-6.732-15-15.002C2.001,8.73,8.73,2,17.001,2c8.271,0,15,6.73,15,14.998
	C32.001,25.268,25.272,32,17.001,32z"/>
<path fill="#FED53F" d="M17.001,31C9.28,31,3,24.721,3,17S9.28,3,17.001,3C24.721,3,31,9.279,31,17S24.721,31,17.001,31z"/>
<path fill="#FFFFFF" d="M25.555,14.08c0.128-1.499,0.61-2.881,1.445-4.141L23.794,7c-1.006,0.8-2.159,1.24-3.461,1.319
	c-1.196,0.101-2.327-0.109-3.396-0.628c-1.09,0.499-2.223,0.708-3.397,0.628c-1.218-0.099-2.318-0.499-3.301-1.2l-3.207,2.941
	c0.791,1.281,1.228,2.62,1.314,4.02c0.043,0.64-0.16,1.529-0.61,2.669c-0.233,0.642-0.41,1.19-0.526,1.65
	c-0.118,0.46-0.188,0.83-0.209,1.11c-0.021,1.221,0.354,2.322,1.122,3.3c0.597,0.721,1.581,1.509,2.947,2.37
	c1.496,0.698,2.649,1.148,3.463,1.353c0.234,0.1,0.458,0.191,0.673,0.284c0.212,0.086,0.438,0.186,0.672,0.285
	c0.514,0.277,0.866,0.58,1.059,0.898c0.233-0.338,0.598-0.642,1.09-0.898c0.338-0.138,0.629-0.26,0.863-0.363
	c0.234-0.101,0.408-0.166,0.516-0.206c0.17-0.081,0.394-0.171,0.673-0.271c0.275-0.1,0.615-0.221,1.025-0.363
	c0.786-0.259,1.365-0.496,1.728-0.719c1.324-0.861,2.3-1.641,2.915-2.338c0.792-0.984,1.176-2.091,1.154-3.332
	c-0.043-0.559-0.298-1.451-0.765-2.671C25.683,15.659,25.492,14.74,25.555,14.08z M24.189,21.588
	c-0.277,0.311-0.983,0.963-2.448,1.915c-0.055,0.033-0.378,0.205-1.262,0.496c-0.451,0.156-0.799,0.28-1.081,0.382
	c-0.305,0.108-0.561,0.212-0.766,0.306c-0.127,0.048-0.305,0.117-0.531,0.214c-0.239,0.105-0.512,0.22-0.829,0.349l-0.086,0.036
	c0,0-0.185,0.097-0.235,0.124c-0.04-0.022-0.205-0.111-0.205-0.111l-1.575-0.667l-0.151-0.038c-0.462-0.116-1.353-0.414-2.989-1.172
	c-1.407-0.896-2.063-1.52-2.368-1.887C9.221,20.97,9,20.345,9,19.609c0.012-0.102,0.046-0.316,0.147-0.715
	c0.096-0.38,0.253-0.87,0.469-1.462c0.554-1.401,0.791-2.525,0.726-3.487c-0.073-1.179-0.351-2.334-0.83-3.446l1.004-0.921
	c0.893,0.405,1.85,0.651,2.862,0.734c0.234,0.016,0.441,0.023,0.647,0.023c0.986,0,1.955-0.163,2.893-0.485
	c0.912,0.328,1.863,0.493,2.838,0.493c0.246,0,0.494-0.01,0.745-0.031c1.082-0.065,2.111-0.337,3.064-0.809l0.925,0.847
	c-0.511,1.119-0.821,2.311-0.929,3.559c-0.092,0.97,0.14,2.168,0.709,3.647c0.498,1.303,0.608,1.866,0.632,2.057
	C24.901,20.357,24.674,20.986,24.189,21.588z"/>
</svg>
