<?xml version="1.0" encoding="utf-8"?>
<!-- Generator: Adobe Illustrator 16.0.3, SVG Export Plug-In . SVG Version: 6.00 Build 0)  -->
<!DOCTYPE svg PUBLIC "-//W3C//DTD SVG 1.1//EN" "http://www.w3.org/Graphics/SVG/1.1/DTD/svg11.dtd">
<svg version="1.1" id="Observe" xmlns="http://www.w3.org/2000/svg" xmlns:xlink="http://www.w3.org/1999/xlink" x="0px" y="0px"
	 width="40px" height="40px" viewBox="0 0 40 40" enable-background="new 0 0 40 40" xml:space="preserve">
<path opacity="0.75" fill="#FFFFFF" d="M34,15.659c0-1.006-0.095-1.984-0.273-2.932c-0.181-0.95-0.457-1.872-0.826-2.764
	c-0.366-0.895-0.799-1.729-1.299-2.508c-0.5-0.778-1.064-1.499-1.697-2.162c-0.637-0.663-1.326-1.257-2.067-1.779
	c-0.745-0.525-1.544-0.981-2.394-1.365c-0.854-0.384-1.736-0.67-2.643-0.862C21.893,1.095,20.96,1,20,1
	c-0.959,0-1.892,0.095-2.798,0.287c-0.908,0.192-1.787,0.479-2.641,0.862c-0.854,0.384-1.652,0.84-2.396,1.365
	C11.422,4.036,10.734,4.63,10.1,5.293C9.467,5.956,8.9,6.677,8.399,7.455C7.9,8.233,7.468,9.068,7.1,9.963
	c-0.367,0.892-0.641,1.814-0.825,2.764C6.091,13.675,6,14.653,6,15.659c0,1.004,0.091,1.981,0.275,2.932s0.458,1.871,0.825,2.767
	c0.316,0.769,0.683,1.498,1.097,2.183c0.417,0.686,0.881,1.326,1.395,1.924H9.588H9.585l5.205,7.269L19.995,40l5.196-7.251
	l5.188-7.247c0.522-0.604,0.993-1.251,1.413-1.94c0.421-0.692,0.792-1.429,1.109-2.204c0.369-0.896,0.646-1.816,0.826-2.767
	C33.905,17.641,34,16.663,34,15.659z"/>
<path fill="#262424" d="M31.762,13.233c-0.155-0.829-0.395-1.638-0.713-2.414c-0.316-0.782-0.695-1.526-1.131-2.213
	c-0.43-0.678-0.92-1.313-1.455-1.879c-0.551-0.582-1.15-1.103-1.779-1.551c-0.639-0.456-1.334-0.857-2.059-1.19
	c-0.721-0.327-1.475-0.576-2.238-0.739C21.621,3.083,20.818,3,20.001,3c-0.819,0-1.621,0.083-2.386,0.247
	c-0.764,0.163-1.515,0.411-2.231,0.738c-0.732,0.334-1.428,0.735-2.068,1.192c-0.63,0.448-1.225,0.968-1.77,1.546
	c-0.542,0.573-1.034,1.206-1.463,1.885C9.654,9.285,9.272,10.03,8.95,10.824c-0.314,0.772-0.554,1.584-0.711,2.413
	C8.081,14.067,8,14.938,8,15.823c0,0.884,0.082,1.754,0.239,2.587c0.158,0.824,0.397,1.637,0.711,2.414
	c0.277,0.682,0.6,1.331,0.957,1.93c0.359,0.598,0.763,1.162,1.202,1.68l2.368,3.348L19.995,37l8.812-12.464l0.061-0.069
	c0.443-0.52,0.854-1.09,1.213-1.689c0.371-0.62,0.695-1.273,0.973-1.957c0.314-0.773,0.554-1.582,0.709-2.405
	C31.92,17.572,32,16.7,32,15.823C32,14.944,31.92,14.072,31.762,13.233z"/>
<path fill="#424243" d="M30.779,13.336c-0.145-0.756-0.363-1.495-0.656-2.203c-0.293-0.72-0.645-1.403-1.047-2.035
	c-0.395-0.617-0.844-1.193-1.334-1.708c-0.506-0.529-1.057-1.005-1.635-1.413c-0.588-0.417-1.225-0.783-1.893-1.086
	c-0.654-0.296-1.34-0.52-2.035-0.667C21.48,4.076,20.748,4,20,4c-0.749,0-1.481,0.076-2.179,0.224
	c-0.694,0.147-1.377,0.371-2.027,0.665c-0.674,0.305-1.313,0.672-1.904,1.09c-0.576,0.406-1.122,0.88-1.622,1.406
	c-0.498,0.521-0.949,1.099-1.344,1.716c-0.396,0.623-0.749,1.307-1.049,2.039c-0.288,0.703-0.509,1.443-0.654,2.202
	C9.074,14.104,9,14.903,9,15.717c0,0.813,0.074,1.611,0.221,2.377c0.145,0.75,0.365,1.492,0.654,2.201
	c0.259,0.633,0.558,1.23,0.887,1.775c0.329,0.544,0.702,1.061,1.106,1.536l3.556,4.979L19.994,35l7.999-11.223l0.117-0.144
	c0.408-0.473,0.783-0.99,1.115-1.54c0.342-0.564,0.645-1.171,0.902-1.804c0.291-0.705,0.51-1.442,0.652-2.19
	C30.926,17.326,31,16.524,31,15.717C31,14.906,30.926,14.105,30.779,13.336z"/>
<path fill="#FFFFFF" d="M18,7h-3v2h3V7L18,7z"/>
<path fill="#FFFFFF" d="M22.521,16.65c-0.286,0-0.521-0.238-0.521-0.532V10h4.001L28,18.253l-0.009,0.54v3.69
	c0,0.283-0.227,0.517-0.507,0.517h-3.936C23.269,23,23,22.767,23,22.483V16.65h-0.443"/>
<path fill="#FFFFFF" d="M17.478,16.646c0.29,0,0.522-0.234,0.522-0.528V10h-4l-2,8.254l0.009,0.545v3.687
	c0,0.281,0.228,0.515,0.506,0.515h3.934c0.284,0,0.55-0.233,0.55-0.515v-5.84h0.44"/>
<path fill="#FFFFFF" d="M21,10h-2v6h2V10z"/>
<path fill="#FFFFFF" d="M25,7h-3v2h3V7z"/>
</svg>
