<?xml version="1.0" encoding="utf-8"?>
<!-- Generator: Adobe Illustrator 16.0.3, SVG Export Plug-In . SVG Version: 6.00 Build 0)  -->
<!DOCTYPE svg PUBLIC "-//W3C//DTD SVG 1.1//EN" "http://www.w3.org/Graphics/SVG/1.1/DTD/svg11.dtd">
<svg version="1.1" id="On_Street_Parking" xmlns="http://www.w3.org/2000/svg" xmlns:xlink="http://www.w3.org/1999/xlink" x="0px"
	 y="0px" width="12px" height="12px" viewBox="0 0 12 12" enable-background="new 0 0 12 12" xml:space="preserve">
<path opacity="0.75" fill="#FFFFFF" d="M6,12c-3.3076172,0-6-2.6894531-6-6c0-3.3076172,2.6923828-6,6-6
	c3.3105469,0,6,2.6923828,6,6C12,9.3105469,9.3105469,12,6,12z"/>
<path fill="#01228F" d="M10,6c0,2.2119141-1.7880859,4-4,4c-2.2089844,0-4-1.7880859-4-4c0-2.2089844,1.7910156-4,4-4
	C8.2119141,2,10,3.7910156,10,6z"/>
<path fill="#344EA5" d="M6.0004883,9.0019531c-1.6523438,0-2.9985352-1.3476563-2.9985352-3.0014648
	c0-1.6523438,1.3461914-2.9985352,2.9985352-2.9985352c1.6538086,0,3.0014648,1.3461914,3.0014648,2.9985352
	C9.0019531,7.6542969,7.6542969,9.0019531,6.0004883,9.0019531z"/>
</svg>
