<?xml version="1.0" encoding="utf-8"?>
<!-- Generator: Adobe Illustrator 16.0.3, SVG Export Plug-In . SVG Version: 6.00 Build 0)  -->
<!DOCTYPE svg PUBLIC "-//W3C//DTD SVG 1.1//EN" "http://www.w3.org/Graphics/SVG/1.1/DTD/svg11.dtd">
<svg version="1.1" id="Park_Tree_Problem_-_Complete"
	 xmlns="http://www.w3.org/2000/svg" xmlns:xlink="http://www.w3.org/1999/xlink" x="0px" y="0px" width="34px" height="34px"
	 viewBox="0 0 34 34" enable-background="new 0 0 34 34" xml:space="preserve">
<circle fill="#FFFFFF" cx="17" cy="17" r="17"/>
<path fill="#00984E" d="M17.001,32c-8.271,0-15-6.732-15-15.002C2.001,8.73,8.73,2,17.001,2c8.271,0,15,6.73,15,14.998
	C32.001,25.268,25.272,32,17.001,32z"/>
<path fill="#00BF63" d="M17.001,31C9.28,31,3,24.721,3,17S9.28,3,17.001,3C24.721,3,31,9.279,31,17S24.721,31,17.001,31z"/>
<g>
	<path fill="#FFFFFF" d="M29,17.432c-0.592-0.496-1.506-1.407-2.736-2.733c-0.575-0.808-0.924-1.539-1.057-2.19
		c0.065,0,0.276-0.111,0.627-0.337c0.351-0.225,0.594-0.35,0.726-0.371c-0.548-0.383-1.353-1.036-2.41-1.956
		C23.493,9.261,22.557,7.979,21.351,6c0.039,3.935-0.387,6.599-1.289,7.992c0.218-0.023,0.493-0.056,0.823-0.102
		c0.266-0.111,0.553-0.214,0.86-0.305c-0.024,0.629-0.19,1.564-0.497,2.8c-0.134,0.518-0.679,1.687-1.648,3.507
		c0.482-0.045,1.229-0.19,2.241-0.438c0.463-0.201,1.288-1.027,1.859-1.454c0.199,1.122,0.3,2.045,0.3,2.765C24,21.234,24,22,24,23
		h-7l-1-2h2v-1h-2l-1-3h-2l1,3h-2l1-3h-2l-1,3H8v1h2.062L9,23H7v2h20v-2h-2c0-1-0.023-0.481,0-1c0.046-0.741,0.046-2.18,0-4
		c0.373,0.133,1.207,0.205,2.087,0.072C27.903,17.959,28.539,17.745,29,17.432z"/>
	<rect x="7" y="18" fill="#FFFFFF" width="2" height="1"/>
	<rect x="9" y="16" fill="#FFFFFF" width="8" height="1"/>
	<polygon fill="#00BF63" points="15,23 11,23 12,21 14,21 	"/>
	<rect x="17" y="18" fill="#FFFFFF" width="2" height="1"/>
</g>
</svg>
