<?xml version="1.0" encoding="utf-8"?>
<!-- Generator: Adobe Illustrator 16.0.3, SVG Export Plug-In . SVG Version: 6.00 Build 0)  -->
<!DOCTYPE svg PUBLIC "-//W3C//DTD SVG 1.1//EN" "http://www.w3.org/Graphics/SVG/1.1/DTD/svg11.dtd">
<svg version="1.1" id="Pesticide_Discharge_Permit" xmlns="http://www.w3.org/2000/svg" xmlns:xlink="http://www.w3.org/1999/xlink"
	 x="0px" y="0px" width="40px" height="40px" viewBox="0 0 40 40" enable-background="new 0 0 40 40" xml:space="preserve">
<path opacity="0.75" fill="#FFFFFF" enable-background="new    " d="M34,15.659c0-1.006-0.093-1.983-0.273-2.933
	c-0.182-0.949-0.456-1.872-0.826-2.764c-0.365-0.894-0.799-1.729-1.299-2.507c-0.499-0.779-1.064-1.5-1.696-2.162
	c-0.638-0.663-1.326-1.257-2.069-1.78c-0.744-0.524-1.542-0.979-2.393-1.364c-0.855-0.384-1.736-0.671-2.643-0.862
	C21.893,1.095,20.961,1,20.001,1s-1.893,0.095-2.798,0.287c-0.908,0.191-1.788,0.479-2.641,0.862
	c-0.854,0.385-1.652,0.84-2.396,1.364c-0.744,0.522-1.432,1.117-2.064,1.78C9.467,5.956,8.9,6.677,8.4,7.456
	c-0.5,0.778-0.932,1.613-1.3,2.507c-0.367,0.892-0.642,1.814-0.825,2.764C6.092,13.676,6,14.653,6,15.659
	c0,1.004,0.092,1.981,0.275,2.933c0.183,0.949,0.458,1.87,0.825,2.765c0.316,0.77,0.683,1.499,1.098,2.184
	c0.416,0.685,0.881,1.326,1.395,1.924H9.589H9.585l5.205,7.268L19.995,40l5.194-7.252l5.189-7.247
	c0.521-0.603,0.992-1.25,1.412-1.939c0.42-0.692,0.792-1.428,1.109-2.205c0.37-0.895,0.645-1.815,0.826-2.765
	C33.907,17.641,34,16.664,34,15.659z"/>
<path fill="#1873CD" d="M31.762,13.233c-0.156-0.829-0.395-1.637-0.713-2.414c-0.315-0.782-0.695-1.526-1.131-2.213
	c-0.429-0.678-0.92-1.312-1.454-1.879c-0.552-0.582-1.15-1.103-1.779-1.551c-0.639-0.456-1.334-0.857-2.06-1.19
	c-0.721-0.328-1.474-0.576-2.237-0.74C21.621,3.083,20.818,3,20.001,3c-0.819,0-1.621,0.083-2.386,0.247
	c-0.764,0.164-1.515,0.412-2.231,0.738c-0.732,0.334-1.428,0.735-2.068,1.193c-0.63,0.448-1.225,0.967-1.77,1.546
	c-0.542,0.573-1.034,1.206-1.462,1.884c-0.429,0.677-0.811,1.422-1.133,2.216c-0.314,0.773-0.554,1.584-0.711,2.413
	C8.081,14.068,8,14.938,8,15.823c0,0.884,0.081,1.754,0.239,2.587c0.157,0.824,0.396,1.637,0.711,2.414
	c0.277,0.682,0.6,1.332,0.957,1.93c0.359,0.598,0.763,1.162,1.203,1.68l2.368,3.348L19.995,37l8.812-12.463l0.061-0.07
	c0.444-0.52,0.854-1.09,1.214-1.689c0.371-0.619,0.695-1.273,0.973-1.957c0.313-0.773,0.553-1.582,0.708-2.405
	C31.92,17.572,32,16.701,32,15.823C32,14.944,31.92,14.072,31.762,13.233z"/>
<path fill="#1F8FFF" d="M30.779,13.336c-0.145-0.755-0.363-1.495-0.656-2.203c-0.293-0.72-0.645-1.403-1.047-2.034
	c-0.395-0.618-0.844-1.194-1.334-1.709c-0.506-0.529-1.057-1.005-1.635-1.413c-0.588-0.416-1.225-0.782-1.893-1.085
	c-0.654-0.296-1.34-0.52-2.035-0.667C21.48,4.076,20.748,4,20,4c-0.749,0-1.482,0.076-2.179,0.224
	c-0.695,0.148-1.377,0.371-2.027,0.665c-0.674,0.305-1.314,0.672-1.904,1.09c-0.577,0.407-1.122,0.88-1.623,1.407
	c-0.498,0.521-0.949,1.099-1.343,1.717c-0.397,0.622-0.75,1.306-1.049,2.038c-0.288,0.703-0.509,1.443-0.655,2.202
	C9.074,14.104,9,14.903,9,15.717c0,0.813,0.074,1.611,0.221,2.377c0.144,0.75,0.365,1.492,0.654,2.201
	c0.259,0.633,0.557,1.23,0.887,1.775c0.329,0.545,0.702,1.061,1.106,1.536l3.555,4.979L19.994,35l7.998-11.223l0.117-0.144
	c0.408-0.473,0.783-0.99,1.115-1.539c0.342-0.565,0.645-1.172,0.902-1.805c0.291-0.705,0.51-1.442,0.652-2.19
	C30.926,17.326,31,16.525,31,15.717C31,14.907,30.926,14.106,30.779,13.336z"/>
<line fill="none" stroke="#FFFFFF" stroke-width="0.9562" x1="23" y1="13" x2="16" y2="9"/>
<circle fill="#FFFFFF" cx="22.5" cy="12.5" r="0.5"/>
<circle fill="#FFFFFF" cx="21.5" cy="14.5" r="0.5"/>
<circle fill="#FFFFFF" cx="23.5" cy="14.5" r="0.5"/>
<circle fill="#FFFFFF" cx="24.5" cy="12.5" r="0.5"/>
<circle fill="#FFFFFF" cx="25.5" cy="14.5" r="0.5"/>
<circle fill="#FFFFFF" cx="22.5" cy="16.5" r="0.5"/>
<circle fill="#FFFFFF" cx="24.5" cy="16.5" r="0.5"/>
<path fill="#FFFFFF" d="M17,12c-0.262,0-0.613,0-1,0v-2V9c-0.131-0.382-0.627-0.845-1-1h-1c-0.373,0.155-0.869,0.618-1,1v1v2
	c-0.338,0-1,0.772-1,1c0,2.099,0,6.07,0,8c0,0.227,0.662,1,1,1c0.951,0,3.352,0,4,0c0.337,0,1-0.773,1-1c0-1.93,0-5.901,0-8
	C18,12.772,17.337,12,17,12z"/>
<path fill="#FFFFFF" d="M28,20.99v-1.777c-0.454,0.684-0.922,1.023-1.401,1.023c-0.619,0-1.124-0.412-1.52-1.236
	c-0.438,0.824-0.939,1.236-1.505,1.236c-0.481,0-0.991-0.412-1.53-1.236c-0.395,0.824-0.896,1.236-1.507,1.236
	c-0.103,0-0.22-0.032-0.353-0.097c-0.134-0.064-0.27-0.153-0.406-0.271c-0.137-0.115-0.272-0.248-0.405-0.396
	c-0.134-0.147-0.25-0.306-0.354-0.474v1.912c0.087,0.143,0.192,0.278,0.315,0.406c0.124,0.128,0.253,0.24,0.386,0.336
	c0.133,0.098,0.271,0.176,0.412,0.232c0.141,0.059,0.277,0.088,0.405,0.088h0.052c0.602,0,1.086-0.355,1.455-1.063
	c0.444,0.707,0.951,1.063,1.517,1.063h0.052c0.669,0,1.158-0.361,1.467-1.08c0.352,0.693,0.854,1.055,1.505,1.08
	C27.063,21.975,27.537,21.646,28,20.99z"/>
</svg>
