<?xml version="1.0" encoding="utf-8"?>
<!-- Generator: Adobe Illustrator 16.0.3, SVG Export Plug-In . SVG Version: 6.00 Build 0)  -->
<!DOCTYPE svg PUBLIC "-//W3C//DTD SVG 1.1//EN" "http://www.w3.org/Graphics/SVG/1.1/DTD/svg11.dtd">
<svg version="1.1" id="Power_Failure" xmlns="http://www.w3.org/2000/svg" xmlns:xlink="http://www.w3.org/1999/xlink" x="0px"
	 y="0px" width="40px" height="40px" viewBox="0 0 40 40" enable-background="new 0 0 40 40" xml:space="preserve">
<path opacity="0.75" fill="#FFFFFF" d="M34,15.659c0-1.006-0.095-1.984-0.273-2.932c-0.181-0.95-0.457-1.872-0.826-2.764
	c-0.366-0.895-0.799-1.729-1.299-2.508c-0.5-0.778-1.064-1.499-1.697-2.162c-0.637-0.663-1.326-1.257-2.067-1.779
	c-0.745-0.525-1.544-0.981-2.394-1.365c-0.854-0.384-1.736-0.67-2.643-0.862C21.893,1.095,20.96,1,20,1
	c-0.959,0-1.892,0.095-2.798,0.287c-0.908,0.192-1.787,0.479-2.641,0.862c-0.854,0.384-1.652,0.84-2.396,1.365
	C11.422,4.036,10.734,4.63,10.1,5.293C9.467,5.956,8.9,6.677,8.399,7.455C7.9,8.233,7.468,9.068,7.1,9.963
	c-0.367,0.892-0.641,1.814-0.825,2.764C6.091,13.675,6,14.653,6,15.659c0,1.004,0.091,1.981,0.275,2.932s0.458,1.871,0.825,2.767
	c0.316,0.769,0.683,1.498,1.097,2.183c0.417,0.686,0.881,1.326,1.395,1.924H9.588H9.585l5.205,7.269L19.995,40l5.196-7.251
	l5.188-7.247c0.522-0.604,0.993-1.251,1.413-1.94c0.421-0.692,0.792-1.429,1.109-2.204c0.369-0.896,0.646-1.816,0.826-2.767
	C33.905,17.641,34,16.663,34,15.659z"/>
<path fill="#AE0101" d="M31.762,13.233c-0.156-0.829-0.395-1.638-0.713-2.414c-0.316-0.782-0.695-1.526-1.131-2.213
	c-0.43-0.678-0.92-1.313-1.455-1.879c-0.551-0.582-1.15-1.103-1.779-1.551c-0.639-0.456-1.334-0.857-2.059-1.19
	c-0.721-0.327-1.475-0.576-2.238-0.739C21.621,3.083,20.818,3,20.001,3c-0.819,0-1.621,0.083-2.386,0.247
	c-0.764,0.163-1.515,0.411-2.231,0.738c-0.732,0.334-1.428,0.735-2.068,1.192c-0.63,0.448-1.225,0.968-1.77,1.546
	c-0.542,0.573-1.034,1.206-1.463,1.885C9.654,9.285,9.272,10.03,8.95,10.824c-0.314,0.772-0.554,1.584-0.711,2.413
	C8.081,14.067,8,14.938,8,15.823c0,0.884,0.081,1.754,0.239,2.587c0.157,0.824,0.396,1.637,0.711,2.414
	c0.277,0.682,0.6,1.332,0.957,1.93c0.358,0.598,0.763,1.162,1.202,1.68l2.368,3.348L19.995,37l8.812-12.463l0.061-0.07
	c0.443-0.52,0.854-1.09,1.213-1.689c0.371-0.619,0.695-1.273,0.973-1.957c0.314-0.773,0.553-1.582,0.709-2.405
	C31.92,17.572,32,16.7,32,15.823C32,14.944,31.92,14.072,31.762,13.233z"/>
<path fill="#FB3333" d="M30.779,13.336c-0.145-0.756-0.363-1.495-0.656-2.203c-0.293-0.72-0.645-1.403-1.047-2.034
	c-0.395-0.617-0.844-1.193-1.334-1.709c-0.506-0.529-1.057-1.005-1.635-1.413c-0.588-0.416-1.225-0.782-1.893-1.086
	c-0.654-0.296-1.34-0.52-2.035-0.667C21.48,4.075,20.748,4,20,4c-0.749,0-1.481,0.075-2.179,0.224
	c-0.694,0.147-1.377,0.371-2.027,0.665c-0.674,0.305-1.313,0.672-1.904,1.09c-0.576,0.406-1.122,0.88-1.622,1.406
	c-0.498,0.521-0.949,1.1-1.344,1.717c-0.396,0.622-0.749,1.307-1.049,2.038c-0.288,0.703-0.509,1.443-0.654,2.202
	C9.074,14.104,9,14.903,9,15.717c0,0.813,0.074,1.611,0.221,2.377c0.145,0.75,0.365,1.492,0.654,2.201
	c0.259,0.633,0.558,1.23,0.887,1.775s0.702,1.061,1.106,1.536l3.556,4.979L19.994,35l7.999-11.223l0.117-0.144
	c0.408-0.473,0.783-0.99,1.115-1.539c0.342-0.565,0.645-1.172,0.902-1.805c0.291-0.705,0.51-1.442,0.652-2.19
	C30.926,17.326,31,16.524,31,15.717C31,14.906,30.926,14.105,30.779,13.336z"/>
<path fill="#FFFFFF" d="M21.394,29.86c0.08-0.078,0.109-0.152,0.127-0.211c0.051-0.115,0.107-0.188,0.053-0.147
	c0.299-0.26,0.637-0.46,1.004-0.726h0.002l0.004-0.005c0.135-0.101,0.355-0.207,0.572-0.349c0.217-0.143,0.455-0.345,0.504-0.649
	c0.018-0.125-0.029-0.241-0.082-0.316c-0.057-0.072-0.107-0.117-0.15-0.153c0-0.002,0-0.002-0.002-0.004
	c0.039-0.026,0.092-0.059,0.145-0.117c0.061-0.059,0.135-0.157,0.139-0.278c0.006-0.127-0.061-0.233-0.113-0.296
	c-0.043-0.045-0.074-0.075-0.105-0.097c0.018-0.017,0.039-0.022,0.064-0.047c0.061-0.052,0.139-0.151,0.148-0.27
	c0.006-0.128-0.057-0.236-0.113-0.305c-0.059-0.066-0.115-0.107-0.16-0.14c-0.002-0.002-0.002-0.002-0.002-0.004
	c0.008-0.006,0.008-0.006,0.016-0.014c0.047-0.034,0.107-0.077,0.166-0.146c0.059-0.066,0.123-0.169,0.125-0.294
	c0.004-0.119-0.057-0.218-0.104-0.283c-0.053-0.063-0.107-0.103-0.141-0.135c-0.002-0.004-0.002-0.004-0.004-0.004
	c0.004-0.002,0.002-0.002,0.004-0.004c0.076-0.061,0.23-0.157,0.266-0.373c0.045-0.22-0.047-0.396-0.111-0.517
	c-0.027-0.048-0.043-0.084-0.061-0.121c0.061-0.032,0.119-0.076,0.172-0.137l0.002-0.002l0.006-0.004
	c0.281-0.307,0.531-0.647,0.701-1.024l0.006-0.013l0.004-0.004c0.258-0.677,0.141-1.333,0.283-1.867l0.004-0.002v-0.002
	c0.164-0.654,0.572-1.259,0.947-1.92l0,0l0,0c0.186-0.337,0.406-0.674,0.609-1.035c0,0,0-0.003,0.002-0.003
	c0.531-0.914,1.15-1.848,1.432-2.92c0-0.004,0.002-0.005,0.002-0.007c0.594-2.067,0.105-4.355-1.344-6.062
	c-0.002-0.004-0.004-0.006-0.008-0.01c-0.57-0.728-1.334-1.298-2.135-1.765l0,0c-0.498-0.289-1.033-0.453-1.525-0.63l0,0h-0.002
	c-0.686-0.242-1.402-0.359-2.109-0.43l0,0h-0.002C20.473,6.008,20.318,6,20.165,6l0,0c-0.457-0.004-0.902,0.05-1.328,0.107
	c-0.004,0-0.004,0-0.008,0c-1.183,0.128-2.299,0.54-3.283,1.104L15.54,7.214l-0.004,0.005c-0.234,0.145-0.436,0.297-0.637,0.424
	h-0.001c-0.563,0.361-1.002,0.829-1.386,1.302c-0.004,0.004-0.007,0.006-0.01,0.011h0.001c-0.343,0.386-0.57,0.811-0.799,1.203
	l-0.005,0.01l-0.006,0.012c-0.331,0.708-0.556,1.461-0.67,2.221l-0.001,0.009v0.009c-0.101,1.312,0.123,2.661,0.766,3.863
	c0.001,0.004,0.004,0.007,0.005,0.008c0.303,0.608,0.667,1.17,0.988,1.735l0.002,0.002l0.001,0.003
	c0.463,0.781,0.964,1.525,1.351,2.307c0,0.002,0.001,0.002,0.002,0.004c0.162,0.344,0.258,0.721,0.296,1.104v0.006l0,0.004
	c0.047,0.375,0.042,0.823,0.266,1.263c0.003,0.008,0.008,0.018,0.01,0.023c0.195,0.458,0.529,0.776,0.703,1.1
	c0.046,0.104,0.04,0.229,0.012,0.411c-0.029,0.184-0.084,0.413-0.018,0.672c0.051,0.191,0.169,0.296,0.233,0.373
	c0.017,0.021,0.02,0.028,0.029,0.04c-0.036,0.021-0.078,0.042-0.132,0.087c-0.059,0.052-0.13,0.143-0.142,0.256
	c-0.015,0.125,0.04,0.236,0.093,0.303c0.033,0.044,0.068,0.078,0.099,0.104c-0.032,0.022-0.065,0.047-0.096,0.081
	c-0.071,0.078-0.115,0.193-0.118,0.306c-0.004,0.206,0.135,0.363,0.243,0.454c-0.03,0.017-0.063,0.042-0.099,0.074
	c-0.063,0.061-0.137,0.166-0.141,0.289c-0.004,0.201,0.145,0.322,0.219,0.381c0.053,0.042,0.082,0.072,0.09,0.072
	c0,0.009,0.008,0.051,0.016,0.144c0.008,0.099,0.022,0.26,0.15,0.401c0.001,0,0.001,0.002,0.002,0.002
	c0.157,0.174,0.324,0.286,0.443,0.396l0.001,0.004l0.002,0.004c0.198,0.178,0.427,0.28,0.62,0.383
	c0.195,0.104,0.349,0.198,0.438,0.305l0.016,0.017l0.018,0.016c-0.007-0.006,0.033,0.068,0.087,0.191
	c0.027,0.064,0.062,0.142,0.135,0.222c0.072,0.077,0.197,0.151,0.332,0.172L18.954,30h0.011"/>
<rect x="17" y="23" fill="#FB3333" width="6" height="1"/>
<rect x="17" y="25" fill="#FB3333" width="6" height="1"/>
<rect x="17" y="27" fill="#FB3333" width="6" height="1"/>
</svg>
