<?xml version="1.0" encoding="utf-8"?>
<!-- Generator: Adobe Illustrator 16.0.3, SVG Export Plug-In . SVG Version: 6.00 Build 0)  -->
<!DOCTYPE svg PUBLIC "-//W3C//DTD SVG 1.1//EN" "http://www.w3.org/Graphics/SVG/1.1/DTD/svg11.dtd">
<svg version="1.1" id="Power_Distribution" xmlns="http://www.w3.org/2000/svg" xmlns:xlink="http://www.w3.org/1999/xlink" x="0px"
	 y="0px" width="34px" height="34px" viewBox="0 0 34 34" enable-background="new 0 0 34 34" xml:space="preserve">
<circle fill="#FFFFFF" cx="17" cy="17" r="15"/>
<path fill="#BF9004" d="M17,30C9.832,30,4,24.167,4,17S9.832,4,17,4c7.167,0,13,5.832,13,13S24.168,30,17,30z"/>
<path fill="#F3B705" d="M17,29c-6.617,0-12-5.383-12-12c0-6.617,5.383-12,12-12c6.617,0,12,5.383,12,12C29,23.617,23.617,29,17,29z"
	/>
<path fill="#FFFFFF" d="M20.894,12C20.96,11.725,21,11.398,21,11c0-3-0.447-3-1-3s-1,0-1,3c0,0.398,0.041,0.725,0.106,1h-4.213
	C14.959,11.725,15,11.398,15,11c0-3-0.447-3-1-3s-1,0-1,3c0,0.398,0.041,0.725,0.106,1H11c0,0.875,0,1.836,0,2.625
	c0,2.758,1.671,3.883,4,4.236V20h1v2h2v-2h1v-1.139c2.328-0.354,4-1.479,4-4.236c0-0.789,0-1.75,0-2.625H20.894z"/>
<path fill="none" stroke="#FFFFFF" stroke-width="2" stroke-miterlimit="10" d="M17,21c0,0.425,0.438,5,5,5"/>
</svg>
