<?xml version="1.0" encoding="utf-8"?>
<!-- Generator: Adobe Illustrator 16.0.3, SVG Export Plug-In . SVG Version: 6.00 Build 0)  -->
<!DOCTYPE svg PUBLIC "-//W3C//DTD SVG 1.1//EN" "http://www.w3.org/Graphics/SVG/1.1/DTD/svg11.dtd">
<svg version="1.1" id="Pressure_Reducing_Valve_-_Green_Infrastructure"
	 xmlns="http://www.w3.org/2000/svg" xmlns:xlink="http://www.w3.org/1999/xlink" x="0px" y="0px" width="40px" height="40px"
	 viewBox="0 0 40 40" enable-background="new 0 0 40 40" xml:space="preserve">
<path opacity="0.75" fill="#FFFFFF" d="M33.971,15.669c0-1.004-0.094-1.979-0.272-2.926c-0.181-0.948-0.456-1.868-0.824-2.759
	c-0.365-0.893-0.797-1.726-1.296-2.503c-0.499-0.776-1.063-1.496-1.694-2.157c-0.636-0.661-1.323-1.255-2.063-1.775
	c-0.743-0.523-1.54-0.979-2.388-1.362c-0.854-0.383-1.733-0.669-2.638-0.86C21.889,1.135,20.958,1.04,20,1.04
	c-0.958,0-1.888,0.095-2.792,0.286c-0.906,0.191-1.784,0.478-2.636,0.86c-0.852,0.384-1.649,0.839-2.391,1.362
	c-0.742,0.521-1.429,1.114-2.061,1.775S8.923,6.705,8.423,7.481c-0.498,0.777-0.929,1.61-1.297,2.503
	c-0.366,0.891-0.64,1.811-0.823,2.759c-0.184,0.946-0.275,1.922-0.275,2.926c0,1.002,0.091,1.978,0.275,2.926
	s0.457,1.867,0.823,2.761c0.316,0.768,0.682,1.495,1.095,2.179c0.416,0.684,0.879,1.323,1.392,1.92H9.609H9.606l5.194,7.253
	l5.194,7.253l5.185-7.236l5.177-7.232c0.521-0.602,0.991-1.248,1.41-1.936c0.42-0.691,0.79-1.426,1.107-2.2
	c0.368-0.894,0.644-1.813,0.824-2.761C33.877,17.646,33.971,16.671,33.971,15.669z"/>
<path fill="#38673D" d="M31.762,13.229c-0.156-0.829-0.395-1.638-0.713-2.414c-0.316-0.782-0.695-1.526-1.131-2.213
	c-0.43-0.678-0.92-1.313-1.455-1.879c-0.551-0.582-1.15-1.103-1.779-1.551c-0.639-0.456-1.334-0.857-2.059-1.19
	c-0.721-0.327-1.475-0.576-2.238-0.739c-0.766-0.164-1.568-0.247-2.386-0.247c-0.819,0-1.621,0.083-2.386,0.247
	c-0.764,0.163-1.515,0.411-2.231,0.738c-0.732,0.334-1.428,0.735-2.068,1.192c-0.63,0.448-1.225,0.968-1.77,1.546
	c-0.542,0.573-1.034,1.206-1.463,1.885C9.654,9.281,9.272,10.026,8.95,10.82c-0.314,0.772-0.554,1.584-0.711,2.413
	C8.081,14.063,8,14.934,8,15.819c0,0.884,0.081,1.754,0.239,2.587c0.157,0.824,0.396,1.637,0.711,2.414
	c0.277,0.682,0.6,1.332,0.957,1.93c0.358,0.598,0.763,1.162,1.202,1.68l2.368,3.348l6.518,9.219l8.812-12.463l0.061-0.07
	c0.443-0.52,0.854-1.09,1.213-1.689c0.371-0.619,0.695-1.273,0.973-1.957c0.314-0.773,0.553-1.582,0.709-2.405
	C31.92,17.568,32,16.696,32,15.819C32,14.94,31.92,14.068,31.762,13.229z"/>
<path fill="#359A40" d="M30.779,13.332c-0.145-0.756-0.363-1.495-0.656-2.203c-0.293-0.72-0.645-1.403-1.047-2.034
	c-0.395-0.617-0.844-1.193-1.334-1.709c-0.506-0.529-1.057-1.005-1.635-1.413c-0.588-0.416-1.225-0.782-1.893-1.086
	c-0.654-0.296-1.34-0.52-2.035-0.667C21.48,4.071,20.748,3.996,20,3.996c-0.749,0-1.481,0.075-2.179,0.224
	c-0.694,0.147-1.377,0.371-2.027,0.665c-0.674,0.305-1.313,0.672-1.904,1.09c-0.576,0.406-1.122,0.88-1.622,1.406
	c-0.498,0.521-0.949,1.1-1.344,1.717c-0.396,0.622-0.749,1.307-1.049,2.038c-0.288,0.703-0.509,1.443-0.654,2.202
	C9.074,14.101,9,14.899,9,15.713c0,0.813,0.074,1.611,0.221,2.377c0.145,0.75,0.365,1.492,0.654,2.201
	c0.259,0.633,0.558,1.23,0.887,1.775s0.702,1.061,1.106,1.536l3.556,4.979l4.57,6.415l7.998-11.223l0.117-0.144
	c0.408-0.473,0.783-0.99,1.115-1.539c0.342-0.565,0.645-1.172,0.902-1.805c0.291-0.705,0.51-1.442,0.652-2.19
	C30.926,17.322,31,16.521,31,15.713C31,14.902,30.926,14.102,30.779,13.332z"/>
<path fill="#FFFFFF" d="M13.737,17.226h-1.309v1.931c0,0.277-0.068,0.486-0.201,0.63C12.091,19.931,11.923,20,11.718,20
	c-0.215,0-0.389-0.069-0.52-0.214C11.066,19.647,11,19.439,11,19.169V13.91c0-0.303,0.071-0.521,0.218-0.65
	c0.143-0.13,0.371-0.195,0.687-0.195h1.833c0.542,0,0.959,0.039,1.25,0.121c0.289,0.077,0.538,0.206,0.749,0.387
	c0.21,0.179,0.371,0.4,0.479,0.662c0.108,0.26,0.162,0.552,0.162,0.878c0,0.694-0.221,1.22-0.662,1.576
	C15.272,17.049,14.613,17.226,13.737,17.226z M13.39,14.103h-0.961v2.083h0.961c0.338,0,0.621-0.033,0.844-0.103
	c0.228-0.068,0.398-0.18,0.519-0.335c0.119-0.154,0.176-0.356,0.176-0.608c0-0.303-0.091-0.545-0.272-0.736
	C14.451,14.203,14.029,14.103,13.39,14.103z"/>
<path fill="#FFFFFF" d="M18.93,16.966h-0.501v2.19c0,0.292-0.065,0.5-0.195,0.639C18.102,19.935,17.929,20,17.718,20
	c-0.227,0-0.402-0.069-0.529-0.214C17.064,19.643,17,19.434,17,19.156V13.91c0-0.298,0.071-0.511,0.208-0.645
	c0.137-0.135,0.36-0.2,0.669-0.2H20.2c0.321,0,0.594,0.013,0.823,0.039c0.229,0.026,0.434,0.082,0.617,0.162
	c0.221,0.089,0.413,0.217,0.584,0.384c0.171,0.168,0.3,0.362,0.387,0.584c0.09,0.223,0.133,0.457,0.133,0.705
	c0,0.51-0.148,0.916-0.445,1.219c-0.296,0.303-0.748,0.52-1.347,0.646c0.251,0.131,0.493,0.326,0.728,0.578
	c0.227,0.253,0.434,0.527,0.613,0.81c0.186,0.29,0.324,0.549,0.426,0.779c0.1,0.231,0.148,0.39,0.148,0.479
	s-0.026,0.177-0.088,0.264c-0.061,0.093-0.137,0.161-0.243,0.211C22.438,19.972,22.315,20,22.182,20
	c-0.16,0-0.297-0.035-0.405-0.108c-0.108-0.072-0.202-0.163-0.282-0.275c-0.074-0.111-0.186-0.275-0.314-0.497L20.604,18.2
	c-0.206-0.34-0.388-0.597-0.552-0.771c-0.16-0.18-0.325-0.297-0.492-0.366C19.394,17.002,19.183,16.966,18.93,16.966z
	 M19.747,14.103h-1.318v1.875h1.28c0.343,0,0.631-0.029,0.866-0.087c0.233-0.058,0.415-0.154,0.536-0.293
	c0.123-0.139,0.185-0.327,0.185-0.569c0-0.191-0.047-0.357-0.149-0.5c-0.098-0.146-0.235-0.252-0.412-0.323
	C20.567,14.136,20.237,14.103,19.747,14.103z"/>
<path fill="#FFFFFF" d="M25.52,13.854l1.598,4.576l1.604-4.606c0.079-0.242,0.145-0.411,0.188-0.506
	c0.038-0.095,0.11-0.178,0.206-0.254c0.092-0.077,0.224-0.115,0.391-0.115c0.126,0,0.24,0.03,0.342,0.089
	c0.102,0.058,0.186,0.138,0.246,0.234c0.061,0.1,0.088,0.196,0.088,0.295c0,0.069-0.01,0.143-0.027,0.223
	c-0.02,0.079-0.044,0.157-0.074,0.232c-0.028,0.075-0.057,0.155-0.087,0.234l-1.708,4.456c-0.061,0.17-0.118,0.334-0.182,0.486
	c-0.063,0.155-0.132,0.292-0.213,0.404c-0.077,0.117-0.186,0.213-0.316,0.288C27.441,19.963,27.278,20,27.085,20
	c-0.195,0-0.356-0.035-0.49-0.108c-0.133-0.072-0.24-0.169-0.318-0.291c-0.084-0.116-0.154-0.255-0.218-0.407
	c-0.06-0.149-0.118-0.313-0.182-0.483l-1.679-4.418c-0.029-0.08-0.056-0.161-0.092-0.236c-0.027-0.079-0.056-0.163-0.074-0.251
	C24.013,13.714,24,13.639,24,13.575c0-0.158,0.069-0.301,0.198-0.431c0.131-0.13,0.297-0.196,0.497-0.196
	c0.245,0,0.413,0.071,0.517,0.218C25.312,13.308,25.416,13.538,25.52,13.854z"/>
</svg>
