<?xml version="1.0" encoding="utf-8"?>
<!-- Generator: Adobe Illustrator 16.0.3, SVG Export Plug-In . SVG Version: 6.00 Build 0)  -->
<!DOCTYPE svg PUBLIC "-//W3C//DTD SVG 1.1//EN" "http://www.w3.org/Graphics/SVG/1.1/DTD/svg11.dtd">
<svg version="1.1" id="Private_Security" xmlns="http://www.w3.org/2000/svg" xmlns:xlink="http://www.w3.org/1999/xlink" x="0px"
	 y="0px" width="34px" height="34px" viewBox="0 0 34 34" enable-background="new 0 0 34 34" xml:space="preserve">
<circle fill="#FFFFFF" cx="17" cy="17" r="15"/>
<path fill="#253659" d="M17,30C9.832,30,4,24.167,4,17S9.832,4,17,4c7.167,0,13,5.832,13,13S24.168,30,17,30z"/>
<path fill="#4564A5" d="M17,29c-6.617,0-12-5.383-12-12c0-6.617,5.383-12,12-12c6.617,0,12,5.383,12,12C29,23.617,23.617,29,17,29z"
	/>
<path fill="#FFFFFF" d="M16.5,7l8.5,3.842v5.719c0,2.654-0.81,5.072-2.438,7.261C20.94,26.012,18.92,27.404,16.5,28
	c-2.422-0.596-4.442-1.988-6.067-4.178C8.811,21.634,8,19.216,8,16.562v-5.719L16.5,7z M17,18h-1v8
	c1.744-0.561,3.722-1.598,4.927-3.16C22.138,21.275,22.766,18.995,23,17h-6V18z M17,18v-1V9l-7,3v6h6H17z"/>
</svg>
