<?xml version="1.0" encoding="utf-8"?>
<!-- Generator: Adobe Illustrator 16.0.3, SVG Export Plug-In . SVG Version: 6.00 Build 0)  -->
<!DOCTYPE svg PUBLIC "-//W3C//DTD SVG 1.1//EN" "http://www.w3.org/Graphics/SVG/1.1/DTD/svg11.dtd">
<svg version="1.1" id="Public_Health_Incident" xmlns="http://www.w3.org/2000/svg" xmlns:xlink="http://www.w3.org/1999/xlink"
	 x="0px" y="0px" width="44px" height="44px" viewBox="0 0 44 44" enable-background="new 0 0 44 44" xml:space="preserve">
<path opacity="0.75" fill="#FFFFFF" enable-background="new    " d="M38,16.5380859
	c0-1.1342773-0.1044922-2.2382813-0.3105469-3.3085938c-0.2080078-1.0708008-0.5214844-2.1113281-0.9462891-3.1186523
	c-0.4179688-1.0087891-0.9130859-1.949707-1.484375-2.8276367c-0.5693359-0.878418-1.2158203-1.6914063-1.9404297-2.4384766
	c-0.7255859-0.75-1.5146484-1.4179688-2.3613281-2.0087891c-0.8525391-0.5908203-1.7646484-1.105957-2.7353516-1.5380859
	c-0.9775391-0.4335938-1.9863281-0.7578125-3.0214844-0.9736328C24.1630859,0.1074219,23.1015625,0,22.0019531,0
	c-1.0976563,0-2.1635742,0.1074219-3.199707,0.3242188c-1.0371094,0.2158203-2.0419922,0.5400391-3.0185547,0.9736328
	c-0.9755859,0.4321289-1.8881836,0.9472656-2.7368164,1.5380859c-0.8496094,0.5908203-1.637207,1.2587891-2.3598633,2.0087891
	C9.9624023,5.5917969,9.3144531,6.4047852,8.7441406,7.2832031c-0.5727539,0.8779297-1.065918,1.8188477-1.4868164,2.8276367
	c-0.418457,1.0073242-0.7329102,2.0478516-0.9428711,3.1186523C6.1044922,14.2998047,6,15.4038086,6,16.5380859
	c0,1.1347656,0.1044922,2.2353516,0.3144531,3.3085938c0.2099609,1.0703125,0.5244141,2.1103516,0.9428711,3.1201172
	c0.3632813,0.8662109,0.7788086,1.6894531,1.2543945,2.4619141s1.0073242,1.4951172,1.5947266,2.1738281h-0.0053711h-0.0043945
	l5.9487305,8.1982422L21.9941406,44l5.9355469-8.1845703l5.9316406-8.171875
	c0.5986328-0.6806641,1.1367188-1.4111328,1.6142578-2.1875c0.4785156-0.7822266,0.9052734-1.6132813,1.2675781-2.4892578
	c0.4248047-1.0097656,0.7382813-2.0498047,0.9462891-3.1201172C37.8955078,18.7734375,38,17.6728516,38,16.5380859z"/>
<path fill="#1873CD" d="M35.7265625,13.4384766c-0.1865234-0.9262695-0.4628906-1.8320313-0.8330078-2.6987305
	c-0.3671875-0.875-0.8134766-1.706543-1.3203125-2.4741211c-0.5-0.7568359-1.0742188-1.4663086-1.6972656-2.0996094
	c-0.6435547-0.6489258-1.3427734-1.2314453-2.078125-1.7329102c-0.7412109-0.5092773-1.5556641-0.9580078-2.4003906-1.3291016
	c-0.8408203-0.3676758-1.71875-0.6459961-2.6103516-0.8271484C23.8945313,2.0927734,22.9570313,2,22.0019531,2
	c-0.9560547,0-1.8925781,0.0927734-2.7841797,0.2768555c-0.890625,0.1811523-1.7675781,0.4589844-2.6040039,0.824707
	c-0.8554688,0.3735352-1.6645508,0.8212891-2.4130859,1.3334961c-0.7348633,0.5009766-1.4272461,1.0810547-2.0654297,1.7275391
	c-0.6318359,0.6396484-1.2045898,1.3481445-1.7055664,2.105957c-0.5,0.7578125-0.9467773,1.5893555-1.3212891,2.4760742
	c-0.3662109,0.8642578-0.6469727,1.7705078-0.8300781,2.6972656C8.0922852,14.3701172,8,15.3427734,8,16.3310547
	c0,0.9897461,0.0922852,1.9599609,0.2792969,2.8925781c0.1821289,0.9208984,0.4628906,1.828125,0.8291016,2.6982422
	c0.3217773,0.7636719,0.7001953,1.4873047,1.1147461,2.1542969c0.4199219,0.671875,0.890625,1.3017578,1.4047852,1.8779297
	l2.762207,3.7412109L21.9946289,40l10.2817383-13.9277344l0.0712891-0.0800781
	c0.5175781-0.5800781,0.9951172-1.2177734,1.4150391-1.8867188c0.4335938-0.6943359,0.8105469-1.4238281,1.1347656-2.1875
	c0.3662109-0.8662109,0.6445313-1.7675781,0.8291016-2.6914063C35.9072266,18.2880859,36,17.3129883,36,16.3310547
	C36,15.3496094,35.9072266,14.375,35.7265625,13.4384766z"/>
<path fill="#1F8FFF" d="M34.7373047,13.5410156c-0.1708984-0.8540039-0.4296875-1.6879883-0.7773438-2.4873047
	c-0.3457031-0.8120117-0.7617188-1.5834961-1.234375-2.2949219c-0.4658203-0.6987305-0.9970703-1.3476563-1.5761719-1.9316406
	c-0.5996094-0.597168-1.2509766-1.1337891-1.9326172-1.5942383c-0.6943359-0.46875-1.4443359-0.8842773-2.2363281-1.2246094
	c-0.7714844-0.3359375-1.5830078-0.5883789-2.4033203-0.7548828C23.7509766,3.0864258,22.8837891,3,21.9995117,3
	c-0.8837891,0-1.7514648,0.0864258-2.5737305,0.253418c-0.8217773,0.1665039-1.628418,0.4189453-2.3959961,0.7514648
	c-0.7963867,0.34375-1.5546875,0.7592773-2.2514648,1.2304688c-0.6811523,0.4589844-1.3261719,0.9931641-1.9169922,1.5874023
	c-0.5883789,0.5888672-1.1225586,1.2407227-1.5874023,1.9379883c-0.4697266,0.7026367-0.8852539,1.4750977-1.2392578,2.3022461
	c-0.340332,0.7910156-0.6000977,1.6289063-0.7734375,2.4838867C9.0874023,14.409668,9,15.3095703,9,16.2275391
	c0,0.9174805,0.0874023,1.8237305,0.2617188,2.6845703c0.1699219,0.8457031,0.4321289,1.6826172,0.7729492,2.4833984
	c0.3056641,0.71875,0.6586914,1.3925781,1.0478516,2.0068359s0.8295898,1.1972656,1.3071289,1.734375l4.2021484,5.6210938
	L21.9916992,38l9.4526367-12.671875l0.1396484-0.1611328c0.4804688-0.53125,0.9248047-1.1152344,1.3164063-1.7382813
	c0.4052734-0.6386719,0.7597656-1.3222656,1.0644531-2.0361328c0.3447266-0.7988281,0.6044922-1.6318359,0.7724609-2.4726563
	C34.9111328,18.0473633,35,17.1411133,35,16.2275391C35,15.3134766,34.9111328,14.409668,34.7373047,13.5410156z"/>
<polygon fill="#FFFFFF" points="34,16.9980469 22.0117188,29 10,16.9980469 22.0117188,5 "/>
<path fill="#1F8FFF" d="M28.2382813,13.6791992C27.5537109,13.0629883,26.9863281,13,26,13h-7.0244141
	c-0.9394531,0-1.5268555,0.0698242-2.2329102,0.6860352C16.0361328,14.300293,16,15,16,16v5h2v-5h1v8h7v-8h1v5h2v-5
	C29,15.1796875,28.921875,14.293457,28.2382813,13.6791992z"/>
<path fill="#1F8FFF" d="M22.4311523,12c0.5717773,0,1.0600586-0.1875,1.4702148-0.5644531
	c0.40625-0.375,0.6152344-0.8544922,0.6152344-1.4355469c0-0.546875-0.2089844-1.0166016-0.6152344-1.4101563
	C23.4912109,8.1972656,23.0029297,8,22.4311523,8c-0.6054688,0-1.1020508,0.1972656-1.4941406,0.5898438
	C20.5449219,8.9833984,20.3510742,9.453125,20.3510742,10c0,0.5810547,0.1938477,1.0605469,0.5859375,1.4355469
	C21.3291016,11.8125,21.8256836,12,22.4311523,12z"/>
<path fill="#FFFFFF" d="M24.6435547,15.3242188c-0.4423828-0.5507813-1.1591797-0.5507813-1.6005859,0l-0.5458984,1.3457031
	l-0.5302734-1.3457031c-0.4423828-0.5507813-1.1601563-0.5507813-1.6025391,0c-0.4414063,0.5507813-0.4414063,1.4453125,0,1.9951172
	l0.5390625,0.6708984l1.6015625,1.9941406l1.6005859-1.9941406l0.5380859-0.6708984
	C25.0869141,16.7695313,25.0869141,15.875,24.6435547,15.3242188z"/>
</svg>
