<?xml version="1.0" encoding="utf-8"?>
<!-- Generator: Adobe Illustrator 16.0.3, SVG Export Plug-In . SVG Version: 6.00 Build 0)  -->
<!DOCTYPE svg PUBLIC "-//W3C//DTD SVG 1.1//EN" "http://www.w3.org/Graphics/SVG/1.1/DTD/svg11.dtd">
<svg version="1.1" id="Rail_Incident" xmlns="http://www.w3.org/2000/svg" xmlns:xlink="http://www.w3.org/1999/xlink" x="0px"
	 y="0px" width="44px" height="44px" viewBox="0 0 44 44" enable-background="new 0 0 44 44" xml:space="preserve">
<path opacity="0.75" fill="#FFFFFF" enable-background="new    " d="M38,16.5380859
	c0-1.1347656-0.1044922-2.237793-0.3105469-3.3085938c-0.2070313-1.0708008-0.5205078-2.1113281-0.9462891-3.1186523
	c-0.4160156-1.0092773-0.9130859-1.9501953-1.4833984-2.828125c-0.5703125-0.878418-1.2158203-1.6914063-1.9414063-2.4379883
	c-0.7265625-0.75-1.515625-1.4189453-2.3603516-2.0092773c-0.8525391-0.590332-1.765625-1.105957-2.7363281-1.5380859
	c-0.9785156-0.4335938-1.9853516-0.7578125-3.0214844-0.9731445C24.1630859,0.1074219,23.1015625,0,22.0019531,0
	c-1.0976563,0-2.1635742,0.1074219-3.199707,0.3242188c-1.0371094,0.215332-2.0424805,0.5395508-3.0180664,0.9731445
	c-0.9760742,0.4321289-1.8891602,0.9477539-2.7373047,1.5380859c-0.8500977,0.590332-1.6376953,1.2592773-2.3598633,2.0092773
	c-0.7255859,0.746582-1.3730469,1.5595703-1.9433594,2.4379883c-0.5722656,0.8779297-1.0654297,1.8188477-1.4863281,2.828125
	c-0.418457,1.0073242-0.7333984,2.0478516-0.9428711,3.1186523C6.1044922,14.300293,6,15.4033203,6,16.5380859
	c0,1.1357422,0.1044922,2.2353516,0.3144531,3.3095703c0.2094727,1.0693359,0.5244141,2.109375,0.9428711,3.1191406
	c0.362793,0.8671875,0.7788086,1.6894531,1.2539063,2.4619141c0.4760742,0.7724609,1.0078125,1.4960938,1.5947266,2.1738281
	h-0.0048828h-0.0043945l5.9487305,8.1982422L21.9941406,44l5.9355469-8.1835938l5.9316406-8.1728516
	c0.5986328-0.6806641,1.1357422-1.4111328,1.6142578-2.1884766c0.4794922-0.78125,0.9052734-1.6123047,1.2675781-2.4882813
	c0.4257813-1.0097656,0.7392578-2.0498047,0.9462891-3.1191406C37.8955078,18.7734375,38,17.6738281,38,16.5380859z"/>
<path fill="#1873CD" d="M35.7265625,13.4384766c-0.1865234-0.9267578-0.4638672-1.8330078-0.8359375-2.699707
	c-0.3642578-0.8740234-0.8095703-1.7060547-1.3183594-2.4736328C33.0742188,7.5083008,32.5,6.7993164,31.8759766,6.1655273
	c-0.6435547-0.6489258-1.3398438-1.230957-2.0771484-1.7324219c-0.7431641-0.5097656-1.5566406-0.9580078-2.4013672-1.3300781
	c-0.8398438-0.3671875-1.71875-0.6450195-2.6103516-0.8261719C23.8945313,2.0927734,22.9570313,2,22.0019531,2
	s-1.8920898,0.0927734-2.7841797,0.2768555c-0.890625,0.1811523-1.7680664,0.4584961-2.6035156,0.8237305
	c-0.8549805,0.3745117-1.6660156,0.8217773-2.4125977,1.3339844c-0.7358398,0.5014648-1.4282227,1.0810547-2.065918,1.7275391
	c-0.6333008,0.6401367-1.2060547,1.3481445-1.7060547,2.105957c-0.5004883,0.7578125-0.9462891,1.5893555-1.3222656,2.4760742
	c-0.3647461,0.8642578-0.6459961,1.7709961-0.8295898,2.6982422C8.0922852,14.3701172,8,15.3427734,8,16.3310547
	c0,0.9897461,0.0922852,1.9599609,0.2783203,2.8925781c0.1831055,0.9208984,0.4643555,1.8300781,0.8291016,2.6982422
	c0.3232422,0.7617188,0.7011719,1.4873047,1.1162109,2.15625c0.4194336,0.6679688,0.890625,1.2998047,1.4038086,1.8759766
	l2.7626953,3.7412109L21.9941406,40l10.28125-13.9277344l0.0722656-0.0800781
	c0.5166016-0.5800781,0.9951172-1.2197266,1.4150391-1.8867188c0.4345703-0.6943359,0.8115234-1.4238281,1.1337891-2.1894531
	c0.3662109-0.8623047,0.6455078-1.765625,0.8300781-2.6894531C35.9072266,18.2880859,36,17.3134766,36,16.3310547
	C36,15.3496094,35.9072266,14.375,35.7265625,13.4384766z"/>
<path fill="#1F8FFF" d="M34.7363281,13.5410156c-0.1689453-0.8535156-0.4287109-1.6879883-0.7753906-2.4873047
	c-0.3466797-0.8125-0.7617188-1.5839844-1.2353516-2.2954102c-0.4667969-0.6977539-0.9990234-1.3476563-1.578125-1.9311523
	c-0.5976563-0.597168-1.2480469-1.1333008-1.9316406-1.5947266c-0.6933594-0.46875-1.4423828-0.8837891-2.2363281-1.2246094
	c-0.7714844-0.3354492-1.5810547-0.5878906-2.4033203-0.7548828C23.7509766,3.0859375,22.8837891,3,22,3
	c-0.8847656,0-1.7519531,0.0859375-2.574707,0.2529297c-0.8217773,0.1669922-1.6279297,0.4194336-2.3959961,0.7514648
	c-0.7954102,0.34375-1.5537109,0.7592773-2.2509766,1.2304688c-0.6806641,0.4599609-1.3256836,0.9936523-1.9165039,1.5874023
	c-0.5893555,0.5888672-1.1225586,1.2412109-1.5874023,1.9379883c-0.4697266,0.703125-0.8857422,1.4750977-1.2402344,2.3022461
	c-0.340332,0.7915039-0.5996094,1.6293945-0.7729492,2.4838867C9.0878906,14.4091797,9,15.309082,9,16.2275391
	c0,0.9174805,0.0878906,1.8217773,0.2617188,2.6855469c0.1704102,0.84375,0.4311523,1.6806641,0.7724609,2.4824219
	c0.3061523,0.7177734,0.6586914,1.3916016,1.0478516,2.0058594c0.390625,0.6152344,0.8295898,1.1972656,1.3081055,1.734375
	l4.2021484,5.6210938L21.9921875,38l9.4521484-12.6728516l0.140625-0.1621094
	c0.4814453-0.53125,0.9228516-1.1152344,1.3134766-1.7353516c0.40625-0.6396484,0.7607422-1.3242188,1.0664063-2.0380859
	c0.3447266-0.7978516,0.6054688-1.6318359,0.7714844-2.4726563C34.9101563,18.0454102,35,17.1411133,35,16.2275391
	C35,15.3134766,34.9101563,14.409668,34.7363281,13.5410156z"/>
<polygon fill="#FFFFFF" points="34,16.9985352 22.0107422,29 10,16.9985352 22.0107422,5 "/>
<g>
	<path fill="#1F8FFF" d="M21,9.5117188c0-0.1469727-0.0527344-0.2675781-0.1582031-0.3652344
		C20.7358398,9.0493164,20.6186523,9,20.4882813,9c-0.1308594,0-0.2441406,0.0493164-0.3432617,0.1464844
		C20.0488281,9.2441406,20,9.3647461,20,9.5117188c0,0.1313477,0.0488281,0.2436523,0.1450195,0.3413086
		C20.2441406,9.9506836,20.3574219,10,20.4882813,10c0.1303711,0,0.2475586-0.0493164,0.3535156-0.1469727
		C20.9472656,9.7553711,21,9.6430664,21,9.5117188z"/>
	<path fill="#1F8FFF" d="M24,9.5117188c0-0.1464844-0.0507813-0.2680664-0.1513672-0.3652344
		C23.7490234,9.0488281,23.6318359,9,23.5,9c-0.1513672,0-0.2705078,0.0488281-0.3632813,0.1464844
		C23.0458984,9.2436523,23,9.3652344,23,9.5117188c0,0.1308594,0.0458984,0.2441406,0.1367188,0.3413086
		C23.2294922,9.9511719,23.3486328,10,23.5,10c0.1318359,0,0.2490234-0.0488281,0.3486328-0.1469727
		C23.9492188,9.7558594,24,9.6425781,24,9.5117188z"/>
	<path fill="#1F8FFF" d="M24.5644531,19.7763672c0.40625-0.0664063,0.7382813-0.2587891,1.0058594-0.5742188
		c0.2617188-0.3168945,0.3984375-0.6914063,0.3984375-1.1245117v-6.2958984c0-0.4648438-0.1621094-0.8657227-0.484375-1.1987305
		s-0.640625-0.578125-1.1074219-0.578125h-4.6157227c-0.46875,0-0.940918,0.2451172-1.2641602,0.578125
		c-0.3217773,0.3330078-0.484375,0.7338867-0.484375,1.1987305v6.2958984c0,0.4331055,0.137207,0.8120117,0.4125977,1.137207
		c0.2734375,0.3242188,0.6030273,0.5126953,0.9902344,0.5615234L17.3125,23h1.1845703l1.4262695-2.2001953h4.1333008L25.484375,23
		h1.1835938L24.5644531,19.7763672z M20.0126953,11.1567383c0-0.1040039,0.3359375-0.1557617,0.4648438-0.1557617h2.9267578
		c0.1660156,0,0.6054688,0.0517578,0.6054688,0.1557617v0.6674805c0,0.1181641-0.3847656,0.1767578-0.5488281,0.1767578h-2.9833984
		c-0.1289063,0-0.4648438-0.0585938-0.4648438-0.1767578V11.1567383z M19,14c0-0.2055664,0.15625-0.4506836,0.328125-0.652832
		C19.4599609,13.1928711,19.7641602,13.0107422,20,13.0107422h4c0.234375,0,0.53125,0.1865234,0.6875,0.3198242
		C24.8476563,13.4614258,25,13.7944336,25,14l0,0c0,0.2050781-0.2304688,0.5400391-0.390625,0.671875
		c-0.15625,0.1328125-0.421875,0.3364258-0.65625,0.3364258h-4c-0.2353516,0-0.5053711-0.2539063-0.65625-0.3867188
		C19.1459961,14.4892578,19,14.2050781,19,14L19,14z M21,18h-2v-2h2V18z M23,18v-2h2v2H23z"/>
</g>
</svg>
