<?xml version="1.0" encoding="utf-8"?>
<!-- Generator: Adobe Illustrator 16.0.3, SVG Export Plug-In . SVG Version: 6.00 Build 0)  -->
<!DOCTYPE svg PUBLIC "-//W3C//DTD SVG 1.1//EN" "http://www.w3.org/Graphics/SVG/1.1/DTD/svg11.dtd">
<svg version="1.1" id="Rain_Barrel_-_Green_Infrastructure"
	 xmlns="http://www.w3.org/2000/svg" xmlns:xlink="http://www.w3.org/1999/xlink" x="0px" y="0px" width="40px" height="40px"
	 viewBox="0 0 40 40" enable-background="new 0 0 40 40" xml:space="preserve">
<path opacity="0.75" fill="#FFFFFF" d="M33.971,15.669c0-1.004-0.094-1.979-0.272-2.926c-0.181-0.948-0.456-1.868-0.824-2.759
	c-0.365-0.893-0.797-1.726-1.296-2.503c-0.499-0.776-1.063-1.496-1.694-2.157c-0.636-0.661-1.323-1.255-2.063-1.775
	c-0.743-0.523-1.54-0.979-2.388-1.362c-0.854-0.383-1.733-0.669-2.638-0.86C21.889,1.135,20.958,1.04,20,1.04
	c-0.958,0-1.888,0.095-2.792,0.286c-0.906,0.191-1.784,0.478-2.636,0.86c-0.852,0.384-1.649,0.839-2.391,1.362
	c-0.742,0.521-1.429,1.114-2.061,1.775S8.923,6.705,8.423,7.481c-0.498,0.777-0.929,1.61-1.297,2.503
	c-0.366,0.891-0.64,1.811-0.823,2.759c-0.184,0.946-0.275,1.922-0.275,2.926c0,1.002,0.091,1.978,0.275,2.926
	s0.457,1.867,0.823,2.761c0.316,0.768,0.682,1.495,1.095,2.179c0.416,0.684,0.879,1.323,1.392,1.92H9.609H9.606l5.194,7.253
	l5.194,7.253l5.185-7.236l5.177-7.232c0.521-0.602,0.991-1.248,1.41-1.936c0.42-0.691,0.79-1.426,1.107-2.2
	c0.368-0.894,0.644-1.813,0.824-2.761C33.877,17.646,33.971,16.671,33.971,15.669z"/>
<path fill="#38673D" d="M31.762,13.229c-0.156-0.829-0.395-1.638-0.713-2.414c-0.316-0.782-0.695-1.526-1.131-2.213
	c-0.43-0.678-0.92-1.313-1.455-1.879c-0.551-0.582-1.15-1.103-1.779-1.551c-0.639-0.456-1.334-0.857-2.059-1.19
	c-0.721-0.327-1.475-0.576-2.238-0.739c-0.766-0.164-1.568-0.247-2.386-0.247c-0.819,0-1.621,0.083-2.386,0.247
	c-0.764,0.163-1.515,0.411-2.231,0.738c-0.732,0.334-1.428,0.735-2.068,1.192c-0.63,0.448-1.225,0.968-1.77,1.546
	c-0.542,0.573-1.034,1.206-1.463,1.885C9.654,9.281,9.272,10.026,8.95,10.82c-0.314,0.772-0.554,1.584-0.711,2.413
	C8.081,14.063,8,14.934,8,15.819c0,0.884,0.081,1.754,0.239,2.587c0.157,0.824,0.396,1.637,0.711,2.414
	c0.277,0.682,0.6,1.332,0.957,1.93c0.358,0.598,0.763,1.162,1.202,1.68l2.368,3.348l6.518,9.219l8.812-12.463l0.061-0.07
	c0.443-0.52,0.854-1.09,1.213-1.689c0.371-0.619,0.695-1.273,0.973-1.957c0.314-0.773,0.553-1.582,0.709-2.405
	C31.92,17.568,32,16.696,32,15.819C32,14.94,31.92,14.068,31.762,13.229z"/>
<path fill="#359A40" d="M30.779,13.332c-0.145-0.756-0.363-1.495-0.656-2.203c-0.293-0.72-0.645-1.403-1.047-2.034
	c-0.395-0.617-0.844-1.193-1.334-1.709c-0.506-0.529-1.057-1.005-1.635-1.413c-0.588-0.416-1.225-0.782-1.893-1.086
	c-0.654-0.296-1.34-0.52-2.035-0.667C21.48,4.071,20.748,3.996,20,3.996c-0.749,0-1.481,0.075-2.179,0.224
	c-0.694,0.147-1.377,0.371-2.027,0.665c-0.674,0.305-1.313,0.672-1.904,1.09c-0.576,0.406-1.122,0.88-1.622,1.406
	c-0.498,0.521-0.949,1.1-1.344,1.717c-0.396,0.622-0.749,1.307-1.049,2.038c-0.288,0.703-0.509,1.443-0.654,2.202
	C9.074,14.101,9,14.899,9,15.713c0,0.813,0.074,1.611,0.221,2.377c0.145,0.75,0.365,1.492,0.654,2.201
	c0.259,0.633,0.558,1.23,0.887,1.775s0.702,1.061,1.106,1.536l3.556,4.979l4.57,6.415l7.998-11.223l0.117-0.144
	c0.408-0.473,0.783-0.99,1.115-1.539c0.342-0.565,0.645-1.172,0.902-1.805c0.291-0.705,0.51-1.442,0.652-2.19
	C30.926,17.322,31,16.521,31,15.713C31,14.902,30.926,14.102,30.779,13.332z"/>
<path fill="#FFFFFF" d="M13.656,16.627h-0.68v3.158c0,0.419-0.091,0.724-0.267,0.917C12.529,20.903,12.296,21,12.011,21
	c-0.311,0-0.548-0.104-0.72-0.311c-0.167-0.205-0.253-0.504-0.253-0.905v-7.564c0-0.431,0.095-0.738,0.28-0.933
	C11.507,11.098,11.807,11,12.226,11h3.15c0.437,0,0.808,0.021,1.118,0.057c0.308,0.039,0.586,0.117,0.833,0.231
	c0.301,0.131,0.566,0.315,0.796,0.557c0.231,0.244,0.405,0.523,0.527,0.841c0.12,0.321,0.177,0.658,0.177,1.016
	c0,0.733-0.199,1.322-0.603,1.756c-0.401,0.441-1.012,0.751-1.829,0.934c0.342,0.188,0.672,0.466,0.985,0.829
	c0.312,0.373,0.592,0.761,0.839,1.176c0.244,0.41,0.435,0.785,0.574,1.116C18.93,19.847,19,20.075,19,20.204
	c0,0.125-0.04,0.257-0.122,0.38c-0.08,0.133-0.19,0.232-0.33,0.304C18.41,20.961,18.248,21,18.065,21
	c-0.216,0-0.399-0.055-0.548-0.16c-0.147-0.105-0.273-0.238-0.381-0.396c-0.106-0.162-0.25-0.397-0.432-0.714l-0.778-1.327
	c-0.276-0.484-0.525-0.859-0.747-1.115c-0.218-0.255-0.442-0.426-0.667-0.52C14.283,16.674,13.997,16.627,13.656,16.627z
	 M14.764,12.497h-1.787v2.702h1.734c0.465,0,0.858-0.041,1.176-0.124c0.318-0.084,0.559-0.222,0.727-0.423
	c0.168-0.2,0.252-0.473,0.252-0.823c0-0.272-0.068-0.512-0.204-0.719c-0.133-0.21-0.322-0.364-0.56-0.467
	C15.875,12.545,15.43,12.497,14.764,12.497z"/>
<path fill="#FFFFFF" d="M25.124,21h-2.939c-0.429,0-0.732-0.103-0.91-0.297C21.091,20.505,21,20.189,21,19.755v-7.513
	c0-0.443,0.094-0.76,0.281-0.953c0.185-0.192,0.487-0.29,0.903-0.29h3.119c0.456,0,0.86,0.029,1.196,0.089
	c0.337,0.06,0.64,0.17,0.904,0.342c0.224,0.139,0.426,0.316,0.604,0.534c0.175,0.217,0.31,0.456,0.4,0.716
	c0.094,0.261,0.139,0.538,0.139,0.829c0,1.001-0.482,1.731-1.444,2.196C28.368,16.125,29,16.937,29,18.147
	c0,0.562-0.141,1.06-0.412,1.51c-0.278,0.451-0.649,0.779-1.118,0.994c-0.296,0.127-0.633,0.216-1.012,0.269
	C26.078,20.972,25.633,21,25.124,21z M22.948,12.521v2.584h1.786c0.486,0,0.865-0.046,1.126-0.143
	c0.27-0.096,0.472-0.278,0.608-0.545c0.115-0.192,0.166-0.406,0.166-0.641c0-0.506-0.17-0.842-0.521-1.004
	c-0.341-0.168-0.872-0.25-1.583-0.25H22.948z M24.983,16.559h-2.035v2.921h2.1c1.317,0,1.974-0.496,1.974-1.485
	c0-0.5-0.169-0.87-0.509-1.094C26.168,16.673,25.658,16.559,24.983,16.559z"/>
</svg>
