<?xml version="1.0" encoding="utf-8"?>
<!-- Generator: Adobe Illustrator 16.0.3, SVG Export Plug-In . SVG Version: 6.00 Build 0)  -->
<!DOCTYPE svg PUBLIC "-//W3C//DTD SVG 1.1//EN" "http://www.w3.org/Graphics/SVG/1.1/DTD/svg11.dtd">
<svg version="1.1" id="Rain_Water_Catchment_-_Green_Infrastructure"
	 xmlns="http://www.w3.org/2000/svg" xmlns:xlink="http://www.w3.org/1999/xlink" x="0px" y="0px" width="40px" height="40px"
	 viewBox="0 0 40 40" enable-background="new 0 0 40 40" xml:space="preserve">
<path opacity="0.75" fill="#FFFFFF" d="M33.971,15.669c0-1.004-0.094-1.979-0.272-2.926c-0.181-0.948-0.456-1.868-0.824-2.759
	c-0.365-0.893-0.797-1.726-1.296-2.503c-0.499-0.776-1.063-1.496-1.694-2.157c-0.636-0.661-1.323-1.255-2.063-1.775
	c-0.743-0.523-1.54-0.979-2.388-1.362c-0.854-0.383-1.733-0.669-2.638-0.86C21.889,1.135,20.958,1.04,20,1.04
	c-0.958,0-1.888,0.095-2.792,0.286c-0.906,0.191-1.784,0.478-2.636,0.86c-0.852,0.384-1.649,0.839-2.391,1.362
	c-0.742,0.521-1.429,1.114-2.061,1.775S8.923,6.705,8.423,7.481c-0.498,0.777-0.929,1.61-1.297,2.503
	c-0.366,0.891-0.64,1.811-0.823,2.759c-0.184,0.946-0.275,1.922-0.275,2.926c0,1.002,0.091,1.978,0.275,2.926
	s0.457,1.867,0.823,2.761c0.316,0.768,0.682,1.495,1.095,2.179c0.416,0.684,0.879,1.323,1.392,1.92H9.609H9.606l5.194,7.253
	l5.194,7.253l5.185-7.236l5.177-7.232c0.521-0.602,0.991-1.248,1.41-1.936c0.42-0.691,0.79-1.426,1.107-2.2
	c0.368-0.894,0.644-1.813,0.824-2.761C33.877,17.646,33.971,16.671,33.971,15.669z"/>
<path fill="#38673D" d="M31.762,13.229c-0.156-0.829-0.395-1.638-0.713-2.414c-0.316-0.782-0.695-1.526-1.131-2.213
	c-0.43-0.678-0.92-1.313-1.455-1.879c-0.551-0.582-1.15-1.103-1.779-1.551c-0.639-0.456-1.334-0.857-2.059-1.19
	c-0.721-0.327-1.475-0.576-2.238-0.739c-0.766-0.164-1.568-0.247-2.386-0.247c-0.819,0-1.621,0.083-2.386,0.247
	c-0.764,0.163-1.515,0.411-2.231,0.738c-0.732,0.334-1.428,0.735-2.068,1.192c-0.63,0.448-1.225,0.968-1.77,1.546
	c-0.542,0.573-1.034,1.206-1.463,1.885C9.654,9.281,9.272,10.026,8.95,10.82c-0.314,0.772-0.554,1.584-0.711,2.413
	C8.081,14.063,8,14.934,8,15.819c0,0.884,0.081,1.754,0.239,2.587c0.157,0.824,0.396,1.637,0.711,2.414
	c0.277,0.682,0.6,1.332,0.957,1.93c0.358,0.598,0.763,1.162,1.202,1.68l2.368,3.348l6.518,9.219l8.812-12.463l0.061-0.07
	c0.443-0.52,0.854-1.09,1.213-1.689c0.371-0.619,0.695-1.273,0.973-1.957c0.314-0.773,0.553-1.582,0.709-2.405
	C31.92,17.568,32,16.696,32,15.819C32,14.94,31.92,14.068,31.762,13.229z"/>
<path fill="#359A40" d="M30.779,13.332c-0.145-0.756-0.363-1.495-0.656-2.203c-0.293-0.72-0.645-1.403-1.047-2.034
	c-0.395-0.617-0.844-1.193-1.334-1.709c-0.506-0.529-1.057-1.005-1.635-1.413c-0.588-0.416-1.225-0.782-1.893-1.086
	c-0.654-0.296-1.34-0.52-2.035-0.667C21.48,4.071,20.748,3.996,20,3.996c-0.749,0-1.481,0.075-2.179,0.224
	c-0.694,0.147-1.377,0.371-2.027,0.665c-0.674,0.305-1.313,0.672-1.904,1.09c-0.576,0.406-1.122,0.88-1.622,1.406
	c-0.498,0.521-0.949,1.1-1.344,1.717c-0.396,0.622-0.749,1.307-1.049,2.038c-0.288,0.703-0.509,1.443-0.654,2.202
	C9.074,14.101,9,14.899,9,15.713c0,0.813,0.074,1.611,0.221,2.377c0.145,0.75,0.365,1.492,0.654,2.201
	c0.259,0.633,0.558,1.23,0.887,1.775s0.702,1.061,1.106,1.536l3.556,4.979l4.57,6.415l7.998-11.223l0.117-0.144
	c0.408-0.473,0.783-0.99,1.115-1.539c0.342-0.565,0.645-1.172,0.902-1.805c0.291-0.705,0.51-1.442,0.652-2.19
	C30.926,17.322,31,16.521,31,15.713C31,14.902,30.926,14.102,30.779,13.332z"/>
<path fill="#FFFFFF" d="M11.716,16.422h-0.443v1.86c0,0.246-0.058,0.431-0.175,0.544C10.98,18.942,10.825,19,10.64,19
	c-0.205,0-0.361-0.061-0.472-0.179C10.054,18.696,10,18.523,10,18.283v-4.462c0-0.253,0.063-0.436,0.183-0.548
	c0.125-0.113,0.321-0.171,0.595-0.171h2.068c0.285,0,0.528,0.011,0.732,0.032c0.204,0.024,0.385,0.069,0.547,0.139
	c0.197,0.075,0.371,0.186,0.524,0.329c0.149,0.141,0.267,0.307,0.345,0.497c0.078,0.189,0.117,0.386,0.117,0.599
	c0,0.433-0.133,0.777-0.397,1.036c-0.264,0.258-0.664,0.444-1.201,0.551c0.226,0.11,0.442,0.271,0.647,0.493
	c0.206,0.211,0.388,0.443,0.55,0.688c0.161,0.244,0.286,0.462,0.377,0.663c0.091,0.192,0.134,0.329,0.134,0.402
	c0,0.077-0.025,0.154-0.08,0.229c-0.05,0.074-0.124,0.135-0.216,0.181C14.838,18.977,14.731,19,14.612,19
	c-0.144,0-0.262-0.027-0.359-0.093C14.155,18.845,14.07,18.77,14,18.676c-0.069-0.094-0.165-0.239-0.284-0.421l-0.508-0.782
	c-0.186-0.291-0.348-0.507-0.491-0.656c-0.144-0.151-0.291-0.259-0.438-0.313C12.129,16.449,11.941,16.422,11.716,16.422z
	 M12.446,13.985h-1.174v1.594h1.137c0.307,0,0.564-0.024,0.77-0.072c0.21-0.05,0.37-0.132,0.478-0.252
	c0.11-0.115,0.166-0.277,0.166-0.482c0-0.162-0.044-0.305-0.133-0.427c-0.088-0.123-0.209-0.213-0.367-0.274
	C13.174,14.015,12.882,13.985,12.446,13.985z"/>
<path fill="#FFFFFF" d="M20.843,17.987l-1.014-3.476L18.8,17.987c-0.082,0.265-0.143,0.456-0.192,0.571
	c-0.047,0.116-0.127,0.214-0.244,0.306C18.247,18.958,18.091,19,17.896,19c-0.156,0-0.284-0.023-0.387-0.08
	c-0.102-0.056-0.182-0.131-0.248-0.226c-0.06-0.102-0.113-0.222-0.153-0.356c-0.04-0.132-0.074-0.263-0.106-0.376l-1.044-3.909
	c-0.063-0.227-0.093-0.397-0.093-0.518c0-0.15,0.057-0.276,0.169-0.378C16.147,13.054,16.29,13,16.459,13
	c0.229,0,0.384,0.071,0.465,0.207c0.081,0.139,0.15,0.338,0.209,0.6l0.821,3.386l0.922-3.168c0.069-0.244,0.131-0.429,0.184-0.554
	c0.056-0.127,0.144-0.236,0.266-0.329C19.448,13.047,19.615,13,19.829,13c0.213,0,0.38,0.049,0.498,0.147
	c0.117,0.098,0.199,0.201,0.244,0.313c0.048,0.113,0.107,0.3,0.186,0.563l0.932,3.168l0.821-3.386
	c0.039-0.177,0.078-0.318,0.114-0.417c0.033-0.099,0.096-0.191,0.179-0.268C22.893,13.041,23.018,13,23.185,13
	c0.165,0,0.302,0.053,0.419,0.154s0.176,0.231,0.176,0.382c0,0.109-0.032,0.282-0.098,0.518l-1.04,3.909
	c-0.073,0.263-0.132,0.454-0.179,0.582c-0.05,0.118-0.129,0.226-0.242,0.32C22.11,18.958,21.95,19,21.748,19
	c-0.195,0-0.352-0.042-0.469-0.136c-0.117-0.087-0.196-0.188-0.244-0.301C20.986,18.451,20.927,18.263,20.843,17.987z"/>
<path fill="#FFFFFF" d="M30,17.07c0,0.183-0.049,0.385-0.146,0.599c-0.098,0.218-0.254,0.425-0.469,0.631
	c-0.21,0.207-0.477,0.375-0.804,0.507C28.252,18.939,27.866,19,27.432,19c-0.332,0-0.632-0.024-0.9-0.083
	c-0.271-0.058-0.522-0.146-0.74-0.275c-0.222-0.118-0.429-0.285-0.61-0.482c-0.17-0.179-0.308-0.385-0.425-0.61
	c-0.117-0.225-0.206-0.469-0.263-0.725c-0.059-0.252-0.089-0.529-0.089-0.815c0-0.465,0.077-0.886,0.219-1.253
	c0.152-0.37,0.36-0.686,0.635-0.949c0.274-0.263,0.592-0.462,0.963-0.601C26.592,13.071,26.982,13,27.394,13
	c0.51,0,0.963,0.094,1.364,0.282c0.393,0.188,0.699,0.421,0.907,0.695c0.21,0.276,0.319,0.536,0.319,0.782
	c0,0.136-0.053,0.253-0.153,0.355c-0.105,0.103-0.231,0.157-0.372,0.157c-0.166,0-0.289-0.036-0.367-0.109
	c-0.08-0.069-0.176-0.192-0.273-0.368c-0.165-0.286-0.358-0.501-0.586-0.645c-0.222-0.143-0.498-0.212-0.825-0.212
	c-0.522,0-0.938,0.181-1.246,0.548c-0.312,0.367-0.468,0.891-0.468,1.562c0,0.451,0.068,0.827,0.205,1.127
	c0.138,0.3,0.331,0.526,0.58,0.675c0.251,0.147,0.545,0.22,0.884,0.22c0.363,0,0.675-0.087,0.929-0.254
	c0.254-0.167,0.443-0.415,0.566-0.734c0.059-0.151,0.124-0.282,0.206-0.376c0.08-0.094,0.204-0.146,0.382-0.146
	c0.154,0,0.286,0.053,0.389,0.146C29.949,16.802,30,16.929,30,17.07z"/>
</svg>
