<?xml version="1.0" encoding="utf-8"?>
<!-- Generator: Adobe Illustrator 16.0.3, SVG Export Plug-In . SVG Version: 6.00 Build 0)  -->
<!DOCTYPE svg PUBLIC "-//W3C//DTD SVG 1.1//EN" "http://www.w3.org/Graphics/SVG/1.1/DTD/svg11.dtd">
<svg version="1.1" id="Recycling_Bin" xmlns="http://www.w3.org/2000/svg" xmlns:xlink="http://www.w3.org/1999/xlink" x="0px"
	 y="0px" width="34px" height="34px" viewBox="0 0 34 34" enable-background="new 0 0 34 34" xml:space="preserve">
<circle fill="#FFFFFF" cx="17" cy="17" r="15"/>
<path fill="#38673D" d="M17,30C9.832,30,4,24.167,4,17S9.832,4,17,4c7.167,0,13,5.832,13,13S24.168,30,17,30z"/>
<path fill="#359A40" d="M17,29c-6.617,0-12-5.383-12-12c0-6.617,5.383-12,12-12c6.617,0,12,5.383,12,12C29,23.617,23.617,29,17,29z"
	/>
<g>
	<g>
		<path fill="#FFFFFF" d="M10.551,21.58l-0.096,0.257l2.113-3.709l1.342,0.81l-2.013-4.294l-4.672,0.389l1.344,0.774
			c-0.684,1.208-1.035,1.819-1.056,1.84C7.17,18.313,7,18.999,7,19.71c0,0.731,0.192,1.431,0.577,2.098
			c0.339,0.603,0.619,1.086,0.83,1.452c0.214,0.365,0.375,0.609,0.482,0.742c0.511,0.645,1.193,1.094,2.048,1.352
			c-0.557-0.622-0.834-1.331-0.834-2.129C10.104,22.622,10.254,22.076,10.551,21.58z"/>
		<path fill="#FFFFFF" d="M11.672,21c-0.663,1.053-0.993,1.691-0.993,2.225c0,0.929,0.354,2.177,1.057,2.775H16v-5H11.672z"/>
	</g>
	<g>
		<path fill="#FFFFFF" d="M15.449,9.354c-0.492-0.493-1.12-0.741-1.891-0.741c-0.318,0-0.648,0.064-0.99,0.193
			c-0.043,0.044-0.251,0.386-0.624,1.033c-0.375,0.646-0.925,1.592-1.649,2.84l4.033,2.324l2.271-3.938
			c-0.234-0.429-0.445-0.785-0.64-1.064C15.768,9.72,15.598,9.505,15.449,9.354z"/>
		<path fill="#FFFFFF" d="M22.485,10.872c-1.063-1.849-1.882-2.938-2.464-3.261C19.364,7.205,18.025,7,16.023,7
			c-1.15,0-2.123,0.386-2.912,1.16c0.043-0.02,0.15-0.032,0.32-0.032h0.352c1.195,0,2.102,0.549,2.723,1.646l1.982,3.452
			l-1.342,0.773l4.636,0.419l2.048-4.322L22.485,10.872z"/>
	</g>
	<g>
		<path fill="#FFFFFF" d="M26.873,18.616c-0.194,0.643-0.564,1.171-1.107,1.578c-0.543,0.409-1.145,0.612-1.804,0.612l0.157-0.032
			h-4.258v-1.548l-2.686,3.875L19.861,27v-1.548h1.986c1.152,0,2.09-0.365,2.816-1.098c0.211-0.194,0.465-0.507,0.75-0.937
			c0.288-0.43,0.637-0.979,1.039-1.643C26.815,21.089,27,20.377,27,19.646C27,19.193,26.954,18.851,26.873,18.616z"/>
		<path fill="#FFFFFF" d="M22.935,20.258c0.09,0,0.169,0,0.254,0h0.707c0.659,0,1.253-0.235,1.772-0.707
			c0.523-0.476,0.832-1.053,0.915-1.745c-0.042-0.107-0.767-1.406-2.172-3.899l-4.035,2.354l2.272,3.967
			C22.752,20.247,22.85,20.258,22.935,20.258z"/>
	</g>
</g>
</svg>
