<?xml version="1.0" encoding="utf-8"?>
<!-- Generator: Adobe Illustrator 16.0.0, SVG Export Plug-In . SVG Version: 6.00 Build 0)  -->
<!DOCTYPE svg PUBLIC "-//W3C//DTD SVG 1.1//EN" "http://www.w3.org/Graphics/SVG/1.1/DTD/svg11.dtd">
<svg version="1.1" id="Restaurant_Grade_C" xmlns="http://www.w3.org/2000/svg" xmlns:xlink="http://www.w3.org/1999/xlink" x="0px"
	 y="0px" width="34px" height="34px" viewBox="0 0 34 34" enable-background="new 0 0 34 34" xml:space="preserve">
<circle fill="#FFFFFF" cx="17" cy="17" r="17"/>
<path fill="#E18900" d="M17.0009766,32c-8.2709961,0-15-6.7324219-15-15.0019531C2.0009766,8.7299805,8.7299805,2,17.0009766,2
	c8.2714844,0,15,6.7299805,15,14.9980469C32.0009766,25.2675781,25.2724609,32,17.0009766,32z"/>
<path fill="#FFAC00" d="M17.0009766,31.0009766C9.2797852,31.0009766,3.0004883,24.7226563,3.0004883,17
	c0-7.7202148,6.2792969-13.9990234,14.0004883-13.9990234c7.7207031,0,14,6.2788086,14,13.9990234
	C31.0009766,24.7226563,24.7216797,31.0009766,17.0009766,31.0009766z"/>
<g>
	<path fill="#FFFFFF" d="M26,20.5625c0,0.6152344-0.1582031,1.28125-0.4755859,1.9980469
		c-0.3164063,0.7167969-0.8154297,1.4199219-1.4941406,2.1113281c-0.6796875,0.6904297-1.546875,1.2509766-2.6025391,1.6816406
		C20.3710938,26.7841797,19.1416016,27,17.7368164,27c-1.0654297,0-2.0336914-0.0966797-2.9057617-0.2900391
		c-0.8725586-0.1933594-1.6645508-0.4951172-2.3759766-0.9042969c-0.7114258-0.4082031-1.3657227-0.9462891-1.9624023-1.6152344
		c-0.5327148-0.6074219-0.9873047-1.2871094-1.3632813-2.0380859c-0.3769531-0.7519531-0.6591797-1.5546875-0.847168-2.4082031
		C8.09375,18.890625,8,17.9853516,8,17.0263672c0-1.5566406,0.2363281-2.9501953,0.7094727-4.1821289
		c0.4726563-1.230957,1.1499023-2.2841797,2.03125-3.159668c0.8813477-0.875,1.9140625-1.5410156,3.0986328-1.9985352
		C15.0239258,7.2290039,16.2856445,7,17.6264648,7c1.6342773,0,3.0893555,0.3125,4.3657227,0.9365234
		c1.2763672,0.625,2.2539063,1.3964844,2.9335938,2.3154297c0.6787109,0.9194336,1.0195313,1.7875977,1.0195313,2.6054688
		c0,0.4487305-0.1660156,0.8442383-0.4960938,1.1875c-0.3310547,0.3427734-0.7304688,0.5146484-1.1982422,0.5146484
		c-0.5234375,0-0.9160156-0.1191406-1.1777344-0.3564453s-0.5537109-0.6464844-0.8740234-1.2270508
		c-0.5332031-0.9580078-1.1591797-1.675293-1.8798828-2.1503906C19.5976563,10.3510742,18.7089844,10,17.6542969,10
		c-1.6801758,0-3.0185547,0.7250977-4.0146484,1.9472656C12.6430664,13.1699219,12,14.7490234,12,17
		c0,1.5039063,0.3657227,2.9140625,0.8066406,3.9121094c0.4404297,0.9980469,1.0644531,1.7441406,1.8725586,2.2353516
		C15.4868164,23.640625,16.4331055,24,17.5166016,24c1.1748047,0,2.1689453-0.3925781,2.9814453-0.9511719
		s1.4257813-1.3789063,1.8388672-2.4609375c0.1738281-0.5097656,0.3896484-0.9248047,0.6474609-1.2460938
		c0.2558594-0.3203125,0.6699219-0.4814453,1.2392578-0.4814453c0.4853516,0,0.9042969,0.1630859,1.2529297,0.4873047
		C25.8251953,19.6738281,26,20.078125,26,20.5625z"/>
</g>
</svg>
