<?xml version="1.0" encoding="utf-8"?>
<!-- Generator: Adobe Illustrator 16.0.3, SVG Export Plug-In . SVG Version: 6.00 Build 0)  -->
<!DOCTYPE svg PUBLIC "-//W3C//DTD SVG 1.1//EN" "http://www.w3.org/Graphics/SVG/1.1/DTD/svg11.dtd">
<svg version="1.1" id="Restroom" xmlns="http://www.w3.org/2000/svg" xmlns:xlink="http://www.w3.org/1999/xlink" x="0px" y="0px"
	 width="34px" height="34px" viewBox="0 0 34 34" enable-background="new 0 0 34 34" xml:space="preserve">
<circle fill="#FFFFFF" cx="17" cy="17" r="15"/>
<path fill="#01228F" d="M17,30C9.832,30,4,24.167,4,17S9.832,4,17,4c7.167,0,13,5.832,13,13S24.168,30,17,30z"/>
<path fill="#344EA5" d="M17,29c-6.617,0-12-5.383-12-12c0-6.617,5.383-12,12-12c6.617,0,12,5.383,12,12C29,23.617,23.617,29,17,29z"
	/>
<polygon fill="#FFFFFF" points="15.109,17.3 14.415,17.573 12.074,15 12,15.769 14,20 12,20 11.5,25 10.5,25 10,20 8,20 10,15.769 
	9.876,15 8.002,17.573 7.306,17.3 10,12 12,12 "/>
<path fill="#FFFFFF" d="M12.5,9.487c0,0.417-0.146,0.775-0.436,1.072C11.771,10.854,11.422,11,11.013,11
	c-0.425,0-0.786-0.146-1.075-0.441C9.644,10.263,9.5,9.905,9.5,9.487c0-0.382,0.144-0.724,0.438-1.03
	C10.227,8.152,10.588,8,11.013,8c0.41,0,0.759,0.152,1.052,0.457C12.354,8.763,12.5,9.105,12.5,9.487z"/>
<polygon fill="#FFFFFF" points="26,19 25.429,19 24.656,14 24.656,25 24.016,25 23,18 21.997,25 21.391,25 21.391,14 20.579,19 
	20,19 20,12 26,12 "/>
<path fill="#FFFFFF" d="M24.5,9.487c0,0.417-0.148,0.775-0.445,1.072C23.757,10.853,23.396,11,22.954,11
	c-0.381,0-0.718-0.147-1.012-0.441C21.648,10.262,21.5,9.904,21.5,9.487c0-0.382,0.148-0.724,0.442-1.03
	C22.236,8.152,22.573,8,22.954,8c0.442,0,0.803,0.152,1.101,0.457C24.352,8.763,24.5,9.104,24.5,9.487z"/>
<rect x="16" y="6" fill="#FFFFFF" width="2" height="20"/>
</svg>
