<?xml version="1.0" encoding="utf-8"?>
<!-- Generator: Adobe Illustrator 16.0.0, SVG Export Plug-In . SVG Version: 6.00 Build 0)  -->
<!DOCTYPE svg PUBLIC "-//W3C//DTD SVG 1.1//EN" "http://www.w3.org/Graphics/SVG/1.1/DTD/svg11.dtd">
<svg version="1.1" id="Restaurant_Inspection" xmlns="http://www.w3.org/2000/svg" xmlns:xlink="http://www.w3.org/1999/xlink"
	 x="0px" y="0px" width="34px" height="34px" viewBox="0 0 34 34" enable-background="new 0 0 34 34" xml:space="preserve">
<circle fill="#FFFFFF" cx="17" cy="17" r="17"/>
<path fill="#E18900" d="M17.0009766,32c-8.2709961,0-15-6.7324219-15-15.0019531C2.0009766,8.7299805,8.7299805,2,17.0009766,2
	c8.2714844,0,15,6.7299805,15,14.9980469C32.0009766,25.2675781,25.2724609,32,17.0009766,32z"/>
<path fill="#FFAC00" d="M17.0009766,31.0009766C9.2797852,31.0009766,3.0004883,24.7226563,3.0004883,17
	c0-7.7202148,6.2792969-13.9990234,14.0004883-13.9990234c7.7207031,0,14,6.2788086,14,13.9990234
	C31.0009766,24.7226563,24.7216797,31.0009766,17.0009766,31.0009766z"/>
<path fill="#FFFFFF" d="M15,12V6.4438477C15,6.1479492,14.847168,6,14.4863281,6C14.1240234,6,14,6.1479492,14,6.4438477V12h-1
	V6.4438477C13,6.1479492,12.875,6,12.5141602,6C12.152832,6,12,6.1479492,12,6.4438477V12h-1V6.4438477
	C11,6.1479492,10.8544922,6,10.4926758,6C10.1640625,6,10,6.1479492,10,6.4438477v6.9013672
	c0,0.4580078,0.1977539,0.8476563,0.5917969,1.1704102C10.9863281,14.8383789,11.4404297,15,12,15v12.7910156
	c0,0.3203125,0.1606445,0.6035156,0.440918,0.8457031C12.7197266,28.8789063,13.0722656,29,13.5,29
	c0.4267578,0,0.7802734-0.1210938,1.0595703-0.3632813S15,28.1113281,15,27.7910156V15
	c0.5581055,0,1.0146484,0.0385742,1.4086914-0.2841797S17,14.003418,17,13.5454102V6.4438477
	C17,6.1479492,16.8193359,6,16.4575195,6C16.0952148,6,16,6.1479492,16,6.4438477V12H15z"/>
<path fill="#FFFFFF" d="M21,20v7.7949219c0,0.3203125,0.0478516,0.6738281,0.3652344,0.9140625
	C21.6865234,28.9501953,22.0390625,29,22.5,29c0.4257813,0,0.7011719-0.1210938,1.0214844-0.3623047
	C23.8398438,28.3974609,24,28.1152344,24,27.7949219V7.8901367c0-0.5361328-0.2392578-0.9853516-0.7177734-1.3466797
	C22.8037109,6.1811523,22.2089844,6,21.4990234,6c-0.7109375,0-1.3027344,0.1811523-1.78125,0.543457
	C19.2392578,6.9047852,19,7.3540039,19,7.8901367V20H21z"/>
</svg>
