<?xml version="1.0" encoding="utf-8"?>
<!-- Generator: Adobe Illustrator 16.0.0, SVG Export Plug-In . SVG Version: 6.00 Build 0)  -->
<!DOCTYPE svg PUBLIC "-//W3C//DTD SVG 1.1//EN" "http://www.w3.org/Graphics/SVG/1.1/DTD/svg11.dtd">
<svg version="1.1" id="Restaurant_Grade_A" xmlns="http://www.w3.org/2000/svg" xmlns:xlink="http://www.w3.org/1999/xlink" x="0px"
	 y="0px" width="34px" height="34px" viewBox="0 0 34 34" enable-background="new 0 0 34 34" xml:space="preserve">
<circle fill="#FFFFFF" cx="17" cy="17" r="17"/>
<path fill="#0074D1" d="M17.0009766,32c-8.2709961,0-15-6.7324219-15-15.0019531C2.0009766,8.7299805,8.7299805,2,17.0009766,2
	c8.2714844,0,15,6.7299805,15,14.9980469C32.0009766,25.2675781,25.2724609,32,17.0009766,32z"/>
<path fill="#0090FF" d="M17.0009766,31.0009766C9.2797852,31.0009766,3.0004883,24.7226563,3.0004883,17
	c0-7.7202148,6.2792969-13.9990234,14.0004883-13.9990234c7.7207031,0,14,6.2788086,14,13.9990234
	C31.0009766,24.7226563,24.7216797,31.0009766,17.0009766,31.0009766z"/>
<g>
	<path fill="#FFFFFF" d="M21.8046875,23.3544922L21,21h-8l-0.9360352,2.4091797
		c-0.3623047,1.015625-0.6713867,1.7021484-0.9267578,2.0566406C10.8808594,25.8212891,10.4619141,26,9.8793945,26
		c-0.4941406,0-0.9311523-0.1904297-1.3100586-0.5683594C8.1894531,25.0537109,8,24.6240234,8,24.1435547
		c0-0.2773438,0.0444336-0.5634766,0.1328125-0.8583984c0.0878906-0.2949219,0.2329102-0.7070313,0.4365234-1.2333984
		l4.9633789-13.1875C13.6733398,8.4858398,13.84375,8.03125,14.0424805,7.5
		c0.1982422-0.5307617,0.4101563-0.9716797,0.6352539-1.3227539c0.2250977-0.3505859,0.5205078-0.6347656,0.8867188-0.8520508
		C15.9301758,5.1083984,16.3823242,5,16.9208984,5c0.5473633,0,1.0029297,0.1083984,1.3710938,0.3251953
		c0.3642578,0.2172852,0.6611328,0.496582,0.8857422,0.8378906c0.2255859,0.3422852,0.4150391,0.7089844,0.5703125,1.1015625
		c0.1523438,0.3925781,0.3496094,0.9165039,0.5869141,1.5722656l5.0693359,13.1044922
		C25.8017578,22.9384766,26,23.6630859,26,24.1162109c0,0.4707031-0.1865234,0.9023438-0.5615234,1.2939453
		C25.0625,25.8037109,24.6103516,26,24.0810547,26c-0.3076172,0-0.5722656-0.0576172-0.7949219-0.1748047
		c-0.2197266-0.1142578-0.4052734-0.2705078-0.5546875-0.4707031c-0.1503906-0.1972656-0.3105469-0.5029297-0.4833984-0.9140625
		C22.0761719,24.03125,21.9287109,23.6689453,21.8046875,23.3544922z M14,18h6l-3-9L14,18z"/>
</g>
</svg>
