<?xml version="1.0" encoding="utf-8"?>
<!-- Generator: Adobe Illustrator 16.0.0, SVG Export Plug-In . SVG Version: 6.00 Build 0)  -->
<!DOCTYPE svg PUBLIC "-//W3C//DTD SVG 1.1//EN" "http://www.w3.org/Graphics/SVG/1.1/DTD/svg11.dtd">
<svg version="1.1" id="Restaurant_Grade_B" xmlns="http://www.w3.org/2000/svg" xmlns:xlink="http://www.w3.org/1999/xlink" x="0px"
	 y="0px" width="34px" height="34px" viewBox="0 0 34 34" enable-background="new 0 0 34 34" xml:space="preserve">
<circle fill="#FFFFFF" cx="17" cy="17" r="17"/>
<path fill="#03964F" d="M17,32C8.7290039,32,2,25.2675781,2,16.9980469C2,8.7299805,8.7290039,2,17,2
	c8.2714844,0,15,6.7299805,15,14.9980469C32,25.2675781,25.2714844,32,17,32z"/>
<path fill="#03BD63" d="M17.0009766,31.0009766C9.2797852,31.0009766,3.0004883,24.7226563,3.0004883,17
	c0-7.7202148,6.2792969-13.9990234,14.0004883-13.9990234c7.7207031,0,14,6.2788086,14,13.9990234
	C31.0009766,24.7226563,24.7216797,31.0009766,17.0009766,31.0009766z"/>
<g>
	<path fill="#FFFFFF" d="M17.765625,27h-6.253418c-0.902832,0-1.5473633-0.1982422-1.9331055-0.59375
		C9.1928711,26.0107422,9,25.3818359,9,24.5166016V9.4829102c0-0.8818359,0.1972656-1.5161133,0.5927734-1.9033203
		C9.9882813,7.1933594,10.6279297,7,11.512207,7h6.6293945c0.9775391,0,1.8232422,0.0595703,2.5410156,0.1772461
		c0.7158203,0.1186523,1.3574219,0.3461914,1.9257813,0.6821289c0.4824219,0.2822266,0.9111328,0.6391602,1.2841797,1.0712891
		c0.3701172,0.4321289,0.6552734,0.909668,0.8505859,1.4321289c0.1962891,0.5234375,0.2939453,1.0756836,0.2939453,1.6577148
		c0,2.0009766-1.0253906,3.465332-3.0712891,4.3930664C24.6542969,17.2504883,26,18.8789063,26,21.296875
		c0,1.1191406-0.2929688,2.1269531-0.8798828,3.0224609c-0.5859375,0.8955078-1.3769531,1.5576172-2.3720703,1.9853516
		c-0.6240234,0.2548828-1.3398438,0.4345703-2.1494141,0.5380859C19.7890625,26.9472656,18.84375,27,17.765625,27z M13,10v5
		h3.9414063c1.0332031,0,1.8310547,0.1171875,2.3925781-0.0737305c0.5634766-0.190918,0.9931641-0.5541992,1.2919922-1.0913086
		C20.8574219,13.453125,21,12.9726563,21,12.5c0-1.0097656-0.3935547-1.6274414-1.1269531-1.9599609
		C19.1367188,10.2084961,18.0166016,10,16.5087891,10H13z M17.4580078,18H13v6h4.5976563C20.3974609,24,22,22.9746094,22,21
		c0-1.0097656-0.5644531-1.7441406-1.2900391-2.1992188S18.8994141,18,17.4580078,18z"/>
</g>
</svg>
