<?xml version="1.0" encoding="utf-8"?>
<!-- Generator: Adobe Illustrator 16.0.3, SVG Export Plug-In . SVG Version: 6.00 Build 0)  -->
<!DOCTYPE svg PUBLIC "-//W3C//DTD SVG 1.1//EN" "http://www.w3.org/Graphics/SVG/1.1/DTD/svg11.dtd">
<svg version="1.1" id="Rest_Area" xmlns="http://www.w3.org/2000/svg" xmlns:xlink="http://www.w3.org/1999/xlink" x="0px" y="0px"
	 width="32px" height="32px" viewBox="0 0 32 32" enable-background="new 0 0 32 32" xml:space="preserve">
<circle fill="#FFFFFF" cx="16" cy="16" r="15"/>
<path fill="#3366BE" d="M16,29C8.832,29,3,23.167,3,16S8.832,3,16,3c7.167,0,13,5.832,13,13S23.168,29,16,29z"/>
<path fill="#3672F5" d="M16,28C9.383,28,4,22.617,4,16C4,9.383,9.383,4,16,4c6.617,0,12,5.383,12,12C28,22.617,22.617,28,16,28z"/>
<path fill="#FFFFFF" d="M11.564,11h2.368c0.309,0,0.545,0.085,0.708,0.256c0.163,0.171,0.253,0.375,0.335,0.61
	c0.081,0.236,0.008,0.032,0.024,0.292c0.016,0.261,0,0.488,0,0.684V17h-1v-4h-1v11h-1v-7h-1v7h-1V13H9v4H8v-4.157
	c0-0.195-0.017,0.029,0-0.231c0.016-0.26,0.065-0.508,0.146-0.745c0.081-0.236,0.203-0.439,0.366-0.61
	C8.675,11.085,8.911,11,9.221,11H11.564z"/>
<path fill="#FFFFFF" d="M13,8.486c0,0.415-0.145,0.771-0.433,1.068C12.279,9.852,11.928,10,11.514,10
	c-0.415,0-0.771-0.148-1.068-0.446S10,8.901,10,8.486c0-0.414,0.148-0.765,0.446-1.054C10.743,7.145,11.099,7,11.514,7
	c0.414,0,0.765,0.145,1.054,0.433C12.855,7.721,13,8.072,13,8.486z"/>
<path fill="#FFFFFF" d="M22.086,11c0.093,0,0.154,0.008,0.187,0.023c0.232,0.032,0.403,0.103,0.513,0.213
	c0.108,0.111,0.187,0.236,0.232,0.378c0.016,0.047,0.059,0.146,0.129,0.295c0.069,0.15,0.151,0.335,0.245,0.556
	c0.093,0.221,0.193,0.465,0.304,0.732c0.108,0.268,0.224,0.536,0.349,0.804c0.28,0.63,0.591,1.347,0.933,2.15v0.071
	c0,0.032,0.004,0.059,0.012,0.083C24.996,16.329,25,16.357,25,16.388c0,0.095-0.02,0.197-0.059,0.307
	c-0.038,0.111-0.137,0.197-0.291,0.26c-0.033,0.016-0.086,0.023-0.163,0.023c-0.109,0-0.204-0.023-0.28-0.071
	c-0.077-0.047-0.148-0.102-0.21-0.166c-0.063-0.063-0.125-0.149-0.187-0.26l-1.655-3.403L23,19h-1v5h-1v-5h-1v5h-1v-5h-1l0.845-5.92
	l-1.655,3.403c-0.063,0.11-0.125,0.197-0.187,0.26c-0.063,0.063-0.138,0.118-0.223,0.166c-0.086,0.047-0.174,0.071-0.268,0.071
	c-0.078,0-0.131-0.007-0.163-0.023c-0.156-0.063-0.252-0.149-0.292-0.26C16.02,16.585,16,16.483,16,16.388v-0.166
	c0-0.031,0.008-0.055,0.023-0.071c0.342-0.803,0.653-1.52,0.933-2.15c0.108-0.268,0.222-0.536,0.338-0.804
	c0.116-0.268,0.222-0.512,0.314-0.732c0.094-0.22,0.176-0.406,0.245-0.556c0.07-0.149,0.112-0.248,0.129-0.295
	c0.061-0.157,0.158-0.295,0.289-0.414c0.134-0.118,0.34-0.185,0.62-0.201H22.086z"/>
<path fill="#FFFFFF" d="M22,8.486c0,0.415-0.146,0.771-0.437,1.068S20.918,10,20.5,10c-0.419,0-0.772-0.148-1.063-0.446
	S19,8.901,19,8.486c0-0.414,0.146-0.765,0.437-1.054C19.728,7.145,20.081,7,20.5,7c0.418,0,0.772,0.145,1.063,0.433
	C21.854,7.721,22,8.072,22,8.486z"/>
</svg>
