<?xml version="1.0" encoding="utf-8"?>
<!-- Generator: Adobe Illustrator 16.0.3, SVG Export Plug-In . SVG Version: 6.00 Build 0)  -->
<!DOCTYPE svg PUBLIC "-//W3C//DTD SVG 1.1//EN" "http://www.w3.org/Graphics/SVG/1.1/DTD/svg11.dtd">
<svg version="1.1" id="Road_Closed_x2F_Blocked" xmlns="http://www.w3.org/2000/svg" xmlns:xlink="http://www.w3.org/1999/xlink"
	 x="0px" y="0px" width="32px" height="32px" viewBox="0 0 32 32" enable-background="new 0 0 32 32" xml:space="preserve">
<circle fill="#FFFFFF" cx="16" cy="16" r="15"/>
<path fill="#C70101" d="M16.001,29c-7.168,0-13-5.835-13-13.002C3.001,8.833,8.833,3,16.001,3c7.169,0,13,5.833,13,12.998
	C29.001,23.165,23.17,29,16.001,29z"/>
<path fill="#FB0101" d="M16.001,28C9.383,28,4,22.619,4,16C4,9.383,9.383,4,16.001,4C22.618,4,28,9.383,28,16
	C28,22.619,22.618,28,16.001,28z"/>
<g>
	<path fill="#FFFFFF" d="M25,15c-0.519-4.667-4.197-8-9-8c-4.806,0-8.485,3.333-9,8H25z"/>
	<path fill="#FFFFFF" d="M7,17c0.515,4.67,4.194,8,9,8c4.803,0,8.481-3.33,9-8H7z"/>
</g>
</svg>
