<?xml version="1.0" encoding="utf-8"?>
<!-- Generator: Adobe Illustrator 16.0.3, SVG Export Plug-In . SVG Version: 6.00 Build 0)  -->
<!DOCTYPE svg PUBLIC "-//W3C//DTD SVG 1.1//EN" "http://www.w3.org/Graphics/SVG/1.1/DTD/svg11.dtd">
<svg version="1.1" id="Road_Problem_-_Complete" xmlns="http://www.w3.org/2000/svg" xmlns:xlink="http://www.w3.org/1999/xlink"
	 x="0px" y="0px" width="34px" height="34px" viewBox="0 0 34 34" enable-background="new 0 0 34 34" xml:space="preserve">
<circle fill="#FFFFFF" cx="17" cy="17" r="17"/>
<path fill="#00984E" d="M17.001,32c-8.271,0-15-6.732-15-15.002C2.001,8.73,8.73,2,17.001,2c8.271,0,15,6.73,15,14.998
	C32.001,25.268,25.272,32,17.001,32z"/>
<path fill="#00BF63" d="M17.001,31C9.28,31,3,24.721,3,17S9.28,3,17.001,3C24.721,3,31,9.279,31,17S24.721,31,17.001,31z"/>
<polygon fill="#FFFFFF" points="6,24 28,24 28,21.23 25.937,21.23 25.249,22.617 21.811,23.308 20.437,21.23 6,21.23 "/>
<circle fill="#FFFFFF" cx="19.999" cy="10" r="1"/>
<path fill="#FFFFFF" d="M25.3,12.912l-1.055-4.197c-0.196-0.803-0.744-1.533-1.944-1.687l-2.182-0.271l-3.727-0.463l-2.222-0.273
	c-1.191-0.143-1.905,0.431-2.293,1.161l-2.041,3.814c-0.625,0.002-1.803,0.59-1.97,1.962l-0.628,5.099l1.51,0.188l-0.201,1.627
	c-0.252,2.008,2.583,2.332,2.828,0.35l0.201-1.627l5.1,0.631l5.085,0.631l-0.197,1.627c-0.242,1.982,2.589,2.357,2.84,0.352
	l0.199-1.627l1.512,0.188l0.628-5.099C26.907,13.925,25.91,13.068,25.3,12.912z M12.988,13.68c-0.104,0.823-0.856,1.411-1.676,1.309
	c-0.824-0.097-1.407-0.844-1.298-1.666c0.101-0.83,0.854-1.416,1.678-1.311C12.512,12.105,13.093,12.853,12.988,13.68z
	 M22.319,12.504c-0.094-0.549-0.456-1.018-1.116-1.1l-2.521-0.312c-0.619-0.078-1.105,0.261-1.339,0.795l-5.891-0.729l1.555-3.009
	c0.196-0.431,0.454-0.722,0.97-0.668l4.074,0.507l0.01,0.001l4.086,0.504c0.508,0.071,0.689,0.419,0.779,0.885l0.778,3.296
	L22.319,12.504z M24.989,15.682c-0.112,0.82-0.86,1.409-1.671,1.307c-0.823-0.096-1.405-0.846-1.307-1.667
	c0.113-0.828,0.861-1.416,1.684-1.309C24.509,14.102,25.088,14.852,24.989,15.682z"/>
</svg>
