<?xml version="1.0" encoding="utf-8"?>
<!-- Generator: Adobe Illustrator 16.0.3, SVG Export Plug-In . SVG Version: 6.00 Build 0)  -->
<!DOCTYPE svg PUBLIC "-//W3C//DTD SVG 1.1//EN" "http://www.w3.org/Graphics/SVG/1.1/DTD/svg11.dtd">
<svg version="1.1" id="Route_Finish" xmlns="http://www.w3.org/2000/svg" xmlns:xlink="http://www.w3.org/1999/xlink" x="0px"
	 y="0px" width="34px" height="34px" viewBox="0 0 34 34" enable-background="new 0 0 34 34" xml:space="preserve">
<g>
	<circle fill="#FFFFFF" cx="17" cy="17" r="15"/>
	<path fill="#C70101" d="M17.001,30c-7.168,0-13-5.835-13-13.002C4.001,9.833,9.833,4,17.001,4c7.169,0,13,5.833,13,12.998
		C30.001,24.165,24.17,30,17.001,30z"/>
	<path fill="#FC3434" d="M17.001,29C10.383,29,5,23.619,5,17c0-6.617,5.383-12,12.001-12C23.618,5,29,10.383,29,17
		C29,23.619,23.618,29,17.001,29z"/>
</g>
<path fill="#FFFFFF" d="M22.221,11H15v4h6c0.578,0,1.008,0.123,1.294,0.369c0.283,0.246,0.43,0.722,0.43,1.131
	c0,0.41-0.136,0.82-0.43,1.061C22.009,17.803,21.568,18,21,18h-6v5.43c0,0.74-0.009,1.666-0.36,2.027C14.288,25.811,13.552,26,13,26
	c-0.561,0-1.121-0.182-1.473-0.543C11.175,25.096,11,24.551,11,23.814V10.198c0-0.515,0.08-0.937,0.241-1.262
	c0.161-0.325,0.414-0.563,0.757-0.712C12.342,8.074,12.781,8,13.314,8h8.906c0.601,0,1.046,0.127,1.339,0.38
	C23.854,8.634,24,8.966,24,9.375c0,0.419-0.061,0.975-0.354,1.229C23.353,10.858,22.821,11,22.221,11z"/>
</svg>
