<?xml version="1.0" encoding="utf-8"?>
<!-- Generator: Adobe Illustrator 16.0.3, SVG Export Plug-In . SVG Version: 6.00 Build 0)  -->
<!DOCTYPE svg PUBLIC "-//W3C//DTD SVG 1.1//EN" "http://www.w3.org/Graphics/SVG/1.1/DTD/svg11.dtd">
<svg version="1.1" id="Route_Start" xmlns="http://www.w3.org/2000/svg" xmlns:xlink="http://www.w3.org/1999/xlink" x="0px"
	 y="0px" width="34px" height="34px" viewBox="0 0 34 34" enable-background="new 0 0 34 34" xml:space="preserve">
<circle fill="#FFFFFF" cx="17" cy="17" r="15"/>
<path fill="#01804D" d="M17.001,30c-7.168,0-13-5.835-13-13.002C4.001,9.833,9.833,4,17.001,4c7.169,0,13,5.833,13,12.998
	C30.001,24.165,24.17,30,17.001,30z"/>
<path fill="#02A664" d="M17.001,29C10.383,29,5,23.619,5,17c0-6.617,5.383-12,12.001-12C23.618,5,29,10.383,29,17
	C29,23.619,23.618,29,17.001,29z"/>
<g>
	<path fill="#FFFFFF" d="M25,20.865c0,1.169-0.291,2.219-0.882,3.155c-0.59,0.931-1.447,1.661-2.581,2.188
		C20.404,26.736,19.06,27,17.506,27c-1.863,0-3.4-0.361-4.61-1.084c-0.857-0.517-1.555-1.211-2.093-2.074
		C10.268,22.974,10,22.13,10,21.313c0-0.476,0.16-0.881,0.482-1.22c0.321-0.338,0.731-0.509,1.23-0.509
		c0.402,0,0.745,0.134,1.021,0.398c0.28,0.263,0.518,0.654,0.715,1.171c0.241,0.619,0.501,1.129,0.78,1.544
		c0.278,0.414,0.672,0.757,1.179,1.024c0.507,0.267,1.172,0.399,1.995,0.399c1.135,0,2.053-0.27,2.762-0.808
		c0.71-0.543,1.062-1.218,1.062-2.027c0-0.643-0.191-1.163-0.573-1.563c-0.382-0.399-0.876-0.706-1.48-0.916
		c-0.604-0.211-1.413-0.436-2.427-0.673c-1.355-0.326-2.49-0.707-3.404-1.14c-0.915-0.438-1.641-1.03-2.178-1.782
		c-0.535-0.752-0.804-1.686-0.804-2.804c0-1.064,0.283-2.009,0.851-2.835c0.565-0.828,1.385-1.464,2.458-1.906
		C14.743,7.221,16.004,7,17.455,7c1.159,0,2.162,0.147,3.007,0.443c0.846,0.294,1.546,0.685,2.105,1.173s0.964,1,1.226,1.537
		c0.254,0.536,0.383,1.061,0.383,1.569c0,0.469-0.159,0.889-0.48,1.26c-0.321,0.375-0.724,0.563-1.205,0.563
		c-0.438,0-0.771-0.113-1-0.338c-0.228-0.225-0.475-0.59-0.74-1.101c-0.344-0.729-0.754-1.3-1.236-1.708
		c-0.48-0.408-1.252-0.613-2.315-0.613c-0.989,0-1.785,0.221-2.388,0.667c-0.608,0.442-0.91,0.978-0.91,1.603
		c0,0.386,0.103,0.721,0.31,1.002c0.206,0.281,0.488,0.522,0.849,0.727c0.361,0.201,0.727,0.36,1.095,0.474
		c0.371,0.113,0.98,0.281,1.829,0.502c1.067,0.254,2.028,0.537,2.893,0.843c0.862,0.31,1.596,0.681,2.199,1.121
		c0.605,0.44,1.081,0.996,1.419,1.67S25,19.889,25,20.865z"/>
</g>
</svg>
