<?xml version="1.0" encoding="utf-8"?>
<!-- Generator: Adobe Illustrator 16.0.3, SVG Export Plug-In . SVG Version: 6.00 Build 0)  -->
<!DOCTYPE svg PUBLIC "-//W3C//DTD SVG 1.1//EN" "http://www.w3.org/Graphics/SVG/1.1/DTD/svg11.dtd">
<svg version="1.1" id="Safety_Problem_-_Complete" xmlns="http://www.w3.org/2000/svg" xmlns:xlink="http://www.w3.org/1999/xlink"
	 x="0px" y="0px" width="34px" height="34px" viewBox="0 0 34 34" enable-background="new 0 0 34 34" xml:space="preserve">
<circle fill="#FFFFFF" cx="17" cy="17" r="17"/>
<path fill="#00984E" d="M17.001,32c-8.271,0-15-6.732-15-15.002C2.001,8.73,8.73,2,17.001,2c8.271,0,15,6.73,15,14.998
	C32.001,25.268,25.272,32,17.001,32z"/>
<path fill="#00BF63" d="M17.001,31C9.28,31,3,24.721,3,17S9.28,3,17.001,3C24.721,3,31,9.279,31,17S24.721,31,17.001,31z"/>
<polygon fill="#FFFFFF" points="7,25 17.001,6 27,25 "/>
<path fill="#00BF63" d="M15.931,17.917l-0.308-4.429c-0.058-0.861-0.087-1.481-0.087-1.857c0-0.515,0.137-0.912,0.422-1.198
	C16.236,10.144,16.608,10,17.069,10c0.555,0,0.929,0.186,1.112,0.55c0.19,0.369,0.284,0.896,0.284,1.587
	c0,0.405-0.02,0.822-0.069,1.241l-0.414,4.559c-0.045,0.541-0.145,0.956-0.292,1.247c-0.148,0.289-0.395,0.434-0.741,0.434
	c-0.348,0-0.591-0.138-0.726-0.421C16.087,18.918,15.992,18.488,15.931,17.917z M17.01,24c-0.396,0-0.74-0.118-1.033-0.361
	c-0.294-0.247-0.44-0.589-0.44-1.027c0-0.376,0.137-0.701,0.422-0.973c0.278-0.266,0.627-0.401,1.033-0.401
	c0.407,0,0.754,0.136,1.041,0.401c0.293,0.271,0.434,0.597,0.434,0.973c0,0.433-0.143,0.78-0.438,1.021
	C17.739,23.882,17.397,24,17.01,24z"/>
</svg>
