<?xml version="1.0" encoding="utf-8"?>
<!-- Generator: Adobe Illustrator 16.0.3, SVG Export Plug-In . SVG Version: 6.00 Build 0)  -->
<!DOCTYPE svg PUBLIC "-//W3C//DTD SVG 1.1//EN" "http://www.w3.org/Graphics/SVG/1.1/DTD/svg11.dtd">
<svg version="1.1" id="Safety_Problem_-_Submitted" xmlns="http://www.w3.org/2000/svg" xmlns:xlink="http://www.w3.org/1999/xlink"
	 x="0px" y="0px" width="34px" height="34px" viewBox="0 0 34 34" enable-background="new 0 0 34 34" xml:space="preserve">
<circle fill="#FFFFFF" cx="17" cy="17" r="17"/>
<path fill="#C70101" d="M17.001,32c-8.271,0-15-6.732-15-15.002C2.001,8.73,8.73,2,17.001,2c8.271,0,15,6.73,15,14.998
	C32.001,25.268,25.272,32,17.001,32z"/>
<path fill="#FC3434" d="M17.001,31.001C9.28,31.001,3,24.723,3,17c0-7.72,6.279-13.999,14-13.999c7.721,0,14,6.279,14,13.999
	C31.001,24.723,24.722,31.001,17.001,31.001z"/>
<polygon fill="#FFFFFF" points="7,25 17.001,6 27,25 "/>
<g>
	<path fill="#FC3434" d="M15.931,17.917l-0.308-4.428c-0.058-0.862-0.087-1.482-0.087-1.858c0-0.514,0.137-0.912,0.422-1.198
		C16.236,10.144,16.608,10,17.069,10c0.555,0,0.929,0.187,1.112,0.55c0.19,0.369,0.284,0.896,0.284,1.587
		c0,0.405-0.02,0.822-0.069,1.241l-0.414,4.558c-0.045,0.54-0.145,0.956-0.292,1.247c-0.148,0.289-0.395,0.434-0.741,0.434
		c-0.348,0-0.591-0.139-0.726-0.422C16.087,18.918,15.992,18.488,15.931,17.917z M17.01,24c-0.396,0-0.74-0.118-1.033-0.362
		c-0.294-0.246-0.44-0.588-0.44-1.026c0-0.377,0.137-0.702,0.422-0.973c0.278-0.267,0.627-0.402,1.033-0.402
		c0.407,0,0.754,0.136,1.041,0.402c0.293,0.271,0.434,0.596,0.434,0.973c0,0.433-0.143,0.78-0.438,1.021
		C17.739,23.882,17.397,24,17.01,24z"/>
</g>
</svg>
