<?xml version="1.0" encoding="utf-8"?>
<!-- Generator: Adobe Illustrator 16.0.3, SVG Export Plug-In . SVG Version: 6.00 Build 0)  -->
<!DOCTYPE svg PUBLIC "-//W3C//DTD SVG 1.1//EN" "http://www.w3.org/Graphics/SVG/1.1/DTD/svg11.dtd">
<svg version="1.1" id="Security_Checkpoint" xmlns="http://www.w3.org/2000/svg" xmlns:xlink="http://www.w3.org/1999/xlink"
	 x="0px" y="0px" width="34px" height="34px" viewBox="0 0 34 34" enable-background="new 0 0 34 34" xml:space="preserve">
<circle fill="#FFFFFF" cx="17" cy="17" r="15"/>
<path fill="#253659" d="M17.001,30c-7.168,0-13-5.835-13-13.002C4.001,9.833,9.833,4,17.001,4c7.169,0,13,5.833,13,12.998
	C30.001,24.165,24.17,30,17.001,30z"/>
<path fill="#4564A5" d="M17.001,29C10.383,29,5,23.619,5,17c0-6.617,5.383-12,12.001-12C23.618,5,29,10.383,29,17
	C29,23.619,23.618,29,17.001,29z"/>
<path fill="#FFFFFF" d="M24.07,18.244C23.328,16.848,22.177,16,19.352,16h-0.298h-0.285c-1.027,0-1.607,0.071-2.479,0.324
	c-1.514,0.438-7.034,6.254-7.034,6.254c-0.341,0.315-0.341,0.822,0,1.138c0.171,0.157,0.396,0.235,0.62,0.235
	c0.223,0,0.448-0.078,0.62-0.235L16,19c0.009,0.117,0,5,0,5h6l0.5-4l0.5,4h2C24.731,21.448,24.289,18.652,24.07,18.244z M17.77,24
	h-1.46l4.845-7.995c0.481,0.091,0.88,0.225,1.22,0.392L17.77,24z"/>
<path fill="#FFFFFF" d="M21.999,11.861c0,1.539-1.294,3.139-2.952,3.139l0,0c-0.001,0,0.004,0,0,0C17.398,15,16,13.399,16,11.861
	c0-0.298,0.084-0.592,0.177-0.861h2.869h2.873C22.016,11.269,21.999,11.563,21.999,11.861z"/>
<polygon fill="#FFFFFF" points="21.999,7.691 21.836,10 19.047,10 16.261,10 16,7.691 19.047,7 "/>
</svg>
