<?xml version="1.0" encoding="utf-8"?>
<!-- Generator: Adobe Illustrator 16.0.3, SVG Export Plug-In . SVG Version: 6.00 Build 0)  -->
<!DOCTYPE svg PUBLIC "-//W3C//DTD SVG 1.1//EN" "http://www.w3.org/Graphics/SVG/1.1/DTD/svg11.dtd">
<svg version="1.1" id="Service_Request" xmlns="http://www.w3.org/2000/svg" xmlns:xlink="http://www.w3.org/1999/xlink" x="0px"
	 y="0px" width="40px" height="40px" viewBox="0 0 40 40" enable-background="new 0 0 40 40" xml:space="preserve">
<path opacity="0.75" fill="#FFFFFF" d="M33.9707031,15.6733398c0-1.0039063-0.09375-1.9799805-0.2724609-2.9262695
	c-0.1806641-0.9482422-0.4560547-1.8676758-0.8242188-2.7587891c-0.3652344-0.8920898-0.796875-1.7255859-1.2958984-2.5024414
	s-1.0625-1.496582-1.6943359-2.1577148c-0.6357422-0.6611328-1.3232422-1.2543945-2.0634766-1.7753906
	c-0.7431641-0.5229492-1.5400391-0.9780273-2.3876953-1.3618164c-0.8535156-0.3828125-1.7333984-0.6689453-2.6376953-0.8608398
	c-0.90625-0.1914063-1.8364258-0.2856445-2.7944336-0.2856445c-0.9575195,0-1.8881836,0.0942383-2.7924805,0.2856445
	c-0.9057617,0.1918945-1.7836914,0.4780273-2.6357422,0.8608398c-0.8520508,0.3837891-1.6489258,0.8388672-2.390625,1.3618164
	c-0.7416992,0.5209961-1.4287109,1.1142578-2.0610352,1.7753906S8.9228516,6.7089844,8.4233398,7.4858398
	C7.925293,8.2626953,7.4941406,9.0961914,7.1264648,9.9882813c-0.3662109,0.8911133-0.6396484,1.8105469-0.8232422,2.7587891
	c-0.1835938,0.9462891-0.2749023,1.9223633-0.2749023,2.9262695c0,1.0014648,0.0913086,1.9775391,0.2749023,2.9257813
	s0.4570313,1.8666992,0.8232422,2.7602539c0.315918,0.7675781,0.6816406,1.4951172,1.0952148,2.1787109
	c0.4160156,0.6835938,0.8789063,1.3232422,1.3916016,1.9199219H9.609375H9.6064453l5.1938477,7.2529297l5.1943359,7.2529297
	l5.1850586-7.2363281l5.1767578-7.2324219c0.5214844-0.6015625,0.9912109-1.2480469,1.4101563-1.9355469
	c0.4199219-0.6914063,0.7900391-1.4257813,1.1074219-2.2001953c0.3681641-0.8935547,0.6435547-1.8120117,0.8242188-2.7602539
	C33.8769531,17.6508789,33.9707031,16.6748047,33.9707031,15.6733398z"/>
<path fill="#1873CD" d="M31.7617188,13.2333984c-0.15625-0.8286133-0.3945313-1.637207-0.7128906-2.4140625
	c-0.3164063-0.7822266-0.6953125-1.5258789-1.1308594-2.2128906c-0.4296875-0.6777344-0.9199219-1.3120117-1.4550781-1.8789063
	C27.9121094,6.1459961,27.3125,5.625,26.6835938,5.1767578C26.0449219,4.7211914,25.3496094,4.3198242,24.625,3.9868164
	c-0.7207031-0.3276367-1.4746094-0.5761719-2.2382813-0.7397461C21.6210938,3.0830078,20.8183594,3,20.0009766,3
	c-0.8193359,0-1.6210938,0.0830078-2.3857422,0.2470703c-0.7636719,0.1635742-1.5146484,0.4116211-2.2314453,0.7382813
	c-0.7324219,0.3344727-1.4277344,0.7353516-2.0683594,1.1928711c-0.6298828,0.4482422-1.2246094,0.9672852-1.7695313,1.5458984
	c-0.5419922,0.5727539-1.0341797,1.2060547-1.4628906,1.8842773c-0.4287109,0.6767578-0.8105469,1.4223633-1.1328125,2.2158203
	c-0.3144531,0.7729492-0.5537109,1.5844727-0.7109375,2.4130859C8.0810547,14.0678711,8,14.9375,8,15.8232422
	c0,0.8842773,0.0810547,1.7539063,0.2392578,2.5869141c0.1572266,0.8242188,0.3964844,1.6367188,0.7109375,2.4140625
	c0.2773438,0.6816406,0.5996094,1.3320313,0.9570313,1.9296875c0.3583984,0.5976563,0.7626953,1.1621094,1.2021484,1.6796875
	l2.3681641,3.3476563L19.9951172,37l8.8115234-12.4628906l0.0605469-0.0703125
	c0.4433594-0.5195313,0.8535156-1.0898438,1.2128906-1.6894531c0.3710938-0.6191406,0.6953125-1.2734375,0.9726563-1.9570313
	c0.3144531-0.7734375,0.5527344-1.5820313,0.7089844-2.4052734C31.9199219,17.5722656,32,16.7006836,32,15.8232422
	C32,14.9443359,31.9199219,14.0722656,31.7617188,13.2333984z"/>
<path fill="#1F8FFF" d="M30.7792969,13.3359375c-0.1445313-0.7553711-0.3632813-1.4946289-0.65625-2.203125
	c-0.2929688-0.7197266-0.6445313-1.4033203-1.046875-2.0336914c-0.3945313-0.6176758-0.84375-1.1938477-1.3339844-1.7094727
	c-0.5058594-0.5292969-1.0566406-1.0048828-1.6347656-1.4130859c-0.5878906-0.4155273-1.2246094-0.7822266-1.8925781-1.0854492
	C23.5605469,4.5952148,22.875,4.371582,22.1796875,4.2236328C21.4804688,4.0756836,20.7480469,4,20,4
	c-0.7490234,0-1.4814453,0.0756836-2.1787109,0.2236328c-0.6943359,0.1479492-1.3769531,0.3710938-2.0273438,0.6650391
	c-0.6738281,0.3051758-1.3134766,0.6723633-1.9042969,1.0898438c-0.5761719,0.4067383-1.1220703,0.8803711-1.6220703,1.4067383
	c-0.4980469,0.5214844-0.9492188,1.0991211-1.34375,1.7167969c-0.3964844,0.621582-0.7490234,1.3061523-1.0488281,2.0380859
	c-0.2880859,0.7026367-0.5087891,1.4433594-0.6542969,2.2016602C9.0742188,14.1044922,9,14.9033203,9,15.7167969
	c0,0.8125,0.0742188,1.6118164,0.2207031,2.3769531c0.1445313,0.75,0.3652344,1.4921875,0.6542969,2.2011719
	c0.2587891,0.6328125,0.5576172,1.2304688,0.8867188,1.7753906s0.7021484,1.0605469,1.1064453,1.5361328l3.5556641,4.9785156
	L19.9941406,35l7.9980469-11.2226563l0.1171875-0.1435547c0.4082031-0.4726563,0.7832031-0.9902344,1.1152344-1.5390625
	c0.3417969-0.5654297,0.6445313-1.171875,0.9023438-1.8046875c0.2910156-0.7050781,0.5097656-1.4423828,0.6523438-2.1904297
	C30.9257813,17.3266602,31,16.5249023,31,15.7167969C31,14.9067383,30.9257813,14.105957,30.7792969,13.3359375z"/>
<path fill="#FFFFFF" d="M24.5878906,20.4355469c0.6337891-0.6308594,0.6337891-1.6533203,0-2.2832031l-6.2285156-6.1914063
	c-0.6342773-0.6308594-1.6625977-0.6308594-2.296875,0s-0.6342773,1.6533203,0,2.2841797l6.2265625,6.1904297
	C22.9248047,21.0664063,23.953125,21.0664063,24.5878906,20.4355469z"/>
<path fill="#1F8FFF" d="M17.340332,14.6704102c-0.4082031-0.4091797-0.4389648-1.0405273-0.0688477-1.4116211
	c0.3706055-0.371582,1.0009766-0.340332,1.4091797,0.0688477l4.0048828,4.012207
	c0.4072266,0.409668,0.4394531,1.0410156,0.0683594,1.4121094c-0.3701172,0.371582-1.0009766,0.340332-1.4091797-0.0688477
	L17.340332,14.6704102z"/>
<path fill="#FFFFFF" d="M14.675293,13.4047852l9.9946289,10.0620117c0.7617188,0.7675781,1.9960938,0.7675781,2.7578125,0
	c0.7617188-0.765625,0.7617188-2.0097656,0-2.7763672l-9.9941406-10.0629883
	c0.121582-0.9545898-0.1782227-1.953125-0.9067383-2.6865234c-0.8745117-0.8803711-2.1289063-1.1416016-3.2304688-0.7885742
	c0.6420898,0.6459961,1.1386719,1.1577148,1.2949219,1.3149414c0.5585938,0.5620117,0.6904297,1.3408203,0.2958984,1.737793
	l-0.6308594,0.6352539c-0.3945313,0.3974609-1.1679688,0.2641602-1.7265625-0.2978516
	c-0.1557617-0.1572266-0.6640625-0.6572266-1.3061523-1.3041992c-0.3505859,1.1103516-0.0913086,2.3725586,0.7832031,3.253418
	C12.7353516,13.2250977,13.7275391,13.527832,14.675293,13.4047852z M27.0458984,23.0820313
	c-0.6074219,0.6103516-1.5898438,0.6103516-2.1962891,0c-0.6074219-0.6103516-0.6074219-1.5996094,0-2.2099609
	c0.6064453-0.6113281,1.5888672-0.6113281,2.1962891,0C27.6523438,21.4814453,27.6523438,22.4716797,27.0458984,23.0820313z
	 M16.0649414,14.3408203c-0.6347656-0.6391602-0.6347656-1.6748047,0-2.3144531
	c0.6342773-0.6391602,1.6630859-0.6391602,2.2978516,0l6.230957,6.2734375c0.6347656,0.6391602,0.6347656,1.6743164,0,2.3134766
	c-0.6347656,0.6396484-1.6630859,0.6396484-2.2988281,0L16.0649414,14.3408203z"/>
<path fill="#FFFFFF" d="M15.7709961,16.7919922l-4.5537109,4.5273438c-0.440918,0.4384766-0.1884766,1.3994141,0.5629883,2.1455078
	c0.7514648,0.7480469,1.7182617,0.9990234,2.1591797,0.5615234l4.5537109-4.527832L15.7709961,16.7919922z"/>
<polygon fill="#FFFFFF" points="22.5849609,13.5761719 24.1572266,12.0107422 25.4667969,11.6621094 28,8.0722656 26.921875,7 
	23.3105469,9.5185547 22.9589844,10.8198242 21.3857422,12.3837891 "/>
</svg>
