<?xml version="1.0" encoding="utf-8"?>
<!-- Generator: Adobe Illustrator 16.0.3, SVG Export Plug-In . SVG Version: 6.00 Build 0)  -->
<!DOCTYPE svg PUBLIC "-//W3C//DTD SVG 1.1//EN" "http://www.w3.org/Graphics/SVG/1.1/DTD/svg11.dtd">
<svg version="1.1" id="Service_Call-Incident" xmlns="http://www.w3.org/2000/svg" xmlns:xlink="http://www.w3.org/1999/xlink"
	 x="0px" y="0px" width="24px" height="24px" viewBox="0 0 24 24" enable-background="new 0 0 24 24" xml:space="preserve">
<circle fill="#58A052" cx="12" cy="12" r="12"/>
<path fill="#FFFFFF" d="M11.9995117,23.0009766c-6.065918,0-10.9985352-4.9365234-10.9985352-11.0014648
	c0-6.0664063,4.9326172-10.9985352,10.9985352-10.9985352s11.0014648,4.9321289,11.0014648,10.9985352
	C23.0009766,18.0644531,18.0654297,23.0009766,11.9995117,23.0009766z"/>
<path fill="#58A052" d="M13.2236328,20.8144531l-1.0908203-4.515625h-0.0639648
	c-0.300293,0-0.4272461-0.1259766-0.6831055-0.2988281C11.1298828,15.8261719,11,15.5966797,11,15.3125V8.6870117
	C11,8.4008789,11.1298828,8.1723633,11.3857422,8c0.2558594-0.1728516,0.3828125-0.3022461,0.6831055-0.3022461h0.0307617
	l1.0908203-4.515625L12.2294922,3L9.6972656,4.2192383C8.5639648,7.0869141,8,9.6601563,8,11.9375
	c0,2.2792969,0.5639648,4.9121094,1.6972656,7.9033203L12.2294922,21L13.2236328,20.8144531z"/>
<polygon fill="#58A052" points="16,3.9243164 14.8720703,3.6806641 13.7900391,8.1665039 14.84375,8.2875977 "/>
<polygon fill="#58A052" points="16,20.7851563 14.8759766,16.4179688 13.8203125,16.5429688 14.8613281,21 "/>
</svg>
