<?xml version="1.0" encoding="utf-8"?>
<!-- Generator: Adobe Illustrator 16.0.3, SVG Export Plug-In . SVG Version: 6.00 Build 0)  -->
<!DOCTYPE svg PUBLIC "-//W3C//DTD SVG 1.1//EN" "http://www.w3.org/Graphics/SVG/1.1/DTD/svg11.dtd">
<svg version="1.1" id="Shelter_-_Open" xmlns="http://www.w3.org/2000/svg" xmlns:xlink="http://www.w3.org/1999/xlink" x="0px"
	 y="0px" width="40px" height="40px" viewBox="0 0 40 40" enable-background="new 0 0 40 40" xml:space="preserve">
<path opacity="0.75" fill="#FFFFFF" d="M33.971,15.669c0-1.004-0.094-1.979-0.272-2.926c-0.181-0.948-0.456-1.868-0.824-2.759
	c-0.365-0.893-0.797-1.726-1.296-2.503c-0.499-0.776-1.063-1.496-1.694-2.157c-0.636-0.661-1.323-1.255-2.063-1.775
	c-0.743-0.523-1.54-0.979-2.388-1.362c-0.854-0.383-1.733-0.669-2.638-0.86C21.889,1.135,20.958,1.04,20,1.04
	c-0.958,0-1.888,0.095-2.792,0.286c-0.906,0.191-1.784,0.478-2.636,0.86c-0.852,0.384-1.649,0.839-2.391,1.362
	c-0.742,0.521-1.429,1.114-2.061,1.775S8.923,6.705,8.423,7.481c-0.498,0.777-0.929,1.61-1.297,2.503
	c-0.366,0.891-0.64,1.811-0.823,2.759c-0.184,0.946-0.275,1.922-0.275,2.926c0,1.002,0.091,1.978,0.275,2.926
	s0.457,1.867,0.823,2.761c0.316,0.768,0.682,1.495,1.095,2.179c0.416,0.684,0.879,1.323,1.392,1.92H9.609H9.606l5.194,7.253
	l5.194,7.253l5.185-7.236l5.177-7.232c0.521-0.602,0.991-1.248,1.41-1.936c0.42-0.691,0.79-1.426,1.107-2.2
	c0.368-0.894,0.644-1.813,0.824-2.761C33.877,17.646,33.971,16.671,33.971,15.669z"/>
<path fill="#38673D" d="M31.762,13.229c-0.156-0.829-0.395-1.638-0.713-2.414c-0.316-0.782-0.695-1.526-1.131-2.213
	c-0.43-0.678-0.92-1.313-1.455-1.879c-0.551-0.582-1.15-1.103-1.779-1.551c-0.639-0.456-1.334-0.857-2.059-1.19
	c-0.721-0.327-1.475-0.576-2.238-0.739c-0.766-0.164-1.568-0.247-2.386-0.247c-0.819,0-1.621,0.083-2.386,0.247
	c-0.764,0.163-1.515,0.411-2.231,0.738c-0.732,0.334-1.428,0.735-2.068,1.192c-0.63,0.448-1.225,0.968-1.77,1.546
	c-0.542,0.573-1.034,1.206-1.463,1.885C9.654,9.281,9.272,10.026,8.95,10.82c-0.314,0.772-0.554,1.584-0.711,2.413
	C8.081,14.063,8,14.934,8,15.819c0,0.884,0.081,1.754,0.239,2.587c0.157,0.824,0.396,1.637,0.711,2.414
	c0.277,0.682,0.6,1.332,0.957,1.93c0.358,0.598,0.763,1.162,1.202,1.68l2.368,3.348l6.518,9.219l8.812-12.463l0.061-0.07
	c0.443-0.52,0.854-1.09,1.213-1.689c0.371-0.619,0.695-1.273,0.973-1.957c0.314-0.773,0.553-1.582,0.709-2.405
	C31.92,17.568,32,16.696,32,15.819C32,14.94,31.92,14.068,31.762,13.229z"/>
<path fill="#359A40" d="M30.779,13.332c-0.145-0.756-0.363-1.495-0.656-2.203c-0.293-0.72-0.645-1.403-1.047-2.034
	c-0.395-0.617-0.844-1.193-1.334-1.709c-0.506-0.529-1.057-1.005-1.635-1.413c-0.588-0.416-1.225-0.782-1.893-1.086
	c-0.654-0.296-1.34-0.52-2.035-0.667C21.48,4.071,20.748,3.996,20,3.996c-0.749,0-1.481,0.075-2.179,0.224
	c-0.694,0.147-1.377,0.371-2.027,0.665c-0.674,0.305-1.313,0.672-1.904,1.09c-0.576,0.406-1.122,0.88-1.622,1.406
	c-0.498,0.521-0.949,1.1-1.344,1.717c-0.396,0.622-0.749,1.307-1.049,2.038c-0.288,0.703-0.509,1.443-0.654,2.202
	C9.074,14.101,9,14.899,9,15.713c0,0.813,0.074,1.611,0.221,2.377c0.145,0.75,0.365,1.492,0.654,2.201
	c0.259,0.633,0.558,1.23,0.887,1.775s0.702,1.061,1.106,1.536l3.556,4.979l4.57,6.415l7.999-11.223l0.117-0.144
	c0.408-0.473,0.783-0.99,1.115-1.539c0.342-0.565,0.645-1.172,0.902-1.805c0.291-0.705,0.51-1.442,0.652-2.19
	C30.926,17.322,31,16.521,31,15.713C31,14.902,30.926,14.102,30.779,13.332z"/>
<g>
	<polygon fill="#FFFFFF" points="13.999,13.534 27,8.52 26.525,7.364 9.999,13.518 10.377,14.632 12,14.141 12,23 26,23 26,21 
		13.999,21 	"/>
	<path fill="#FFFFFF" d="M17,18.993c0-0.28-0.09-0.519-0.272-0.706C16.547,18.098,16.313,18,16.022,18
		c-0.26,0-0.495,0.1-0.706,0.294C15.105,18.493,15,18.731,15,19.012c0,0.264,0.105,0.497,0.316,0.695
		C15.527,19.906,15.774,20,16.065,20c0.26,0,0.481-0.1,0.662-0.305C16.91,19.492,17,19.258,17,18.993z"/>
	<path fill="#FFFFFF" d="M26.001,20c-0.086-0.421-0.383-0.751-0.557-0.984c-0.324-0.382-1.441-0.578-3.342-0.591
		c-0.207,0-0.455,0.009-0.734,0.021c-0.282,0.014-0.593,0.036-0.933,0.06c-1.052,0.081-1.729,0.244-2.038,0.492
		C18.218,19.147,18.086,19.48,18,20H26.001z"/>
</g>
</svg>
