<?xml version="1.0" encoding="utf-8"?>
<!-- Generator: Adobe Illustrator 16.0.3, SVG Export Plug-In . SVG Version: 6.00 Build 0)  -->
<!DOCTYPE svg PUBLIC "-//W3C//DTD SVG 1.1//EN" "http://www.w3.org/Graphics/SVG/1.1/DTD/svg11.dtd">
<svg version="1.1" id="Snow" xmlns="http://www.w3.org/2000/svg" xmlns:xlink="http://www.w3.org/1999/xlink" x="0px" y="0px"
	 width="32px" height="32px" viewBox="0 0 32 32" enable-background="new 0 0 32 32" xml:space="preserve">
<circle fill="#FFFFFF" cx="16" cy="16" r="15"/>
<path fill="#2675A3" d="M16,29C8.832,29,3,23.167,3,16S8.832,3,16,3c7.167,0,13,5.832,13,13S23.168,29,16,29z"/>
<path fill="#319AD6" d="M16,28C9.383,28,4,22.617,4,16C4,9.383,9.383,4,16,4c6.617,0,12,5.383,12,12C28,22.617,22.617,28,16,28z"/>
<path fill="#FFFFFF" d="M14.517,16.061l0.804,1.165h1.509l0.696-1.165l-0.738-1.248h-1.505L14.517,16.061z M15.134,25.453v-2.646
	l-1.507,0.84l-0.77-0.436v-0.93l2.235-1.244v-1.736l-1.62,1.02v-1.84l-1.551,0.875v2.494l-0.848,0.514l-0.716-0.465v-1.667
	l-2.352,1.298L7,21.112v-1.05l2.468-1.322l-1.54-0.763v-0.967L8.8,16.546l2.215,1.275l1.54-0.872l-0.035-0.021l-1.575-0.885
	l1.526-0.926l-1.533-0.875l-2.215,1.278l-0.83-0.403v-0.968l1.498-0.823L7,12.055v-1.05l0.918-0.467l2.358,1.336v-1.699l0.71-0.471
	l0.872,0.492l-0.007,2.543l1.586,0.882l-0.007-1.795l1.662,0.879v-1.736l-2.235-1.25V8.798l0.767-0.434l1.51,0.831V6.556L15.996,6
	l0.868,0.556v2.639l1.561-0.848l0.788,0.509v0.827L16.9,10.968v1.736l1.581-0.947v1.891l1.631-0.868v-2.721l0.782-0.355l0.828,0.355
	v1.743l2.43-1.286L25,11.023v0.984l-2.37,1.316l1.483,0.813v0.94l-0.771,0.417l-2.272-1.319l-1.576,0.978l1.519,0.93l-1.564,0.882
	l1.622,0.833l2.272-1.244l0.733,0.502v0.899l-1.433,0.785l2.272,1.322V21.1l-0.957,0.43l-2.236-1.244v1.643l-0.801,0.443
	l-0.787-0.443v-2.496l-1.653-0.924v1.736L16.9,19.301v1.736l2.236,1.244v0.984l-0.768,0.381l-1.505-0.84v2.646L15.996,26
	L15.134,25.453z"/>
</svg>
