<?xml version="1.0" encoding="utf-8"?>
<!-- Generator: Adobe Illustrator 16.0.3, SVG Export Plug-In . SVG Version: 6.00 Build 0)  -->
<!DOCTYPE svg PUBLIC "-//W3C//DTD SVG 1.1//EN" "http://www.w3.org/Graphics/SVG/1.1/DTD/svg11.dtd">
<svg version="1.1" id="Soundstage" xmlns="http://www.w3.org/2000/svg" xmlns:xlink="http://www.w3.org/1999/xlink" x="0px" y="0px"
	 width="34px" height="34px" viewBox="0 0 34 34" enable-background="new 0 0 34 34" xml:space="preserve">
<circle fill="#FFFFFF" cx="17" cy="17" r="15"/>
<path fill="#262424" d="M17.001,30c-7.168,0-13-5.835-13-13.002C4.001,9.833,9.833,4,17.001,4c7.169,0,13,5.833,13,12.998
	C30.001,24.165,24.17,30,17.001,30z"/>
<path fill="#424243" d="M17.001,29C10.383,29,5,23.619,5,17c0-6.617,5.383-12,12.001-12C23.618,5,29,10.383,29,17
	C29,23.619,23.618,29,17.001,29z"/>
<path fill="#FFFFFF" d="M22.869,10h-0.817h-5.143h-4.958h-1.377H7.002v13L7,23.395C7,23.395,7.966,25,8.429,25
	c2.261,0,12.652,0,15.812,0C24.699,25,27,23.395,27,23.395v-0.539V10H22.869z M9,23l-1-6c4-1,3.931-4.477,4-6
	c1.119,0.461,3.133,0.994,5,1l-0.318,0.142c0.012,0,0.307-0.136,0.318-0.142c0.281-0.142,0.241-0.142,0,0l0,0
	c2.246-0.008,3.939-0.374,5-1c0.067,1.487,0.014,5.091,4,6l-1,6H9z"/>
</svg>
