<?xml version="1.0" encoding="utf-8"?>
<!-- Generator: Adobe Illustrator 16.0.3, SVG Export Plug-In . SVG Version: 6.00 Build 0)  -->
<!DOCTYPE svg PUBLIC "-//W3C//DTD SVG 1.1//EN" "http://www.w3.org/Graphics/SVG/1.1/DTD/svg11.dtd">
<svg version="1.1" id="Special_Incident" xmlns="http://www.w3.org/2000/svg" xmlns:xlink="http://www.w3.org/1999/xlink" x="0px"
	 y="0px" width="24px" height="24px" viewBox="0 0 24 24" enable-background="new 0 0 24 24" xml:space="preserve">
<circle fill="#F3B705" cx="12" cy="12" r="12"/>
<path fill="#FFFFFF" d="M11.9995117,23.0009766c-6.065918,0-10.9985352-4.9365234-10.9985352-11.0014648
	c0-6.0664063,4.9326172-10.9985352,10.9985352-10.9985352s11.0014648,4.9321289,11.0014648,10.9985352
	C23.0009766,18.0644531,18.0654297,23.0009766,11.9995117,23.0009766z"/>
<polygon fill="#F3B705" points="9,21 15,17 10,17 "/>
<path fill="#F3B705" d="M16.4560547,4c-2.5458984,0-6.3642578,0-8.9101563,0C6.2734375,4,5.0004883,5.625,5.0004883,7.2490234
	c0,1.6259766,0,3.6108398,0,6.8603516C5.0004883,15.7324219,6.2734375,17,7.5458984,17c1.6708984,0,6.3642578,0,8.9101563,0
	C17.7255859,17,19,15.7324219,19,14.109375c0-3.2495117,0-3.609375,0-6.8603516C19,5.625,17.7255859,4,16.4560547,4z"/>
<path fill="#FFFFFF" d="M10.9057617,11.0361328l-0.3173828-3.3789063c-0.059082-0.6577148-0.0888672-1.1318359-0.0888672-1.4174805
	c0-0.3891602,0.1445313-0.6938477,0.4316406-0.9111328C11.2197266,5.1088867,11.5986328,5,12.0673828,5
	c0.5698242,0,0.9501953,0.140625,1.1416016,0.4223633c0.1894531,0.277832,0.2900391,0.6791992,0.2900391,1.206543
	c0,0.3095703-0.0234375,0.625-0.0722656,0.9453125l-0.4238281,3.4760742
	c-0.0449219,0.4125977-0.1474609,0.730957-0.2988281,0.9506836c-0.1518555,0.2216797-0.4047852,0.3320313-0.7553711,0.3320313
	c-0.3574219,0-0.605957-0.1064453-0.7436523-0.3208008C11.0654297,11.7983398,10.9667969,11.4741211,10.9057617,11.0361328z"/>
<path fill="#FFFFFF" d="M12.0092773,16c-0.4042969,0-0.7573242-0.1210938-1.059082-0.3632813
	c-0.3007813-0.2441406-0.4506836-0.5849609-0.4506836-1.0175781c0-0.3798828,0.1445313-0.703125,0.4316406-0.9707031
	c0.2885742-0.2675781,0.6411133-0.3994141,1.0585938-0.3994141s0.7700195,0.1318359,1.065918,0.3994141
	c0.2939453,0.2675781,0.4433594,0.5908203,0.4433594,0.9707031c0,0.4287109-0.1513672,0.7646484-0.4492188,1.0087891
	C12.7529297,15.875,12.4072266,16,12.0092773,16z"/>
</svg>
