<?xml version="1.0" encoding="utf-8"?>
<!-- Generator: Adobe Illustrator 16.0.3, SVG Export Plug-In . SVG Version: 6.00 Build 0)  -->
<!DOCTYPE svg PUBLIC "-//W3C//DTD SVG 1.1//EN" "http://www.w3.org/Graphics/SVG/1.1/DTD/svg11.dtd">
<svg version="1.1" id="Stormwater_Multisector_Permit"
	 xmlns="http://www.w3.org/2000/svg" xmlns:xlink="http://www.w3.org/1999/xlink" x="0px" y="0px" width="40px" height="40px"
	 viewBox="0 0 40 40" enable-background="new 0 0 40 40" xml:space="preserve">
<path opacity="0.75" fill="#FFFFFF" enable-background="new    " d="M34,15.659c0-1.006-0.093-1.983-0.273-2.933
	c-0.182-0.949-0.455-1.872-0.826-2.764c-0.364-0.894-0.799-1.729-1.299-2.507c-0.498-0.779-1.063-1.5-1.695-2.162
	c-0.639-0.663-1.326-1.257-2.069-1.78c-0.744-0.524-1.542-0.979-2.394-1.364c-0.854-0.384-1.735-0.671-2.643-0.862
	C21.893,1.095,20.961,1,20.001,1s-1.893,0.095-2.798,0.287c-0.908,0.191-1.788,0.479-2.641,0.862
	c-0.854,0.385-1.652,0.84-2.396,1.364c-0.744,0.522-1.432,1.117-2.064,1.78C9.467,5.956,8.9,6.677,8.4,7.456
	C7.9,8.234,7.468,9.069,7.1,9.963c-0.367,0.892-0.642,1.814-0.825,2.764C6.092,13.676,6,14.653,6,15.659
	c0,1.004,0.092,1.981,0.275,2.933c0.183,0.949,0.458,1.87,0.825,2.766c0.316,0.77,0.683,1.498,1.098,2.184
	c0.416,0.686,0.881,1.326,1.395,1.924H9.589H9.585l5.205,7.268L19.995,40l5.194-7.252l5.188-7.247
	c0.521-0.603,0.992-1.25,1.412-1.938c0.42-0.692,0.792-1.429,1.108-2.205c0.371-0.896,0.646-1.815,0.826-2.766
	C33.907,17.641,34,16.664,34,15.659z"/>
<path fill="#008B8B" d="M31.762,13.233c-0.156-0.829-0.395-1.637-0.713-2.414c-0.314-0.782-0.695-1.526-1.131-2.213
	c-0.429-0.678-0.92-1.312-1.454-1.879c-0.552-0.582-1.149-1.103-1.778-1.551c-0.64-0.456-1.334-0.857-2.061-1.19
	c-0.721-0.328-1.475-0.576-2.236-0.74C21.621,3.083,20.818,3,20.001,3c-0.819,0-1.621,0.083-2.386,0.247
	c-0.764,0.164-1.515,0.412-2.231,0.738c-0.732,0.334-1.428,0.735-2.068,1.193c-0.63,0.448-1.225,0.967-1.77,1.546
	c-0.542,0.573-1.034,1.206-1.462,1.884c-0.429,0.677-0.811,1.422-1.133,2.216c-0.314,0.773-0.554,1.584-0.711,2.413
	C8.081,14.068,8,14.938,8,15.823c0,0.884,0.081,1.754,0.239,2.587c0.157,0.824,0.396,1.637,0.711,2.414
	c0.277,0.682,0.6,1.332,0.957,1.93c0.359,0.598,0.763,1.162,1.203,1.68l2.368,3.349L19.995,37l8.812-12.463l0.062-0.07
	c0.444-0.52,0.854-1.09,1.214-1.689c0.371-0.618,0.695-1.272,0.973-1.957c0.313-0.772,0.553-1.581,0.709-2.404
	C31.92,17.572,32,16.701,32,15.823C32,14.944,31.92,14.072,31.762,13.233z"/>
<path fill="#00BFBF" d="M30.779,13.336c-0.146-0.755-0.363-1.495-0.656-2.203c-0.293-0.72-0.645-1.403-1.047-2.034
	c-0.395-0.618-0.844-1.194-1.334-1.709c-0.506-0.529-1.057-1.005-1.635-1.413c-0.588-0.416-1.226-0.782-1.894-1.085
	c-0.653-0.296-1.34-0.52-2.034-0.667C21.48,4.076,20.748,4,20,4c-0.749,0-1.482,0.076-2.179,0.224
	c-0.695,0.148-1.377,0.371-2.027,0.665c-0.674,0.305-1.314,0.672-1.904,1.09c-0.577,0.407-1.122,0.88-1.623,1.407
	c-0.498,0.521-0.949,1.099-1.343,1.717c-0.397,0.622-0.75,1.306-1.049,2.038c-0.288,0.703-0.509,1.443-0.655,2.202
	C9.074,14.104,9,14.903,9,15.717c0,0.813,0.074,1.611,0.221,2.377c0.144,0.75,0.365,1.492,0.654,2.201
	c0.259,0.633,0.557,1.23,0.887,1.775c0.329,0.545,0.702,1.061,1.106,1.535l3.555,4.979L19.994,35l7.998-11.223l0.117-0.145
	c0.408-0.473,0.783-0.99,1.115-1.539c0.342-0.564,0.645-1.172,0.901-1.805c0.291-0.705,0.511-1.442,0.651-2.19
	C30.926,17.326,31,16.525,31,15.717C31,14.907,30.926,14.106,30.779,13.336z"/>
<path fill="#FFFFFF" d="M26.787,23.587c0,0.049,0.004,0.13,0.012,0.243s0.028,0.283,0.061,0.51c0,0.049,0,0.098,0,0.146
	c0,0.031,0,0.063,0,0.097c0,0.228-0.057,0.34-0.17,0.34h-0.023c-0.259-0.032-0.542-0.267-0.85-0.704
	c-0.162-0.227-0.315-0.354-0.461-0.388H25.33c-0.162,0-0.381,0.194-0.655,0.582c-0.292,0.389-0.606,0.583-0.946,0.583
	c-0.18,0-0.511-0.194-0.996-0.583c-0.485-0.372-0.729-0.712-0.729-1.021v-0.097c0-0.519-0.113-1.229-0.34-2.137
	c-0.243-1.02-0.534-1.716-0.875-2.088c-0.161,0.065-0.339,0.097-0.534,0.097c-0.048,0-0.089,0-0.121,0
	c-0.049,0-0.097-0.008-0.146-0.024l-5.366-0.922c-0.939-0.162-1.651-0.777-2.137-1.845C12.162,15.631,12,14.846,12,14.021
	c0-0.21,0.008-0.428,0.024-0.655c0.016-0.227,0.048-0.461,0.097-0.704c0.226-1.084,0.647-2.056,1.262-2.914
	c0.745-1.036,1.619-1.554,2.623-1.554c0.146,0,0.291,0.016,0.437,0.048l5.366,0.898c0.924,0.146,1.635,0.769,2.137,1.87
	c0.324,0.696,0.486,1.481,0.486,2.355c0,0.89-0.154,1.764-0.461,2.622c1.02,0.534,1.787,1.53,2.307,2.986
	c0.388,1.053,0.582,2.097,0.582,3.132c0,0.098,0,0.193,0,0.291s-0.008,0.194-0.024,0.291c-0.032,0.228-0.048,0.445-0.048,0.655
	V23.587z"/>
<path fill="#00BFBF" d="M23.291,13.751c0-0.673-0.154-1.29-0.463-1.851c-0.518-0.981-1.294-1.472-2.331-1.472
	c-0.906,0-1.708,0.399-2.403,1.198c-0.551,0.659-0.923,1.417-1.117,2.272c-0.081,0.336-0.121,0.687-0.121,1.051
	c0,0.659,0.153,1.283,0.461,1.872c0.437,0.829,1.084,1.312,1.943,1.452c0.048,0.015,0.097,0.021,0.145,0.021
	c0.049,0,0.089,0,0.122,0c0.048,0,0.097-0.007,0.146-0.021c-0.113-0.196-0.227-0.308-0.34-0.338
	c-0.761-0.111-1.352-0.546-1.772-1.302c-0.227-0.435-0.356-0.876-0.389-1.326c0.647-0.028,1.214-0.042,1.699-0.042H19.6
	c0.355,0,0.781,0.042,1.276,0.126c0.493,0.084,1.063,0.189,1.712,0.316c0.047,0.028,0.098,0.042,0.145,0.042
	c0.051,0,0.098,0.007,0.146,0.021C23.152,15.111,23.291,14.438,23.291,13.751z"/>
</svg>
