<?xml version="1.0" encoding="utf-8"?>
<!-- Generator: Adobe Illustrator 16.0.3, SVG Export Plug-In . SVG Version: 6.00 Build 0)  -->
<!DOCTYPE svg PUBLIC "-//W3C//DTD SVG 1.1//EN" "http://www.w3.org/Graphics/SVG/1.1/DTD/svg11.dtd">
<svg version="1.1" id="Strobe_Light" xmlns="http://www.w3.org/2000/svg" xmlns:xlink="http://www.w3.org/1999/xlink" x="0px"
	 y="0px" width="34px" height="34px" viewBox="0 0 34 34" enable-background="new 0 0 34 34" xml:space="preserve">
<circle fill="#FFFFFF" cx="17" cy="17" r="15"/>
<path fill="#CFAD33" d="M17.001,30c-7.168,0-13-5.835-13-13.002C4.001,9.833,9.833,4,17.001,4c7.169,0,13,5.833,13,12.998
	C30.001,24.165,24.17,30,17.001,30z"/>
<path fill="#FED53F" d="M17.001,29C10.383,29,5,23.619,5,17c0-6.617,5.383-12,12.001-12C23.618,5,29,10.383,29,17
	C29,23.619,23.618,29,17.001,29z"/>
<g>
	<rect x="10" y="10" fill="#FFFFFF" width="14" height="2"/>
	<path fill="#FFFFFF" d="M9.999,13c0,4.954,3.059,8,7,8c3.939,0,7-3.045,7-8H9.999z"/>
	<rect x="16" y="22" fill="#FFFFFF" width="1" height="4"/>
	<polygon fill="#FFFFFF" points="20,25.38 19.45,25.586 18.236,22.205 18.791,22 	"/>
	<polygon fill="#FFFFFF" points="13,25.38 13.553,25.586 14.764,22.205 14.213,22 	"/>
	<polygon fill="#FFFFFF" points="10.449,24.131 10,23.738 12.29,21 12.74,21.392 	"/>
	<polygon fill="#FFFFFF" points="23.552,24 24,23.607 21.711,20.869 21.26,21.261 	"/>
	<polygon fill="#FFFFFF" points="8.649,21.074 8.328,20.57 10.677,19 11,19.501 	"/>
	<polygon fill="#FFFFFF" points="25.68,21 26,20.496 23.65,18.926 23.329,19.427 	"/>
	<polygon fill="#FFFFFF" points="7.171,18 7,17.424 9.696,16.586 9.868,17.159 	"/>
	<polygon fill="#FFFFFF" points="26.828,18 27,17.424 24.304,16.586 24.131,17.159 	"/>
</g>
</svg>
