<?xml version="1.0" encoding="utf-8"?>
<!-- Generator: Adobe Illustrator 16.0.3, SVG Export Plug-In . SVG Version: 6.00 Build 0)  -->
<!DOCTYPE svg PUBLIC "-//W3C//DTD SVG 1.1//EN" "http://www.w3.org/Graphics/SVG/1.1/DTD/svg11.dtd">
<svg version="1.1" id="Ticket_Office" xmlns="http://www.w3.org/2000/svg" xmlns:xlink="http://www.w3.org/1999/xlink" x="0px"
	 y="0px" width="34px" height="34px" viewBox="0 0 34 34" enable-background="new 0 0 34 34" xml:space="preserve">
<circle fill="#FFFFFF" cx="17" cy="17" r="15"/>
<path fill="#262424" d="M17.001,30c-7.168,0-13-5.835-13-13.002C4.001,9.833,9.833,4,17.001,4c7.169,0,13,5.833,13,12.998
	C30.001,24.165,24.17,30,17.001,30z"/>
<path fill="#424243" d="M17.001,29C10.383,29,5,23.619,5,17c0-6.617,5.383-12,12.001-12C23.618,5,29,10.383,29,17
	C29,23.619,23.618,29,17.001,29z"/>
<path fill="#FFFFFF" d="M16,23V11H9v12h1v1H9v1.999h7V24h-1v-1H16z M12,24h-1v-1h1V24z M14,24h-1v-1h1V24z"/>
<path fill="#FFFFFF" d="M24,20V8h-7v12h1v1h-1v2h7v-2h-1v-1H24z M20,21h-1v-1h1V21z M22,21h-1v-1h1V21z"/>
<g>
	<path fill="#424243" d="M14,16.331v-2.904c-0.704,0.434-1.311,0.651-1.555,0.651c-0.116,0-0.22-0.038-0.311-0.113
		C12.046,13.893,12,13.806,12,13.708c0-0.115,0.044-0.196,0.131-0.252c0.09-0.051,0.246-0.12,0.471-0.207
		c0.335-0.126,0.605-0.259,0.805-0.4c0.202-0.138,0.38-0.295,0.535-0.47c0.157-0.174,0.257-0.279,0.304-0.32
		c0.047-0.04,0.135-0.06,0.266-0.06c0.148,0,0.265,0.047,0.355,0.137C14.955,12.229,15,12.354,15,12.516v3.815
		C15,16.777,14.88,17,14.5,17c-0.168,0-0.241-0.063-0.344-0.156C14.054,16.754,14,16.51,14,16.331z"/>
</g>
<g>
	<path fill="#424243" d="M21.003,12.359h1.53c0.15,0,0.266,0.029,0.348,0.087C22.959,12.505,23,12.583,23,12.683
		c0,0.088-0.03,0.163-0.097,0.225C22.843,12.969,22.744,13,22.619,13h-2.158c-0.145,0-0.259-0.038-0.339-0.112
		C20.037,12.813,20,12.723,20,12.623c0-0.065,0.022-0.152,0.076-0.259c0.051-0.108,0.111-0.192,0.171-0.254
		c0.263-0.25,0.493-0.464,0.703-0.643c0.211-0.178,0.359-0.294,0.447-0.35c0.16-0.106,0.293-0.211,0.401-0.317
		c0.104-0.104,0.188-0.215,0.241-0.325c0.057-0.112,0.086-0.22,0.086-0.327c0-0.116-0.031-0.22-0.088-0.311
		c-0.063-0.091-0.142-0.162-0.244-0.213c-0.105-0.051-0.213-0.076-0.334-0.076c-0.26,0-0.457,0.105-0.604,0.313
		c-0.021,0.027-0.054,0.1-0.1,0.222c-0.045,0.121-0.098,0.213-0.158,0.278c-0.054,0.065-0.142,0.099-0.25,0.099
		c-0.1,0-0.179-0.03-0.243-0.092c-0.065-0.057-0.096-0.141-0.096-0.244c0-0.123,0.027-0.254,0.092-0.39
		c0.057-0.136,0.147-0.258,0.268-0.371c0.123-0.109,0.272-0.197,0.458-0.266C21.013,9.032,21.229,9,21.478,9
		c0.297,0,0.55,0.042,0.761,0.129c0.137,0.059,0.26,0.136,0.363,0.237c0.102,0.103,0.18,0.219,0.239,0.353
		c0.06,0.134,0.085,0.271,0.085,0.415c0,0.224-0.059,0.427-0.181,0.611c-0.12,0.184-0.241,0.328-0.367,0.432
		c-0.124,0.103-0.334,0.267-0.626,0.488c-0.292,0.224-0.494,0.396-0.606,0.52C21.103,12.234,21.056,12.292,21.003,12.359z"/>
</g>
</svg>
