<?xml version="1.0" encoding="utf-8"?>
<!-- Generator: Adobe Illustrator 16.0.3, SVG Export Plug-In . SVG Version: 6.00 Build 0)  -->
<!DOCTYPE svg PUBLIC "-//W3C//DTD SVG 1.1//EN" "http://www.w3.org/Graphics/SVG/1.1/DTD/svg11.dtd">
<svg version="1.1" id="Tornado" xmlns="http://www.w3.org/2000/svg" xmlns:xlink="http://www.w3.org/1999/xlink" x="0px" y="0px"
	 width="40px" height="40px" viewBox="0 0 40 40" enable-background="new 0 0 40 40" xml:space="preserve">
<path opacity="0.75" fill="#FFFFFF" d="M34,15.659c0-1.006-0.095-1.984-0.273-2.932c-0.181-0.95-0.457-1.872-0.826-2.764
	c-0.366-0.895-0.799-1.729-1.299-2.508c-0.5-0.778-1.064-1.499-1.697-2.162c-0.637-0.663-1.326-1.257-2.067-1.779
	c-0.745-0.525-1.544-0.981-2.394-1.365c-0.854-0.384-1.736-0.67-2.643-0.862C21.893,1.095,20.96,1,20,1
	c-0.959,0-1.892,0.095-2.798,0.287c-0.908,0.192-1.787,0.479-2.641,0.862c-0.854,0.384-1.652,0.84-2.396,1.365
	C11.422,4.036,10.734,4.63,10.1,5.293C9.467,5.956,8.9,6.677,8.399,7.455C7.9,8.233,7.468,9.068,7.1,9.963
	c-0.367,0.892-0.641,1.814-0.825,2.764C6.091,13.675,6,14.653,6,15.659c0,1.004,0.091,1.981,0.275,2.932s0.458,1.871,0.825,2.767
	c0.316,0.769,0.683,1.498,1.097,2.183c0.417,0.686,0.881,1.326,1.395,1.924H9.588H9.585l5.205,7.269L19.995,40l5.196-7.251
	l5.188-7.247c0.522-0.604,0.993-1.251,1.413-1.94c0.421-0.692,0.792-1.429,1.109-2.204c0.369-0.896,0.646-1.816,0.826-2.767
	C33.905,17.641,34,16.663,34,15.659z"/>
<path fill="#262424" d="M31.762,13.233c-0.156-0.829-0.395-1.638-0.713-2.414c-0.316-0.782-0.695-1.526-1.131-2.213
	c-0.43-0.678-0.92-1.313-1.455-1.879c-0.551-0.582-1.15-1.103-1.779-1.551c-0.639-0.456-1.334-0.857-2.059-1.19
	c-0.721-0.327-1.475-0.576-2.238-0.739C21.621,3.083,20.818,3,20.001,3c-0.819,0-1.621,0.083-2.386,0.247
	c-0.764,0.163-1.515,0.411-2.231,0.738c-0.732,0.334-1.428,0.735-2.068,1.192c-0.63,0.448-1.225,0.968-1.77,1.546
	c-0.542,0.573-1.034,1.206-1.463,1.885C9.654,9.285,9.272,10.03,8.95,10.824c-0.314,0.772-0.554,1.584-0.711,2.413
	C8.081,14.067,8,14.938,8,15.823c0,0.884,0.081,1.754,0.239,2.587c0.157,0.824,0.396,1.637,0.711,2.414
	c0.277,0.682,0.6,1.332,0.957,1.93c0.358,0.598,0.763,1.162,1.202,1.68l2.368,3.348L19.995,37l8.812-12.463l0.061-0.07
	c0.443-0.52,0.854-1.09,1.213-1.689c0.371-0.619,0.695-1.273,0.973-1.957c0.314-0.773,0.553-1.582,0.709-2.405
	C31.92,17.572,32,16.7,32,15.823C32,14.944,31.92,14.072,31.762,13.233z"/>
<path fill="#424243" d="M30.779,13.336c-0.145-0.756-0.363-1.495-0.656-2.203c-0.293-0.72-0.645-1.403-1.047-2.034
	c-0.395-0.617-0.844-1.193-1.334-1.709c-0.506-0.529-1.057-1.005-1.635-1.413c-0.588-0.416-1.225-0.782-1.893-1.086
	c-0.654-0.296-1.34-0.52-2.035-0.667C21.48,4.075,20.748,4,20,4c-0.749,0-1.481,0.075-2.179,0.224
	c-0.694,0.147-1.377,0.371-2.027,0.665c-0.674,0.305-1.313,0.672-1.904,1.09c-0.576,0.406-1.122,0.88-1.622,1.406
	c-0.498,0.521-0.949,1.1-1.344,1.717c-0.396,0.622-0.749,1.307-1.049,2.038c-0.288,0.703-0.509,1.443-0.654,2.202
	C9.074,14.104,9,14.903,9,15.717c0,0.813,0.074,1.611,0.221,2.377c0.145,0.75,0.365,1.492,0.654,2.201
	c0.259,0.633,0.558,1.23,0.887,1.775s0.702,1.061,1.106,1.536l3.556,4.979L19.994,35l7.999-11.223l0.117-0.144
	c0.408-0.473,0.783-0.99,1.115-1.539c0.342-0.565,0.645-1.172,0.902-1.805c0.291-0.705,0.51-1.442,0.652-2.19
	C30.926,17.326,31,16.524,31,15.717C31,14.906,30.926,14.105,30.779,13.336z"/>
<path fill="#FFFFFF" d="M28.774,12.536c-0.066-0.049-0.142-0.081-0.225-0.098c0-0.016,0.009-0.049,0.025-0.098
	c0-0.032,0.004-0.068,0.013-0.109c0.008-0.04,0.012-0.077,0.012-0.109c0-0.049-0.041-0.114-0.124-0.195
	c-0.033-0.032-0.067-0.057-0.101-0.073c0.018-0.032,0.033-0.073,0.051-0.122c0.032-0.098,0.05-0.203,0.05-0.317
	c0-0.081-0.018-0.174-0.05-0.28c-0.033-0.105-0.101-0.199-0.2-0.28c-0.267-0.179-0.508-0.309-0.724-0.391
	c-0.117-0.049-0.234-0.081-0.35-0.098c-0.134-0.113-0.284-0.227-0.449-0.341c-0.134-0.081-0.284-0.171-0.45-0.269
	s-0.341-0.171-0.523-0.22c-0.283-0.064-0.55-0.105-0.8-0.122C24.681,9.398,24.48,9.39,24.331,9.39h-0.3l-0.225-0.073
	c-0.084-0.016-0.171-0.032-0.262-0.049c-0.092-0.016-0.204-0.023-0.337-0.023l-0.749,0.023l-0.675-0.023
	c-0.416,0-0.831-0.024-1.248-0.073c-0.283-0.032-0.541-0.049-0.774-0.049s-0.757,0-1.573,0c-0.433,0-0.729-0.021-0.886-0.062
	C17.145,9.021,16.974,9,16.792,9h-0.25c-0.1,0.017-0.2,0.028-0.3,0.036c-0.1,0.009-0.192,0.021-0.274,0.037
	c-0.1,0.017-0.2,0.041-0.3,0.073h-0.075c-0.034,0-0.067-0.004-0.1-0.013c-0.033-0.008-0.075-0.012-0.125-0.012
	c-0.133,0-0.317,0.017-0.549,0.049c-0.233,0.032-0.508,0.113-0.824,0.243c-0.283,0.114-0.507,0.22-0.674,0.317
	c-0.167,0.098-0.3,0.188-0.399,0.269c-0.117,0.098-0.2,0.195-0.25,0.292c-0.25,0.082-0.475,0.18-0.674,0.293
	c-0.183,0.098-0.354,0.22-0.512,0.366c-0.158,0.146-0.271,0.316-0.337,0.512C11.049,11.756,11,12,11,12.195
	c0,0.179,0.029,0.337,0.087,0.476c0.058,0.138,0.129,0.256,0.212,0.354c0.066,0.081,0.149,0.167,0.25,0.256
	c0.1,0.09,0.191,0.175,0.274,0.256l0.3,0.293c0,0.032,0.008,0.073,0.025,0.122c0,0.065,0.017,0.146,0.05,0.244
	c0.017,0.032,0.042,0.061,0.075,0.085c0.033,0.024,0.066,0.045,0.1,0.061l0.1,0.049c-0.017,0.017-0.025,0.041-0.025,0.073
	l0.025,0.317c0.033,0.081,0.133,0.175,0.299,0.28c0.167,0.106,0.391,0.199,0.674,0.28c0.333,0.082,0.649,0.171,0.949,0.269
	c0.166,0.065,0.333,0.122,0.499,0.171c-0.033,0.017-0.059,0.041-0.075,0.073c-0.034,0.065-0.05,0.139-0.05,0.22v0.171
	c0.017,0.048,0.063,0.085,0.138,0.109c0.075,0.024,0.154,0.045,0.237,0.061l0.3,0.049c0.033,0.098,0.083,0.18,0.15,0.244
	c0.05,0.065,0.112,0.13,0.187,0.195c0.075,0.065,0.163,0.122,0.262,0.171c0.167,0.081,0.3,0.134,0.399,0.158
	c0.1,0.024,0.2,0.036,0.3,0.036h0.2c0.05,0,0.1,0,0.149,0c0.066,0,0.133-0.008,0.2-0.023l0.2-0.049l-0.1,0.268
	c-0.05,0.033-0.092,0.082-0.125,0.146c-0.083,0.114-0.125,0.236-0.125,0.366v0.22c0,0.146,0.075,0.292,0.225,0.438
	c0.066,0.065,0.141,0.139,0.225,0.22c-0.033,0.032-0.059,0.065-0.075,0.098c-0.05,0.049-0.075,0.105-0.075,0.171
	c0,0.098,0.025,0.17,0.075,0.219c0.016,0.049,0.042,0.082,0.075,0.098c-0.117,0.017-0.225,0.033-0.325,0.049
	c-0.216,0.033-0.358,0.082-0.424,0.146c-0.117,0.098-0.175,0.22-0.175,0.366c0,0.065,0.025,0.122,0.075,0.171
	c0,0.033,0.012,0.061,0.037,0.086c0.025,0.023,0.054,0.053,0.087,0.085s0.075,0.065,0.125,0.098
	c-0.083,0.017-0.158,0.049-0.225,0.097c-0.117,0.065-0.208,0.146-0.275,0.244c-0.033,0.098-0.05,0.163-0.05,0.195
	c0,0.049,0.008,0.094,0.025,0.134c0.017,0.041,0.033,0.078,0.05,0.11c0.033,0.065,0.1,0.122,0.2,0.171
	c0.05,0.033,0.107,0.065,0.174,0.098c-0.083,0.032-0.167,0.081-0.25,0.146c-0.083,0.049-0.162,0.102-0.237,0.158
	C16.33,21.85,16.275,21.919,16.242,22c-0.067,0.114-0.1,0.22-0.1,0.317c0,0.114,0.033,0.202,0.1,0.268
	c0.017,0.032,0.038,0.062,0.063,0.085c0.025,0.025,0.054,0.054,0.087,0.086c0.033,0.033,0.066,0.057,0.1,0.073
	c-0.033,0.032-0.058,0.073-0.075,0.122c-0.05,0.082-0.075,0.163-0.075,0.244v0.22c0.033,0.081,0.087,0.15,0.162,0.207
	s0.146,0.102,0.212,0.134c0.033,0.017,0.066,0.032,0.1,0.049s0.066,0.032,0.1,0.049c0.05,0.017,0.091,0.032,0.125,0.049
	c-0.067,0.017-0.125,0.049-0.175,0.098c-0.1,0.098-0.149,0.228-0.149,0.391c0,0.081,0.008,0.146,0.025,0.194
	c0.033,0.098,0.087,0.179,0.162,0.244s0.154,0.114,0.237,0.146c0.166,0.065,0.299,0.098,0.399,0.098c0.066,0.017,0.133,0.017,0.2,0
	c-0.034,0.032-0.059,0.073-0.075,0.122c-0.033,0.098-0.05,0.18-0.05,0.244c0,0.081,0.017,0.138,0.05,0.17
	c0.066,0.081,0.158,0.146,0.275,0.195c0.116,0.049,0.216,0.073,0.299,0.073h0.2c0.033,0,0.071-0.004,0.113-0.012
	c0.041-0.008,0.079-0.013,0.112-0.013h0.149c-0.033,0.032-0.067,0.073-0.1,0.122c-0.05,0.082-0.075,0.171-0.075,0.269
	c0,0.081,0.05,0.171,0.15,0.268c0.05,0.049,0.108,0.09,0.175,0.122c-0.05,0.017-0.092,0.041-0.125,0.073
	c-0.067,0.065-0.1,0.131-0.1,0.195c0,0.049,0.017,0.122,0.05,0.22c0.017,0.049,0.042,0.098,0.075,0.146
	c-0.034,0.017-0.067,0.041-0.1,0.073c-0.05,0.049-0.075,0.114-0.075,0.194c0,0.065,0.05,0.146,0.15,0.244
	c0.05,0.049,0.107,0.09,0.174,0.122c-0.017,0.032-0.033,0.073-0.05,0.122c-0.017,0.033-0.025,0.082-0.025,0.146
	c0,0.049,0,0.09,0,0.122s0,0.065,0,0.098s0.008,0.065,0.025,0.098c0.033,0.113,0.087,0.219,0.162,0.316
	c0.075,0.098,0.138,0.163,0.188,0.195h0.175c0.1,0,0.175-0.032,0.225-0.098c0.033-0.049,0.066-0.117,0.1-0.207
	c0.033-0.09,0.05-0.176,0.05-0.256c0-0.032-0.004-0.065-0.013-0.098s-0.012-0.065-0.012-0.098v-0.122
	c0.066-0.016,0.133-0.049,0.2-0.098c0.133-0.098,0.216-0.211,0.25-0.342v-0.194c0-0.13-0.034-0.244-0.1-0.342
	c-0.033-0.049-0.067-0.09-0.1-0.122h0.175c0.05,0,0.104-0.013,0.162-0.036c0.058-0.025,0.112-0.102,0.162-0.232
	c0.033-0.064,0.05-0.146,0.05-0.244c0-0.08-0.017-0.146-0.05-0.194s-0.066-0.098-0.1-0.146c-0.1-0.098-0.183-0.162-0.25-0.195
	c-0.067-0.032-0.125-0.064-0.175-0.098c0.017-0.016,0.042-0.049,0.075-0.098c0.017-0.032,0.033-0.068,0.05-0.109
	s0.025-0.102,0.025-0.183c0-0.098-0.009-0.179-0.025-0.244c-0.083-0.228-0.2-0.366-0.349-0.415
	c-0.083-0.032-0.175-0.049-0.275-0.049l0.025-0.049c0-0.017,0.004-0.036,0.013-0.062c0.008-0.023,0.012-0.053,0.012-0.085
	c0-0.065-0.008-0.104-0.025-0.121c-0.033-0.032-0.067-0.068-0.1-0.109c-0.034-0.041-0.067-0.078-0.1-0.11
	c-0.05-0.049-0.083-0.089-0.1-0.122l0.075-0.073c0.017-0.032,0.033-0.062,0.05-0.085c0.017-0.025,0.025-0.053,0.025-0.086
	c0-0.032-0.009-0.068-0.025-0.109s-0.033-0.078-0.05-0.11c-0.017-0.049-0.033-0.089-0.05-0.122c0.1-0.016,0.191-0.04,0.274-0.072
	s0.158-0.062,0.225-0.085c0.066-0.025,0.116-0.069,0.149-0.135c0.033-0.13,0.05-0.22,0.05-0.269c0-0.13-0.05-0.22-0.15-0.269
	c-0.034-0.032-0.083-0.061-0.15-0.086c-0.067-0.023-0.125-0.053-0.175-0.085c-0.067-0.032-0.133-0.056-0.2-0.072
	c0.083,0.017,0.158,0.033,0.225,0.048c0.083,0.017,0.233,0.024,0.45,0.024c0.183,0,0.324-0.024,0.424-0.072
	c0.149-0.081,0.25-0.139,0.3-0.171s0.083-0.081,0.1-0.146v-0.195c0-0.065-0.021-0.105-0.063-0.122
	c-0.041-0.016-0.086-0.041-0.137-0.073c-0.032,0-0.083-0.008-0.149-0.024c-0.067-0.016-0.133-0.032-0.2-0.049
	c-0.067-0.016-0.15-0.041-0.25-0.073c0.133,0.032,0.266,0.058,0.399,0.073c0.116,0.017,0.236,0.029,0.362,0.037
	c0.124,0.008,0.254,0.012,0.387,0.012s0.249-0.016,0.35-0.049c0.032-0.016,0.112-0.041,0.236-0.073
	c0.126-0.032,0.237-0.081,0.338-0.146c0.115-0.065,0.211-0.122,0.287-0.171c0.074-0.049,0.112-0.098,0.112-0.146v-0.171
	c-0.034-0.065-0.08-0.122-0.138-0.171c-0.059-0.049-0.129-0.073-0.212-0.073h-0.2c-0.1,0-0.217-0.017-0.35-0.049
	c-0.066-0.017-0.124-0.04-0.175-0.073c0.067,0.017,0.142,0.024,0.226,0.024h0.523c0.15,0,0.3-0.004,0.45-0.013
	c0.149-0.008,0.282-0.027,0.399-0.061c0.499-0.146,0.749-0.324,0.749-0.536v-0.171l0.599-0.805c0.433-0.098,0.844-0.212,1.235-0.342
	s0.629-0.235,0.712-0.317c0.133-0.098,0.2-0.17,0.2-0.219c0-0.065-0.018-0.114-0.051-0.146l-0.174-0.269h0.174
	c0.083,0,0.208-0.012,0.375-0.036c0.166-0.024,0.315-0.086,0.449-0.184c0.1-0.064,0.162-0.138,0.188-0.22
	c0.024-0.08,0.037-0.153,0.037-0.219c0-0.032-0.005-0.062-0.013-0.086s-0.012-0.044-0.012-0.061v-0.049
	c0.1,0,0.183-0.024,0.249-0.073c0.166-0.065,0.25-0.171,0.25-0.317v-0.146c-0.05-0.146-0.167-0.284-0.35-0.414
	c-0.084-0.065-0.175-0.114-0.274-0.146c0.149-0.032,0.29-0.081,0.424-0.146c0.116-0.049,0.225-0.102,0.325-0.158
	c0.1-0.057,0.167-0.126,0.199-0.208c0.018-0.032,0.025-0.089,0.025-0.17c0-0.212-0.092-0.358-0.274-0.439l0.225-0.634
	c0.199-0.13,0.365-0.265,0.499-0.402c0.133-0.139,0.2-0.306,0.2-0.5v-0.195C28.982,12.772,28.907,12.634,28.774,12.536z"/>
<path fill="#424243" d="M19.551,10.158c0.086,0,0.216,0.011,0.389,0.031c0.173,0.021,0.381,0.032,0.624,0.032
	c0.155,0,0.293-0.006,0.416-0.017c0.12-0.01,0.285-0.016,0.492-0.016c0.104,0,0.216,0,0.338,0c0.138,0,0.293,0.011,0.467,0.032
	c0.501,0.041,1.004,0.125,1.505,0.252c0.501,0.126,0.951,0.211,1.35,0.253c0.397,0.042,0.713,0.095,0.947,0.158
	c0.233,0.063,0.428,0.199,0.583,0.41c0.035,0.042,0.1,0.105,0.195,0.189C26.951,11.568,27,11.621,27,11.642
	c0,0.105-0.079,0.201-0.235,0.285c-0.155,0.084-0.415,0.221-0.777,0.41c-0.035,0.021-0.112,0.063-0.234,0.126
	c-0.121,0.063-0.199,0.105-0.233,0.127c-0.173,0.085-0.407,0.147-0.7,0.189c-0.294,0.042-0.622,0.073-0.986,0.095
	c-0.363,0.021-0.753,0.037-1.168,0.047c-0.415,0.011-0.822,0.026-1.219,0.048C21.083,12.99,20.719,13,20.356,13
	c-0.346,0-0.675,0-0.986,0c-0.623,0-1.121-0.021-1.492-0.063c-0.372-0.041-0.675-0.088-0.908-0.142
	c-0.233-0.052-0.428-0.104-0.584-0.158c-0.155-0.052-0.311-0.1-0.467-0.142c-0.312-0.063-0.684-0.101-1.116-0.111
	c-0.433-0.01-0.813-0.016-1.142-0.016H13.09c-0.087,0-0.19-0.021-0.312-0.063c-0.122-0.041-0.242-0.095-0.363-0.157
	c-0.122-0.063-0.221-0.137-0.298-0.221C12.039,11.843,12,11.769,12,11.705c0-0.147,0.039-0.236,0.117-0.268
	c0.078-0.032,0.203-0.09,0.376-0.174c0.173-0.085,0.416-0.152,0.727-0.206c0.311-0.053,0.666-0.143,1.064-0.268
	c0.397-0.127,0.782-0.27,1.154-0.427c0.372-0.158,0.766-0.269,1.181-0.332C16.705,10.011,16.8,10,16.904,10c0.104,0,0.216,0,0.338,0
	L19.551,10.158z"/>
</svg>
