<?xml version="1.0" encoding="utf-8"?>
<!-- Generator: Adobe Illustrator 16.0.3, SVG Export Plug-In . SVG Version: 6.00 Build 0)  -->
<!DOCTYPE svg PUBLIC "-//W3C//DTD SVG 1.1//EN" "http://www.w3.org/Graphics/SVG/1.1/DTD/svg11.dtd">
<svg version="1.1" id="Traffic_Safety_Problem_-_Submitted"
	 xmlns="http://www.w3.org/2000/svg" xmlns:xlink="http://www.w3.org/1999/xlink" x="0px" y="0px" width="34px" height="34px"
	 viewBox="0 0 34 34" enable-background="new 0 0 34 34" xml:space="preserve">
<circle fill="#FFFFFF" cx="17" cy="17" r="17"/>
<path fill="#C70101" d="M17.001,32c-8.271,0-15-6.732-15-15.002C2.001,8.73,8.73,2,17.001,2c8.271,0,15,6.73,15,14.998
	C32.001,25.268,25.272,32,17.001,32z"/>
<path fill="#FC3434" d="M17.001,31.001C9.28,31.001,3,24.723,3,17c0-7.72,6.279-13.999,14-13.999c7.721,0,14,6.279,14,13.999
	C31.001,24.723,24.722,31.001,17.001,31.001z"/>
<path fill="#FFFFFF" d="M19.996,15.547c-0.004-1.084-0.869-1.66-1.362-1.721l-1.231-3.17c-0.228-0.608-0.731-1.64-1.682-1.645
	h-1.733h-2.962H9.262c-0.947,0.005-1.448,1.037-1.682,1.645l-1.231,3.17C5.863,13.887,4.998,14.463,5,15.547v4.445h1v0.998
	c0,1.246,2,1.203,2,0v-0.998h9v0.998c0,1.334,2,1.388,2,0v-0.998h1L19.996,15.547z"/>
<path fill="#FC3434" d="M8.5,18c-0.833,0-1.502-0.672-1.5-1.5C6.998,15.663,7.667,14.99,8.5,15c0.827-0.01,1.5,0.663,1.5,1.5
	C10,17.327,9.326,18,8.5,18z"/>
<path fill="#FC3434" d="M8,14l1.167-3.337C9.263,10.274,9.471,10.008,9.82,10h5.465c0.346,0.008,0.504,0.274,0.604,0.663L17,14H8z"
	/>
<path fill="#FC3434" d="M16.502,18c-0.836,0.001-1.497-0.672-1.502-1.5c0.005-0.836,0.666-1.509,1.502-1.5
	c0.821-0.01,1.494,0.663,1.498,1.5C17.996,17.328,17.323,18.001,16.502,18z"/>
<path fill="#FFFFFF" d="M26.118,11h-3.242c-0.526,0-0.976,0.149-1.348,0.447C21.155,11.744,21,12.309,21,12.74v3.752
	c0,0.133-0.013,0.335,0.13,0.408c0.227,0.116,0.186,0.1,0.37,0.1c0.179,0,0.245-0.004,0.365-0.111
	C21.985,16.781,22,16.626,22,16.493V13h1v9.2c0.021,0.198-0.039,0.52,0.125,0.659C23.286,23.001,23.26,23,23.5,23
	c0.242,0,0.231-0.015,0.391-0.155S24,22.398,24,22.2V17h1v5.2c0,0.198-0.047,0.517,0.125,0.659c0.172,0.139,0.149,0.129,0.375,0.129
	c0.24,0,0.172,0.045,0.344-0.097C26.018,22.751,26,22.61,26,22.411V13h1l0.006,3.442c0,0.133-0.038,0.351,0.085,0.457
	C27.211,17.008,27.316,17,27.5,17c0.18,0,0.279,0.008,0.4-0.101c0.119-0.106,0.099-0.324,0.099-0.457V12.54
	c0-0.431-0.183-0.796-0.548-1.093C27.089,11.149,26.644,11,26.118,11z"/>
<path fill="#FFFFFF" d="M24.5,10c0.429,0,0.787-0.148,1.072-0.445C25.857,9.259,26,8.908,26,8.499c0-0.408-0.143-0.759-0.428-1.056
	C25.287,7.149,24.929,7,24.5,7c-0.409,0-0.763,0.149-1.058,0.443C23.148,7.74,23,8.091,23,8.499c0,0.409,0.148,0.76,0.442,1.056
	C23.737,9.852,24.091,10,24.5,10z"/>
</svg>
