<?xml version="1.0" encoding="utf-8"?>
<!-- Generator: Adobe Illustrator 16.0.3, SVG Export Plug-In . SVG Version: 6.00 Build 0)  -->
<!DOCTYPE svg PUBLIC "-//W3C//DTD SVG 1.1//EN" "http://www.w3.org/Graphics/SVG/1.1/DTD/svg11.dtd">
<svg version="1.1" id="Trash_Problem_-_Recieved" xmlns="http://www.w3.org/2000/svg" xmlns:xlink="http://www.w3.org/1999/xlink"
	 x="0px" y="0px" width="34px" height="34px" viewBox="0 0 34 34" enable-background="new 0 0 34 34" xml:space="preserve">
<circle fill="#FFFFFF" cx="17" cy="17" r="17"/>
<path fill="#BF6B04" d="M17.001,32c-8.271,0-15-6.732-15-15.002C2.001,8.73,8.73,2,17.001,2c8.271,0,15,6.73,15,14.998
	C32.001,25.268,25.272,32,17.001,32z"/>
<path fill="#F28705" d="M17.001,31C9.28,31,3,24.721,3,17S9.28,3,17.001,3C24.721,3,31,9.279,31,17S24.721,31,17.001,31z"/>
<g>
	<path fill="#FFFFFF" d="M8,12l0.951,12.633C8.951,25.39,10.986,26,13.5,26c2.515,0,4.554-0.61,4.554-1.367L19,12H8z"/>
	<path fill="#F28705" d="M14,23.525C14,23.73,13.798,24,13.498,24C13.203,24,13,23.729,13,23.525V13.341c0-0.2,0-0.341,0.498-0.341
		C14.001,13,14,13.141,14,13.341V23.525z"/>
	<path fill="#FFFFFF" d="M14.981,6.688l-0.576,0.098c-0.056-0.338-0.237-0.635-0.51-0.832C13.618,5.753,13.288,5.68,12.95,5.73
		c-0.69,0.117-1.157,0.776-1.044,1.475l-0.558,0.093C8.314,7.809,7.911,9.381,8.014,10L19,8.155
		C18.894,7.536,18.01,6.18,14.981,6.688z M12.609,7.087c-0.023-0.149,0.01-0.298,0.094-0.419c0.088-0.122,0.214-0.203,0.363-0.226
		c0.306-0.052,0.588,0.157,0.637,0.46L12.609,7.087z"/>
	<path fill="#FFFFFF" d="M24.947,19.959c0.07,0.088,0.113,0.166,0.133,0.227c0.061,0.186-0.012,0.316-0.219,0.385l-0.582,0.189
		l-0.391-0.437c-0.072-0.216,0.023-0.421,0.291-0.619L24.947,19.959z"/>
	<path fill="#FFFFFF" d="M22.209,18.414l0.771,0.258c0.068,0.087,0.107,0.162,0.131,0.227c0.063,0.185-0.004,0.313-0.219,0.384
		l-0.58,0.188l-0.385-0.438C21.852,18.818,21.949,18.612,22.209,18.414z"/>
	<path fill="#FFFFFF" d="M23.631,19.008l-0.033-0.898c0.115-0.1,0.221-0.163,0.324-0.197c0.188-0.062,0.363-0.049,0.533,0.034
		c0.174,0.081,0.277,0.189,0.322,0.319c0.055,0.162-0.029,0.376-0.264,0.633L23.631,19.008z"/>
	<path fill="#FFFFFF" d="M27.346,20.696c-0.053,0.02-0.262,0.104-0.627,0.264l-0.33,0.017l-0.188-0.176
		c-0.107-0.109-0.18-0.207-0.209-0.295c-0.111-0.324-0.143-0.652-0.092-0.977c0.045-0.325,0.172-0.52,0.371-0.585
		c0.137,0.052,0.279,0.103,0.422,0.15c0.287,0.088,0.449,0.125,0.48,0.114l-0.006-0.019c0.176-0.057,0.311,0.046,0.396,0.308
		c0.08,0.229,0.094,0.463,0.053,0.709C27.572,20.454,27.48,20.619,27.346,20.696z"/>
	<path fill="#FFFFFF" d="M28,22.808l-0.646,0.213c-0.273-0.039-0.479-0.122-0.617-0.248l0.191-0.68l0.746-0.245L28,22.808z"/>
	<path fill="#FFFFFF" d="M23.107,22.455l-0.645,0.215c-0.273-0.039-0.473-0.125-0.619-0.25l0.191-0.68l0.748-0.244L23.107,22.455z"
		/>
	<path fill="#FFFFFF" d="M25.367,23.325c0.225,0.255,0.455,0.713,0.686,1.384c0.027,0.084,0.023,0.167-0.014,0.263
		c-0.033,0.09-0.092,0.18-0.168,0.273c-0.076,0.085-0.17,0.171-0.283,0.241c-0.115,0.073-0.232,0.13-0.352,0.171L24.189,26
		c-0.043-0.098-0.24-0.286-0.592-0.575c-0.334-0.293-0.504-0.445-0.51-0.463c-0.078-0.237-0.031-0.557,0.146-0.965
		c0.186-0.43,0.4-0.762,0.654-0.993l0.086-0.022C24.527,22.8,24.988,22.914,25.367,23.325z"/>
	<path fill="#FFFFFF" d="M21.188,11.198c-0.039-0.035-0.455-0.348-0.501-0.374c-0.293-0.17-0.696-0.111-1.043-0.174
		c-0.332-0.063-0.645-0.206-0.97-0.276c-0.366-0.077-0.819-0.103-1.208-0.073c-0.505,0.04-0.934,0.264-1.466,0.251
		c0.407-0.189,0.673-0.639,1.105-0.783c0.434-0.145,1.07-0.445,1.474-0.641c0.652-0.314,1.906,0.059,1.869-0.046
		c0,0,1.082,0.667,1.375,0.824l1.138,0.969c0.15,0.109-0.19,1.639-0.19,1.639L22.008,13l-0.184-0.686l-0.458-0.283
		C21.306,12.031,21.318,11.325,21.188,11.198z"/>
	<path fill="#FFFFFF" d="M21.977,16.515c0,0-0.547,0.037-1.188-0.592v-1.334h1.188C21.977,14.589,22.701,15.803,21.977,16.515z"/>
	<path fill="#FFFFFF" d="M24.611,15.8l-0.313-2.1l1.322,0.86l0.963,0.869c0,0,0.213,1.115,0.213,1.571h-1.092
		C25.705,17,24.611,16.767,24.611,15.8z"/>
	<path fill="#F28705" d="M11,23.525C11,23.73,10.804,24,10.502,24C10.205,24,10,23.729,10,23.525V13.341c0-0.2,0-0.341,0.502-0.341
		C11.001,13,11,13.141,11,13.341V23.525z"/>
	<path fill="#F28705" d="M17,23.525C17,23.73,16.802,24,16.502,24C16.206,24,16,23.729,16,23.525V13.341c0-0.2,0-0.341,0.501-0.341
		C17,13,17,13.141,17,13.341V23.525z"/>
</g>
</svg>
