<?xml version="1.0" encoding="utf-8"?>
<!-- Generator: Adobe Illustrator 16.0.3, SVG Export Plug-In . SVG Version: 6.00 Build 0)  -->
<!DOCTYPE svg PUBLIC "-//W3C//DTD SVG 1.1//EN" "http://www.w3.org/Graphics/SVG/1.1/DTD/svg11.dtd">
<svg version="1.1" id="Trash_Dumpster" xmlns="http://www.w3.org/2000/svg" xmlns:xlink="http://www.w3.org/1999/xlink" x="0px"
	 y="0px" width="34px" height="34px" viewBox="0 0 34 34" enable-background="new 0 0 34 34" xml:space="preserve">
<circle fill="#FFFFFF" cx="17" cy="17" r="15"/>
<path fill="#262424" d="M17.001,30.001c-7.168,0-13-5.836-13-13.003c0-7.165,5.832-12.997,13-12.997
	c7.169,0,13.001,5.832,13.001,12.997C30.002,24.165,24.17,30.001,17.001,30.001z"/>
<path fill="#424243" d="M17.001,29C10.383,29,5,23.62,5,17c0-6.618,5.383-12,12.001-12C23.619,5,29,10.382,29,17
	C29,23.62,23.619,29,17.001,29z"/>
<g transform="matrix(0.55953348,0,0,0.51519266,39.348006,33.774779)">
	<g>
		<path fill="none" d="M-30.982-41.803c-0.309,0-0.545,0.137-0.545,0.303s0.236,0.292,0.545,0.292c0.305,0,0.56-0.126,0.56-0.292
			S-30.676-41.803-30.982-41.803z"/>
		<path fill="#FFFFFF" d="M-30.982-41.935c-0.506,0-0.923,0.213-0.923,0.485c0,0.116,0.106,0.235,0.234,0.32
			c0.012,0.217,0.038,0.576,0.038,0.805h-1.159h-23.234v1.196c0.111,0.099,0.896,0.253,1.164,0.447
			c0.271,0.19,0.434,0.493,0.623,0.733v15.74c0,0-0.08,1.253,1.067,1.274l13.225,0.009c1.414-0.004-1.159,0.061-0.974-0.083
			c-0.408-0.337-0.432-1.069-0.432-1.499c0-1.158,0.569-4.229,2.738-4.229c0.378,0,1.904,0.034,2.248,0.087l2.433-11.298
			l0.506,0.062v-0.622h1.154c0,0,1.956-0.069,1.998-1.816v-0.816c0.131-0.083,0.201-0.193,0.201-0.309
			C-30.074-41.721-30.476-41.935-30.982-41.935z"/>
	</g>
	<path fill="#FFFFFF" d="M-31.144-40.616c0.171,0.386,0.403-0.164,0.569,0.222l6.73,15.416c0.171,0.387,0.171,0.387,0.574,0.224
		l1.203-0.485l-7.067-16.187l-0.81,0.322l-0.325-0.774l-0.164-0.385c0,0-0.501,0.202-0.803,0.324
		c-0.403,0.161-0.403,0.161-0.236,0.549C-31.305-41.009-31.326-41.023-31.144-40.616z"/>
	<path fill="#FFFFFF" d="M-34.579-22.855c0,1.067-0.803,1.941-1.787,1.941c-0.99,0-1.787-0.874-1.787-1.941
		c0-1.073,0.798-1.941,1.787-1.941C-35.382-24.796-34.579-23.928-34.579-22.855z"/>
</g>
</svg>
