<?xml version="1.0" encoding="utf-8"?>
<!-- Generator: Adobe Illustrator 16.0.3, SVG Export Plug-In . SVG Version: 6.00 Build 0)  -->
<!DOCTYPE svg PUBLIC "-//W3C//DTD SVG 1.1//EN" "http://www.w3.org/Graphics/SVG/1.1/DTD/svg11.dtd">
<svg version="1.1" id="Trash_Receptacle" xmlns="http://www.w3.org/2000/svg" xmlns:xlink="http://www.w3.org/1999/xlink" x="0px"
	 y="0px" width="34px" height="34px" viewBox="0 0 34 34" enable-background="new 0 0 34 34" xml:space="preserve">
<circle fill="#FFFFFF" cx="17" cy="17" r="15"/>
<path fill="#262424" d="M17.001,30c-7.168,0-13-5.836-13-13.002C4.001,9.833,9.833,4,17.001,4c7.168,0,13,5.833,13,12.998
	C30.001,24.164,24.169,30,17.001,30z"/>
<path fill="#424243" d="M17.001,29C10.383,29,5,23.619,5,17c0-6.617,5.383-12,12.001-12C23.619,5,29,10.383,29,17
	C29,23.619,23.619,29,17.001,29z"/>
<polygon fill="#FFFFFF" points="11,26 15,26 17,18 16,18 14,25 12,25 10,18 9,18 "/>
<rect x="11.59" y="15.744" transform="matrix(0.7087 0.7055 -0.7055 0.7087 14.9998 -3.8067)" fill="#FFFFFF" width="1.04" height="1.037"/>
<rect x="12.313" y="18.875" fill="#FFFFFF" width="1.318" height="1.319"/>
<polygon fill="#FFFFFF" points="14.327,17.597 13.593,16.861 12.856,17.597 13.593,18.301 "/>
<path fill="#FFFFFF" d="M17.591,15.687c0.269-0.378,0.548-0.78,0.955-1.387l0.001,10.877c0,0.228-0.022,0.489,0.132,0.648
	C18.835,25.988,18.946,26,19.183,26c0.228,0,0.291-0.025,0.457-0.188c0.159-0.156,0.19-0.431,0.19-0.658v-6.155h1.057v6.155
	c0,0.228-0.016,0.513,0.145,0.672C21.199,25.988,21.3,26,21.534,26c0.21,0,0.321,0.015,0.484-0.146
	c0.165-0.164,0.163-0.45,0.163-0.678V14.8h0.522l0.011,3.602c0,0.171,0.06,0.313,0.175,0.429c0.115,0.111,0.27,0.167,0.463,0.167
	c0.152,0,0.357-0.09,0.474-0.201C23.945,18.682,24,18.539,24,18.369v-4.583c0-0.493-0.174-0.914-0.518-1.263
	C23.134,12.175,22.711,12,22.209,12h-2.456c-0.655,0-1.145,0.236-1.475,0.708c-0.078,0.096-0.24,0.326-0.489,0.694
	c-0.253,0.37-0.523,0.619-0.812,1.055h-2.371c-0.173,0.019-0.317,0.149-0.432,0.263C14.057,14.833,14,14.924,14,15.094
	c0,0.151,0.057,0.34,0.175,0.461c0.114,0.127,0.258,0.176,0.432,0.176h2.546c0.114,0,0.234-0.015,0.359-0.061
	C17.635,15.623,17.514,15.784,17.591,15.687z"/>
<path fill="#FFFFFF" d="M20.5,11c0.404,0,0.757-0.148,1.053-0.445C21.851,10.259,22,9.908,22,9.499c0-0.407-0.149-0.759-0.447-1.055
	C21.257,8.148,20.904,8,20.5,8c-0.41,0-0.766,0.148-1.061,0.444C19.143,8.74,19,9.092,19,9.499c0,0.409,0.143,0.76,0.439,1.056
	C19.734,10.852,20.09,11,20.5,11z"/>
</svg>
