<?xml version="1.0" encoding="utf-8"?>
<!-- Generator: Adobe Illustrator 16.0.0, SVG Export Plug-In . SVG Version: 6.00 Build 0)  -->
<!DOCTYPE svg PUBLIC "-//W3C//DTD SVG 1.1//EN" "http://www.w3.org/Graphics/SVG/1.1/DTD/svg11.dtd">
<svg version="1.1" id="Layer_1" xmlns="http://www.w3.org/2000/svg" xmlns:xlink="http://www.w3.org/1999/xlink" x="0px" y="0px"
	 width="34px" height="34px" viewBox="0 0 34 34" enable-background="new 0 0 34 34" xml:space="preserve">
<circle fill="#FFFFFF" cx="17" cy="17" r="17"/>
<path fill="#0074D0" d="M17.0009766,32C8.7285156,32,2,25.2714844,2,17S8.7285156,2,17.0009766,2C25.2724609,2,32,8.7285156,32,17
	S25.2724609,32,17.0009766,32z"/>
<path fill="#00A6FF" d="M17.0004883,31C9.2802734,31,3,24.71875,3,17C3,9.2807617,9.2802734,3,17.0004883,3
	C24.71875,3,31,9.2807617,31,17C31,24.71875,24.71875,31,17.0004883,31z"/>
<g>
	<path fill="#FFFFFF" d="M16.3520508,26.8115234c0.2167969,0,0.4311523,0.0146484,0.6479492,0c0-0.875,0-2.234375,0-3.8017578
		C17,19.3876953,14.4101563,18,14.4101563,18h-3.8876953c0,0-2.0561523,1.3144531-2.2495117,4.3330078
		C10.0170898,25.0332031,12.987793,26.8115234,16.3520508,26.8115234z"/>
	<path fill="#FFFFFF" d="M26.0615234,12.9765625h-2.9140625l2.6445313-1.2333984
		c0.1933594-0.0922852,0.2783203-0.3217773,0.1875-0.5185547C25.9140625,11.0825195,25.7744141,11,25.625,11
		c-0.0546875,0-0.1113281,0.012207-0.1640625,0.0351563c0,0-4.2675781,2.0004883-4.2783203,2.0092773
		C21.0742188,13.112793,21,13.2280273,21,13.3652344c0,0.1367188,0.0742188,0.2529297,0.1826172,0.3222656
		c0.0107422,0.0078125,4.2783203,2.0073242,4.2783203,2.0073242c0.0527344,0.0229492,0.109375,0.0361328,0.1640625,0.0361328
		c0.1494141,0,0.2890625-0.0825195,0.3544922-0.2236328c0.0908203-0.1967773,0.0058594-0.4301758-0.1875-0.5205078
		l-2.6445313-1.2324219h2.9169922c0.2158203,0,0.390625-0.1723633,0.390625-0.3891602
		C26.4541016,13.1479492,26.2802734,12.9765625,26.0615234,12.9765625z"/>
	<path fill="#FFFFFF" d="M17.996582,16.3588867C16.7324219,15.6152344,16.1230469,14.546875,15.9633789,14H17v-2h-5.7890625
		c-1.7944336,0-2.9379883,1.2993164-2.9379883,3H10v2h4.0527344c0-0.6816406-0.1274414-1.4418945,0.0136719-1.8291016
		C14.3886719,16.0380859,16.621582,17,17.3217773,17C18.1328125,17,18.1933594,16.472168,17.996582,16.3588867z"/>
	<path fill="#FFFFFF" d="M16.9995117,5C10.3847656,5,5,10.3842773,5,16.9995117C5,23.6152344,10.3847656,29,16.9995117,29
		C23.6152344,29,29,23.6152344,29,16.9995117C29,10.3842773,23.6152344,5,16.9995117,5z M25.2246094,23.7841797
		l-6.1425781-6.1435547c-0.0048828,0.0532227-0.0126953,0.1069336-0.03125,0.1621094
		c-0.09375,0.3242188-0.375,0.6630859-0.890625,0.8007813l6.1513672,6.1484375
		C22.4003906,26.5556641,19.8291016,27.9091797,17,27.9091797c-5.8803711,0-10.9091797-5.0292969-10.9091797-10.9091797
		c0-2.8291016,1.3520508-5.4013672,3.1552734-7.3129883l2.0058594,2.0058594
		c0.1347656-0.0170898,0.2724609-0.0268555,0.4130859-0.0268555h1.4448242l-2.8920898-2.8925781
		C12.0605469,7.2495117,14.4277344,6.0908203,17,6.0908203c5.8798828,0,10.9091797,5.0283203,10.9091797,10.9091797
		C27.9091797,19.5722656,26.75,21.9375,25.2246094,23.7841797z"/>
	<path fill="#FFFFFF" d="M19.2529297,13.0625c0-0.3051758,0.2978516-0.5507813,0.6728516-0.5507813
		c0.0263672,0,0.0517578,0.0043945,0.0742188,0.0053711V12h-2.0004883v2H20v-0.3945313
		c-0.0224609,0.0029297-0.0478516,0.0063477-0.0742188,0.0063477C19.5507813,13.6118164,19.2529297,13.3647461,19.2529297,13.0625z"
		/>
</g>
</svg>
