<?xml version="1.0" encoding="utf-8"?>
<!-- Generator: Adobe Illustrator 16.0.3, SVG Export Plug-In . SVG Version: 6.00 Build 0)  -->
<!DOCTYPE svg PUBLIC "-//W3C//DTD SVG 1.1//EN" "http://www.w3.org/Graphics/SVG/1.1/DTD/svg11.dtd">
<svg version="1.1" id="Typha" xmlns="http://www.w3.org/2000/svg" xmlns:xlink="http://www.w3.org/1999/xlink" x="0px" y="0px"
	 width="40px" height="40px" viewBox="0 0 40 40" enable-background="new 0 0 40 40" xml:space="preserve">
<path opacity="0.75" fill="#FFFFFF" d="M34,15.659c0-1.006-0.095-1.984-0.273-2.932c-0.181-0.95-0.457-1.872-0.826-2.764
	c-0.366-0.895-0.799-1.729-1.299-2.508c-0.5-0.778-1.064-1.499-1.697-2.162c-0.637-0.663-1.326-1.257-2.067-1.779
	c-0.745-0.525-1.544-0.981-2.394-1.365c-0.854-0.384-1.736-0.67-2.643-0.862C21.893,1.095,20.96,1,20,1
	c-0.959,0-1.892,0.095-2.798,0.287c-0.908,0.192-1.787,0.479-2.641,0.862c-0.854,0.384-1.652,0.84-2.396,1.365
	C11.422,4.036,10.734,4.63,10.1,5.293C9.467,5.956,8.9,6.677,8.399,7.455C7.9,8.233,7.468,9.068,7.1,9.963
	c-0.367,0.892-0.641,1.814-0.825,2.764C6.091,13.675,6,14.653,6,15.659c0,1.004,0.091,1.981,0.275,2.932s0.458,1.871,0.825,2.767
	c0.316,0.769,0.683,1.498,1.097,2.183c0.417,0.686,0.881,1.326,1.395,1.924H9.588H9.585l5.205,7.269L19.995,40l5.196-7.251
	l5.188-7.247c0.522-0.604,0.993-1.251,1.413-1.94c0.421-0.692,0.792-1.429,1.109-2.204c0.369-0.896,0.646-1.816,0.826-2.767
	C33.905,17.641,34,16.663,34,15.659z"/>
<path fill="#1873CD" d="M31.762,13.233c-0.155-0.829-0.395-1.638-0.713-2.414c-0.316-0.782-0.695-1.526-1.131-2.213
	c-0.43-0.678-0.92-1.313-1.455-1.879c-0.551-0.582-1.15-1.103-1.779-1.551c-0.639-0.456-1.334-0.857-2.059-1.19
	c-0.721-0.327-1.475-0.576-2.238-0.739C21.621,3.083,20.818,3,20.001,3c-0.819,0-1.621,0.083-2.386,0.247
	c-0.764,0.163-1.515,0.411-2.231,0.738c-0.732,0.334-1.428,0.735-2.068,1.192c-0.63,0.448-1.225,0.968-1.77,1.546
	c-0.542,0.573-1.034,1.206-1.463,1.885C9.654,9.285,9.272,10.03,8.95,10.824c-0.314,0.772-0.554,1.584-0.711,2.413
	C8.081,14.067,8,14.938,8,15.823c0,0.884,0.082,1.754,0.239,2.587c0.158,0.824,0.397,1.637,0.711,2.414
	c0.277,0.682,0.6,1.331,0.957,1.93c0.359,0.598,0.763,1.162,1.202,1.68l2.368,3.348L19.995,37l8.812-12.464l0.061-0.069
	c0.443-0.52,0.854-1.09,1.213-1.689c0.371-0.62,0.695-1.273,0.973-1.957c0.314-0.773,0.554-1.582,0.709-2.405
	C31.92,17.572,32,16.7,32,15.823C32,14.944,31.92,14.072,31.762,13.233z"/>
<path fill="#1F8FFF" d="M30.779,13.336c-0.145-0.756-0.363-1.495-0.656-2.203c-0.293-0.72-0.645-1.403-1.047-2.035
	c-0.395-0.617-0.844-1.193-1.334-1.708c-0.506-0.529-1.057-1.005-1.635-1.413c-0.588-0.417-1.225-0.783-1.893-1.086
	c-0.654-0.296-1.34-0.52-2.035-0.667C21.48,4.076,20.748,4,20,4c-0.749,0-1.481,0.076-2.179,0.224
	c-0.694,0.147-1.377,0.371-2.027,0.665c-0.674,0.305-1.313,0.672-1.904,1.09c-0.576,0.406-1.122,0.88-1.622,1.406
	c-0.498,0.521-0.949,1.099-1.344,1.716c-0.396,0.623-0.749,1.307-1.049,2.039c-0.288,0.703-0.509,1.443-0.654,2.202
	C9.074,14.104,9,14.903,9,15.717c0,0.813,0.074,1.611,0.221,2.377c0.145,0.75,0.365,1.492,0.654,2.201
	c0.259,0.633,0.558,1.23,0.887,1.775c0.329,0.544,0.702,1.061,1.106,1.536l3.556,4.979L19.994,35l7.999-11.223l0.117-0.144
	c0.408-0.473,0.783-0.99,1.115-1.54c0.342-0.564,0.645-1.171,0.902-1.804c0.291-0.705,0.51-1.442,0.652-2.19
	C30.926,17.326,31,16.524,31,15.717C31,14.906,30.926,14.105,30.779,13.336z"/>
<path fill="#FFFFFF" d="M24.546,14.274C23.882,16.26,23.339,18.37,23,19.8c0.314,0.129,0.632,0.259,1.011,0.259
	c0.735,0,1.229-0.493,1.964-0.493c0.037,0,0.069,0.006,0.104,0.009c0.724-2.201,1.475-5.181,2.724-5.181
	c0.068,0,0.123-0.055,0.123-0.123c0-0.068-0.055-0.124-0.123-0.124c-1.501,0-3.146,1.936-4.523,4.104
	c0.321-1.204,0.697-2.516,1.107-3.746c0.424-0.058,0.791-0.356,0.916-0.793c0.167-0.583,0.583-1.618,0.948-1.984
	c0.409-0.409,0.429-1.063,0.061-1.497c0.136-0.175,0.271-0.319,0.403-0.423c0.188-0.147,0.223-0.417,0.077-0.606
	c-0.146-0.187-0.418-0.221-0.603-0.074c-0.221,0.169-0.438,0.413-0.651,0.712c-0.307-0.02-0.618,0.087-0.852,0.321
	c-0.896,0.896-1.415,2.607-1.512,2.942C24.048,13.547,24.21,14.003,24.546,14.274z"/>
<path fill="#FFFFFF" d="M25.999,20.995c-0.748,0-1.249,0.504-1.997,0.504c-0.751,0-1.251-0.504-2.001-0.504
	c-0.751,0-1.25,0.504-2,0.504c-0.75,0-1.25-0.504-2.001-0.504c-0.749,0-1.25,0.504-1.999,0.504c-0.751,0-1.25-0.504-2-0.504
	c-0.75,0-1.25,0.504-2,0.504c-0.375,0-0.687-0.126-1-0.25v1.501c0.312,0.127,0.625,0.25,1,0.25c0.75,0,1.25-0.501,2-0.501
	c0.75,0,1.25,0.501,2,0.501c0.75,0,1.25-0.501,1.999-0.501c0.75,0,1.25,0.501,2.001,0.501c0.75,0,1.249-0.501,2-0.501
	c0.75,0,1.25,0.501,2.001,0.501c0.748,0,1.249-0.501,1.997-0.501C26.751,22.499,27.25,23,28,23c0.376,0,0.687-0.125,1-0.25v-1.501
	c-0.313,0.124-0.624,0.25-1,0.25C27.25,21.499,26.751,20.995,25.999,20.995z"/>
<path fill="#FFFFFF" d="M11.123,16.371c0.896,0.15,1.672,1.79,2.408,3.251c0.131-0.031,0.266-0.055,0.414-0.055
	c0.736,0,1.226,0.492,1.963,0.492c0.402,0,0.73-0.147,1.066-0.28c-0.283-1.287-0.73-3.098-1.331-4.822
	c0.293-0.28,0.421-0.71,0.294-1.124c-0.135-0.442-0.629-1.936-1.286-2.595c-0.274-0.276-0.657-0.376-1.011-0.3
	c-0.304-0.37-0.625-0.661-0.962-0.846c-0.208-0.113-0.469-0.036-0.583,0.172c-0.114,0.209-0.038,0.469,0.171,0.583
	c0.229,0.126,0.453,0.326,0.671,0.582c-0.27,0.427-0.22,1.001,0.152,1.373c0.17,0.178,0.521,0.98,0.736,1.681
	c0.14,0.457,0.549,0.755,1,0.777c0.465,1.346,0.857,2.793,1.153,4.042c-1.536-1.83-3.471-3.176-4.856-3.176
	c-0.068,0-0.123,0.055-0.123,0.123S11.055,16.371,11.123,16.371z"/>
<path fill="#FFFFFF" d="M17.111,9.716c1.811,0.403,0.158,6.136,0.72,9.821c0.052-0.004,0.104-0.012,0.158-0.012
	c0.754,0,1.256,0.503,2.009,0.503c0.435,0,0.787-0.168,1.15-0.31c0.041-3.034,0.534-5.903,1.111-8.253
	c0.433-0.068,0.804-0.384,0.92-0.835c0.003-0.015,0.415-1.593,0.911-2.916c0.165-0.439,0.04-0.918-0.281-1.221
	c0.213-0.548,0.349-0.856,0.355-0.873c0.1-0.221,0-0.48-0.22-0.581c-0.222-0.1-0.481-0.002-0.581,0.22
	c-0.007,0.016-0.153,0.345-0.377,0.924c-0.44,0.019-0.847,0.294-1.013,0.733c-0.538,1.434-0.964,3.078-0.982,3.147
	c-0.119,0.458,0.062,0.921,0.416,1.188c-0.501,2.039-0.941,4.458-1.089,7.043c-0.791-4.424-0.646-9.028-3.208-8.832
	c-0.069,0-0.125,0.057-0.125,0.125C16.986,9.659,17.042,9.716,17.111,9.716z"/>
</svg>
