<?xml version="1.0" encoding="utf-8"?>
<!-- Generator: Adobe Illustrator 16.0.3, SVG Export Plug-In . SVG Version: 6.00 Build 0)  -->
<!DOCTYPE svg PUBLIC "-//W3C//DTD SVG 1.1//EN" "http://www.w3.org/Graphics/SVG/1.1/DTD/svg11.dtd">
<svg version="1.1" id="Unauthorized_Attachment_-_Other"
	 xmlns="http://www.w3.org/2000/svg" xmlns:xlink="http://www.w3.org/1999/xlink" x="0px" y="0px" width="40px" height="40px"
	 viewBox="0 0 40 40" enable-background="new 0 0 40 40" xml:space="preserve">
<path opacity="0.75" fill="#FFFFFF" d="M33.9707031,15.6733398c0-1.0039063-0.09375-1.9799805-0.2714844-2.9262695
	c-0.1816406-0.9482422-0.4570313-1.8676758-0.8242188-2.7587891c-0.3652344-0.8920898-0.796875-1.7255859-1.296875-2.5024414
	c-0.4980469-0.7768555-1.0625-1.496582-1.6933594-2.1577148c-0.6367188-0.6611328-1.3242188-1.2543945-2.0644531-1.7753906
	C27.078125,3.0297852,26.28125,2.574707,25.4335938,2.190918c-0.8535156-0.3828125-1.734375-0.6689453-2.6376953-0.8608398
	c-0.90625-0.1914063-1.8369141-0.2856445-2.7949219-0.2856445c-0.9570313,0-1.8876953,0.0942383-2.7919922,0.2856445
	c-0.90625,0.1918945-1.7841797,0.4780273-2.6357422,0.8608398c-0.8525391,0.3837891-1.6494141,0.8388672-2.390625,1.3618164
	c-0.7421875,0.5209961-1.4287109,1.1142578-2.0615234,1.7753906C9.4892578,5.9892578,8.9238281,6.7089844,8.4238281,7.4858398
	c-0.4980469,0.7768555-0.9287109,1.6103516-1.296875,2.5024414c-0.3662109,0.8911133-0.6396484,1.8105469-0.8232422,2.7587891
	c-0.1835938,0.9462891-0.2744141,1.9223633-0.2744141,2.9262695c0,1.0014648,0.0908203,1.9775391,0.2744141,2.9257813
	s0.4570313,1.8666992,0.8232422,2.7602539c0.3164063,0.7675781,0.6816406,1.4951172,1.0957031,2.1787109
	c0.4160156,0.6835938,0.8789063,1.3232422,1.3916016,1.9199219H9.6103516H9.6074219l5.1933594,7.2529297l5.1943359,7.2529297
	l5.1845703-7.2363281l5.1777344-7.2324219c0.5214844-0.6015625,0.9902344-1.2480469,1.4101563-1.9355469
	C32.1875,22.8681641,32.5566406,22.1337891,32.875,21.359375c0.3671875-0.8935547,0.6425781-1.8120117,0.8242188-2.7602539
	C33.8769531,17.6508789,33.9707031,16.6748047,33.9707031,15.6733398z"/>
<path fill="#1873CD" d="M31.7617188,13.2333984c-0.15625-0.8286133-0.3945313-1.637207-0.7128906-2.4140625
	c-0.3164063-0.7822266-0.6953125-1.5258789-1.1308594-2.2128906c-0.4296875-0.6777344-0.9199219-1.3120117-1.4550781-1.8789063
	C27.9121094,6.1459961,27.3125,5.625,26.6835938,5.1767578C26.0449219,4.7211914,25.3496094,4.3198242,24.625,3.9868164
	c-0.7207031-0.3276367-1.4746094-0.5761719-2.2373047-0.7397461C21.6220703,3.0830078,20.8193359,3,20.0019531,3
	c-0.8193359,0-1.6210938,0.0830078-2.3857422,0.2470703c-0.7636719,0.1635742-1.5146484,0.4116211-2.2314453,0.7382813
	c-0.7324219,0.3344727-1.4277344,0.7353516-2.0683594,1.1928711c-0.6298828,0.4482422-1.2246094,0.9672852-1.7695313,1.5458984
	c-0.5419922,0.5727539-1.0341797,1.2060547-1.4628906,1.8842773c-0.4287109,0.6767578-0.8105469,1.4223633-1.1328125,2.2158203
	c-0.3144531,0.7729492-0.5537109,1.5844727-0.7109375,2.4130859C8.0820313,14.0678711,8.0009766,14.9375,8.0009766,15.8232422
	c0,0.8842773,0.0810547,1.7539063,0.2392578,2.5869141c0.1572266,0.8242188,0.3964844,1.6367188,0.7109375,2.4140625
	c0.2773438,0.6816406,0.5996094,1.3320313,0.9570313,1.9296875c0.3583984,0.5976563,0.7626953,1.1621094,1.2021484,1.6796875
	l2.3681641,3.3476563L19.9960938,37l8.8105469-12.4628906l0.0605469-0.0703125
	c0.4433594-0.5195313,0.8535156-1.0898438,1.2128906-1.6894531c0.3710938-0.6191406,0.6953125-1.2734375,0.9726563-1.9570313
	c0.3144531-0.7734375,0.5527344-1.5820313,0.7089844-2.4052734C31.9199219,17.5722656,32,16.7006836,32,15.8232422
	C32,14.9443359,31.9199219,14.0722656,31.7617188,13.2333984z"/>
<path fill="#1F8FFF" d="M30.7792969,13.3359375c-0.1445313-0.7553711-0.3632813-1.4946289-0.65625-2.203125
	c-0.2929688-0.7197266-0.6445313-1.4033203-1.046875-2.0336914c-0.3945313-0.6176758-0.84375-1.1938477-1.3339844-1.7094727
	c-0.5058594-0.5292969-1.0566406-1.0048828-1.6347656-1.4130859c-0.5878906-0.4155273-1.2246094-0.7822266-1.8925781-1.0854492
	c-0.6542969-0.2958984-1.3388672-0.5195313-2.0341797-0.6674805C21.4814453,4.0756836,20.7480469,4,20,4
	c-0.7490234,0-1.4814453,0.0756836-2.1787109,0.2236328c-0.6943359,0.1479492-1.3769531,0.3710938-2.0273438,0.6650391
	c-0.6738281,0.3051758-1.3134766,0.6723633-1.9042969,1.0898438c-0.5761719,0.4067383-1.1220703,0.8803711-1.6220703,1.4067383
	c-0.4980469,0.5214844-0.9492188,1.0991211-1.34375,1.7167969c-0.3964844,0.621582-0.7490234,1.3061523-1.0488281,2.0380859
	c-0.2880859,0.7026367-0.5087891,1.4433594-0.6542969,2.2016602C9.0742188,14.1044922,9,14.9033203,9,15.7167969
	c0,0.8125,0.0742188,1.6118164,0.2207031,2.3769531c0.1445313,0.75,0.3652344,1.4921875,0.6542969,2.2011719
	c0.2587891,0.6328125,0.5576172,1.2304688,0.8867188,1.7753906s0.7021484,1.0605469,1.1064453,1.5361328l3.5556641,4.9785156
	L19.9941406,35l7.9980469-11.2226563l0.1171875-0.1435547c0.4082031-0.4726563,0.7832031-0.9902344,1.1152344-1.5390625
	c0.3417969-0.5654297,0.6445313-1.171875,0.9023438-1.8046875c0.2910156-0.7050781,0.5097656-1.4423828,0.6523438-2.1904297
	C30.9257813,17.3266602,31,16.5249023,31,15.7167969C31,14.9067383,30.9257813,14.105957,30.7792969,13.3359375z"/>
<g>
	<path fill="#FFFFFF" d="M19.9443359,7c1.6943359,0,3.1474609,0.3457031,4.3623047,1.0371094
		c1.2148438,0.6918945,2.1337891,1.6743164,2.7578125,2.949707C27.6884766,12.2612305,28,13.7578125,28,15.4775391
		c0,1.2714844-0.1699219,2.4257813-0.5117188,3.4648438s-0.8544922,1.9404297-1.5380859,2.703125
		s-1.5224609,1.3457031-2.5175781,1.7490234C22.4365234,23.7978516,21.2978516,24,20.0117188,24
		c-1.2783203,0-2.421875-0.2070313-3.4326172-0.6230469c-1.0097656-0.4140625-1.8535156-0.9980469-2.5292969-1.7548828
		c-0.6757813-0.7548828-1.1865234-1.6625977-1.53125-2.7241211C12.1728516,17.8364258,12,16.6889648,12,15.4550781
		c0-1.2631836,0.1806641-2.4223633,0.5410156-3.4760742c0.359375-1.0541992,0.8808594-1.9516602,1.5644531-2.6914063
		s1.515625-1.3061523,2.4960938-1.6992188C17.5820313,7.1962891,18.6962891,7,19.9443359,7z M24.6464844,15.4550781
		c0-1.2041016-0.1923828-2.246582-0.5791016-3.1289063c-0.3867188-0.8813477-0.9375-1.5493164-1.6542969-2.0019531
		c-0.7167969-0.4516602-1.5400391-0.6777344-2.46875-0.6777344c-0.6611328,0-1.2724609,0.125-1.8320313,0.3759766
		c-0.5615234,0.25-1.0449219,0.6147461-1.4492188,1.0927734c-0.4042969,0.4785156-0.7246094,1.0898438-0.9580078,1.8330078
		c-0.234375,0.7446289-0.3515625,1.5800781-0.3515625,2.5068359c0,0.9345703,0.1171875,1.7792969,0.3515625,2.5341797
		c0.2333984,0.7553711,0.5644531,1.3813477,0.9912109,1.8789063c0.4277344,0.4970703,0.9179688,0.8681641,1.4707031,1.1162109
		c0.5537109,0.2451172,1.1611328,0.3691406,1.8222656,0.3691406c0.8466797,0,1.625-0.2138672,2.3349609-0.6386719
		c0.7089844-0.4267578,1.2734375-1.0844727,1.6933594-1.9736328C24.4365234,17.8510742,24.6464844,16.7558594,24.6464844,15.4550781
		z"/>
</g>
</svg>
