<?xml version="1.0" encoding="utf-8"?>
<!-- Generator: Adobe Illustrator 16.0.3, SVG Export Plug-In . SVG Version: 6.00 Build 0)  -->
<!DOCTYPE svg PUBLIC "-//W3C//DTD SVG 1.1//EN" "http://www.w3.org/Graphics/SVG/1.1/DTD/svg11.dtd">
<svg version="1.1" id="Unauthorized_Attachment_-_Sign"
	 xmlns="http://www.w3.org/2000/svg" xmlns:xlink="http://www.w3.org/1999/xlink" x="0px" y="0px" width="40px" height="40px"
	 viewBox="0 0 40 40" enable-background="new 0 0 40 40" xml:space="preserve">
<path opacity="0.75" fill="#FFFFFF" d="M33.9707031,15.6733398c0-1.0039063-0.09375-1.9799805-0.2714844-2.9262695
	c-0.1816406-0.9482422-0.4570313-1.8676758-0.8242188-2.7587891c-0.3652344-0.8920898-0.796875-1.7255859-1.296875-2.5024414
	c-0.4980469-0.7768555-1.0625-1.496582-1.6933594-2.1577148c-0.6367188-0.6611328-1.3242188-1.2543945-2.0644531-1.7753906
	C27.078125,3.0297852,26.28125,2.574707,25.4335938,2.190918c-0.8535156-0.3828125-1.734375-0.6689453-2.6386719-0.8608398
	c-0.9052734-0.1914063-1.8359375-0.2856445-2.7939453-0.2856445c-0.9570313,0-1.8876953,0.0942383-2.7919922,0.2856445
	c-0.90625,0.1918945-1.7841797,0.4780273-2.6357422,0.8608398c-0.8525391,0.3837891-1.6494141,0.8388672-2.390625,1.3618164
	c-0.7421875,0.5209961-1.4287109,1.1142578-2.0615234,1.7753906C9.4892578,5.9892578,8.9238281,6.7089844,8.4238281,7.4858398
	c-0.4980469,0.7768555-0.9287109,1.6103516-1.296875,2.5024414c-0.3662109,0.8911133-0.6396484,1.8105469-0.8232422,2.7587891
	c-0.1835938,0.9462891-0.2744141,1.9223633-0.2744141,2.9262695c0,1.0014648,0.0908203,1.9775391,0.2744141,2.9257813
	s0.4570313,1.8666992,0.8232422,2.7602539c0.3164063,0.7675781,0.6816406,1.4951172,1.0957031,2.1787109
	c0.4160156,0.6835938,0.8789063,1.3232422,1.3916016,1.9199219H9.6103516H9.6074219l5.1933594,7.2529297l5.1943359,7.2529297
	l5.1845703-7.2363281l5.1777344-7.2324219c0.5214844-0.6015625,0.9902344-1.2480469,1.4101563-1.9355469
	C32.1875,22.8681641,32.5566406,22.1337891,32.875,21.359375c0.3671875-0.8935547,0.6425781-1.8120117,0.8242188-2.7602539
	C33.8769531,17.6508789,33.9707031,16.6748047,33.9707031,15.6733398z"/>
<path fill="#1873CD" d="M31.7617188,13.2333984c-0.15625-0.8286133-0.3945313-1.637207-0.7128906-2.4140625
	c-0.3164063-0.7822266-0.6953125-1.5258789-1.1308594-2.2128906c-0.4296875-0.6777344-0.9199219-1.3120117-1.4550781-1.8789063
	C27.9121094,6.1459961,27.3125,5.625,26.6835938,5.1767578C26.0449219,4.7211914,25.3496094,4.3198242,24.625,3.9868164
	c-0.7207031-0.3276367-1.4746094-0.5761719-2.2382813-0.7397461C21.6220703,3.0830078,20.8193359,3,20.0019531,3
	c-0.8193359,0-1.6210938,0.0830078-2.3857422,0.2470703c-0.7636719,0.1635742-1.5146484,0.4116211-2.2314453,0.7382813
	c-0.7324219,0.3344727-1.4277344,0.7353516-2.0683594,1.1928711c-0.6298828,0.4482422-1.2246094,0.9672852-1.7695313,1.5458984
	c-0.5419922,0.5727539-1.0341797,1.2060547-1.4628906,1.8842773c-0.4287109,0.6767578-0.8105469,1.4223633-1.1328125,2.2158203
	c-0.3144531,0.7729492-0.5537109,1.5844727-0.7109375,2.4130859C8.0820313,14.0678711,8.0009766,14.9375,8.0009766,15.8232422
	c0,0.8842773,0.0810547,1.7539063,0.2392578,2.5869141c0.1572266,0.8242188,0.3964844,1.6367188,0.7109375,2.4140625
	c0.2773438,0.6816406,0.5996094,1.3320313,0.9570313,1.9296875c0.3583984,0.5976563,0.7626953,1.1621094,1.2021484,1.6796875
	l2.3681641,3.3476563L19.9960938,37l8.8105469-12.4628906l0.0605469-0.0703125
	c0.4433594-0.5195313,0.8535156-1.0898438,1.2128906-1.6894531c0.3710938-0.6191406,0.6953125-1.2734375,0.9726563-1.9570313
	c0.3144531-0.7734375,0.5527344-1.5820313,0.7089844-2.4052734C31.9199219,17.5722656,32,16.7006836,32,15.8232422
	C32,14.9443359,31.9199219,14.0722656,31.7617188,13.2333984z"/>
<path fill="#1F8FFF" d="M30.7792969,13.3359375c-0.1445313-0.7553711-0.3632813-1.4946289-0.65625-2.203125
	c-0.2929688-0.7197266-0.6445313-1.4033203-1.046875-2.0336914c-0.3945313-0.6176758-0.84375-1.1938477-1.3339844-1.7094727
	c-0.5058594-0.5292969-1.0566406-1.0048828-1.6347656-1.4130859c-0.5878906-0.4155273-1.2246094-0.7822266-1.8925781-1.0854492
	C23.5605469,4.5952148,22.875,4.371582,22.1796875,4.2236328C21.4814453,4.0756836,20.7480469,4,20,4
	c-0.7490234,0-1.4814453,0.0756836-2.1787109,0.2236328c-0.6943359,0.1479492-1.3769531,0.3710938-2.0273438,0.6650391
	c-0.6738281,0.3051758-1.3134766,0.6723633-1.9042969,1.0898438c-0.5761719,0.4067383-1.1220703,0.8803711-1.6220703,1.4067383
	c-0.4980469,0.5214844-0.9492188,1.0991211-1.34375,1.7167969c-0.3964844,0.621582-0.7490234,1.3061523-1.0488281,2.0380859
	c-0.2880859,0.7026367-0.5087891,1.4433594-0.6542969,2.2016602C9.0742188,14.1044922,9,14.9033203,9,15.7167969
	c0,0.8125,0.0742188,1.6118164,0.2207031,2.3769531c0.1445313,0.75,0.3652344,1.4921875,0.6542969,2.2011719
	c0.2587891,0.6328125,0.5576172,1.2304688,0.8867188,1.7753906s0.7021484,1.0605469,1.1064453,1.5361328l3.5556641,4.9785156
	L19.9941406,35l7.9980469-11.2226563l0.1171875-0.1435547c0.4082031-0.4726563,0.7832031-0.9902344,1.1152344-1.5390625
	c0.3417969-0.5654297,0.6445313-1.171875,0.9023438-1.8046875c0.2910156-0.7050781,0.5097656-1.4423828,0.6523438-2.1904297
	C30.9257813,17.3266602,31,16.5249023,31,15.7167969C31,14.9067383,30.9257813,14.105957,30.7792969,13.3359375z"/>
<g>
	<path fill="#FFFFFF" d="M27,19.0917969c0,0.9365234-0.2548828,1.7773438-0.7636719,2.5234375
		c-0.5107422,0.7451172-1.2558594,1.3291016-2.2373047,1.7519531C23.0166016,23.7890625,21.8525391,24,20.5058594,24
		c-1.6142578,0-2.9462891-0.2890625-3.9951172-0.8652344c-0.7441406-0.4160156-1.3486328-0.9697266-1.8134766-1.6630859
		C14.2324219,20.7792969,14,20.1054688,14,19.4511719c0-0.3798828,0.1396484-0.7050781,0.4189453-0.9760742
		c0.2783203-0.2705078,0.6337891-0.4067383,1.0654297-0.4067383c0.3496094,0,0.6445313,0.105957,0.8867188,0.3168945
		c0.2412109,0.2109375,0.4482422,0.5244141,0.6191406,0.9389648c0.2080078,0.4931641,0.4335938,0.9042969,0.6757813,1.2353516
		c0.2412109,0.3310547,0.5820313,0.6035156,1.0205078,0.8183594c0.4394531,0.2148438,1.015625,0.3212891,1.7304688,0.3212891
		c0.9804688,0,1.7792969-0.2158203,2.3925781-0.6494141c0.6142578-0.4326172,0.921875-0.9716797,0.921875-1.6201172
		c0-0.5126953-0.1669922-0.9296875-0.4970703-1.2504883c-0.3310547-0.3198242-0.7587891-0.5644531-1.2832031-0.7333984
		c-0.5253906-0.1689453-1.2265625-0.3481445-2.1035156-0.5380859c-1.1757813-0.2602539-2.1591797-0.5649414-2.9521484-0.9130859
		c-0.7919922-0.3481445-1.4208984-0.8232422-1.8857422-1.4248047S14.3125,13.2207031,14.3125,12.3271484
		c0-0.8510742,0.2451172-1.6074219,0.7363281-2.269043C15.5400391,9.3969727,16.25,8.8886719,17.1806641,8.5332031
		C18.1103516,8.1782227,19.2041016,8,20.4609375,8c1.0039063,0,1.8720703,0.1181641,2.6054688,0.3535156
		c0.7324219,0.2358398,1.3408203,0.5488281,1.8251953,0.9394531c0.4833984,0.390625,0.8359375,0.8007813,1.0595703,1.2294922
		c0.2226563,0.4291992,0.3339844,0.8481445,0.3339844,1.2558594c0,0.3730469-0.1386719,0.7089844-0.4179688,1.0078125
		c-0.2783203,0.2993164-0.6269531,0.4487305-1.0419922,0.4487305c-0.3798828,0-0.6689453-0.0898438-0.8662109-0.269043
		c-0.1972656-0.1796875-0.4101563-0.4731445-0.6416016-0.8813477c-0.2978516-0.5839844-0.6542969-1.0395508-1.0712891-1.3666992
		c-0.4160156-0.3271484-1.0859375-0.4907227-2.0078125-0.4907227c-0.8564453,0-1.5458984,0.1777344-2.0703125,0.5327148
		c-0.5244141,0.3554688-0.7871094,0.7832031-0.7871094,1.2822266c0,0.3100586,0.0898438,0.5771484,0.2685547,0.8022461
		c0.1777344,0.2255859,0.4238281,0.4189453,0.7363281,0.5805664c0.3125,0.1621094,0.6279297,0.2885742,0.9482422,0.3798828
		c0.3193359,0.0917969,0.8486328,0.2255859,1.5849609,0.4008789c0.9208984,0.2045898,1.7568359,0.4296875,2.5048828,0.6757813
		c0.7480469,0.246582,1.3837891,0.5454102,1.9082031,0.8969727c0.5244141,0.3520508,0.9335938,0.796875,1.2275391,1.3349609
		C26.8535156,17.6518555,27,18.3115234,27,19.0917969z"/>
</g>
</svg>
