<?xml version="1.0" encoding="utf-8"?>
<!-- Generator: Adobe Illustrator 16.0.3, SVG Export Plug-In . SVG Version: 6.00 Build 0)  -->
<!DOCTYPE svg PUBLIC "-//W3C//DTD SVG 1.1//EN" "http://www.w3.org/Graphics/SVG/1.1/DTD/svg11.dtd">
<svg version="1.1" id="Unauthorized_Attachment_-_Fiber"
	 xmlns="http://www.w3.org/2000/svg" xmlns:xlink="http://www.w3.org/1999/xlink" x="0px" y="0px" width="40px" height="40px"
	 viewBox="0 0 40 40" enable-background="new 0 0 40 40" xml:space="preserve">
<path opacity="0.75" fill="#FFFFFF" d="M34,15.6635742c0-1.0063477-0.09375-1.984375-0.2724609-2.9326172
	c-0.1816406-0.9501953-0.4580078-1.871582-0.8261719-2.7646484c-0.3652344-0.8935547-0.7978516-1.7290039-1.2988281-2.5073242
	c-0.4990234-0.7783203-1.0654297-1.5-1.6972656-2.1621094c-0.6376953-0.6625977-1.3271484-1.2573242-2.0683594-1.7792969
	c-0.7441406-0.5239258-1.5429688-0.9799805-2.3916016-1.3647461c-0.8554688-0.3833008-1.7382813-0.6699219-2.6445313-0.8623047
	c-0.9082031-0.1918945-1.8398438-0.2861328-2.7998047-0.2861328c-0.9594727,0-1.8920898,0.0942383-2.7983398,0.2861328
	c-0.9077148,0.1923828-1.7871094,0.4790039-2.6411133,0.8623047c-0.8540039,0.3847656-1.6523438,0.8408203-2.3955078,1.3647461
	c-0.7431641,0.5219727-1.4316406,1.1166992-2.0654297,1.7792969C9.4667969,5.9589844,8.9003906,6.6806641,8.3999023,7.4589844
	C7.9008789,8.2373047,7.46875,9.0727539,7.1000977,9.9663086c-0.3666992,0.8930664-0.6411133,1.8144531-0.824707,2.7646484
	C6.0913086,13.6791992,6,14.6572266,6,15.6635742c0,1.003418,0.0913086,1.9814453,0.2753906,2.9316406
	c0.1835938,0.9501953,0.4580078,1.8706055,0.824707,2.7661133c0.3168945,0.7685547,0.6831055,1.4980469,1.0976563,2.1826172
	c0.4169922,0.6855469,0.8808594,1.3261719,1.3945313,1.9248047H9.5883789H9.5854492l5.2045898,7.2675781l5.2050781,7.2675781
	l5.1953125-7.2509766l5.1884766-7.2470703c0.5224609-0.6035156,0.9921875-1.2509766,1.4130859-1.9404297
	c0.4208984-0.6923828,0.7910156-1.4287109,1.109375-2.2041016c0.3681641-0.8955078,0.6445313-1.815918,0.8261719-2.7661133
	C33.90625,17.6450195,34,16.6669922,34,15.6635742z"/>
<path fill="#1873CD" d="M31.7617188,13.2333984c-0.15625-0.8286133-0.3945313-1.637207-0.7128906-2.4140625
	c-0.3164063-0.7822266-0.6953125-1.5258789-1.1308594-2.2128906c-0.4296875-0.6777344-0.9199219-1.3120117-1.4550781-1.8789063
	C27.9121094,6.1459961,27.3125,5.625,26.6835938,5.1767578C26.0449219,4.7211914,25.3496094,4.3198242,24.625,3.9868164
	c-0.7207031-0.3276367-1.4746094-0.5761719-2.2382813-0.7397461C21.6210938,3.0830078,20.8188477,3,20.0014648,3
	c-0.8193359,0-1.6210938,0.0830078-2.3857422,0.2470703c-0.7636719,0.1635742-1.5146484,0.4116211-2.2314453,0.7382813
	c-0.7324219,0.3344727-1.4277344,0.7353516-2.0683594,1.1928711c-0.6298828,0.4482422-1.2246094,0.9672852-1.7695313,1.5458984
	c-0.5419922,0.5727539-1.0341797,1.2060547-1.4628906,1.8842773c-0.4287109,0.6767578-0.8105469,1.4223633-1.1328125,2.2158203
	c-0.3144531,0.7729492-0.5537109,1.5844727-0.7109375,2.4130859C8.081543,14.0678711,8.0004883,14.9375,8.0004883,15.8232422
	c0,0.8842773,0.0810547,1.7539063,0.2392578,2.5869141c0.1572266,0.8242188,0.3964844,1.6367188,0.7109375,2.4140625
	c0.2773438,0.6816406,0.5996094,1.3320313,0.9570313,1.9296875c0.3583984,0.5976563,0.7626953,1.1621094,1.2021484,1.6796875
	l2.3681641,3.3476563L19.9956055,37l8.8110352-12.4628906l0.0605469-0.0703125
	c0.4433594-0.5195313,0.8535156-1.0898438,1.2128906-1.6894531c0.3710938-0.6191406,0.6953125-1.2734375,0.9726563-1.9570313
	c0.3144531-0.7734375,0.5527344-1.5820313,0.7089844-2.4052734C31.9199219,17.5722656,32,16.7006836,32,15.8232422
	C32,14.9443359,31.9199219,14.0722656,31.7617188,13.2333984z"/>
<path fill="#1F8FFF" d="M30.7792969,13.3359375c-0.1445313-0.7553711-0.3632813-1.4946289-0.65625-2.203125
	c-0.2929688-0.7197266-0.6445313-1.4033203-1.046875-2.0336914c-0.3945313-0.6176758-0.84375-1.1938477-1.3339844-1.7094727
	c-0.5058594-0.5292969-1.0566406-1.0048828-1.6347656-1.4130859c-0.5878906-0.4155273-1.2246094-0.7822266-1.8925781-1.0854492
	C23.5605469,4.5952148,22.875,4.371582,22.1796875,4.2236328C21.4804688,4.0756836,20.7480469,4,20,4
	c-0.7490234,0-1.4814453,0.0756836-2.1787109,0.2236328c-0.6943359,0.1479492-1.3769531,0.3710938-2.0273438,0.6650391
	c-0.6738281,0.3051758-1.3134766,0.6723633-1.9042969,1.0898438c-0.5761719,0.4067383-1.1220703,0.8803711-1.6220703,1.4067383
	c-0.4980469,0.5214844-0.9492188,1.0991211-1.34375,1.7167969c-0.3964844,0.621582-0.7490234,1.3061523-1.0488281,2.0380859
	c-0.2880859,0.7026367-0.5087891,1.4433594-0.6542969,2.2016602C9.0742188,14.1044922,9,14.9033203,9,15.7167969
	c0,0.8125,0.0742188,1.6118164,0.2207031,2.3769531c0.1445313,0.75,0.3652344,1.4921875,0.6542969,2.2011719
	c0.2587891,0.6328125,0.5576172,1.2304688,0.8867188,1.7753906s0.7021484,1.0605469,1.1064453,1.5361328l3.5556641,4.9785156
	L19.9941406,35l7.9980469-11.2226563l0.1171875-0.1435547c0.4082031-0.4726563,0.7832031-0.9902344,1.1152344-1.5390625
	c0.3417969-0.5654297,0.6445313-1.171875,0.9023438-1.8046875c0.2910156-0.7050781,0.5097656-1.4423828,0.6523438-2.1904297
	C30.9257813,17.3266602,31,16.5249023,31,15.7167969C31,14.9067383,30.9257813,14.105957,30.7792969,13.3359375z"/>
<g>
	<path fill="#FFFFFF" d="M18.1787109,11.6669922h-4.0888672v2.4760742h3.4179688
		c0.3173828,0,0.5527344,0.0668945,0.7089844,0.2011719c0.15625,0.1347656,0.234375,0.3139648,0.234375,0.5385742
		c0,0.2241211-0.0791016,0.4023438-0.2373047,0.534668c-0.1582031,0.1318359-0.3945313,0.1977539-0.7060547,0.1977539h-3.4179688
		v3.1899414c0,0.4047852-0.0976563,0.7050781-0.2900391,0.9008789C13.6064453,19.9018555,13.3583984,20,13.0546875,20
		c-0.3076172,0-0.5576172-0.0991211-0.7509766-0.2973633c-0.1933594-0.1977539-0.2900391-0.4975586-0.2900391-0.8974609v-7.4487305
		c0-0.2817383,0.0439453-0.5117188,0.1328125-0.6899414c0.0878906-0.1782227,0.2265625-0.3081055,0.4160156-0.3891602
		c0.1884766-0.0820313,0.4296875-0.1225586,0.7236328-0.1225586h4.8925781c0.3310547,0,0.5771484,0.0693359,0.7373047,0.2080078
		c0.1611328,0.1386719,0.2412109,0.3203125,0.2412109,0.5449219c0,0.2285156-0.0800781,0.4125977-0.2412109,0.5512695
		C18.7558594,11.5976563,18.5097656,11.6669922,18.1787109,11.6669922z"/>
	<path fill="#FFFFFF" d="M22.3310547,11.0200195v2.753418c0.359375-0.3525391,0.7255859-0.621582,1.0986328-0.809082
		c0.3710938-0.1870117,0.8330078-0.2807617,1.3837891-0.2807617c0.6337891,0,1.1884766,0.1425781,1.6660156,0.4257813
		c0.4794922,0.2841797,0.8486328,0.6958008,1.1123047,1.2348633c0.2636719,0.5395508,0.3955078,1.1787109,0.3955078,1.918457
		c0,0.5458984-0.0742188,1.046875-0.2216797,1.5019531c-0.1455078,0.4555664-0.359375,0.8510742-0.6386719,1.1855469
		c-0.2802734,0.3339844-0.6191406,0.5932617-1.0166016,0.7758789C25.7109375,19.9086914,25.2734375,20,24.7919922,20
		c-0.2939453,0-0.5693359-0.0332031-0.8291016-0.0991211c-0.2578125-0.065918-0.4775391-0.152832-0.6591797-0.2607422
		c-0.1816406-0.1083984-0.3369141-0.21875-0.4648438-0.3334961s-0.2978516-0.2861328-0.5078125-0.5146484v0.1777344
		c0,0.3393555-0.0859375,0.5952148-0.2578125,0.7695313C21.8994141,19.9135742,21.6826172,20,21.4169922,20
		c-0.2724609,0-0.4882813-0.0864258-0.6474609-0.2607422c-0.1621094-0.1743164-0.2421875-0.4301758-0.2421875-0.7695313v-7.8706055
		c0-0.3657227,0.078125-0.6411133,0.234375-0.8286133c0.1572266-0.1870117,0.375-0.2807617,0.6552734-0.2807617
		c0.2929688,0,0.5185547,0.0888672,0.6767578,0.2670898C22.2529297,10.4355469,22.3310547,10.6894531,22.3310547,11.0200195z
		 M22.4228516,16.375c0,0.7172852,0.1738281,1.2685547,0.5195313,1.6538086
		c0.3476563,0.3852539,0.8027344,0.578125,1.3681641,0.578125c0.4794922,0,0.8925781-0.1977539,1.2402344-0.5913086
		s0.5214844-0.9580078,0.5214844-1.6933594c0-0.4755859-0.0722656-0.8847656-0.2177734-1.2285156
		c-0.1435547-0.3427734-0.3496094-0.6083984-0.6152344-0.7954102c-0.265625-0.1875-0.5751953-0.2807617-0.9287109-0.2807617
		c-0.3632813,0-0.6875,0.0932617-0.9726563,0.2807617c-0.2832031,0.1870117-0.5078125,0.4580078-0.6708984,0.8120117
		C22.5048828,15.4648438,22.4228516,15.8862305,22.4228516,16.375z"/>
</g>
</svg>
