<?xml version="1.0" encoding="utf-8"?>
<!-- Generator: Adobe Illustrator 16.0.3, SVG Export Plug-In . SVG Version: 6.00 Build 0)  -->
<!DOCTYPE svg PUBLIC "-//W3C//DTD SVG 1.1//EN" "http://www.w3.org/Graphics/SVG/1.1/DTD/svg11.dtd">
<svg version="1.1" id="Undetermined_after_Investigation"
	 xmlns="http://www.w3.org/2000/svg" xmlns:xlink="http://www.w3.org/1999/xlink" x="0px" y="0px" width="24px" height="24px"
	 viewBox="0 0 24 24" enable-background="new 0 0 24 24" xml:space="preserve">
<circle fill="#333333" cx="12" cy="12" r="12"/>
<path fill="#FFFFFF" d="M11.9995117,23.0009766c-6.065918,0-10.9985352-4.9365234-10.9985352-11.0014648
	c0-6.0664063,4.9326172-10.9985352,10.9985352-10.9985352s11.0014648,4.9321289,11.0014648,10.9985352
	C23.0009766,18.0644531,18.0654297,23.0009766,11.9995117,23.0009766z"/>
<path fill="#333333" d="M6,7.8334961c0-0.7324219,0.2446289-1.4746094,0.7324219-2.2255859
	c0.4873047-0.7524414,1.1992188-1.3745117,2.1362305-1.8681641C9.8041992,3.2456055,10.8959961,3,12.1445313,3
	c1.1601563,0,2.1835938,0.2055664,3.0732422,0.6181641c0.8867188,0.4130859,1.5751953,0.9726563,2.0585938,1.6816406
	C17.7597656,6.0102539,18,6.78125,18,7.6142578c0,0.6547852-0.1357422,1.2290039-0.4140625,1.7231445
	c-0.2744141,0.4946289-0.6025391,0.9189453-0.984375,1.2783203c-0.3769531,0.359375-1.0605469,0.9614258-2.0439453,1.8100586
	c-0.2734375,0.2392578-0.4921875,0.4482422-0.6533203,0.6318359c-0.1669922,0.1796875-0.2871094,0.3457031-0.3681641,0.4941406
	c-0.0800781,0.1513672-0.1416016,0.3037109-0.1835938,0.453125c-0.0458984,0.1484375-0.1123047,0.4130859-0.2001953,0.7919922
	C13.0009766,15.5976563,12.5253906,16,11.7250977,16c-0.4160156,0-0.7661133-0.1318359-1.050293-0.3925781
	c-0.2836914-0.2607422-0.425293-0.6523438-0.425293-1.1708984c0-0.6435547,0.1025391-1.2060547,0.3115234-1.6806641
	c0.2075195-0.4746094,0.4838867-0.890625,0.8266602-1.2490234c0.3452148-0.3583984,0.809082-0.7856445,1.3925781-1.277832
	c0.5136719-0.4321289,0.8847656-0.7587891,1.109375-0.9775391c0.2304688-0.2192383,0.421875-0.4643555,0.5771484-0.7348633
	c0.1572266-0.2700195,0.2333984-0.5625,0.2333984-0.8793945c0-0.6162109-0.2373047-1.1381836-0.7128906-1.5605469
	c-0.4746094-0.4248047-1.0898438-0.637207-1.8427734-0.637207c-0.8793945,0-1.527832,0.2148438-1.9438477,0.6416016
	c-0.4165039,0.4291992-0.7685547,1.059082-1.0556641,1.8920898C8.871582,8.8432617,8.3569336,9.2792969,7.5961914,9.2792969
	c-0.4482422,0-0.8251953-0.1513672-1.1337891-0.4570313C6.1538086,8.5185547,6,8.1879883,6,7.8334961z"/>
<path fill="#333333" d="M11.5307617,21c-0.4008789,0-0.7509766-0.1337891-1.0488281-0.3974609
	c-0.2993164-0.2626953-0.4501953-0.6337891-0.4501953-1.1083984c0-0.4199219,0.1450195-0.7763672,0.4350586-1.0625
	C10.7558594,18.1435547,11.1098633,18,11.5307617,18c0.4150391,0,0.7626953,0.1435547,1.0463867,0.4316406
	C12.8598633,18.7177734,13,19.0742188,13,19.4941406c0,0.4667969-0.1479492,0.8359375-0.4433594,1.1025391
	C12.2612305,20.8652344,11.918457,21,11.5307617,21z"/>
</svg>
