<?xml version="1.0" encoding="utf-8"?>
<!-- Generator: Adobe Illustrator 16.0.3, SVG Export Plug-In . SVG Version: 6.00 Build 0)  -->
<!DOCTYPE svg PUBLIC "-//W3C//DTD SVG 1.1//EN" "http://www.w3.org/Graphics/SVG/1.1/DTD/svg11.dtd">
<svg version="1.1" id="Under_Investigation" xmlns="http://www.w3.org/2000/svg" xmlns:xlink="http://www.w3.org/1999/xlink"
	 x="0px" y="0px" width="24px" height="24px" viewBox="0 0 24 24" enable-background="new 0 0 24 24" xml:space="preserve">
<circle fill="#D5652B" cx="12" cy="12" r="12"/>
<path fill="#FFFFFF" d="M11.9995117,23.0009766c-6.065918,0-10.9985352-4.9365234-10.9985352-11.0014648
	c0-6.0664063,4.9326172-10.9985352,10.9985352-10.9985352s11.0014648,4.9321289,11.0014648,10.9985352
	C23.0009766,18.0644531,18.0654297,23.0009766,11.9995117,23.0009766z"/>
<path fill="#D5652B" d="M13.7822266,11.7797852c-0.0673828-0.0668945-0.234375-0.0375977-0.3300781,0.0571289
	c-0.0849609,0.0825195-0.2421875,0.2353516-0.3945313,0.3818359c-0.1503906,0.1484375-0.3066406,0.2998047-0.390625,0.3828125
	c-0.0986328,0.0957031-0.1289063,0.2558594-0.0605469,0.3222656c0.3085938,0.3007813,0.8994141,0.6835938,1.4628906,1.2304688
	c1.4228516,1.3867188,3.1992188,3.3076172,3.7167969,3.8095703C17.8525391,18.03125,18.0214844,18,18.1171875,17.9052734
	c0.0751953-0.0722656,0.2304688-0.2216797,0.3935547-0.3798828c0.1650391-0.1640625,0.3193359-0.3134766,0.3925781-0.3818359
	c0.0976563-0.0976563,0.1269531-0.2578125,0.0615234-0.3242188c-0.5175781-0.5019531-2.4921875-2.2314453-3.9160156-3.6181641
	C14.4863281,12.6542969,14.09375,12.0800781,13.7822266,11.7797852z"/>
<path fill="#D5652B" d="M12.5351563,5.4638672c-1.9526367-1.9511719-5.1176758-1.9511719-7.0712891,0
	c-1.9521484,1.9536133-1.9521484,5.1191406,0,7.0722656c1.9536133,1.9521484,5.1186523,1.9521484,7.0712891,0
	C14.4882813,10.5830078,14.4882813,7.4174805,12.5351563,5.4638672z M11.828125,11.8291016
	C11.0727539,12.5844727,10.0683594,13,9,13s-2.0732422-0.4160156-2.8291016-1.1713867
	c-1.5585938-1.559082-1.5585938-4.0976563,0.0004883-5.6577148C6.9267578,5.4165039,7.9311523,5.0004883,9,5.0004883
	c1.0683594,0,2.0727539,0.4160156,2.828125,1.1708984C13.3876953,7.730957,13.3876953,10.2695313,11.828125,11.8291016z"/>
</svg>
