<?xml version="1.0" encoding="utf-8"?>
<!-- Generator: Adobe Illustrator 16.0.3, SVG Export Plug-In . SVG Version: 6.00 Build 0)  -->
<!DOCTYPE svg PUBLIC "-//W3C//DTD SVG 1.1//EN" "http://www.w3.org/Graphics/SVG/1.1/DTD/svg11.dtd">
<svg version="1.1" id="Unintentional" xmlns="http://www.w3.org/2000/svg" xmlns:xlink="http://www.w3.org/1999/xlink" x="0px"
	 y="0px" width="24px" height="24px" viewBox="0 0 24 24" enable-background="new 0 0 24 24" xml:space="preserve">
<circle fill="#F3B705" cx="12" cy="12" r="12"/>
<path fill="#FFFFFF" d="M11.9995117,23.0009766c-6.1450195,0-11.1420898-4.9365234-11.1420898-11.0014648
	c0-6.0664063,4.9970703-10.9985352,11.1420898-10.9985352s11.1450195,4.9321289,11.1450195,10.9985352
	C23.1445313,18.0644531,18.1445313,23.0009766,11.9995117,23.0009766z"/>
<path fill="#F3B705" d="M19.9716797,11.6987305c-0.0224609-0.1713867-0.0371094-0.3129883-0.0371094-0.4174805
	c-0.0126953-0.1259766-0.0507813-0.2832031-0.1103516-0.4707031c-0.0615234-0.1889648-0.1220703-0.3813477-0.1816406-0.5771484
	c-0.0761719-0.2182617-0.1689453-0.440918-0.2685547-0.6733398c-0.1171875,0.3579102-0.2402344,0.7080078-0.3828125,1.0473633
	c-0.1191406,0.3076172-0.2724609,0.628418-0.4589844,0.9692383c-0.1904297,0.3413086-0.3964844,0.6464844-0.6142578,0.9116211
	c-0.2158203,0.2714844-0.4453125,0.5195313-0.6914063,0.7421875s-0.4853516,0.4130859-0.6962891,0.5791016
	c-0.2412109,0.1972656-0.4863281,0.3730469-0.7480469,0.5351563c-0.0537109-0.1054688-0.125-0.2148438-0.2011719-0.3212891
	c-0.0625-0.0908203-0.1162109-0.1933594-0.1660156-0.3095703c-0.0498047-0.1181641-0.0878906-0.2353516-0.1015625-0.3632813
	v-0.4291992c0-0.199707,0.0283203-0.3886719,0.1015625-0.5791016c0.0683594-0.1875,0.1328125-0.362793,0.1923828-0.5209961
	c0.0566406-0.2197266,0.1230469-0.4233398,0.1933594-0.6240234c0.0673828-0.1938477,0.1728516-0.4443359,0.3085938-0.7485352
	c0.1191406-0.215332,0.1914063-0.4033203,0.2060547-0.5639648c0.0224609-0.1621094,0.0351563-0.324707,0.0351563-0.4868164
	V9.0766602c0-0.1791992-0.1113281-0.3671875-0.3271484-0.5639648c-0.2207031-0.1967773-0.3798828-0.378418-0.4755859-0.5410156
	c-0.1035156-0.1757813-0.25-0.387207-0.4580078-0.628418c-0.2109375-0.2436523-0.4267578-0.4887695-0.640625-0.7392578
	c-0.1015625-0.1621094-0.1767578-0.2421875-0.2373047-0.2421875c-0.0380859,0-0.0615234,0.0454102-0.0615234,0.1328125
	c0,0.0898438,0,0.1806641,0,0.2705078c0,0.0717773,0,0.1435547,0,0.2148438c0,0.0722656,0.0087891,0.1337891,0.0273438,0.1879883
	c0,0.0742188,0.015625,0.1352539,0.0341797,0.1879883c0,0.2524414-0.0380859,0.5288086-0.1181641,0.8354492
	c-0.078125,0.3022461-0.1816406,0.5791016-0.2978516,0.8291016c-0.0595703,0.2167969-0.2041016,0.4272461-0.4462891,0.6342773
	c-0.2363281,0.2055664-0.4355469,0.3808594-0.5927734,0.5229492c-0.1010742,0.090332-0.1757813,0.140625-0.2246094,0.1484375
	c-0.0473633,0.0087891-0.0908203,0.0141602-0.1293945,0.0141602c-0.081543,0-0.1323242-0.0068359-0.1499023-0.0292969
	c-0.0209961,0-0.0410156-0.0053711-0.0615234-0.0263672l-0.4145508-0.3999023
	c-0.0380859-0.0556641-0.112793-0.1386719-0.222168-0.2578125c-0.1103516-0.1162109-0.2138672-0.2807617-0.3125-0.4960938
	c-0.0600586-0.0898438-0.1025391-0.2163086-0.1342773-0.3774414C11.078125,8.5922852,11.065918,8.4389648,11.065918,8.2963867
	l0.0571289-0.5888672c0-0.2338867,0.0693359-0.5107422,0.2084961-0.8208008
	c0.1381836-0.315918,0.2856445-0.5986328,0.4453125-0.8481445c0.1572266-0.2700195,0.2973633-0.5336914,0.4145508-0.7919922
	c0.1206055-0.2607422,0.2114258-0.4882813,0.2680664-0.6860352c0.0361328-0.0551758,0.0688477-0.140625,0.0859375-0.2563477
	c0.0214844-0.1152344,0.0317383-0.21875,0.0317383-0.3076172c0-0.2182617-0.0317383-0.4350586-0.1020508-0.6616211
	C12.4057617,3.1123047,12.3378906,3,12.2841797,3c-0.0834961,0-0.1513672,0.0634766-0.2099609,0.1879883
	C12.0332031,3.2426758,11.9951172,3.3056641,11.9555664,3.375c-0.059082,0.144043-0.1196289,0.3149414-0.1787109,0.5126953
	c-0.0581055,0.1621094-0.1342773,0.3398438-0.222168,0.5380859c-0.0908203,0.1972656-0.2138672,0.4023438-0.3725586,0.6162109
	c-0.1567383,0.1987305-0.324707,0.3994141-0.5029297,0.6054688c-0.1787109,0.2070313-0.3564453,0.4067383-0.5341797,0.6074219
	c-0.21875,0.2836914-0.4482422,0.5668945-0.6992188,0.8447266C9.1987305,7.3798828,8.9873047,7.6137695,8.809082,7.8120117
	C8.5908203,8.0292969,8.3867188,8.2397461,8.199707,8.4448242c-0.1875,0.203125-0.3105469,0.3999023-0.3696289,0.5756836
	L7.7680664,9.3461914c0,0.1962891,0.0454102,0.3945313,0.1347656,0.5893555
	c0.0898438,0.1982422,0.1645508,0.3701172,0.2241211,0.5131836c0.0390625,0.1425781,0.1225586,0.3349609,0.2519531,0.5766602
	c0.128418,0.2431641,0.2709961,0.5234375,0.4301758,0.8476563c0.0981445,0.2504883,0.1713867,0.5102539,0.2197266,0.7783203
	c0.0532227,0.2700195,0.0771484,0.5478516,0.0771484,0.8369141v0.3710938c0,0.0380859,0,0.0849609,0,0.1367188
	c0,0.0537109-0.0205078,0.0976563-0.0576172,0.1337891v0.375l-0.2993164-0.265625
	c-0.0991211-0.0566406-0.206543-0.1259766-0.3266602-0.2158203c-0.1152344-0.0908203-0.2563477-0.1777344-0.4140625-0.2685547
	c-0.1992188-0.1113281-0.3505859-0.1914063-0.4604492-0.2568359C7.4375,13.4355469,7.3476563,13.375,7.2792969,13.3242188
	c-0.0683594-0.0556641-0.1279297-0.1015625-0.1782227-0.1523438c-0.0493164-0.0390625-0.1142578-0.0898438-0.1933594-0.1445313
	c-0.1557617-0.1430664-0.3393555-0.3354492-0.546875-0.5771484c-0.2084961-0.2431641-0.4106445-0.5239258-0.6088867-0.8486328
	c-0.1616211-0.3032227-0.2861328-0.5795898-0.3886719-0.8320313c-0.0961914-0.25-0.1650391-0.5014648-0.206543-0.7543945
	c0-0.1245117-0.0400391-0.2597656-0.1181641-0.4008789C4.9980469,9.5424805,4.9599609,9.4902344,4.9199219,9.4521484
	c-0.1191406,0.1791992-0.2285156,0.3676758-0.3256836,0.5629883c-0.0976563,0.1625977-0.1831055,0.3378906-0.2524414,0.527832
	c-0.0722656,0.1875-0.125,0.3515625-0.1625977,0.4951172c-0.0610352,0.1977539-0.1054688,0.4570313-0.1342773,0.7832031
	C4.0146484,12.1411133,4,12.456543,4,12.7597656v0.5908203c0.059082,0.2871094,0.140625,0.609375,0.2397461,0.9667969
	c0.0976563,0.3623047,0.1767578,0.59375,0.2353516,0.6982422c0.0375977,0.1064453,0.1835938,0.3935547,0.4306641,0.8515625
	c0.246582,0.453125,0.4897461,0.90625,0.7260742,1.359375c0.0600586,0.0537109,0.0922852,0.1113281,0.1049805,0.1816406
	c0.0092773,0.0683594,0.0341797,0.140625,0.0727539,0.1914063v0.2109375l0.0268555,0.7011719
	c0.7338867,0.6162109,1.3720703,1.3505859,2.4306641,1.8134766C9.324707,20.7753906,10.5786133,21,12.0214844,21
	c1.0117188,0,1.9404297-0.1240234,2.7929688-0.3740234c0.8457031-0.2470703,1.6201172-0.5732422,2.3134766-0.9697266
	c0.6894531-0.3945313,1.203125-0.8007813,1.7373047-1.2998047v-1.0273438l0.0966797-0.5664063
	c0-0.1425781,0.0058594-0.2705078,0.0292969-0.375c0.0195313-0.1054688,0.0488281-0.2148438,0.0878906-0.3222656
	l0.5927734-1.8828125c0.1416016-0.3007813,0.2314453-0.6357422,0.2626953-0.9931641
	C19.9814453,12.831543,20,12.4995117,20,12.1943359C20,12.0317383,19.9902344,11.8696289,19.9716797,11.6987305z"/>
</svg>
