<?xml version="1.0" encoding="utf-8"?>
<!-- Generator: Adobe Illustrator 16.0.3, SVG Export Plug-In . SVG Version: 6.00 Build 0)  -->
<!DOCTYPE svg PUBLIC "-//W3C//DTD SVG 1.1//EN" "http://www.w3.org/Graphics/SVG/1.1/DTD/svg11.dtd">
<svg version="1.1" id="Utility_Problem_-_Recieved" xmlns="http://www.w3.org/2000/svg" xmlns:xlink="http://www.w3.org/1999/xlink"
	 x="0px" y="0px" width="34px" height="34px" viewBox="0 0 34 34" enable-background="new 0 0 34 34" xml:space="preserve">
<circle fill="#FFFFFF" cx="17" cy="17" r="17"/>
<path fill="#BF6B04" d="M17.001,32c-8.271,0-15-6.732-15-15.002C2.001,8.73,8.73,2,17.001,2c8.271,0,15,6.73,15,14.998
	C32.001,25.268,25.272,32,17.001,32z"/>
<path fill="#F28705" d="M17.001,31C9.28,31,3,24.721,3,17S9.28,3,17.001,3C24.721,3,31,9.279,31,17S24.721,31,17.001,31z"/>
<path fill="#FFFFFF" d="M26,23.009v-1.794c-0.907,0.689-1.848,1.034-2.81,1.034c-1.236,0-2.25-0.419-3.043-1.249
	c-0.88,0.83-1.884,1.249-3.018,1.249c-0.964,0-1.984-0.419-3.067-1.249c-0.791,0.83-1.796,1.249-3.018,1.249
	c-0.209,0-0.445-0.034-0.709-0.101c-0.269-0.063-0.541-0.153-0.816-0.273c-0.273-0.113-0.546-0.248-0.81-0.398
	C8.441,21.328,8.208,21.17,8,21v1.93c0.173,0.143,0.383,0.277,0.63,0.409c0.25,0.13,0.509,0.241,0.775,0.339
	c0.268,0.098,0.543,0.18,0.824,0.237C10.514,23.971,10.787,24,11.045,24h0.1c1.207,0,2.178-0.357,2.918-1.07
	c0.892,0.713,1.906,1.07,3.039,1.07h0.104c1.342,0,2.319-0.363,2.941-1.091c0.703,0.702,1.707,1.065,3.019,1.091
	C24.123,24,25.071,23.672,26,23.009z"/>
<path fill="#FFFFFF" d="M26,27.01v-1.791c-0.907,0.686-1.848,1.028-2.81,1.028c-1.237,0-2.25-0.414-3.044-1.247
	c-0.879,0.833-1.885,1.247-3.018,1.247c-0.963,0-1.984-0.414-3.067-1.247c-0.791,0.833-1.796,1.247-3.018,1.247
	c-0.209,0-0.445-0.03-0.709-0.097c-0.269-0.064-0.541-0.155-0.816-0.272c-0.272-0.114-0.545-0.25-0.809-0.4
	C8.441,25.332,8.208,25.174,8,25v1.927c0.173,0.146,0.382,0.282,0.63,0.409c0.25,0.131,0.509,0.244,0.774,0.34
	c0.268,0.101,0.543,0.176,0.825,0.239C10.514,27.97,10.786,28,11.044,28h0.1c1.207,0,2.178-0.356,2.918-1.073
	C14.954,27.644,15.968,28,17.101,28h0.105c1.342,0,2.32-0.364,2.941-1.09c0.704,0.697,1.707,1.063,3.019,1.09
	C24.122,28,25.07,27.67,26,27.01z"/>
<path fill="#FFFFFF" d="M21.432,12.253c-0.389-0.752-0.971-1.581-1.75-2.479c-0.783-0.899-1.324-1.607-1.617-2.119
	c-0.519-0.974-0.854-2.194-1-3.655c-0.636,1.616-1.108,2.658-1.417,3.128c-0.758,1.139-1.505,2.269-2.24,3.386
	c-0.865,1.481-1.329,2.746-1.393,3.797c-0.096,1.563,0.298,2.872,1.179,3.932c0.882,1.061,2.039,1.641,3.474,1.745
	c1.306,0.091,2.495-0.303,3.577-1.198c1.072-0.893,1.655-2.051,1.74-3.476C22.059,14.15,21.869,13.129,21.432,12.253z M20,18h-6v-2
	h6V18z M20,13h-2v2h-2v-2h-2v-2h2V9h2v2h2V13z"/>
</svg>
