<?xml version="1.0" encoding="utf-8"?>
<!-- Generator: Adobe Illustrator 16.0.3, SVG Export Plug-In . SVG Version: 6.00 Build 0)  -->
<!DOCTYPE svg PUBLIC "-//W3C//DTD SVG 1.1//EN" "http://www.w3.org/Graphics/SVG/1.1/DTD/svg11.dtd">
<svg version="1.1" id="Vector_Control_Problem_-_Recieved"
	 xmlns="http://www.w3.org/2000/svg" xmlns:xlink="http://www.w3.org/1999/xlink" x="0px" y="0px" width="34px" height="34px"
	 viewBox="0 0 34 34" enable-background="new 0 0 34 34" xml:space="preserve">
<circle fill="#FFFFFF" cx="17" cy="17" r="17"/>
<path fill="#BF6B04" d="M17.001,32c-8.271,0-15-6.732-15-15.002C2.001,8.73,8.73,2,17.001,2c8.271,0,15,6.73,15,14.998
	C32.001,25.268,25.272,32,17.001,32z"/>
<path fill="#F28705" d="M17.001,31C9.28,31,3,24.721,3,17S9.28,3,17.001,3C24.721,3,31,9.279,31,17S24.721,31,17.001,31z"/>
<path fill="#FFFFFF" d="M22.716,14.92c-0.879-0.009-1.767-0.036-2.569-0.083l3.487,4.92c0.521,0.295,2.386,1.515,3.861,1.988
	l-0.069,0.311c-0.018,0-2.938-0.476-4.357-1.758l-3.876-5.438l-0.141-0.105c-0.423-0.042-0.819-0.088-1.154-0.141l3.121,4.371
	l-1.149,3.477c0.145,1.516,2.558,6.33,2.563,6.337l-0.242,0.194c-1.935-1.641-3.109-6.584-3.109-6.584l1.071-3.287l-2.266-3.397
	C17.956,16.314,18,17.006,18,17.768c-0.067,2.088-0.329,4.059-0.999,4.232c-0.674-0.174-0.969-2.138-1.033-4.232
	c0-0.75,0.043-1.45,0.11-2.042l-2.221,3.397l1.08,3.373c-0.205,0.563-1.54,5.171-3.125,6.504l-0.236-0.2
	c0-0.007,2.417-4.821,2.576-6.273l-1.161-3.539l3.121-4.361c-0.335,0.036-0.732,0.087-1.16,0.13l-0.136,0.105l-3.895,5.461
	c-1.393,1.259-4.321,1.729-4.335,1.74l-0.078-0.316c1.479-0.469,3.333-1.682,3.867-1.988l3.487-4.92
	c-0.81,0.047-1.689,0.074-2.574,0.074C8.216,14.865,5.128,14.659,5,13.236c0-0.143,0.033-0.283,0.105-0.415
	c0.367-0.758,1.392-0.957,2.667-0.971c2.211,0,5.263,0.712,7.24,1.229l0.625-0.599c-0.725-0.233-1.845-0.706-2.608-1.53
	l-0.089-0.146l-0.368-3.021l-2.053-2.563L10.749,5l2.548,2.429l0.358,3.026c0.643,0.686,1.765,1.121,2.39,1.313
	c0.084-0.191,0.198-0.368,0.365-0.492c0.008-0.043,0.016-0.082,0.022-0.117l-0.007,0.005c-0.37,0-0.839-0.169-0.837-0.7
	c-0.002-0.03-0.002-0.066,0-0.082c0.079-0.613,0.667-0.958,1.042-1.145l0.193-3.552l0.312-0.006l0.341,3.616
	c0.366,0.207,0.863,0.542,0.922,1.09c0,0.026,0.002,0.057,0.002,0.079c0,0.526-0.469,0.699-0.829,0.699h-0.006
	c0.005,0.033,0.015,0.078,0.015,0.113c0.172,0.129,0.288,0.305,0.364,0.5c0.637-0.199,1.759-0.62,2.367-1.235l0.454-3.202L23.261,5
	l0.226,0.221l-2.02,2.492l-0.444,3.177l-0.045,0.058c-0.76,0.832-1.888,1.292-2.601,1.533l0.613,0.6
	c1.979-0.531,5.033-1.23,7.241-1.232c1.273,0.016,2.303,0.215,2.677,0.974C28.972,12.953,29,13.092,29,13.23
	C28.877,14.662,25.792,14.871,22.716,14.92z"/>
</svg>
