<?xml version="1.0" encoding="utf-8"?>
<!-- Generator: Adobe Illustrator 16.0.3, SVG Export Plug-In . SVG Version: 6.00 Build 0)  -->
<!DOCTYPE svg PUBLIC "-//W3C//DTD SVG 1.1//EN" "http://www.w3.org/Graphics/SVG/1.1/DTD/svg11.dtd">
<svg version="1.1" id="Vehicle_Incident" xmlns="http://www.w3.org/2000/svg" xmlns:xlink="http://www.w3.org/1999/xlink" x="0px"
	 y="0px" width="44px" height="44px" viewBox="0 0 44 44" enable-background="new 0 0 44 44" xml:space="preserve">
<path opacity="0.75" fill="#FFFFFF" enable-background="new    " d="M38,16.538c0-1.134-0.106-2.238-0.312-3.309
	c-0.207-1.071-0.521-2.111-0.946-3.119c-0.417-1.009-0.914-1.95-1.484-2.828c-0.568-0.878-1.216-1.691-1.939-2.438
	c-0.728-0.75-1.517-1.418-2.362-2.009c-0.852-0.591-1.765-1.106-2.734-1.538c-0.979-0.434-1.987-0.758-3.022-0.974
	C24.163,0.107,23.101,0,22.001,0c-1.097,0-2.163,0.107-3.199,0.324c-1.037,0.216-2.042,0.54-3.018,0.974
	c-0.976,0.432-1.889,0.947-2.737,1.538c-0.85,0.591-1.638,1.259-2.36,2.009c-0.725,0.747-1.373,1.56-1.943,2.438
	c-0.573,0.878-1.065,1.819-1.486,2.828c-0.418,1.007-0.733,2.048-0.943,3.119C6.104,14.3,6,15.404,6,16.538
	c0,1.135,0.104,2.235,0.314,3.309c0.209,1.07,0.524,2.11,0.943,3.12c0.363,0.866,0.779,1.689,1.254,2.462
	c0.476,0.772,1.008,1.495,1.595,2.174h-0.005h-0.004l5.948,8.198L21.993,44l5.937-8.185l5.93-8.172
	c0.601-0.681,1.137-1.411,1.615-2.188c0.479-0.782,0.906-1.613,1.268-2.489c0.426-1.01,0.739-2.05,0.946-3.12
	C37.894,18.773,38,17.673,38,16.538z"/>
<path fill="#1873CD" d="M35.727,13.438c-0.188-0.926-0.464-1.832-0.837-2.699c-0.362-0.875-0.811-1.707-1.317-2.474
	c-0.498-0.757-1.073-1.466-1.697-2.1c-0.643-0.649-1.341-1.231-2.078-1.733c-0.743-0.509-1.556-0.958-2.401-1.329
	c-0.839-0.368-1.717-0.646-2.608-0.827C23.893,2.093,22.957,2,22.002,2s-1.893,0.093-2.785,0.277
	c-0.89,0.181-1.768,0.459-2.604,0.825c-0.855,0.374-1.665,0.821-2.413,1.333c-0.735,0.501-1.428,1.081-2.064,1.728
	c-0.634,0.64-1.207,1.348-1.707,2.106s-0.946,1.589-1.322,2.476c-0.366,0.864-0.646,1.771-0.83,2.697C8.092,14.37,8,15.343,8,16.332
	c0,0.989,0.092,1.959,0.278,2.892c0.183,0.921,0.463,1.828,0.829,2.698c0.323,0.764,0.701,1.487,1.116,2.154
	c0.419,0.672,0.891,1.302,1.403,1.878l2.762,3.741L21.994,40l10.281-13.928l0.07-0.08c0.517-0.58,0.996-1.218,1.417-1.887
	c0.433-0.694,0.811-1.424,1.133-2.188c0.367-0.866,0.646-1.768,0.831-2.691C35.906,18.288,36,17.313,36,16.332
	S35.906,14.375,35.727,13.438z"/>
<path fill="#1F8FFF" d="M34.737,13.541c-0.171-0.854-0.43-1.688-0.777-2.487c-0.346-0.812-0.762-1.583-1.234-2.295
	c-0.466-0.699-0.997-1.348-1.576-1.932c-0.6-0.597-1.25-1.134-1.933-1.594c-0.694-0.469-1.444-0.884-2.237-1.225
	c-0.771-0.336-1.583-0.588-2.402-0.755C23.75,3.086,22.884,3,22,3s-1.751,0.086-2.574,0.253c-0.822,0.167-1.628,0.419-2.396,0.751
	c-0.796,0.344-1.554,0.759-2.251,1.23c-0.681,0.459-1.326,0.993-1.917,1.587c-0.588,0.589-1.122,1.241-1.587,1.938
	c-0.47,0.703-0.885,1.475-1.239,2.302c-0.341,0.791-0.601,1.629-0.774,2.484C9.087,14.41,9,15.31,9,16.228
	c0,0.917,0.087,1.824,0.261,2.685c0.17,0.846,0.432,1.683,0.773,2.483c0.305,0.719,0.658,1.393,1.047,2.007
	c0.39,0.614,0.83,1.197,1.308,1.734l4.203,5.621L21.992,38l9.453-12.672l0.14-0.161c0.481-0.531,0.925-1.115,1.315-1.738
	c0.405-0.639,0.761-1.322,1.065-2.036c0.345-0.799,0.604-1.632,0.772-2.473C34.911,18.047,35,17.141,35,16.228
	C35,15.313,34.911,14.41,34.737,13.541z"/>
<polygon fill="#FFFFFF" points="34,16.999 22.012,29 10,16.999 22.012,5 "/>
<path fill="#1F8FFF" d="M27.729,14.775l-1.146-2.783c-0.214-0.533-0.683-0.986-1.57-0.991h-1.618H20.63h-1.646
	c-0.883,0.005-1.352,0.458-1.57,0.991l-1.147,2.783c-0.456,0.055-1.262,0.558-1.26,1.51V20H16v0.961c0,1.258,2,1.273,2,0.039v-1h4h4
	v1c0,1.172,2,1.219,2,0v-1h1v-3.714C28.997,15.333,28.19,14.83,27.729,14.775z"/>
<path fill="#FFFFFF" d="M18.5,19c-0.832,0.001-1.503-0.671-1.5-1.5c-0.003-0.835,0.668-1.508,1.5-1.5c0.827-0.008,1.5,0.665,1.5,1.5
	C20,18.329,19.327,19.001,18.5,19z"/>
<path fill="#FFFFFF" d="M21.997,15h-0.008H18l0.761-2.408c0.093-0.341,0.235-0.585,0.572-0.592h2.655h0.008h2.665
	c0.331,0.006,0.475,0.25,0.57,0.592L25.994,15H21.997z"/>
<path fill="#FFFFFF" d="M25.5,19c-0.832,0.001-1.497-0.671-1.5-1.5c0.003-0.835,0.668-1.508,1.5-1.5c0.82-0.008,1.496,0.665,1.5,1.5
	C26.996,18.329,26.32,19.001,25.5,19z"/>
</svg>
