<?xml version="1.0" encoding="utf-8"?>
<!-- Generator: Adobe Illustrator 16.0.3, SVG Export Plug-In . SVG Version: 6.00 Build 0)  -->
<!DOCTYPE svg PUBLIC "-//W3C//DTD SVG 1.1//EN" "http://www.w3.org/Graphics/SVG/1.1/DTD/svg11.dtd">
<svg version="1.1" id="Video_Feeds" xmlns="http://www.w3.org/2000/svg" xmlns:xlink="http://www.w3.org/1999/xlink" x="0px"
	 y="0px" width="32px" height="32px" viewBox="0 0 32 32" enable-background="new 0 0 32 32" xml:space="preserve">
<circle fill="#FFFFFF" cx="16" cy="16" r="15"/>
<path fill="#262424" d="M16.001,29c-7.169,0-13-5.834-13-13.001S8.832,3,16.001,3c7.165,0,13,5.832,13,12.999S23.166,29,16.001,29z"
	/>
<path fill="#424243" d="M16.001,27.997C9.384,27.997,4,22.615,4,15.999c0-6.616,5.384-12,12.001-12c6.616,0,11.999,5.384,11.999,12
	C28,22.615,22.617,27.997,16.001,27.997z"/>
<path fill="#FFFFFF" d="M20.998,14.535c0-1.177,0-2.138,0-2.358c0-0.588-0.624-1.177-1.25-1.177c-0.623,0-11.874,0-12.498,0
	C6.625,11,6,11.589,6,12.177c0,0.589,0,7.058,0,7.646S6.625,21,7.25,21c0.625,0,11.25,0,12.498,0c0.626,0,1.25-0.59,1.25-1.178
	c0-0.445,0-1.572,0-2.828C22.822,18.511,26,20.662,26,19.822c0-1.176,0-6.47,0-7.646C26,11.338,22.822,13.19,20.998,14.535z"/>
</svg>
