<?xml version="1.0" encoding="utf-8"?>
<!-- Generator: Adobe Illustrator 16.0.3, SVG Export Plug-In . SVG Version: 6.00 Build 0)  -->
<!DOCTYPE svg PUBLIC "-//W3C//DTD SVG 1.1//EN" "http://www.w3.org/Graphics/SVG/1.1/DTD/svg11.dtd">
<svg version="1.1" id="Volenteer_Services" xmlns="http://www.w3.org/2000/svg" xmlns:xlink="http://www.w3.org/1999/xlink" x="0px"
	 y="0px" width="34px" height="34px" viewBox="0 0 34 34" enable-background="new 0 0 34 34" xml:space="preserve">
<circle fill="#FFFFFF" cx="17" cy="17" r="15"/>
<path fill="#262424" d="M17.001,30c-7.168,0-13-5.836-13-13.002C4.001,9.833,9.833,4,17.001,4c7.168,0,13,5.833,13,12.998
	C30.001,24.164,24.169,30,17.001,30z"/>
<path fill="#424243" d="M17.001,29C10.383,29,5,23.619,5,17c0-6.617,5.383-12,12.001-12C23.619,5,29,10.383,29,17
	C29,23.619,23.619,29,17.001,29z"/>
<path fill="#FFFFFF" d="M19.129,11h-4.228c-0.523,0-0.971,0.199-1.343,0.597C13.186,11.994,13,12.48,13,13.054v5.003
	c0,0.176-0.042,0.394,0.078,0.537c0.12,0.145,0.24,0.158,0.422,0.158c0.181,0,0.253-0.071,0.375-0.215
	C13.996,18.393,14,18.232,14,18.057V14h1v12.039c0.02,0.266-0.083,0.479,0.078,0.664c0.161,0.188,0.181,0.195,0.422,0.195
	c0.242,0,0.261-0.069,0.422-0.258c0.161-0.186,0.158-0.336,0.158-0.602V19h1.845v7c0,0.266-0.001,0.549,0.169,0.734
	c0.172,0.188,0.185,0.164,0.406,0.164c0.241,0,0.234,0.024,0.406-0.164C19.076,26.549,19,26.266,19,26V14h1v4
	c0,0.177,0.004,0.393,0.125,0.537c0.12,0.144,0.27,0.215,0.453,0.215c0.18,0,0.238-0.045,0.359-0.189
	c0.12-0.144,0.063-0.37,0.063-0.547v-4.962c0-0.574-0.18-1.06-0.543-1.457C20.096,11.199,19.652,11,19.129,11z"/>
<path fill="#FFFFFF" d="M17,9.75c0.5,0,0.917-0.172,1.249-0.519C18.584,8.887,18.75,8.476,18.75,8s-0.166-0.887-0.501-1.232
	C17.917,6.422,17.5,6.25,17,6.25c-0.477,0-0.888,0.172-1.232,0.518C15.422,7.113,15.25,7.524,15.25,8s0.172,0.887,0.518,1.231
	C16.112,9.578,16.523,9.75,17,9.75z"/>
</svg>
