<?xml version="1.0" encoding="utf-8"?>
<!-- Generator: Adobe Illustrator 16.0.3, SVG Export Plug-In . SVG Version: 6.00 Build 0)  -->
<!DOCTYPE svg PUBLIC "-//W3C//DTD SVG 1.1//EN" "http://www.w3.org/Graphics/SVG/1.1/DTD/svg11.dtd">
<svg version="1.1" id="Warming_Center" xmlns="http://www.w3.org/2000/svg" xmlns:xlink="http://www.w3.org/1999/xlink" x="0px"
	 y="0px" width="40px" height="40px" viewBox="0 0 40 40" enable-background="new 0 0 40 40" xml:space="preserve">
<path opacity="0.75" fill="#FFFFFF" enable-background="new    " d="M33.971,15.673c0-1.004-0.094-1.98-0.272-2.926
	c-0.181-0.948-0.456-1.868-0.824-2.759c-0.365-0.892-0.797-1.726-1.296-2.502s-1.063-1.497-1.694-2.158
	c-0.636-0.661-1.323-1.254-2.063-1.775c-0.743-0.523-1.54-0.978-2.388-1.362c-0.854-0.383-1.733-0.669-2.638-0.861
	C21.889,1.139,20.959,1.044,20,1.044c-0.958,0-1.888,0.094-2.792,0.286c-0.906,0.192-1.784,0.478-2.636,0.861
	c-0.852,0.384-1.649,0.839-2.391,1.362c-0.742,0.521-1.429,1.114-2.061,1.775S8.923,6.709,8.423,7.486
	c-0.498,0.777-0.929,1.61-1.297,2.502c-0.366,0.891-0.64,1.811-0.823,2.759c-0.184,0.946-0.275,1.922-0.275,2.926
	c0,1.001,0.091,1.978,0.275,2.926s0.457,1.867,0.823,2.76c0.316,0.768,0.682,1.495,1.095,2.179c0.416,0.684,0.879,1.323,1.392,1.92
	H9.609H9.606l5.194,7.253l5.194,7.253l5.185-7.236l5.177-7.232c0.521-0.602,0.991-1.248,1.41-1.936c0.42-0.691,0.79-1.426,1.107-2.2
	c0.368-0.894,0.644-1.812,0.824-2.76C33.877,17.651,33.971,16.675,33.971,15.673z"/>
<path fill="#BF9004" d="M31.762,13.233c-0.156-0.829-0.395-1.637-0.713-2.414c-0.316-0.782-0.695-1.526-1.131-2.213
	c-0.43-0.678-0.92-1.312-1.455-1.879c-0.551-0.582-1.15-1.103-1.779-1.551c-0.639-0.456-1.334-0.857-2.059-1.19
	c-0.721-0.328-1.475-0.576-2.238-0.74C21.621,3.083,20.818,3,20.001,3c-0.819,0-1.621,0.083-2.386,0.247
	c-0.764,0.164-1.515,0.412-2.231,0.738c-0.732,0.334-1.428,0.735-2.068,1.193c-0.63,0.448-1.225,0.967-1.77,1.546
	c-0.542,0.573-1.034,1.206-1.463,1.884c-0.429,0.677-0.811,1.422-1.133,2.216c-0.314,0.773-0.554,1.584-0.711,2.413
	C8.081,14.068,8,14.938,8,15.823c0,0.884,0.081,1.754,0.239,2.587c0.157,0.824,0.396,1.637,0.711,2.414
	c0.277,0.682,0.6,1.332,0.957,1.93c0.358,0.598,0.763,1.162,1.202,1.68l2.368,3.348L19.995,37l8.812-12.463l0.061-0.07
	c0.443-0.52,0.854-1.09,1.213-1.689c0.371-0.619,0.695-1.273,0.973-1.957c0.314-0.773,0.553-1.582,0.709-2.405
	C31.92,17.572,32,16.701,32,15.823C32,14.944,31.92,14.072,31.762,13.233z"/>
<path fill="#F3B705" d="M30.779,13.336c-0.145-0.755-0.363-1.495-0.656-2.203c-0.293-0.72-0.645-1.403-1.047-2.034
	c-0.395-0.618-0.844-1.194-1.334-1.709c-0.506-0.529-1.057-1.005-1.635-1.413c-0.588-0.416-1.225-0.782-1.893-1.085
	c-0.654-0.296-1.34-0.52-2.035-0.667C21.48,4.076,20.748,4,20,4c-0.749,0-1.481,0.076-2.179,0.224
	c-0.694,0.148-1.377,0.371-2.027,0.665c-0.674,0.305-1.313,0.672-1.904,1.09c-0.576,0.407-1.122,0.88-1.622,1.407
	c-0.498,0.521-0.949,1.099-1.344,1.717c-0.396,0.622-0.749,1.306-1.049,2.038c-0.288,0.703-0.509,1.443-0.654,2.202
	C9.074,14.104,9,14.903,9,15.717c0,0.813,0.074,1.612,0.221,2.377c0.145,0.75,0.365,1.492,0.654,2.201
	c0.259,0.633,0.558,1.23,0.887,1.775s0.702,1.061,1.106,1.536l3.556,4.979L19.994,35l7.999-11.223l0.117-0.144
	c0.408-0.473,0.783-0.99,1.115-1.539c0.342-0.565,0.645-1.172,0.902-1.805c0.291-0.705,0.51-1.442,0.652-2.19
	C30.926,17.327,31,16.525,31,15.717C31,14.907,30.926,14.106,30.779,13.336z"/>
<path fill="#FFFFFF" d="M28.682,14.682c-0.172,0.206-0.391,0.454-0.656,0.746c-0.266,0.291-0.588,0.617-0.965,0.977
	c-0.582,0.583-1.242,0.951-1.979,1.105c0.188,0.258,0.591,0.635,1.208,1.132c0.274,0.223,0.502,0.416,0.682,0.579
	s0.313,0.287,0.398,0.372c-0.24,0.035-0.479,0.061-0.72,0.077c-0.24,0.018-0.479,0.026-0.72,0.026c-1.148,0-2.178-0.163-3.086-0.489
	c0,0.154,0.077,0.455,0.231,0.9l0.36,1.105c0.137,0.429,0.23,0.784,0.283,1.067c0.051,0.283,0.076,0.51,0.076,0.682v0.103
	c-1.646-0.651-2.82-1.423-3.522-2.314c-0.189,0.429-0.403,0.913-0.643,1.453s-0.506,1.136-0.797,1.787l-0.617-0.771
	c-0.36-0.429-0.617-0.823-0.771-1.183c-0.137-0.309-0.231-0.763-0.283-1.363c-0.343,0.224-0.832,0.472-1.466,0.746
	c-0.771,0.309-1.269,0.54-1.491,0.694c-0.035-0.206-0.056-0.398-0.064-0.579c-0.009-0.18-0.013-0.363-0.013-0.553
	c0-1.063,0.308-2.186,0.925-3.368c-0.206,0-0.467,0.017-0.784,0.051c-0.317,0.035-0.681,0.077-1.093,0.129
	c-0.395,0.068-0.729,0.116-1.003,0.142c-0.274,0.025-0.514,0.038-0.72,0.038h-0.154c-0.018-0.067-0.026-0.137-0.026-0.205
	c0-1.028,0.985-2.092,2.957-3.188c-0.051-0.034-0.21-0.116-0.476-0.244c-0.266-0.129-0.647-0.305-1.145-0.527l-0.154-0.077
	c-0.857-0.377-1.38-0.686-1.568-0.926c0.394-0.429,1.174-0.788,2.34-1.08c0.412-0.086,0.797-0.167,1.157-0.244
	s0.703-0.116,1.029-0.116c0.034,0,0.068,0.009,0.103,0.026h0.617c-0.12-0.274-0.523-0.755-1.208-1.44
	c-0.634-0.617-1.012-1.045-1.131-1.286c0.257-0.171,0.583-0.257,0.977-0.257c0.926,0,2.014,0.463,3.266,1.389
	c0.052-0.154,0.077-0.438,0.077-0.849v-0.36c0-0.309,0.009-0.664,0.026-1.066c0.017-0.403,0.034-0.853,0.051-1.351
	c0.566,0.069,1.174,0.48,1.826,1.234c0.514,0.635,0.943,1.337,1.286,2.108c0.12-0.051,0.412-0.454,0.875-1.208
	c0.394-0.651,0.736-1.028,1.028-1.132c0.445,0.995,0.669,1.972,0.669,2.932c0,0.172-0.01,0.343-0.026,0.515
	c-0.017,0.171-0.034,0.343-0.052,0.514c0.377-0.154,0.814-0.321,1.313-0.501c0.496-0.18,1.07-0.382,1.723-0.604
	c-0.138,1.697-0.721,3.086-1.749,4.166c0.12,0.034,0.248,0.06,0.386,0.077c0.137,0.017,0.291,0.034,0.463,0.051
	c0.309,0.035,0.694,0.082,1.157,0.142C27.55,14.523,28.08,14.596,28.682,14.682z"/>
</svg>
