<?xml version="1.0" encoding="utf-8"?>
<!-- Generator: Adobe Illustrator 16.0.3, SVG Export Plug-In . SVG Version: 6.00 Build 0)  -->
<!DOCTYPE svg PUBLIC "-//W3C//DTD SVG 1.1//EN" "http://www.w3.org/Graphics/SVG/1.1/DTD/svg11.dtd">
<svg version="1.1" id="Warning_on_x2F_near_Road" xmlns="http://www.w3.org/2000/svg" xmlns:xlink="http://www.w3.org/1999/xlink"
	 x="0px" y="0px" width="32px" height="32px" viewBox="0 0 32 32" enable-background="new 0 0 32 32" xml:space="preserve">
<circle fill="#FFFFFF" cx="16" cy="16" r="15"/>
<path fill="#0040AD" d="M16,29C8.832,29,3,23.167,3,16S8.832,3,16,3c7.167,0,13,5.832,13,13S23.168,29,16,29z"/>
<path fill="#406FC2" d="M16,28C9.383,28,4,22.617,4,16C4,9.383,9.383,4,16,4c6.617,0,12,5.383,12,12C28,22.617,22.617,28,16,28z"/>
<polygon fill="#FFFFFF" points="7,23 16,6 24.999,23 "/>
<g>
	<path fill="#406FC2" d="M15.096,16.442l-0.279-4.195c-0.052-0.817-0.079-1.404-0.079-1.76c0-0.484,0.126-0.863,0.38-1.134
		c0.253-0.271,0.586-0.408,0.999-0.408c0.501,0,0.835,0.174,1.004,0.522c0.168,0.347,0.254,0.848,0.254,1.501
		c0,0.385-0.021,0.776-0.063,1.174l-0.375,4.317c-0.041,0.515-0.128,0.908-0.262,1.183c-0.133,0.273-0.354,0.41-0.663,0.41
		c-0.314,0-0.532-0.131-0.654-0.398C15.236,17.389,15.149,16.985,15.096,16.442z M16.065,22.205c-0.355,0-0.665-0.115-0.929-0.346
		c-0.265-0.23-0.397-0.554-0.397-0.969c0-0.362,0.126-0.67,0.38-0.924c0.253-0.254,0.563-0.381,0.929-0.381
		c0.367,0,0.68,0.127,0.938,0.381c0.258,0.254,0.389,0.562,0.389,0.924c0,0.41-0.132,0.73-0.393,0.964
		C16.72,22.089,16.415,22.205,16.065,22.205z"/>
</g>
</svg>
