<?xml version="1.0" encoding="utf-8"?>
<!-- Generator: Adobe Illustrator 16.0.0, SVG Export Plug-In . SVG Version: 6.00 Build 0)  -->
<!DOCTYPE svg PUBLIC "-//W3C//DTD SVG 1.1//EN" "http://www.w3.org/Graphics/SVG/1.1/DTD/svg11.dtd">
<svg version="1.1" id="Water_Quality_Status_-_No" xmlns="http://www.w3.org/2000/svg" xmlns:xlink="http://www.w3.org/1999/xlink"
	 x="0px" y="0px" width="34px" height="34px" viewBox="0 0 34 34" enable-background="new 0 0 34 34" xml:space="preserve">
<circle fill="#FFFFFF" cx="17" cy="17" r="17"/>
<path fill="#03964F" d="M17.0009766,32c-8.2709961,0-15-6.7324219-15-15.0019531C2.0009766,8.7299805,8.7299805,2,17.0009766,2
	c8.2714844,0,15,6.7299805,15,14.9980469C32.0009766,25.2675781,25.2724609,32,17.0009766,32z"/>
<path fill="#03BD63" d="M17.0009766,31.0009766C9.2797852,31.0009766,3.0004883,24.7226563,3.0004883,17
	c0-7.7202148,6.2792969-13.9990234,14.0004883-13.9990234c7.7207031,0,14,6.2788086,14,13.9990234
	C31.0009766,24.7226563,24.7216797,31.0009766,17.0009766,31.0009766z"/>
<path fill="#FFFFFF" d="M27,24.6757813v-2.3896484c-1.0117188,0.9179688-2.0537109,1.3759766-3.1240234,1.3759766
	c-1.3730469,0-2.5009766-0.5546875-3.3808594-1.6621094c-0.9746094,1.1074219-2.0927734,1.6621094-3.3525391,1.6621094
	c-1.0712891,0-2.2055664-0.5546875-3.4077148-1.6621094c-0.878418,1.1074219-1.996582,1.6621094-3.3530273,1.6621094
	c-0.2304688,0-0.4926758-0.0439453-0.7871094-0.1308594c-0.2973633-0.0859375-0.6000977-0.2070313-0.9052734-0.3642578
	c-0.3032227-0.1533203-0.605957-0.3310547-0.9008789-0.5302734C7.4912109,22.4365234,7.2314453,22.2246094,7,22v2.5712891
	c0.1923828,0.1923828,0.4272461,0.3730469,0.7021484,0.5439453c0.2773438,0.1738281,0.5644531,0.3232422,0.8598633,0.4521484
	c0.2958984,0.1328125,0.6035156,0.2373047,0.9155273,0.3154297C9.7929688,25.9599609,10.0947266,26,10.3818359,26h0.112793
	c1.3388672,0,2.4194336-0.4785156,3.2402344-1.4287109C14.7250977,25.5214844,15.8535156,26,17.1132813,26h0.1142578
	c1.4912109,0,2.5810547-0.4853516,3.2675781-1.4521484C21.2773438,25.4785156,22.3945313,25.9648438,23.8466797,26
	C24.9150391,26,25.96875,25.5576172,27,24.6757813z"/>
<g>
	<path fill="#FFFFFF" d="M16.668457,19.9902344c-1.4355469-0.0976563-2.59375-0.6416016-3.4750977-1.6357422
		c-0.8823242-0.9931641-1.2749023-2.222168-1.1791992-3.6860352c0.0644531-0.9848633,0.5283203-2.1713867,1.394043-3.5615234
		c0.7348633-1.0478516,1.4819336-2.105957,2.2402344-3.1743164C15.9555664,7.4921875,16.4301758,6.5151367,17.065918,5
		c0.1484375,1.3706055,0.4824219,2.5131836,1.0024414,3.4272461c0.2929688,0.4804688,0.8300781,1.1430664,1.6113281,1.9868164
		c0.7871094,0.84375,1.3691406,1.6196289,1.7539063,2.3256836c0.4414063,0.8203125,0.625,1.7773438,0.5546875,2.8706055
		c-0.0859375,1.3330078-0.6699219,2.4189453-1.7441406,3.2568359C19.1660156,19.7050781,17.9741211,20.0800781,16.668457,19.9902344
		z"/>
</g>
</svg>
