<?xml version="1.0" encoding="utf-8"?>
<!-- Generator: Adobe Illustrator 16.0.3, SVG Export Plug-In . SVG Version: 6.00 Build 0)  -->
<!DOCTYPE svg PUBLIC "-//W3C//DTD SVG 1.1//EN" "http://www.w3.org/Graphics/SVG/1.1/DTD/svg11.dtd">
<svg version="1.1" id="Water_Quality_Status_-_Not_Applicable"
	 xmlns="http://www.w3.org/2000/svg" xmlns:xlink="http://www.w3.org/1999/xlink" x="0px" y="0px" width="40px" height="40px"
	 viewBox="0 0 40 40" enable-background="new 0 0 40 40" xml:space="preserve">
<path opacity="0.75" fill="#FFFFFF" d="M33.971,15.673c0-1.004-0.094-1.98-0.272-2.926c-0.181-0.948-0.456-1.868-0.824-2.759
	c-0.365-0.892-0.797-1.726-1.296-2.502s-1.063-1.497-1.694-2.158c-0.636-0.661-1.323-1.254-2.063-1.775
	c-0.743-0.523-1.54-0.978-2.388-1.362c-0.854-0.383-1.733-0.669-2.638-0.861C21.889,1.139,20.959,1.044,20,1.044
	c-0.958,0-1.888,0.094-2.792,0.286c-0.906,0.192-1.784,0.478-2.636,0.861c-0.852,0.384-1.649,0.839-2.391,1.362
	c-0.742,0.521-1.429,1.114-2.061,1.775S8.923,6.709,8.423,7.486c-0.498,0.777-0.929,1.61-1.297,2.502
	c-0.366,0.891-0.64,1.811-0.823,2.759c-0.184,0.946-0.275,1.922-0.275,2.926c0,1.001,0.091,1.978,0.275,2.926
	s0.457,1.867,0.823,2.76c0.316,0.768,0.682,1.495,1.095,2.179c0.416,0.684,0.879,1.323,1.392,1.92H9.609H9.606l5.194,7.253
	l5.194,7.253l5.185-7.236l5.177-7.232c0.521-0.602,0.991-1.248,1.41-1.936c0.42-0.691,0.79-1.426,1.107-2.2
	c0.368-0.894,0.644-1.812,0.824-2.76C33.877,17.651,33.971,16.675,33.971,15.673z"/>
<path fill="#424243" d="M31.762,13.233c-0.156-0.829-0.395-1.637-0.713-2.414c-0.316-0.782-0.695-1.526-1.131-2.213
	c-0.43-0.678-0.92-1.312-1.455-1.879c-0.551-0.582-1.15-1.103-1.779-1.551c-0.639-0.456-1.334-0.857-2.059-1.19
	c-0.721-0.328-1.475-0.576-2.238-0.74C21.621,3.083,20.818,3,20.001,3c-0.819,0-1.621,0.083-2.386,0.247
	c-0.764,0.164-1.515,0.412-2.231,0.738c-0.732,0.334-1.428,0.735-2.068,1.193c-0.63,0.448-1.225,0.967-1.77,1.546
	c-0.542,0.573-1.034,1.206-1.463,1.884c-0.429,0.677-0.811,1.422-1.133,2.216c-0.314,0.773-0.554,1.584-0.711,2.413
	C8.081,14.068,8,14.938,8,15.823c0,0.884,0.081,1.754,0.239,2.587c0.157,0.824,0.396,1.637,0.711,2.414
	c0.277,0.682,0.6,1.332,0.957,1.93c0.358,0.598,0.763,1.162,1.202,1.68l2.368,3.348L19.995,37l8.812-12.463l0.061-0.07
	c0.443-0.52,0.854-1.09,1.213-1.689c0.371-0.619,0.695-1.273,0.973-1.957c0.314-0.773,0.553-1.582,0.709-2.405
	C31.92,17.572,32,16.701,32,15.823C32,14.944,31.92,14.072,31.762,13.233z"/>
<path fill="#58595B" d="M30.779,13.336c-0.145-0.755-0.363-1.495-0.656-2.203c-0.293-0.72-0.645-1.403-1.047-2.034
	c-0.395-0.618-0.844-1.194-1.334-1.709c-0.506-0.529-1.057-1.005-1.635-1.413c-0.588-0.416-1.225-0.782-1.893-1.085
	c-0.654-0.296-1.34-0.52-2.035-0.667C21.48,4.076,20.748,4,20,4c-0.749,0-1.481,0.076-2.179,0.224
	c-0.694,0.148-1.377,0.371-2.027,0.665c-0.674,0.305-1.313,0.672-1.904,1.09c-0.576,0.407-1.122,0.88-1.622,1.407
	c-0.498,0.521-0.949,1.099-1.344,1.717c-0.396,0.622-0.749,1.306-1.049,2.038c-0.288,0.703-0.509,1.443-0.654,2.202
	C9.074,14.104,9,14.903,9,15.717c0,0.813,0.074,1.612,0.221,2.377c0.145,0.75,0.365,1.492,0.654,2.201
	c0.259,0.633,0.558,1.23,0.887,1.775s0.702,1.061,1.106,1.536l3.556,4.979L19.994,35l7.999-11.223l0.117-0.144
	c0.408-0.473,0.783-0.99,1.115-1.539c0.342-0.565,0.645-1.172,0.902-1.805c0.291-0.705,0.51-1.442,0.652-2.19
	C30.926,17.327,31,16.525,31,15.717C31,14.907,30.926,14.106,30.779,13.336z"/>
<path fill="#FFFFFF" d="M27.99,21.018v-1.773c-0.809,0.682-1.64,1.021-2.496,1.021c-1.098,0-1.998-0.412-2.7-1.234
	c-0.779,0.822-1.673,1.234-2.68,1.234c-0.855,0-1.762-0.412-2.723-1.234c-0.702,0.822-1.595,1.234-2.679,1.234
	c-0.184,0-0.394-0.033-0.629-0.098c-0.238-0.063-0.479-0.153-0.723-0.27c-0.243-0.114-0.484-0.246-0.72-0.395
	c-0.237-0.148-0.445-0.306-0.63-0.473v1.908c0.154,0.143,0.341,0.277,0.561,0.404c0.222,0.129,0.451,0.24,0.687,0.336
	c0.236,0.098,0.482,0.176,0.731,0.233C14.242,21.971,14.483,22,14.712,22h0.09c1.069,0,1.933-0.354,2.589-1.061
	C18.183,21.646,19.084,22,20.091,22h0.091c1.191,0,2.062-0.359,2.612-1.078c0.625,0.691,1.517,1.053,2.678,1.078
	C26.325,22,27.167,21.673,27.99,21.018z"/>
<g>
	<path fill="#FFFFFF" d="M19.734,17.99c-1.148-0.079-2.074-0.514-2.779-1.309c-0.706-0.794-1.02-1.777-0.943-2.948
		c0.051-0.788,0.422-1.737,1.115-2.849c0.588-0.838,1.186-1.684,1.792-2.539C19.164,7.993,19.543,7.212,20.052,6
		c0.118,1.096,0.385,2.01,0.801,2.741c0.234,0.384,0.664,0.914,1.29,1.589c0.628,0.675,1.094,1.295,1.401,1.86
		c0.354,0.656,0.501,1.421,0.443,2.296c-0.068,1.066-0.535,1.935-1.395,2.604C21.731,17.761,20.778,18.061,19.734,17.99z"/>
</g>
</svg>
