<?xml version="1.0" encoding="utf-8"?>
<!-- Generator: Adobe Illustrator 16.0.3, SVG Export Plug-In . SVG Version: 6.00 Build 0)  -->
<!DOCTYPE svg PUBLIC "-//W3C//DTD SVG 1.1//EN" "http://www.w3.org/Graphics/SVG/1.1/DTD/svg11.dtd">
<svg version="1.1" id="Watering_Violations_-_Park" xmlns="http://www.w3.org/2000/svg" xmlns:xlink="http://www.w3.org/1999/xlink"
	 x="0px" y="0px" width="44px" height="44px" viewBox="0 0 44 44" enable-background="new 0 0 44 44" xml:space="preserve">
<circle fill="#FFFFFF" cx="22" cy="22" r="21"/>
<path fill="#1F802A" d="M22.0009766,40.90625C11.5234375,40.90625,3,32.4033203,3,21.9526367
	C3,11.5024414,11.5234375,3,22.0009766,3C32.4755859,3,41,11.5024414,41,21.9526367
	C41,32.4033203,32.4755859,40.90625,22.0009766,40.90625z"/>
<path fill="#56C362" d="M22.0009766,40.0664063C12.0751953,40.0664063,4,31.9921875,4,22.065918
	c0-9.9248047,8.0751953-18,18.0009766-18c9.9248047,0,17.9990234,8.0751953,17.9990234,18
	C40,31.9921875,31.9257813,40.0664063,22.0009766,40.0664063z"/>
<polygon fill="#FFFFFF" points="8,32 21.515625,6.046875 35,32 "/>
<g>
	<path fill="#56C362" d="M20.1459961,22.1625977l-0.4189453-6.2929688c-0.0786133-1.2260742-0.1176758-2.1064453-0.1176758-2.640625
		c0-0.7270508,0.1894531-1.2944336,0.5693359-1.7016602s0.8793945-0.6108398,1.4995117-0.6108398
		c0.7504883,0,1.2524414,0.2607422,1.5053711,0.7817383c0.2539063,0.5209961,0.3798828,1.2724609,0.3798828,2.2529297
		c0,0.578125-0.0302734,1.1650391-0.0917969,1.7607422l-0.5625,6.4770508
		c-0.0610352,0.7705078-0.1923828,1.3618164-0.3930664,1.7739258c-0.2006836,0.4111328-0.5327148,0.6171875-0.9951172,0.6171875
		c-0.4711914,0-0.7988281-0.1992188-0.9819336-0.5976563C20.3554688,23.5839844,20.2246094,22.9770508,20.1459961,22.1625977z
		 M21.5996094,30.8066406c-0.5327148,0-0.9975586-0.1728516-1.3945313-0.5185547
		c-0.3974609-0.3457031-0.5957031-0.8300781-0.5957031-1.4521484c0-0.5429688,0.1894531-1.0048828,0.5693359-1.3857422
		s0.8447266-0.5712891,1.3945313-0.5712891c0.550293,0,1.0195313,0.1904297,1.4077148,0.5712891
		s0.5825195,0.8427734,0.5825195,1.3857422c0,0.6132813-0.1962891,1.0957031-0.5888672,1.4453125
		C22.581543,30.6318359,22.1235352,30.8066406,21.5996094,30.8066406z"/>
</g>
</svg>
