<?xml version="1.0" encoding="utf-8"?>
<!-- Generator: Adobe Illustrator 16.0.3, SVG Export Plug-In . SVG Version: 6.00 Build 0)  -->
<!DOCTYPE svg PUBLIC "-//W3C//DTD SVG 1.1//EN" "http://www.w3.org/Graphics/SVG/1.1/DTD/svg11.dtd">
<svg version="1.1" id="Weeds" xmlns="http://www.w3.org/2000/svg" xmlns:xlink="http://www.w3.org/1999/xlink" x="0px" y="0px"
	 width="40px" height="40px" viewBox="0 0 40 40" enable-background="new 0 0 40 40" xml:space="preserve">
<path opacity="0.75" fill="#FFFFFF" d="M33.9707031,15.6733398c0-1.0039063-0.09375-1.9799805-0.2724609-2.9262695
	c-0.1806641-0.9482422-0.4560547-1.8676758-0.8242188-2.7587891c-0.3652344-0.8920898-0.796875-1.7255859-1.2958984-2.5024414
	s-1.0625-1.496582-1.6943359-2.1577148c-0.6357422-0.6611328-1.3232422-1.2543945-2.0634766-1.7753906
	c-0.7431641-0.5229492-1.5400391-0.9780273-2.3876953-1.3618164c-0.8535156-0.3828125-1.7333984-0.6689453-2.6376953-0.8608398
	c-0.90625-0.1914063-1.8364258-0.2856445-2.7944336-0.2856445c-0.9575195,0-1.8881836,0.0942383-2.7924805,0.2856445
	c-0.9057617,0.1918945-1.7836914,0.4780273-2.6357422,0.8608398c-0.8520508,0.3837891-1.6489258,0.8388672-2.390625,1.3618164
	c-0.7416992,0.5209961-1.4287109,1.1142578-2.0610352,1.7753906S8.9228516,6.7089844,8.4233398,7.4858398
	C7.925293,8.2626953,7.4941406,9.0961914,7.1264648,9.9882813c-0.3662109,0.8911133-0.6396484,1.8105469-0.8232422,2.7587891
	c-0.1835938,0.9462891-0.2749023,1.9223633-0.2749023,2.9262695c0,1.0014648,0.0913086,1.9775391,0.2749023,2.9257813
	s0.4570313,1.8666992,0.8232422,2.7602539c0.315918,0.7675781,0.6816406,1.4951172,1.0952148,2.1787109
	c0.4160156,0.6835938,0.8789063,1.3232422,1.3916016,1.9199219H9.609375H9.6064453l5.1938477,7.2529297l5.1943359,7.2529297
	l5.1850586-7.2363281l5.1767578-7.2324219c0.5214844-0.6015625,0.9912109-1.2480469,1.4101563-1.9355469
	c0.4199219-0.6914063,0.7900391-1.4257813,1.1074219-2.2001953c0.3681641-0.8935547,0.6435547-1.8120117,0.8242188-2.7602539
	C33.8769531,17.6508789,33.9707031,16.6748047,33.9707031,15.6733398z"/>
<path fill="#BF9004" d="M31.7617188,13.2333984c-0.15625-0.8286133-0.3945313-1.637207-0.7128906-2.4140625
	c-0.3164063-0.7822266-0.6953125-1.5258789-1.1308594-2.2128906c-0.4296875-0.6777344-0.9199219-1.3120117-1.4550781-1.8789063
	C27.9121094,6.1459961,27.3125,5.625,26.6835938,5.1767578C26.0449219,4.7211914,25.3496094,4.3198242,24.625,3.9868164
	c-0.7207031-0.3276367-1.4746094-0.5761719-2.2382813-0.7397461C21.6210938,3.0830078,20.8183594,3,20.0009766,3
	c-0.8193359,0-1.6210938,0.0830078-2.3857422,0.2470703c-0.7636719,0.1635742-1.5146484,0.4116211-2.2314453,0.7382813
	c-0.7324219,0.3344727-1.4277344,0.7353516-2.0683594,1.1928711c-0.6298828,0.4482422-1.2246094,0.9672852-1.7695313,1.5458984
	c-0.5419922,0.5727539-1.0341797,1.2060547-1.4628906,1.8842773c-0.4287109,0.6767578-0.8105469,1.4223633-1.1328125,2.2158203
	c-0.3144531,0.7729492-0.5537109,1.5844727-0.7109375,2.4130859C8.0810547,14.0678711,8,14.9375,8,15.8232422
	c0,0.8842773,0.0810547,1.7539063,0.2392578,2.5869141c0.1572266,0.8242188,0.3964844,1.6367188,0.7109375,2.4140625
	c0.2773438,0.6816406,0.5996094,1.3320313,0.9570313,1.9296875c0.3583984,0.5976563,0.7626953,1.1621094,1.2021484,1.6796875
	l2.3681641,3.3476563L19.9951172,37l8.8115234-12.4628906l0.0605469-0.0703125
	c0.4433594-0.5195313,0.8535156-1.0898438,1.2128906-1.6894531c0.3710938-0.6191406,0.6953125-1.2734375,0.9726563-1.9570313
	c0.3144531-0.7734375,0.5527344-1.5820313,0.7089844-2.4052734C31.9199219,17.5722656,32,16.7006836,32,15.8232422
	C32,14.9443359,31.9199219,14.0722656,31.7617188,13.2333984z"/>
<path fill="#F3B705" d="M30.7792969,13.3359375c-0.1445313-0.7553711-0.3632813-1.4946289-0.65625-2.203125
	c-0.2929688-0.7197266-0.6445313-1.4033203-1.046875-2.0336914c-0.3945313-0.6176758-0.84375-1.1938477-1.3339844-1.7094727
	c-0.5058594-0.5292969-1.0566406-1.0048828-1.6347656-1.4130859c-0.5878906-0.4155273-1.2246094-0.7822266-1.8925781-1.0854492
	C23.5605469,4.5952148,22.875,4.371582,22.1796875,4.2236328C21.4804688,4.0756836,20.7475586,4,19.9995117,4
	c-0.7490234,0-1.4814453,0.0756836-2.1787109,0.2236328c-0.6943359,0.1479492-1.3769531,0.3710938-2.0273438,0.6650391
	c-0.6738281,0.3051758-1.3134766,0.6723633-1.9042969,1.0898438c-0.5761719,0.4067383-1.1220703,0.8803711-1.6220703,1.4067383
	c-0.4980469,0.5214844-0.9492188,1.0991211-1.34375,1.7167969c-0.3964844,0.621582-0.7490234,1.3061523-1.0488281,2.0380859
	c-0.2880859,0.7026367-0.5087891,1.4433594-0.6542969,2.2016602c-0.1464844,0.7626953-0.2207031,1.5615234-0.2207031,2.375
	c0,0.8125,0.0742188,1.6118164,0.2207031,2.3769531c0.1445313,0.75,0.3652344,1.4921875,0.6542969,2.2011719
	c0.2587891,0.6328125,0.5576172,1.2304688,0.8867188,1.7753906s0.7021484,1.0605469,1.1064453,1.5361328l3.5556641,4.9785156
	L19.9936523,35l7.9985352-11.2226563l0.1171875-0.1435547c0.4082031-0.4726563,0.7832031-0.9902344,1.1152344-1.5390625
	c0.3417969-0.5654297,0.6445313-1.171875,0.9023438-1.8046875c0.2910156-0.7050781,0.5097656-1.4423828,0.6523438-2.1904297
	C30.9257813,17.3266602,31,16.5249023,31,15.7167969C31,14.9067383,30.9257813,14.105957,30.7792969,13.3359375z"/>
<g id="Layer_1_1_">
	<path fill="#FFFFFF" d="M19.3930664,14.0058594c-1.2861328,0-2.3261719,1.0415039-2.3261719,2.3256836
		c0,0.75,0.3613281,1.4121094,0.9135742,1.8378906c-0.675293,2.809082-2.0595703,5.2270508-3.5288086,7.7729492l1.5834961,0.9150391
		c1.534668-2.6582031,2.9838867-5.1875,3.7158203-8.2353516c1.1118164-0.1733398,1.9697266-1.128418,1.9697266-2.2905273
		C21.7207031,15.0473633,20.6777344,14.0058594,19.3930664,14.0058594z"/>
	<path fill="#FFFFFF" d="M21.4960938,7.2797852c-0.1806641-0.1743164-0.46875-0.1699219-0.6445313,0.0117188
		c-0.144043,0.1474609-0.5405273,0.4936523-0.9458008,0.6625977V7.4174805c0-0.2529297-0.203125-0.4575195-0.4570313-0.4575195
		c-0.2519531,0-0.4580078,0.2045898-0.4580078,0.4575195v0.5307617c-0.456543-0.1733398-0.9008789-0.5170898-1.0742188-0.675293
		c-0.1845703-0.1699219-0.4746094-0.1586914-0.6455078,0.0273438c-0.1713867,0.1855469-0.159668,0.4731445,0.0244141,0.644043
		c0.0966797,0.0878906,0.8383789,0.7451172,1.6953125,0.956543v3.5302734v0.53125v0.0283203
		c0,0.2529297,0.2060547,0.4589844,0.4580078,0.4589844c0.2539063,0,0.4570313-0.2060547,0.4570313-0.4589844v-0.0283203v-0.53125
		V8.9135742c0.8222656-0.1992188,1.5170898-0.8964844,1.6030273-0.9868164
		C21.6835938,7.7431641,21.6787109,7.4560547,21.4960938,7.2797852z"/>
	<path fill="#FFFFFF" d="M17.8955078,13.1225586l-0.0175781-0.0214844v-0.0014648L17.5625,12.6723633
		c-0.0019531,0-0.0024414,0-0.0024414-0.0024414l-2.0976563-2.8193359c0.5419922-0.6499023,0.6801758-1.6259766,0.6958008-1.7514648
		c0.03125-0.2495117-0.1459961-0.4790039-0.3974609-0.5102539C15.5126953,7.5571289,15.2827148,7.7353516,15.25,7.984375
		c-0.0244141,0.2026367-0.1386719,0.7177734-0.3608398,1.0966797l-0.3222656-0.4331055
		c-0.1494141-0.2006836-0.4355469-0.2446289-0.6391602-0.0932617c-0.2011719,0.1499023-0.2441406,0.4370117-0.0927734,0.640625
		l0.3164063,0.4248047c-0.4702148,0.1342773-1.0317383,0.1240234-1.2661133,0.1010742
		c-0.2539063-0.0258789-0.4760742,0.1552734-0.5029297,0.4067383c-0.0263672,0.2504883,0.1557617,0.4750977,0.4057617,0.5029297
		c0.0483398,0.0039063,0.2158203,0.0205078,0.449707,0.0205078c0.394043,0,0.9731445-0.0463867,1.484375-0.2626953
		l2.4394531,3.2783203c0.0893555,0.1210938,0.2265625,0.1845703,0.3662109,0.1845703
		c0.0961914,0,0.1914063-0.0288086,0.2734375-0.0908203C18.0029297,13.6113281,18.0463867,13.3237305,17.8955078,13.1225586z"/>
	<path fill="#FFFFFF" d="M16.5170898,14.4902344l-0.0249023-0.0097656l-0.0019531-0.0014648l-0.496582-0.1904297
		c-0.0004883,0-0.0004883,0-0.0004883,0l-3.2788086-1.2700195c0.1118164-0.8374023-0.2885742-1.737793-0.3432617-1.8535156
		c-0.1064453-0.2275391-0.378418-0.3256836-0.6069336-0.2182617c-0.2290039,0.1064453-0.3276367,0.3764648-0.2216797,0.6054688
		c0.0844727,0.1845703,0.2646484,0.6806641,0.277832,1.1210938l-0.5039063-0.1958008
		c-0.2348633-0.090332-0.5,0.0263672-0.590332,0.262207c-0.0913086,0.2353516,0.0268555,0.5004883,0.2617188,0.5913086
		l0.4951172,0.190918c-0.3271484,0.3647461-0.8076172,0.6552734-1.0185547,0.7612305
		c-0.2255859,0.1108398-0.3188477,0.3828125-0.2080078,0.6108398c0.0795898,0.1625977,0.2412109,0.2553711,0.409668,0.2553711
		c0.0688477,0,0.1362305-0.0146484,0.2006836-0.0463867c0.1171875-0.0576172,0.9990234-0.5131836,1.503418-1.2353516
		l3.8149414,1.4765625c0.0541992,0.0200195,0.1108398,0.0297852,0.1645508,0.0297852
		c0.184082,0,0.355957-0.1108398,0.4277344-0.2929688C16.8691406,14.847168,16.7524414,14.5810547,16.5170898,14.4902344z"/>
	<path fill="#FFFFFF" d="M16.4267578,16.3930664c-0.0576172-0.2460938-0.3032227-0.3994141-0.5493164-0.3413086
		l-0.1982422,0.0463867l-0.347168,0.0791016l0,0l-3.4277344,0.7958984
		c-0.3789063-0.7543945-1.2148438-1.2729492-1.3232422-1.3378906c-0.2177734-0.1279297-0.4985352-0.0581055-0.6279297,0.1601563
		c-0.128418,0.2158203-0.0561523,0.4975586,0.1606445,0.6269531c0.1743164,0.1020508,0.6005859,0.4111328,0.8583984,0.7675781
		L10.4472656,17.3125c-0.2456055,0.0566406-0.3999023,0.3037109-0.3417969,0.550293
		c0.0488281,0.2084961,0.2368164,0.3525391,0.4453125,0.3525391c0.0336914,0,0.0678711-0.0029297,0.1040039-0.0117188
		l0.5175781-0.1210938c-0.065918,0.4853516-0.2988281,0.9956055-0.4155273,1.203125
		c-0.1235352,0.21875-0.0463867,0.4980469,0.171875,0.6225586c0.0717773,0.0371094,0.1503906,0.0566406,0.2265625,0.0566406
		c0.1572266,0,0.3125-0.0834961,0.3964844-0.2304688c0.0649414-0.112793,0.5375977-0.9824219,0.5478516-1.8671875
		l3.9838867-0.9257813C16.3305664,16.8857422,16.4838867,16.6401367,16.4267578,16.3930664z"/>
	<path fill="#FFFFFF" d="M17.1157227,18.1953125c-0.1694336-0.1879883-0.4589844-0.2026367-0.6464844-0.034668l-0.3823242,0.3457031
		l-0.0336914,0.0322266l0,0l-2.6054688,2.3618164c-0.6982422-0.4765625-1.6835938-0.5234375-1.8100586-0.5253906
		c-0.2480469-0.0107422-0.4619141,0.1914063-0.46875,0.4443359c-0.0083008,0.25,0.190918,0.4638672,0.4423828,0.46875
		c0.203125,0.0107422,0.7260742,0.0712891,1.125,0.2548828l-0.3984375,0.3613281
		c-0.1870117,0.1689453-0.2011719,0.4580078-0.0317383,0.6484375c0.0908203,0.0976563,0.2148438,0.1455078,0.3393555,0.1455078
		c0.109375,0,0.21875-0.0371094,0.3071289-0.1142578l0.3935547-0.3574219
		c0.1782227,0.4550781,0.2231445,1.0146484,0.2211914,1.2480469c-0.0019531,0.2548828,0.2016602,0.4589844,0.4541016,0.4609375
		c0.0004883,0,0.0014648,0,0.0024414,0c0.2509766,0,0.4560547-0.2011719,0.4580078-0.4521484
		c0.0009766-0.1298828-0.0063477-1.1230469-0.4272461-1.8994141l2.6474609-2.4003906L17.0625,18.8583984l0,0l0.0224609-0.0175781
		C17.2709961,18.6708984,17.2851563,18.3793945,17.1157227,18.1953125z"/>
	<path fill="#FFFFFF" d="M27.6191406,8.7246094c-0.0673828-0.2421875-0.3203125-0.3862305-0.5615234-0.3168945
		c-0.2109375,0.0576172-0.7724609,0.159668-1.265625,0.1064453l0.2421875-0.4731445
		c0.1152344-0.2236328,0.0273438-0.5-0.1972656-0.6166992c-0.2236328-0.1137695-0.4990234-0.0258789-0.6142578,0.1977539
		l-0.2490234,0.4780273c-0.28125-0.3383789-0.4765625-0.8271484-0.5322266-1.0219727
		c-0.0742188-0.2416992-0.3242188-0.3774414-0.5693359-0.3066406c-0.2421875,0.0712891-0.3798828,0.324707-0.3085938,0.5673828
		c0.0371094,0.1210938,0.3310547,1.0600586,0.9707031,1.6152344l-1.8662109,3.621582
		c-0.1191406,0.2265625-0.03125,0.5004883,0.1972656,0.6171875c0.0654297,0.0351563,0.1357422,0.050293,0.2070313,0.050293
		c0.1650391,0,0.3251953-0.0908203,0.4052734-0.2475586l0.0146484-0.0229492l0.2421875-0.4746094l1.6201172-3.137207
		c0.2480469,0.059082,0.5009766,0.0859375,0.7441406,0.0859375c0.5976563,0,1.1132813-0.1347656,1.2021484-0.1582031
		C27.5429688,9.2207031,27.6845703,8.9682617,27.6191406,8.7246094z"/>
	<path fill="#FFFFFF" d="M28.7246094,16.4223633c0.2177734-0.1293945,0.2880859-0.4111328,0.1582031-0.6269531
		c-0.1289063-0.2163086-0.4082031-0.2866211-0.6269531-0.1586914c-0.1064453,0.0634766-0.9433594,0.5820313-1.3251953,1.3364258
		l-3.4238281-0.7944336c0,0,0,0,0-0.0014648l-0.5185547-0.1196289l0,0l-0.0283203-0.0058594
		c-0.2451172-0.0581055-0.4931641,0.0952148-0.5488281,0.3413086c-0.0556641,0.2470703,0.0947266,0.4926758,0.3408203,0.5483398
		l3.9873047,0.9267578c0.0087891,0.8837891,0.4814453,1.753418,0.5449219,1.8662109
		c0.0839844,0.1503906,0.2402344,0.2333984,0.3984375,0.2333984c0.0761719,0,0.1542969-0.0195313,0.2246094-0.0595703
		c0.2216797-0.1245117,0.2978516-0.4038086,0.171875-0.6225586c-0.1142578-0.2075195-0.3466797-0.7177734-0.4130859-1.203125
		l0.5166016,0.1210938c0.0322266,0.0087891,0.0693359,0.0117188,0.1044922,0.0117188
		c0.2080078,0,0.3945313-0.1416016,0.4443359-0.3525391c0.0576172-0.246582-0.0966797-0.4916992-0.3417969-0.5493164
		l-0.5263672-0.1225586C28.1230469,16.8349609,28.5498047,16.5283203,28.7246094,16.4223633z"/>
	<path fill="#FFFFFF" d="M27.1982422,20.375c-0.1259766,0.0019531-1.1103516,0.0488281-1.8095703,0.5253906l-2.6035156-2.359375
		c0,0,0,0,0-0.0024414l-0.3945313-0.3579102l0,0l-0.0205078-0.0200195c-0.1914063-0.1679688-0.4794922-0.1533203-0.6474609,0.034668
		c-0.1689453,0.184082-0.15625,0.4755859,0.0302734,0.6455078l3.0302734,2.7431641
		c-0.421875,0.7763672-0.4277344,1.7744141-0.4277344,1.8994141c0.0019531,0.2509766,0.2050781,0.4521484,0.4560547,0.4521484
		c0.0039063,0,0.0039063,0,0.0039063,0c0.2548828,0,0.4560547-0.2060547,0.4560547-0.4609375
		c-0.0039063-0.2177734,0.0419922-0.7861328,0.2207031-1.2480469l0.3925781,0.3574219
		c0.0859375,0.0771484,0.1972656,0.1171875,0.3056641,0.1171875c0.1259766,0,0.2490234-0.0507813,0.3398438-0.1484375
		c0.1699219-0.1904297,0.1552734-0.4765625-0.0332031-0.6464844l-0.3964844-0.3603516
		c0.3964844-0.1835938,0.9228516-0.2470703,1.1259766-0.2578125c0.2509766-0.0048828,0.4501953-0.21875,0.4423828-0.46875
		C27.6621094,20.5664063,27.4628906,20.3544922,27.1982422,20.375z"/>
	<path fill="#FFFFFF" d="M22.8466797,24.4179688c-0.0927734-0.0869141-0.8261719-0.7490234-1.6494141-0.9052734
		l-0.1777344-3.5117188c0,0,0,0,0-0.003418l-0.0244141-0.5302734c0-0.003418,0-0.003418,0-0.003418l-0.0019531-0.0288086
		c-0.0131836-0.2514648-0.2250977-0.4414063-0.4804688-0.4301758c-0.253418,0.012207-0.4467773,0.2250977-0.4345703,0.4765625
		l0.2075195,4.0888672c-0.8461914,0.25-1.5556641,0.9453125-1.6450195,1.0400391
		c-0.1777344,0.1806641-0.1738281,0.4677734,0.0068359,0.6416016c0.0869141,0.0908203,0.2036133,0.1347656,0.3173828,0.1347656
		c0.1201172,0,0.2397461-0.046875,0.328125-0.1367188c0.1655273-0.1699219,0.5917969-0.5341797,1.0395508-0.7314453
		l0.0258789,0.53125c0.0117188,0.2441406,0.2148438,0.4355469,0.4560547,0.4355469c0.0083008,0,0.0166016,0,0.0244141,0
		c0.2509766-0.0136719,0.4472656-0.2294922,0.4316406-0.4804688l-0.0253906-0.5400391
		c0.4111328,0.1494141,0.8261719,0.4794922,0.9765625,0.6152344c0.1826172,0.1757813,0.4746094,0.1669922,0.6455078-0.0175781
		C23.0400391,24.8779297,23.03125,24.5917969,22.8466797,24.4179688z"/>
</g>
</svg>
