<?xml version="1.0" encoding="utf-8"?>
<!-- Generator: Adobe Illustrator 16.0.3, SVG Export Plug-In . SVG Version: 6.00 Build 0)  -->
<!DOCTYPE svg PUBLIC "-//W3C//DTD SVG 1.1//EN" "http://www.w3.org/Graphics/SVG/1.1/DTD/svg11.dtd">
<svg version="1.1" id="Width_x2F_Height_Restrictions_-_Work_Zones"
	 xmlns="http://www.w3.org/2000/svg" xmlns:xlink="http://www.w3.org/1999/xlink" x="0px" y="0px" width="32px" height="32px"
	 viewBox="0 0 32 32" enable-background="new 0 0 32 32" xml:space="preserve">
<circle fill="#FFFFFF" cx="16" cy="16" r="15"/>
<path fill="#BF6B04" d="M16,29C8.832,29,3,23.167,3,16S8.832,3,16,3c7.167,0,13,5.832,13,13S23.168,29,16,29z"/>
<path fill="#F59F37" d="M16,28C9.383,28,4,22.617,4,16C4,9.383,9.383,4,16,4c6.617,0,12,5.383,12,12C28,22.617,22.617,28,16,28z"/>
<polygon fill="#FFFFFF" points="16,6 12,10 15,10 15,13 17,13 17,10 20,10 "/>
<polygon fill="#FFFFFF" points="10,15 10,12 6,16 10,20 10,17 13,17 13,15 "/>
<polygon fill="#FFFFFF" points="26,16 22,12 22,15 19,15 19,17 22,17 22,20 "/>
<polygon fill="#FFFFFF" points="17,22 17,19 15,19 15,22 12,22 16,26 20,22 "/>
</svg>
