<?xml version="1.0" encoding="utf-8"?>
<!-- Generator: Adobe Illustrator 16.0.3, SVG Export Plug-In . SVG Version: 6.00 Build 0)  -->
<!DOCTYPE svg PUBLIC "-//W3C//DTD SVG 1.1//EN" "http://www.w3.org/Graphics/SVG/1.1/DTD/svg11.dtd">
<svg version="1.1" id="Wildfire" xmlns="http://www.w3.org/2000/svg" xmlns:xlink="http://www.w3.org/1999/xlink" x="0px" y="0px"
	 width="40px" height="40px" viewBox="0 0 40 40" enable-background="new 0 0 40 40" xml:space="preserve">
<path opacity="0.75" fill="#FFFFFF" d="M34,15.659c0-1.006-0.095-1.984-0.273-2.932c-0.181-0.95-0.457-1.872-0.826-2.764
	c-0.366-0.895-0.799-1.729-1.299-2.508c-0.5-0.778-1.064-1.499-1.697-2.162c-0.637-0.663-1.326-1.257-2.067-1.779
	c-0.745-0.525-1.544-0.981-2.394-1.365c-0.854-0.384-1.736-0.67-2.643-0.862C21.893,1.095,20.96,1,20,1
	c-0.959,0-1.892,0.095-2.798,0.287c-0.908,0.192-1.787,0.479-2.641,0.862c-0.854,0.384-1.652,0.84-2.396,1.365
	C11.422,4.036,10.734,4.63,10.1,5.293C9.467,5.956,8.9,6.677,8.399,7.455C7.9,8.233,7.468,9.068,7.1,9.963
	c-0.367,0.892-0.641,1.814-0.825,2.764C6.091,13.675,6,14.653,6,15.659c0,1.004,0.091,1.981,0.275,2.932s0.458,1.871,0.825,2.767
	c0.316,0.769,0.683,1.498,1.097,2.183c0.417,0.686,0.881,1.326,1.395,1.924H9.588H9.585l5.205,7.269L19.995,40l5.196-7.251
	l5.188-7.247c0.522-0.604,0.993-1.251,1.413-1.94c0.421-0.692,0.792-1.429,1.109-2.204c0.369-0.896,0.646-1.816,0.826-2.767
	C33.905,17.641,34,16.663,34,15.659z"/>
<path fill="#C70101" d="M31.762,13.233c-0.156-0.829-0.395-1.638-0.713-2.414c-0.316-0.782-0.695-1.526-1.131-2.213
	c-0.43-0.678-0.92-1.313-1.455-1.879c-0.551-0.582-1.15-1.103-1.779-1.551c-0.639-0.456-1.334-0.857-2.059-1.19
	c-0.721-0.327-1.475-0.576-2.238-0.739C21.621,3.083,20.818,3,20.001,3c-0.819,0-1.621,0.083-2.386,0.247
	c-0.764,0.163-1.515,0.411-2.231,0.738c-0.732,0.334-1.428,0.735-2.068,1.192c-0.63,0.448-1.225,0.968-1.77,1.546
	c-0.542,0.573-1.034,1.206-1.463,1.885C9.654,9.285,9.272,10.03,8.95,10.824c-0.314,0.772-0.554,1.584-0.711,2.413
	C8.081,14.067,8,14.938,8,15.823c0,0.884,0.081,1.754,0.239,2.587c0.157,0.824,0.396,1.637,0.711,2.414
	c0.277,0.682,0.6,1.332,0.957,1.93c0.358,0.598,0.763,1.162,1.202,1.68l2.368,3.348L19.995,37l8.812-12.463l0.061-0.07
	c0.443-0.52,0.854-1.09,1.213-1.689c0.371-0.619,0.695-1.273,0.973-1.957c0.314-0.773,0.553-1.582,0.709-2.405
	C31.92,17.572,32,16.7,32,15.823C32,14.944,31.92,14.072,31.762,13.233z"/>
<path fill="#FB0101" d="M30.779,13.336c-0.145-0.756-0.363-1.495-0.656-2.203c-0.293-0.72-0.645-1.403-1.047-2.034
	c-0.395-0.617-0.844-1.193-1.334-1.709c-0.506-0.529-1.057-1.005-1.635-1.413c-0.588-0.416-1.225-0.782-1.893-1.086
	c-0.654-0.296-1.34-0.52-2.035-0.667C21.48,4.075,20.748,4,20,4c-0.749,0-1.481,0.075-2.179,0.224
	c-0.694,0.147-1.377,0.371-2.027,0.665c-0.674,0.305-1.313,0.672-1.904,1.09c-0.576,0.406-1.122,0.88-1.622,1.406
	c-0.498,0.521-0.949,1.1-1.344,1.717c-0.396,0.622-0.749,1.307-1.049,2.038c-0.288,0.703-0.509,1.443-0.654,2.202
	C9.074,14.104,9,14.903,9,15.717c0,0.813,0.074,1.611,0.221,2.377c0.145,0.75,0.365,1.492,0.654,2.201
	c0.259,0.633,0.558,1.23,0.887,1.775s0.702,1.061,1.106,1.536l3.556,4.979L19.994,35l7.999-11.223l0.117-0.144
	c0.408-0.473,0.783-0.99,1.115-1.539c0.342-0.565,0.645-1.172,0.902-1.805c0.291-0.705,0.51-1.442,0.652-2.19
	C30.926,17.326,31,16.524,31,15.717C31,14.906,30.926,14.105,30.779,13.336z"/>
<path fill="#FFFFFF" d="M12.765,22.604c-0.13-0.244-0.244-0.483-0.342-0.72s-0.188-0.443-0.269-0.623l-0.244-0.61
	c-0.277-0.472-0.521-0.936-0.732-1.392c-0.212-0.456-0.383-0.993-0.513-1.611c-0.049-0.276-0.085-0.582-0.11-0.916
	c-0.024-0.333-0.037-0.63-0.037-0.891c0-0.13,0-0.252,0-0.366c0-0.13,0.008-0.244,0.024-0.342c0-0.098,0.008-0.195,0.024-0.293
	c0,0.032,0.016,0.065,0.049,0.098c0.016,0.032,0.037,0.069,0.061,0.109c0.024,0.041,0.053,0.094,0.085,0.159
	c0.179,0.358,0.342,0.631,0.488,0.817c0.146,0.188,0.285,0.362,0.415,0.525c0.065,0.081,0.13,0.167,0.195,0.256
	c0.065,0.09,0.138,0.188,0.22,0.293c0.081,0.106,0.191,0.22,0.33,0.342c0.138,0.122,0.321,0.257,0.549,0.403
	c0.439,0.358,0.789,0.61,1.05,0.757c0.065,0.032,0.118,0.061,0.159,0.085c0.041,0.024,0.077,0.045,0.11,0.062
	c0.032,0.032,0.057,0.049,0.073,0.049v-0.244c-0.033-0.049-0.053-0.105-0.061-0.171c-0.008-0.065-0.037-0.122-0.085-0.171
	c-0.098-0.195-0.2-0.407-0.305-0.635c-0.106-0.228-0.204-0.443-0.293-0.647c-0.09-0.203-0.167-0.378-0.232-0.524
	c-0.065-0.146-0.106-0.244-0.122-0.293c-0.033-0.049-0.065-0.135-0.098-0.257c-0.033-0.122-0.065-0.26-0.098-0.415
	c-0.033-0.154-0.069-0.313-0.11-0.476c-0.041-0.163-0.069-0.317-0.085-0.464v-0.488c0-0.31,0.012-0.614,0.037-0.916
	c0.024-0.301,0.061-0.549,0.11-0.744c0.032-0.146,0.077-0.306,0.134-0.477c0.057-0.171,0.126-0.329,0.208-0.476l0.269-0.537
	c0.032,0.032,0.065,0.081,0.098,0.146c0.065,0.13,0.098,0.244,0.098,0.342c0.032,0.228,0.089,0.468,0.171,0.72
	c0.081,0.253,0.187,0.533,0.317,0.843c0.163,0.293,0.33,0.558,0.5,0.793c0.171,0.236,0.321,0.42,0.452,0.55
	c0.065,0.049,0.118,0.09,0.159,0.122c0.041,0.032,0.089,0.073,0.146,0.122c0.057,0.049,0.13,0.105,0.22,0.171
	c0.089,0.065,0.215,0.146,0.378,0.244c0.13,0.081,0.244,0.163,0.342,0.244s0.187,0.163,0.269,0.244l0.244,0.244v-0.342
	c0.032-0.049,0.049-0.098,0.049-0.146c0-0.065,0-0.114,0-0.146v-0.366c0-0.244-0.021-0.501-0.061-0.77
	c-0.041-0.269-0.102-0.524-0.183-0.769c-0.13-0.31-0.249-0.574-0.354-0.794c-0.106-0.22-0.175-0.402-0.208-0.549
	c-0.049-0.13-0.11-0.285-0.183-0.464s-0.11-0.358-0.11-0.537l0.049-0.366c0.049-0.146,0.15-0.313,0.305-0.501
	c0.154-0.187,0.321-0.386,0.5-0.598l1.05-1.392c0.146-0.212,0.301-0.415,0.464-0.61c0.163-0.195,0.309-0.407,0.439-0.635
	c0.228-0.391,0.391-0.757,0.488-1.099c0.049-0.228,0.11-0.419,0.183-0.574c0.073-0.154,0.15-0.231,0.232-0.231
	c0.049,0,0.102,0.102,0.159,0.305c0.057,0.204,0.085,0.42,0.085,0.647c0,0.081-0.008,0.171-0.024,0.269
	c-0.017,0.098-0.041,0.171-0.073,0.22c-0.049,0.212-0.122,0.436-0.22,0.671c-0.098,0.236-0.212,0.484-0.342,0.745
	c-0.13,0.244-0.252,0.513-0.366,0.806c-0.114,0.293-0.171,0.554-0.171,0.781l-0.049,0.562c0,0.13,0.012,0.269,0.037,0.415
	s0.061,0.269,0.11,0.366c0.081,0.212,0.167,0.378,0.256,0.5c0.089,0.122,0.15,0.208,0.183,0.257l0.342,0.293
	c0.016,0.017,0.032,0.024,0.049,0.024c0.016,0.017,0.057,0.024,0.122,0.024c0.032,0,0.069-0.004,0.11-0.013
	c0.041-0.008,0.102-0.053,0.183-0.134c0.13-0.098,0.293-0.244,0.488-0.439s0.317-0.398,0.366-0.61
	c0.098-0.244,0.179-0.509,0.244-0.794c0.065-0.284,0.098-0.549,0.098-0.793c-0.017-0.065-0.024-0.13-0.024-0.195
	c-0.017-0.065-0.024-0.13-0.024-0.195s0-0.139,0-0.22c0-0.049,0-0.105,0-0.171c0-0.081,0.017-0.122,0.049-0.122
	c0.049,0,0.114,0.065,0.195,0.195c0.179,0.228,0.354,0.464,0.524,0.708c0.172,0.244,0.297,0.439,0.379,0.586
	c0.081,0.163,0.211,0.334,0.391,0.513c0.179,0.179,0.269,0.358,0.269,0.537v0.317c0,0.146-0.009,0.289-0.024,0.427
	c-0.017,0.139-0.073,0.313-0.171,0.525c-0.114,0.293-0.2,0.537-0.257,0.732s-0.109,0.383-0.158,0.562s-0.102,0.354-0.158,0.524
	c-0.058,0.171-0.086,0.362-0.086,0.574v0.391c0.016,0.114,0.045,0.224,0.086,0.329c0.04,0.106,0.085,0.208,0.134,0.306
	c0.065,0.114,0.122,0.22,0.171,0.317c0.195-0.179,0.398-0.358,0.61-0.537c0.179-0.163,0.374-0.35,0.586-0.562
	s0.407-0.447,0.586-0.708c0.179-0.244,0.342-0.525,0.488-0.843s0.269-0.614,0.366-0.891c0.113-0.325,0.22-0.659,0.317-1.001
	c0.081,0.228,0.154,0.439,0.22,0.635c0.049,0.179,0.098,0.358,0.146,0.537s0.081,0.334,0.098,0.464c0,0.114,0.008,0.24,0.024,0.378
	c0.017,0.139,0.024,0.298,0.024,0.477c0,0.31-0.017,0.627-0.049,0.952c-0.033,0.325-0.105,0.643-0.22,0.952
	c-0.13,0.472-0.231,0.817-0.306,1.037c-0.072,0.22-0.134,0.46-0.183,0.721c-0.032,0.098-0.058,0.203-0.073,0.317
	c-0.017,0.114-0.024,0.22-0.024,0.317c0,0.195,0.008,0.325,0.024,0.391c0,0.065,0.008,0.122,0.024,0.171
	c0.163-0.114,0.317-0.228,0.464-0.342c0.276-0.195,0.504-0.366,0.684-0.513c0.146-0.146,0.301-0.31,0.464-0.488
	s0.31-0.366,0.439-0.562c0.13-0.146,0.261-0.317,0.391-0.513s0.252-0.391,0.366-0.586c0.049-0.098,0.102-0.208,0.158-0.33
	s0.11-0.239,0.159-0.354c0.065-0.13,0.122-0.269,0.171-0.415l0.244-0.562l0.195,1.05c0,0.114,0.008,0.236,0.024,0.366
	c0,0.114,0.004,0.236,0.013,0.366C28.996,15.557,29,15.695,29,15.842c0,0.163,0,0.317,0,0.464c0,0.13-0.017,0.261-0.049,0.391
	c-0.049,0.407-0.118,0.96-0.207,1.66c-0.09,0.7-0.298,1.465-0.623,2.295c-0.18,0.407-0.366,0.822-0.562,1.245
	c-0.179,0.358-0.383,0.744-0.61,1.16c-0.229,0.414-0.48,0.801-0.757,1.159c-0.276,0.374-0.627,0.749-1.05,1.123
	c-0.424,0.374-0.83,0.716-1.221,1.025c-0.456,0.358-0.928,0.708-1.416,1.05h2.002L23.922,28h-2.905L21,25h4l-3-4h2l-3-3h2l-3-4l-3,4
	h2l-3,3h2l-3,4h4l-0.083,3h-2.905l-0.61-0.586h1.904c-0.31-0.244-0.619-0.496-0.928-0.757c-0.277-0.228-0.574-0.479-0.891-0.757
	c-0.317-0.276-0.623-0.562-0.916-0.854c-0.163-0.146-0.322-0.293-0.476-0.439c-0.155-0.146-0.281-0.301-0.378-0.464L12.765,22.604z"
	/>
</svg>
