<?xml version="1.0" encoding="utf-8"?>
<!-- Generator: Adobe Illustrator 16.0.3, SVG Export Plug-In . SVG Version: 6.00 Build 0)  -->
<!DOCTYPE svg PUBLIC "-//W3C//DTD SVG 1.1//EN" "http://www.w3.org/Graphics/SVG/1.1/DTD/svg11.dtd">
<svg version="1.1" id="Wildlife_Management_Locations"
	 xmlns="http://www.w3.org/2000/svg" xmlns:xlink="http://www.w3.org/1999/xlink" x="0px" y="0px" width="40px" height="40px"
	 viewBox="0 0 40 40" enable-background="new 0 0 40 40" xml:space="preserve">
<path opacity="0.75" fill="#FFFFFF" enable-background="new    " d="M34,15.659c0-1.006-0.093-1.983-0.273-2.933
	c-0.182-0.949-0.456-1.872-0.826-2.764c-0.365-0.894-0.799-1.729-1.299-2.507c-0.499-0.779-1.064-1.5-1.696-2.162
	c-0.638-0.663-1.326-1.257-2.069-1.78c-0.744-0.524-1.542-0.979-2.393-1.364c-0.855-0.384-1.736-0.671-2.643-0.862
	C21.893,1.095,20.961,1,20.001,1s-1.893,0.095-2.798,0.287c-0.908,0.191-1.788,0.479-2.641,0.862
	c-0.854,0.385-1.652,0.84-2.396,1.364c-0.744,0.522-1.432,1.117-2.064,1.78C9.467,5.956,8.9,6.677,8.4,7.456
	c-0.5,0.778-0.932,1.613-1.3,2.507c-0.367,0.892-0.642,1.814-0.825,2.764C6.092,13.676,6,14.653,6,15.659
	c0,1.004,0.092,1.982,0.275,2.932c0.183,0.95,0.458,1.871,0.825,2.765c0.316,0.77,0.683,1.499,1.098,2.184
	c0.416,0.685,0.881,1.326,1.395,1.924H9.589H9.585l5.205,7.268L19.995,40l5.194-7.252l5.189-7.247
	c0.521-0.603,0.992-1.25,1.412-1.939c0.42-0.692,0.792-1.428,1.109-2.205c0.37-0.895,0.645-1.815,0.826-2.765
	C33.907,17.641,34,16.664,34,15.659z"/>
<path fill="#725132" d="M31.762,13.233c-0.156-0.829-0.395-1.637-0.713-2.414c-0.315-0.782-0.695-1.526-1.131-2.213
	c-0.429-0.678-0.92-1.312-1.454-1.879c-0.552-0.582-1.15-1.103-1.779-1.551c-0.639-0.456-1.334-0.857-2.06-1.19
	c-0.721-0.328-1.474-0.576-2.237-0.74C21.621,3.083,20.818,3,20.001,3c-0.819,0-1.621,0.083-2.386,0.247
	c-0.764,0.164-1.515,0.412-2.231,0.738c-0.732,0.334-1.428,0.735-2.068,1.193c-0.63,0.448-1.225,0.967-1.77,1.546
	c-0.542,0.573-1.034,1.206-1.462,1.884c-0.429,0.677-0.811,1.422-1.133,2.216c-0.314,0.773-0.554,1.584-0.711,2.413
	C8.081,14.068,8,14.938,8,15.823c0,0.884,0.081,1.754,0.239,2.586c0.157,0.825,0.396,1.637,0.711,2.415
	c0.277,0.682,0.6,1.332,0.957,1.93c0.359,0.598,0.763,1.162,1.203,1.68l2.368,3.348L19.995,37l8.812-12.463l0.061-0.07
	c0.444-0.52,0.854-1.09,1.214-1.689c0.371-0.619,0.695-1.273,0.973-1.957c0.313-0.773,0.553-1.582,0.708-2.405
	C31.92,17.572,32,16.701,32,15.823C32,14.944,31.92,14.072,31.762,13.233z"/>
<path fill="#9D7241" d="M30.779,13.336c-0.145-0.755-0.363-1.495-0.656-2.203c-0.293-0.72-0.645-1.403-1.047-2.034
	c-0.395-0.618-0.844-1.194-1.334-1.709c-0.506-0.529-1.057-1.005-1.635-1.413c-0.588-0.416-1.225-0.782-1.893-1.085
	c-0.654-0.296-1.34-0.52-2.035-0.667C21.48,4.076,20.748,4,20,4c-0.749,0-1.482,0.076-2.179,0.224
	c-0.695,0.148-1.377,0.371-2.027,0.665c-0.674,0.305-1.314,0.672-1.904,1.09c-0.577,0.407-1.122,0.88-1.623,1.407
	c-0.498,0.521-0.949,1.099-1.343,1.717c-0.397,0.622-0.75,1.306-1.049,2.038c-0.288,0.703-0.509,1.443-0.655,2.202
	C9.074,14.104,9,14.903,9,15.717c0,0.813,0.074,1.612,0.221,2.377c0.144,0.75,0.365,1.492,0.654,2.201
	c0.259,0.633,0.557,1.23,0.887,1.775c0.329,0.545,0.702,1.061,1.106,1.536l3.555,4.979L19.994,35l7.998-11.223l0.117-0.144
	c0.408-0.473,0.783-0.99,1.115-1.539c0.342-0.565,0.645-1.172,0.902-1.805c0.291-0.705,0.51-1.442,0.652-2.19
	C30.926,17.327,31,16.525,31,15.717C31,14.907,30.926,14.106,30.779,13.336z"/>
<path fill="#FFFFFF" d="M25.64,15.521c0.049-0.16,0.08-0.324,0.096-0.492s0.024-0.34,0.024-0.516c0-0.128-0.056-0.228-0.168-0.3
	c-0.112-0.072-0.216-0.108-0.312-0.108h-0.096c-0.033,0.128-0.049,0.24-0.049,0.336c-0.128,0-0.225,0.048-0.288,0.144
	c0.032,0.208-0.017,0.396-0.144,0.564c-0.129,0.168-0.264,0.316-0.408,0.444c-0.016,0.016-0.064,0.024-0.145,0.024
	c-0.031,0-0.107-0.048-0.228-0.144s-0.212-0.152-0.276-0.168c-0.224-0.08-0.443-0.156-0.66-0.228
	c-0.215-0.072-0.436-0.108-0.659-0.108c-0.24,0-0.477,0.008-0.708,0.024c-0.232,0.016-0.469,0.024-0.708,0.024
	c-0.288-0.048-0.528-0.072-0.72-0.072s-0.364,0.012-0.516,0.036c-0.152,0.024-0.288,0.048-0.408,0.072
	c-0.12,0.024-0.244,0.036-0.372,0.036c-0.064,0-0.172-0.008-0.324-0.024c-0.152-0.016-0.304-0.048-0.456-0.096
	s-0.288-0.112-0.408-0.192s-0.18-0.176-0.18-0.288c0.112-0.32,0.24-0.68,0.384-1.08c0.144-0.4,0.216-0.784,0.216-1.152
	c0-0.032-0.004-0.104-0.012-0.216c-0.008-0.112-0.012-0.192-0.012-0.24c0-0.032,0.04-0.056,0.12-0.072
	c0.08-0.016,0.168-0.04,0.264-0.072c0.096-0.032,0.184-0.076,0.264-0.132c0.08-0.056,0.12-0.147,0.12-0.276
	c0-0.112-0.041-0.216-0.12-0.312c-0.08-0.096-0.184-0.144-0.312-0.144c-0.128,0.048-0.304,0.12-0.528,0.216l-0.024-0.024
	c0.128-0.176,0.28-0.308,0.456-0.396c0.176-0.088,0.304-0.244,0.384-0.468c0.304,0.048,0.596,0.021,0.876-0.084
	c0.28-0.104,0.524-0.252,0.732-0.444c0.08-0.128,0.191-0.212,0.336-0.252s0.216-0.132,0.216-0.276c0-0.096-0.036-0.184-0.108-0.264
	c-0.071-0.08-0.164-0.12-0.275-0.12c-0.128,0-0.264,0.076-0.408,0.228c-0.144,0.152-0.264,0.252-0.36,0.3
	c-0.096,0.112-0.216,0.18-0.36,0.204s-0.264,0.076-0.36,0.156c-0.064-0.112-0.033-0.236,0.096-0.372
	c0.128-0.136,0.224-0.244,0.288-0.324c0.032-0.063,0.052-0.124,0.06-0.18c0.008-0.056,0.028-0.1,0.06-0.132
	c0.096-0.128,0.208-0.256,0.336-0.384c0.128-0.128,0.248-0.256,0.36-0.384c0.112-0.128,0.208-0.264,0.288-0.408
	s0.12-0.304,0.12-0.48c0-0.112-0.04-0.224-0.12-0.336s-0.184-0.168-0.312-0.168c-0.064,0-0.108,0.028-0.132,0.084
	c-0.024,0.056-0.044,0.12-0.06,0.192c-0.016,0.072-0.036,0.14-0.06,0.204S19.88,6.985,19.832,7c-0.081-0.063-0.144-0.164-0.192-0.3
	c-0.048-0.136-0.096-0.268-0.144-0.396c-0.048-0.128-0.108-0.24-0.18-0.336c-0.072-0.096-0.18-0.144-0.324-0.144
	c-0.08,0-0.148,0.06-0.204,0.18c-0.057,0.12-0.084,0.22-0.084,0.3c0,0.24,0.036,0.484,0.108,0.732
	c0.072,0.248,0.076,0.5,0.012,0.756c-0.096,0.464-0.216,0.833-0.36,1.104c-0.144,0.272-0.376,0.584-0.696,0.936
	c-0.096,0.112-0.184,0.216-0.264,0.312c-0.08,0.096-0.176,0.184-0.288,0.264c-0.16-0.032-0.32-0.064-0.48-0.096
	c-0.16-0.032-0.32-0.008-0.48,0.072c-0.32,0.176-0.612,0.392-0.876,0.648s-0.524,0.512-0.78,0.768
	c-0.048,0.048-0.125,0.088-0.228,0.12c-0.104,0.032-0.172,0.064-0.204,0.096c-0.032,0.048-0.068,0.1-0.108,0.156
	C14.02,12.229,14,12.297,14,12.376c0,0.081,0.032,0.18,0.096,0.3s0.152,0.18,0.264,0.18c0.192,0,0.396-0.027,0.612-0.084
	c0.216-0.056,0.444-0.084,0.684-0.084h0.432c0.08,0,0.136,0.044,0.168,0.132c0.032,0.088,0.048,0.172,0.048,0.252
	c0,0.272-0.064,0.5-0.192,0.684c-0.128,0.184-0.232,0.404-0.312,0.66c-0.176,0.144-0.324,0.328-0.444,0.552
	s-0.224,0.468-0.312,0.732c-0.088,0.264-0.152,0.536-0.192,0.816c-0.041,0.28-0.06,0.532-0.06,0.756
	c0,0.272,0.056,0.504,0.168,0.696c0.112,0.192,0.248,0.368,0.408,0.528c0.16,0.16,0.324,0.32,0.492,0.48
	c0.168,0.16,0.316,0.336,0.444,0.528c0.128,0.128,0.216,0.212,0.264,0.252s0.072,0.164,0.072,0.372c0,0.24-0.008,0.504-0.024,0.792
	s-0.052,0.584-0.108,0.888c-0.056,0.305-0.132,0.596-0.228,0.876c-0.096,0.28-0.224,0.532-0.384,0.756
	c-0.112,0.144-0.232,0.292-0.36,0.444s-0.304,0.252-0.528,0.3v0.12c0,0.096,0.028,0.191,0.084,0.288
	c0.056,0.096,0.148,0.144,0.276,0.144c0.032,0,0.064-0.012,0.096-0.035c0.032-0.024,0.064-0.037,0.096-0.037
	c0.032,0,0.063,0.017,0.096,0.049s0.08,0.048,0.144,0.048c0.128,0,0.256-0.052,0.384-0.156c0.127-0.104,0.252-0.228,0.372-0.372
	c0.12-0.144,0.228-0.291,0.324-0.443s0.184-0.276,0.264-0.373c0.16-0.255,0.288-0.523,0.384-0.803
	c0.096-0.28,0.176-0.564,0.24-0.853c0.063-0.288,0.128-0.571,0.192-0.853c0.063-0.279,0.144-0.563,0.24-0.852
	c0.016-0.016,0.064-0.096,0.144-0.24c0.08-0.144,0.136-0.216,0.168-0.216c0.144-0.079,0.308-0.108,0.492-0.084
	c0.184,0.024,0.356,0.021,0.516-0.012c0.272-0.064,0.536-0.144,0.792-0.24s0.512-0.144,0.768-0.144c0.079,0,0.144,0.021,0.192,0.06
	c0.047,0.04,0.104,0.068,0.168,0.084c0.367,0.128,0.688,0.32,0.959,0.576c0.272,0.256,0.545,0.513,0.816,0.769
	c0.08,0.063,0.184,0.188,0.313,0.371c0.127,0.184,0.191,0.332,0.191,0.444c0,0.063-0.016,0.236-0.048,0.516
	c-0.032,0.28-0.08,0.576-0.144,0.888c-0.064,0.313-0.137,0.597-0.217,0.853c-0.08,0.257-0.168,0.384-0.264,0.384
	c-0.08,0.08-0.188,0.152-0.324,0.217c-0.136,0.063-0.203,0.16-0.203,0.287c0,0.112,0.023,0.213,0.071,0.301S22.728,25,22.856,25
	c0.079,0,0.207-0.039,0.383-0.119s0.28-0.16,0.313-0.24c0.032-0.128,0.096-0.22,0.191-0.275c0.097-0.057,0.185-0.133,0.265-0.229
	c0.112-0.4,0.204-0.708,0.276-0.924c0.072-0.217,0.132-0.404,0.18-0.564s0.096-0.313,0.145-0.455
	c0.047-0.145,0.111-0.337,0.191-0.576c0.048-0.129,0.107-0.248,0.18-0.36s0.108-0.24,0.108-0.384c0-0.129-0.063-0.264-0.192-0.408
	c-0.128-0.145-0.256-0.256-0.384-0.336c-0.063-0.049-0.155-0.128-0.276-0.24c-0.119-0.111-0.115-0.232,0.013-0.359
	c0.048-0.049,0.112-0.125,0.192-0.229c0.079-0.104,0.159-0.212,0.239-0.324c0.08-0.112,0.151-0.22,0.216-0.324
	s0.104-0.188,0.121-0.252c0.079-0.224,0.146-0.456,0.203-0.696c0.057-0.24,0.084-0.472,0.084-0.696c0-0.128-0.016-0.256-0.048-0.384
	c-0.032-0.128-0.048-0.255-0.048-0.384c0-0.096,0.02-0.172,0.061-0.228c0.039-0.056,0.084-0.108,0.131-0.156
	c0.049-0.048,0.097-0.096,0.145-0.144C25.592,15.665,25.624,15.601,25.64,15.521z"/>
</svg>
