<?xml version="1.0" encoding="utf-8"?>
<!-- Generator: Adobe Illustrator 16.0.3, SVG Export Plug-In . SVG Version: 6.00 Build 0)  -->
<!DOCTYPE svg PUBLIC "-//W3C//DTD SVG 1.1//EN" "http://www.w3.org/Graphics/SVG/1.1/DTD/svg11.dtd">
<svg version="1.1" id="Winter_Storm" xmlns="http://www.w3.org/2000/svg" xmlns:xlink="http://www.w3.org/1999/xlink" x="0px"
	 y="0px" width="40px" height="40px" viewBox="0 0 40 40" enable-background="new 0 0 40 40" xml:space="preserve">
<path opacity="0.75" fill="#FFFFFF" d="M34,15.659c0-1.006-0.095-1.984-0.273-2.932c-0.181-0.95-0.457-1.872-0.826-2.764
	c-0.366-0.895-0.799-1.729-1.299-2.508c-0.5-0.778-1.064-1.499-1.697-2.162c-0.637-0.663-1.326-1.257-2.067-1.779
	c-0.745-0.525-1.544-0.981-2.394-1.365c-0.854-0.384-1.736-0.67-2.643-0.862C21.893,1.095,20.96,1,20,1
	c-0.959,0-1.892,0.095-2.798,0.287c-0.908,0.192-1.787,0.479-2.641,0.862c-0.854,0.384-1.652,0.84-2.396,1.365
	C11.422,4.036,10.734,4.63,10.1,5.293C9.467,5.956,8.9,6.677,8.399,7.455C7.9,8.233,7.468,9.068,7.1,9.963
	c-0.367,0.892-0.641,1.814-0.825,2.764C6.091,13.675,6,14.653,6,15.659c0,1.004,0.091,1.981,0.275,2.932s0.458,1.871,0.825,2.767
	c0.316,0.769,0.683,1.498,1.097,2.183c0.417,0.686,0.881,1.326,1.395,1.924H9.588H9.585l5.205,7.269L19.995,40l5.196-7.251
	l5.188-7.247c0.522-0.604,0.993-1.251,1.413-1.94c0.421-0.692,0.792-1.429,1.109-2.204c0.369-0.896,0.646-1.816,0.826-2.767
	C33.905,17.641,34,16.663,34,15.659z"/>
<path fill="#2675A3" d="M31.762,13.233c-0.156-0.829-0.395-1.638-0.713-2.414c-0.316-0.782-0.695-1.526-1.131-2.213
	c-0.43-0.678-0.92-1.313-1.455-1.879c-0.551-0.582-1.15-1.103-1.779-1.551c-0.639-0.456-1.334-0.857-2.059-1.19
	c-0.721-0.327-1.475-0.576-2.238-0.739C21.621,3.083,20.818,3,20.001,3c-0.819,0-1.621,0.083-2.386,0.247
	c-0.764,0.163-1.515,0.411-2.231,0.738c-0.732,0.334-1.428,0.735-2.068,1.192c-0.63,0.448-1.225,0.968-1.77,1.546
	c-0.542,0.573-1.034,1.206-1.463,1.885C9.654,9.285,9.272,10.03,8.95,10.824c-0.314,0.772-0.554,1.584-0.711,2.413
	C8.081,14.067,8,14.938,8,15.823c0,0.884,0.081,1.754,0.239,2.587c0.157,0.824,0.396,1.637,0.711,2.414
	c0.277,0.682,0.6,1.332,0.957,1.93c0.358,0.598,0.763,1.162,1.202,1.68l2.368,3.348L19.995,37l8.812-12.463l0.061-0.07
	c0.443-0.52,0.854-1.09,1.213-1.689c0.371-0.619,0.695-1.273,0.973-1.957c0.314-0.773,0.553-1.582,0.709-2.405
	C31.92,17.572,32,16.7,32,15.823C32,14.944,31.92,14.072,31.762,13.233z"/>
<path fill="#319AD6" d="M30.779,13.336c-0.145-0.756-0.363-1.495-0.656-2.203c-0.293-0.72-0.645-1.403-1.047-2.034
	c-0.395-0.617-0.844-1.193-1.334-1.709c-0.506-0.529-1.057-1.005-1.635-1.413c-0.588-0.416-1.225-0.782-1.893-1.086
	c-0.654-0.296-1.34-0.52-2.035-0.667C21.48,4.075,20.748,4,20,4c-0.749,0-1.481,0.075-2.179,0.224
	c-0.694,0.147-1.377,0.371-2.027,0.665c-0.674,0.305-1.313,0.672-1.904,1.09c-0.576,0.406-1.122,0.88-1.622,1.406
	c-0.498,0.521-0.949,1.1-1.344,1.717c-0.396,0.622-0.749,1.307-1.049,2.038c-0.288,0.703-0.509,1.443-0.654,2.202
	C9.074,14.104,9,14.903,9,15.717c0,0.813,0.074,1.611,0.221,2.377c0.145,0.75,0.365,1.492,0.654,2.201
	c0.259,0.633,0.558,1.23,0.887,1.775s0.702,1.061,1.106,1.536l3.556,4.979L19.994,35l7.998-11.223l0.117-0.144
	c0.408-0.473,0.783-0.99,1.115-1.539c0.342-0.565,0.645-1.172,0.902-1.805c0.291-0.705,0.51-1.442,0.652-2.19
	C30.926,17.326,31,16.524,31,15.717C31,14.906,30.926,14.105,30.779,13.336z"/>
<path fill="#FFFFFF" d="M26.882,12.45c-0.029-0.105-0.063-0.209-0.1-0.312v-0.012h-0.005c-0.502-1.358-1.782-2.325-3.287-2.325
	c-0.423,0-0.827,0.08-1.201,0.22C21.679,8.262,20.038,7,18.106,7c-2.203,0-4.031,1.644-4.376,3.796h-0.001v0.005
	c-0.038,0.24-0.059,0.485-0.059,0.736h0.059v0.003c-0.02-0.001-0.039-0.003-0.059-0.003c-1.475,0-2.67,1.222-2.67,2.731
	C11,15.776,12.195,17,13.67,17h2.802h1.595h3.733h1.602h3.38v-0.001C28.007,16.993,29,15.977,29,14.722
	C29,13.501,28.061,12.508,26.882,12.45z"/>
<path fill="#FFFFFF" d="M15.088,20.874l0.224,0.333h0.418l0.193-0.333l-0.204-0.356h-0.418L15.088,20.874z M15.26,23.558v-0.756
	l-0.419,0.239l-0.213-0.124v-0.266l0.621-0.355V21.8l-0.451,0.291v-0.525l-0.43,0.25v0.713l-0.236,0.146l-0.199-0.133v-0.477
	l-0.653,0.371L13,22.317v-0.3l0.686-0.378l-0.429-0.218v-0.276l0.243-0.133l0.616,0.364l0.427-0.249l-0.01-0.006l-0.438-0.253
	l0.425-0.265l-0.426-0.25l-0.616,0.365l-0.23-0.115v-0.276l0.416-0.235L13,19.729v-0.3l0.255-0.134l0.655,0.382v-0.486l0.198-0.135
	l0.242,0.141l-0.001,0.728l0.44,0.252l-0.002-0.513l0.462,0.251v-0.497l-0.621-0.356v-0.263l0.213-0.124l0.419,0.237v-0.754
	l0.24-0.159l0.241,0.159v0.754l0.434-0.242l0.219,0.145v0.237l-0.643,0.366v0.497l0.439-0.271v0.54l0.453-0.248v-0.777l0.218-0.103
	l0.229,0.103v0.497l0.675-0.367L18,19.435v0.281l-0.658,0.376l0.412,0.232v0.269l-0.213,0.119l-0.632-0.377l-0.437,0.279
	l0.422,0.266l-0.435,0.252l0.45,0.238l0.632-0.355l0.203,0.144v0.257l-0.397,0.225l0.631,0.378v0.296l-0.266,0.123l-0.621-0.355
	v0.47l-0.223,0.126l-0.219-0.126v-0.714l-0.458-0.264v0.496L15.75,21.8v0.496l0.621,0.355v0.281l-0.214,0.108l-0.417-0.239v0.756
	l-0.242,0.156L15.26,23.558z"/>
<path fill="#FFFFFF" d="M23.088,21.16l0.224,0.333h0.419l0.193-0.333l-0.205-0.356h-0.418L23.088,21.16z M23.26,23.844v-0.756
	l-0.419,0.239l-0.214-0.124v-0.266l0.621-0.355v-0.496l-0.45,0.291v-0.525l-0.431,0.25v0.713l-0.235,0.146l-0.199-0.133v-0.477
	l-0.653,0.371L21,22.604v-0.3l0.686-0.378l-0.428-0.218v-0.276l0.242-0.133l0.615,0.364l0.428-0.249l-0.01-0.006l-0.438-0.253
	l0.424-0.265l-0.426-0.25l-0.615,0.365l-0.23-0.115v-0.276l0.416-0.235L21,20.016v-0.3l0.255-0.134l0.655,0.382v-0.486l0.197-0.135
	l0.242,0.141l-0.002,0.728l0.44,0.252l-0.002-0.513l0.462,0.251v-0.497l-0.621-0.356v-0.263l0.213-0.124l0.42,0.237v-0.754
	l0.239-0.159l0.241,0.159v0.754l0.434-0.242l0.219,0.145v0.237l-0.643,0.366v0.497l0.439-0.271v0.54l0.453-0.248v-0.777l0.217-0.103
	l0.23,0.103v0.497l0.675-0.367L26,19.721v0.281l-0.658,0.376l0.412,0.232v0.269l-0.214,0.119l-0.632-0.377L24.471,20.9l0.422,0.266
	l-0.435,0.252l0.45,0.238l0.632-0.355l0.203,0.144v0.257l-0.397,0.225l0.631,0.378V22.6l-0.266,0.123l-0.621-0.355v0.47
	l-0.223,0.126l-0.219-0.126v-0.714l-0.459-0.264v0.496l-0.439-0.27v0.496l0.621,0.355v0.281l-0.213,0.108l-0.418-0.239v0.756
	L23.499,24L23.26,23.844z"/>
<path fill="#FFFFFF" d="M19.088,27.16l0.224,0.333h0.418l0.193-0.333l-0.204-0.356h-0.418L19.088,27.16z M19.26,29.844v-0.756
	l-0.419,0.239l-0.213-0.124v-0.266l0.621-0.355v-0.496l-0.451,0.291v-0.525l-0.43,0.25v0.713l-0.236,0.146l-0.199-0.133v-0.477
	l-0.653,0.371L17,28.604v-0.3l0.686-0.378l-0.429-0.218v-0.276l0.243-0.133l0.616,0.364l0.427-0.249l-0.01-0.006l-0.438-0.253
	l0.425-0.265l-0.426-0.25l-0.616,0.365l-0.23-0.115v-0.276l0.416-0.235L17,26.016v-0.3l0.255-0.134l0.655,0.382v-0.485l0.198-0.135
	l0.242,0.141l-0.001,0.727l0.44,0.252l-0.002-0.513l0.462,0.251v-0.496l-0.621-0.357v-0.263l0.213-0.124l0.419,0.237v-0.754
	l0.24-0.159l0.241,0.159v0.754l0.434-0.242l0.219,0.146v0.236l-0.643,0.367v0.496l0.439-0.271v0.54l0.453-0.248v-0.777l0.218-0.102
	l0.23,0.102v0.498l0.675-0.367L22,25.721v0.281l-0.658,0.376l0.412,0.232v0.269l-0.214,0.119l-0.632-0.377L20.471,26.9l0.422,0.266
	l-0.435,0.252l0.45,0.238l0.632-0.355l0.203,0.144v0.257l-0.397,0.225l0.631,0.378V28.6l-0.266,0.123l-0.621-0.355v0.47
	l-0.222,0.126l-0.219-0.126v-0.714l-0.458-0.264v0.496l-0.439-0.27v0.496l0.621,0.355v0.281l-0.214,0.108l-0.417-0.239v0.756
	L19.499,30L19.26,29.844z"/>
</svg>
