<?xml version="1.0" encoding="utf-8"?>
<!-- Generator: Adobe Illustrator 16.0.3, SVG Export Plug-In . SVG Version: 6.00 Build 0)  -->
<!DOCTYPE svg PUBLIC "-//W3C//DTD SVG 1.1//EN" "http://www.w3.org/Graphics/SVG/1.1/DTD/svg11.dtd">
<svg version="1.1" id="Work_Zones_-_Inactive" xmlns="http://www.w3.org/2000/svg" xmlns:xlink="http://www.w3.org/1999/xlink"
	 x="0px" y="0px" width="32px" height="32px" viewBox="0 0 32 32" enable-background="new 0 0 32 32" xml:space="preserve">
<circle fill="#FFFFFF" cx="16" cy="16" r="15"/>
<path fill="#58595B" d="M16,29C8.832,29,3,23.167,3,16S8.832,3,16,3c7.167,0,13,5.832,13,13S23.168,29,16,29z"/>
<path fill="#6D6E70" d="M16,28C9.383,28,4,22.617,4,16C4,9.383,9.383,4,16,4c6.617,0,12,5.383,12,12C28,22.617,22.617,28,16,28z"/>
<polygon fill="#FFFFFF" points="10.256,12.751 10.784,13.184 11.312,11.647 "/>
<path fill="#FFFFFF" d="M14,9c-0.554,0-1.025-0.189-1.415-0.568C12.195,8.054,12,7.585,12,7.024c0-0.559,0.195-1.037,0.586-1.432
	C12.976,5.198,13.447,5,14,5c0.552,0,1.024,0.198,1.414,0.593C15.805,5.988,16,6.465,16,7.024c0,0.561-0.195,1.029-0.585,1.408
	C15.025,8.811,14.553,9,14,9z"/>
<path fill="#FFFFFF" d="M22.393,19.695c-0.16-0.031-0.289-0.055-0.385-0.072c-0.096-0.016-0.16-0.023-0.191-0.023
	c-0.449,0-0.824,0.145-1.129,0.432c-0.303,0.289-0.455,0.641-0.455,1.057c0,0.128,0.031,0.32,0.096,0.576l0.527,1.439l-4.367-3.6
	l-1.2-9.168c-0.064,0.032-0.176,0.048-0.336,0.048h-0.288c-0.48,0-0.84-0.08-1.08-0.24c-0.24-0.16-0.424-0.304-0.552-0.432
	l-0.048-0.048L9,13.936l1.68,1.536l-0.384,0.864V26h1.248l0.576-6.784l1.392,2.353V26h1.296v-5.44l-0.768-2.208l4.608,3.793
	l-1.68,3.744h4.944l4.848-4.896L22.393,19.695z M13.52,17.096l0.672-2.64l0.672,3.744L13.52,17.096z"/>
</svg>
