<?xml version="1.0" encoding="utf-8"?>
<!-- Generator: Adobe Illustrator 16.0.3, SVG Export Plug-In . SVG Version: 6.00 Build 0)  -->
<!DOCTYPE svg PUBLIC "-//W3C//DTD SVG 1.1//EN" "http://www.w3.org/Graphics/SVG/1.1/DTD/svg11.dtd">
<svg version="1.1" id="Address_Verified_-_Yes" xmlns="http://www.w3.org/2000/svg" xmlns:xlink="http://www.w3.org/1999/xlink"
	 x="0px" y="0px" width="44px" height="44px" viewBox="0 0 44 44" enable-background="new 0 0 44 44" xml:space="preserve">
<circle fill="#FFFFFF" cx="22" cy="22" r="22"/>
<g id="Green_-_Completed_16_">
	<path fill="#00984E" d="M22.001,42C10.972,42,2,33.027,2,22C2,10.972,10.972,2,22.001,2C33.026,2,42,10.972,42,22
		C42,33.026,33.026,42,22.001,42z"/>
	<path fill="#00BF63" d="M22.001,41C11.524,41,3,32.477,3,22S11.524,3,22.001,3C32.478,3,41,11.523,41,22S32.478,41,22.001,41z"/>
</g>
<g>
	<path fill="#FFFFFF" d="M28.939,30.472L27.602,27H16.207l-1.338,3.547c-0.523,1.354-0.969,2.268-1.338,2.742
		C13.161,33.763,12.556,34,11.714,34C11,34,10.37,33.747,9.822,33.243C9.274,32.738,9,32.165,9,31.524
		c0-0.368,0.063-0.75,0.191-1.145c0.127-0.394,0.338-0.942,0.631-1.644l7.169-17.583c0.204-0.504,0.449-1.111,0.736-1.819
		c0.287-0.708,0.593-1.295,0.917-1.763c0.325-0.468,0.752-0.847,1.281-1.136C20.454,6.145,21.108,6,21.885,6
		c0.79,0,1.45,0.145,1.979,0.434c0.528,0.29,0.955,0.662,1.28,1.118s0.6,0.945,0.822,1.468s0.507,1.222,0.851,2.096l7.322,17.473
		c0.573,1.329,0.86,2.296,0.86,2.899c0,0.628-0.271,1.203-0.813,1.727C33.646,33.738,32.992,34,32.229,34
		c-0.447,0-0.829-0.077-1.147-0.231c-0.319-0.153-0.587-0.362-0.804-0.627s-0.448-0.672-0.697-1.22
		C29.332,31.375,29.117,30.892,28.939,30.472z M18,23h8l-4-11L18,23z"/>
</g>
</svg>
