<?xml version="1.0" encoding="utf-8"?>
<!-- Generator: Adobe Illustrator 16.0.3, SVG Export Plug-In . SVG Version: 6.00 Build 0)  -->
<!DOCTYPE svg PUBLIC "-//W3C//DTD SVG 1.1//EN" "http://www.w3.org/Graphics/SVG/1.1/DTD/svg11.dtd">
<svg version="1.1" id="Address_Not_Verified_-_No" xmlns="http://www.w3.org/2000/svg" xmlns:xlink="http://www.w3.org/1999/xlink"
	 x="0px" y="0px" width="44px" height="44px" viewBox="0 0 44 44" enable-background="new 0 0 44 44" xml:space="preserve">
<circle fill="#FFFFFF" cx="22" cy="22" r="22"/>
<g id="group">
	<path fill="#CC8800" d="M22.001,42C10.972,42,2,33.027,2,22C2,10.972,10.972,2,22.001,2C33.026,2,42,10.972,42,22
		C42,33.026,33.026,42,22.001,42z"/>
	<path fill="#FFAA00" d="M22.001,41C11.524,41,3,32.477,3,22S11.524,3,22.001,3C32.478,3,41,11.523,41,22S32.478,41,22.001,41z"/>
</g>
<path fill="#FFFFFF" d="M23.197,24H18v8.479c0,1.154-0.431,2.029-0.982,2.626C16.467,35.701,15.771,36,14.932,36
	c-0.879,0-1.587-0.296-2.125-0.885C12.269,34.525,12,33.66,12,32.519V10.54c0-1.271,0.295-2.179,0.886-2.723S14.414,7,15.7,7h7.498
	c2.216,0,3.921,0.169,5.116,0.506c1.181,0.324,2.199,0.862,3.06,1.614c0.859,0.752,1.511,1.673,1.958,2.762
	C33.776,12.971,34,14.196,34,15.558c0,2.905-0.905,5.105-2.716,6.603C29.474,23.659,26.778,24,23.197,24z M21.936,11H18v9h3.936
	c1.377,0,2.529-0.147,3.453-0.442c0.926-0.295,1.629-0.777,2.115-1.447c0.486-0.669,0.729-1.547,0.729-2.631
	c0-1.299-0.373-2.357-1.121-3.174C26.271,11.435,24.547,11,21.936,11z"/>
</svg>
