<?xml version="1.0" encoding="utf-8"?>
<!-- Generator: Adobe Illustrator 16.0.3, SVG Export Plug-In . SVG Version: 6.00 Build 0)  -->
<!DOCTYPE svg PUBLIC "-//W3C//DTD SVG 1.1//EN" "http://www.w3.org/Graphics/SVG/1.1/DTD/svg11.dtd">
<svg version="1.1" id="Asset_Misplaced" xmlns="http://www.w3.org/2000/svg" xmlns:xlink="http://www.w3.org/1999/xlink" x="0px"
	 y="0px" width="44px" height="44px" viewBox="0 0 44 44" enable-background="new 0 0 44 44" xml:space="preserve">
<circle fill="#FFFFFF" cx="22" cy="22" r="21"/>
<path fill="#BF6B04" d="M22.0009766,40.90625C11.5234375,40.90625,3,32.4033203,3,21.9526367
	C3,11.5024414,11.5234375,3,22.0009766,3C32.4755859,3,41,11.5024414,41,21.9526367
	C41,32.4033203,32.4755859,40.90625,22.0009766,40.90625z"/>
<path fill="#F28705" d="M22.0009766,40C12.0751953,40,4,31.9257813,4,22c0-9.9248047,8.0751953-18,18.0009766-18
	C31.9257813,4,40,12.0751953,40,22C40,31.9257813,31.9257813,40,22.0009766,40z"/>
<path fill="#FFFFFF" d="M9.0029297,30.125L14,33V13l-4.9970703-3V30.125z"/>
<polygon fill="#FFFFFF" points="30,10 30,30 35,33 35,12.8759766 "/>
<polygon fill="#FFFFFF" points="15.1503906,33 28.9179688,30.125 28.9179688,10 15.1503906,12.8759766 "/>
<path fill="#F28705" d="M27.2744141,18.7524414c-0.0673828-0.3334961-0.1738281-0.6625977-0.3173828-0.9785156
	c-0.1376953-0.3168945-0.3105469-0.6191406-0.5039063-0.8969727c-0.1923828-0.2758789-0.4072266-0.5332031-0.6464844-0.762207
	c-0.2451172-0.2353516-0.5048828-0.4487305-0.7890625-0.6313477c-0.2871094-0.1835938-0.5927734-0.3457031-0.9150391-0.484375
	c-0.3173828-0.1303711-0.6552734-0.2314453-0.9970703-0.2978516c-0.3364258-0.0668945-0.6948242-0.1010742-1.0581055-0.1010742
	c-0.3623047,0-0.7207031,0.0341797-1.059082,0.1010742c-0.3408203,0.0664063-0.6738281,0.1674805-0.9916992,0.2978516
	c-0.3261719,0.1386719-0.6337891,0.3007813-0.9208984,0.484375c-0.2788086,0.1826172-0.543457,0.3959961-0.7836914,0.6274414
	c-0.2426758,0.2333984-0.4609375,0.4902344-0.6499023,0.7666016c-0.1914063,0.2753906-0.3613281,0.5742188-0.5068359,0.8969727
	c-0.1391602,0.3154297-0.2441406,0.6455078-0.3120117,0.9824219c-0.0727539,0.3359375-0.109375,0.6879883-0.109375,1.0463867
	c0,0.3613281,0.0366211,0.7128906,0.109375,1.0498047c0.0678711,0.3354492,0.1728516,0.6665039,0.3120117,0.9824219
	c0.125,0.2768555,0.2680664,0.5405273,0.4277344,0.7817383c0.1572266,0.2441406,0.3374023,0.4726563,0.5336914,0.6826172
	l1.0517578,1.3603516l2.8984375,3.7402344l3.9189453-5.0585938l0.0175781-0.0283203
	c0.2001953-0.2119141,0.3847656-0.4404297,0.5419922-0.6875c0.1650391-0.25,0.3115234-0.5151367,0.4316406-0.793457
	c0.1435547-0.3129883,0.25-0.6425781,0.3173828-0.9736328c0.0712891-0.3432617,0.1064453-0.6982422,0.1064453-1.0556641
	C27.3808594,19.4501953,27.3457031,19.0942383,27.2744141,18.7524414z"/>
<circle fill="#FFFFFF" cx="22.0361328" cy="19.9667969" r="2.2998047"/>
</svg>
