<?xml version="1.0" encoding="utf-8"?>
<!-- Generator: Adobe Illustrator 16.0.3, SVG Export Plug-In . SVG Version: 6.00 Build 0)  -->
<!DOCTYPE svg PUBLIC "-//W3C//DTD SVG 1.1//EN" "http://www.w3.org/Graphics/SVG/1.1/DTD/svg11.dtd">
<svg version="1.1" id="Automated_External_Defibrillators"
	 xmlns="http://www.w3.org/2000/svg" xmlns:xlink="http://www.w3.org/1999/xlink" x="0px" y="0px" width="44px" height="44px"
	 viewBox="0 0 44 44" enable-background="new 0 0 44 44" xml:space="preserve">
<circle fill="#FFFFFF" cx="22" cy="22" r="21"/>
<path fill="#C70101" d="M22.0009766,40.90625C11.5234375,40.90625,3,32.4033203,3,21.9526367
	C3,11.5024414,11.5234375,3,22.0009766,3C32.4755859,3,41,11.5024414,41,21.9526367
	C41,32.4033203,32.4755859,40.90625,22.0009766,40.90625z"/>
<path fill="#FB0101" d="M22.0004883,40C12.0751953,40,4,31.9257813,4,21.9995117C4,12.074707,12.0751953,4,22.0004883,4
	S40,12.074707,40,21.9995117C40,31.9257813,31.9257813,40,22.0004883,40z"/>
<path fill="#FFFFFF" d="M33.3125,10.8964844c-4.0507813-1.8491211-9.3505859-0.1098633-11.2260742,3.8774414
	c-1.8745117-3.9873047-7.1738281-5.7290039-11.2255859-3.8774414c-4.3154297,1.9746094-6.3793945,7.0166016-2.9707031,12.9648438
	C10.3105469,28.0957031,14.6010742,31.2841797,22.0864258,37c7.4858398-5.7158203,11.7758789-8.9082031,14.1967773-13.1386719
	C39.6923828,17.9130859,37.6289063,12.8710938,33.3125,10.8964844z"/>
<path fill="#FB0101" d="M28,13l-4,6h5l-6,6h5l-11,9l5-7h-5c0.0400391,0,1.6762695-2.8847656,5-7h-5
	c1.9448242-2.3100586,3.2133789-3.6762695,4.1655273-4.8618164C22.1181641,13.9526367,23.0410156,13,23,13H28z"/>
</svg>
