<?xml version="1.0" encoding="utf-8"?>
<!-- Generator: Adobe Illustrator 16.0.3, SVG Export Plug-In . SVG Version: 6.00 Build 0)  -->
<!DOCTYPE svg PUBLIC "-//W3C//DTD SVG 1.1//EN" "http://www.w3.org/Graphics/SVG/1.1/DTD/svg11.dtd">
<svg version="1.1" id="Bioretention_Basin_-_Green_Infrastructure"
	 xmlns="http://www.w3.org/2000/svg" xmlns:xlink="http://www.w3.org/1999/xlink" x="0px" y="0px" width="44px" height="44px"
	 viewBox="0 0 44 44" enable-background="new 0 0 44 44" xml:space="preserve">
<circle fill="#FFFFFF" cx="22" cy="22" r="21"/>
<path fill="#38673D" d="M22.001,40.906C11.523,40.906,3,32.402,3,21.953C3,11.502,11.523,3,22.001,3C32.477,3,41,11.502,41,21.953
	C41,32.402,32.477,40.906,22.001,40.906z"/>
<path fill="#359A40" d="M22,40c-9.925,0-18-8.074-18-18c0-9.925,8.075-18,18-18c9.926,0,18,8.075,18,18C40,31.926,31.926,40,22,40z"
	/>
<path fill="#FFFFFF" d="M14.746,28.998H9.934c-0.695,0-1.191-0.159-1.488-0.475C8.148,28.206,8,27.703,8,27.012V14.986
	c0-0.706,0.152-1.213,0.457-1.522C8.761,13.155,9.253,13,9.934,13h5.103c0.752,0,1.403,0.048,1.955,0.142
	c0.552,0.095,1.046,0.276,1.482,0.545c0.372,0.226,0.702,0.511,0.988,0.856c0.286,0.346,0.505,0.728,0.655,1.146
	c0.15,0.418,0.226,0.861,0.226,1.326c0,1.601-0.788,2.771-2.363,3.514c2.069,0.669,3.104,1.972,3.104,3.907
	c0,0.896-0.226,1.7-0.677,2.418c-0.451,0.717-1.06,1.246-1.826,1.588c-0.479,0.203-1.031,0.349-1.654,0.432
	C16.304,28.956,15.577,28.998,14.746,28.998z M11.19,15.434v4.136h2.922c0.795,0,1.409-0.076,1.843-0.229
	c0.433-0.153,0.764-0.443,0.993-0.873c0.179-0.306,0.269-0.647,0.269-1.026c0-0.808-0.283-1.344-0.849-1.609
	c-0.566-0.265-1.429-0.398-2.589-0.398L11.19,15.434L11.19,15.434z M14.51,21.895h-3.32v4.669h3.427
	c2.155,0,3.233-0.789,3.233-2.367c0-0.809-0.279-1.393-0.838-1.757C16.454,22.076,15.62,21.895,14.51,21.895z"/>
<path fill="#FFFFFF" d="M30.746,29h-4.813c-0.695,0-1.191-0.159-1.488-0.475C24.148,28.208,24,27.705,24,27.014V14.988
	c0-0.706,0.152-1.213,0.455-1.522c0.305-0.309,0.797-0.464,1.479-0.464h5.103c0.752,0,1.403,0.048,1.955,0.142
	c0.553,0.095,1.047,0.276,1.481,0.545c0.373,0.226,0.703,0.511,0.988,0.856c0.287,0.346,0.506,0.728,0.656,1.146
	s0.225,0.861,0.225,1.326c0,1.601-0.787,2.771-2.363,3.514c2.07,0.669,3.105,1.972,3.105,3.906c0,0.896-0.227,1.701-0.678,2.418
	s-1.059,1.246-1.826,1.588c-0.479,0.203-1.031,0.349-1.654,0.432S31.576,29,30.746,29z M27.189,15.436v4.136h2.922
	c0.795,0,1.41-0.076,1.842-0.229c0.434-0.153,0.766-0.443,0.994-0.873c0.18-0.306,0.27-0.647,0.27-1.026
	c0-0.808-0.283-1.344-0.85-1.609c-0.564-0.266-1.428-0.398-2.588-0.398L27.189,15.436L27.189,15.436z M30.51,21.896h-3.32v4.67
	h3.429c2.153,0,3.231-0.789,3.231-2.368c0-0.808-0.279-1.394-0.838-1.757C32.453,22.078,31.619,21.896,30.51,21.896z"/>
</svg>
