<?xml version="1.0" encoding="utf-8"?>
<!-- Generator: Adobe Illustrator 16.0.3, SVG Export Plug-In . SVG Version: 6.00 Build 0)  -->
<!DOCTYPE svg PUBLIC "-//W3C//DTD SVG 1.1//EN" "http://www.w3.org/Graphics/SVG/1.1/DTD/svg11.dtd">
<svg version="1.1" id="Bioswale_-_Green_Infrastructure"
	 xmlns="http://www.w3.org/2000/svg" xmlns:xlink="http://www.w3.org/1999/xlink" x="0px" y="0px" width="44px" height="44px"
	 viewBox="0 0 44 44" enable-background="new 0 0 44 44" xml:space="preserve">
<circle fill="#FFFFFF" cx="22" cy="22" r="21"/>
<path fill="#38673D" d="M22.001,40.906C11.523,40.906,3,32.402,3,21.953C3,11.502,11.523,3,22.001,3C32.477,3,41,11.502,41,21.953
	C41,32.402,32.477,40.906,22.001,40.906z"/>
<path fill="#359A40" d="M22,40c-9.925,0-18-8.074-18-18c0-9.925,8.075-18,18-18c9.926,0,18,8.075,18,18C40,31.926,31.926,40,22,40z"
	/>
<path fill="#FFFFFF" d="M22.711,30h-4.775c-0.69,0-1.183-0.159-1.477-0.475c-0.294-0.317-0.442-0.821-0.442-1.512V15.987
	c0-0.706,0.15-1.212,0.453-1.522c0.303-0.31,0.791-0.464,1.466-0.464h5.063c0.747,0,1.392,0.048,1.94,0.142
	c0.547,0.095,1.037,0.276,1.471,0.545c0.367,0.226,0.695,0.512,0.98,0.857c0.282,0.345,0.5,0.728,0.649,1.146
	c0.147,0.418,0.226,0.86,0.226,1.326c0,1.601-0.783,2.771-2.347,3.514C27.973,22.2,29,23.503,29,25.438
	c0,0.896-0.223,1.701-0.671,2.418c-0.447,0.717-1.052,1.246-1.812,1.588c-0.479,0.203-1.023,0.35-1.644,0.433
	C24.257,29.958,23.534,30,22.711,30z M19.183,16.435v4.136h2.899c0.789,0,1.398-0.076,1.828-0.229
	c0.431-0.153,0.758-0.443,0.986-0.873c0.177-0.306,0.266-0.647,0.266-1.026c0-0.808-0.281-1.343-0.842-1.609
	c-0.563-0.266-1.418-0.399-2.568-0.399H19.183z M22.477,22.895h-3.294v4.672h3.401c2.139,0,3.208-0.789,3.208-2.368
	c0-0.808-0.276-1.394-0.831-1.757C24.406,23.077,23.576,22.895,22.477,22.895z"/>
</svg>
