<?xml version="1.0" encoding="utf-8"?>
<!-- Generator: Adobe Illustrator 16.0.3, SVG Export Plug-In . SVG Version: 6.00 Build 0)  -->
<!DOCTYPE svg PUBLIC "-//W3C//DTD SVG 1.1//EN" "http://www.w3.org/Graphics/SVG/1.1/DTD/svg11.dtd">
<svg version="1.1" id="BMP_Maintenance_Violations" xmlns="http://www.w3.org/2000/svg" xmlns:xlink="http://www.w3.org/1999/xlink"
	 x="0px" y="0px" width="44px" height="44px" viewBox="0 0 44 44" enable-background="new 0 0 44 44" xml:space="preserve">
<circle fill="#FFFFFF" cx="22" cy="22" r="21"/>
<path fill="#AE0101" d="M22.0009766,40.90625C11.5234375,40.90625,3,32.4033203,3,21.9526367
	C3,11.5024414,11.5234375,3,22.0009766,3C32.4755859,3,41,11.5024414,41,21.9526367
	C41,32.4033203,32.4755859,40.90625,22.0009766,40.90625z"/>
<path fill="#FB3333" d="M22.0004883,40C12.0751953,40,4,31.9257813,4,21.9995117C4,12.074707,12.0751953,4,22.0004883,4
	S40,12.074707,40,21.9995117C40,31.9257813,31.9257813,40,22.0004883,40z"/>
<path fill="#FFFFFF" d="M10.90625,27.453125h-3.5c-0.5053711,0-0.8662109-0.1132813-1.0820313-0.3398438
	C6.1079102,26.8867188,6,26.5263672,6,26.03125v-8.609375c0-0.5048828,0.1103516-0.8681641,0.3320313-1.0898438
	C6.5532227,16.1108398,6.9111328,16,7.40625,16h3.7109375c0.546875,0,1.0205078,0.0341797,1.421875,0.1015625
	c0.4008789,0.0678711,0.7602539,0.1982422,1.078125,0.390625c0.2705078,0.1616211,0.5102539,0.3662109,0.71875,0.6132813
	c0.2080078,0.2475586,0.3671875,0.5209961,0.4765625,0.8203125c0.109375,0.2998047,0.1640625,0.6162109,0.1640625,0.9492188
	c0,1.1459961-0.5732422,1.984375-1.71875,2.515625c1.5048828,0.4794922,2.2578125,1.4116211,2.2578125,2.796875
	c0,0.640625-0.1640625,1.2177734-0.4921875,1.7304688c-0.328125,0.5136719-0.7709961,0.8925781-1.328125,1.1367188
	c-0.3491211,0.1464844-0.75,0.2490234-1.203125,0.3085938C12.0390625,27.4238281,11.5102539,27.453125,10.90625,27.453125z
	 M8.3203125,17.7421875v2.9609375h2.125c0.578125,0,1.0244141-0.0546875,1.3398438-0.1640625
	c0.3149414-0.109375,0.5556641-0.3173828,0.7226563-0.625c0.1298828-0.21875,0.1953125-0.4633789,0.1953125-0.734375
	c0-0.578125-0.2060547-0.9619141-0.6171875-1.1523438c-0.4116211-0.1899414-1.0390625-0.2851563-1.8828125-0.2851563H8.3203125z
	 M10.734375,22.3671875H8.3203125v3.34375H10.8125c1.5673828,0,2.3515625-0.5644531,2.3515625-1.6953125
	c0-0.578125-0.203125-0.9970703-0.609375-1.2578125C12.1484375,22.4975586,11.5415039,22.3671875,10.734375,22.3671875z"/>
<path fill="#FFFFFF" d="M20.96875,25.7265625l-1.8359375-7.296875v7.90625c0,0.4375-0.0976563,0.765625-0.2929688,0.984375
	s-0.4541016,0.328125-0.7773438,0.328125c-0.3125,0-0.5673828-0.1083984-0.765625-0.3242188S17,26.7792969,17,26.3359375v-9.0625
	c0-0.5,0.1298828-0.8369141,0.390625-1.0117188C17.6513672,16.0874023,18.0029297,16,18.4453125,16h0.71875
	c0.4326172,0,0.7460938,0.0390625,0.9414063,0.1171875s0.3398438,0.21875,0.4335938,0.421875
	s0.2001953,0.5341797,0.3203125,0.9921875l1.6640625,6.2734375L24.1875,17.53125
	c0.1201172-0.4580078,0.2265625-0.7890625,0.3203125-0.9921875s0.2382813-0.34375,0.4335938-0.421875S25.4501953,16,25.8828125,16
	h0.71875c0.4423828,0,0.7939453,0.0874023,1.0546875,0.2617188c0.2607422,0.1748047,0.390625,0.5117188,0.390625,1.0117188v9.0625
	c0,0.4375-0.0976563,0.765625-0.2929688,0.984375s-0.4570313,0.328125-0.7851563,0.328125
	c-0.3076172,0-0.5595703-0.109375-0.7578125-0.328125s-0.296875-0.546875-0.296875-0.984375v-7.90625l-1.8359375,7.296875
	c-0.1201172,0.4746094-0.2177734,0.8222656-0.2929688,1.0429688c-0.0751953,0.2216797-0.2148438,0.4238281-0.4179688,0.6054688
	s-0.484375,0.2734375-0.84375,0.2734375c-0.2705078,0-0.5-0.0585938-0.6875-0.1757813s-0.3330078-0.2666016-0.4375-0.4492188
	c-0.1044922-0.1816406-0.1865234-0.3837891-0.2460938-0.6054688C21.0927734,26.1972656,21.03125,25.9667969,20.96875,25.7265625z"/>
<path fill="#FFFFFF" d="M34.4453125,23.34375h-2.125v3.2421875c0,0.4638672-0.109375,0.8154297-0.328125,1.0546875
	S31.4970703,28,31.1640625,28c-0.3486328,0-0.6298828-0.1191406-0.84375-0.3554688S30,27.0605469,30,26.6015625v-8.828125
	c0-0.5102539,0.1171875-0.875,0.3515625-1.09375s0.6064453-0.328125,1.1171875-0.328125h2.9765625
	c0.8798828,0,1.5576172,0.0678711,2.03125,0.203125c0.46875,0.1303711,0.8740234,0.3466797,1.2148438,0.6484375
	C38.0322266,17.5053711,38.2919922,17.875,38.46875,18.3125s0.265625,0.9296875,0.265625,1.4765625
	c0,1.1669922-0.359375,2.0507813-1.078125,2.6523438S35.8671875,23.34375,34.4453125,23.34375z M33.8828125,18.09375h-1.5625v3.5
	h1.5625c0.546875,0,1.0039063-0.0571289,1.3710938-0.171875c0.3671875-0.1142578,0.6474609-0.3017578,0.8398438-0.5625
	c0.1923828-0.2602539,0.2890625-0.6015625,0.2890625-1.0234375c0-0.5048828-0.1484375-0.9165039-0.4453125-1.234375
	C35.6044922,18.2631836,34.9189453,18.09375,33.8828125,18.09375z"/>
</svg>
