<?xml version="1.0" encoding="utf-8"?>
<!-- Generator: Adobe Illustrator 16.0.3, SVG Export Plug-In . SVG Version: 6.00 Build 0)  -->
<!DOCTYPE svg PUBLIC "-//W3C//DTD SVG 1.1//EN" "http://www.w3.org/Graphics/SVG/1.1/DTD/svg11.dtd">
<svg version="1.1" id="Bridges" xmlns="http://www.w3.org/2000/svg" xmlns:xlink="http://www.w3.org/1999/xlink" x="0px" y="0px"
	 width="44px" height="44px" viewBox="0 0 44 44" enable-background="new 0 0 44 44" xml:space="preserve">
<circle fill="#FFFFFF" cx="22" cy="22" r="21"/>
<path fill="#262424" d="M22.0009766,40.90625C11.5234375,40.90625,3,32.4033203,3,21.9526367
	C3,11.5024414,11.5234375,3,22.0009766,3C32.4755859,3,41,11.5024414,41,21.9526367
	C41,32.4033203,32.4755859,40.90625,22.0009766,40.90625z"/>
<path fill="#424243" d="M22.0009766,40C12.0751953,40,4,31.9257813,4,22c0-9.9248047,8.0751953-18,18.0009766-18
	C31.9257813,4,40,12.0751953,40,22C40,31.9257813,31.9257813,40,22.0009766,40z"/>
<polygon fill="#FFFFFF" points="18.5498047,8 21.1875,8 20.8554688,14.9931641 17.1875,14.9931641 "/>
<polygon fill="#FFFFFF" points="16.5024414,21.0019531 21,21.0019531 20.5200195,36 13.6083984,36 "/>
<polygon fill="#FFFFFF" points="25.7529297,8 23.1875,8 23.5634766,14.9916992 27,14.9916992 "/>
<polygon fill="#FFFFFF" points="27.5263672,21 23,21 23.4804688,35.9863281 30.3964844,35.9863281 "/>
<path fill="#FFFFFF" d="M7,17v1.9916992h2.1884766c0.9257813,0,1.1513672,0.8510742,1.1513672,1.3735352V23h1.9199219
	l0.7573242-3.0244141c0.1264648-0.5649414,0.4208984-0.9443359,0.925293-0.9838867h15.7792969
	c0.5478516,0,0.8847656,0.4189453,1.0527344,0.9838867l0.8955078,3.0048828h1.9746094l0.0224609-2.6152344l0,0
	c0-0.8237305,0.2207031-1.3735352,0.8105469-1.3735352H37V17H7z"/>
</svg>
