<?xml version="1.0" encoding="utf-8"?>
<!-- Generator: Adobe Illustrator 16.0.3, SVG Export Plug-In . SVG Version: 6.00 Build 0)  -->
<!DOCTYPE svg PUBLIC "-//W3C//DTD SVG 1.1//EN" "http://www.w3.org/Graphics/SVG/1.1/DTD/svg11.dtd">
<svg version="1.1" id="Curb_Ramps" xmlns="http://www.w3.org/2000/svg" xmlns:xlink="http://www.w3.org/1999/xlink" x="0px" y="0px"
	 width="44px" height="44px" viewBox="0 0 44 44" enable-background="new 0 0 44 44" xml:space="preserve">
<circle fill="#FFFFFF" cx="22" cy="22" r="21"/>
<path fill="#D8BB44" d="M22.0009766,40.90625C11.5234375,40.90625,3,32.4033203,3,21.9526367
	C3,11.5024414,11.5234375,3,22.0009766,3C32.4755859,3,41,11.5024414,41,21.9526367
	C41,32.4033203,32.4755859,40.90625,22.0009766,40.90625z"/>
<path fill="#FFDE1A" d="M22.0009766,40C12.0751953,40,4,31.9257813,4,22c0-9.9248047,8.0751953-18,18.0009766-18
	C31.9257813,4,40,12.0751953,40,22C40,31.9257813,31.9257813,40,22.0009766,40z"/>
<path fill="#FFFFFF" d="M10,33c-1,0,25,0,25,0s0-9.25,0-7C35,29,13,33,10,33z"/>
<path fill="#FFFFFF" d="M22.0996094,15.105957v-0.0620117c0-0.1645508-0.0722656-0.5268555-0.2167969-1.0849609
	c-0.1455078-0.5581055-0.3310547-1.1254883-0.5576172-1.7050781c-0.2275391-0.578125-0.4960938-1.1054688-0.8061523-1.5810547
	c-0.3100586-0.4746094-0.6508789-0.7333984-1.0229492-0.7749023H19.434082c-0.0834961,0-0.1347656-0.0097656-0.1552734-0.0307617
	c-0.0209961-0.0205078-0.0522461-0.03125-0.0927734-0.03125c-0.1240234,0.0415039-0.2480469,0.0834961-0.3720703,0.1240234
	l-6.5097656,2.6660156l-0.434082,6.1381836h1.2397461l1.1162109-5.0839844l1.3637695-0.2480469
	c-0.2070313,0.6616211-0.3720703,1.2089844-0.4956055,1.6430664c-0.1240234,0.4335938-0.2480469,0.8891602-0.3720703,1.3637695
	c-0.1240234,0.4755859-0.2075195,0.8989258-0.2480469,1.2709961v0.2480469c0,0.3720703,0.0620117,0.909668,0.1860352,1.6118164
	L10.9399414,30.234375l1.550293,1.4257813l4.4018555-9.2382813l1.6738281,2.1699219l1.7358398,7.0058594l2.1699219-0.6191406
	l-1.4257813-7.6269531l-2.2319336-4.8354492l1.4262695-2.8520508l0.8681641,1.6738281l4.0917969,1.921875l0.9296875-0.9916992
	L22.0996094,15.105957z M21.2939453,6.2402344h-0.2480469c-0.9511719,0-1.5092773,0.5170898-1.6738281,1.5498047v0.1240234
	c0,0.4550781,0.1547852,0.8583984,0.4648438,1.2089844c0.3100586,0.3515625,0.6918945,0.5688477,1.1469727,0.6508789h0.1245117
	c0.4541016,0,0.8466797-0.1547852,1.1777344-0.4648438c0.3300781-0.3100586,0.5361328-0.6918945,0.6201172-1.1469727V7.9760742
	c0-0.4545898-0.1552734-0.8369141-0.4648438-1.1469727C22.1308594,6.519043,21.7480469,6.3232422,21.2939453,6.2402344z"/>
</svg>
