<?xml version="1.0" encoding="utf-8"?>
<!-- Generator: Adobe Illustrator 16.0.3, SVG Export Plug-In . SVG Version: 6.00 Build 0)  -->
<!DOCTYPE svg PUBLIC "-//W3C//DTD SVG 1.1//EN" "http://www.w3.org/Graphics/SVG/1.1/DTD/svg11.dtd">
<svg version="1.1" id="Public_Facilities_-_CAT_F_-_Public_Utilities_-_Damage_Assessment_1_"
	 xmlns="http://www.w3.org/2000/svg" xmlns:xlink="http://www.w3.org/1999/xlink" x="0px" y="0px" width="44px" height="44px"
	 viewBox="0 0 44 44" enable-background="new 0 0 44 44" xml:space="preserve">
<circle fill="#FFFFFF" cx="22" cy="22" r="21"/>
<path fill="#1873CD" d="M22.0009766,40.90625C11.5234375,40.90625,3,32.4033203,3,21.9526367
	C3,11.5024414,11.5234375,3,22.0009766,3C32.4755859,3,41,11.5024414,41,21.9526367
	C41,32.4033203,32.4755859,40.90625,22.0009766,40.90625z"/>
<path fill="#1F8FFF" d="M22,40c-9.9248047,0-18-8.0742188-18-18.0009766C4,12.0742188,12.0751953,4,22,4
	c9.9257813,0,18,8.0742188,18,17.9990234C40,31.9257813,31.9257813,40,22,40z"/>
<g>
	<path fill="#FFFFFF" d="M27.9208984,14H19v6l7.5146484,0.0068359c0.6640625,0,1.1601563,0.1494141,1.4863281,0.4472656
		c0.328125,0.2978516,0.4902344,0.4643555,0.4902344,0.9624023s-0.1660156,0.8510742-0.4980469,1.144043
		S27.1689453,23,26.5146484,23H19v7.3486328c0,0.8984375-0.2021484,1.5654297-0.6074219,2
		C17.9873047,32.7822266,17.6347656,33,17,33c-0.6445313,0-0.9863281-0.2197266-1.3916016-0.6591797S15,31.2373047,15,30.3486328
		V13.8251953c0-0.625,0.0927734-1.1347656,0.2783203-1.5302734s0.4765625-0.8427734,0.8720703-1.0234375
		S17.0507813,11,17.6660156,11h10.2548828c0.6933594,0,1.2089844,0.1542969,1.5449219,0.4619141
		c0.3378906,0.3076172,0.5058594,0.519043,0.5058594,1.0170898c0,0.5078125-0.1679688,0.7524414-0.5058594,1.0600586
		C29.1298828,13.8466797,28.6142578,14,27.9208984,14z"/>
</g>
</svg>
