<?xml version="1.0" encoding="utf-8"?>
<!-- Generator: Adobe Illustrator 16.0.3, SVG Export Plug-In . SVG Version: 6.00 Build 0)  -->
<!DOCTYPE svg PUBLIC "-//W3C//DTD SVG 1.1//EN" "http://www.w3.org/Graphics/SVG/1.1/DTD/svg11.dtd">
<svg version="1.1" id="Residential_Buildings_-_Inaccessible_-_Damage_Assessment_1_"
	 xmlns="http://www.w3.org/2000/svg" xmlns:xlink="http://www.w3.org/1999/xlink" x="0px" y="0px" width="44px" height="44px"
	 viewBox="0 0 44 44" enable-background="new 0 0 44 44" xml:space="preserve">
<circle fill="#FFFFFF" cx="22" cy="22" r="21"/>
<path fill="#262424" d="M22.0009766,40.90625C11.5234375,40.90625,3,32.4033203,3,21.9526367
	C3,11.5024414,11.5234375,3,22.0009766,3C32.4755859,3,41,11.5024414,41,21.9526367
	C41,32.4033203,32.4755859,40.90625,22.0009766,40.90625z"/>
<path fill="#424243" d="M22,40c-9.9248047,0-18-8.0742188-18-18.0004883C4,12.074707,12.0751953,4,22,4
	c9.9257813,0,18,8.074707,18,17.9995117C40,31.9257813,31.9257813,40,22,40z"/>
<g>
	<path fill="#FFFFFF" d="M30,20v12H14V20h-3l10-10l4,4v-3h4v5l5,4H30z"/>
</g>
</svg>
