<?xml version="1.0" encoding="utf-8"?>
<!-- Generator: Adobe Illustrator 16.0.3, SVG Export Plug-In . SVG Version: 6.00 Build 0)  -->
<!DOCTYPE svg PUBLIC "-//W3C//DTD SVG 1.1//EN" "http://www.w3.org/Graphics/SVG/1.1/DTD/svg11.dtd">
<svg version="1.1" id="Damage_Assessment_-_Gas_-_Urgent"
	 xmlns="http://www.w3.org/2000/svg" xmlns:xlink="http://www.w3.org/1999/xlink" x="0px" y="0px" width="44px" height="44px"
	 viewBox="0 0 44 44" enable-background="new 0 0 44 44" xml:space="preserve">
<circle fill="#FFFFFF" cx="22" cy="22" r="21"/>
<path fill="#AE0101" d="M22.0009766,40.90625C11.5234375,40.90625,3,32.4033203,3,21.9526367
	C3,11.5024414,11.5234375,3,22.0009766,3C32.4755859,3,41,11.5024414,41,21.9526367
	C41,32.4033203,32.4755859,40.90625,22.0009766,40.90625z"/>
<path fill="#FB3333" d="M22.0004883,40C12.0751953,40,4,31.9257813,4,21.9995117C4,12.074707,12.0751953,4,22.0004883,4
	S40,12.074707,40,21.9995117C40,31.9257813,31.9257813,40,22.0004883,40z"/>
<path fill="#FFFFFF" d="M21.9414063,6.0776367V6.0415039c0,0.0063477-0.0014648,0.012207-0.0014648,0.0180664
	c-0.0004883-0.0063477-0.0009766-0.0117188-0.0009766-0.0180664v0.0356445
	C21.5,11.2700195,15.2211914,18.8666992,15.0161133,22.8544922C14.8120117,26.8261719,21.9194336,30.9619141,22.0068359,31l0,0
	c0,0,0.0019531,0,0.0029297,0h0.0014648l0,0c0.0874023-0.0380859,7.1762695-4.1738281,6.9731445-8.1455078
	C28.7802734,18.8666992,22.3803711,11.2705078,21.9414063,6.0776367z M21.9873047,30.2441406
	c0,0-6.2255859-4.515625,0.3232422-9.6386719C22.3105469,20.6054688,28.3740234,25.0546875,21.9873047,30.2441406z"/>
<path fill="#FFFFFF" d="M11.9174805,32C11.5932617,32,11,33.2929688,11,34c0,2,0.9169922,2,0.9169922,2S27.5,36,32.0839844,36
	C32.4082031,36,33,34.7070313,33,34s-0.5917969-2-0.9160156-2C27.5,32,15.5830078,32,11.9174805,32z"/>
<ellipse fill="#FB3333" cx="22" cy="33.5" rx="4" ry="1.5"/>
</svg>
