<?xml version="1.0" encoding="utf-8"?>
<!-- Generator: Adobe Illustrator 16.0.3, SVG Export Plug-In . SVG Version: 6.00 Build 0)  -->
<!DOCTYPE svg PUBLIC "-//W3C//DTD SVG 1.1//EN" "http://www.w3.org/Graphics/SVG/1.1/DTD/svg11.dtd">
<svg version="1.1" id="Public_Facilities_-_CAT_A_-_Debris_Removal_-_Damage_Assessment_1_"
	 xmlns="http://www.w3.org/2000/svg" xmlns:xlink="http://www.w3.org/1999/xlink" x="0px" y="0px" width="44px" height="44px"
	 viewBox="0 0 44 44" enable-background="new 0 0 44 44" xml:space="preserve">
<circle fill="#FFFFFF" cx="22" cy="22" r="21"/>
<path fill="#1873CD" d="M22.0009766,40.90625C11.5234375,40.90625,3,32.4033203,3,21.9526367
	C3,11.5024414,11.5234375,3,22.0009766,3C32.4755859,3,41,11.5024414,41,21.9526367
	C41,32.4033203,32.4755859,40.90625,22.0009766,40.90625z"/>
<path fill="#1F8FFF" d="M22,40.1015625c-9.9248047,0-18-8.0742188-18-18c0-9.9248047,8.0751953-17.9995117,18-17.9995117
	c9.9257813,0,18,8.074707,18,17.9995117C40,32.0273438,31.9257813,40.1015625,22,40.1015625z"/>
<g>
	<path fill="#FFFFFF" d="M28.296875,29.015625L27,26h-9l-1.203125,3.078125
		c-0.4272461,1.1464844-0.7919922,1.9199219-1.09375,2.3203125C15.4008789,31.7988281,14.90625,32,14.21875,32
		c-0.5834961,0-1.0991211-0.2148438-1.546875-0.640625C12.2236328,30.9316406,12,30.4472656,12,29.90625
		c0-0.3125,0.0517578-0.6357422,0.15625-0.96875c0.1040039-0.3339844,0.2758789-0.796875,0.515625-1.390625l5.859375-14.8754883
		c0.1665039-0.4267578,0.3671875-0.9399414,0.6015625-1.5390625c0.234375-0.5986328,0.484375-1.0961914,0.75-1.4921875
		c0.265625-0.3955078,0.6142578-0.7158203,1.046875-0.9609375c0.4321289-0.2446289,0.9658203-0.3671875,1.6015625-0.3671875
		c0.6455078,0,1.1845703,0.1225586,1.6171875,0.3671875c0.4316406,0.2451172,0.78125,0.5600586,1.046875,0.9453125
		c0.265625,0.3857422,0.4892578,0.7998047,0.671875,1.2421875c0.1816406,0.4428711,0.4140625,1.0341797,0.6953125,1.7734375
		l5.984375,14.7817383C33.015625,28.546875,33.25,29.3642578,33.25,29.875c0,0.53125-0.2216797,1.0175781-0.6640625,1.4609375
		C32.1425781,31.7773438,31.609375,32,30.984375,32c-0.3652344,0-0.6777344-0.0664063-0.9375-0.1953125
		c-0.2607422-0.1308594-0.4794922-0.3066406-0.65625-0.53125c-0.1777344-0.2246094-0.3671875-0.5683594-0.5703125-1.03125
		S28.4423828,29.3691406,28.296875,29.015625z M19,23h7l-3.5-9.7973633L19,23z"/>
</g>
</svg>
