<?xml version="1.0" encoding="utf-8"?>
<!-- Generator: Adobe Illustrator 16.0.3, SVG Export Plug-In . SVG Version: 6.00 Build 0)  -->
<!DOCTYPE svg PUBLIC "-//W3C//DTD SVG 1.1//EN" "http://www.w3.org/Graphics/SVG/1.1/DTD/svg11.dtd">
<svg version="1.1" id="Damage_Assessment_-_Electric_-_Low_Damage"
	 xmlns="http://www.w3.org/2000/svg" xmlns:xlink="http://www.w3.org/1999/xlink" x="0px" y="0px" width="44px" height="44px"
	 viewBox="0 0 44 44" enable-background="new 0 0 44 44" xml:space="preserve">
<circle fill="#FFFFFF" cx="22" cy="22" r="21"/>
<path fill="#38673D" d="M22.0009766,40.90625C11.5234375,40.90625,3,32.4033203,3,21.9526367
	C3,11.5024414,11.5234375,3,22.0009766,3C32.4755859,3,41,11.5024414,41,21.9526367
	C41,32.4033203,32.4755859,40.90625,22.0009766,40.90625z"/>
<path fill="#359A40" d="M22.0004883,40C12.0751953,40,4,31.9257813,4,21.9995117C4,12.074707,12.0751953,4,22.0004883,4
	S40,12.074707,40,21.9995117C40,31.9257813,31.9257813,40,22.0004883,40z"/>
<path fill="#FFFFFF" d="M23.7412109,36.8193359c0.1015625-0.1025391,0.1376953-0.1972656,0.1640625-0.2744141
	c0.0605469-0.1484375,0.1289063-0.2421875,0.0625-0.1884766c0.3730469-0.3349609,0.7988281-0.59375,1.2548828-0.9384766h0.0019531
	l0.0039063-0.0039063c0.1689453-0.1308594,0.4443359-0.2695313,0.7158203-0.4521484
	c0.2714844-0.1845703,0.5683594-0.4443359,0.6289063-0.8398438c0.0273438-0.1621094-0.0371094-0.3144531-0.1015625-0.40625
	c-0.0664063-0.0947266-0.1347656-0.1523438-0.1835938-0.1992188c-0.0039063-0.0039063-0.0039063-0.0039063-0.0078125-0.0068359
	c0.0507813-0.0332031,0.1152344-0.0751953,0.1855469-0.1474609c0.0761719-0.0761719,0.1640625-0.2050781,0.1699219-0.3613281
	c0.0078125-0.1621094-0.0722656-0.3007813-0.1425781-0.3847656c-0.0488281-0.0546875-0.0917969-0.0917969-0.1328125-0.1240234
	c0.0273438-0.0195313,0.0507813-0.0283203,0.0859375-0.0595703c0.0761719-0.0693359,0.171875-0.1943359,0.1816406-0.3496094
	c0.0097656-0.1621094-0.0683594-0.3066406-0.140625-0.3925781c-0.0742188-0.0859375-0.1445313-0.1367188-0.1972656-0.1777344
	c-0.0039063-0.0039063-0.0019531-0.0039063-0.0058594-0.0058594c0.0097656-0.0087891,0.0097656-0.0097656,0.0214844-0.0195313
	c0.0585938-0.0449219,0.1308594-0.1015625,0.2050781-0.1865234s0.1552734-0.21875,0.1572266-0.3818359
	c0.0039063-0.1513672-0.0673828-0.28125-0.1318359-0.3623047s-0.1289063-0.1347656-0.1738281-0.1748047
	c-0.0039063-0.0039063-0.0039063-0.0039063-0.0058594-0.0048828c0.0058594-0.0039063,0.0019531-0.0039063,0.0078125-0.0078125
	c0.0917969-0.078125,0.2851563-0.2021484,0.3349609-0.4785156c0.0507813-0.2861328-0.0654297-0.5126953-0.1455078-0.671875
	c-0.0292969-0.0605469-0.0488281-0.1054688-0.0703125-0.1503906c0.0703125-0.046875,0.1445313-0.1025391,0.2158203-0.1806641
	l0.0019531-0.0039063l0.0039063-0.0039063c0.3515625-0.3935547,0.6630859-0.8359375,0.8769531-1.3232422l0.0058594-0.0117188
	l0.0058594-0.0097656c0.3222656-0.875,0.1767578-1.7207031,0.3574219-2.4091797l0.0019531-0.0039063v-0.0039063
	c0.2021484-0.8447266,0.7138672-1.625,1.1806641-2.4775391l0,0l0,0c0.234375-0.4365234,0.5117188-0.8696289,0.7685547-1.3374023
	c0,0,0-0.0039063,0.0019531-0.0048828c0.6640625-1.1787109,1.4335938-2.3852539,1.7851563-3.7709961
	c0-0.0039063,0.0019531-0.0058594,0.0019531-0.0087891c0.7412109-2.6689453,0.1318359-5.6254883-1.6787109-7.8291016
	c-0.0039063-0.0039063-0.0058594-0.0078125-0.0097656-0.0117188C29.2919922,8.737793,28.3349609,8,27.3330078,7.3979492l0,0
	c-0.6220703-0.3735352-1.2910156-0.5849609-1.9023438-0.8134766l0,0h-0.0019531
	c-0.8574219-0.3134766-1.7558594-0.4638672-2.6381836-0.5551758h-0.0009766h-0.0009766
	C22.5932617,6.0097656,22.3994141,6.0009766,22.206543,6l0,0c-0.5698242-0.0039063-1.1264648,0.0649414-1.6601563,0.1386719
	c-0.0039063,0-0.0068359,0-0.0102539,0c-1.4775391,0.1660156-2.8735352,0.6982422-4.1030273,1.4257813l-0.0073242,0.0043945
	l-0.0058594,0.0048828C16.1289063,7.762207,15.8769531,7.9580078,15.625,8.1225586h-0.0009766
	c-0.7036133,0.4667969-1.2524414,1.0708008-1.7338867,1.6811523c-0.003418,0.0039063-0.0087891,0.0078125-0.012207,0.0126953
	h0.0014648c-0.4282227,0.4980469-0.7124023,1.0478516-0.9980469,1.5541992l-0.0068359,0.0136719l-0.0053711,0.0136719
	c-0.4155273,0.9155273-0.6967773,1.8881836-0.8383789,2.8686523l-0.0014648,0.0117188l-0.0009766,0.0117188
	c-0.1259766,1.6938477,0.152832,3.4375,0.9580078,4.9907227c0.0014648,0.0039063,0.003418,0.0068359,0.0048828,0.0097656
	c0.3789063,0.784668,0.8349609,1.5117188,1.2368164,2.2397461l0.0014648,0.0039063l0.0009766,0.0039063
	c0.5810547,1.0078125,1.2070313,1.9707031,1.6889648,2.9765625c0.0004883,0.0048828,0.0014648,0.0048828,0.0024414,0.0068359
	c0.2026367,0.4462891,0.3237305,0.9335938,0.3701172,1.4277344v0.0058594l0.0009766,0.0039063
	c0.0600586,0.484375,0.0532227,1.0654297,0.3330078,1.6328125c0.0039063,0.0117188,0.0092773,0.0214844,0.0131836,0.0322266
	c0.2441406,0.5908203,0.6621094,1.0009766,0.878418,1.4160156c0.0576172,0.1357422,0.0493164,0.3017578,0.0131836,0.5351563
	c-0.0366211,0.2373047-0.105957,0.5322266-0.0214844,0.8652344c0.0629883,0.2490234,0.2119141,0.3857422,0.2915039,0.484375
	c0.0205078,0.0263672,0.0234375,0.0332031,0.034668,0.0488281c-0.043457,0.0273438-0.097168,0.0546875-0.1630859,0.1123047
	c-0.0742188,0.0664063-0.1635742,0.1835938-0.1791992,0.3310547c-0.0175781,0.1611328,0.050293,0.3046875,0.1162109,0.3916016
	c0.0429688,0.0576172,0.0864258,0.0996094,0.1245117,0.1357422c-0.0395508,0.0263672-0.0810547,0.0585938-0.1196289,0.1025391
	c-0.0888672,0.1015625-0.1445313,0.2509766-0.1484375,0.3955078c-0.0048828,0.2666016,0.1689453,0.4716797,0.3046875,0.5849609
	c-0.0375977,0.0253906-0.0800781,0.0556641-0.1245117,0.0986328C17.5668945,33.203125,17.4736328,33.3369141,17.4702148,33.5
	c-0.0058594,0.2587891,0.1806641,0.4160156,0.2734375,0.4912109c0.0664063,0.0527344,0.1020508,0.0898438,0.1108398,0.0947266
	c0.0014648,0.0087891,0.0126953,0.0634766,0.0200195,0.1835938c0.0092773,0.1279297,0.0273438,0.3349609,0.1894531,0.5185547
	c0.0009766,0,0.0009766,0.0039063,0.0019531,0.0039063c0.1962891,0.2216797,0.4047852,0.3681641,0.5541992,0.5087891
	l0.0014648,0.0048828l0.0019531,0.0039063c0.2490234,0.2294922,0.534668,0.3642578,0.7749023,0.4980469
	c0.2421875,0.1318359,0.4360352,0.2539063,0.5483398,0.3916016l0.0195313,0.0214844l0.0214844,0.0195313
	c-0.0092773-0.0078125,0.0410156,0.0869141,0.1088867,0.25c0.0327148,0.0820313,0.0771484,0.1796875,0.168457,0.2822266
	c0.090332,0.1005859,0.246582,0.1962891,0.4160156,0.2236328L20.6928711,37h0.0126953"/>
<rect x="19" y="28" fill="#359A40" width="6" height="1"/>
<rect x="19" y="30" fill="#359A40" width="5.9912109" height="1"/>
<rect x="19" y="32" fill="#359A40" width="6" height="1"/>
<rect x="19" y="34" fill="#359A40" width="6" height="1"/>
</svg>
