<?xml version="1.0" encoding="utf-8"?>
<!-- Generator: Adobe Illustrator 16.0.3, SVG Export Plug-In . SVG Version: 6.00 Build 0)  -->
<!DOCTYPE svg PUBLIC "-//W3C//DTD SVG 1.1//EN" "http://www.w3.org/Graphics/SVG/1.1/DTD/svg11.dtd">
<svg version="1.1" id="Damage_Assessment_-Gas_-_Medium_Damage"
	 xmlns="http://www.w3.org/2000/svg" xmlns:xlink="http://www.w3.org/1999/xlink" x="0px" y="0px" width="44px" height="44px"
	 viewBox="0 0 44 44" enable-background="new 0 0 44 44" xml:space="preserve">
<circle fill="#FFFFFF" cx="22" cy="22" r="21"/>
<path fill="#BF9004" d="M22.0009766,40.90625C11.5234375,40.90625,3,32.4033203,3,21.9526367
	C3,11.5024414,11.5234375,3,22.0009766,3C32.4755859,3,41,11.5024414,41,21.9526367
	C41,32.4033203,32.4755859,40.90625,22.0009766,40.90625z"/>
<path fill="#F3B705" d="M22.0004883,40C12.0751953,40,4,31.9257813,4,21.9995117C4,12.074707,12.0751953,4,22.0004883,4
	S40,12.074707,40,21.9995117C40,31.9257813,31.9257813,40,22.0004883,40z"/>
<path fill="#FFFFFF" d="M22.1860352,5.3129883V5.2744141c0,0.0068359-0.0009766,0.0131836-0.0009766,0.0195313
	C22.1845703,5.2871094,22.184082,5.28125,22.184082,5.2744141V5.3125
	c-0.3916016,5.5605469-5.996582,13.6948242-6.1796875,17.9648438C15.8222656,27.53125,22.1669922,31.9589844,22.2446289,32l0,0
	c0,0,0.0019531,0,0.0029297,0h0.0009766l0,0c0.078125-0.0410156,6.4057617-4.46875,6.2241211-8.7226563
	C28.2900391,19.0073242,22.5776367,10.8735352,22.1860352,5.3129883z M22.2270508,31.1904297
	c0,0-5.5571289-4.8349609,0.2885742-10.3208008C22.515625,20.8696289,27.9287109,25.6337891,22.2270508,31.1904297z"/>
<path fill="#FFFFFF" d="M11.9174805,32C11.5932617,32,11,33.2929688,11,34c0,2,0.9169922,2,0.9169922,2S27.5,36,32.0839844,36
	C32.4082031,36,33,34.7070313,33,34s-0.5917969-2-0.9160156-2C27.5,32,15.5830078,32,11.9174805,32z"/>
<ellipse fill="#F3B705" cx="22" cy="33.5" rx="4" ry="1.5"/>
</svg>
