<?xml version="1.0" encoding="utf-8"?>
<!-- Generator: Adobe Illustrator 16.0.3, SVG Export Plug-In . SVG Version: 6.00 Build 0)  -->
<!DOCTYPE svg PUBLIC "-//W3C//DTD SVG 1.1//EN" "http://www.w3.org/Graphics/SVG/1.1/DTD/svg11.dtd">
<svg version="1.1" id="Public_Facilities_-_CAT_B_-_Protective_Measures_-_Damage_Assessment_1_"
	 xmlns="http://www.w3.org/2000/svg" xmlns:xlink="http://www.w3.org/1999/xlink" x="0px" y="0px" width="44px" height="44px"
	 viewBox="0 0 44 44" enable-background="new 0 0 44 44" xml:space="preserve">
<circle fill="#FFFFFF" cx="22" cy="22" r="21"/>
<path fill="#1873CD" d="M22.0009766,40.90625C11.5234375,40.90625,3,32.4033203,3,21.9526367
	C3,11.5024414,11.5234375,3,22.0009766,3C32.4755859,3,41,11.5024414,41,21.9526367
	C41,32.4033203,32.4755859,40.90625,22.0009766,40.90625z"/>
<path fill="#1F8FFF" d="M22,40c-9.9248047,0-18-8.0742188-18-18.0004883C4,12.074707,12.0751953,4,22,4
	c9.9257813,0,18,8.074707,18,17.9995117C40,31.9257813,31.9257813,40,22,40z"/>
<g>
	<path fill="#FFFFFF" d="M22.2783203,33h-6.5625c-0.9472656,0-1.6230469-0.2128906-2.0283203-0.6367188
		c-0.4052734-0.4257813-0.6083984-1.1015625-0.6083984-2.0292969V14.1914063c0-0.9472656,0.2080078-1.628418,0.6230469-2.043457
		S14.7880859,11,15.7158203,11h6.9580078c1.0253906,0,1.9140625,0.0634766,2.6660156,0.1904297
		s1.4257813,0.3710938,2.0214844,0.7324219c0.5078125,0.3027344,0.9570313,0.6860352,1.3476563,1.1499023
		s0.6894531,0.9765625,0.8945313,1.5380859s0.3066406,1.1547852,0.3066406,1.7797852
		c0,2.1484375-1.0742188,4.2460938-3.2226563,5.2421875c2.8222656,0.8984375,4.234375,2.6464844,4.234375,5.2441406
		c0,1.2011719-0.3085938,2.2822266-0.9238281,3.2451172c-0.6152344,0.9619141-1.4453125,1.671875-2.4902344,2.1308594
		c-0.6542969,0.2734375-1.40625,0.4667969-2.2558594,0.5791016S23.4121094,33,22.2783203,33z M17.0791016,14v6h4
		C22.1630859,20,23,19.8974609,23.5917969,19.6923828c0.5898438-0.2050781,1.3769531-0.2519531,1.6894531-0.828125
		c0.2441406-0.4101563,0.3671875-0.8691406,0.3671875-1.3769531c0-1.0839844-0.2675781-2.5961914-1.0390625-2.9526367
		S22.6621094,14,21.0791016,14H17.0791016z M22.0791016,23h-5v7h5c2.9404297,0,4.4326172-1.3261719,4.4326172-3.4453125
		c0-1.0839844-0.2578125-2.3339844-1.0195313-2.8222656S23.59375,23,22.0791016,23z"/>
</g>
</svg>
