<?xml version="1.0" encoding="utf-8"?>
<!-- Generator: Adobe Illustrator 16.0.3, SVG Export Plug-In . SVG Version: 6.00 Build 0)  -->
<!DOCTYPE svg PUBLIC "-//W3C//DTD SVG 1.1//EN" "http://www.w3.org/Graphics/SVG/1.1/DTD/svg11.dtd">
<svg version="1.1" id="Public_Facilities_-_CAT_G_-_Parks_x2F_Other_-_Damage_Assessment_1_"
	 xmlns="http://www.w3.org/2000/svg" xmlns:xlink="http://www.w3.org/1999/xlink" x="0px" y="0px" width="44px" height="44px"
	 viewBox="0 0 44 44" enable-background="new 0 0 44 44" xml:space="preserve">
<circle fill="#FFFFFF" cx="22" cy="22" r="21"/>
<path fill="#1873CD" d="M22.0009766,40.90625C11.5234375,40.90625,3,32.4033203,3,21.9526367
	C3,11.5024414,11.5234375,3,22.0009766,3C32.4755859,3,41,11.5024414,41,21.9526367
	C41,32.4033203,32.4755859,40.90625,22.0009766,40.90625z"/>
<path fill="#1F8FFF" d="M22,40c-9.9248047,0-18-8.0742188-18-18.0004883C4,12.074707,12.0751953,4,22,4
	c9.9257813,0,18,8.074707,18,17.9995117C40,31.9257813,31.9257813,40,22,40z"/>
<g>
	<path fill="#FFFFFF" d="M32,22.9033203v4.1162109c0,0.546875-0.0537109,0.984375-0.1611328,1.3105469
		c-0.1074219,0.328125-0.3056641,0.6230469-0.5927734,0.8867188c-0.2890625,0.2636719-0.6572266,0.5175781-1.1064453,0.7617188
		c-1.2988281,0.703125-2.5488281,1.2158203-3.75,1.5380859S23.8798828,32,22.4638672,32
		c-1.6503906,0-3.1542969-0.2539063-4.5117188-0.7617188s-2.5146484-1.2451172-3.4716797-2.2119141
		s-1.6918945-2.1386719-2.2045898-3.515625s-0.769043-2.9150391-0.769043-4.6142578
		c0-1.6699219,0.2490234-3.1982422,0.7470703-4.5849609s1.2304688-2.5634766,2.1972656-3.5302734
		s2.1435547-1.706543,3.5302734-2.2192383s2.9589844-0.769043,4.7167969-0.769043
		c1.4453125,0,2.7246094,0.1928711,3.8378906,0.5786133s2.0166016,0.871582,2.7099609,1.4575195
		s1.2158203,1.2060547,1.5673828,1.8603516s0.5273438,1.2353516,0.5273438,1.7431641
		c0,0.546875-0.2021484,1.0131836-0.6083984,1.3989258c-0.4042969,0.3857422-0.890625,0.5786133-1.4570313,0.5786133
		c-0.3125,0-0.6132813-0.0732422-0.9003906-0.2197266c-0.2890625-0.1464844-0.5302734-0.3515625-0.7255859-0.6152344
		c-0.5371094-0.8398438-0.9912109-1.4746094-1.3623047-1.9042969s-0.8710938-0.7910156-1.5019531-1.0839844
		c-0.6289063-0.2929688-1.4326172-0.4394531-2.4091797-0.4394531c-1.0058594,0-1.9042969,0.1733398-2.6953125,0.5200195
		s-1.4672852,0.8496094-2.0288086,1.5087891s-0.9912109,1.4672852-1.2890625,2.4243164s-0.4467773,2.0166016-0.4467773,3.1787109
		c0,2.5195313,0.5786133,4.4580078,1.7358398,5.8154297s2.7709961,2.0361328,4.8413086,2.0361328
		c1.0058594,0,1.9501953-0.1318359,2.8349609-0.3955078c0.8828125-0.2636719,1.7792969-0.6396484,2.6875-1.1279297v-3.4863281
		h-3.3691406c-0.8105469,0-1.4238281-0.1220703-1.8378906-0.3662109c-0.4155273-0.2441406-0.6230469-0.6591797-0.6230469-1.2451172
		c0-0.4785156,0.1733398-0.8740234,0.5195313-1.1865234c0.3476563-0.3125,0.8183594-0.46875,1.4140625-0.46875h4.9365234
		c0.6054688,0,1.1181641,0.0537109,1.5380859,0.1611328s0.7597656,0.3466797,1.0175781,0.7177734
		C31.8710938,21.6044922,32,22.1611328,32,22.9033203z"/>
</g>
</svg>
