<?xml version="1.0" encoding="utf-8"?>
<!-- Generator: Adobe Illustrator 16.0.3, SVG Export Plug-In . SVG Version: 6.00 Build 0)  -->
<!DOCTYPE svg PUBLIC "-//W3C//DTD SVG 1.1//EN" "http://www.w3.org/Graphics/SVG/1.1/DTD/svg11.dtd">
<svg version="1.1" id="Public_Facilities_-_CAT_C_-_Roads_and_Bridges_-_Damage_Assessment_1_"
	 xmlns="http://www.w3.org/2000/svg" xmlns:xlink="http://www.w3.org/1999/xlink" x="0px" y="0px" width="44px" height="44px"
	 viewBox="0 0 44 44" enable-background="new 0 0 44 44" xml:space="preserve">
<circle fill="#FFFFFF" cx="22" cy="22" r="21"/>
<path fill="#1873CD" d="M22.0009766,40.90625C11.5234375,40.90625,3,32.4033203,3,21.9526367
	C3,11.5024414,11.5234375,3,22.0009766,3C32.4755859,3,41,11.5024414,41,21.9526367
	C41,32.4033203,32.4755859,40.90625,22.0009766,40.90625z"/>
<path fill="#1F8FFF" d="M22.0009766,40C12.0751953,40,4,31.9257813,4,21.9995117C4,12.074707,12.0751953,4,22.0009766,4
	C31.9257813,4,40,12.074707,40,21.9995117C40,31.9257813,31.9257813,40,22.0009766,40z"/>
<g>
	<path fill="#FFFFFF" d="M31.5732422,25.9550781c0,0.6835938-0.1689453,1.4238281-0.5048828,2.21875
		c-0.3378906,0.796875-0.8671875,1.578125-1.5898438,2.34375c-0.7226563,0.7675781-1.6455078,1.3896484-2.7685547,1.8681641
		s-2.4316406,0.7177734-3.9257813,0.7177734c-1.1328125,0-2.1630859-0.1074219-3.0908203-0.3222656
		s-1.7705078-0.5498047-2.5273438-1.0029297c-0.7568359-0.4550781-1.4521484-1.0527344-2.0869141-1.7949219
		c-0.5664063-0.6738281-1.0498047-1.4287109-1.4501953-2.2626953c-0.4003906-0.8359375-0.7011719-1.7265625-0.9013672-2.6738281
		s-0.2998047-1.953125-0.2998047-3.0175781c0-1.7285156,0.2509766-3.2763672,0.7539063-4.6435547
		s1.2236328-2.5366211,2.1611328-3.5083008s2.0361328-1.7114258,3.2958984-2.2192383s2.6025391-0.7617188,4.0283203-0.7617188
		c1.7382813,0,3.2861328,0.3466797,4.6435547,1.0400391s2.3974609,1.550293,3.1201172,2.5708008
		s1.0839844,1.9848633,1.0839844,2.8930664c0,0.4980469-0.1757813,0.9375-0.5273438,1.3183594
		s-0.7763672,0.5712891-1.2744141,0.5712891c-0.5566406,0-0.9746094-0.1318359-1.2519531-0.3955078
		c-0.2792969-0.2636719-0.5888672-0.7177734-0.9306641-1.3623047c-0.5664063-1.0644531-1.2333984-1.8603516-1.9990234-2.3876953
		c-0.7675781-0.5273438-1.7119141-0.7910156-2.8349609-0.7910156c-1.7871094,0-3.2109375,0.6787109-4.2705078,2.0361328
		s-1.5888672,3.2861328-1.5888672,5.7861328c0,1.6699219,0.234375,3.0585938,0.703125,4.1679688
		c0.46875,1.1074219,1.1328125,1.9355469,1.9921875,2.4824219s1.8652344,0.8203125,3.0175781,0.8203125
		c1.25,0,2.3076172-0.3105469,3.1708984-0.9296875c0.8652344-0.6210938,1.5166016-1.53125,1.9560547-2.7324219
		c0.1855469-0.5664063,0.4150391-1.0273438,0.6884766-1.3847656c0.2734375-0.3554688,0.7128906-0.5341797,1.3183594-0.5341797
		c0.5175781,0,0.9619141,0.1806641,1.3330078,0.5419922S31.5732422,25.4179688,31.5732422,25.9550781z"/>
</g>
</svg>
