<?xml version="1.0" encoding="utf-8"?>
<!-- Generator: Adobe Illustrator 16.0.3, SVG Export Plug-In . SVG Version: 6.00 Build 0)  -->
<!DOCTYPE svg PUBLIC "-//W3C//DTD SVG 1.1//EN" "http://www.w3.org/Graphics/SVG/1.1/DTD/svg11.dtd">
<svg version="1.1" id="Public_Facilities_-_CAT_D_-_Water_Control_Facilities_-_Damage_Assessment_1_"
	 xmlns="http://www.w3.org/2000/svg" xmlns:xlink="http://www.w3.org/1999/xlink" x="0px" y="0px" width="44px" height="44px"
	 viewBox="0 0 44 44" enable-background="new 0 0 44 44" xml:space="preserve">
<circle fill="#FFFFFF" cx="22" cy="22" r="21"/>
<path fill="#1873CD" d="M22.0009766,40.90625C11.5234375,40.90625,3,32.4033203,3,21.9526367
	C3,11.5024414,11.5234375,3,22.0009766,3C32.4755859,3,41,11.5024414,41,21.9526367
	C41,32.4033203,32.4755859,40.90625,22.0009766,40.90625z"/>
<path fill="#1F8FFF" d="M22.0009766,40C12.0751953,40,4,31.9257813,4,22c0-9.9248047,8.0751953-18,18.0009766-18
	C31.9257813,4,40,12.0751953,40,22C40,31.9257813,31.9257813,40,22.0009766,40z"/>
<g>
	<path fill="#FFFFFF" d="M16.6660156,11h5.6689453c1.4746094,0,2.7392578,0.1367188,3.7939453,0.4101563
		S28.140625,12.1962891,29,12.9482422c2.2363281,1.9140625,3.3544922,5.3486328,3.3544922,9.2548828
		c0,1.2890625-0.1123047,2.4658203-0.3369141,3.53125c-0.2246094,1.0644531-0.5712891,2.0234375-1.0400391,2.8769531
		c-0.46875,0.8554688-1.0693359,1.6191406-1.8017578,2.2929688c-0.5761719,0.5175781-1.2060547,0.9335938-1.8896484,1.2460938
		s-1.4189453,0.53125-2.2041016,0.6582031C24.2949219,32.9355469,23.4091797,33,22.4228516,33h-5.6689453
		c-0.7910156,0-1.3867188-0.1191406-1.7871094-0.359375c-0.4003906-0.2382813-0.6611328-0.5761719-0.7832031-1.0097656
		C14.0615234,31.1953125,14,30.6308594,14,29.9375V14.1904297c0-0.9375,0.2099609-1.6162109,0.6298828-2.0361328
		S15.7285156,11,16.6660156,11z M18,14v16h3.6464844c0.7226563,0,1.2890625-0.0195313,1.6992188-0.0585938
		s0.8349609-0.1367188,1.2744141-0.2929688s0.8203125-0.3769531,1.1425781-0.6601563
		c1.4550781-1.2304688,2.1826172-3.8066406,2.1826172-6.8144531c0-2.1191406-0.3203125-4.7060547-0.9589844-5.7607422
		c-0.640625-1.0546875-1.4287109-1.7255859-2.3662109-2.0136719S22.5498047,14,21.2216797,14H18z"/>
</g>
</svg>
