<?xml version="1.0" encoding="utf-8"?>
<!-- Generator: Adobe Illustrator 16.0.3, SVG Export Plug-In . SVG Version: 6.00 Build 0)  -->
<!DOCTYPE svg PUBLIC "-//W3C//DTD SVG 1.1//EN" "http://www.w3.org/Graphics/SVG/1.1/DTD/svg11.dtd">
<svg version="1.1" id="Public_Facilities_-_CAT_E_-_Public_Buildings_-_Damage_Assessment_1_"
	 xmlns="http://www.w3.org/2000/svg" xmlns:xlink="http://www.w3.org/1999/xlink" x="0px" y="0px" width="44px" height="44px"
	 viewBox="0 0 44 44" enable-background="new 0 0 44 44" xml:space="preserve">
<circle fill="#FFFFFF" cx="22" cy="22" r="21"/>
<path fill="#1873CD" d="M22.0009766,40.90625C11.5234375,40.90625,3,32.4033203,3,21.9526367
	C3,11.5024414,11.5234375,3,22.0009766,3C32.4755859,3,41,11.5024414,41,21.9526367
	C41,32.4033203,32.4755859,40.90625,22.0009766,40.90625z"/>
<path fill="#1F8FFF" d="M22,40c-9.9248047,0-18-8.0742188-18-18.0004883C4,12.074707,12.0751953,4,22,4
	c9.9257813,0,18,8.074707,18,17.9995117C40,31.9257813,31.9257813,40,22,40z"/>
<g>
	<path fill="#FFFFFF" d="M28.5400391,13H18v6h9.7451172c0.6796875,0,1.1875,0.152832,1.5214844,0.4575195
		c0.3369141,0.3051758,0.5039063,0.5449219,0.5039063,1.0449219s-0.1650391,0.6630859-0.4951172,0.9780273
		C28.9453125,21.7958984,28.4345703,22,27.7451172,22H18v7h10.8847656c0.7001953,0,1.2285156,0.1630859,1.5830078,0.4873047
		C30.8232422,29.8134766,31,29.9130859,31,30.453125c0,0.5205078-0.1767578,0.7294922-0.5322266,1.0537109
		c-0.3544922,0.3261719-0.8828125,0.4882813-1.5830078,0.4882813H16.7773438c-0.9707031,0-1.6679688-0.2148438-2.0932617-0.6455078
		c-0.425293-0.4296875-0.6606445-1.0224609-0.6606445-1.9824219V12.7304688c0-0.6401367,0.1181641-1.1625977,0.3081055-1.5678711
		c0.1899414-0.4047852,0.487793-0.7001953,0.8925781-0.8852539C15.6293945,10.0922852,16.1469727,10,16.7773438,10h11.7626953
		c0.7099609,0,1.2373047,0.1577148,1.5830078,0.4726563c0.3447266,0.3149414,0.5332031,0.4858398,0.5332031,0.9960938
		c0,0.5200195-0.1884766,0.7431641-0.5332031,1.0585938C29.7773438,12.8422852,29.25,13,28.5400391,13z"/>
</g>
</svg>
