<?xml version="1.0" encoding="utf-8"?>
<!-- Generator: Adobe Illustrator 16.0.3, SVG Export Plug-In . SVG Version: 6.00 Build 0)  -->
<!DOCTYPE svg PUBLIC "-//W3C//DTD SVG 1.1//EN" "http://www.w3.org/Graphics/SVG/1.1/DTD/svg11.dtd">
<svg version="1.1" id="Dangerous_Animal" xmlns="http://www.w3.org/2000/svg" xmlns:xlink="http://www.w3.org/1999/xlink" x="0px"
	 y="0px" width="44px" height="44px" viewBox="0 0 44 44" enable-background="new 0 0 44 44" xml:space="preserve">
<circle fill="#FFFFFF" cx="22" cy="22" r="21"/>
<path fill="#BF6B04" d="M22.0009766,40.90625C11.5234375,40.90625,3,32.4033203,3,21.9526367
	C3,11.5024414,11.5234375,3,22.0009766,3C32.4755859,3,41,11.5024414,41,21.9526367
	C41,32.4033203,32.4755859,40.90625,22.0009766,40.90625z"/>
<path fill="#F28705" d="M22.0009766,40C12.0751953,40,4,31.9257813,4,22c0-9.9248047,8.0751953-18,18.0009766-18
	C31.9257813,4,40,12.0751953,40,22C40,31.9257813,31.9257813,40,22.0009766,40z"/>
<path fill="#FFFFFF" d="M22.0527344,22.0527344c-4.4492188,0.1186523-14.6137695,9.0917969-11.2597656,10.9326172
	C12.8125,34.09375,19.3125,32,21.9375,31.96875c2.9560547-0.0351563,8.3125,2.1875,11.1074219,1.0166016
	C36.6933594,31.4570313,26,21.9472656,22.0527344,22.0527344z"/>
<path fill="#FFFFFF" d="M11,21.5c0,1.3808594-0.6713867,2.5-1.5,2.5S8,22.8808594,8,21.5S8.6713867,19,9.5,19S11,20.1191406,11,21.5
	z M15,15c-1.1040039,0-2,1.3432617-2,3s0.8959961,3,2,3s2-1.3432617,2-3S16.1040039,15,15,15z M22,12
	c-1.1044922,0-2,1.5668945-2,3.5s0.8955078,3.5,2,3.5s2-1.5668945,2-3.5S23.1044922,12,22,12z M34.5,20.0791016
	c-0.828125,0-1.5,1.1191406-1.5,2.5s0.671875,2.5,1.5,2.5s1.5-1.1191406,1.5-2.5S35.328125,20.0791016,34.5,20.0791016z
	 M29,15.0791016c-1.1035156,0-2,1.3432617-2,3s0.8964844,3,2,3s2-1.3432617,2-3S30.1035156,15.0791016,29,15.0791016z"/>
<path fill="#FFFFFF" d="M8,17c0,0,1.6025391-4.2490234,2.8183594-3.9882813c0.3374023,0.0717773,0.1240234,1.7602539,0,1.9941406
	C10.5424805,15.527832,9.4091797,17,9.4091797,17H8z"/>
<path fill="#FFFFFF" d="M14,13c0,0,1.6025391-4.2490234,2.8183594-3.9882813c0.3374023,0.0717773,0.1240234,1.7607422,0,1.9941406
	C16.5429688,11.527832,15.4091797,13,15.4091797,13H14z"/>
<path fill="#FFFFFF" d="M21,10c0,0,1.6025391-4.2490234,2.8183594-3.9882813c0.3369141,0.0717773,0.1240234,1.7602539,0,1.9941406
	C23.5429688,8.527832,22.4091797,10,22.4091797,10H21z"/>
<path fill="#FFFFFF" d="M30,13c0,0-1.6025391-4.2490234-2.8183594-3.9882813c-0.3369141,0.0717773-0.1240234,1.7602539,0,1.9941406
	C27.4570313,11.527832,28.5908203,13,28.5908203,13H30z"/>
<path fill="#FFFFFF" d="M36,18c0,0-1.6035156-4.2490234-2.8183594-3.9882813c-0.3378906,0.0717773-0.1240234,1.7602539,0,1.9941406
	C33.4570313,16.527832,34.5908203,18,34.5908203,18H36z"/>
</svg>
