<?xml version="1.0" encoding="utf-8"?>
<!-- Generator: Adobe Illustrator 16.0.3, SVG Export Plug-In . SVG Version: 6.00 Build 0)  -->
<!DOCTYPE svg PUBLIC "-//W3C//DTD SVG 1.1//EN" "http://www.w3.org/Graphics/SVG/1.1/DTD/svg11.dtd">
<svg version="1.1" id="Discharge_Point" xmlns="http://www.w3.org/2000/svg" xmlns:xlink="http://www.w3.org/1999/xlink" x="0px"
	 y="0px" width="44px" height="44px" viewBox="0 0 44 44" enable-background="new 0 0 44 44" xml:space="preserve">
<circle fill="#FFFFFF" cx="22" cy="22" r="21"/>
<path fill="#1873CD" d="M22.0009766,40.90625C11.5234375,40.90625,3,32.4033203,3,21.9526367
	C3,11.5024414,11.5234375,3,22.0009766,3C32.4755859,3,41,11.5024414,41,21.9526367
	C41,32.4033203,32.4755859,40.90625,22.0009766,40.90625z"/>
<path fill="#1F8FFF" d="M22.0009766,40C12.0751953,40,4,31.9257813,4,22c0-9.9248047,8.0751953-18,18.0009766-18
	C31.9257813,4,40,12.0751953,40,22C40,31.9257813,31.9257813,40,22.0009766,40z"/>
<rect x="10" y="10" fill="#FFFFFF" width="23.9804688" height="23.984375"/>
<rect x="12" y="12" fill="#1F8FFF" width="20" height="20"/>
<path fill="#FFFFFF" d="M34,21.9902344c0,1.4863281-0.421875,3.3125-1.2666016,5.4824219l-2.6035156-2.5371094
	c0,0.8251953-0.6699219,1.8144531-1.9912109,2.9824219c-0.53125,0.4560547-1.0507813,0.8623047-1.5664063,1.2177734
	c-0.515625,0.3535156-1.0341797,0.65625-1.5654297,0.9033203l2.5429688,2.6083984
	c-1.5136719,0.8916016-3.3496094,1.3369141-5.5244141,1.3369141c-1.3959961,0-3.2709961-0.46875-5.6264648-1.40625l2.434082-2.46875
	c0-0.1162109-0.2993164-0.3076172-0.8901367-0.5800781c-0.3930664-0.2050781-0.7026367-0.3671875-0.9448242-0.4824219
	c-0.2382813-0.1132813-0.3798828-0.1914063-0.4257813-0.2382813c-0.8505859-0.6152344-1.8017578-1.9101563-2.855957-3.8730469
	l-2.3652344,2.46875c-0.8676758-2.1474609-1.3012695-3.9511719-1.3012695-5.4140625
	c0-1.4169922,0.4335938-3.2329102,1.3012695-5.4482422l2.3652344,2.2963867c0-0.8217773,0.6889648-1.8164063,2.0605469-2.9794922
	c0.5273438-0.4335938,1.0424805-0.8261719,1.5463867-1.1674805c0.5024414-0.3417969,1.0063477-0.6601563,1.5097656-0.9599609
	l-2.3671875-2.3613281c1.5058594-0.890625,3.362793-1.3354492,5.5576172-1.3354492
	c1.5302734,0,3.3525391,0.4223633,5.4599609,1.2666016l-2.4765625,2.4301758
	c0.3007813,0.1381836,0.6728516,0.3383789,1.1191406,0.6030273c0.4462891,0.2612305,0.9648438,0.5878906,1.5664063,0.9750977
	c0.6601563,0.5727539,1.4765625,1.7470703,2.4375,3.5288086l2.4658203-2.5341797C33.53125,18.7226563,34,20.6196289,34,21.9902344z
	 M29.1308594,21.8515625c0-2.0302734-0.6904297-3.7192383-2.0908203-5.0673828
	c-1.3544922-1.3242188-3.0527344-1.9892578-5.1186523-1.9892578c-2.0341797,0-3.7304688,0.6762695-5.0795898,2.0239258
	c-1.3725586,1.3481445-2.0615234,3.0258789-2.0615234,5.0327148c0,2.0820313,0.6889648,3.7939453,2.0615234,5.1396484
	c1.3725586,1.3730469,3.0688477,2.0556641,5.0795898,2.0556641c2.0424805,0,3.7416992-0.6826172,5.1186523-2.0556641
	C28.4404297,25.5996094,29.1308594,23.8867188,29.1308594,21.8515625z"/>
</svg>
