<?xml version="1.0" encoding="utf-8"?>
<!-- Generator: Adobe Illustrator 16.0.3, SVG Export Plug-In . SVG Version: 6.00 Build 0)  -->
<!DOCTYPE svg PUBLIC "-//W3C//DTD SVG 1.1//EN" "http://www.w3.org/Graphics/SVG/1.1/DTD/svg11.dtd">
<svg version="1.1" id="Dissatisfied_Customer" xmlns="http://www.w3.org/2000/svg" xmlns:xlink="http://www.w3.org/1999/xlink"
	 x="0px" y="0px" width="44px" height="44px" viewBox="0 0 44 44" enable-background="new 0 0 44 44" xml:space="preserve">
<circle fill="#FFFFFF" cx="22" cy="22" r="21"/>
<path fill="#C70101" d="M22.0009766,40.90625C11.5234375,40.90625,3,32.4033203,3,21.9526367
	C3,11.5024414,11.5234375,3,22.0009766,3C32.4755859,3,41,11.5024414,41,21.9526367
	C41,32.4033203,32.4755859,40.90625,22.0009766,40.90625z"/>
<path fill="#FB0101" d="M22.0009766,40C12.0751953,40,4,31.9257813,4,22c0-9.9248047,8.0751953-18,18.0009766-18
	C31.9257813,4,40,12.0751953,40,22C40,31.9257813,31.9257813,40,22.0009766,40z"/>
<path fill="#FFFFFF" d="M22,7c-4.1064453,0-7.5,3.4599609-7.5,7.5380859C14.5,18.6333008,17.8935547,22,22,22
	c4.1025391,0,7.5-3.3666992,7.5-7.4619141C29.5,10.4599609,26.1025391,7,22,7z"/>
<path fill="#FFFFFF" d="M9,33h26v-2.5380859C35,27.6728516,31.8349609,24,22,24c-9.855957,0-13,3.6728516-13,6.4619141V33z"/>
<circle fill="#FB0101" cx="19.5" cy="11.4990234" r="1.5"/>
<circle fill="#FB0101" cx="24.5" cy="11.4990234" r="1.5"/>
<path fill="#FB0101" d="M18,19c0-5,8-5,8,0"/>
</svg>
