<?xml version="1.0" encoding="utf-8"?>
<!-- Generator: Adobe Illustrator 16.0.3, SVG Export Plug-In . SVG Version: 6.00 Build 0)  -->
<!DOCTYPE svg PUBLIC "-//W3C//DTD SVG 1.1//EN" "http://www.w3.org/Graphics/SVG/1.1/DTD/svg11.dtd">
<svg version="1.1" id="Ditch_and_Channel_Stabilization_Violations"
	 xmlns="http://www.w3.org/2000/svg" xmlns:xlink="http://www.w3.org/1999/xlink" x="0px" y="0px" width="44px" height="44px"
	 viewBox="0 0 44 44" enable-background="new 0 0 44 44" xml:space="preserve">
<circle fill="#FFFFFF" cx="22" cy="22" r="21"/>
<path fill="#AE0101" d="M22.0009766,40.90625C11.5234375,40.90625,3,32.4033203,3,21.9526367
	C3,11.5024414,11.5234375,3,22.0009766,3C32.4755859,3,41,11.5024414,41,21.9526367
	C41,32.4033203,32.4755859,40.90625,22.0009766,40.90625z"/>
<path fill="#FB3333" d="M22,40c-9.9248047,0-18-8.0742188-18-18.0004883C4,12.074707,12.0751953,4,22,4
	c9.9257813,0,18,8.074707,18,17.9995117C40,31.9257813,31.9257813,40,22,40z"/>
<g>
	<path fill="#FFFFFF" d="M7.5078125,15.7714844H10.53125c0.7861328,0,1.4609375,0.0732422,2.0234375,0.21875
		c0.5625,0.1459961,1.0727539,0.4194336,1.53125,0.8203125C15.2783203,17.831543,15.875,19.3837891,15.875,21.4667969
		c0,0.6875-0.0600586,1.3154297-0.1796875,1.8828125c-0.1201172,0.5683594-0.3046875,1.0800781-0.5546875,1.5351563
		c-0.25,0.4560547-0.5703125,0.8632813-0.9609375,1.2226563c-0.3076172,0.2763672-0.6435547,0.4980469-1.0078125,0.6640625
		c-0.3647461,0.1669922-0.7568359,0.2841797-1.1757813,0.3515625c-0.4194336,0.0683594-0.8920898,0.1015625-1.4179688,0.1015625
		H7.5546875c-0.421875,0-0.7397461-0.0634766-0.953125-0.1914063c-0.2138672-0.1269531-0.3530273-0.3066406-0.4179688-0.5390625
		c-0.0654297-0.2314453-0.0976563-0.5322266-0.0976563-0.9023438v-8.3984375c0-0.5,0.1118164-0.8618164,0.3359375-1.0859375
		C6.6455078,15.8837891,7.0078125,15.7714844,7.5078125,15.7714844z M8.40625,17.6074219v7.7734375h1.7578125
		c0.3852539,0,0.6875-0.0097656,0.90625-0.03125c0.21875-0.0205078,0.4453125-0.0722656,0.6796875-0.15625
		c0.234375-0.0830078,0.4375-0.2001953,0.609375-0.3515625c0.7758789-0.65625,1.1640625-1.7861328,1.1640625-3.390625
		c0-1.1298828-0.1708984-1.9765625-0.5117188-2.5390625C12.6704102,18.3496094,12.25,17.9916992,11.75,17.8378906
		c-0.5-0.1533203-1.1044922-0.2304688-1.8125-0.2304688H8.40625z"/>
	<path fill="#FFFFFF" d="M27.671875,23.6074219c0,0.3652344-0.0898438,0.7597656-0.2695313,1.1835938
		c-0.1796875,0.4248047-0.4619141,0.8417969-0.8476563,1.25c-0.3857422,0.4091797-0.8779297,0.7412109-1.4765625,0.9960938
		s-1.296875,0.3828125-2.09375,0.3828125c-0.6044922,0-1.1533203-0.0576172-1.6484375-0.171875
		s-0.9443359-0.2929688-1.3476563-0.5351563S19.2138672,26.1523438,18.875,25.7558594
		c-0.3017578-0.359375-0.5595703-0.7617188-0.7734375-1.2070313s-0.3740234-0.9199219-0.4804688-1.4257813
		c-0.1064453-0.5048828-0.1601563-1.0415039-0.1601563-1.609375c0-0.921875,0.1337891-1.7470703,0.4023438-2.4765625
		c0.2685547-0.7290039,0.6523438-1.3525391,1.1523438-1.8710938c0.5-0.5180664,1.0859375-0.9125977,1.7578125-1.1835938
		c0.671875-0.2705078,1.3876953-0.40625,2.1484375-0.40625c0.9267578,0,1.7529297,0.1850586,2.4765625,0.5546875
		c0.7236328,0.3701172,1.2783203,0.8271484,1.6640625,1.3710938c0.3857422,0.5444336,0.578125,1.0585938,0.578125,1.5429688
		c0,0.265625-0.09375,0.5-0.28125,0.703125s-0.4140625,0.3046875-0.6796875,0.3046875
		c-0.296875,0-0.5195313-0.0703125-0.6679688-0.2109375s-0.3134766-0.3828125-0.4960938-0.7265625
		c-0.3017578-0.5673828-0.6572266-0.9921875-1.0664063-1.2734375s-0.9130859-0.421875-1.5117188-0.421875
		c-0.953125,0-1.7119141,0.3623047-2.2773438,1.0859375C20.0947266,19.2299805,19.8125,20.2587891,19.8125,21.5917969
		c0,0.890625,0.125,1.6318359,0.375,2.2226563c0.25,0.5917969,0.6044922,1.0332031,1.0625,1.3242188
		c0.4580078,0.2919922,0.9951172,0.4375,1.609375,0.4375c0.6669922,0,1.2304688-0.1650391,1.6914063-0.4960938
		C25.0117188,24.75,25.359375,24.2636719,25.59375,23.6230469c0.0986328-0.3017578,0.2216797-0.5478516,0.3671875-0.7382813
		c0.1455078-0.1899414,0.3798828-0.2851563,0.703125-0.2851563c0.2763672,0,0.5126953,0.0966797,0.7109375,0.2890625
		C27.5732422,23.0820313,27.671875,23.3212891,27.671875,23.6074219z"/>
	<path fill="#FFFFFF" d="M38.4609375,23.7871094c0,0.6933594-0.1787109,1.3154297-0.5351563,1.8671875
		c-0.3564453,0.5527344-0.8789063,0.984375-1.5664063,1.296875s-1.5029297,0.46875-2.4453125,0.46875
		c-1.1298828,0-2.0625-0.2128906-2.796875-0.640625c-0.5205078-0.3066406-0.9443359-0.7167969-1.2695313-1.2304688
		c-0.3251953-0.5126953-0.4882813-1.0117188-0.4882813-1.4960938c0-0.28125,0.0976563-0.5214844,0.2929688-0.7226563
		c0.1953125-0.2001953,0.4443359-0.3007813,0.7460938-0.3007813c0.2451172,0,0.4521484,0.078125,0.6210938,0.234375
		s0.3134766,0.3886719,0.4335938,0.6953125c0.1455078,0.3652344,0.3037109,0.6699219,0.4726563,0.9140625
		c0.1689453,0.2451172,0.4072266,0.4472656,0.7148438,0.6054688c0.3076172,0.1591797,0.7109375,0.2382813,1.2109375,0.2382813
		c0.6875,0,1.2460938-0.1601563,1.6757813-0.4804688s0.6445313-0.7197266,0.6445313-1.1992188
		c0-0.3798828-0.1162109-0.6884766-0.3476563-0.9257813c-0.2314453-0.2368164-0.53125-0.4179688-0.8984375-0.5429688
		s-0.8583984-0.2578125-1.4726563-0.3984375c-0.8232422-0.1923828-1.5117188-0.4179688-2.0664063-0.6757813
		s-0.9951172-0.609375-1.3203125-1.0546875s-0.4882813-0.9985352-0.4882813-1.6601563
		c0-0.6298828,0.171875-1.1899414,0.515625-1.6796875c0.34375-0.4892578,0.8408203-0.8657227,1.4921875-1.1289063
		c0.6513672-0.2626953,1.4169922-0.3945313,2.296875-0.3945313c0.703125,0,1.3115234,0.0874023,1.8242188,0.2617188
		c0.5126953,0.1748047,0.9384766,0.40625,1.2773438,0.6953125s0.5859375,0.5927734,0.7421875,0.9101563
		c0.15625,0.3178711,0.234375,0.6279297,0.234375,0.9296875c0,0.2763672-0.0976563,0.5249023-0.2929688,0.7460938
		c-0.1953125,0.2216797-0.4384766,0.3320313-0.7304688,0.3320313c-0.265625,0-0.4677734-0.0664063-0.6054688-0.1992188
		s-0.2880859-0.3500977-0.4492188-0.6523438c-0.2080078-0.4321289-0.4580078-0.7695313-0.75-1.0117188
		s-0.7607422-0.3632813-1.40625-0.3632813c-0.5986328,0-1.0820313,0.1318359-1.4492188,0.3945313
		c-0.3671875,0.2631836-0.5507813,0.5795898-0.5507813,0.9492188c0,0.2294922,0.0625,0.4272461,0.1875,0.59375
		c0.125,0.1669922,0.296875,0.3100586,0.515625,0.4296875c0.21875,0.1201172,0.4404297,0.2138672,0.6640625,0.28125
		c0.2236328,0.0678711,0.59375,0.1669922,1.109375,0.296875c0.6455078,0.1513672,1.2304688,0.3178711,1.7539063,0.5
		c0.5234375,0.1826172,0.96875,0.4038086,1.3359375,0.6640625c0.3671875,0.2607422,0.6533203,0.5898438,0.859375,0.9882813
		S38.4609375,23.2089844,38.4609375,23.7871094z"/>
</g>
</svg>
