<?xml version="1.0" encoding="utf-8"?>
<!-- Generator: Adobe Illustrator 16.0.3, SVG Export Plug-In . SVG Version: 6.00 Build 0)  -->
<!DOCTYPE svg PUBLIC "-//W3C//DTD SVG 1.1//EN" "http://www.w3.org/Graphics/SVG/1.1/DTD/svg11.dtd">
<svg version="1.1" id="Drainage_Management_Violations"
	 xmlns="http://www.w3.org/2000/svg" xmlns:xlink="http://www.w3.org/1999/xlink" x="0px" y="0px" width="44px" height="44px"
	 viewBox="0 0 44 44" enable-background="new 0 0 44 44" xml:space="preserve">
<circle fill="#FFFFFF" cx="22" cy="22" r="21"/>
<path fill="#AE0101" d="M22.001,40.906C11.523,40.906,3,32.403,3,21.953C3,11.502,11.523,3,22.001,3C32.476,3,41,11.502,41,21.953
	C41,32.403,32.476,40.906,22.001,40.906z"/>
<path fill="#FB3333" d="M22,40c-9.925,0-18-8.074-18-18c0-9.925,8.075-18,18-18s18,8.075,18,18C40,31.926,31.926,40,22,40z"/>
<g>
	<path fill="#FFFFFF" d="M12.102,15.771h3.023c0.786,0,1.461,0.073,2.023,0.219c0.563,0.146,1.073,0.419,1.531,0.82
		c1.192,1.021,1.789,2.573,1.789,4.656c0,0.688-0.06,1.315-0.18,1.883c-0.12,0.568-0.305,1.08-0.555,1.535
		c-0.25,0.456-0.57,0.863-0.961,1.223c-0.308,0.276-0.644,0.498-1.008,0.664c-0.364,0.167-0.757,0.284-1.176,0.352
		c-0.419,0.068-0.892,0.102-1.418,0.102h-3.023c-0.422,0-0.74-0.063-0.953-0.191c-0.214-0.127-0.353-0.307-0.418-0.539
		c-0.065-0.231-0.098-0.532-0.098-0.902v-8.398c0-0.5,0.112-0.862,0.336-1.086C11.239,15.884,11.602,15.771,12.102,15.771z
		 M13,17.607v7.773h1.758c0.386,0,0.688-0.01,0.906-0.031c0.219-0.021,0.445-0.072,0.68-0.156c0.234-0.083,0.438-0.2,0.609-0.352
		c0.776-0.656,1.164-1.786,1.164-3.391c0-1.13-0.171-1.977-0.512-2.539s-0.762-0.92-1.262-1.074c-0.5-0.153-1.104-0.23-1.813-0.23
		H13z"/>
	<path fill="#FFFFFF" d="M26.375,25.498l-1.836-7.297v7.906c0,0.438-0.098,0.766-0.293,0.984s-0.454,0.328-0.777,0.328
		c-0.313,0-0.567-0.108-0.766-0.324s-0.297-0.545-0.297-0.988v-9.063c0-0.5,0.13-0.837,0.391-1.012
		c0.261-0.174,0.612-0.262,1.055-0.262h0.719c0.433,0,0.746,0.039,0.941,0.117s0.34,0.219,0.434,0.422s0.2,0.534,0.32,0.992
		l1.664,6.273l1.664-6.273c0.12-0.458,0.227-0.789,0.32-0.992s0.238-0.344,0.434-0.422s0.509-0.117,0.941-0.117h0.719
		c0.442,0,0.794,0.087,1.055,0.262c0.261,0.175,0.391,0.512,0.391,1.012v9.063c0,0.438-0.098,0.766-0.293,0.984
		s-0.457,0.328-0.785,0.328c-0.308,0-0.56-0.109-0.758-0.328s-0.297-0.547-0.297-0.984v-7.906l-1.836,7.297
		c-0.12,0.475-0.218,0.822-0.293,1.043c-0.075,0.222-0.215,0.424-0.418,0.605s-0.484,0.273-0.844,0.273
		c-0.271,0-0.5-0.059-0.688-0.176s-0.333-0.267-0.438-0.449c-0.104-0.182-0.187-0.384-0.246-0.605
		C26.499,25.969,26.438,25.738,26.375,25.498z"/>
</g>
</svg>
