<?xml version="1.0" encoding="utf-8"?>
<!-- Generator: Adobe Illustrator 16.0.3, SVG Export Plug-In . SVG Version: 6.00 Build 0)  -->
<!DOCTYPE svg PUBLIC "-//W3C//DTD SVG 1.1//EN" "http://www.w3.org/Graphics/SVG/1.1/DTD/svg11.dtd">
<svg version="1.1" id="Erosion_Protection_-_Violations"
	 xmlns="http://www.w3.org/2000/svg" xmlns:xlink="http://www.w3.org/1999/xlink" x="0px" y="0px" width="44px" height="44px"
	 viewBox="0 0 44 44" enable-background="new 0 0 44 44" xml:space="preserve">
<circle fill="#FFFFFF" cx="22" cy="22" r="21"/>
<path fill="#AE0101" d="M22.0009766,40.90625C11.5234375,40.90625,3,32.4033203,3,21.9526367
	C3,11.5024414,11.5234375,3,22.0009766,3C32.4755859,3,41,11.5024414,41,21.9526367
	C41,32.4033203,32.4755859,40.90625,22.0009766,40.90625z"/>
<path fill="#FB3333" d="M22.0004883,40C12.0751953,40,4,31.9257813,4,21.9995117C4,12.074707,12.0751953,4,22.0004883,4
	S40,12.074707,40,21.9995117C40,31.9257813,31.9257813,40,22.0004883,40z"/>
<g>
	<path fill="#FFFFFF" d="M20.125,17.5605469h-5.2265625v2.8125h4.8125c0.3540039,0,0.6181641,0.0795898,0.7929688,0.2382813
		c0.1743164,0.1591797,0.2617188,0.3686523,0.2617188,0.6289063c0,0.2607422-0.0859375,0.4726563-0.2578125,0.6367188
		s-0.4375,0.2460938-0.796875,0.2460938h-4.8125v3.2578125h5.40625c0.3642578,0,0.6391602,0.0849609,0.8242188,0.2539063
		c0.1845703,0.1699219,0.2773438,0.3945313,0.2773438,0.6757813c0,0.2714844-0.0927734,0.4912109-0.2773438,0.6601563
		c-0.1850586,0.1699219-0.4599609,0.2539063-0.8242188,0.2539063H14c-0.5053711,0-0.8686523-0.1113281-1.0898438-0.3359375
		c-0.2216797-0.2236328-0.3320313-0.5859375-0.3320313-1.0859375v-8.609375c0-0.3330078,0.0493164-0.6054688,0.1484375-0.8164063
		c0.0986328-0.2109375,0.2539063-0.3642578,0.4648438-0.4609375C13.4023438,15.8198242,13.671875,15.7714844,14,15.7714844h6.125
		c0.3696289,0,0.6445313,0.0820313,0.8242188,0.2460938s0.2695313,0.3789063,0.2695313,0.6445313
		c0,0.2709961-0.0898438,0.4882813-0.2695313,0.6523438S20.4946289,17.5605469,20.125,17.5605469z"/>
	<path fill="#FFFFFF" d="M27.6953125,22.7636719h-2.125v3.2421875c0,0.4638672-0.109375,0.8154297-0.328125,1.0546875
		s-0.4951172,0.359375-0.828125,0.359375c-0.3486328,0-0.6298828-0.1191406-0.84375-0.3554688S23.25,26.4804688,23.25,26.0214844
		v-8.828125c0-0.5102539,0.1171875-0.875,0.3515625-1.09375s0.6064453-0.328125,1.1171875-0.328125h2.9765625
		c0.8798828,0,1.5576172,0.0678711,2.03125,0.203125c0.46875,0.1303711,0.8740234,0.3466797,1.2148438,0.6484375
		c0.3408203,0.3022461,0.6005859,0.671875,0.7773438,1.109375s0.265625,0.9296875,0.265625,1.4765625
		c0,1.1669922-0.359375,2.0507813-1.078125,2.6523438S29.1171875,22.7636719,27.6953125,22.7636719z M27.1328125,17.5136719h-1.5625
		v3.5h1.5625c0.546875,0,1.0039063-0.0571289,1.3710938-0.171875c0.3671875-0.1142578,0.6474609-0.3017578,0.8398438-0.5625
		c0.1923828-0.2602539,0.2890625-0.6015625,0.2890625-1.0234375c0-0.5048828-0.1484375-0.9165039-0.4453125-1.234375
		C28.8544922,17.6831055,28.1689453,17.5136719,27.1328125,17.5136719z"/>
</g>
</svg>
