<?xml version="1.0" encoding="utf-8"?>
<!-- Generator: Adobe Illustrator 16.0.3, SVG Export Plug-In . SVG Version: 6.00 Build 0)  -->
<!DOCTYPE svg PUBLIC "-//W3C//DTD SVG 1.1//EN" "http://www.w3.org/Graphics/SVG/1.1/DTD/svg11.dtd">
<svg version="1.1" id="Field_Inteviews" xmlns="http://www.w3.org/2000/svg" xmlns:xlink="http://www.w3.org/1999/xlink" x="0px"
	 y="0px" width="44px" height="44px" viewBox="0 0 44 44" enable-background="new 0 0 44 44" xml:space="preserve">
<circle fill="#FFFFFF" cx="22" cy="22" r="21"/>
<path fill="#253659" d="M22.0009766,40.90625C11.5234375,40.90625,3,32.4033203,3,21.953125C3,11.5024414,11.5234375,3,22.0009766,3
	C32.4755859,3,41,11.5024414,41,21.953125C41,32.4033203,32.4755859,40.90625,22.0009766,40.90625z"/>
<path fill="#4564A5" d="M22.0009766,40C12.0751953,40,4,31.9257813,4,22c0-9.9248047,8.0751953-18,18.0009766-18
	C31.9257813,4,40,12.0751953,40,22C40,31.9257813,31.9257813,40,22.0009766,40z"/>
<path fill="#FFFFFF" d="M31.0869141,9H12.9130859C11.956543,9,11,11,11,12v20c0,1,0.956543,2,1.9130859,2h18.1738281
	C32.0439453,34,33,33,33,32V10.918457C33,10,32.0439453,9,31.0869141,9z"/>
<ellipse fill="#4564A5" cx="16.5" cy="10.5009766" rx="1.5" ry="2.4990234"/>
<path fill="#4564A5" d="M29,10.0014648C29,11.6582031,28.3271484,13,27.5009766,13C26.6699219,13,26,11.6582031,26,10.0014648
	C26,8.3417969,26.6699219,7,27.5009766,7C28.3271484,7,29,8.3417969,29,10.0014648z"/>
<rect x="13" y="15" fill="#4564A5" width="18" height="3"/>
<rect x="13" y="21" fill="#4564A5" width="18" height="3"/>
<rect x="13" y="27" fill="#4564A5" width="18" height="3"/>
</svg>
