<?xml version="1.0" encoding="utf-8"?>
<!-- Generator: Adobe Illustrator 16.0.3, SVG Export Plug-In . SVG Version: 6.00 Build 0)  -->
<!DOCTYPE svg PUBLIC "-//W3C//DTD SVG 1.1//EN" "http://www.w3.org/Graphics/SVG/1.1/DTD/svg11.dtd">
<svg version="1.1" id="Fire_Safety_Survey_-_Yes" xmlns="http://www.w3.org/2000/svg" xmlns:xlink="http://www.w3.org/1999/xlink"
	 x="0px" y="0px" width="44px" height="44px" viewBox="0 0 44 44" enable-background="new 0 0 44 44" xml:space="preserve">
<circle fill="#FFFFFF" cx="22" cy="22" r="21"/>
<path fill="#00984E" d="M22.0009766,40.90625C11.5234375,40.90625,3,32.4033203,3,21.9526367
	C3,11.5024414,11.5234375,3,22.0009766,3C32.4755859,3,41,11.5024414,41,21.9526367
	C41,32.4033203,32.4755859,40.90625,22.0009766,40.90625z"/>
<path fill="#00D870" d="M22.0009766,40C12.0751953,40,4,31.9257813,4,22c0-9.9248047,8.0751953-18,18.0009766-18
	C31.9257813,4,40,12.0751953,40,22C40,31.9257813,31.9257813,40,22.0009766,40z"/>
<path fill="#FFFFFF" d="M21.9995117,38C13.1767578,38,6,30.8222656,6,22c0-8.8232422,7.1767578-16,15.9995117-16
	C30.8242188,6,38,13.1767578,38,22C38,30.8222656,30.8242188,38,21.9995117,38z M22,8C14.6489258,8,8,14.6474609,8,22
	c0,7.3505859,6.6489258,14,14,14c7.3525391,0,14-6.6494141,14-14C36,14.6474609,29.3525391,8,22,8z"/>
<path fill="#FFFFFF" d="M22,33c-6.1762695,0-11-4.8261719-11-11c0-6.1767578,4.8237305-11,11-11c6.1738281,0,11,4.8232422,11,11
	C33,28.1738281,28.1738281,33,22,33z M22,13c-5.1474609,0-9,3.8510742-9,9c0,5.1435547,3.8525391,9,9,9c5.1435547,0,9-3.8564453,9-9
	C31,16.8510742,27.1435547,13,22,13z"/>
<path fill="#FFFFFF" d="M22,28c-3.5288086,0-6-2.4697266-6-6c0-3.5307617,2.4711914-6,6-6c3.5273438,0,6,2.4692383,6,6
	C28,25.5302734,25.5273438,28,22,28z"/>
<path fill="#00D870" d="M26,22c0,1.765625-2.234375,4-4,4c-1.7666016,0-4-2.234375-4-4c0-1.769043,2.2333984-4,4-4
	C23.765625,18,26,20.230957,26,22z"/>
<rect x="6" y="20" fill="#FFFFFF" width="7" height="4"/>
<rect x="20" y="6" fill="#FFFFFF" width="4" height="7"/>
<rect x="31" y="20" fill="#FFFFFF" width="7" height="4"/>
<rect x="20" y="31" fill="#FFFFFF" width="4" height="7"/>
</svg>
