<?xml version="1.0" encoding="utf-8"?>
<!-- Generator: Adobe Illustrator 16.0.3, SVG Export Plug-In . SVG Version: 6.00 Build 0)  -->
<!DOCTYPE svg PUBLIC "-//W3C//DTD SVG 1.1//EN" "http://www.w3.org/Graphics/SVG/1.1/DTD/svg11.dtd">
<svg version="1.1" id="Flooding" xmlns="http://www.w3.org/2000/svg" xmlns:xlink="http://www.w3.org/1999/xlink" x="0px" y="0px"
	 width="44px" height="44px" viewBox="0 0 44 44" enable-background="new 0 0 44 44" xml:space="preserve">
<circle fill="#FFFFFF" cx="22" cy="22" r="21"/>
<path fill="#1873CD" d="M22.0009766,40.90625C11.5234375,40.90625,3,32.4033203,3,21.9526367
	C3,11.5024414,11.5234375,3,22.0009766,3C32.4755859,3,41,11.5024414,41,21.9526367
	C41,32.4033203,32.4755859,40.90625,22.0009766,40.90625z"/>
<path fill="#1F8FFF" d="M22.0009766,40C12.0751953,40,4,31.9257813,4,22c0-9.9248047,8.0751953-18,18.0009766-18
	C31.9257813,4,40,12.0751953,40,22C40,31.9257813,31.9257813,40,22.0009766,40z"/>
<g>
	<path fill="#FFFFFF" d="M18.6513672,34h0.8847656c-0.1601563-0.1357422-0.3217773-0.265625-0.4746094-0.4287109
		C18.9345703,33.734375,18.7915039,33.8642578,18.6513672,34z"/>
	<path fill="#FFFFFF" d="M13,34h0.4960938C13.3144531,33.8613281,13.1367188,33.7216797,13,33.5712891V34z"/>
	<path fill="#FFFFFF" d="M30,15V7h-4v3l-4-4L9,20h4v11c0.2084961,0.2255859,0.4414063,0.4384766,0.7099609,0.6367188
		c0.2651367,0.1982422,0.5371094,0.3779297,0.8110352,0.5322266c0.2739258,0.1582031,0.5463867,0.2763672,0.8144531,0.3632813
		c0.265625,0.0878906,0.5009766,0.1308594,0.7070313,0.1308594c1.222168,0,2.2285156-0.5546875,3.019043-1.6630859
		c1.0820313,1.1083984,2.1035156,1.6630859,3.0673828,1.6630859c1.1347656,0,2.1396484-0.5546875,3.0166016-1.6630859
		c0.7919922,1.1083984,1.8056641,1.6630859,3.0449219,1.6630859c0.9619141,0,1.8984375-0.4570313,2.8095703-1.3769531V20h4L30,15z"
		/>
	<path fill="#FFFFFF" d="M31,34v-0.3242188C30.8701172,33.7988281,30.7392578,33.8935547,30.6083984,34H31z"/>
	<path fill="#FFFFFF" d="M24.7675781,34h0.8076172c-0.1494141-0.140625-0.3007813-0.28125-0.4296875-0.4521484
		C25.0351563,33.7197266,24.9003906,33.8583984,24.7675781,34z"/>
</g>
<path fill="#1F8FFF" d="M31,28.6757813v-2.3896484c-0.9111328,0.9199219-1.8476563,1.3769531-2.8095703,1.3769531
	c-1.2392578,0-2.2529297-0.5546875-3.0449219-1.6630859c-0.8769531,1.1083984-1.8818359,1.6630859-3.0166016,1.6630859
	c-0.9638672,0-1.9853516-0.5546875-3.0673828-1.6630859c-0.7905273,1.1083984-1.796875,1.6630859-3.019043,1.6630859
	c-0.2060547,0-0.4414063-0.0429688-0.7070313-0.1308594c-0.2680664-0.0869141-0.5405273-0.2050781-0.8144531-0.3632813
	c-0.2739258-0.1542969-0.5458984-0.3339844-0.8110352-0.5322266C13.4414063,26.4384766,13.2084961,26.2255859,13,26v2.5712891
	c0.1738281,0.1914063,0.3852539,0.3740234,0.6318359,0.5458984c0.2490234,0.171875,0.5083008,0.3232422,0.7734375,0.4521484
	c0.2666016,0.1308594,0.543457,0.2363281,0.8251953,0.3125C15.5126953,29.9609375,15.7856445,30,16.0424805,30h0.1030273
	c1.2050781,0,2.1772461-0.4775391,2.9160156-1.4287109C19.9526367,29.5224609,20.96875,30,22.1025391,30h0.1015625
	c1.3427734,0,2.3242188-0.4853516,2.9414063-1.4521484C25.8496094,29.4804688,26.8544922,29.9658203,28.1630859,30
	C29.1230469,30,30.0712891,29.5585938,31,28.6757813z"/>
</svg>
