<?xml version="1.0" encoding="utf-8"?>
<!-- Generator: Adobe Illustrator 16.0.3, SVG Export Plug-In . SVG Version: 6.00 Build 0)  -->
<!DOCTYPE svg PUBLIC "-//W3C//DTD SVG 1.1//EN" "http://www.w3.org/Graphics/SVG/1.1/DTD/svg11.dtd">
<svg version="1.1" id="Form_Completed_and_Attached"
	 xmlns="http://www.w3.org/2000/svg" xmlns:xlink="http://www.w3.org/1999/xlink" x="0px" y="0px" width="44px" height="44px"
	 viewBox="0 0 44 44" enable-background="new 0 0 44 44" xml:space="preserve">
<circle fill="#FFFFFF" cx="22" cy="22" r="21"/>
<path fill="#4C9A54" d="M22.0009766,40.90625C11.5234375,40.90625,3,32.4033203,3,21.9526367
	C3,11.5024414,11.5234375,3,22.0009766,3C32.4755859,3,41,11.5024414,41,21.9526367
	C41,32.4033203,32.4755859,40.90625,22.0009766,40.90625z"/>
<path fill="#2CB33A" d="M22.0009766,40C12.0751953,40,4,31.9257813,4,22c0-9.9248047,8.0751953-18,18.0009766-18
	C31.9257813,4,40,12.0751953,40,22C40,31.9257813,31.9257813,40,22.0009766,40z"/>
<path fill="#FFFFFF" d="M28.9863281,32.2128906C28.9863281,35.9599609,25.8740234,39,22.0327148,39
	c-3.8398438,0-6.9545898-3.0400391-6.9545898-6.7871094c0,0,0-22.4111328,0-22.2495117
	c0-2.706543,2.2485352-4.9013672,5.0214844-4.9013672C22.875,5.0620117,25,7.293457,25,10c0-0.2338867,0,22,0,22
	c0,1.6660156-1.2949219,3-3,3c-1.7080078,0-3-1.3339844-3-3V16c0-0.625,0.3598633-1,1-1c0.640625,0,1,0.375,1,1v16.2128906
	C21,32.6289063,21.5732422,33,22,33c0.4257813,0,1-0.3710938,1-0.7871094c0,0,0-32.4350586,0-22.2128906
	c0-1.4580078-1.5053711-3-3-3c-1.4916992,0-3,1.5419922-3,3c0-10.25,0,22.2128906,0,22.2128906C17,34.7109375,19.4389648,37,22,37
	c2.5605469,0,5-2.5019531,5-5V10.7172852C27,10.0927734,27.3613281,9.5,28,9.5c0.640625,0,0.9863281,0.5927734,0.9863281,1.2172852
	V32.2128906L28.9863281,32.2128906z"/>
</svg>
