<?xml version="1.0" encoding="utf-8"?>
<!-- Generator: Adobe Illustrator 16.0.3, SVG Export Plug-In . SVG Version: 6.00 Build 0)  -->
<!DOCTYPE svg PUBLIC "-//W3C//DTD SVG 1.1//EN" "http://www.w3.org/Graphics/SVG/1.1/DTD/svg11.dtd">
<svg version="1.1" id="Form_Recieved_by_Office" xmlns="http://www.w3.org/2000/svg" xmlns:xlink="http://www.w3.org/1999/xlink"
	 x="0px" y="0px" width="44px" height="44px" viewBox="0 0 44 44" enable-background="new 0 0 44 44" xml:space="preserve">
<circle fill="#FFFFFF" cx="22" cy="22" r="21"/>
<path fill="#5191B6" d="M22.0009766,40.90625C11.5234375,40.90625,3,32.4033203,3,21.9526367
	C3,11.5024414,11.5234375,3,22.0009766,3C32.4755859,3,41,11.5024414,41,21.9526367
	C41,32.4033203,32.4755859,40.90625,22.0009766,40.90625z"/>
<path fill="#319AD6" d="M22.0009766,40C12.0751953,40,4,31.9257813,4,22c0-9.9248047,8.0751953-18,18.0009766-18
	C31.9257813,4,40,12.0751953,40,22C40,31.9257813,31.9257813,40,22.0009766,40z"/>
<g>
	<g>
		<g>
			<polygon fill="#FFFFFF" points="26.0419922,22.4790039 36,15 36,30 			"/>
		</g>
		<g>
			<polygon fill="#FFFFFF" points="16.9584961,22.5415039 7,15 7,30 			"/>
		</g>
		<g>
			<polygon fill="#FFFFFF" points="8,31 21.4414063,21 35,31 			"/>
		</g>
		<polygon fill="#FFFFFF" points="32.7304688,13.456543 32.7304688,15.7382813 35.5839844,13.456543 		"/>
		<polygon fill="#FFFFFF" points="10.1494141,13.456543 7.296875,13.456543 10.1494141,15.7382813 		"/>
	</g>
	<g>
		<g>
			<path fill="#FFFFFF" d="M11,9v7l6.7265625,5.7163086l3.7148438-2.9702148l3.7128906,2.9702148L32,16V9H11z M14,10h5v1h-5V10z
				 M26,17H14v-1h12V17z M26,15H14v-1h12V15z M26,13H14v-1h12V13z"/>
		</g>
	</g>
</g>
</svg>
