<?xml version="1.0" encoding="utf-8"?>
<!-- Generator: Adobe Illustrator 16.0.3, SVG Export Plug-In . SVG Version: 6.00 Build 0)  -->
<!DOCTYPE svg PUBLIC "-//W3C//DTD SVG 1.1//EN" "http://www.w3.org/Graphics/SVG/1.1/DTD/svg11.dtd">
<svg version="1.1" id="Form_Recorded_by_Office" xmlns="http://www.w3.org/2000/svg" xmlns:xlink="http://www.w3.org/1999/xlink"
	 x="0px" y="0px" width="44px" height="44px" viewBox="0 0 44 44" enable-background="new 0 0 44 44" xml:space="preserve">
<circle fill="#FFFFFF" cx="22" cy="22" r="21"/>
<path fill="#CC8800" d="M22.0009766,40.90625C11.5234375,40.90625,3,32.4033203,3,21.9526367
	C3,11.5024414,11.5234375,3,22.0009766,3C32.4755859,3,41,11.5024414,41,21.9526367
	C41,32.4033203,32.4755859,40.90625,22.0009766,40.90625z"/>
<path fill="#FFAA00" d="M22.0009766,40C12.0751953,40,4,31.9257813,4,22c0-9.9248047,8.0751953-18,18.0009766-18
	C31.9257813,4,40,12.0751953,40,22C40,31.9257813,31.9257813,40,22.0009766,40z"/>
<path fill="#FFFFFF" d="M36.0654297,13.199707l-3.25-3.2617188c-0.4482422-0.453125-1.3417969-0.2949219-1.9863281,0.3476563
	l-2.9765625,2.9672852L24,9H11v26h20V19.8051758l4.7109375-4.6225586
	C36.3544922,14.5419922,36.515625,13.6513672,36.0654297,13.199707z M24,12.3994141l2.3564453,2.3447266L25.1210938,16H24
	V12.3994141z M24.5664063,25.0283203l-4.4902344,1.8183594l-0.965332-0.96875l1.8344727-4.4848633L24.5664063,25.0283203z M29,33H13
	V11h9v6.5595703h1.53125L22.3291016,19H15v1h6.2685547l-0.9516602,0.762207L19.34375,23H15v1h3.9111328l-1.3613281,3H15v1h12v-1
	l-6.4072266,0.5234375l4.6025391-1.8642578l1.4658203-1.4619141h0.0478516v-0.0458984L29,22V33z"/>
</svg>
