<?xml version="1.0" encoding="utf-8"?>
<!-- Generator: Adobe Illustrator 16.0.3, SVG Export Plug-In . SVG Version: 6.00 Build 0)  -->
<!DOCTYPE svg PUBLIC "-//W3C//DTD SVG 1.1//EN" "http://www.w3.org/Graphics/SVG/1.1/DTD/svg11.dtd">
<svg version="1.1" id="Green_Roof_-_Green_Infrastructure"
	 xmlns="http://www.w3.org/2000/svg" xmlns:xlink="http://www.w3.org/1999/xlink" x="0px" y="0px" width="44px" height="44px"
	 viewBox="0 0 44 44" enable-background="new 0 0 44 44" xml:space="preserve">
<circle fill="#FFFFFF" cx="22" cy="22" r="21"/>
<path fill="#38673D" d="M22.001,40.906C11.523,40.906,3,32.403,3,21.953C3,11.502,11.523,3,22.001,3C32.476,3,41,11.502,41,21.953
	C41,32.403,32.476,40.906,22.001,40.906z"/>
<path fill="#359A40" d="M22.001,40C12.075,40,4,31.926,4,21.999C4,12.074,12.075,4,22.001,4C31.926,4,40,12.074,40,21.999
	C40,31.926,31.926,40,22.001,40z"/>
<path fill="#FFFFFF" d="M21.028,23.329v3.019c0,0.4-0.039,0.721-0.118,0.961s-0.224,0.457-0.436,0.65
	c-0.211,0.193-0.481,0.379-0.811,0.559c-0.952,0.516-1.869,0.891-2.75,1.127S15.073,30,14.035,30c-1.21,0-2.313-0.188-3.309-0.559
	c-0.996-0.373-1.844-0.914-2.546-1.623c-0.702-0.709-1.241-1.568-1.617-2.577C6.188,24.231,6,23.104,6,21.857
	c0-1.225,0.183-2.346,0.548-3.362s0.902-1.88,1.611-2.589s1.572-1.252,2.589-1.628c1.017-0.376,2.17-0.563,3.459-0.563
	c1.06,0,1.998,0.142,2.814,0.424c0.816,0.283,1.479,0.64,1.987,1.069s0.892,0.885,1.149,1.364s0.387,0.906,0.387,1.278
	c0,0.401-0.148,0.743-0.445,1.025c-0.298,0.283-0.654,0.425-1.069,0.425c-0.229,0-0.449-0.054-0.661-0.161
	c-0.211-0.107-0.388-0.258-0.531-0.451c-0.394-0.616-0.727-1.081-0.999-1.396s-0.64-0.58-1.101-0.795
	c-0.462-0.215-1.051-0.322-1.767-0.322c-0.738,0-1.396,0.127-1.977,0.381c-0.58,0.255-1.076,0.623-1.488,1.106
	c-0.412,0.483-0.727,1.076-0.945,1.778c-0.219,0.702-0.328,1.479-0.328,2.331c0,1.848,0.424,3.27,1.273,4.264
	c0.849,0.996,2.032,1.494,3.55,1.494c0.737,0,1.43-0.098,2.078-0.291c0.648-0.193,1.306-0.469,1.972-0.826v-2.557h-2.471
	c-0.595,0-1.044-0.09-1.348-0.269c-0.305-0.179-0.457-0.483-0.457-0.913c0-0.351,0.127-0.641,0.381-0.87
	c0.254-0.229,0.6-0.344,1.037-0.344h3.62c0.444,0,0.82,0.039,1.128,0.118s0.557,0.254,0.747,0.526
	C20.934,22.377,21.028,22.785,21.028,23.329z"/>
<path fill="#FFFFFF" d="M28.308,23.018H27.19v5.044c0,0.664-0.146,1.153-0.44,1.468S26.073,30,25.601,30
	c-0.509,0-0.902-0.164-1.182-0.492S24,28.697,24,28.062V15.982c0-0.685,0.154-1.181,0.462-1.488c0.308-0.307,0.806-0.46,1.493-0.46
	h5.188c0.716,0,1.328,0.031,1.837,0.091c0.509,0.061,0.967,0.184,1.375,0.369c0.494,0.208,0.931,0.503,1.311,0.889
	c0.38,0.386,0.668,0.834,0.865,1.345c0.196,0.51,0.295,1.051,0.295,1.622c0,1.171-0.331,2.107-0.994,2.806
	c-0.662,0.7-1.666,1.196-3.013,1.488c0.565,0.301,1.106,0.744,1.622,1.328c0.516,0.586,0.976,1.21,1.381,1.869
	c0.404,0.66,0.719,1.256,0.945,1.788c0.225,0.532,0.338,0.898,0.338,1.098c0,0.207-0.066,0.413-0.199,0.615
	c-0.132,0.204-0.313,0.364-0.542,0.483C36.135,29.94,35.87,30,35.569,30c-0.358,0-0.659-0.085-0.902-0.252
	c-0.243-0.168-0.453-0.38-0.628-0.637c-0.176-0.257-0.414-0.635-0.715-1.135l-1.278-2.121c-0.458-0.777-0.868-1.37-1.229-1.777
	c-0.362-0.406-0.729-0.686-1.102-0.835S28.873,23.018,28.308,23.018z M30.134,16.422H27.19v4.315h2.857
	c0.767,0,1.411-0.065,1.934-0.198s0.922-0.357,1.198-0.675c0.275-0.317,0.413-0.755,0.413-1.312c0-0.435-0.111-0.819-0.333-1.151
	s-0.53-0.58-0.924-0.745C31.964,16.5,31.229,16.422,30.134,16.422z"/>
</svg>
