<?xml version="1.0" encoding="utf-8"?>
<!-- Generator: Adobe Illustrator 16.0.3, SVG Export Plug-In . SVG Version: 6.00 Build 0)  -->
<!DOCTYPE svg PUBLIC "-//W3C//DTD SVG 1.1//EN" "http://www.w3.org/Graphics/SVG/1.1/DTD/svg11.dtd">
<svg version="1.1" id="Green_Landscaping_-_Green_Infrastructure"
	 xmlns="http://www.w3.org/2000/svg" xmlns:xlink="http://www.w3.org/1999/xlink" x="0px" y="0px" width="44px" height="44px"
	 viewBox="0 0 44 44" enable-background="new 0 0 44 44" xml:space="preserve">
<circle fill="#FFFFFF" cx="22" cy="22" r="21"/>
<path fill="#38673D" d="M22.001,40.906C11.523,40.906,3,32.403,3,21.953C3,11.502,11.523,3,22.001,3C32.476,3,41,11.502,41,21.953
	C41,32.403,32.476,40.906,22.001,40.906z"/>
<path fill="#359A40" d="M22.001,40C12.075,40,4,31.926,4,22c0-9.925,8.075-18,18.001-18C31.926,4,40,12.075,40,22
	C40,31.926,31.926,40,22.001,40z"/>
<path fill="#FFFFFF" d="M22.028,23.329v3.019c0,0.402-0.039,0.723-0.118,0.963s-0.224,0.455-0.436,0.648
	c-0.211,0.193-0.481,0.381-0.811,0.559c-0.953,0.516-1.869,0.893-2.75,1.129S16.073,30,15.035,30c-1.21,0-2.313-0.186-3.309-0.559
	c-0.996-0.371-1.844-0.912-2.546-1.621c-0.702-0.709-1.241-1.568-1.617-2.578C7.188,24.231,7,23.104,7,21.857
	c0-1.225,0.183-2.345,0.548-3.362c0.365-1.017,0.902-1.88,1.611-2.589s1.572-1.251,2.589-1.627c1.017-0.376,2.17-0.564,3.459-0.564
	c1.06,0,1.998,0.142,2.814,0.425s1.479,0.639,1.987,1.068c0.508,0.43,0.892,0.885,1.149,1.364c0.258,0.48,0.387,0.906,0.387,1.278
	c0,0.401-0.148,0.743-0.445,1.026c-0.298,0.283-0.654,0.424-1.069,0.424c-0.229,0-0.45-0.054-0.661-0.161
	c-0.211-0.107-0.389-0.258-0.532-0.451c-0.394-0.615-0.727-1.081-0.999-1.396c-0.272-0.314-0.639-0.58-1.101-0.795
	s-1.051-0.322-1.767-0.322c-0.738,0-1.396,0.128-1.977,0.382s-1.076,0.623-1.488,1.106c-0.412,0.483-0.727,1.076-0.945,1.777
	c-0.219,0.702-0.328,1.479-0.328,2.331c0,1.848,0.424,3.27,1.273,4.266s2.032,1.492,3.55,1.492c0.737,0,1.43-0.096,2.079-0.289
	c0.648-0.193,1.305-0.469,1.971-0.828v-2.557h-2.471c-0.595,0-1.044-0.089-1.348-0.269c-0.305-0.179-0.457-0.483-0.457-0.913
	c0-0.351,0.127-0.641,0.381-0.87c0.254-0.229,0.6-0.344,1.037-0.344h3.62c0.444,0,0.82,0.04,1.128,0.118
	c0.308,0.079,0.557,0.255,0.747,0.526C21.934,22.377,22.028,22.785,22.028,23.329z"/>
<path fill="#FFFFFF" d="M28,15.917v11.479l6.442-0.017c0.505,0,0.892,0.125,1.16,0.376c0.271,0.251,0.405,0.565,0.405,0.945
	c0,0.387-0.133,0.7-0.399,0.94S34.954,30,34.442,30h-7.53c-0.68,0-1.168-0.154-1.465-0.462C25.149,29.23,25,28.732,25,28.045V15.917
	c0-0.645,0.142-1.128,0.426-1.45c0.283-0.322,0.656-0.483,1.118-0.483c0.469,0,0.849,0.159,1.14,0.478
	C27.975,14.78,28,15.266,28,15.917z"/>
</svg>
