<?xml version="1.0" encoding="utf-8"?>
<!-- Generator: Adobe Illustrator 16.0.3, SVG Export Plug-In . SVG Version: 6.00 Build 0)  -->
<!DOCTYPE svg PUBLIC "-//W3C//DTD SVG 1.1//EN" "http://www.w3.org/Graphics/SVG/1.1/DTD/svg11.dtd">
<svg version="1.1" id="Hydrant_-_Out_of_Order" xmlns="http://www.w3.org/2000/svg" xmlns:xlink="http://www.w3.org/1999/xlink"
	 x="0px" y="0px" width="44px" height="44px" viewBox="0 0 44 44" enable-background="new 0 0 44 44" xml:space="preserve">
<circle fill="#FFFFFF" cx="22" cy="22" r="21"/>
<path fill="#262424" d="M22.0009766,41C11.5234375,41,3,32.4970703,3,22.0463867
	C3,11.5961914,11.5234375,3.09375,22.0009766,3.09375C32.4755859,3.09375,41,11.5961914,41,22.0463867
	C41,32.4970703,32.4755859,41,22.0009766,41z"/>
<path fill="#424243" d="M22,40c-9.9248047,0-18-8.0742188-18-18.0004883C4,12.074707,12.0751953,4,22,4
	c9.9257813,0,18,8.074707,18,17.9995117C40,31.9257813,31.9257813,40,22,40z"/>
<path fill="#FFFFFF" d="M31,36H13v-1h2v-8h-4v-6h4v-4h-2v-4h2c0-0.8955078,0.1821289-1.7495117,0.5463867-2.5620117
	c0.3632813-0.8115234,0.9511719-1.4555664,1.7636719-1.9316406c0.644043-0.4204102,1.3789063-0.7207031,2.2050781-0.9033203
	c0.8256836-0.1816406,1.4873047-0.4667969,2.5239258-0.4667969c2.0722656,0,3.4892578,0.5864258,4.6933594,1.3701172
	c0.7558594,0.4760742,1.3232422,1.1201172,1.7011719,1.9316406C28.8115234,11.2504883,29,12.1044922,29,13h2v4h-2v4h4v6h-4v8h2V36z"
	/>
</svg>
