<?xml version="1.0" encoding="utf-8"?>
<!-- Generator: Adobe Illustrator 16.0.3, SVG Export Plug-In . SVG Version: 6.00 Build 0)  -->
<!DOCTYPE svg PUBLIC "-//W3C//DTD SVG 1.1//EN" "http://www.w3.org/Graphics/SVG/1.1/DTD/svg11.dtd">
<svg version="1.1" id="Incorrect_Attribute" xmlns="http://www.w3.org/2000/svg" xmlns:xlink="http://www.w3.org/1999/xlink"
	 x="0px" y="0px" width="44px" height="44px" viewBox="0 0 44 44" enable-background="new 0 0 44 44" xml:space="preserve">
<circle fill="#FFFFFF" cx="22" cy="22" r="21"/>
<path fill="#C70101" d="M22.0009766,40.90625C11.5234375,40.90625,3,32.4033203,3,21.9526367
	C3,11.5024414,11.5234375,3,22.0009766,3C32.4755859,3,41,11.5024414,41,21.9526367
	C41,32.4033203,32.4755859,40.90625,22.0009766,40.90625z"/>
<path fill="#FC3434" d="M22.0009766,40C12.0751953,40,4,31.9257813,4,22c0-9.9248047,8.0751953-18,18.0009766-18
	C31.9257813,4,40,12.0751953,40,22C40,31.9257813,31.9257813,40,22.0009766,40z"/>
<path fill="#FFFFFF" d="M9.0029297,30.125L14,33V13l-4.9970703-3V30.125z"/>
<polygon fill="#FFFFFF" points="30,10 30,30 35,33 35,12.8759766 "/>
<polygon fill="#FFFFFF" points="15.1503906,33 28.9179688,30.125 28.9179688,10 15.1503906,12.8759766 "/>
<g>
	<path fill="#FC3434" d="M24.5,26.6767578l-2.4819336-3.4082031l-2.5449219,3.4082031
		c-0.3686523,0.4755859-0.6791992,0.8144531-0.9345703,1.0185547C18.2836914,27.8994141,17.9599609,28,17.5668945,28
		c-0.434082,0-0.8041992-0.1269531-1.1098633-0.3808594C16.1518555,27.3662109,16,27.0742188,16,26.7470703
		c0-0.3359375,0.2338867-0.8144531,0.7021484-1.4404297l3.0966797-4.1464844l-2.7456055-3.4545898
		c-0.4765625-0.5698242-0.7148438-1.065918-0.7148438-1.4873047c0-0.328125,0.1420898-0.6132813,0.4262695-0.8554688
		C17.0483398,15.1210938,17.4213867,15,17.8803711,15c0.4018555,0,0.7338867,0.1054688,0.9970703,0.315918
		c0.2631836,0.2109375,0.5708008,0.5429688,0.9213867,0.9956055l2.2192383,2.8339844l2.1557617-2.8339844
		c0.3613281-0.4682617,0.6728516-0.8037109,0.9345703-1.0068359C25.3740234,15.1015625,25.7011719,15,26.09375,15
		c0.4511719,0,0.8261719,0.1191406,1.1210938,0.3569336c0.296875,0.2387695,0.4462891,0.5253906,0.4462891,0.8613281
		c0,0.2416992-0.0615234,0.4741211-0.1816406,0.6967773c-0.1210938,0.2226563-0.3076172,0.4858398-0.5576172,0.7905273
		l-2.7480469,3.4545898l3.0976563,4.1464844C27.7568359,25.9560547,28,26.4423828,28,26.7705078
		c0,0.3369141-0.1513672,0.6240234-0.4521484,0.8662109C27.2470703,27.8798828,26.875,28,26.4326172,28
		c-0.3925781,0-0.7255859-0.1044922-0.9980469-0.3154297C25.1640625,27.4726563,24.8515625,27.1367188,24.5,26.6767578z"/>
</g>
</svg>
