<?xml version="1.0" encoding="utf-8"?>
<!-- Generator: Adobe Illustrator 16.0.3, SVG Export Plug-In . SVG Version: 6.00 Build 0)  -->
<!DOCTYPE svg PUBLIC "-//W3C//DTD SVG 1.1//EN" "http://www.w3.org/Graphics/SVG/1.1/DTD/svg11.dtd">
<svg version="1.1" id="Inlet_Protection_Violations"
	 xmlns="http://www.w3.org/2000/svg" xmlns:xlink="http://www.w3.org/1999/xlink" x="0px" y="0px" width="44px" height="44px"
	 viewBox="0 0 44 44" enable-background="new 0 0 44 44" xml:space="preserve">
<circle fill="#FFFFFF" cx="22" cy="22" r="21"/>
<path fill="#AE0101" d="M22.0009766,40.90625C11.5234375,40.90625,3,32.4033203,3,21.9526367
	C3,11.5024414,11.5234375,3,22.0009766,3C32.4755859,3,41,11.5024414,41,21.9526367
	C41,32.4033203,32.4755859,40.90625,22.0009766,40.90625z"/>
<path fill="#FB3333" d="M22.0004883,40C12.0751953,40,4,31.9257813,4,21.9995117C4,12.074707,12.0751953,4,22.0004883,4
	S40,12.074707,40,21.9995117C40,31.9257813,31.9257813,40,22.0004883,40z"/>
<g>
	<path fill="#FFFFFF" d="M15.5039063,26.0058594v-9.0234375c0-0.46875,0.1064453-0.8203125,0.3203125-1.0546875
		c0.2133789-0.234375,0.4892578-0.3515625,0.828125-0.3515625c0.3486328,0,0.6313477,0.1162109,0.8476563,0.3476563
		c0.2158203,0.2319336,0.3242188,0.5849609,0.3242188,1.0585938v9.0234375c0,0.4746094-0.1083984,0.828125-0.3242188,1.0625
		c-0.2163086,0.234375-0.4990234,0.3515625-0.8476563,0.3515625c-0.3334961,0-0.6083984-0.1191406-0.8242188-0.3554688
		C15.6118164,26.828125,15.5039063,26.4746094,15.5039063,26.0058594z"/>
	<path fill="#FFFFFF" d="M24.8632813,22.7636719h-2.125v3.2421875c0,0.4638672-0.109375,0.8154297-0.328125,1.0546875
		s-0.4951172,0.359375-0.828125,0.359375c-0.3486328,0-0.6303711-0.1191406-0.84375-0.3554688
		c-0.2138672-0.2363281-0.3203125-0.5839844-0.3203125-1.0429688v-8.828125c0-0.5102539,0.1171875-0.875,0.3515625-1.09375
		s0.6064453-0.328125,1.1171875-0.328125h2.9765625c0.8798828,0,1.5576172,0.0678711,2.03125,0.203125
		c0.46875,0.1303711,0.8740234,0.3466797,1.2148438,0.6484375c0.3408203,0.3022461,0.6005859,0.671875,0.7773438,1.109375
		s0.265625,0.9296875,0.265625,1.4765625c0,1.1669922-0.359375,2.0507813-1.078125,2.6523438
		S26.2851563,22.7636719,24.8632813,22.7636719z M24.3007813,17.5136719h-1.5625v3.5h1.5625
		c0.546875,0,1.0039063-0.0571289,1.3710938-0.171875c0.3671875-0.1142578,0.6474609-0.3017578,0.8398438-0.5625
		c0.1923828-0.2602539,0.2890625-0.6015625,0.2890625-1.0234375c0-0.5048828-0.1484375-0.9165039-0.4453125-1.234375
		C26.0224609,17.6831055,25.3369141,17.5136719,24.3007813,17.5136719z"/>
</g>
</svg>
