<?xml version="1.0" encoding="utf-8"?>
<!-- Generator: Adobe Illustrator 16.0.3, SVG Export Plug-In . SVG Version: 6.00 Build 0)  -->
<!DOCTYPE svg PUBLIC "-//W3C//DTD SVG 1.1//EN" "http://www.w3.org/Graphics/SVG/1.1/DTD/svg11.dtd">
<svg version="1.1" id="Land_Use_Code_Violation_-_Open"
	 xmlns="http://www.w3.org/2000/svg" xmlns:xlink="http://www.w3.org/1999/xlink" x="0px" y="0px" width="44px" height="44px"
	 viewBox="0 0 44 44" enable-background="new 0 0 44 44" xml:space="preserve">
<circle fill="#FFFFFF" cx="22" cy="22.0273438" r="21"/>
<path fill="#00984E" d="M22.0009766,41C11.5234375,41,3,32.4980469,3,22.046875C3,11.5966797,11.5234375,3.09375,22.0009766,3.09375
	C32.4755859,3.09375,41,11.5966797,41,22.046875C41,32.4980469,32.4755859,41,22.0009766,41z"/>
<path fill="#00D870" d="M22,40c-9.9248047,0-18-8.0742188-18-18c0-9.9248047,8.0751953-18,18-18c9.9257813,0,18,8.0751953,18,18
	C40,31.9257813,31.9257813,40,22,40z"/>
<polygon fill="#FFFFFF" points="32,11 26,11 22,18 18,11 12,11 19,21 12,31 18,31 22,24 26,31 32,31 25,21 "/>
</svg>
