<?xml version="1.0" encoding="utf-8"?>
<!-- Generator: Adobe Illustrator 16.0.3, SVG Export Plug-In . SVG Version: 6.00 Build 0)  -->
<!DOCTYPE svg PUBLIC "-//W3C//DTD SVG 1.1//EN" "http://www.w3.org/Graphics/SVG/1.1/DTD/svg11.dtd">
<svg version="1.1" id="Land_Use_Code_Violation_-_Open"
	 xmlns="http://www.w3.org/2000/svg" xmlns:xlink="http://www.w3.org/1999/xlink" x="0px" y="0px" width="44px" height="44px"
	 viewBox="0 0 44 44" enable-background="new 0 0 44 44" xml:space="preserve">
<circle fill="#FFFFFF" cx="22" cy="22" r="21"/>
<path fill="#AE0101" d="M22,41C11.5234375,41,3,32.4765625,3,22C3,11.5244141,11.5234375,3,22,3s19,8.5244141,19,19
	C41,32.4765625,32.4765625,41,22,41z"/>
<path fill="#FB3333" d="M22.0957031,40C12.1176758,40,4,31.9257813,4,22c0-9.9248047,8.1176758-18,18.0957031-18
	c9.9775391,0,18.09375,8.0751953,18.09375,18C40.1894531,31.9257813,32.0732422,40,22.0957031,40z"/>
<g>
	<path fill="#FFFFFF" stroke="#FFFFFF" stroke-width="1.13043" stroke-miterlimit="10" d="M33.0419922,14.1533203
		c-0.3291016,0.1518555-0.6591797,0.3227539-0.9882813,0.5126953s-0.6708984,0.3989258-1.0253906,0.6269531
		c-0.8876953,0.5576172-1.7734375,1.2036133-2.6601563,1.9379883c-0.8876953,0.7353516-1.7988281,1.5458984-2.7363281,2.4321289
		c-0.4052734,0.4057617-0.9814453,1.0449219-1.7294922,1.9189453c-0.7470703,0.8740234-1.6904297,1.9951172-2.8305664,3.3632813
		c-1.1147461,1.3935547-2.7109375,3.9140625-4.7875977,7.5615234l-6.7641602-7.2958984L12.75,21.6772461l3.3442383,3.9897461
		c1.7983398-2.1787109,3.7998047-4.2177734,6.0039063-6.1176758C26.0751953,16.1040039,29.7226563,14.3051758,33.0419922,14.1533203
		z"/>
</g>
</svg>
