<?xml version="1.0" encoding="utf-8"?>
<!-- Generator: Adobe Illustrator 16.0.3, SVG Export Plug-In . SVG Version: 6.00 Build 0)  -->
<!DOCTYPE svg PUBLIC "-//W3C//DTD SVG 1.1//EN" "http://www.w3.org/Graphics/SVG/1.1/DTD/svg11.dtd">
<svg version="1.1" id="Leak_Severity_-_Cosmetic" xmlns="http://www.w3.org/2000/svg" xmlns:xlink="http://www.w3.org/1999/xlink"
	 x="0px" y="0px" width="44px" height="44px" viewBox="0 0 44 44" enable-background="new 0 0 44 44" xml:space="preserve">
<circle fill="#FFFFFF" cx="22" cy="22" r="21"/>
<path fill="#1873CD" d="M22.0009766,40.90625C11.5234375,40.90625,3,32.4033203,3,21.9526367
	C3,11.5024414,11.5234375,3,22.0009766,3C32.4755859,3,41,11.5024414,41,21.9526367
	C41,32.4033203,32.4755859,40.90625,22.0009766,40.90625z"/>
<path fill="#1F8FFF" d="M22.0009766,40.0664063c-9.9257813,0-18.0009766-8.0742188-18.0009766-18
	c0-9.9248047,8.0751953-18,18.0009766-18c9.9248047,0,17.9990234,8.0751953,17.9990234,18
	C40,31.9921875,31.9257813,40.0664063,22.0009766,40.0664063z"/>
<path fill="#FFFFFF" d="M22.4677734,18.5c0.2998047,0.9648438,0.8076172,1.9677734,1.5175781,3.0087891
	c0.7138672,1.0410156,1.4375,2.1298828,2.1835938,3.2714844c0.7451172,1.1435547,1.4003906,2.3251953,1.9746094,3.5498047
	C28.7119141,29.5576172,29,30.8398438,29,32.1767578c0,0.7617188-0.1767578,1.4951172-0.5195313,2.2011719
	c-0.3457031,0.7060547-0.8125,1.328125-1.40625,1.8642578c-0.5957031,0.5429688-1.2910156,0.9667969-2.0859375,1.2871094
	C24.1904297,37.8417969,23.3505859,38,22.4677734,38c-0.8857422,0-1.7197266-0.1484375-2.5073242-0.4462891
	c-0.7875977-0.2958984-1.4716797-0.6962891-2.0522461-1.1953125c-0.5825195-0.5039063-1.0473633-1.0917969-1.3901367-1.7734375
	c-0.3447266-0.6767578-0.5185547-1.3964844-0.5185547-2.1582031c0-1.3369141,0.262207-2.6318359,0.7929688-3.8857422
	c0.5263672-1.2519531,1.1469727-2.4638672,1.8583984-3.6347656c0.7114258-1.171875,1.4267578-2.2929688,2.1499023-3.3720703
	C21.5219727,20.4594727,22.0771484,19.4458008,22.4677734,18.5z"/>
<path fill="#FFFFFF" d="M32.0849609,9C30.3837891,9,27.6738281,9,24.75,9c-1.8330078,0-3.7114258,0-5.4995117,0
	C16.5,9,13.3793945,9,11.9179688,9C11.5932617,9,11,11.2626953,11,12.5c0,3.5,0.9174805,3.5,0.9174805,3.5s3.3125,0,7.3325195,0
	c0.5673828,0,1.1616211,0,1.75,0v-1h-1v-1h1v-1h-1v-1h1v-1h-1v-1h4v1h1v1h-1v1h1v1h-1v1h1v1c2.9169922,0,5.5869141,0,7.0849609,0
	C32.4091797,16,33,13.7373047,33,12.5S32.4091797,9,32.0849609,9z"/>
</svg>
