<?xml version="1.0" encoding="utf-8"?>
<!-- Generator: Adobe Illustrator 16.0.3, SVG Export Plug-In . SVG Version: 6.00 Build 0)  -->
<!DOCTYPE svg PUBLIC "-//W3C//DTD SVG 1.1//EN" "http://www.w3.org/Graphics/SVG/1.1/DTD/svg11.dtd">
<svg version="1.1" id="Leak_Severity_-_Critical" xmlns="http://www.w3.org/2000/svg" xmlns:xlink="http://www.w3.org/1999/xlink"
	 x="0px" y="0px" width="44px" height="44px" viewBox="0 0 44 44" enable-background="new 0 0 44 44" xml:space="preserve">
<circle fill="#FFFFFF" cx="22" cy="22" r="21"/>
<path fill="#C70101" d="M22.0009766,40.90625C11.5234375,40.90625,3,32.4033203,3,21.9526367
	C3,11.5024414,11.5234375,3,22.0009766,3C32.4755859,3,41,11.5024414,41,21.9526367
	C41,32.4033203,32.4755859,40.90625,22.0009766,40.90625z"/>
<path fill="#FC3434" d="M22.0009766,40.0664063C12.0751953,40.0664063,4,31.9921875,4,22.065918
	c0-9.9248047,8.0751953-18,18.0009766-18c9.9248047,0,17.9990234,8.0751953,17.9990234,18
	C40,31.9921875,31.9257813,40.0664063,22.0009766,40.0664063z"/>
<g>
	<path fill="#FFFFFF" d="M21.9541016,5.8198242c0.4291992,1.5952148,1.1503906,3.2509766,2.1621094,4.9682617
		c1.0126953,1.7177734,2.046875,3.519043,3.1044922,5.4047852c1.0585938,1.8862305,1.9941406,3.8408203,2.8066406,5.8652344
		c0.8125,2.0239258,1.21875,4.1391602,1.21875,6.3481445c0,1.2578125-0.2460938,2.46875-0.7363281,3.6337891
		s-1.1572266,2.1923828-2,3.0820313c-0.84375,0.8896484-1.8339844,1.5947266-2.9667969,2.1162109
		c-1.1357422,0.5214844-2.3320313,0.78125-3.5888672,0.78125c-1.2578125,0-2.4458008-0.2441406-3.5649414-0.7363281
		c-1.1196289-0.4892578-2.0927734-1.1494141-2.9208984-1.9765625c-0.828125-0.828125-1.487793-1.8017578-1.9780273-2.921875
		c-0.4907227-1.1191406-0.7358398-2.3066406-0.7358398-3.5644531c0-2.2089844,0.375-4.3476563,1.1269531-6.4174805
		c0.7509766-2.0698242,1.6328125-4.0708008,2.6450195-6.0029297c1.0117188-1.9321289,2.03125-3.7871094,3.059082-5.565918
		C20.6123047,9.0556641,21.4023438,7.3837891,21.9541016,5.8198242z"/>
</g>
</svg>
