<?xml version="1.0" encoding="utf-8"?>
<!-- Generator: Adobe Illustrator 16.0.3, SVG Export Plug-In . SVG Version: 6.00 Build 0)  -->
<!DOCTYPE svg PUBLIC "-//W3C//DTD SVG 1.1//EN" "http://www.w3.org/Graphics/SVG/1.1/DTD/svg11.dtd">
<svg version="1.1" id="Manholes" xmlns="http://www.w3.org/2000/svg" xmlns:xlink="http://www.w3.org/1999/xlink" x="0px" y="0px"
	 width="44px" height="44px" viewBox="0 0 44 44" enable-background="new 0 0 44 44" xml:space="preserve">
<circle fill="#FFFFFF" cx="22" cy="22" r="21"/>
<path fill="#BF6B04" d="M22.0009766,40.90625C11.5234375,40.90625,3,32.4033203,3,21.9526367
	C3,11.5024414,11.5234375,3,22.0009766,3C32.4755859,3,41,11.5024414,41,21.9526367
	C41,32.4033203,32.4755859,40.90625,22.0009766,40.90625z"/>
<path fill="#F28705" d="M22.0009766,40C12.0751953,40,4,31.9257813,4,22c0-9.9248047,8.0751953-18,18.0009766-18
	C31.9257813,4,40,12.0751953,40,22C40,31.9257813,31.9257813,40,22.0009766,40z"/>
<g>
	<path fill="#FFFFFF" d="M38.0107422,21.9589844c0,4.4335938-1.5625,8.2089844-4.6796875,11.3271484
		c-3.1171875,3.1171875-6.8935547,4.6767578-11.3256836,4.6767578c-4.402832,0-8.1791992-1.5742188-11.3276367-4.7226563
		C7.5585938,30.1835938,6,26.4238281,6,21.9589844c0-4.4326172,1.5893555-8.2084961,4.7695313-11.3276367
		C13.9179688,7.543457,17.6625977,6,22.0053711,6c4.4321289,0,8.2084961,1.5585938,11.3256836,4.6777344
		C36.4482422,13.7958984,38.0107422,17.5556641,38.0107422,21.9589844z M11.7783203,12.8789063
		c-2.0791016,2.2919922-3.2255859,4.96875-3.4389648,8.0253906h6.7861328
		c0.0917969-0.6108398,0.2607422-1.1767578,0.5053711-1.6967773c0.2436523-0.5195313,0.5336914-1.0092773,0.8706055-1.4672852
		L11.7783203,12.8789063z M16.409668,26.0869141c-0.6723633-0.8261719-1.1005859-1.8037109-1.2841797-2.9355469H8.3393555
		c0.2133789,2.9648438,1.2978516,5.5644531,3.2553711,7.7958984L16.409668,26.0869141z M20.8125,28.7460938
		c-0.9487305-0.1835938-1.925293-0.5800781-2.9355469-1.1914063L13.0625,32.4150391
		c2.2929688,1.9257813,4.8764648,2.9970703,7.75,3.2109375V28.7460938z M20.8125,8.3393555
		c-2.9047852,0.2744141-5.4418945,1.3134766-7.6118164,3.1171875l4.7680664,4.9082031
		c0.7646484-0.5810547,1.7119141-0.9633789,2.84375-1.1469727V8.3393555z M16.5927734,21.9589844
		c0,0.7338867,0.1381836,1.4140625,0.4130859,2.0410156c0.2753906,0.6269531,0.6567383,1.1845703,1.1474609,1.6728516
		c0.487793,0.4902344,1.0541992,0.8720703,1.6953125,1.1474609c0.6420898,0.2753906,1.3305664,0.4130859,2.0644531,0.4130859
		c0.7333984,0,1.4208984-0.1376953,2.0634766-0.4130859c0.6435547-0.2753906,1.2080078-0.6572266,1.6982422-1.1474609
		C26.1630859,25.1845703,26.5449219,24.6269531,26.8212891,24c0.2744141-0.6269531,0.4111328-1.3071289,0.4111328-2.0410156
		c0-0.7036133-0.1367188-1.3754883-0.4111328-2.0175781c-0.2763672-0.6420898-0.6582031-1.1992188-1.1464844-1.6738281
		c-0.4902344-0.4736328-1.0546875-0.8481445-1.6982422-1.1240234c-0.6425781-0.2744141-1.3300781-0.4125977-2.0634766-0.4125977
		c-0.7338867,0-1.4223633,0.1381836-2.0644531,0.4125977c-0.6411133,0.2758789-1.2075195,0.6503906-1.6953125,1.1240234
		c-0.4907227,0.4746094-0.8720703,1.0317383-1.1474609,1.6738281C16.730957,20.5834961,16.5927734,21.2553711,16.5927734,21.9589844
		z M30.9492188,11.5039063c-2.1728516-1.8354492-4.7861328-2.8901367-7.8427734-3.1645508v6.9243164
		c1.0693359,0.1831055,2.03125,0.6118164,2.8876953,1.2841797L30.9492188,11.5039063z M23.1064453,35.6259766
		c3.0253906-0.2451172,5.640625-1.3320313,7.8427734-3.2558594l-4.8603516-4.953125
		c-0.8896484,0.7021484-1.8818359,1.1455078-2.9824219,1.3291016V35.6259766z M35.6708984,20.9042969
		c-0.2763672-3.0273438-1.359375-5.6713867-3.2548828-7.9331055l-4.9541016,5.0439453
		c0.3046875,0.4282227,0.5644531,0.8798828,0.7773438,1.3530273c0.2138672,0.4736328,0.3701172,0.9863281,0.4609375,1.5361328
		H35.6708984z M28.6533203,23.1513672c-0.1826172,1.1318359-0.5644531,2.0800781-1.1464844,2.8427734l4.8632813,4.953125
		c1.9257813-2.2011719,3.0244141-4.7998047,3.3007813-7.7958984H28.6533203z M30.9492188,32.3701172
		c0.1201172-0.0927734,0.2431641-0.2001953,0.3642578-0.3212891c0.1220703-0.1220703,0.2451172-0.2451172,0.3681641-0.3671875
		L30.9492188,32.3701172z"/>
</g>
</svg>
