<?xml version="1.0" encoding="utf-8"?>
<!-- Generator: Adobe Illustrator 16.0.3, SVG Export Plug-In . SVG Version: 6.00 Build 0)  -->
<!DOCTYPE svg PUBLIC "-//W3C//DTD SVG 1.1//EN" "http://www.w3.org/Graphics/SVG/1.1/DTD/svg11.dtd">
<svg version="1.1" id="Materials_x2C__Storage_x2C__Cleanup_Violations"
	 xmlns="http://www.w3.org/2000/svg" xmlns:xlink="http://www.w3.org/1999/xlink" x="0px" y="0px" width="44px" height="44px"
	 viewBox="0 0 44 44" enable-background="new 0 0 44 44" xml:space="preserve">
<circle fill="#FFFFFF" cx="22" cy="22" r="21"/>
<path fill="#AE0101" d="M22.001,40.906C11.523,40.906,3,32.403,3,21.953C3,11.502,11.523,3,22.001,3C32.476,3,41,11.502,41,21.953
	C41,32.403,32.476,40.906,22.001,40.906z"/>
<path fill="#FB3333" d="M22,40c-9.925,0-18-8.074-18-18c0-9.925,8.075-18,18-18c9.926,0,18,8.075,18,18C40,31.926,31.926,40,22,40z"
	/>
<g enable-background="new    ">
	<path fill="#FFFFFF" d="M10.117,25.498l-1.836-7.297v7.906c0,0.438-0.098,0.766-0.293,0.984S7.534,27.42,7.211,27.42
		c-0.313,0-0.568-0.108-0.766-0.324c-0.198-0.216-0.297-0.546-0.297-0.988v-9.063c0-0.5,0.13-0.837,0.391-1.012
		c0.26-0.175,0.612-0.262,1.055-0.262h0.719c0.432,0,0.746,0.039,0.941,0.117s0.34,0.219,0.434,0.422s0.2,0.534,0.32,0.992
		l1.664,6.273l1.664-6.273c0.12-0.458,0.227-0.789,0.32-0.992s0.238-0.344,0.434-0.422s0.509-0.117,0.941-0.117h0.719
		c0.442,0,0.794,0.087,1.055,0.262c0.26,0.175,0.391,0.512,0.391,1.012v9.063c0,0.438-0.098,0.766-0.293,0.984
		s-0.457,0.328-0.785,0.328c-0.308,0-0.56-0.109-0.758-0.328c-0.198-0.219-0.297-0.547-0.297-0.984v-7.906l-1.836,7.297
		c-0.12,0.474-0.218,0.821-0.293,1.043c-0.076,0.222-0.215,0.423-0.418,0.605s-0.484,0.273-0.844,0.273
		c-0.271,0-0.5-0.059-0.688-0.176s-0.333-0.267-0.438-0.449c-0.104-0.183-0.187-0.384-0.246-0.605
		C10.241,25.968,10.18,25.737,10.117,25.498z"/>
	<path fill="#FFFFFF" d="M28.281,23.787c0,0.692-0.179,1.315-0.535,1.867s-0.879,0.984-1.566,1.297s-1.503,0.469-2.445,0.469
		c-1.131,0-2.063-0.214-2.797-0.641c-0.521-0.308-0.944-0.718-1.27-1.23c-0.326-0.513-0.488-1.012-0.488-1.496
		c0-0.281,0.098-0.522,0.293-0.723s0.444-0.301,0.746-0.301c0.245,0,0.452,0.078,0.621,0.234c0.169,0.156,0.313,0.388,0.434,0.695
		c0.146,0.364,0.303,0.669,0.473,0.914c0.169,0.245,0.407,0.446,0.715,0.605c0.307,0.159,0.711,0.238,1.211,0.238
		c0.688,0,1.246-0.16,1.676-0.48s0.645-0.72,0.645-1.199c0-0.38-0.116-0.688-0.348-0.926c-0.232-0.237-0.531-0.418-0.898-0.543
		s-0.858-0.258-1.473-0.398c-0.823-0.192-1.512-0.418-2.066-0.676s-0.995-0.609-1.32-1.055c-0.326-0.445-0.488-0.999-0.488-1.66
		c0-0.63,0.172-1.19,0.516-1.68s0.841-0.866,1.492-1.129c0.651-0.263,1.416-0.395,2.297-0.395c0.703,0,1.311,0.087,1.824,0.262
		c0.513,0.175,0.938,0.406,1.277,0.695s0.586,0.593,0.742,0.91s0.234,0.628,0.234,0.93c0,0.276-0.098,0.524-0.293,0.746
		s-0.438,0.332-0.73,0.332c-0.266,0-0.468-0.066-0.605-0.199c-0.139-0.133-0.288-0.351-0.449-0.652
		c-0.209-0.433-0.459-0.77-0.75-1.012c-0.292-0.242-0.761-0.363-1.406-0.363c-0.6,0-1.082,0.132-1.449,0.395
		s-0.551,0.579-0.551,0.949c0,0.229,0.063,0.427,0.188,0.594s0.297,0.31,0.516,0.43s0.439,0.214,0.664,0.281
		c0.224,0.067,0.594,0.167,1.109,0.297c0.646,0.151,1.23,0.317,1.754,0.5s0.969,0.403,1.336,0.664s0.653,0.59,0.859,0.988
		S28.281,23.209,28.281,23.787z"/>
	<path fill="#FFFFFF" d="M37.688,17.686h-2.531v8.32c0,0.479-0.106,0.835-0.32,1.066s-0.489,0.348-0.828,0.348
		c-0.344,0-0.624-0.117-0.84-0.352s-0.324-0.589-0.324-1.063v-8.32h-2.531c-0.396,0-0.69-0.087-0.883-0.262
		s-0.289-0.405-0.289-0.691c0-0.297,0.101-0.531,0.301-0.703s0.491-0.258,0.871-0.258h7.375c0.401,0,0.699,0.089,0.895,0.266
		s0.293,0.409,0.293,0.695s-0.099,0.517-0.297,0.691S38.083,17.686,37.688,17.686z"/>
</g>
</svg>
