<?xml version="1.0" encoding="utf-8"?>
<!-- Generator: Adobe Illustrator 16.0.3, SVG Export Plug-In . SVG Version: 6.00 Build 0)  -->
<!DOCTYPE svg PUBLIC "-//W3C//DTD SVG 1.1//EN" "http://www.w3.org/Graphics/SVG/1.1/DTD/svg11.dtd">
<svg version="1.1" id="Missing_Asset" xmlns="http://www.w3.org/2000/svg" xmlns:xlink="http://www.w3.org/1999/xlink" x="0px"
	 y="0px" width="44px" height="44px" viewBox="0 0 44 44" enable-background="new 0 0 44 44" xml:space="preserve">
<circle fill="#FFFFFF" cx="22" cy="22" r="21"/>
<path fill="#262424" d="M22.0009766,40.90625C11.5234375,40.90625,3,32.4033203,3,21.9526367
	C3,11.5024414,11.5234375,3,22.0009766,3C32.4755859,3,41,11.5024414,41,21.9526367
	C41,32.4033203,32.4755859,40.90625,22.0009766,40.90625z"/>
<path fill="#424243" d="M22.0009766,40C12.0751953,40,4,31.9257813,4,22c0-9.9248047,8.0751953-18,18.0009766-18
	C31.9257813,4,40,12.0751953,40,22C40,31.9257813,31.9257813,40,22.0009766,40z"/>
<path fill="#FFFFFF" d="M9.0029297,30.125L14,33V13l-4.9970703-3V30.125z"/>
<polygon fill="#FFFFFF" points="30,10 30,30 35,33 35,12.8759766 "/>
<polygon fill="#FFFFFF" points="15.1503906,33 28.9179688,30.125 28.9179688,10 15.1503906,12.8759766 "/>
<g>
	<path fill="#424243" d="M17,18.1411133c0-0.6274414,0.2036133-1.2626953,0.6103516-1.9072266
		c0.4067383-0.6435547,1-1.1772461,1.7797852-1.5996094C20.1704102,14.2114258,21.0800781,14,22.1201172,14
		c0.9677734,0,1.8203125,0.1767578,2.5605469,0.5302734c0.7392578,0.3530273,1.3115234,0.8339844,1.7148438,1.4414063
		S27,17.2397461,27,17.953125c0,0.5615234-0.1142578,1.0537109-0.3447266,1.4760742
		c-0.2304688,0.4228516-0.5029297,0.7880859-0.8193359,1.0947266c-0.3173828,0.3076172-0.8857422,0.8242188-1.7050781,1.5507813
		c-0.2275391,0.2045898-0.4091797,0.3847656-0.5449219,0.5395508c-0.1376953,0.1557617-0.2392578,0.2973633-0.3056641,0.4267578
		c-0.0664063,0.1289063-0.1181641,0.2578125-0.1552734,0.3867188c-0.0361328,0.1279297-0.0917969,0.3544922-0.1645508,0.6777344
		c-0.1264648,0.6865234-0.5234375,1.03125-1.1899414,1.03125c-0.347168,0-0.6386719-0.1132813-0.8754883-0.3369141
		c-0.2363281-0.2255859-0.3549805-0.5585938-0.3549805-1.0009766c0-0.5546875,0.0869141-1.0356445,0.2602539-1.4418945
		c0.1728516-0.40625,0.4033203-0.7626953,0.6899414-1.0703125c0.2866211-0.3066406,0.6733398-0.671875,1.1601563-1.0942383
		c0.4267578-0.3696289,0.7353516-0.6489258,0.9248047-0.8374023c0.1904297-0.1879883,0.3505859-0.3979492,0.4794922-0.6289063
		C24.1855469,18.4946289,24.25,18.2436523,24.25,17.9726563c0-0.5283203-0.1972656-0.9741211-0.5947266-1.3369141
		c-0.3964844-0.3632813-0.9082031-0.5454102-1.5351563-0.5454102c-0.7329102,0-1.2734375,0.1835938-1.6201172,0.5498047
		c-0.3466797,0.3666992-0.6401367,0.9067383-0.8798828,1.6201172c-0.2265625,0.746582-0.6567383,1.1196289-1.2900391,1.1196289
		c-0.3735352,0-0.6879883-0.1303711-0.9448242-0.3911133C17.128418,18.7275391,17,18.4448242,17,18.1411133z M21.8803711,29
		c-0.4067383,0-0.7617188-0.1298828-1.0654297-0.3916016c-0.3032227-0.2607422-0.4545898-0.6259766-0.4545898-1.0947266
		c0-0.4160156,0.1464844-0.765625,0.4399414-1.0498047s0.6533203-0.4267578,1.0800781-0.4267578
		c0.4199219,0,0.7729492,0.1425781,1.0595703,0.4267578s0.4301758,0.6337891,0.4301758,1.0498047
		c0,0.4628906-0.1494141,0.8251953-0.449707,1.0908203C22.6206055,28.8681641,22.2734375,29,21.8803711,29z"/>
</g>
</svg>
