<?xml version="1.0" encoding="utf-8"?>
<!-- Generator: Adobe Illustrator 16.0.3, SVG Export Plug-In . SVG Version: 6.00 Build 0)  -->
<!DOCTYPE svg PUBLIC "-//W3C//DTD SVG 1.1//EN" "http://www.w3.org/Graphics/SVG/1.1/DTD/svg11.dtd">
<svg version="1.1" id="Outlet_Protection_Violations"
	 xmlns="http://www.w3.org/2000/svg" xmlns:xlink="http://www.w3.org/1999/xlink" x="0px" y="0px" width="44px" height="44px"
	 viewBox="0 0 44 44" enable-background="new 0 0 44 44" xml:space="preserve">
<circle fill="#FFFFFF" cx="22" cy="22" r="21"/>
<path fill="#AE0101" d="M22.0009766,40.90625C11.5234375,40.90625,3,32.4033203,3,21.9526367
	C3,11.5024414,11.5234375,3,22.0009766,3C32.4755859,3,41,11.5024414,41,21.9526367
	C41,32.4033203,32.4755859,40.90625,22.0009766,40.90625z"/>
<path fill="#FB3333" d="M22.0004883,40C12.0751953,40,4,31.9257813,4,21.9995117C4,12.074707,12.0751953,4,22.0004883,4
	S40,12.074707,40,21.9995117C40,31.9257813,31.9257813,40,22.0004883,40z"/>
<g>
	<path fill="#FFFFFF" d="M16.6171875,15.5761719c1.1875,0,2.2070313,0.2412109,3.0585938,0.7226563
		c0.8515625,0.4819336,1.4960938,1.1669922,1.9335938,2.0546875c0.4375,0.8881836,0.65625,1.9311523,0.65625,3.1289063
		c0,0.8857422-0.1201172,1.6904297-0.359375,2.4140625c-0.2392578,0.7246094-0.5986328,1.3515625-1.078125,1.8828125
		s-1.0678711,0.9375-1.765625,1.21875c-0.6982422,0.28125-1.4975586,0.421875-2.3984375,0.421875
		c-0.8959961,0-1.6982422-0.1445313-2.40625-0.4335938c-0.7084961-0.2890625-1.2998047-0.6962891-1.7734375-1.2226563
		c-0.4741211-0.5253906-0.8320313-1.1582031-1.0742188-1.8984375c-0.2421875-0.7392578-0.3632813-1.5390625-0.3632813-2.3984375
		c0-0.8798828,0.1259766-1.6875,0.3789063-2.421875c0.2524414-0.734375,0.6181641-1.359375,1.0976563-1.875
		c0.4790039-0.515625,1.0625-0.9101563,1.75-1.1835938S15.7421875,15.5761719,16.6171875,15.5761719z M19.9140625,21.4667969
		c0-0.8383789-0.1357422-1.5649414-0.40625-2.1796875c-0.2709961-0.6142578-0.6577148-1.0791016-1.1601563-1.3945313
		c-0.5029297-0.3149414-1.0795898-0.4726563-1.7304688-0.4726563c-0.4638672,0-0.8920898,0.0874023-1.2851563,0.2617188
		c-0.3935547,0.1748047-0.7319336,0.4287109-1.015625,0.7617188c-0.2841797,0.3334961-0.5078125,0.7592773-0.671875,1.2773438
		c-0.1640625,0.5185547-0.2460938,1.1005859-0.2460938,1.7460938c0,0.6513672,0.0820313,1.2397461,0.2460938,1.765625
		c0.1640625,0.5263672,0.3955078,0.9628906,0.6953125,1.3085938c0.2993164,0.3466797,0.6430664,0.6054688,1.03125,0.7773438
		c0.3876953,0.171875,0.8134766,0.2578125,1.2773438,0.2578125c0.59375,0,1.1391602-0.1484375,1.6367188-0.4453125
		c0.4970703-0.296875,0.8930664-0.7548828,1.1875-1.375C19.7666016,23.1367188,19.9140625,22.3730469,19.9140625,21.4667969z"/>
	<path fill="#FFFFFF" d="M28.6953125,22.7636719h-2.125v3.2421875c0,0.4638672-0.109375,0.8154297-0.328125,1.0546875
		s-0.4951172,0.359375-0.828125,0.359375c-0.3486328,0-0.6298828-0.1191406-0.84375-0.3554688S24.25,26.4804688,24.25,26.0214844
		v-8.828125c0-0.5102539,0.1171875-0.875,0.3515625-1.09375s0.6064453-0.328125,1.1171875-0.328125h2.9765625
		c0.8798828,0,1.5576172,0.0678711,2.03125,0.203125c0.46875,0.1303711,0.8740234,0.3466797,1.2148438,0.6484375
		c0.3408203,0.3022461,0.6005859,0.671875,0.7773438,1.109375s0.265625,0.9296875,0.265625,1.4765625
		c0,1.1669922-0.359375,2.0507813-1.078125,2.6523438S30.1171875,22.7636719,28.6953125,22.7636719z M28.1328125,17.5136719h-1.5625
		v3.5h1.5625c0.546875,0,1.0039063-0.0571289,1.3710938-0.171875c0.3671875-0.1142578,0.6474609-0.3017578,0.8398438-0.5625
		c0.1923828-0.2602539,0.2890625-0.6015625,0.2890625-1.0234375c0-0.5048828-0.1484375-0.9165039-0.4453125-1.234375
		C29.8544922,17.6831055,29.1689453,17.5136719,28.1328125,17.5136719z"/>
</g>
</svg>
