<?xml version="1.0" encoding="utf-8"?>
<!-- Generator: Adobe Illustrator 16.0.3, SVG Export Plug-In . SVG Version: 6.00 Build 0)  -->
<!DOCTYPE svg PUBLIC "-//W3C//DTD SVG 1.1//EN" "http://www.w3.org/Graphics/SVG/1.1/DTD/svg11.dtd">
<svg version="1.1" id="Park_Mowing_Program_-_In_Progress"
	 xmlns="http://www.w3.org/2000/svg" xmlns:xlink="http://www.w3.org/1999/xlink" x="0px" y="0px" width="44px" height="44px"
	 viewBox="0 0 44 44" enable-background="new 0 0 44 44" xml:space="preserve">
<circle fill="#FFFFFF" cx="22" cy="22" r="21"/>
<path fill="#BF9004" d="M22.0009766,41C11.5234375,41,3,32.4970703,3,22.0463867
	C3,11.5961914,11.5234375,3.09375,22.0009766,3.09375C32.4755859,3.09375,41,11.5961914,41,22.0463867
	C41,32.4970703,32.4755859,41,22.0009766,41z"/>
<path fill="#F3B705" d="M22,40c-9.9248047,0-18-8.0742188-18-18.0004883C4,12.074707,12.0751953,4,22,4
	c9.9257813,0,18,8.074707,18,17.9995117C40,31.9257813,31.9257813,40,22,40z"/>
<polygon fill="#FFFFFF" points="28.5703125,17 25,17 32.3574219,25 27,25 34,32 25,32 25,37 19,37 19,32 10,32 17,25 11.6435547,25 
	19,17 15.4291992,17 22,7 "/>
</svg>
