<?xml version="1.0" encoding="utf-8"?>
<!-- Generator: Adobe Illustrator 16.0.3, SVG Export Plug-In . SVG Version: 6.00 Build 0)  -->
<!DOCTYPE svg PUBLIC "-//W3C//DTD SVG 1.1//EN" "http://www.w3.org/Graphics/SVG/1.1/DTD/svg11.dtd">
<svg version="1.1" id="Porous_Pavement_-_Green_Infrastructure"
	 xmlns="http://www.w3.org/2000/svg" xmlns:xlink="http://www.w3.org/1999/xlink" x="0px" y="0px" width="44px" height="44px"
	 viewBox="0 0 44 44" enable-background="new 0 0 44 44" xml:space="preserve">
<circle fill="#FFFFFF" cx="22" cy="22" r="21"/>
<path fill="#38673D" d="M22.001,40.906C11.523,40.906,3,32.402,3,21.953C3,11.502,11.523,3,22.001,3C32.477,3,41,11.502,41,21.953
	C41,32.402,32.477,40.906,22.001,40.906z"/>
<path fill="#359A40" d="M22,40c-9.925,0-18-8.074-18-18c0-9.925,8.075-18,18-18c9.926,0,18,8.075,18,18C40,31.926,31.926,40,22,40z"
	/>
<path fill="#FFFFFF" d="M16.112,22.614H13.19v4.458c0,0.638-0.15,1.121-0.451,1.449c-0.301,0.33-0.681,0.494-1.139,0.494
	c-0.48,0-0.867-0.162-1.16-0.488C10.146,28.202,10,27.725,10,27.094V14.955c0-0.702,0.161-1.203,0.483-1.504
	C10.805,13.15,11.317,13,12.02,13h4.093c1.21,0,2.141,0.093,2.793,0.279c0.645,0.179,1.201,0.477,1.671,0.892
	c0.469,0.416,0.825,0.924,1.068,1.525c0.243,0.601,0.365,1.278,0.365,2.03c0,1.604-0.494,2.82-1.482,3.647
	C19.54,22.2,18.067,22.614,16.112,22.614z M15.339,15.396H13.19v4.813h2.148c0.752,0,1.38-0.079,1.885-0.236
	c0.505-0.157,0.89-0.415,1.155-0.773c0.265-0.358,0.397-0.827,0.397-1.407c0-0.694-0.204-1.26-0.612-1.697
	C17.706,15.628,16.764,15.396,15.339,15.396z"/>
<path fill="#FFFFFF" d="M30.111,22.614h-2.922v4.458c0,0.638-0.149,1.121-0.45,1.449c-0.302,0.33-0.681,0.494-1.14,0.494
	c-0.479,0-0.865-0.162-1.16-0.488C24.146,28.202,24,27.725,24,27.094V14.955c0-0.702,0.161-1.203,0.482-1.504
	C24.805,13.15,25.316,13,26.02,13h4.094c1.21,0,2.142,0.093,2.793,0.279c0.645,0.179,1.201,0.477,1.671,0.892
	c0.469,0.416,0.825,0.924,1.067,1.525c0.244,0.601,0.365,1.278,0.365,2.03c0,1.604-0.494,2.82-1.482,3.647
	C33.54,22.2,32.066,22.614,30.111,22.614z M29.339,15.396h-2.149v4.813h2.148c0.752,0,1.38-0.079,1.887-0.236
	c0.504-0.157,0.889-0.415,1.153-0.773c0.265-0.358,0.397-0.827,0.397-1.407c0-0.694-0.205-1.26-0.612-1.697
	C31.706,15.628,30.764,15.396,29.339,15.396z"/>
</svg>
