<?xml version="1.0" encoding="utf-8"?>
<!-- Generator: Adobe Illustrator 16.0.3, SVG Export Plug-In . SVG Version: 6.00 Build 0)  -->
<!DOCTYPE svg PUBLIC "-//W3C//DTD SVG 1.1//EN" "http://www.w3.org/Graphics/SVG/1.1/DTD/svg11.dtd">
<svg version="1.1" id="Pressure_Reducing_Valve_-_Green_Infrastructure"
	 xmlns="http://www.w3.org/2000/svg" xmlns:xlink="http://www.w3.org/1999/xlink" x="0px" y="0px" width="44px" height="44px"
	 viewBox="0 0 44 44" enable-background="new 0 0 44 44" xml:space="preserve">
<circle fill="#FFFFFF" cx="22" cy="22" r="21"/>
<path fill="#38673D" d="M22.001,40.906C11.523,40.906,3,32.403,3,21.953C3,11.502,11.523,3,22.001,3C32.476,3,41,11.502,41,21.953
	C41,32.403,32.476,40.906,22.001,40.906z"/>
<path fill="#359A40" d="M22,40c-9.925,0-18-8.074-18-18c0-9.925,8.075-18,18-18c9.926,0,18,8.075,18,18C40,31.926,31.926,40,22,40z"
	/>
<path fill="#FFFFFF" d="M12.89,23.061H11.03v2.744c0,0.392-0.096,0.689-0.287,0.892C10.552,26.899,10.31,27,10.019,27
	c-0.305,0-0.551-0.101-0.738-0.301S9,26.205,9,25.817v-7.47c0-0.432,0.103-0.74,0.308-0.925s0.531-0.278,0.978-0.278h2.604
	c0.77,0,1.363,0.057,1.777,0.172c0.41,0.11,0.765,0.293,1.063,0.549s0.525,0.568,0.68,0.939c0.155,0.37,0.232,0.787,0.232,1.249
	c0,0.987-0.314,1.735-0.943,2.245S14.134,23.061,12.89,23.061z M12.397,18.618H11.03v2.962h1.367c0.479,0,0.878-0.049,1.2-0.146
	s0.566-0.255,0.735-0.476s0.253-0.509,0.253-0.866c0-0.428-0.13-0.776-0.39-1.045C13.904,18.761,13.304,18.618,12.397,18.618z"/>
<path fill="#FFFFFF" d="M20.741,22.69H20.03v3.114c0,0.409-0.093,0.711-0.28,0.904C19.563,26.903,19.319,27,19.019,27
	c-0.324,0-0.574-0.101-0.752-0.304C18.089,26.494,18,26.196,18,25.805v-7.458c0-0.423,0.098-0.729,0.294-0.918
	c0.196-0.189,0.513-0.285,0.95-0.285h3.302c0.456,0,0.846,0.019,1.169,0.057c0.323,0.037,0.615,0.113,0.875,0.228
	c0.314,0.128,0.593,0.311,0.834,0.548c0.241,0.238,0.425,0.515,0.551,0.83c0.125,0.315,0.188,0.649,0.188,1.001
	c0,0.723-0.211,1.3-0.633,1.732c-0.421,0.432-1.061,0.738-1.917,0.919c0.36,0.186,0.704,0.459,1.032,0.82s0.621,0.746,0.879,1.152
	c0.257,0.408,0.457,0.776,0.602,1.104c0.143,0.329,0.215,0.555,0.215,0.678c0,0.128-0.042,0.255-0.127,0.38
	c-0.084,0.126-0.199,0.225-0.345,0.298C25.723,26.964,25.554,27,25.362,27c-0.228,0-0.419-0.051-0.574-0.155
	c-0.155-0.104-0.288-0.233-0.399-0.393c-0.112-0.158-0.264-0.393-0.455-0.7l-0.813-1.31c-0.292-0.48-0.553-0.847-0.782-1.098
	c-0.23-0.251-0.465-0.423-0.701-0.516C21.4,22.736,21.101,22.69,20.741,22.69z M21.903,18.618H20.03v2.664h1.818
	c0.487,0,0.897-0.041,1.23-0.122s0.587-0.221,0.763-0.417c0.175-0.196,0.263-0.466,0.263-0.81c0-0.269-0.07-0.506-0.212-0.711
	c-0.142-0.205-0.337-0.358-0.588-0.459C23.067,18.667,22.601,18.618,21.903,18.618z"/>
<path fill="#FFFFFF" d="M29.376,18.268l2.27,6.498l2.276-6.544c0.118-0.344,0.207-0.583,0.267-0.717
	c0.06-0.134,0.157-0.255,0.294-0.363c0.137-0.108,0.323-0.162,0.561-0.162c0.173,0,0.334,0.042,0.482,0.125
	c0.147,0.083,0.264,0.195,0.348,0.334C35.958,17.577,36,17.717,36,17.858c0,0.097-0.014,0.201-0.041,0.314
	c-0.027,0.112-0.062,0.222-0.103,0.331c-0.041,0.108-0.082,0.219-0.123,0.333l-2.427,6.333c-0.087,0.241-0.173,0.472-0.26,0.69
	c-0.087,0.218-0.187,0.409-0.301,0.575c-0.114,0.165-0.266,0.3-0.455,0.406C32.103,26.947,31.871,27,31.598,27
	s-0.505-0.051-0.693-0.155c-0.189-0.104-0.342-0.239-0.459-0.409c-0.115-0.17-0.217-0.363-0.304-0.578
	c-0.087-0.217-0.173-0.446-0.26-0.688l-2.386-6.28c-0.041-0.115-0.083-0.228-0.127-0.337c-0.043-0.11-0.079-0.229-0.109-0.357
	c-0.029-0.128-0.044-0.236-0.044-0.324c0-0.225,0.094-0.43,0.28-0.615s0.422-0.278,0.704-0.278c0.347,0,0.591,0.103,0.735,0.308
	C29.078,17.491,29.226,17.818,29.376,18.268z"/>
</svg>
