<?xml version="1.0" encoding="utf-8"?>
<!-- Generator: Adobe Illustrator 16.0.3, SVG Export Plug-In . SVG Version: 6.00 Build 0)  -->
<!DOCTYPE svg PUBLIC "-//W3C//DTD SVG 1.1//EN" "http://www.w3.org/Graphics/SVG/1.1/DTD/svg11.dtd">
<svg version="1.1" id="Project_Operations_Violations"
	 xmlns="http://www.w3.org/2000/svg" xmlns:xlink="http://www.w3.org/1999/xlink" x="0px" y="0px" width="44px" height="44px"
	 viewBox="0 0 44 44" enable-background="new 0 0 44 44" xml:space="preserve">
<circle fill="#FFFFFF" cx="22" cy="22" r="21"/>
<path fill="#AE0101" d="M22.0009766,40.90625C11.5234375,40.90625,3,32.4033203,3,21.9526367
	C3,11.5024414,11.5234375,3,22.0009766,3C32.4755859,3,41,11.5024414,41,21.9526367
	C41,32.4033203,32.4755859,40.90625,22.0009766,40.90625z"/>
<path fill="#FB3333" d="M22.0004883,40C12.0751953,40,4,31.9257813,4,21.9995117C4,12.074707,12.0751953,4,22.0004883,4
	S40,12.074707,40,21.9995117C40,31.9257813,31.9257813,40,22.0004883,40z"/>
<g>
	<path fill="#FFFFFF" d="M16.0234375,22.7636719h-2.125v3.2421875c0,0.4638672-0.109375,0.8154297-0.328125,1.0546875
		s-0.4951172,0.359375-0.828125,0.359375c-0.3491211,0-0.6303711-0.1191406-0.84375-0.3554688
		c-0.2138672-0.2363281-0.3203125-0.5839844-0.3203125-1.0429688v-8.828125c0-0.5102539,0.1171875-0.875,0.3515625-1.09375
		s0.6064453-0.328125,1.1171875-0.328125h2.9765625c0.8798828,0,1.5571289,0.0678711,2.03125,0.203125
		c0.46875,0.1303711,0.8740234,0.3466797,1.2148438,0.6484375c0.3408203,0.3022461,0.6005859,0.671875,0.7773438,1.109375
		s0.265625,0.9296875,0.265625,1.4765625c0,1.1669922-0.359375,2.0507813-1.078125,2.6523438
		S17.4453125,22.7636719,16.0234375,22.7636719z M15.4609375,17.5136719h-1.5625v3.5h1.5625
		c0.546875,0,1.0039063-0.0571289,1.3710938-0.171875c0.3671875-0.1142578,0.6469727-0.3017578,0.8398438-0.5625
		c0.1923828-0.2602539,0.2890625-0.6015625,0.2890625-1.0234375c0-0.5048828-0.1484375-0.9165039-0.4453125-1.234375
		C17.1821289,17.6831055,16.4970703,17.5136719,15.4609375,17.5136719z"/>
	<path fill="#FFFFFF" d="M27.2890625,15.5761719c1.1875,0,2.2070313,0.2412109,3.0585938,0.7226563
		c0.8515625,0.4819336,1.4960938,1.1669922,1.9335938,2.0546875c0.4375,0.8881836,0.65625,1.9311523,0.65625,3.1289063
		c0,0.8857422-0.1201172,1.6904297-0.359375,2.4140625c-0.2392578,0.7246094-0.5986328,1.3515625-1.078125,1.8828125
		s-1.0673828,0.9375-1.765625,1.21875s-1.4970703,0.421875-2.3984375,0.421875c-0.8955078,0-1.6982422-0.1445313-2.40625-0.4335938
		s-1.2998047-0.6962891-1.7734375-1.2226563c-0.4736328-0.5253906-0.8320313-1.1582031-1.0742188-1.8984375
		c-0.2421875-0.7392578-0.3632813-1.5390625-0.3632813-2.3984375c0-0.8798828,0.1259766-1.6875,0.3789063-2.421875
		s0.6181641-1.359375,1.0976563-1.875s1.0625-0.9101563,1.75-1.1835938S26.4140625,15.5761719,27.2890625,15.5761719z
		 M30.5859375,21.4667969c0-0.8383789-0.1357422-1.5649414-0.40625-2.1796875
		c-0.2705078-0.6142578-0.6572266-1.0791016-1.1601563-1.3945313c-0.5029297-0.3149414-1.0791016-0.4726563-1.7304688-0.4726563
		c-0.4638672,0-0.8916016,0.0874023-1.2851563,0.2617188c-0.3935547,0.1748047-0.7314453,0.4287109-1.015625,0.7617188
		c-0.2841797,0.3334961-0.5078125,0.7592773-0.671875,1.2773438c-0.1640625,0.5185547-0.2460938,1.1005859-0.2460938,1.7460938
		c0,0.6513672,0.0820313,1.2397461,0.2460938,1.765625c0.1640625,0.5263672,0.3955078,0.9628906,0.6953125,1.3085938
		c0.2998047,0.3466797,0.6435547,0.6054688,1.03125,0.7773438s0.8134766,0.2578125,1.2773438,0.2578125
		c0.59375,0,1.1396484-0.1484375,1.6367188-0.4453125s0.8935547-0.7548828,1.1875-1.375
		C30.4384766,23.1367188,30.5859375,22.3730469,30.5859375,21.4667969z"/>
</g>
</svg>
