<?xml version="1.0" encoding="utf-8"?>
<!-- Generator: Adobe Illustrator 16.0.3, SVG Export Plug-In . SVG Version: 6.00 Build 0)  -->
<!DOCTYPE svg PUBLIC "-//W3C//DTD SVG 1.1//EN" "http://www.w3.org/Graphics/SVG/1.1/DTD/svg11.dtd">
<svg version="1.1" id="Railroad_Crossing" xmlns="http://www.w3.org/2000/svg" xmlns:xlink="http://www.w3.org/1999/xlink" x="0px"
	 y="0px" width="44px" height="44px" viewBox="0 0 44 44" enable-background="new 0 0 44 44" xml:space="preserve">
<circle fill="#FFFFFF" cx="22" cy="22" r="21"/>
<path fill="#CC8800" d="M22.0009766,40.90625C11.5234375,40.90625,3,32.4033203,3,21.9526367
	C3,11.5024414,11.5234375,3,22.0009766,3C32.4755859,3,41,11.5024414,41,21.9526367
	C41,32.4033203,32.4755859,40.90625,22.0009766,40.90625z"/>
<path fill="#FFFFFF" d="M22.0009766,40C12.0751953,40,4,31.9257813,4,22c0-9.9248047,8.0751953-18,18.0009766-18
	C31.9257813,4,40,12.0751953,40,22C40,31.9257813,31.9257813,40,22.0009766,40z"/>
<g>
	<path fill="#FFAA00" d="M19.2485352,22.0522461L7.9633789,33.2802734C5.3217773,29.9804688,4,26.2177734,4,21.9980469
		c0-2.0883789,0.3408203-4.0893555,1.0185547-6c0.6787109-1.90625,1.6611328-3.6494141,2.9448242-5.2241211L19.2485352,22.0522461z
		 M22.1655273,19.1347656L10.8813477,7.8520508c1.5795898-1.2797852,3.3037109-2.2485352,5.1723633-2.890625
		C17.9282227,4.3232422,19.9101563,4,22.0019531,4c4.2167969,0,7.9794922,1.3212891,11.2871094,3.9633789L22.1655273,19.1347656z
		 M22.1655273,24.9726563l11.065918,11.0576172C31.6513672,37.3212891,29.9101563,38.2939453,28,38.9794922
		C26.0966797,39.6611328,24.0908203,40,22.0019531,40c-4.1845703,0-7.8916016-1.2695313-11.1206055-3.7988281L22.1655273,24.9726563
		z M36.2021484,10.8813477C38.7363281,14.1459961,40,17.8491211,40,21.9980469c0,2.09375-0.3222656,4.0751953-0.9609375,5.9433594
		c-0.640625,1.8759766-1.6054688,3.5996094-2.8916016,5.1796875L25.0791016,22.0522461L36.2021484,10.8813477z"/>
</g>
<g>
	<path fill="#FFFFFF" d="M8.6274414,23H8v2.8427734c0,0.3740234-0.2895508,0.703125-0.4545898,0.8798828S7.265625,27,7,27
		c-0.2856445,0-0.6074219-0.0927734-0.7646484-0.2773438C6.0786133,26.5371094,6,26.265625,6,25.9072266v-6.8085938
		c0-0.3862305,0.0864258-0.6660156,0.2597656-0.8388672C6.4326172,18.0864258,6.7124023,18,7.0986328,18h2.9155273
		c0.4023438,0,0.746582,0.0170898,1.0322266,0.0512695s0.5429688,0.1035156,0.7724609,0.2084961
		c0.277832,0.1166992,0.5234375,0.2836914,0.7363281,0.5009766c0.2133789,0.2172852,0.3754883,0.4697266,0.4863281,0.7573242
		c0.1103516,0.2875977,0.1660156,0.5927734,0.1660156,0.9145508c0,0.6601563-0.1865234,1.1870117-0.5585938,1.581543
		s-0.9365234,0.6738281-1.6933594,0.8388672c0.3178711,0.168457,0.6220703,0.418457,0.9116211,0.7485352
		s0.5483398,0.6816406,0.7758789,1.0527344c0.2270508,0.3730469,0.4042969,0.7089844,0.53125,1.0087891
		c0.1264648,0.2998047,0.1899414,0.5058594,0.1899414,0.6181641c0,0.1171875-0.0371094,0.2324219-0.1118164,0.3476563
		c-0.0742188,0.1142578-0.1757813,0.2050781-0.3046875,0.2714844s-0.0708008,0.0351563-0.2397461,0.0351563
		c-0.2011719,0-0.3701172-0.046875-0.5068359-0.1416016s-0.2548828-0.2148438-0.3530273-0.359375
		c-0.0986328-0.1445313-0.2324219-0.3583984-0.4018555-0.6396484l-0.7182617-1.1953125
		c-0.2573242-0.4384766-0.487793-0.7734375-0.690918-1.0019531c-0.203125-0.2294922-0.409668-0.3867188-0.6186523-0.4707031
		C9.2089844,23.0419922,8.9453125,23,8.6274414,23z M9.6552734,19.3461914H8.0009766v2.4326172h1.6054688
		c0.4306641,0,0.7929688-0.0375977,1.0869141-0.1118164s0.5175781-0.2011719,0.6728516-0.3803711
		s0.2324219-0.425293,0.2324219-0.7392578c0-0.2456055-0.0625-0.4619141-0.1875-0.6489258
		c-0.1240234-0.1870117-0.2978516-0.3271484-0.5185547-0.4194336C10.6835938,19.3901367,10.2705078,19.3461914,9.6552734,19.3461914
		z"/>
</g>
<g>
	<path fill="#FFFFFF" d="M33.6269531,23H33v2.8427734c0,0.3740234-0.2890625,0.703125-0.4550781,0.8798828
		C32.3808594,26.8994141,32.265625,27,32,27c-0.2851563,0-0.6074219-0.0927734-0.7646484-0.2773438
		C31.078125,26.5371094,31,26.265625,31,25.9072266v-6.8085938c0-0.3862305,0.0859375-0.6660156,0.2597656-0.8388672
		C31.4326172,18.0864258,31.7128906,18,32.0986328,18h2.9150391c0.4023438,0,0.7470703,0.0170898,1.0332031,0.0512695
		c0.2851563,0.0341797,0.5429688,0.1035156,0.7714844,0.2084961c0.2783203,0.1166992,0.5234375,0.2836914,0.7363281,0.5009766
		c0.2138672,0.2172852,0.3759766,0.4697266,0.4863281,0.7573242c0.1113281,0.2875977,0.1660156,0.5927734,0.1660156,0.9145508
		c0,0.6601563-0.1855469,1.1870117-0.5585938,1.581543c-0.3710938,0.3945313-0.9355469,0.6738281-1.6933594,0.8388672
		c0.3183594,0.168457,0.6230469,0.418457,0.9121094,0.7485352s0.5488281,0.6816406,0.7753906,1.0527344
		c0.2275391,0.3730469,0.4042969,0.7089844,0.53125,1.0087891s0.1904297,0.5058594,0.1904297,0.6181641
		c0,0.1171875-0.0371094,0.2324219-0.1123047,0.3476563c-0.0742188,0.1142578-0.1757813,0.2050781-0.3046875,0.2714844
		s-0.0703125,0.0351563-0.2392578,0.0351563c-0.2011719,0-0.3701172-0.046875-0.5068359-0.1416016
		s-0.2548828-0.2148438-0.3535156-0.359375c-0.0976563-0.1445313-0.2324219-0.3583984-0.4013672-0.6396484l-0.7177734-1.1953125
		c-0.2578125-0.4384766-0.4882813-0.7734375-0.6914063-1.0019531c-0.203125-0.2294922-0.4101563-0.3867188-0.6191406-0.4707031
		C34.2089844,23.0419922,33.9453125,23,33.6269531,23z M34.6552734,19.3461914h-1.6542969v2.4326172h1.6054688
		c0.4306641,0,0.7929688-0.0375977,1.0869141-0.1118164s0.5175781-0.2011719,0.6728516-0.3803711
		s0.2324219-0.425293,0.2324219-0.7392578c0-0.2456055-0.0625-0.4619141-0.1875-0.6489258
		c-0.1240234-0.1870117-0.2978516-0.3271484-0.5185547-0.4194336
		C35.6835938,19.3901367,35.2705078,19.3461914,34.6552734,19.3461914z"/>
</g>
</svg>
