<?xml version="1.0" encoding="utf-8"?>
<!-- Generator: Adobe Illustrator 16.0.3, SVG Export Plug-In . SVG Version: 6.00 Build 0)  -->
<!DOCTYPE svg PUBLIC "-//W3C//DTD SVG 1.1//EN" "http://www.w3.org/Graphics/SVG/1.1/DTD/svg11.dtd">
<svg version="1.1" id="Rain_Water_Catchment_-_Green_Infrastructure"
	 xmlns="http://www.w3.org/2000/svg" xmlns:xlink="http://www.w3.org/1999/xlink" x="0px" y="0px" width="44px" height="44px"
	 viewBox="0 0 44 44" enable-background="new 0 0 44 44" xml:space="preserve">
<circle fill="#FFFFFF" cx="22" cy="22" r="21"/>
<path fill="#38673D" d="M22.001,40.906C11.523,40.906,3,32.403,3,21.953C3,11.502,11.523,3,22.001,3C32.476,3,41,11.502,41,21.953
	C41,32.403,32.476,40.906,22.001,40.906z"/>
<path fill="#359A40" d="M22.001,40C12.075,40,4,31.926,4,22c0-9.925,8.075-18,18.001-18C31.926,4,40,12.075,40,22
	C40,31.926,31.926,40,22.001,40z"/>
<path fill="#FFFFFF" d="M8.741,22.715H8.03v3.097c0,0.407-0.093,0.707-0.28,0.899C7.563,26.904,7.319,27,7.019,27
	c-0.324,0-0.574-0.101-0.752-0.303C6.089,26.497,6,26.201,6,25.812v-7.414c0-0.42,0.098-0.725,0.294-0.914
	c0.196-0.188,0.513-0.283,0.95-0.283h3.302c0.456,0,0.845,0.019,1.169,0.056s0.615,0.113,0.875,0.227
	c0.314,0.127,0.592,0.309,0.834,0.545c0.242,0.237,0.425,0.512,0.55,0.825c0.125,0.313,0.188,0.645,0.188,0.996
	c0,0.719-0.211,1.292-0.632,1.722c-0.421,0.43-1.061,0.734-1.917,0.914c0.36,0.185,0.704,0.456,1.032,0.815s0.621,0.741,0.878,1.146
	s0.458,0.771,0.602,1.098s0.215,0.551,0.215,0.674c0,0.127-0.042,0.253-0.126,0.378c-0.084,0.124-0.199,0.223-0.345,0.295
	S13.554,27,13.362,27c-0.228,0-0.419-0.051-0.574-0.154c-0.155-0.103-0.288-0.232-0.4-0.391c-0.112-0.157-0.263-0.391-0.455-0.696
	l-0.813-1.302c-0.292-0.478-0.553-0.842-0.783-1.091c-0.23-0.25-0.464-0.421-0.701-0.513S9.101,22.715,8.741,22.715z M9.903,18.667
	H8.03v2.648h1.818c0.488,0,0.898-0.04,1.23-0.122c0.333-0.081,0.587-0.219,0.762-0.414s0.263-0.463,0.263-0.805
	c0-0.268-0.071-0.503-0.212-0.707c-0.141-0.204-0.337-0.356-0.588-0.457C11.068,18.715,10.601,18.667,9.903,18.667z"/>
<path fill="#FFFFFF" d="M23.311,25.317l-1.619-5.776l-1.641,5.776c-0.128,0.438-0.229,0.753-0.305,0.943
	c-0.074,0.191-0.206,0.362-0.393,0.513C19.167,26.925,18.917,27,18.608,27c-0.251,0-0.457-0.045-0.618-0.134
	c-0.162-0.09-0.293-0.218-0.394-0.382s-0.183-0.359-0.246-0.585s-0.121-0.435-0.171-0.627l-1.668-6.487
	c-0.1-0.377-0.15-0.664-0.15-0.861c0-0.25,0.091-0.46,0.273-0.631s0.408-0.256,0.677-0.256c0.369,0,0.617,0.114,0.745,0.342
	s0.239,0.559,0.335,0.992l1.313,5.626l1.47-5.264c0.109-0.403,0.207-0.71,0.294-0.92c0.087-0.21,0.228-0.392,0.424-0.545
	s0.463-0.23,0.8-0.23c0.342,0,0.607,0.08,0.797,0.24c0.188,0.16,0.318,0.334,0.393,0.522c0.072,0.188,0.17,0.5,0.293,0.934
	l1.484,5.264l1.313-5.626c0.063-0.293,0.123-0.523,0.182-0.69c0.057-0.167,0.154-0.315,0.293-0.447s0.34-0.197,0.605-0.197
	c0.264,0,0.488,0.084,0.674,0.253C27.908,17.458,28,17.67,28,17.924c0,0.18-0.049,0.467-0.15,0.861l-1.668,6.487
	c-0.113,0.438-0.207,0.759-0.283,0.962c-0.074,0.204-0.203,0.383-0.383,0.536S25.082,27,24.754,27c-0.311,0-0.559-0.074-0.746-0.224
	c-0.186-0.148-0.316-0.315-0.389-0.502C23.545,26.088,23.443,25.77,23.311,25.317z"/>
<path fill="#FFFFFF" d="M37.934,23.793c0,0.307-0.078,0.639-0.234,0.996c-0.158,0.357-0.406,0.707-0.742,1.052
	c-0.338,0.344-0.768,0.623-1.293,0.838C35.141,26.893,34.529,27,33.832,27c-0.527,0-1.01-0.048-1.441-0.145
	c-0.434-0.096-0.826-0.246-1.18-0.45c-0.354-0.203-0.678-0.472-0.975-0.804c-0.264-0.303-0.49-0.642-0.676-1.016
	c-0.188-0.375-0.328-0.775-0.42-1.2C29.047,22.961,29,22.51,29,22.032c0-0.775,0.117-1.47,0.352-2.083
	c0.234-0.614,0.57-1.138,1.008-1.574s0.951-0.768,1.539-0.996s1.215-0.342,1.879-0.342c0.813,0,1.533,0.155,2.168,0.467
	c0.633,0.311,1.119,0.695,1.455,1.153c0.338,0.458,0.506,0.891,0.506,1.298c0,0.224-0.082,0.421-0.246,0.592
	c-0.164,0.17-0.361,0.256-0.594,0.256c-0.26,0-0.455-0.059-0.584-0.177c-0.131-0.118-0.275-0.322-0.436-0.611
	c-0.264-0.477-0.574-0.834-0.932-1.071c-0.359-0.236-0.799-0.355-1.324-0.355c-0.834,0-1.498,0.305-1.992,0.914
	s-0.742,1.475-0.742,2.596c0,0.749,0.109,1.373,0.328,1.869c0.219,0.498,0.529,0.869,0.93,1.114
	c0.402,0.246,0.871,0.368,1.408,0.368c0.584,0,1.078-0.14,1.48-0.417c0.404-0.278,0.707-0.687,0.912-1.226
	c0.088-0.254,0.193-0.461,0.322-0.621c0.127-0.16,0.332-0.24,0.615-0.24c0.24,0,0.449,0.082,0.621,0.243
	C37.848,23.351,37.934,23.553,37.934,23.793z"/>
</svg>
