<?xml version="1.0" encoding="utf-8"?>
<!-- Generator: Adobe Illustrator 16.0.3, SVG Export Plug-In . SVG Version: 6.00 Build 0)  -->
<!DOCTYPE svg PUBLIC "-//W3C//DTD SVG 1.1//EN" "http://www.w3.org/Graphics/SVG/1.1/DTD/svg11.dtd">
<svg version="1.1" id="Rain_Barrel_-_Green_Infrastructure"
	 xmlns="http://www.w3.org/2000/svg" xmlns:xlink="http://www.w3.org/1999/xlink" x="0px" y="0px" width="44px" height="44px"
	 viewBox="0 0 44 44" enable-background="new 0 0 44 44" xml:space="preserve">
<circle fill="#FFFFFF" cx="22" cy="22" r="21"/>
<path fill="#38673D" d="M22.001,40.906C11.523,40.906,3,32.403,3,21.953C3,11.502,11.523,3,22.001,3C32.476,3,41,11.502,41,21.953
	C41,32.403,32.476,40.906,22.001,40.906z"/>
<path fill="#359A40" d="M22,40c-9.925,0-18-8.074-18-18c0-9.925,8.075-18,18-18c9.926,0,18,8.075,18,18C40,31.926,31.926,40,22,40z"
	/>
<path fill="#FFFFFF" d="M12.308,22.013H11.19v5.06c0,0.666-0.147,1.156-0.44,1.472c-0.294,0.315-0.677,0.473-1.149,0.473
	c-0.509,0-0.902-0.165-1.182-0.494S8,27.71,8,27.072V14.955c0-0.688,0.154-1.185,0.462-1.493C8.77,13.154,9.268,13,9.955,13h5.188
	c0.716,0,1.328,0.031,1.837,0.091c0.509,0.061,0.967,0.185,1.375,0.371c0.494,0.208,0.931,0.505,1.311,0.892
	s0.668,0.836,0.865,1.348c0.196,0.512,0.295,1.055,0.295,1.627c0,1.175-0.331,2.113-0.994,2.814c-0.662,0.702-1.666,1.2-3.013,1.493
	c0.565,0.301,1.106,0.745,1.622,1.332c0.516,0.588,0.976,1.213,1.381,1.875c0.404,0.662,0.719,1.26,0.945,1.793
	c0.225,0.534,0.338,0.901,0.338,1.102c0,0.208-0.066,0.414-0.199,0.617c-0.132,0.205-0.313,0.365-0.542,0.484
	c-0.229,0.117-0.494,0.177-0.795,0.177c-0.358,0-0.659-0.085-0.902-0.253s-0.453-0.381-0.628-0.639
	c-0.176-0.258-0.414-0.637-0.715-1.139l-1.278-2.127c-0.458-0.78-0.868-1.375-1.229-1.783c-0.362-0.408-0.729-0.688-1.102-0.838
	C13.342,22.088,12.873,22.013,12.308,22.013z M14.134,15.396H11.19v4.329h2.857c0.767,0,1.411-0.066,1.934-0.199
	c0.522-0.132,0.922-0.358,1.198-0.677c0.275-0.318,0.413-0.757,0.413-1.316c0-0.437-0.111-0.822-0.333-1.155
	s-0.53-0.582-0.924-0.747C15.964,15.475,15.229,15.396,14.134,15.396z"/>
<path fill="#FFFFFF" d="M29.694,29h-4.775c-0.69,0-1.183-0.159-1.477-0.475C23.147,28.208,23,27.705,23,27.014V14.988
	c0-0.706,0.151-1.213,0.451-1.522c0.303-0.309,0.791-0.464,1.468-0.464h5.063c0.746,0,1.394,0.048,1.94,0.142
	c0.549,0.095,1.039,0.276,1.471,0.545c0.37,0.226,0.698,0.511,0.981,0.856c0.284,0.346,0.502,0.728,0.651,1.146
	c0.148,0.418,0.223,0.861,0.223,1.326c0,1.601-0.781,2.771-2.346,3.514c2.055,0.669,3.082,1.972,3.082,3.907
	c0,0.895-0.225,1.7-0.673,2.417c-0.447,0.717-1.05,1.246-1.812,1.588c-0.476,0.203-1.023,0.349-1.643,0.432
	C31.239,28.958,30.519,29,29.694,29z M26.165,15.436v4.136h2.899c0.789,0,1.399-0.076,1.828-0.229
	c0.431-0.153,0.76-0.443,0.986-0.873c0.179-0.306,0.268-0.647,0.268-1.026c0-0.808-0.281-1.344-0.843-1.609
	c-0.561-0.266-1.417-0.398-2.568-0.398H26.165z M29.46,21.896h-3.295v4.67h3.401c2.139,0,3.208-0.789,3.208-2.368
	c0-0.808-0.277-1.393-0.831-1.757C31.389,22.078,30.562,21.896,29.46,21.896z"/>
</svg>
