<?xml version="1.0" encoding="utf-8"?>
<!-- Generator: Adobe Illustrator 16.0.3, SVG Export Plug-In . SVG Version: 6.00 Build 0)  -->
<!DOCTYPE svg PUBLIC "-//W3C//DTD SVG 1.1//EN" "http://www.w3.org/Graphics/SVG/1.1/DTD/svg11.dtd">
<svg version="1.1" id="Sediment_Barriers_Violations"
	 xmlns="http://www.w3.org/2000/svg" xmlns:xlink="http://www.w3.org/1999/xlink" x="0px" y="0px" width="44px" height="44px"
	 viewBox="0 0 44 44" enable-background="new 0 0 44 44" xml:space="preserve">
<circle fill="#FFFFFF" cx="22" cy="22" r="21"/>
<path fill="#AE0101" d="M22.001,40.906C11.523,40.906,3,32.403,3,21.953C3,11.502,11.523,3,22.001,3C32.476,3,41,11.502,41,21.953
	C41,32.403,32.476,40.906,22.001,40.906z"/>
<path fill="#FB3333" d="M22,40c-9.925,0-18-8.074-18-18c0-9.925,8.075-18,18-18s18,8.075,18,18C40,31.926,31.926,40,22,40z"/>
<g enable-background="new    ">
	<path fill="#FFFFFF" d="M20.863,23.787c0,0.692-0.179,1.315-0.535,1.867c-0.357,0.552-0.879,0.984-1.566,1.297
		s-1.503,0.469-2.445,0.469c-1.13,0-2.063-0.214-2.797-0.641c-0.521-0.308-0.944-0.718-1.27-1.23
		c-0.326-0.513-0.488-1.012-0.488-1.496c0-0.281,0.098-0.522,0.293-0.723s0.444-0.301,0.746-0.301c0.245,0,0.452,0.078,0.621,0.234
		c0.169,0.156,0.313,0.388,0.434,0.695c0.146,0.364,0.303,0.669,0.473,0.914c0.169,0.245,0.407,0.446,0.715,0.605
		c0.307,0.159,0.711,0.238,1.211,0.238c0.688,0,1.246-0.16,1.676-0.48s0.645-0.72,0.645-1.199c0-0.38-0.116-0.688-0.348-0.926
		c-0.232-0.237-0.531-0.418-0.898-0.543s-0.858-0.258-1.473-0.398c-0.823-0.192-1.512-0.418-2.066-0.676s-0.995-0.609-1.32-1.055
		c-0.326-0.445-0.488-0.999-0.488-1.66c0-0.63,0.172-1.19,0.516-1.68s0.841-0.866,1.492-1.129c0.651-0.263,1.417-0.395,2.297-0.395
		c0.703,0,1.311,0.087,1.824,0.262c0.513,0.175,0.938,0.406,1.277,0.695c0.338,0.289,0.586,0.593,0.742,0.91s0.234,0.628,0.234,0.93
		c0,0.276-0.098,0.524-0.293,0.746s-0.439,0.332-0.73,0.332c-0.266,0-0.468-0.066-0.605-0.199c-0.138-0.133-0.288-0.351-0.449-0.652
		c-0.208-0.433-0.458-0.77-0.75-1.012c-0.292-0.242-0.761-0.363-1.406-0.363c-0.599,0-1.082,0.132-1.449,0.395
		s-0.551,0.579-0.551,0.949c0,0.229,0.063,0.427,0.188,0.594s0.297,0.31,0.516,0.43s0.44,0.214,0.664,0.281
		c0.224,0.067,0.594,0.167,1.109,0.297c0.646,0.151,1.23,0.317,1.754,0.5s0.969,0.403,1.336,0.664s0.653,0.59,0.859,0.988
		C20.76,22.721,20.863,23.209,20.863,23.787z"/>
	<path fill="#FFFFFF" d="M27.723,27.225h-3.5c-0.506,0-0.866-0.113-1.082-0.34c-0.217-0.227-0.324-0.587-0.324-1.082v-8.609
		c0-0.505,0.11-0.868,0.332-1.09c0.221-0.222,0.579-0.332,1.074-0.332h3.711c0.547,0,1.021,0.034,1.422,0.102
		c0.4,0.067,0.76,0.198,1.078,0.391c0.271,0.161,0.51,0.366,0.719,0.613c0.208,0.247,0.367,0.521,0.477,0.82
		s0.164,0.616,0.164,0.949c0,1.146-0.573,1.984-1.719,2.516c1.505,0.479,2.258,1.411,2.258,2.797c0,0.641-0.164,1.218-0.492,1.73
		s-0.771,0.892-1.328,1.137c-0.35,0.146-0.75,0.249-1.203,0.309S28.326,27.225,27.723,27.225z M25.137,17.514v2.961h2.125
		c0.578,0,1.024-0.055,1.34-0.164c0.314-0.109,0.556-0.317,0.723-0.625c0.13-0.219,0.195-0.464,0.195-0.734
		c0-0.578-0.206-0.962-0.617-1.152c-0.412-0.19-1.039-0.285-1.883-0.285H25.137z M27.551,22.139h-2.414v3.344h2.492
		c1.567,0,2.352-0.565,2.352-1.695c0-0.578-0.203-0.997-0.609-1.258S28.357,22.139,27.551,22.139z"/>
</g>
</svg>
