<?xml version="1.0" encoding="utf-8"?>
<!-- Generator: Adobe Illustrator 16.0.3, SVG Export Plug-In . SVG Version: 6.00 Build 0)  -->
<!DOCTYPE svg PUBLIC "-//W3C//DTD SVG 1.1//EN" "http://www.w3.org/Graphics/SVG/1.1/DTD/svg11.dtd">
<svg version="1.1" id="Sediment_Traps_and_Basins_Violations"
	 xmlns="http://www.w3.org/2000/svg" xmlns:xlink="http://www.w3.org/1999/xlink" x="0px" y="0px" width="44px" height="44px"
	 viewBox="0 0 44 44" enable-background="new 0 0 44 44" xml:space="preserve">
<circle fill="#FFFFFF" cx="22" cy="22" r="21"/>
<path fill="#AE0101" d="M22.0009766,40.90625C11.5234375,40.90625,3,32.4033203,3,21.9526367
	C3,11.5024414,11.5234375,3,22.0009766,3C32.4755859,3,41,11.5024414,41,21.9526367
	C41,32.4033203,32.4755859,40.90625,22.0009766,40.90625z"/>
<path fill="#FB3333" d="M22.0004883,40C12.0751953,40,4,31.9257813,4,21.9995117C4,12.074707,12.0751953,4,22.0004883,4
	S40,12.074707,40,21.9995117C40,31.9257813,31.9257813,40,22.0004883,40z"/>
<g>
	<path fill="#FFFFFF" d="M15.8632813,23.7871094c0,0.6933594-0.1787109,1.3154297-0.5351563,1.8671875
		c-0.3569336,0.5527344-0.8789063,0.984375-1.5664063,1.296875s-1.5029297,0.46875-2.4453125,0.46875
		c-1.1303711,0-2.0625-0.2128906-2.796875-0.640625C7.9985352,26.4726563,7.5751953,26.0625,7.25,25.5488281
		c-0.3256836-0.5126953-0.4882813-1.0117188-0.4882813-1.4960938c0-0.28125,0.0976563-0.5214844,0.2929688-0.7226563
		C7.25,23.1298828,7.4985352,23.0292969,7.8007813,23.0292969c0.2446289,0,0.4516602,0.078125,0.6210938,0.234375
		c0.1689453,0.15625,0.3134766,0.3886719,0.4335938,0.6953125c0.1455078,0.3652344,0.3032227,0.6699219,0.4726563,0.9140625
		c0.1689453,0.2451172,0.4072266,0.4472656,0.7148438,0.6054688c0.3071289,0.1591797,0.7109375,0.2382813,1.2109375,0.2382813
		c0.6875,0,1.2460938-0.1601563,1.6757813-0.4804688s0.6445313-0.7197266,0.6445313-1.1992188
		c0-0.3798828-0.1162109-0.6884766-0.3476563-0.9257813c-0.2319336-0.2368164-0.53125-0.4179688-0.8984375-0.5429688
		s-0.8583984-0.2578125-1.4726563-0.3984375c-0.8232422-0.1923828-1.5117188-0.4179688-2.0664063-0.6757813
		s-0.9951172-0.609375-1.3203125-1.0546875c-0.3256836-0.4453125-0.4882813-0.9985352-0.4882813-1.6601563
		c0-0.6298828,0.171875-1.1899414,0.515625-1.6796875c0.34375-0.4892578,0.8408203-0.8657227,1.4921875-1.1289063
		c0.6508789-0.2626953,1.4165039-0.3945313,2.296875-0.3945313c0.703125,0,1.3110352,0.0874023,1.8242188,0.2617188
		c0.5126953,0.1748047,0.9384766,0.40625,1.2773438,0.6953125c0.3383789,0.2890625,0.5859375,0.5927734,0.7421875,0.9101563
		c0.15625,0.3178711,0.234375,0.6279297,0.234375,0.9296875c0,0.2763672-0.0976563,0.5249023-0.2929688,0.7460938
		c-0.1953125,0.2216797-0.4389648,0.3320313-0.7304688,0.3320313c-0.265625,0-0.4677734-0.0664063-0.6054688-0.1992188
		c-0.1381836-0.1328125-0.2880859-0.3500977-0.4492188-0.6523438c-0.2084961-0.4321289-0.4584961-0.7695313-0.75-1.0117188
		c-0.2919922-0.2421875-0.7607422-0.3632813-1.40625-0.3632813c-0.5991211,0-1.0820313,0.1318359-1.4492188,0.3945313
		C9.3125,17.8823242,9.1289063,18.1987305,9.1289063,18.5683594c0,0.2294922,0.0625,0.4272461,0.1875,0.59375
		c0.125,0.1669922,0.296875,0.3100586,0.515625,0.4296875c0.21875,0.1201172,0.4399414,0.2138672,0.6640625,0.28125
		c0.2236328,0.0678711,0.59375,0.1669922,1.109375,0.296875c0.6455078,0.1513672,1.2304688,0.3178711,1.7539063,0.5
		c0.5234375,0.1826172,0.96875,0.4038086,1.3359375,0.6640625c0.3671875,0.2607422,0.6533203,0.5898438,0.859375,0.9882813
		C15.7602539,22.7207031,15.8632813,23.2089844,15.8632813,23.7871094z"/>
	<path fill="#FFFFFF" d="M25.2695313,17.6855469h-2.53125v8.3203125c0,0.4794922-0.1064453,0.8349609-0.3203125,1.0664063
		s-0.4892578,0.3476563-0.828125,0.3476563c-0.34375,0-0.6240234-0.1171875-0.8398438-0.3515625
		s-0.3242188-0.5878906-0.3242188-1.0625v-8.3203125h-2.53125c-0.3955078,0-0.6904297-0.0869141-0.8828125-0.2617188
		c-0.1928711-0.1743164-0.2890625-0.4047852-0.2890625-0.6914063c0-0.296875,0.1000977-0.53125,0.3007813-0.703125
		c0.2001953-0.171875,0.4912109-0.2578125,0.8710938-0.2578125h7.375c0.4013672,0,0.6992188,0.0888672,0.8945313,0.265625
		c0.1953125,0.1772461,0.2929688,0.4091797,0.2929688,0.6953125c0,0.2866211-0.0986328,0.5170898-0.296875,0.6914063
		C25.9619141,17.5986328,25.6650391,17.6855469,25.2695313,17.6855469z"/>
	<path fill="#FFFFFF" d="M32.7226563,27.2246094h-3.5c-0.5048828,0-0.8662109-0.1132813-1.0820313-0.3398438
		s-0.3242188-0.5869141-0.3242188-1.0820313v-8.609375c0-0.5048828,0.1103516-0.8681641,0.3320313-1.0898438
		c0.2216797-0.2211914,0.5791016-0.3320313,1.0742188-0.3320313h3.7109375c0.546875,0,1.0205078,0.0341797,1.421875,0.1015625
		c0.4013672,0.0678711,0.7607422,0.1982422,1.078125,0.390625c0.2705078,0.1616211,0.5107422,0.3662109,0.71875,0.6132813
		c0.2080078,0.2475586,0.3671875,0.5209961,0.4765625,0.8203125c0.109375,0.2998047,0.1640625,0.6162109,0.1640625,0.9492188
		c0,1.1459961-0.5732422,1.984375-1.71875,2.515625c1.5048828,0.4794922,2.2578125,1.4116211,2.2578125,2.796875
		c0,0.640625-0.1640625,1.2177734-0.4921875,1.7304688c-0.328125,0.5136719-0.7705078,0.8925781-1.328125,1.1367188
		c-0.3486328,0.1464844-0.75,0.2490234-1.203125,0.3085938C33.8554688,27.1953125,33.3271484,27.2246094,32.7226563,27.2246094z
		 M30.1367188,17.5136719v2.9609375h2.125c0.578125,0,1.0244141-0.0546875,1.3398438-0.1640625s0.5556641-0.3173828,0.7226563-0.625
		c0.1298828-0.21875,0.1953125-0.4633789,0.1953125-0.734375c0-0.578125-0.2060547-0.9619141-0.6171875-1.1523438
		c-0.4111328-0.1899414-1.0390625-0.2851563-1.8828125-0.2851563H30.1367188z M32.5507813,22.1386719h-2.4140625v3.34375h2.4921875
		c1.5673828,0,2.3515625-0.5644531,2.3515625-1.6953125c0-0.578125-0.203125-0.9970703-0.609375-1.2578125
		C33.9648438,22.269043,33.3583984,22.1386719,32.5507813,22.1386719z"/>
</g>
</svg>
