<?xml version="1.0" encoding="utf-8"?>
<!-- Generator: Adobe Illustrator 16.0.3, SVG Export Plug-In . SVG Version: 6.00 Build 0)  -->
<!DOCTYPE svg PUBLIC "-//W3C//DTD SVG 1.1//EN" "http://www.w3.org/Graphics/SVG/1.1/DTD/svg11.dtd">
<svg version="1.1" id="Sewer_Map_Change_Request_-_Not_Critical"
	 xmlns="http://www.w3.org/2000/svg" xmlns:xlink="http://www.w3.org/1999/xlink" x="0px" y="0px" width="44px" height="44px"
	 viewBox="0 0 44 44" enable-background="new 0 0 44 44" xml:space="preserve">
<circle fill="#FFFFFF" cx="22" cy="22" r="21"/>
<path fill="#1F802A" d="M22.0009766,40.90625C11.5234375,40.90625,3,32.4033203,3,21.9526367
	C3,11.5024414,11.5234375,3,22.0009766,3C32.4755859,3,41,11.5024414,41,21.9526367
	C41,32.4033203,32.4755859,40.90625,22.0009766,40.90625z"/>
<path fill="#2CB33A" d="M22.0009766,40C12.0751953,40,4,31.9257813,4,22c0-9.9248047,8.0751953-18,18.0009766-18
	C31.9257813,4,40,12.0751953,40,22C40,31.9257813,31.9257813,40,22.0009766,40z"/>
<g>
	<path fill="#FFFFFF" d="M31.9902344,27.0244141c0,1.5224609-0.3916016,2.8896484-1.1748047,4.0986328
		c-0.7832031,1.2119141-1.9296875,2.1611328-3.4384766,2.8466797C25.8671875,34.6552734,24.078125,35,22.0097656,35
		c-2.4824219,0-4.5283203-0.4677734-6.140625-1.4052734c-1.1435547-0.6767578-2.0722656-1.5742188-2.7861328-2.7041016
		c-0.7158203-1.1240234-1.0722656-2.2177734-1.0722656-3.2822266c0-0.6171875,0.2148438-1.1464844,0.6435547-1.5859375
		c0.4287109-0.4404297,0.9736328-0.6611328,1.6376953-0.6611328c0.5371094,0,0.9912109,0.171875,1.3632813,0.5146484
		c0.3701172,0.3427734,0.6875,0.8515625,0.9511719,1.5273438c0.3193359,0.7998047,0.6669922,1.46875,1.0380859,2.0068359
		c0.3710938,0.5371094,0.8935547,0.9785156,1.5683594,1.328125c0.6757813,0.3505859,1.5615234,0.5234375,2.6591797,0.5234375
		c1.5087891,0,2.7363281-0.3505859,3.6796875-1.0566406c0.9423828-0.7001953,1.4150391-1.578125,1.4150391-2.6298828
		c0-0.8349609-0.2539063-1.5126953-0.765625-2.0341797c-0.5087891-0.5195313-1.1630859-0.9160156-1.9697266-1.1914063
		c-0.8076172-0.2753906-1.8857422-0.5664063-3.234375-0.875c-1.8056641-0.421875-3.3173828-0.9174805-4.5351563-1.4833984
		c-1.2177734-0.5654297-2.1845703-1.3374023-2.8994141-2.3149414s-1.0712891-2.1923828-1.0712891-3.6445313
		c0-1.3828125,0.3779297-2.6123047,1.1318359-3.6879883c0.7548828-1.0732422,1.8447266-1.8999023,3.2753906-2.4780273
		C18.328125,9.2895508,20.0078125,9,21.9404297,9c1.5439453,0,2.8789063,0.1918945,4.0039063,0.5742188
		c1.1279297,0.3833008,2.0634766,0.8930664,2.8056641,1.5258789c0.7421875,0.6347656,1.2851563,1.3022461,1.6298828,1.9990234
		c0.3447266,0.6977539,0.5136719,1.3774414,0.5136719,2.0415039c0,0.6049805-0.2138672,1.1508789-0.6435547,1.6376953
		c-0.4287109,0.4858398-0.9628906,0.7280273-1.6035156,0.7280273c-0.5820313,0-1.0273438-0.1450195-1.3300781-0.4365234
		s-0.6328125-0.7695313-0.9824219-1.4321289C25.875,14.6879883,25.3251953,13.9482422,24.6875,13.4165039
		c-0.6455078-0.5317383-1.671875-0.7978516-3.0898438-0.7978516c-1.3144531,0-2.375,0.2895508-3.1806641,0.8662109
		c-0.8066406,0.578125-1.2099609,1.2714844-1.2099609,2.0830078c0,0.5039063,0.1367188,0.9384766,0.4121094,1.3037109
		c0.2734375,0.3671875,0.6513672,0.6816406,1.1318359,0.9428711c0.4804688,0.2641602,0.9658203,0.4697266,1.4580078,0.6181641
		c0.4912109,0.1494141,1.3017578,0.3666992,2.4345703,0.6513672c1.4179688,0.3334961,2.7021484,0.6977539,3.8505859,1.0986328
		c1.1484375,0.3994141,2.1269531,0.8867188,2.9316406,1.4580078c0.8066406,0.5717773,1.4355469,1.2949219,1.8886719,2.1699219
		C31.765625,24.6835938,31.9902344,25.7558594,31.9902344,27.0244141z"/>
</g>
</svg>
