<?xml version="1.0" encoding="utf-8"?>
<!-- Generator: Adobe Illustrator 16.0.3, SVG Export Plug-In . SVG Version: 6.00 Build 0)  -->
<!DOCTYPE svg PUBLIC "-//W3C//DTD SVG 1.1//EN" "http://www.w3.org/Graphics/SVG/1.1/DTD/svg11.dtd">
<svg version="1.1" id="Signal" xmlns="http://www.w3.org/2000/svg" xmlns:xlink="http://www.w3.org/1999/xlink" x="0px" y="0px"
	 width="44px" height="44px" viewBox="0 0 44 44" enable-background="new 0 0 44 44" xml:space="preserve">
<circle fill="#FFFFFF" cx="22" cy="22" r="21"/>
<path fill="#CFAD33" d="M22.0009766,40.90625C11.5234375,40.90625,3,32.4033203,3,21.9526367
	C3,11.5024414,11.5234375,3,22.0009766,3C32.4755859,3,41,11.5024414,41,21.9526367
	C41,32.4033203,32.4755859,40.90625,22.0009766,40.90625z"/>
<path fill="#FED53F" d="M22.0009766,40C12.0751953,40,4,31.9257813,4,22c0-9.9248047,8.0751953-18,18.0009766-18
	C31.9257813,4,40,12.0751953,40,22C40,31.9257813,31.9257813,40,22.0009766,40z"/>
<path fill="#FFFFFF" d="M28,33.6357422C28,35.6572266,25.3525391,38,22.0009766,38l0,0C18.6508789,38,16,35.6572266,16,33.6357422
	V10.3632813C16,8.3432617,18.6508789,6,22.0009766,6l0,0C25.3525391,6,28,8.3432617,28,10.3632813V33.6357422z"/>
<path fill="#424243" d="M26,32.3007813C26,34.03125,24.3955078,35,22.0004883,35l0,0C19.6079102,35,18,34.03125,18,32.3007813
	V10.7001953C18,8.9702148,19.6079102,8,22.0004883,8l0,0C24.3955078,8,26,8.9702148,26,10.7001953V32.3007813z"/>
<path fill="#FFFFFF" d="M25,14c0,1.7954102-1.2070313,3-2.9995117,3C20.2055664,17,19,15.7954102,19,14
	c0-1.7949219,1.2055664-3,3.0004883-3C23.7929688,11,25,12.2050781,25,14z"/>
<path fill="#FFFFFF" d="M25,22c0,1.7958984-1.2070313,3-2.9995117,3C20.2050781,25,19,23.7958984,19,22s1.2050781-3,3.0004883-3
	C23.7929688,19,25,20.2041016,25,22z"/>
<path fill="#FFFFFF" d="M25,30c0,1.796875-1.2070313,3-3,3c-1.7954102,0-3.0004883-1.203125-3.0004883-3
	c0-1.7929688,1.2050781-3,3.0004883-3C23.7929688,27,25,28.2070313,25,30z"/>
</svg>
