<?xml version="1.0" encoding="utf-8"?>
<!-- Generator: Adobe Illustrator 16.0.3, SVG Export Plug-In . SVG Version: 6.00 Build 0)  -->
<!DOCTYPE svg PUBLIC "-//W3C//DTD SVG 1.1//EN" "http://www.w3.org/Graphics/SVG/1.1/DTD/svg11.dtd">
<svg version="1.1" id="Signal_Cabinet" xmlns="http://www.w3.org/2000/svg" xmlns:xlink="http://www.w3.org/1999/xlink" x="0px"
	 y="0px" width="44px" height="44px" viewBox="0 0 44 44" enable-background="new 0 0 44 44" xml:space="preserve">
<circle fill="#FFFFFF" cx="22" cy="22" r="21"/>
<path fill="#01228F" d="M22.0009766,40.90625C11.5234375,40.90625,3,32.4033203,3,21.9526367
	C3,11.5024414,11.5234375,3,22.0009766,3C32.4755859,3,41,11.5024414,41,21.9526367
	C41,32.4033203,32.4755859,40.90625,22.0009766,40.90625z"/>
<path fill="#344EA5" d="M22.0009766,40C12.0751953,40,4,31.9257813,4,22c0-9.9248047,8.0751953-18,18.0009766-18
	C31.9257813,4,40,12.0751953,40,22C40,31.9257813,31.9257813,40,22.0009766,40z"/>
<rect x="10" y="31" fill="#FFFFFF" width="24" height="3"/>
<rect x="12" y="10" fill="#FFFFFF" width="20" height="20"/>
<rect x="19" y="13" fill="#344EA5" width="1" height="9"/>
<rect x="24" y="13" fill="#344EA5" width="1" height="9"/>
<rect x="21" y="10" fill="#344EA5" width="2" height="20"/>
</svg>
