<?xml version="1.0" encoding="utf-8"?>
<!-- Generator: Adobe Illustrator 16.0.3, SVG Export Plug-In . SVG Version: 6.00 Build 0)  -->
<!DOCTYPE svg PUBLIC "-//W3C//DTD SVG 1.1//EN" "http://www.w3.org/Graphics/SVG/1.1/DTD/svg11.dtd">
<svg version="1.1" id="Slope_Protection_Violations"
	 xmlns="http://www.w3.org/2000/svg" xmlns:xlink="http://www.w3.org/1999/xlink" x="0px" y="0px" width="44px" height="44px"
	 viewBox="0 0 44 44" enable-background="new 0 0 44 44" xml:space="preserve">
<circle fill="#FFFFFF" cx="22" cy="22" r="21"/>
<path fill="#AE0101" d="M22.0009766,40.90625C11.5234375,40.90625,3,32.4033203,3,21.9526367
	C3,11.5024414,11.5234375,3,22.0009766,3C32.4755859,3,41,11.5024414,41,21.9526367
	C41,32.4033203,32.4755859,40.90625,22.0009766,40.90625z"/>
<path fill="#FB3333" d="M22.0004883,40C12.0751953,40,4,31.9257813,4,21.9995117C4,12.074707,12.0751953,4,22.0004883,4
	S40,12.074707,40,21.9995117C40,31.9257813,31.9257813,40,22.0004883,40z"/>
<g>
	<path fill="#FFFFFF" d="M21.28125,23.7871094c0,0.6933594-0.1787109,1.3154297-0.5351563,1.8671875
		c-0.3564453,0.5527344-0.8789063,0.984375-1.5664063,1.296875s-1.5029297,0.46875-2.4453125,0.46875
		c-1.1298828,0-2.0625-0.2128906-2.796875-0.640625c-0.5209961-0.3066406-0.9443359-0.7167969-1.2695313-1.2304688
		c-0.3256836-0.5126953-0.4882813-1.0117188-0.4882813-1.4960938c0-0.28125,0.0976563-0.5214844,0.2929688-0.7226563
		c0.1953125-0.2001953,0.4438477-0.3007813,0.7460938-0.3007813c0.2446289,0,0.4516602,0.078125,0.6210938,0.234375
		c0.1689453,0.15625,0.3134766,0.3886719,0.4335938,0.6953125c0.1455078,0.3652344,0.3037109,0.6699219,0.4726563,0.9140625
		c0.1689453,0.2451172,0.4072266,0.4472656,0.7148438,0.6054688c0.3076172,0.1591797,0.7109375,0.2382813,1.2109375,0.2382813
		c0.6875,0,1.2460938-0.1601563,1.6757813-0.4804688s0.6445313-0.7197266,0.6445313-1.1992188
		c0-0.3798828-0.1162109-0.6884766-0.3476563-0.9257813c-0.2314453-0.2368164-0.53125-0.4179688-0.8984375-0.5429688
		s-0.8583984-0.2578125-1.4726563-0.3984375c-0.8232422-0.1923828-1.5117188-0.4179688-2.0664063-0.6757813
		s-0.9951172-0.609375-1.3203125-1.0546875c-0.3256836-0.4453125-0.4882813-0.9985352-0.4882813-1.6601563
		c0-0.6298828,0.171875-1.1899414,0.515625-1.6796875c0.34375-0.4892578,0.8408203-0.8657227,1.4921875-1.1289063
		c0.6513672-0.2626953,1.4169922-0.3945313,2.296875-0.3945313c0.703125,0,1.3115234,0.0874023,1.8242188,0.2617188
		c0.5126953,0.1748047,0.9384766,0.40625,1.2773438,0.6953125s0.5859375,0.5927734,0.7421875,0.9101563
		c0.15625,0.3178711,0.234375,0.6279297,0.234375,0.9296875c0,0.2763672-0.0976563,0.5249023-0.2929688,0.7460938
		c-0.1953125,0.2216797-0.4384766,0.3320313-0.7304688,0.3320313c-0.265625,0-0.4677734-0.0664063-0.6054688-0.1992188
		s-0.2880859-0.3500977-0.4492188-0.6523438c-0.2080078-0.4321289-0.4580078-0.7695313-0.75-1.0117188
		s-0.7607422-0.3632813-1.40625-0.3632813c-0.5986328,0-1.0820313,0.1318359-1.4492188,0.3945313
		c-0.3671875,0.2631836-0.5507813,0.5795898-0.5507813,0.9492188c0,0.2294922,0.0625,0.4272461,0.1875,0.59375
		c0.125,0.1669922,0.296875,0.3100586,0.515625,0.4296875c0.21875,0.1201172,0.4404297,0.2138672,0.6640625,0.28125
		c0.2236328,0.0678711,0.59375,0.1669922,1.109375,0.296875c0.6455078,0.1513672,1.2304688,0.3178711,1.7539063,0.5
		c0.5234375,0.1826172,0.96875,0.4038086,1.3359375,0.6640625c0.3671875,0.2607422,0.6533203,0.5898438,0.859375,0.9882813
		S21.28125,23.2089844,21.28125,23.7871094z"/>
	<path fill="#FFFFFF" d="M27.6953125,22.7636719h-2.125v3.2421875c0,0.4638672-0.109375,0.8154297-0.328125,1.0546875
		s-0.4951172,0.359375-0.828125,0.359375c-0.3486328,0-0.6298828-0.1191406-0.84375-0.3554688S23.25,26.4804688,23.25,26.0214844
		v-8.828125c0-0.5102539,0.1171875-0.875,0.3515625-1.09375s0.6064453-0.328125,1.1171875-0.328125h2.9765625
		c0.8798828,0,1.5576172,0.0678711,2.03125,0.203125c0.46875,0.1303711,0.8740234,0.3466797,1.2148438,0.6484375
		c0.3408203,0.3022461,0.6005859,0.671875,0.7773438,1.109375s0.265625,0.9296875,0.265625,1.4765625
		c0,1.1669922-0.359375,2.0507813-1.078125,2.6523438S29.1171875,22.7636719,27.6953125,22.7636719z M27.1328125,17.5136719h-1.5625
		v3.5h1.5625c0.546875,0,1.0039063-0.0571289,1.3710938-0.171875c0.3671875-0.1142578,0.6474609-0.3017578,0.8398438-0.5625
		c0.1923828-0.2602539,0.2890625-0.6015625,0.2890625-1.0234375c0-0.5048828-0.1484375-0.9165039-0.4453125-1.234375
		C28.8544922,17.6831055,28.1689453,17.5136719,27.1328125,17.5136719z"/>
</g>
</svg>
