<?xml version="1.0" encoding="utf-8"?>
<!-- Generator: Adobe Illustrator 16.0.3, SVG Export Plug-In . SVG Version: 6.00 Build 0)  -->
<!DOCTYPE svg PUBLIC "-//W3C//DTD SVG 1.1//EN" "http://www.w3.org/Graphics/SVG/1.1/DTD/svg11.dtd">
<svg version="1.1" id="Stormwater_Map_Change_Request-_Critical"
	 xmlns="http://www.w3.org/2000/svg" xmlns:xlink="http://www.w3.org/1999/xlink" x="0px" y="0px" width="44px" height="44px"
	 viewBox="0 0 44 44" enable-background="new 0 0 44 44" xml:space="preserve">
<circle fill="#FFFFFF" cx="22" cy="22" r="21"/>
<path fill="#C70101" d="M22.0009766,40.90625C11.5234375,40.90625,3,32.4033203,3,21.9526367
	C3,11.5024414,11.5234375,3,22.0009766,3C32.4755859,3,41,11.5024414,41,21.9526367
	C41,32.4033203,32.4755859,40.90625,22.0009766,40.90625z"/>
<path fill="#FB1A1A" d="M22.0009766,40C12.0751953,40,4,31.9257813,4,22c0-9.9248047,8.0751953-18,18.0009766-18
	C31.9257813,4,40,12.0751953,40,22C40,31.9257813,31.9257813,40,22.0009766,40z"/>
<g>
	<path fill="#FFFFFF" d="M18.2543945,24.7050781c0,0.8183594-0.2099609,1.5546875-0.6323242,2.2080078
		c-0.4213867,0.6523438-1.0390625,1.1640625-1.8515625,1.5332031C14.9575195,28.8154297,13.9941406,29,12.8793945,29
		c-1.3354492,0-2.4375-0.2529297-3.3051758-0.7578125c-0.6157227-0.3623047-1.1162109-0.8486328-1.5009766-1.453125
		c-0.3847656-0.6074219-0.5766602-1.1972656-0.5766602-1.7695313c0-0.3330078,0.1152344-0.6171875,0.3457031-0.8544922
		c0.230957-0.2373047,0.5249023-0.3564453,0.8823242-0.3564453c0.2895508,0,0.5341797,0.09375,0.7338867,0.2773438
		c0.2001953,0.1855469,0.3710938,0.4589844,0.5126953,0.8222656c0.171875,0.4316406,0.3583984,0.7910156,0.559082,1.0810547
		c0.199707,0.2900391,0.4814453,0.5283203,0.8442383,0.7158203c0.3632813,0.1865234,0.8408203,0.28125,1.4321289,0.28125
		c0.8120117,0,1.4726563-0.1894531,1.9804688-0.5683594c0.5083008-0.3779297,0.762207-0.8505859,0.762207-1.4169922
		c0-0.4501953-0.1367188-0.8134766-0.4111328-1.0947266c-0.2744141-0.2792969-0.6279297-0.4941406-1.0625-0.6425781
		c-0.4335938-0.1464844-1.0141602-0.3037109-1.7402344-0.4697266c-0.9726563-0.2275391-1.7871094-0.4936523-2.4428711-0.7983398
		c-0.6557617-0.3056641-1.1757813-0.7211914-1.5610352-1.2470703c-0.3842773-0.5263672-0.5766602-1.1806641-0.5766602-1.9619141
		c0-0.7456055,0.203125-1.4072266,0.609375-1.9858398c0.40625-0.5791016,0.9941406-1.0234375,1.7636719-1.3344727
		C10.8979492,15.1547852,11.8027344,15,12.8427734,15c0.8320313,0,1.550293,0.1025391,2.1567383,0.3085938
		c0.6064453,0.2070313,1.109375,0.4804688,1.5102539,0.8227539c0.4003906,0.3413086,0.6918945,0.699707,0.8769531,1.0751953
		c0.1845703,0.3759766,0.2768555,0.7421875,0.2768555,1.0991211c0,0.3266602-0.1152344,0.6206055-0.3457031,0.8818359
		c-0.230957,0.2617188-0.519043,0.3930664-0.8637695,0.3930664c-0.3139648,0-0.5527344-0.0786133-0.7158203-0.2363281
		c-0.1630859-0.1567383-0.3398438-0.4135742-0.5302734-0.7709961c-0.246582-0.5107422-0.5424805-0.9091797-0.8876953-1.1953125
		c-0.3442383-0.2861328-0.8979492-0.4301758-1.6621094-0.4301758c-0.7075195,0-1.2783203,0.1557617-1.7128906,0.4667969
		c-0.434082,0.3110352-0.6508789,0.6850586-0.6508789,1.1220703c0,0.2709961,0.0737305,0.5048828,0.2216797,0.7021484
		c0.1479492,0.1967773,0.3510742,0.3657227,0.609375,0.5083008c0.2583008,0.1411133,0.5205078,0.2519531,0.7851563,0.3320313
		c0.2641602,0.0795898,0.7016602,0.1962891,1.3110352,0.3510742c0.7631836,0.1782227,1.4545898,0.3759766,2.0737305,0.5898438
		c0.6181641,0.2163086,1.1445313,0.4780273,1.5786133,0.7851563c0.434082,0.3081055,0.7729492,0.6977539,1.0161133,1.1689453
		S18.2543945,24.0214844,18.2543945,24.7050781z"/>
	<path fill="#FFFFFF" d="M30.1669922,26.6357422l-2.1875-8.1176758l-2.2167969,8.1176758
		c-0.1728516,0.6152344-0.3095703,1.0585938-0.4111328,1.3251953s-0.2792969,0.5078125-0.53125,0.7197266
		C24.5683594,28.8945313,24.2333984,29,23.8134766,29c-0.3378906,0-0.6162109-0.0634766-0.8354492-0.1894531
		c-0.2182617-0.1269531-0.3950195-0.3056641-0.5307617-0.5351563c-0.1357422-0.2314453-0.2460938-0.5048828-0.3325195-0.8222656
		c-0.0859375-0.3173828-0.1635742-0.6113281-0.2304688-0.8818359l-2.253418-9.1152344
		c-0.1357422-0.5292969-0.203125-0.9331055-0.203125-1.2094727c0-0.3510742,0.1225586-0.6464844,0.3691406-0.8867188
		S20.3481445,15,20.7109375,15c0.4990234,0,0.8339844,0.159668,1.0073242,0.4799805
		c0.171875,0.3198242,0.3232422,0.784668,0.4516602,1.3950195l1.7734375,7.9042969l1.9863281-7.3969727
		c0.1474609-0.5664063,0.2792969-0.9975586,0.3964844-1.2929688c0.1162109-0.2954102,0.3066406-0.5512695,0.5732422-0.7666016
		C27.1630859,15.1079102,27.5234375,15,27.9794922,15c0.4619141,0,0.8203125,0.1123047,1.0751953,0.3364258
		c0.2558594,0.2250977,0.4326172,0.4697266,0.5302734,0.734375c0.0996094,0.2646484,0.2324219,0.7021484,0.3974609,1.3115234
		l2.0048828,7.3969727L33.7607422,16.875c0.0859375-0.4130859,0.1669922-0.7363281,0.2441406-0.9697266
		c0.0761719-0.234375,0.2099609-0.4433594,0.3974609-0.628418C34.5898438,15.0922852,34.8613281,15,35.2197266,15
		c0.3564453,0,0.6601563,0.1181641,0.9091797,0.3554688c0.2490234,0.2363281,0.3740234,0.5336914,0.3740234,0.8911133
		c0,0.2519531-0.0673828,0.6557617-0.203125,1.2094727l-2.2539063,9.1152344
		c-0.1533203,0.6162109-0.28125,1.0673828-0.3828125,1.3525391c-0.1015625,0.2871094-0.2734375,0.5361328-0.5166016,0.7529297
		C32.9033203,28.8925781,32.5595703,29,32.1171875,29c-0.4199219,0-0.7558594-0.1044922-1.0078125-0.3134766
		c-0.2519531-0.2099609-0.4277344-0.4453125-0.5263672-0.7070313S30.3466797,27.2705078,30.1669922,26.6357422z"/>
</g>
</svg>
