<?xml version="1.0" encoding="utf-8"?>
<!-- Generator: Adobe Illustrator 16.0.3, SVG Export Plug-In . SVG Version: 6.00 Build 0)  -->
<!DOCTYPE svg PUBLIC "-//W3C//DTD SVG 1.1//EN" "http://www.w3.org/Graphics/SVG/1.1/DTD/svg11.dtd">
<svg version="1.1" id="Street_Furniture" xmlns="http://www.w3.org/2000/svg" xmlns:xlink="http://www.w3.org/1999/xlink" x="0px"
	 y="0px" width="44px" height="44px" viewBox="0 0 44 44" enable-background="new 0 0 44 44" xml:space="preserve">
<circle fill="#FFFFFF" cx="22" cy="22" r="21"/>
<path fill="#BF6B04" d="M22.0009766,41C11.5234375,41,3,32.4755859,3,21.9995117S11.5234375,3,22.0009766,3
	C32.4765625,3,41,11.5234375,41,21.9995117S32.4765625,41,22.0009766,41z"/>
<path fill="#F28705" d="M22.0009766,40C12.0751953,40,4,31.9257813,4,22c0-9.9248047,8.0751953-18,18.0009766-18
	C31.9257813,4,40,12.0751953,40,22C40,31.9257813,31.9257813,40,22.0009766,40z"/>
<path fill="#FFFFFF" d="M35,20H9l-2,2.6674805c0,0,0,0.7807617,0,1.3325195c0.597168,0,1,0,1,0v7h2v-7h2v5h2v-5h16v5h2v-5h2v7h2v-7
	h1v-1.3325195L35,20z"/>
<path fill="#FFFFFF" d="M35,14v2H9v-2H35z"/>
<rect x="9" y="17" fill="#FFFFFF" width="26" height="2"/>
<rect x="9" y="11" fill="#FFFFFF" width="26" height="2"/>
</svg>
