<?xml version="1.0" encoding="utf-8"?>
<!-- Generator: Adobe Illustrator 16.0.3, SVG Export Plug-In . SVG Version: 6.00 Build 0)  -->
<!DOCTYPE svg PUBLIC "-//W3C//DTD SVG 1.1//EN" "http://www.w3.org/Graphics/SVG/1.1/DTD/svg11.dtd">
<svg version="1.1" id="Street_Furniture" xmlns="http://www.w3.org/2000/svg" xmlns:xlink="http://www.w3.org/1999/xlink" x="0px"
	 y="0px" width="44px" height="44px" viewBox="0 0 44 44" enable-background="new 0 0 44 44" xml:space="preserve">
<circle fill="#FFFFFF" cx="22" cy="22" r="21"/>
<path fill="#BF6B04" d="M22.0009766,40.90625C11.5234375,40.90625,3,32.4033203,3,21.9526367
	C3,11.5024414,11.5234375,3,22.0009766,3C32.4755859,3,41,11.5024414,41,21.9526367
	C41,32.4033203,32.4755859,40.90625,22.0009766,40.90625z"/>
<path fill="#F28705" d="M22.0009766,40C12.0751953,40,4,31.9257813,4,22c0-9.9248047,8.0751953-18,18.0009766-18
	C31.9257813,4,40,12.0751953,40,22C40,31.9257813,31.9257813,40,22.0009766,40z"/>
<path fill="#FFFFFF" d="M21.6523438,25.3164063c0,1.0390625-0.2675781,1.9726563-0.8027344,2.8007813
	S19.53125,29.59375,18.5,30.0625s-2.2539063,0.703125-3.6679688,0.703125c-1.6953125,0-3.09375-0.3203125-4.1953125-0.9609375
	c-0.78125-0.4609375-1.4160156-1.0761719-1.9042969-1.8457031S8,26.4414063,8,25.7148438
	c0-0.421875,0.1464844-0.7832031,0.4394531-1.0839844s0.6660156-0.4511719,1.1191406-0.4511719
	c0.3671875,0,0.6777344,0.1171875,0.9316406,0.3515625s0.4707031,0.5820313,0.6503906,1.0429688
	c0.21875,0.546875,0.4550781,1.0039063,0.7089844,1.3710938s0.6113281,0.6699219,1.0722656,0.9082031
	s1.0664063,0.3574219,1.8164063,0.3574219c1.03125,0,1.8691406-0.2402344,2.5136719-0.7207031
	s0.9667969-1.0800781,0.9667969-1.7988281c0-0.5703125-0.1738281-1.0332031-0.5214844-1.3886719
	s-0.796875-0.6269531-1.3476563-0.8144531S15.0625,23.1015625,14.140625,22.890625
	c-1.234375-0.2890625-2.2675781-0.6269531-3.0996094-1.0136719s-1.4921875-0.9140625-1.9804688-1.5820313
	S8.328125,18.796875,8.328125,17.8046875c0-0.9453125,0.2578125-1.7851563,0.7734375-2.5195313
	s1.2617188-1.2988281,2.2382813-1.6933594S13.4648438,13,14.7851563,13c1.0546875,0,1.9667969,0.1308594,2.7363281,0.3925781
	s1.4082031,0.609375,1.9160156,1.0429688s0.8789063,0.8886719,1.1132813,1.3652344s0.3515625,0.9414063,0.3515625,1.3945313
	c0,0.4140625-0.1464844,0.7871094-0.4394531,1.1191406S19.8046875,18.8125,19.3671875,18.8125
	c-0.3984375,0-0.7011719-0.0996094-0.9082031-0.2988281s-0.4316406-0.5253906-0.6738281-0.9785156
	c-0.3125-0.6484375-0.6875-1.1542969-1.125-1.5175781s-1.140625-0.5449219-2.109375-0.5449219
	c-0.8984375,0-1.6230469,0.1972656-2.1738281,0.5917969s-0.8261719,0.8691406-0.8261719,1.4238281
	c0,0.34375,0.09375,0.640625,0.28125,0.890625s0.4453125,0.4648438,0.7734375,0.6445313s0.6601563,0.3203125,0.9960938,0.421875
	s0.890625,0.25,1.6640625,0.4453125c0.96875,0.2265625,1.8457031,0.4765625,2.6308594,0.75s1.453125,0.6054688,2.0039063,0.9960938
	s0.9804688,0.8847656,1.2890625,1.4824219S21.6523438,24.4492188,21.6523438,25.3164063z"/>
<path fill="#FFFFFF" d="M33.8554688,16H27v4h5.7304688c0.53125,0,1.4023438,0.1225586,1.6640625,0.3681641
	C34.65625,20.6132813,34.7929688,21.0893555,34.7929688,21.5c0,0.4101563-0.1328125,0.8803711-0.3984375,1.121582
	C34.1289063,22.8632813,33.734375,23,33.2109375,23H27v5.8300781c0,0.7421875-0.1621094,1.2910156-0.4863281,1.6484375
	C26.1894531,30.8378906,26.0234375,31,25.515625,31C25,31,24.7460938,30.9404297,24.421875,30.578125S24,29.546875,24,28.8144531
	V15.1972656c0-0.5151367,0.0742188-0.9355469,0.2226563-1.2617188c0.1484375-0.3256836,0.3808594-0.5634766,0.6972656-0.7124023
	S25.640625,13,26.1328125,13h8.203125c0.5546875,0,0.9667969,0.1269531,1.2363281,0.3803711
	s0.4042969,0.7246094,0.4042969,1.1352539c0,0.418457-0.1347656,0.8505859-0.4042969,1.1040039S34.4101563,16,33.8554688,16z"/>
</svg>
