<?xml version="1.0" encoding="utf-8"?>
<!-- Generator: Adobe Illustrator 16.0.3, SVG Export Plug-In . SVG Version: 6.00 Build 0)  -->
<!DOCTYPE svg PUBLIC "-//W3C//DTD SVG 1.1//EN" "http://www.w3.org/Graphics/SVG/1.1/DTD/svg11.dtd">
<svg version="1.1" id="Tree" xmlns="http://www.w3.org/2000/svg" xmlns:xlink="http://www.w3.org/1999/xlink" x="0px" y="0px"
	 width="44px" height="44px" viewBox="0 0 44 44" enable-background="new 0 0 44 44" xml:space="preserve">
<path fill="#FFFFFF" d="M21.8603516,44c-3.1665039,0-6.0800781-1.3769531-8.2070313-3.8828125
	c-0.4511719,0.0664063-0.9091797,0.0957031-1.375,0.0957031c-3.2988281,0-6.1650391-1.0771484-8.5161133-3.1953125
	C1.3398438,34.8505859,0,31.8203125,0,28.5009766c0-1.9248047,0.4643555-3.8544922,1.3847656-5.7426758
	c0.0537109-0.1137695,0.1098633-0.2275391,0.1699219-0.3378906C0.5087891,20.6464844,0,18.9399414,0,17.2304688
	c0-3.496582,1.9506836-7.171875,6.2504883-8.3681641l0.0576172-0.1450195
	c1.6777344-4.1611328,5.0102539-6.472168,9.1943359-6.472168c0.9892578,0,1.9750977,0.1518555,2.921875,0.4482422
	C20.6420898,0.9248047,23.1396484,0,25.7412109,0c3.2167969,0,6.1201172,1.4223633,8.1611328,4.0068359
	c0.4941406,0.6323242,0.9208984,1.3105469,1.28125,2.0341797c0.9931641,0.2231445,1.8798828,0.5424805,2.6669922,0.9575195
	c1.6298828,0.7802734,3.1503906,2.3232422,4.4042969,4.5307617C43.4003906,13.4399414,44,15.3798828,44,17.2304688
	c0,1.8369141-0.421875,3.5878906-1.2568359,5.2314453C43.578125,24.1162109,44,26.0664063,44,28.2626953
	c0,2.9814453-0.8183594,5.6503906-2.4296875,7.9277344c-2.1464844,2.9912109-5.3095703,4.6269531-8.9140625,4.6269531
	c-0.7109375,0-1.4287109-0.0664063-2.1347656-0.2011719c-0.59375,0.4570313-1.2412109,0.8896484-1.9394531,1.2939453
	C26.2294922,43.3095703,24.0166016,44,21.8603516,44z"/>
<path fill="#00984E" d="M21.8603516,42c-2.5703125,0-4.9433594-1.1279297-6.6821289-3.1767578l-0.7182617-0.8466797
	l-1.0976563,0.1621094c-0.340332,0.0498047-0.6948242,0.0742188-1.0839844,0.0742188
	c-2.7875977,0-5.2026367-0.9023438-7.1772461-2.6816406C3.0996094,33.7412109,2,31.2460938,2,28.5009766
	c0-1.6191406,0.3979492-3.2558594,1.1826172-4.8662109c0.0483398-0.1015625,0.0869141-0.1816406,0.1289063-0.2578125
	l0.5415039-0.9960938l-0.5756836-0.9760742C2.4179688,19.9467773,2,18.5810547,2,17.2304688
	c0-2.4702148,1.2573242-5.4594727,4.7866211-6.4414063l0.9560547-0.2661133l0.4243164-1.0668945
	c1.3530273-3.3569336,3.9599609-5.2109375,7.3354492-5.2109375c0.7856445,0,1.5678711,0.1201172,2.3242188,0.3569336
	l1.0141602,0.3173828l0.8305664-0.6625977C21.5493164,2.7592773,23.5917969,2,25.7412109,2
	c2.5976563,0,4.9384766,1.152832,6.5917969,3.246582c0.4013672,0.5141602,0.7607422,1.0839844,1.0605469,1.6860352
	l0.4238281,0.8510742l0.9277344,0.2084961c0.8115234,0.1826172,1.5429688,0.4433594,2.1728516,0.7753906
	c1.34375,0.6450195,2.5644531,1.9296875,3.5976563,3.7495117C41.5087891,14.1743164,42,15.7460938,42,17.2304688
	c0,1.5117188-0.3496094,2.9672852-1.0400391,4.3256836l-0.4589844,0.902832l0.4570313,0.9042969
	C41.6494141,24.7333984,42,26.3818359,42,28.2626953c0,2.5595703-0.6943359,4.8388672-2.0625,6.7724609
	c-1.7470703,2.4355469-4.3359375,3.7822266-7.28125,3.7822266c-0.5917969,0-1.1835938-0.0556641-1.7597656-0.1660156
	l-0.8828125-0.1679688L29.3017578,39.03125c-0.5263672,0.4052734-1.1054688,0.7910156-1.7216797,1.1484375
	C25.5136719,41.4082031,23.6494141,42,21.8603516,42z"/>
<path fill="#00D870" d="M21.8647461,39.2861328c-1.8974609,0-3.5883789-0.8095703-4.8896484-2.3466797l-1.4243164-1.6708984
	l-2.1796875,0.3007813c-0.2480469,0.0390625-0.5083008,0.0537109-0.7768555,0.0537109
	c-2.2001953,0-4.0180664-0.6767578-5.5610352-2.0644531c-1.5019531-1.3408203-2.3188477-3.2089844-2.3188477-5.2714844
	c0-1.2490234,0.3144531-2.5302734,0.9375-3.8125l1.1318359-2.1889648l-1.1196289-1.9033203
	c-0.6391602-1.0864258-0.949707-2.0668945-0.949707-2.9951172c0-0.7919922,0.2246094-3.4423828,3.1206055-4.2485352
	l1.9067383-0.5288086l0.7895508-1.9736328c1.003418-2.4858398,2.7485352-3.7519531,5.1831055-3.7519531
	c0.5478516,0,1.0996094,0.0849609,1.640625,0.2529297l2.0224609,0.6303711l1.6567383-1.3212891
	c1.4428711-1.1479492,2.9824219-1.7319336,4.5859375-1.7319336c1.890625,0,3.5390625,0.8154297,4.7558594,2.3554688
	c0.2949219,0.3774414,0.5742188,0.8178711,0.8037109,1.2807617l0.8476563,1.690918l1.8447266,0.4160156
	c0.6162109,0.140625,1.1494141,0.3286133,1.5849609,0.5600586l0.1552734,0.0761719
	c0.8222656,0.3935547,1.7353516,1.3964844,2.5058594,2.7504883c0.7792969,1.3051758,1.1679688,2.4990234,1.1679688,3.5429688
	c0,1.1538086-0.2548828,2.2143555-0.7832031,3.2514648l-0.9130859,1.800293l0.9072266,1.8012695
	c0.5263672,1.0380859,0.7890625,2.3222656,0.7890625,3.8164063c0,2.0722656-0.5263672,3.8212891-1.6191406,5.3574219
	c-1.3046875,1.8232422-3.1611328,2.7929688-5.3574219,2.7929688c-0.4355469,0-0.8808594-0.0429688-1.3212891-0.1259766
	l-1.7666016-0.3330078l-1.4208984,1.0947266c-0.4355469,0.3378906-0.9160156,0.65625-1.4335938,0.9541016
	C24.6689453,38.8085938,23.2119141,39.2861328,21.8647461,39.2861328z"/>
</svg>
