<?xml version="1.0" encoding="utf-8"?>
<!-- Generator: Adobe Illustrator 16.0.3, SVG Export Plug-In . SVG Version: 6.00 Build 0)  -->
<!DOCTYPE svg PUBLIC "-//W3C//DTD SVG 1.1//EN" "http://www.w3.org/Graphics/SVG/1.1/DTD/svg11.dtd">
<svg version="1.1" id="Vegetation" xmlns="http://www.w3.org/2000/svg" xmlns:xlink="http://www.w3.org/1999/xlink" x="0px" y="0px"
	 width="44px" height="44px" viewBox="0 0 44 44" enable-background="new 0 0 44 44" xml:space="preserve">
<circle fill="#FFFFFF" cx="22" cy="22" r="21"/>
<path fill="#38673D" d="M22.0009766,41C11.5234375,41,3,32.4755859,3,21.9995117S11.5234375,3,22.0009766,3
	C32.4755859,3,41,11.5234375,41,21.9995117S32.4755859,41,22.0009766,41z"/>
<path fill="#359A40" d="M22.0009766,40C12.0751953,40,4,31.9257813,4,22c0-9.9248047,8.0751953-18,18.0009766-18
	C31.9257813,4,40,12.0751953,40,22C40,31.9257813,31.9257813,40,22.0009766,40z"/>
<path fill="#FFFFFF" d="M16.5751953,7.7416992c5.7001953,4.4453125,5.4194336,8.5874023,1.8569336,16.0981445
	c-0.8413086-1.0200195-5.2475586-4.9716797-3.3813477-10.5307617C16.5898438,8.722168,16.5751953,7.7416992,16.5751953,7.7416992z"
	/>
<path fill="#FFFFFF" d="M19.7226563,25.2724609c0,0,9.0019531-5.4726563,16.78125,1.0615234
	c0,0-7.7363281,3.9345703-11.7802734,1.2890625C20.6777344,24.9746094,19.7226563,25.2724609,19.7226563,25.2724609z"/>
<path fill="#FFFFFF" d="M22.0766602,20.394043C21.2578125,21.5844727,16.7294922,26.4091797,10,32.6982422L10.3632813,34
	c0,0,7.84375-9.2480469,12.0288086-12.9863281l-0.0014648-0.0083008c0.578125-0.0537109,1.7792969-0.1621094,4.2773438-0.3911133
	c5.8623047-0.5405273,6.546875-5.7407227,8.4404297-9.4331055C25.0732422,10.9042969,24.4521484,13.3984375,22.0766602,20.394043z"
	/>
</svg>
