<?xml version="1.0" encoding="utf-8"?>
<!-- Generator: Adobe Illustrator 16.0.3, SVG Export Plug-In . SVG Version: 6.00 Build 0)  -->
<!DOCTYPE svg PUBLIC "-//W3C//DTD SVG 1.1//EN" "http://www.w3.org/Graphics/SVG/1.1/DTD/svg11.dtd">
<svg version="1.1" id="_Violation_-_Low" xmlns="http://www.w3.org/2000/svg" xmlns:xlink="http://www.w3.org/1999/xlink" x="0px"
	 y="0px" width="44px" height="44px" viewBox="0 0 44 44" enable-background="new 0 0 44 44" xml:space="preserve">
<circle fill="#FFFFFF" cx="22" cy="22" r="21"/>
<path fill="#38673D" d="M22.0009766,40.90625C11.5234375,40.90625,3,32.4033203,3,21.9526367
	C3,11.5024414,11.5234375,3,22.0009766,3C32.4755859,3,41,11.5024414,41,21.9526367
	C41,32.4033203,32.4755859,40.90625,22.0009766,40.90625z"/>
<path fill="#359A40" d="M22.0009766,40C12.0751953,40,4,31.9257813,4,22c0-9.9248047,8.0751953-18,18.0009766-18
	C31.9257813,4,40,12.0751953,40,22C40,31.9257813,31.9257813,40,22.0009766,40z"/>
<polygon fill="#FFFFFF" points="8,32 22.0400391,6 36.0800781,32 "/>
<path fill="#359A40" d="M20.5273438,21.9345703l-0.4389648-6.4384766c-0.0825195-1.2548828-0.1235352-2.1552734-0.1235352-2.7021484
	c0-0.7431641,0.1992188-1.3237305,0.5961914-1.7407227c0.3979492-0.4165039,0.9208984-0.6245117,1.5703125-0.6245117
	c0.7861328,0,1.3110352,0.2666016,1.5766602,0.7998047c0.2646484,0.5332031,0.3974609,1.3012695,0.3974609,2.3046875
	c0,0.5917969-0.0322266,1.1918945-0.0957031,1.8012695l-0.5898438,6.6269531
	C23.3564453,22.75,23.21875,23.3554688,23.0087891,23.7763672s-0.5576172,0.6318359-1.0419922,0.6318359
	c-0.4936523,0-0.8364258-0.203125-1.0288086-0.6113281C20.746582,23.3896484,20.609375,22.7685547,20.5273438,21.9345703z
	 M22.0493164,30.7802734c-0.5576172,0-1.0449219-0.1777344-1.4604492-0.53125
	c-0.4160156-0.3535156-0.6240234-0.8486328-0.6240234-1.4853516c0-0.5556641,0.1992188-1.0292969,0.5961914-1.4169922
	c0.3979492-0.3925781,0.8847656-0.5859375,1.4604492-0.5859375c0.5761719,0,1.0664063,0.1933594,1.4736328,0.5859375
	c0.40625,0.3876953,0.6103516,0.8613281,0.6103516,1.4169922c0,0.6269531-0.2050781,1.1201172-0.6171875,1.4785156
	C23.0771484,30.6005859,22.5976563,30.7802734,22.0493164,30.7802734z"/>
</svg>
