<?xml version="1.0" encoding="utf-8"?>
<!-- Generator: Adobe Illustrator 16.0.3, SVG Export Plug-In . SVG Version: 6.00 Build 0)  -->
<!DOCTYPE svg PUBLIC "-//W3C//DTD SVG 1.1//EN" "http://www.w3.org/Graphics/SVG/1.1/DTD/svg11.dtd">
<svg version="1.1" id="Violent_Person" xmlns="http://www.w3.org/2000/svg" xmlns:xlink="http://www.w3.org/1999/xlink" x="0px"
	 y="0px" width="44px" height="44px" viewBox="0 0 44 44" enable-background="new 0 0 44 44" xml:space="preserve">
<circle fill="#FFFFFF" cx="22" cy="22" r="21"/>
<path fill="#C70101" d="M22.0009766,40.90625C11.5234375,40.90625,3,32.4033203,3,21.9526367
	C3,11.5024414,11.5234375,3,22.0009766,3C32.4755859,3,41,11.5024414,41,21.9526367
	C41,32.4033203,32.4755859,40.90625,22.0009766,40.90625z"/>
<path fill="#FB0101" d="M22.0009766,40C12.0751953,40,4,31.9257813,4,22c0-9.9248047,8.0751953-18,18.0009766-18
	C31.9257813,4,40,12.0751953,40,22C40,31.9257813,31.9257813,40,22.0009766,40z"/>
<g>
	<rect x="22" y="23" fill="#FFFFFF" width="11" height="4"/>
	<rect x="22.0004883" y="18" fill="#FFFFFF" width="11.9995117" height="4"/>
	<rect x="23" y="28" fill="#FFFFFF" width="8" height="4"/>
	<path fill="#FFFFFF" d="M20,9c-0.5522461,0.7441406-1.2060547,1.3325195-1.7939453,2.0761719
		c-0.5883789,0.7441406-1.1826172,1.4882813-1.7822266,2.2319336C15.7275391,14.171875,15.1674805,15,15,15H9v15h5l3,2h5v-4
		h-0.6479492c-0.3120117,0-0.4677734-0.1875-0.4677734-0.5V12.7041016C20.8842773,12.3925781,20.7822266,12,21.0942383,12h3.2797852
		c0.0478516,0,0.1025391-0.0180664,0.1621094-0.0541992s0.1142578-0.0541992,0.1621094-0.0541992
		s0.1015625,0.0180664,0.1621094,0.0541992C24.9199219,11.9819336,24.9736328,12,25.0214844,12l0.5107422,1.487793V16H29V9H20z"/>
	<path fill="#FFFFFF" d="M22,13v4h2.5917969c-0.2880859-0.0722656-0.4316406-0.4116211-0.4316406-0.6518555
		c-0.0244141-0.8154297-0.0361328-1.4995117-0.0361328-2.0517578c0-0.5517578,0-0.9838867,0-1.2963867H22z"/>
	<path fill="#FFFFFF" d="M33,13h-2.7158203v3.5678711c0,0.2158203-0.1318359,0.3598633-0.3955078,0.4321289H33V13z"/>
</g>
</svg>
