<?xml version="1.0" encoding="utf-8"?>
<!-- Generator: Adobe Illustrator 16.0.3, SVG Export Plug-In . SVG Version: 6.00 Build 0)  -->
<!DOCTYPE svg PUBLIC "-//W3C//DTD SVG 1.1//EN" "http://www.w3.org/Graphics/SVG/1.1/DTD/svg11.dtd">
<svg version="1.1" id="Waste_Disposal_Violations" xmlns="http://www.w3.org/2000/svg" xmlns:xlink="http://www.w3.org/1999/xlink"
	 x="0px" y="0px" width="44px" height="44px" viewBox="0 0 44 44" enable-background="new 0 0 44 44" xml:space="preserve">
<circle fill="#FFFFFF" cx="22" cy="22" r="21"/>
<path fill="#AE0101" d="M22.0009766,40.90625C11.5234375,40.90625,3,32.4033203,3,21.9526367
	C3,11.5024414,11.5234375,3,22.0009766,3C32.4755859,3,41,11.5024414,41,21.9526367
	C41,32.4033203,32.4755859,40.90625,22.0009766,40.90625z"/>
<path fill="#FB3333" d="M22.0004883,40C12.0751953,40,4,31.9257813,4,21.9995117C4,12.074707,12.0751953,4,22.0004883,4
	S40,12.074707,40,21.9995117C40,31.9257813,31.9257813,40,22.0004883,40z"/>
<g>
	<path fill="#FFFFFF" d="M17.9335938,25.4199219l-1.8515625-6.8671875l-1.875,6.8671875
		c-0.1455078,0.5214844-0.2617188,0.8945313-0.3476563,1.1210938s-0.2353516,0.4296875-0.4492188,0.609375
		s-0.4970703,0.2695313-0.8515625,0.2695313c-0.2861328,0-0.5224609-0.0537109-0.7070313-0.1601563
		s-0.3349609-0.2578125-0.4492188-0.453125s-0.2080078-0.4267578-0.28125-0.6953125
		c-0.0732422-0.2675781-0.1376953-0.5166016-0.1953125-0.7460938l-1.90625-7.7109375
		c-0.1147461-0.4477539-0.171875-0.7890625-0.171875-1.0234375c0-0.296875,0.1040039-0.546875,0.3125-0.75
		c0.2080078-0.203125,0.4658203-0.3046875,0.7734375-0.3046875c0.421875,0,0.7060547,0.1357422,0.8515625,0.40625
		c0.1455078,0.2709961,0.2734375,0.6640625,0.3828125,1.1796875l1.5,6.6875l1.6796875-6.2578125
		c0.125-0.4790039,0.2373047-0.84375,0.3359375-1.09375s0.2607422-0.4658203,0.484375-0.6484375
		c0.2236328-0.1821289,0.5283203-0.2734375,0.9140625-0.2734375c0.390625,0,0.6943359,0.0952148,0.9101563,0.2851563
		c0.2158203,0.1904297,0.3662109,0.3974609,0.4492188,0.6210938c0.0830078,0.2241211,0.1953125,0.59375,0.3359375,1.109375
		l1.6953125,6.2578125l1.5-6.6875c0.0732422-0.3486328,0.1416016-0.6220703,0.2070313-0.8203125
		c0.0654297-0.1977539,0.1767578-0.375,0.3359375-0.53125s0.3896484-0.234375,0.6914063-0.234375
		s0.5585938,0.1005859,0.7695313,0.3007813c0.2109375,0.2006836,0.3164063,0.4521484,0.3164063,0.7539063
		c0,0.2138672-0.0576172,0.5546875-0.171875,1.0234375l-1.90625,7.7109375
		c-0.1298828,0.5214844-0.2382813,0.9023438-0.3242188,1.1445313s-0.2314453,0.4550781-0.4375,0.6367188
		s-0.4960938,0.2734375-0.8710938,0.2734375c-0.3544922,0-0.6376953-0.0888672-0.8515625-0.265625
		s-0.3623047-0.3759766-0.4453125-0.5976563C18.2021484,26.3359375,18.0849609,25.9570313,17.9335938,25.4199219z"/>
	<path fill="#FFFFFF" d="M26.2695313,15.7714844h3.0234375c0.7861328,0,1.4609375,0.0732422,2.0234375,0.21875
		c0.5625,0.1459961,1.0732422,0.4194336,1.53125,0.8203125c1.1923828,1.0209961,1.7890625,2.5732422,1.7890625,4.65625
		c0,0.6875-0.0595703,1.3154297-0.1796875,1.8828125c-0.1201172,0.5683594-0.3046875,1.0800781-0.5546875,1.5351563
		c-0.25,0.4560547-0.5703125,0.8632813-0.9609375,1.2226563c-0.3076172,0.2763672-0.6435547,0.4980469-1.0078125,0.6640625
		c-0.3642578,0.1669922-0.7568359,0.2841797-1.1757813,0.3515625c-0.4189453,0.0683594-0.8916016,0.1015625-1.4179688,0.1015625
		h-3.0234375c-0.421875,0-0.7392578-0.0634766-0.953125-0.1914063c-0.2138672-0.1269531-0.3525391-0.3066406-0.4179688-0.5390625
		c-0.0654297-0.2314453-0.0976563-0.5322266-0.0976563-0.9023438v-8.3984375c0-0.5,0.1123047-0.8618164,0.3359375-1.0859375
		C25.4072266,15.8837891,25.7695313,15.7714844,26.2695313,15.7714844z M27.1679688,17.6074219v7.7734375h1.7578125
		c0.3857422,0,0.6875-0.0097656,0.90625-0.03125c0.21875-0.0205078,0.4453125-0.0722656,0.6796875-0.15625
		c0.234375-0.0830078,0.4375-0.2001953,0.609375-0.3515625c0.7763672-0.65625,1.1640625-1.7861328,1.1640625-3.390625
		c0-1.1298828-0.1708984-1.9765625-0.5117188-2.5390625s-0.7617188-0.9204102-1.2617188-1.0742188
		c-0.5-0.1533203-1.1044922-0.2304688-1.8125-0.2304688H27.1679688z"/>
</g>
</svg>
