<?xml version="1.0" encoding="utf-8"?>
<!-- Generator: Adobe Illustrator 16.0.3, SVG Export Plug-In . SVG Version: 6.00 Build 0)  -->
<!DOCTYPE svg PUBLIC "-//W3C//DTD SVG 1.1//EN" "http://www.w3.org/Graphics/SVG/1.1/DTD/svg11.dtd">
<svg version="1.1" id="Water_Map_Change_Request_-_Critical"
	 xmlns="http://www.w3.org/2000/svg" xmlns:xlink="http://www.w3.org/1999/xlink" x="0px" y="0px" width="44px" height="44px"
	 viewBox="0 0 44 44" enable-background="new 0 0 44 44" xml:space="preserve">
<circle fill="#FFFFFF" cx="22" cy="22" r="21"/>
<path fill="#C70101" d="M22.0009766,40.90625C11.5234375,40.90625,3,32.4033203,3,21.9526367
	C3,11.5024414,11.5234375,3,22.0009766,3C32.4755859,3,41,11.5024414,41,21.9526367
	C41,32.4033203,32.4755859,40.90625,22.0009766,40.90625z"/>
<path fill="#FB1A1A" d="M22.0009766,40C12.0751953,40,4,31.9257813,4,22c0-9.9248047,8.0751953-18,18.0009766-18
	C31.9257813,4,40,12.0751953,40,22C40,31.9257813,31.9257813,40,22.0009766,40z"/>
<path fill="#FFFFFF" d="M25.3554688,29.0615234l-3.3339844-12.3647461l-3.3759766,12.3647461
	c-0.2626953,0.9375-0.4716797,1.609375-0.6259766,2.0185547c-0.1542969,0.40625-0.4238281,0.7724609-0.8085938,1.0976563
	c-0.3847656,0.3232422-0.8955078,0.484375-1.5332031,0.484375c-0.515625,0-0.9404297-0.0947266-1.2734375-0.2890625
	c-0.3330078-0.1923828-0.6025391-0.4648438-0.8085938-0.8144531c-0.2060547-0.3535156-0.375-0.7685547-0.5058594-1.2539063
	c-0.1318359-0.4814453-0.2490234-0.9287109-0.3525391-1.3417969L9.3056641,15.0795898
	c-0.2060547-0.8066406-0.3095703-1.4208984-0.3095703-1.8427734c0-0.534668,0.1875-0.9848633,0.5625-1.3505859
	c0.3759766-0.3657227,0.8398438-0.5483398,1.3925781-0.5483398c0.7597656,0,1.2705078,0.2441406,1.5332031,0.7314453
	c0.2626953,0.487793,0.4931641,1.1958008,0.6894531,2.1240234l2.7001953,12.0410156l3.0244141-11.2675781
	c0.2255859-0.862793,0.4267578-1.519043,0.6054688-1.96875c0.1777344-0.4501953,0.46875-0.8398438,0.8720703-1.1674805
	c0.4033203-0.3286133,0.9521484-0.4926758,1.6455078-0.4926758c0.703125,0,1.25,0.1713867,1.6386719,0.5136719
	s0.6582031,0.7148438,0.8085938,1.1176758c0.1503906,0.4038086,0.3515625,1.0693359,0.6054688,1.9975586l3.0527344,11.2675781
	l2.7011719-12.0410156c0.1308594-0.628418,0.2539063-1.1206055,0.3730469-1.4765625
	c0.1152344-0.3564453,0.3183594-0.6757813,0.6035156-0.9570313c0.2871094-0.28125,0.7011719-0.421875,1.2441406-0.421875
	c0.5449219,0,1.0058594,0.1806641,1.3867188,0.5415039c0.3789063,0.3608398,0.5683594,0.8134766,0.5683594,1.3574219
	c0,0.3847656-0.1015625,0.9990234-0.3085938,1.8427734l-3.4316406,13.8833008
	c-0.234375,0.9375-0.4296875,1.6240234-0.5839844,2.0615234c-0.1542969,0.4345703-0.4160156,0.8164063-0.7890625,1.1455078
	c-0.3691406,0.328125-0.8925781,0.4921875-1.5664063,0.4921875c-0.6386719,0-1.1503906-0.1591797-1.5351563-0.4785156
	c-0.3828125-0.3183594-0.6503906-0.6777344-0.8007813-1.0742188C25.8378906,30.7089844,25.6269531,30.0273438,25.3554688,29.0615234
	z"/>
</svg>
