<?xml version="1.0" encoding="utf-8"?>
<!-- Generator: Adobe Illustrator 16.0.3, SVG Export Plug-In . SVG Version: 6.00 Build 0)  -->
<!DOCTYPE svg PUBLIC "-//W3C//DTD SVG 1.1//EN" "http://www.w3.org/Graphics/SVG/1.1/DTD/svg11.dtd">
<svg version="1.1" id="Wire_Down" xmlns="http://www.w3.org/2000/svg" xmlns:xlink="http://www.w3.org/1999/xlink" x="0px" y="0px"
	 width="44px" height="44px" viewBox="0 0 44 44" enable-background="new 0 0 44 44" xml:space="preserve">
<circle fill="#FFFFFF" cx="22" cy="22" r="21"/>
<path fill="#C70101" d="M22.0009766,40.90625C11.5234375,40.90625,3,32.4033203,3,21.9526367
	C3,11.5024414,11.5234375,3,22.0009766,3C32.4755859,3,41,11.5024414,41,21.9526367
	C41,32.4033203,32.4755859,40.90625,22.0009766,40.90625z"/>
<path fill="#FB0101" d="M22.0009766,40C12.0751953,40,4,31.9257813,4,22c0-9.9248047,8.0751953-18,18.0009766-18
	C31.9257813,4,40,12.0751953,40,22C40,31.9257813,31.9257813,40,22.0009766,40z"/>
<path fill="#FFFFFF" d="M13.8735352,11.5444336c0,1.2763672-0.8828125,2.2304688-1.9086914,2.7744141
	C11.3564453,14.6396484,10.6904297,14.8916016,10,15.0786133v1.2089844c0.7983398-0.206543,1.5673828-0.4882813,2.2700195-0.8613281
	c0.8554688-0.4516602,1.7182617-1.3764648,2.1948242-2.2397461c0.2871094,0.6708984,0.7768555,0.7270508,1.3222656,1.2294922
	c0.800293,0.7397461,1.7929688,1.3432617,2.8120117,1.8344727v-1.1435547
	c-0.7275391-0.3696289-1.3061523-0.6054688-2.3686523-1.5849609c-0.7504883-0.6918945-1.1757813-0.9179688-1.1757813-1.9775391
	H13.8735352z"/>
<g>
	<path fill="#FFFFFF" d="M34.9873047,31.8574219C27.8769531,30.4111328,24.3730469,22.8212891,24.0917969,17H24v5.5014648
		C26.0927734,28.2978516,31.0488281,33,34.9873047,33C34.9873047,33,35.0166016,31.8623047,34.9873047,31.8574219z"/>
	<path fill="#FFFFFF" d="M19.9091797,17C19.6279297,22.8212891,16.1103516,30.4111328,9,31.8574219C8.9702148,31.8623047,9,33,9,33
		c3.9472656,0,8.9155273-4.7226563,11-10.5361328V17H19.9091797z"/>
	<polygon fill="#FFFFFF" points="24,13 26,11 18,11 20,13 20,17 20,22.4638672 20,33 24,33 24,22.5014648 24,17 	"/>
</g>
<polygon fill="#FFFFFF" points="14,8 15,8 15,9 16,9 16,8 17,8 17,9 27,9 27,8 28,8 28,9 29,9 29,8 30,8 30,9 31,9 31,10 13,10 
	13,9 14,9 "/>
<path fill="#FFFFFF" d="M28.8730469,11.2568359c0,1.2763672-0.8828125,2.2304688-1.9082031,2.7744141
	C26.3564453,14.3520508,25.6904297,14.6040039,25,14.7910156V16c0.7978516-0.206543,1.5673828-0.4882813,2.2695313-0.8613281
	c0.8554688-0.4516602,1.71875-1.3764648,2.1953125-2.2397461c0.2871094,0.6708984,0.7773438,0.7270508,1.3222656,1.2294922
	c0.8007813,0.7397461,1.7929688,1.3432617,2.8125,1.8344727v-1.1435547
	c-0.8613281-0.4370117-1.6933594-0.9614258-2.3691406-1.5849609c-0.75-0.6918945-1.1757813-0.9179688-1.1757813-1.9775391
	H28.8730469z"/>
</svg>
