<?xml version="1.0" encoding="utf-8"?>
<!-- Generator: Adobe Illustrator 15.0.2, SVG Export Plug-In . SVG Version: 6.00 Build 0)  -->
<!DOCTYPE svg PUBLIC "-//W3C//DTD SVG 1.1//EN" "http://www.w3.org/Graphics/SVG/1.1/DTD/svg11.dtd">
<svg version="1.1" id="Layer_1" xmlns="http://www.w3.org/2000/svg" xmlns:xlink="http://www.w3.org/1999/xlink" x="0px" y="0px"
	 width="24px" height="24px" viewBox="0 0 24 24" enable-background="new 0 0 24 24" xml:space="preserve">
<path fill="#58595B" d="M12.231,0.23c-5.739,0-6.943,2.824-6.943,5.279v11.512l6.943,6.939l6.943-6.939V5.51
	C19.175,3.054,17.971,0.23,12.231,0.23"/>
<path fill="#939598" d="M6.019,16.718V5.51c0-3.06,2.033-4.549,6.212-4.549s6.212,1.489,6.212,4.549v11.208l-6.212,6.209
	L6.019,16.718z"/>
<path fill="#808285" d="M12.598,1.702v19.827l5.116-5.114V5.51C17.714,3.78,17.111,1.806,12.598,1.702"/>
<polygon fill="#FFFFFF" points="13.919,14.206 14.707,13.965 12.665,6.632 6.41,16.04 15.462,16.04 "/>
<polygon fill="#FFFFFF" points="16.878,14.496 14.868,7.613 14.241,7.806 16.252,14.688 15.399,14.93 17.151,16.603 17.73,14.271 
	"/>
<path fill="#FFFFFF" d="M15.05,3.857l-0.594,0l0.119-0.187c0.074-0.119,0.038-0.275-0.08-0.351c-0.119-0.075-0.274-0.04-0.351,0.078
	l-0.291,0.46l-1,0.001l0.499-0.878l0.69-0.038c0.141-0.008,0.248-0.127,0.24-0.268s-0.127-0.248-0.268-0.24l-0.363,0.02l0.16-0.281
	c0.07-0.122,0.026-0.277-0.096-0.347c-0.121-0.069-0.277-0.026-0.347,0.095l-0.161,0.283l-0.1-0.18
	c-0.066-0.123-0.223-0.168-0.345-0.101s-0.167,0.223-0.101,0.346l0.25,0.453l-0.5,0.878l-0.5-0.878l0.249-0.453
	c0.068-0.123,0.023-0.278-0.1-0.345c-0.123-0.068-0.277-0.023-0.345,0.1l-0.099,0.18l-0.161-0.282
	c-0.07-0.123-0.225-0.165-0.347-0.096c-0.122,0.07-0.165,0.225-0.095,0.348l0.16,0.28l-0.363-0.019c-0.14-0.008-0.26,0.1-0.268,0.24
	c-0.008,0.141,0.1,0.26,0.24,0.268l0.69,0.038l0.5,0.878l-1.001-0.001l-0.291-0.46c-0.076-0.118-0.232-0.153-0.352-0.078
	c-0.118,0.075-0.153,0.232-0.078,0.351l0.118,0.187l-0.593,0c-0.14,0-0.254,0.114-0.255,0.254c0,0.14,0.113,0.255,0.254,0.255
	l0.584,0.001l-0.185,0.296c-0.074,0.119-0.037,0.275,0.082,0.35c0.119,0.074,0.276,0.037,0.35-0.083l0.352-0.563l1.016,0.001
	l-0.485,0.85l-0.525,0.03c-0.14,0.008-0.248,0.128-0.24,0.268c0.009,0.14,0.129,0.248,0.269,0.239l0.195-0.011l-0.297,0.519
	c-0.069,0.123-0.027,0.278,0.095,0.348c0.122,0.069,0.277,0.027,0.347-0.095l0.308-0.54l0.183,0.328
	c0.068,0.123,0.223,0.167,0.346,0.098c0.123-0.068,0.167-0.223,0.099-0.345l-0.332-0.596l0.476-0.832l0,0.001l0.001-0.001
	l0.476,0.832l-0.332,0.596c-0.068,0.123-0.024,0.277,0.099,0.345c0.122,0.069,0.276,0.024,0.346-0.098l0.183-0.328l0.308,0.54
	c0.069,0.122,0.226,0.164,0.347,0.095c0.122-0.069,0.164-0.225,0.096-0.348l-0.297-0.519l0.194,0.011
	c0.141,0.009,0.261-0.099,0.269-0.239s-0.1-0.26-0.24-0.268l-0.523-0.03l-0.486-0.85l1.016-0.001l0.352,0.563
	c0.074,0.12,0.23,0.157,0.35,0.083c0.12-0.075,0.157-0.231,0.082-0.35l-0.184-0.296l0.584-0.001c0.141,0,0.254-0.115,0.254-0.255
	S15.19,3.857,15.05,3.857z"/>
</svg>
