<?xml version="1.0" encoding="utf-8"?>
<!-- Generator: Adobe Illustrator 15.0.2, SVG Export Plug-In . SVG Version: 6.00 Build 0)  -->
<!DOCTYPE svg PUBLIC "-//W3C//DTD SVG 1.1//EN" "http://www.w3.org/Graphics/SVG/1.1/DTD/svg11.dtd">
<svg version="1.1" id="Layer_1" xmlns="http://www.w3.org/2000/svg" xmlns:xlink="http://www.w3.org/1999/xlink" x="0px" y="0px"
	 width="24px" height="24px" viewBox="0 0 24 24" enable-background="new 0 0 24 24" xml:space="preserve">
<path fill="#58595B" d="M12.231,0.23c-5.739,0-6.943,2.824-6.943,5.279v11.512l6.943,6.939l6.943-6.939V5.51
	C19.175,3.054,17.971,0.23,12.231,0.23"/>
<path fill="#939598" d="M6.019,16.718V5.51c0-3.06,2.033-4.549,6.212-4.549s6.212,1.489,6.212,4.549v11.208l-6.212,6.209
	L6.019,16.718z"/>
<path fill="#808285" d="M12.597,1.702v19.827l5.117-5.114V5.51C17.714,3.78,17.111,1.806,12.597,1.702"/>
<path fill="#FFFFFF" d="M13.842,9.99c0.15,0.062,0.301,0.125,0.449,0.187c0.15,0.063,0.293,0.144,0.43,0.243
	c0.648,0.399,1.169,0.941,1.562,1.626s0.589,1.433,0.589,2.243c0,0.635-0.122,1.227-0.366,1.775
	c-0.242,0.548-0.569,1.027-0.979,1.439c-0.412,0.41-0.895,0.734-1.448,0.971c-0.556,0.237-1.144,0.355-1.767,0.355
	c-0.636,0-1.231-0.118-1.785-0.355c-0.554-0.236-1.037-0.561-1.448-0.971c-0.411-0.412-0.735-0.892-0.972-1.439
	c-0.237-0.549-0.355-1.141-0.355-1.775c0-0.499,0.075-0.976,0.225-1.431c0.149-0.455,0.358-0.868,0.626-1.242
	c0.268-0.374,0.589-0.701,0.962-0.981c0.374-0.28,0.779-0.495,1.215-0.645V8.888h1.178c0-0.188,0.025-0.355,0.075-0.505
	c0.049-0.149,0.109-0.287,0.177-0.411c0.069-0.125,0.128-0.246,0.178-0.364c0.05-0.119,0.075-0.252,0.075-0.402
	c0-0.174-0.047-0.364-0.141-0.569c-0.094-0.206-0.277-0.464-0.551-0.776l0.354-0.299c0.299,0.362,0.508,0.673,0.626,0.935
	c0.119,0.262,0.178,0.499,0.178,0.71c0,0.163-0.025,0.315-0.074,0.458c-0.05,0.144-0.109,0.28-0.178,0.411
	c-0.069,0.131-0.128,0.262-0.178,0.393s-0.075,0.271-0.075,0.421h1.42V9.99z"/>
<polygon fill="#FFFFFF" points="10.927,5.243 9.32,4.757 9.432,4.439 "/>
<polygon fill="#FFFFFF" points="10.853,5.935 9.47,6.364 9.395,6.047 "/>
<polygon fill="#FFFFFF" points="9.899,8.121 9.656,7.896 11.151,6.514 "/>
<polygon fill="#FFFFFF" points="11.357,4.757 10.554,3.729 10.815,3.562 "/>
<polygon fill="#FFFFFF" points="11.955,2.533 12.272,2.57 11.992,4.607 "/>
<polygon fill="#FFFFFF" points="13.805,3.879 14.029,4.104 12.759,4.981 "/>
<polygon fill="#FFFFFF" points="15.057,5.168 15.096,5.561 13.039,5.561 "/>
</svg>
