<?xml version="1.0" encoding="utf-8"?>
<!-- Generator: Adobe Illustrator 15.0.2, SVG Export Plug-In . SVG Version: 6.00 Build 0)  -->
<!DOCTYPE svg PUBLIC "-//W3C//DTD SVG 1.1//EN" "http://www.w3.org/Graphics/SVG/1.1/DTD/svg11.dtd">
<svg version="1.1" id="Layer_1" xmlns="http://www.w3.org/2000/svg" xmlns:xlink="http://www.w3.org/1999/xlink" x="0px" y="0px"
	 width="24px" height="24px" viewBox="0 0 24 24" enable-background="new 0 0 24 24" xml:space="preserve">
<path fill="#58595B" d="M12.231,0.23c-5.739,0-6.943,2.824-6.943,5.279v11.512l6.943,6.939l6.943-6.939V5.51
	C19.175,3.054,17.971,0.23,12.231,0.23"/>
<path fill="#939598" d="M6.019,16.718V5.51c0-3.06,2.033-4.549,6.212-4.549s6.212,1.489,6.212,4.549v11.208l-6.212,6.209
	L6.019,16.718z"/>
<path fill="#808285" d="M12.597,1.702v19.827l5.117-5.114V5.51C17.714,3.78,17.111,1.806,12.597,1.702"/>
<path fill="#FFFFFF" d="M7.779,6.525C7.75,6.573,7.721,6.612,7.692,6.641C7.663,6.67,7.634,6.699,7.605,6.728
	C7.499,6.883,7.421,7.03,7.373,7.17S7.3,7.449,7.3,7.584c0,0.271,0.046,0.469,0.138,0.595C7.53,8.304,7.629,8.406,7.735,8.483
	c0.106,0.078,0.206,0.152,0.297,0.225C8.125,8.78,8.17,8.894,8.17,9.049c0,0.135-0.053,0.258-0.159,0.37
	C7.905,9.53,7.779,9.585,7.634,9.585c-0.077,0.116-0.147,0.253-0.21,0.413c-0.063,0.16-0.094,0.336-0.094,0.529
	s0.048,0.384,0.145,0.573c0.097,0.188,0.22,0.357,0.37,0.507s0.317,0.271,0.5,0.363s0.362,0.138,0.537,0.138
	c0.3,0,0.527-0.029,0.682-0.087c0.155-0.058,0.275-0.124,0.362-0.196c0.087-0.073,0.152-0.138,0.196-0.196
	c0.043-0.058,0.104-0.087,0.182-0.087c0.077,0,0.152,0.039,0.225,0.116c0.072,0.077,0.109,0.155,0.109,0.232
	c0,0.048-0.007,0.087-0.022,0.116c-0.015,0.029-0.031,0.053-0.051,0.072c-0.019,0.029-0.039,0.048-0.058,0.058l-0.203,0.45
	l-0.116-0.218l-0.45,0.537l-0.058-0.232l-0.565,0.376v-0.26L8.46,12.965l0.058-0.232C8.287,12.694,8.062,12.6,7.844,12.45
	s-0.413-0.329-0.587-0.537c-0.174-0.208-0.314-0.435-0.42-0.682s-0.16-0.481-0.16-0.704c0-0.271,0.048-0.524,0.145-0.761
	S7.02,9.329,7.126,9.165C7.107,9.126,7.097,9.078,7.097,9.02l0.029-0.116C7.02,8.749,6.918,8.551,6.822,8.309
	S6.677,7.806,6.677,7.526c0-0.3,0.07-0.583,0.21-0.849c0.14-0.266,0.319-0.498,0.537-0.696C7.641,5.783,7.88,5.626,8.142,5.51
	c0.261-0.116,0.507-0.174,0.74-0.174l0.74-0.769l0.769,0.29l1.247,1.131l0.305,0.739l-0.769,0.827L9.737,6.221
	c-0.106-0.058-0.229-0.111-0.37-0.16S9.075,5.989,8.91,5.989c-0.155,0-0.312,0.024-0.471,0.072s-0.322,0.14-0.486,0.275L7.779,6.525
	z"/>
<path fill="#FFFFFF" d="M10.128,5.061L9.911,5.365c-0.02,0-0.039,0-0.058,0c-0.02,0-0.039,0.01-0.058,0.029
	C9.775,5.413,9.761,5.43,9.751,5.445c-0.01,0.014-0.015,0.046-0.015,0.094s0.005,0.08,0.015,0.094s0.024,0.031,0.043,0.051
	c0.048,0.048,0.102,0.072,0.16,0.072c0.029,0,0.051-0.007,0.065-0.021c0.015-0.015,0.032-0.032,0.051-0.051
	C10.09,5.646,10.1,5.597,10.1,5.539l0.29-0.232L10.128,5.061z"/>
<path fill="#FFFFFF" d="M15.292,6.757c-0.029,0.048-0.063,0.08-0.102,0.094c-0.039,0.014-0.082,0.031-0.131,0.051
	c-0.049,0-0.09-0.002-0.123-0.007s-0.074-0.022-0.123-0.051c-0.049-0.02-0.092-0.053-0.131-0.102s-0.072-0.102-0.102-0.16
	s-0.055-0.118-0.08-0.181c-0.023-0.063-0.035-0.133-0.035-0.21c-0.02-0.048-0.029-0.092-0.029-0.13s0-0.072,0-0.102
	c0-0.193,0.049-0.353,0.145-0.479l-0.42-0.595c-0.049,0.02-0.092,0.034-0.131,0.043s-0.082,0.015-0.131,0.015
	s-0.1-0.005-0.152-0.015s-0.113-0.024-0.182-0.043c-0.145-0.048-0.268-0.111-0.369-0.188s-0.177-0.165-0.225-0.261h-0.596
	c-0.058,0.165-0.154,0.314-0.289,0.45c-0.088,0.106-0.187,0.188-0.298,0.247s-0.22,0.087-0.326,0.087
	c-0.126,0-0.213-0.043-0.261-0.13c-0.087-0.077-0.13-0.174-0.13-0.29c0-0.106,0.029-0.21,0.087-0.312s0.14-0.205,0.247-0.312
	s0.215-0.184,0.327-0.232c0.111-0.048,0.22-0.073,0.326-0.073c0.105,0,0.193,0.034,0.261,0.102s0.102,0.145,0.102,0.232h0.522
	c0.029-0.106,0.096-0.188,0.203-0.247c0.105-0.058,0.227-0.087,0.363-0.087c0.047,0,0.102,0.007,0.158,0.022
	c0.059,0.014,0.117,0.031,0.174,0.051c0.203,0.058,0.363,0.14,0.479,0.246c0.117,0.106,0.174,0.223,0.174,0.348v0.087
	c-0.018,0.029-0.035,0.058-0.051,0.087c-0.014,0.029-0.035,0.058-0.064,0.087l0.377,0.537l0.088-0.029l0.131,0.029
	c0.047,0.02,0.086,0.041,0.115,0.065c0.029,0.024,0.059,0.051,0.086,0.08c0.127,0.125,0.203,0.314,0.232,0.565
	c0.02,0.048,0.029,0.097,0.029,0.145s0,0.097,0,0.145c-0.02,0.068-0.029,0.121-0.029,0.16c0,0.029-0.01,0.068-0.029,0.116
	L15.292,6.757z"/>
<path fill="#FFFFFF" d="M17.812,10.486c0,0.13-0.004,0.252-0.016,0.366c-0.011,0.114-0.028,0.225-0.05,0.333
	c-0.074,0.292-0.188,0.544-0.342,0.755c-0.151,0.211-0.319,0.385-0.503,0.52c-0.185,0.136-0.377,0.241-0.576,0.317
	c-0.201,0.076-0.383,0.13-0.545,0.162c-0.099,0.208-0.265,0.31-0.504,0.31c-0.238,0-0.418-0.092-0.536-0.276
	c-0.194-0.043-0.416-0.114-0.658-0.211c-0.243-0.097-0.476-0.244-0.692-0.438c-0.217-0.195-0.4-0.447-0.551-0.756
	c-0.153-0.309-0.228-0.702-0.228-1.179c0-0.379,0.059-0.696,0.179-0.951c0.118-0.255,0.27-0.474,0.455-0.658L13.18,7.545
	l1.072-0.488h1.657l0.797,0.325l0.065,1.04c0.239,0.152,0.444,0.339,0.617,0.561s0.298,0.496,0.375,0.821L17.812,10.486z"/>
<path fill="#939598" d="M15.683,12.113c0.117-0.029,0.248-0.075,0.393-0.138c0.145-0.063,0.279-0.155,0.406-0.276
	c0.125-0.121,0.232-0.273,0.318-0.457c0.088-0.184,0.131-0.406,0.131-0.667c0-0.29-0.049-0.532-0.145-0.725
	c-0.098-0.193-0.213-0.35-0.348-0.471c-0.137-0.121-0.281-0.21-0.436-0.268c-0.154-0.058-0.291-0.097-0.406-0.116l-0.871,0.029
	c-0.105,0.039-0.225,0.092-0.355,0.16c-0.129,0.068-0.254,0.16-0.369,0.275c-0.115,0.116-0.213,0.264-0.289,0.442
	c-0.078,0.179-0.117,0.394-0.117,0.646c0,0.3,0.047,0.549,0.139,0.747s0.205,0.357,0.34,0.479c0.135,0.121,0.281,0.21,0.436,0.268
	c0.154,0.058,0.299,0.092,0.436,0.102c0.096-0.097,0.223-0.145,0.377-0.145c0.057,0,0.121,0.007,0.188,0.022
	C15.577,12.033,15.636,12.065,15.683,12.113z"/>
<path fill="#FFFFFF" d="M15.626,7.468l0.057,0.363c-0.037,0.039-0.057,0.067-0.057,0.087c0,0.058,0.02,0.111,0.057,0.16
	c0.039,0.048,0.088,0.072,0.146,0.072c0.115-0.029,0.174-0.097,0.174-0.203c0-0.039-0.02-0.077-0.059-0.116l0.029-0.392
	L15.626,7.468z"/>
<line fill="none" stroke="#FFFFFF" stroke-linecap="round" stroke-miterlimit="10" x1="7.891" y1="9.078" x2="8.828" y2="9.078"/>
</svg>
