<?xml version="1.0" encoding="utf-8"?>
<!-- Generator: Adobe Illustrator 15.0.2, SVG Export Plug-In . SVG Version: 6.00 Build 0)  -->
<!DOCTYPE svg PUBLIC "-//W3C//DTD SVG 1.1//EN" "http://www.w3.org/Graphics/SVG/1.1/DTD/svg11.dtd">
<svg version="1.1" id="Layer_1" xmlns="http://www.w3.org/2000/svg" xmlns:xlink="http://www.w3.org/1999/xlink" x="0px" y="0px"
	 width="24px" height="24px" viewBox="0 0 24 24" enable-background="new 0 0 24 24" xml:space="preserve">
<path fill="#58595B" d="M12.231,0.23c-5.739,0-6.943,2.824-6.943,5.279v11.512l6.943,6.939l6.943-6.939V5.51
	C19.175,3.054,17.971,0.23,12.231,0.23"/>
<path fill="#939598" d="M6.019,16.718V5.51c0-3.06,2.033-4.549,6.212-4.549s6.212,1.489,6.212,4.549v11.208l-6.212,6.209
	L6.019,16.718z"/>
<path fill="#808285" d="M12.597,1.702v19.827l5.117-5.114V5.51C17.714,3.78,17.111,1.806,12.597,1.702"/>
<path fill="#FFFFFF" d="M17.817,10.162c0,0.061,0.005,0.125,0.016,0.196c0,0.061,0.002,0.13,0.007,0.211
	c0.006,0.081,0.008,0.161,0.008,0.241c0,0.091,0,0.181,0,0.272c0,0.081-0.011,0.161-0.03,0.241
	c-0.029,0.231-0.073,0.559-0.129,0.981c-0.055,0.421-0.183,0.879-0.384,1.373c-0.07,0.17-0.171,0.379-0.302,0.626
	c-0.13,0.246-0.296,0.51-0.497,0.791c-0.202,0.281-0.438,0.563-0.709,0.845c-0.272,0.281-0.583,0.533-0.935,0.754
	c-0.353,0.221-0.744,0.401-1.177,0.543c-0.433,0.141-0.904,0.211-1.418,0.211c-0.734,0-1.369-0.128-1.907-0.385
	s-0.993-0.558-1.365-0.904c-0.372-0.348-0.667-0.696-0.882-1.049c-0.216-0.352-0.375-0.623-0.475-0.814
	c-0.01-0.01-0.032-0.045-0.068-0.105c-0.035-0.06-0.073-0.128-0.113-0.203c-0.041-0.075-0.079-0.144-0.113-0.203
	c-0.035-0.061-0.053-0.096-0.053-0.105c-0.171-0.282-0.322-0.559-0.453-0.83s-0.236-0.583-0.317-0.935
	c-0.03-0.171-0.052-0.354-0.068-0.55c-0.015-0.196-0.022-0.37-0.022-0.52c0-0.081,0-0.156,0-0.227c0-0.081,0.005-0.146,0.015-0.196
	c0-0.061,0.005-0.116,0.015-0.166l0.181,0.302c0.05,0.081,0.098,0.158,0.143,0.233c0.045,0.076,0.078,0.128,0.098,0.158
	c0.04,0.071,0.081,0.141,0.121,0.211c0.041,0.07,0.093,0.148,0.158,0.233c0.065,0.086,0.159,0.182,0.279,0.287
	c0.12,0.106,0.286,0.229,0.497,0.37c0.141,0.09,0.264,0.171,0.37,0.241c0.106,0.071,0.199,0.131,0.279,0.181
	c0.04,0.02,0.073,0.035,0.098,0.045c0.025,0.01,0.048,0.02,0.068,0.031c0.02,0.01,0.035,0.015,0.045,0.015v-0.121
	c-0.02-0.03-0.033-0.065-0.038-0.105c-0.005-0.04-0.022-0.075-0.053-0.105c-0.121-0.251-0.244-0.505-0.369-0.762
	c-0.126-0.256-0.199-0.415-0.219-0.475C8.09,10.931,8.051,10.8,8,10.599c-0.05-0.202-0.09-0.382-0.12-0.543V9.724
	c0-0.171,0.007-0.347,0.022-0.528C7.917,9.015,7.939,8.87,7.97,8.759C7.99,8.679,8.018,8.585,8.053,8.48s0.078-0.204,0.128-0.294
	C8.231,8.075,8.287,7.97,8.347,7.87c0.02,0.02,0.04,0.05,0.061,0.09c0.04,0.081,0.06,0.156,0.06,0.226
	c0.02,0.141,0.056,0.281,0.106,0.422c0.05,0.14,0.116,0.296,0.196,0.467c0.1,0.181,0.203,0.339,0.309,0.476
	c0.105,0.135,0.199,0.243,0.278,0.324c0.041,0.03,0.073,0.058,0.099,0.083c0.025,0.025,0.055,0.053,0.09,0.083
	s0.081,0.063,0.136,0.098c0.055,0.036,0.133,0.083,0.234,0.143c0.081,0.051,0.151,0.101,0.211,0.151
	c0.061,0.051,0.116,0.091,0.166,0.121l0.151,0.151v-0.211c0.02-0.02,0.03-0.045,0.03-0.075s0-0.056,0-0.076v-0.211
	c0-0.161-0.013-0.317-0.038-0.467c-0.025-0.151-0.063-0.296-0.113-0.438c-0.08-0.181-0.153-0.339-0.218-0.475
	c-0.065-0.136-0.108-0.244-0.128-0.324c-0.03-0.08-0.068-0.176-0.113-0.287C9.817,8.03,9.794,7.919,9.794,7.809l0.031-0.181
	c0.03-0.101,0.092-0.209,0.188-0.325s0.199-0.234,0.309-0.354c0.091-0.11,0.199-0.244,0.325-0.399
	c0.125-0.156,0.243-0.314,0.354-0.475c0.09-0.111,0.181-0.224,0.271-0.339c0.091-0.116,0.176-0.229,0.257-0.339
	c0.081-0.121,0.143-0.236,0.188-0.347S11.8,4.838,11.83,4.748c0.031-0.111,0.061-0.206,0.091-0.287
	c0.02-0.041,0.041-0.076,0.06-0.106c0.031-0.07,0.065-0.105,0.106-0.105c0.03,0,0.063,0.063,0.098,0.189
	c0.036,0.125,0.053,0.249,0.053,0.369c0,0.05-0.005,0.108-0.015,0.173c-0.01,0.065-0.025,0.113-0.045,0.144
	c-0.03,0.11-0.076,0.239-0.136,0.384c-0.061,0.146-0.131,0.294-0.212,0.445c-0.08,0.141-0.155,0.299-0.226,0.475
	c-0.071,0.176-0.106,0.33-0.106,0.46l-0.03,0.332c0,0.081,0.007,0.166,0.022,0.257c0.015,0.09,0.038,0.161,0.068,0.21
	c0.051,0.121,0.103,0.214,0.158,0.279c0.055,0.065,0.093,0.113,0.113,0.143l0.212,0.227c0.01,0.01,0.02,0.015,0.03,0.015
	c0.01,0.01,0.036,0.016,0.076,0.016c0.02,0,0.042-0.003,0.068-0.008c0.024-0.005,0.062-0.032,0.113-0.083
	c0.081-0.08,0.181-0.179,0.301-0.294c0.121-0.116,0.196-0.234,0.226-0.354c0.062-0.141,0.11-0.297,0.151-0.468
	c0.04-0.171,0.061-0.326,0.061-0.467c-0.011-0.03-0.015-0.065-0.015-0.105c-0.011-0.031-0.016-0.066-0.016-0.106
	c0-0.041,0-0.081,0-0.121c0-0.05,0-0.1,0-0.151c0-0.05,0.01-0.075,0.03-0.075c0.03,0,0.07,0.045,0.121,0.136
	c0.11,0.141,0.219,0.279,0.323,0.415c0.105,0.136,0.185,0.254,0.233,0.354c0.051,0.09,0.132,0.191,0.242,0.302
	c0.11,0.11,0.166,0.216,0.166,0.316v0.181c0,0.091-0.005,0.181-0.016,0.271c-0.01,0.09-0.045,0.196-0.105,0.317
	c-0.07,0.171-0.123,0.312-0.158,0.422c-0.035,0.11-0.067,0.226-0.098,0.347c-0.031,0.091-0.063,0.188-0.099,0.294
	c-0.035,0.105-0.052,0.213-0.052,0.324v0.241c0.009,0.071,0.027,0.139,0.052,0.204c0.025,0.066,0.053,0.124,0.083,0.173
	c0.04,0.061,0.075,0.121,0.105,0.181c0.131-0.09,0.257-0.191,0.378-0.301c0.11-0.09,0.228-0.199,0.354-0.325
	c0.125-0.125,0.242-0.264,0.354-0.415c0.111-0.15,0.214-0.321,0.31-0.513c0.095-0.191,0.174-0.372,0.233-0.542
	c0.07-0.191,0.136-0.387,0.195-0.588c0.051,0.131,0.096,0.256,0.136,0.377c0.031,0.111,0.062,0.219,0.091,0.324
	c0.03,0.106,0.051,0.193,0.061,0.264c0,0.06,0.006,0.138,0.015,0.233c0.011,0.096,0.017,0.188,0.017,0.279
	c0,0.171-0.011,0.357-0.031,0.558c-0.02,0.201-0.064,0.387-0.136,0.558l-0.302,1.056c-0.02,0.061-0.035,0.12-0.045,0.181
	c-0.011,0.061-0.015,0.131-0.015,0.211c0,0.11,0.004,0.186,0.015,0.226c0,0.04,0.005,0.07,0.015,0.09
	c0.102-0.07,0.197-0.135,0.287-0.196c0.08-0.05,0.158-0.106,0.233-0.166c0.076-0.061,0.138-0.116,0.188-0.167
	c0.091-0.08,0.187-0.171,0.287-0.271c0.1-0.101,0.19-0.206,0.271-0.317c0.08-0.09,0.161-0.193,0.24-0.309
	c0.081-0.116,0.156-0.239,0.227-0.37c0.03-0.05,0.063-0.113,0.099-0.188c0.035-0.076,0.067-0.149,0.098-0.219
	c0.04-0.081,0.076-0.161,0.105-0.242l0.151-0.302L17.817,10.162z"/>
</svg>
