<?xml version="1.0" encoding="utf-8"?>
<!-- Generator: Adobe Illustrator 15.0.2, SVG Export Plug-In . SVG Version: 6.00 Build 0)  -->
<!DOCTYPE svg PUBLIC "-//W3C//DTD SVG 1.1//EN" "http://www.w3.org/Graphics/SVG/1.1/DTD/svg11.dtd">
<svg version="1.1" id="Layer_1" xmlns="http://www.w3.org/2000/svg" xmlns:xlink="http://www.w3.org/1999/xlink" x="0px" y="0px"
	 width="24px" height="24px" viewBox="0 0 24 24" enable-background="new 0 0 24 24" xml:space="preserve">
<path fill="#58595B" d="M12.231,0.23c-5.739,0-6.943,2.824-6.943,5.279v11.512l6.943,6.939l6.943-6.939V5.51
	C19.175,3.054,17.971,0.23,12.231,0.23"/>
<path fill="#939598" d="M6.019,16.718V5.51c0-3.06,2.033-4.549,6.212-4.549s6.212,1.489,6.212,4.549v11.208l-6.212,6.209
	L6.019,16.718z"/>
<path fill="#808285" d="M12.597,1.702v19.827l5.117-5.114V5.51C17.714,3.78,17.111,1.806,12.597,1.702"/>
<path fill="#FFFFFF" d="M15.774,6.31V3.59h-1.843v1.093l-1.835-1.622L6.794,7.734h0.922v3.154c0.584-0.216,1.161-0.094,1.917,0.298
	c0.52,0.273,1.358,0.201,1.941-0.098c0.808-0.426,1.244-0.325,2.093,0.053c0.648,0.291,1.238,0.291,1.894,0
	c0.352-0.157,0.635-0.261,0.903-0.306V7.734h0.921L15.774,6.31z"/>
<path fill="#FFFFFF" d="M17.664,12.46c-0.803-0.425-1.26-0.321-2.104,0.055c-0.655,0.291-1.245,0.289-1.894,0
	c-0.85-0.377-1.285-0.479-2.093-0.055c-0.583,0.301-1.421,0.372-1.941,0.101c-0.915-0.474-1.568-0.563-2.293-0.118
	c0,0-0.314,0.24-1.006,0.245v0.384v1.354v0.105c0.692-0.006,1.006-0.246,1.006-0.246c0.725-0.445,1.378-0.357,2.293,0.117
	c0.52,0.273,1.358,0.201,1.941-0.1c0.808-0.424,1.244-0.322,2.093,0.055c0.648,0.289,1.238,0.291,1.894,0
	c0.844-0.375,1.301-0.479,2.104-0.055V12.46z"/>
</svg>
