<?xml version="1.0" encoding="utf-8"?>
<!-- Generator: Adobe Illustrator 15.0.2, SVG Export Plug-In . SVG Version: 6.00 Build 0)  -->
<!DOCTYPE svg PUBLIC "-//W3C//DTD SVG 1.1//EN" "http://www.w3.org/Graphics/SVG/1.1/DTD/svg11.dtd">
<svg version="1.1" id="Layer_1" xmlns="http://www.w3.org/2000/svg" xmlns:xlink="http://www.w3.org/1999/xlink" x="0px" y="0px"
	 width="24px" height="24px" viewBox="0 0 24 24" enable-background="new 0 0 24 24" xml:space="preserve">
<path fill="#58595B" d="M12.231,0.23c-5.739,0-6.943,2.824-6.943,5.279v11.512l6.943,6.939l6.943-6.939V5.51
	C19.175,3.054,17.971,0.23,12.231,0.23"/>
<path fill="#939598" d="M6.019,16.718V5.51c0-3.06,2.033-4.549,6.212-4.549s6.212,1.489,6.212,4.549v11.208l-6.212,6.209
	L6.019,16.718z"/>
<path fill="#808285" d="M12.597,1.702v19.827l5.117-5.114V5.51C17.714,3.78,17.111,1.806,12.597,1.702"/>
<path fill="#FFFFFF" d="M17.656,8.526l-1.235,0.001l0.246-0.388c0.155-0.247,0.081-0.574-0.165-0.73
	c-0.248-0.156-0.573-0.083-0.731,0.163L15.166,8.53l-2.084,0.003l1.04-1.828l1.438-0.078c0.293-0.016,0.516-0.266,0.5-0.558
	c-0.017-0.292-0.265-0.516-0.558-0.5L14.746,5.61l0.333-0.585c0.146-0.253,0.056-0.577-0.198-0.722
	c-0.254-0.144-0.577-0.056-0.723,0.198l-0.334,0.59l-0.208-0.375c-0.14-0.256-0.463-0.35-0.719-0.209
	c-0.255,0.142-0.349,0.463-0.208,0.72l0.52,0.944l-1.041,1.828L11.126,6.17l0.519-0.944c0.142-0.255,0.048-0.578-0.208-0.719
	c-0.257-0.141-0.579-0.048-0.719,0.208L10.512,5.09l-0.335-0.588c-0.146-0.255-0.468-0.344-0.723-0.2
	C9.2,4.447,9.111,4.771,9.256,5.025L9.589,5.61L8.832,5.57C8.54,5.553,8.291,5.777,8.275,6.069c-0.016,0.293,0.208,0.542,0.5,0.558
	l1.437,0.078l1.041,1.828L9.17,8.53L8.564,7.572C8.408,7.326,8.081,7.253,7.833,7.409C7.586,7.566,7.513,7.893,7.67,8.14
	l0.245,0.388L6.68,8.526c-0.292,0-0.53,0.237-0.531,0.529c0,0.292,0.236,0.531,0.529,0.531l1.217,0.002L7.51,10.205
	c-0.154,0.248-0.077,0.574,0.171,0.729c0.248,0.155,0.575,0.078,0.729-0.171l0.732-1.174l2.116,0.003l-1.011,1.77l-1.093,0.062
	c-0.292,0.018-0.515,0.267-0.499,0.559c0.018,0.292,0.268,0.516,0.56,0.498l0.406-0.023L9,13.54
	c-0.145,0.255-0.057,0.579,0.197,0.724s0.577,0.057,0.722-0.197l0.642-1.125l0.38,0.682c0.142,0.255,0.465,0.348,0.721,0.204
	c0.255-0.141,0.347-0.463,0.205-0.719l-0.691-1.242l0.991-1.732l0.001,0.003l0.001-0.003l0.991,1.732l-0.692,1.242
	c-0.142,0.256-0.05,0.578,0.206,0.719c0.255,0.144,0.576,0.051,0.72-0.204l0.381-0.682l0.641,1.125
	c0.145,0.254,0.469,0.342,0.723,0.197c0.253-0.145,0.342-0.469,0.198-0.724l-0.619-1.082l0.405,0.023
	c0.293,0.018,0.542-0.207,0.56-0.498c0.017-0.292-0.207-0.542-0.499-0.559l-1.093-0.062l-1.012-1.77l2.116-0.003l0.732,1.174
	c0.152,0.249,0.479,0.326,0.728,0.171c0.249-0.155,0.326-0.481,0.171-0.729l-0.384-0.617l1.217-0.002
	c0.293,0,0.528-0.239,0.528-0.531S17.948,8.526,17.656,8.526z"/>
</svg>
