<?xml version="1.0" encoding="utf-8"?>
<!-- Generator: Adobe Illustrator 15.0.2, SVG Export Plug-In . SVG Version: 6.00 Build 0)  -->
<!DOCTYPE svg PUBLIC "-//W3C//DTD SVG 1.1//EN" "http://www.w3.org/Graphics/SVG/1.1/DTD/svg11.dtd">
<svg version="1.1" id="Layer_1" xmlns="http://www.w3.org/2000/svg" xmlns:xlink="http://www.w3.org/1999/xlink" x="0px" y="0px"
	 width="24px" height="24px" viewBox="0 0 24 24" enable-background="new 0 0 24 24" xml:space="preserve">
<path fill="#58595B" d="M12.231,0.23c-5.739,0-6.943,2.824-6.943,5.279v11.512l6.943,6.939l6.943-6.939V5.51
	C19.175,3.054,17.971,0.23,12.231,0.23"/>
<path fill="#939598" d="M6.019,16.718V5.51c0-3.06,2.033-4.549,6.212-4.549s6.212,1.489,6.212,4.549v11.208l-6.212,6.209
	L6.019,16.718z"/>
<path fill="#808285" d="M12.597,1.702v19.827l5.117-5.114V5.51C17.714,3.78,17.111,1.806,12.597,1.702"/>
<path fill="#FFFFFF" d="M12.863,6.574c0.82,0.28,1.91,0.612,2.143-0.715c0.183-1.03,1.559-0.648,2.145-0.714
	C18.211,5.023,17.41,3.03,16.078,3c-1.35-0.029-1.963,0.563-2.502,1.786c-0.256,0.587-0.475,1.032-1.428,0.715
	c-0.953-0.317-1.65,0.465-1.072,1.429c0.513,0.854-0.008,1.786-0.008,1.786h1.437c0,0-0.012-0.531-0.357-1.072
	C11.745,7.015,12.022,6.284,12.863,6.574z"/>
<path fill="#FFFFFF" d="M6.25,15.462c3.696-2.695,3.62-6.418,3.62-6.418h3.798c0,0-0.052,3.723,3.645,6.418H6.25z"/>
</svg>
